 0
SECTION
 2
ENTITIES
  0
LINE
 8
Layer0
10
594.6355750553932
20
229.75236484202168
30
465.7000200567872
11
594.6355750553931
21
229.75236484202168
31
915.7000200567873
  0
LINE
 8
Layer0
10
210.63557505539472
20
229.75236484160789
30
465.7000200567872
11
320.6355750553948
21
229.7523648417265
31
465.7000200567872
  0
LINE
 8
Layer0
10
210.63557505539472
20
229.75236484160789
30
915.7000200567873
11
210.63557505539472
21
229.75236484160789
31
465.7000200567872
  0
LINE
 8
Layer0
10
594.6355750553931
20
229.75236484202168
30
915.7000200567873
11
210.63557505539472
21
229.75236484160789
31
915.7000200567873
  0
LINE
 8
Layer0
10
554.6355750553945
20
229.75236484197848
30
465.7000200567872
11
594.6355750553932
21
229.75236484202168
31
465.7000200567872
  0
LINE
 8
Layer0
10
544.6355750553946
20
229.7523648419673
30
475.7000200567872
11
554.6355750553945
21
229.75236484197848
31
465.7000200567872
  0
LINE
 8
Layer0
10
330.6355750553948
20
229.75236484173723
30
475.7000200567872
11
544.6355750553946
21
229.7523648419673
31
475.7000200567872
  0
LINE
 8
Layer0
10
320.6355750553948
20
229.7523648417265
30
465.7000200567872
11
330.6355750553948
21
229.75236484173723
31
475.7000200567872
  0
LINE
 8
Layer0
10
585.146982203746
20
229.7523648420114
30
856.3729495740537
11
585.2355750553944
21
229.75236484201147
31
855.7000200567871
  0
LINE
 8
Layer0
10
584.887241105234
20
229.7523648420111
30
857.0000200567872
11
585.146982203746
21
229.7523648420114
31
856.3729495740537
  0
LINE
 8
Layer0
10
584.4740526864795
20
229.75236484201065
30
857.5384976878722
11
584.887241105234
21
229.7523648420111
31
857.0000200567872
  0
LINE
 8
Layer0
10
583.9355750553943
20
229.7523648420101
30
857.9516861066267
11
584.4740526864795
21
229.75236484201065
31
857.5384976878722
  0
LINE
 8
Layer0
10
583.308504572661
20
229.7523648420094
30
858.2114272051389
11
583.9355750553943
21
229.7523648420101
31
857.9516861066267
  0
LINE
 8
Layer0
10
582.6355750553944
20
229.75236484200866
30
858.300020056787
11
583.308504572661
21
229.7523648420094
31
858.2114272051389
  0
LINE
 8
Layer0
10
581.9626455381278
20
229.75236484200795
30
858.2114272051389
11
582.6355750553944
21
229.75236484200866
31
858.300020056787
  0
LINE
 8
Layer0
10
581.3355750553943
20
229.75236484200732
30
857.9516861066267
11
581.9626455381278
21
229.75236484200795
31
858.2114272051389
  0
LINE
 8
Layer0
10
580.7970974243094
20
229.7523648420067
30
857.5384976878722
11
581.3355750553943
21
229.75236484200732
31
857.9516861066267
  0
LINE
 8
Layer0
10
580.3839090055548
20
229.75236484200533
30
857.0000200567872
11
580.7970974243094
21
229.7523648420067
31
857.5384976878722
  0
LINE
 8
Layer0
10
580.1241679070428
20
229.75236484200596
30
856.3729495740537
11
580.3839090055548
21
229.75236484200533
31
857.0000200567872
  0
LINE
 8
Layer0
10
580.0355750553944
20
229.75236484200587
30
855.7000200567871
11
580.1241679070428
21
229.75236484200596
31
856.3729495740537
  0
LINE
 8
Layer0
10
580.1241679070428
20
229.75236484200596
30
855.0270905395205
11
580.0355750553944
21
229.75236484200587
31
855.7000200567871
  0
LINE
 8
Layer0
10
580.3839090055548
20
229.75236484200533
30
854.4000200567871
11
580.1241679070428
21
229.75236484200596
31
855.0270905395205
  0
LINE
 8
Layer0
10
580.7970974243094
20
229.7523648420067
30
853.861542425702
11
580.3839090055548
21
229.75236484200533
31
854.4000200567871
  0
LINE
 8
Layer0
10
581.3355750553944
20
229.75236484200732
30
853.4483540069476
11
580.7970974243094
21
229.7523648420067
31
853.861542425702
  0
LINE
 8
Layer0
10
581.9626455381278
20
229.75236484200795
30
853.1886129084354
11
581.3355750553944
21
229.75236484200732
31
853.4483540069476
  0
LINE
 8
Layer0
10
582.6355750553944
20
229.75236484200866
30
853.1000200567872
11
581.9626455381278
21
229.75236484200795
31
853.1886129084354
  0
LINE
 8
Layer0
10
583.308504572661
20
229.7523648420094
30
853.1886129084354
11
582.6355750553944
21
229.75236484200866
31
853.1000200567872
  0
LINE
 8
Layer0
10
583.9355750553945
20
229.7523648420101
30
853.4483540069476
11
583.308504572661
21
229.7523648420094
31
853.1886129084354
  0
LINE
 8
Layer0
10
584.4740526864795
20
229.75236484201065
30
853.861542425702
11
583.9355750553945
21
229.7523648420101
31
853.4483540069476
  0
LINE
 8
Layer0
10
584.887241105234
20
229.7523648420111
30
854.4000200567871
11
584.4740526864795
21
229.75236484201065
31
853.861542425702
  0
LINE
 8
Layer0
10
585.146982203746
20
229.7523648420114
30
855.0270905395205
11
584.887241105234
21
229.7523648420111
31
854.4000200567871
  0
LINE
 8
Layer0
10
585.2355750553944
20
229.75236484201147
30
855.7000200567871
11
585.146982203746
21
229.7523648420114
31
855.0270905395205
  0
LINE
 8
Layer0
10
225.14698220374646
20
229.75236484162448
30
856.3729495740537
11
225.2355750553949
21
229.75236484162457
31
855.7000200567871
  0
LINE
 8
Layer0
10
224.8872411052344
20
229.7523648416242
30
857.0000200567872
11
225.14698220374646
21
229.75236484162448
31
856.3729495740537
  0
LINE
 8
Layer0
10
224.47405268647992
20
229.75236484162374
30
857.5384976878722
11
224.8872411052344
21
229.7523648416242
31
857.0000200567872
  0
LINE
 8
Layer0
10
223.93557505539488
20
229.7523648416232
30
857.9516861066267
11
224.47405268647992
21
229.75236484162374
31
857.5384976878722
  0
LINE
 8
Layer0
10
223.30850457266143
20
229.7523648416225
30
858.2114272051386
11
223.93557505539488
21
229.7523648416232
31
857.9516861066267
  0
LINE
 8
Layer0
10
222.6355750553949
20
229.75236484162178
30
858.300020056787
11
223.30850457266143
21
229.7523648416225
31
858.2114272051386
  0
LINE
 8
Layer0
10
221.96264553812836
20
229.75236484162104
30
858.2114272051386
11
222.6355750553949
21
229.75236484162178
31
858.300020056787
  0
LINE
 8
Layer0
10
221.33557505539488
20
229.75236484162042
30
857.9516861066267
11
221.96264553812836
21
229.75236484162104
31
858.2114272051386
  0
LINE
 8
Layer0
10
220.79709742430987
20
229.75236484161888
30
857.5384976878721
11
221.33557505539488
21
229.75236484162042
31
857.9516861066267
  0
LINE
 8
Layer0
10
220.38390900555538
20
229.75236484161934
30
857.0000200567872
11
220.79709742430987
21
229.75236484161888
31
857.5384976878721
  0
LINE
 8
Layer0
10
220.12416790704333
20
229.75236484161906
30
856.3729495740537
11
220.38390900555538
21
229.75236484161934
31
857.0000200567872
  0
LINE
 8
Layer0
10
220.0355750553949
20
229.75236484161897
30
855.7000200567871
11
220.12416790704333
21
229.75236484161906
31
856.3729495740537
  0
LINE
 8
Layer0
10
220.12416790704333
20
229.75236484161906
30
855.0270905395205
11
220.0355750553949
21
229.75236484161897
31
855.7000200567871
  0
LINE
 8
Layer0
10
220.38390900555538
20
229.75236484161934
30
854.4000200567871
11
220.12416790704333
21
229.75236484161906
31
855.0270905395205
  0
LINE
 8
Layer0
10
220.79709742430987
20
229.75236484161888
30
853.861542425702
11
220.38390900555538
21
229.75236484161934
31
854.4000200567871
  0
LINE
 8
Layer0
10
221.3355750553949
20
229.75236484162042
30
853.4483540069476
11
220.79709742430987
21
229.75236484161888
31
853.861542425702
  0
LINE
 8
Layer0
10
221.96264553812836
20
229.75236484162104
30
853.1886129084356
11
221.3355750553949
21
229.75236484162042
31
853.4483540069476
  0
LINE
 8
Layer0
10
222.6355750553949
20
229.75236484162178
30
853.1000200567872
11
221.96264553812836
21
229.75236484162104
31
853.1886129084356
  0
LINE
 8
Layer0
10
223.30850457266143
20
229.7523648416225
30
853.1886129084356
11
222.6355750553949
21
229.75236484162178
31
853.1000200567872
  0
LINE
 8
Layer0
10
223.9355750553949
20
229.7523648416232
30
853.4483540069476
11
223.30850457266143
21
229.7523648416225
31
853.1886129084356
  0
LINE
 8
Layer0
10
224.47405268647992
20
229.75236484162374
30
853.861542425702
11
223.9355750553949
21
229.7523648416232
31
853.4483540069476
  0
LINE
 8
Layer0
10
224.8872411052344
20
229.7523648416242
30
854.4000200567871
11
224.47405268647992
21
229.75236484162374
31
853.861542425702
  0
LINE
 8
Layer0
10
225.14698220374646
20
229.75236484162448
30
855.0270905395205
11
224.8872411052344
21
229.7523648416242
31
854.4000200567871
  0
LINE
 8
Layer0
10
225.2355750553949
20
229.75236484162457
30
855.7000200567871
11
225.14698220374646
21
229.75236484162448
31
855.0270905395205
  0
LINE
 8
Layer0
10
585.1469822037458
20
229.75236484201162
30
511.37294957405373
11
585.2355750553942
21
229.7523648420117
31
510.7000200567872
  0
LINE
 8
Layer0
10
584.8872411052338
20
229.75236484201133
30
512.0000200567872
11
585.1469822037458
21
229.75236484201162
31
511.37294957405373
  0
LINE
 8
Layer0
10
584.4740526864791
20
229.75236484201088
30
512.5384976878722
11
584.8872411052338
21
229.75236484201133
31
512.0000200567872
  0
LINE
 8
Layer0
10
583.9355750553941
20
229.75236484201034
30
512.9516861066268
11
584.4740526864791
21
229.75236484201088
31
512.5384976878722
  0
LINE
 8
Layer0
10
583.3085045726607
20
229.75236484200963
30
513.2114272051388
11
583.9355750553941
21
229.75236484201034
31
512.9516861066268
  0
LINE
 8
Layer0
10
582.6355750553942
20
229.7523648420089
30
513.3000200567872
11
583.3085045726607
21
229.75236484200963
31
513.2114272051388
  0
LINE
 8
Layer0
10
581.9626455381275
20
229.75236484200818
30
513.2114272051388
11
582.6355750553942
21
229.7523648420089
31
513.3000200567872
  0
LINE
 8
Layer0
10
581.3355750553941
20
229.75236484200755
30
512.9516861066268
11
581.9626455381275
21
229.75236484200818
31
513.2114272051388
  0
LINE
 8
Layer0
10
580.7970974243091
20
229.75236484200693
30
512.5384976878722
11
581.3355750553941
21
229.75236484200755
31
512.9516861066268
  0
LINE
 8
Layer0
10
580.3839090055545
20
229.75236484200556
30
512.0000200567871
11
580.7970974243091
21
229.75236484200693
31
512.5384976878722
  0
LINE
 8
Layer0
10
580.1241679070425
20
229.7523648420062
30
511.37294957405373
11
580.3839090055545
21
229.75236484200556
31
512.0000200567871
  0
LINE
 8
Layer0
10
580.0355750553941
20
229.7523648420061
30
510.7000200567872
11
580.1241679070425
21
229.7523648420062
31
511.37294957405373
  0
LINE
 8
Layer0
10
580.1241679070425
20
229.7523648420062
30
510.0270905395206
11
580.0355750553941
21
229.7523648420061
31
510.7000200567872
  0
LINE
 8
Layer0
10
580.3839090055545
20
229.75236484200556
30
509.4000200567871
11
580.1241679070425
21
229.7523648420062
31
510.0270905395206
  0
LINE
 8
Layer0
10
580.7970974243091
20
229.75236484200693
30
508.86154242570217
11
580.3839090055545
21
229.75236484200556
31
509.4000200567871
  0
LINE
 8
Layer0
10
581.3355750553942
20
229.75236484200755
30
508.44835400694757
11
580.7970974243091
21
229.75236484200693
31
508.86154242570217
  0
LINE
 8
Layer0
10
581.9626455381275
20
229.75236484200818
30
508.1886129084356
11
581.3355750553942
21
229.75236484200755
31
508.44835400694757
  0
LINE
 8
Layer0
10
582.6355750553942
20
229.7523648420089
30
508.1000200567871
11
581.9626455381275
21
229.75236484200818
31
508.1886129084356
  0
LINE
 8
Layer0
10
583.3085045726607
20
229.75236484200963
30
508.1886129084356
11
582.6355750553942
21
229.7523648420089
31
508.1000200567871
  0
LINE
 8
Layer0
10
583.9355750553942
20
229.75236484201034
30
508.44835400694757
11
583.3085045726607
21
229.75236484200963
31
508.1886129084356
  0
LINE
 8
Layer0
10
584.4740526864791
20
229.75236484201088
30
508.86154242570217
11
583.9355750553942
21
229.75236484201034
31
508.44835400694757
  0
LINE
 8
Layer0
10
584.8872411052338
20
229.75236484201133
30
509.4000200567872
11
584.4740526864791
21
229.75236484201088
31
508.86154242570217
  0
LINE
 8
Layer0
10
585.1469822037458
20
229.75236484201162
30
510.0270905395206
11
584.8872411052338
21
229.75236484201133
31
509.4000200567872
  0
LINE
 8
Layer0
10
585.2355750553942
20
229.7523648420117
30
510.7000200567872
11
585.1469822037458
21
229.75236484201162
31
510.0270905395206
  0
LINE
 8
Layer0
10
225.14698220374603
20
229.7523648416244
30
510.0270905395206
11
224.887241105234
21
229.75236484162411
31
509.4000200567872
  0
LINE
 8
Layer0
10
225.2355750553945
20
229.75236484162448
30
510.7000200567872
11
225.14698220374603
21
229.7523648416244
31
510.0270905395206
  0
LINE
 8
Layer0
10
225.14698220374603
20
229.7523648416244
30
511.37294957405373
11
225.2355750553945
21
229.75236484162448
31
510.7000200567872
  0
LINE
 8
Layer0
10
224.887241105234
20
229.75236484162411
30
512.0000200567871
11
225.14698220374603
21
229.7523648416244
31
511.37294957405373
  0
LINE
 8
Layer0
10
224.4740526864795
20
229.75236484162366
30
512.5384976878722
11
224.887241105234
21
229.75236484162411
31
512.0000200567871
  0
LINE
 8
Layer0
10
223.93557505539445
20
229.75236484162303
30
512.9516861066267
11
224.4740526864795
21
229.75236484162366
31
512.5384976878722
  0
LINE
 8
Layer0
10
223.30850457266104
20
229.7523648416224
30
513.2114272051388
11
223.93557505539445
21
229.75236484162303
31
512.9516861066267
  0
LINE
 8
Layer0
10
222.6355750553945
20
229.75236484162167
30
513.3000200567872
11
223.30850457266104
21
229.7523648416224
31
513.2114272051388
  0
LINE
 8
Layer0
10
221.96264553812793
20
229.75236484162096
30
513.2114272051388
11
222.6355750553945
21
229.75236484162167
31
513.3000200567872
  0
LINE
 8
Layer0
10
221.33557505539446
20
229.75236484162025
30
512.9516861066267
11
221.96264553812793
21
229.75236484162096
31
513.2114272051388
  0
LINE
 8
Layer0
10
220.79709742430947
20
229.7523648416188
30
512.5384976878722
11
221.33557505539446
21
229.75236484162025
31
512.9516861066267
  0
LINE
 8
Layer0
10
220.38390900555495
20
229.75236484161925
30
512.0000200567871
11
220.79709742430947
21
229.7523648416188
31
512.5384976878722
  0
LINE
 8
Layer0
10
220.12416790704293
20
229.75236484161897
30
511.37294957405373
11
220.38390900555495
21
229.75236484161925
31
512.0000200567871
  0
LINE
 8
Layer0
10
220.0355750553945
20
229.75236484161888
30
510.7000200567872
11
220.12416790704293
21
229.75236484161897
31
511.37294957405373
  0
LINE
 8
Layer0
10
220.12416790704293
20
229.75236484161897
30
510.0270905395206
11
220.0355750553945
21
229.75236484161888
31
510.7000200567872
  0
LINE
 8
Layer0
10
220.38390900555495
20
229.75236484161925
30
509.4000200567872
11
220.12416790704293
21
229.75236484161897
31
510.0270905395206
  0
LINE
 8
Layer0
10
220.79709742430947
20
229.7523648416188
30
508.86154242570217
11
220.38390900555495
21
229.75236484161925
31
509.4000200567872
  0
LINE
 8
Layer0
10
221.33557505539451
20
229.75236484162025
30
508.4483540069477
11
220.79709742430947
21
229.7523648416188
31
508.86154242570217
  0
LINE
 8
Layer0
10
221.96264553812793
20
229.75236484162096
30
508.1886129084356
11
221.33557505539451
21
229.75236484162025
31
508.4483540069477
  0
LINE
 8
Layer0
10
222.6355750553945
20
229.75236484162167
30
508.1000200567871
11
221.96264553812793
21
229.75236484162096
31
508.1886129084356
  0
LINE
 8
Layer0
10
223.30850457266104
20
229.7523648416224
30
508.1886129084356
11
222.6355750553945
21
229.75236484162167
31
508.1000200567871
  0
LINE
 8
Layer0
10
223.9355750553945
20
229.75236484162303
30
508.4483540069477
11
223.30850457266104
21
229.7523648416224
31
508.1886129084356
  0
LINE
 8
Layer0
10
224.4740526864795
20
229.75236484162366
30
508.86154242570217
11
223.9355750553945
21
229.75236484162303
31
508.4483540069477
  0
LINE
 8
Layer0
10
224.887241105234
20
229.75236484162411
30
509.4000200567872
11
224.4740526864795
21
229.75236484162366
31
508.86154242570217
  0
LINE
 8
Layer0
10
268.13557505539444
20
229.75236484167033
30
495.70002005678714
11
268.13557505539444
21
229.75236484167033
31
471.7000200567873
  0
LINE
 8
Layer0
10
268.13557505539444
20
229.75236484167033
30
471.7000200567873
11
268.1866863159609
21
229.75236484167024
31
471.3117914891335
  0
LINE
 8
Layer0
10
268.1866863159609
20
229.75236484167024
30
471.3117914891335
11
268.24975575662756
21
229.7523648416705
31
471.12599490823965
  0
LINE
 8
Layer0
10
268.24975575662756
20
229.7523648416705
30
471.12599490823965
11
268.33653694971787
21
229.75236484167058
31
470.95002005678725
  0
LINE
 8
Layer0
10
268.33653694971787
20
229.75236484167058
30
470.95002005678725
11
268.4455450449576
21
229.75236484167024
31
470.78687791327417
  0
LINE
 8
Layer0
10
268.4455450449576
20
229.75236484167024
30
470.78687791327417
11
268.57491488361467
21
229.75236484167087
31
470.6393598850075
  0
LINE
 8
Layer0
10
268.57491488361467
20
229.75236484167087
30
470.6393598850075
11
268.72243291188136
21
229.75236484167095
31
470.5099900463504
  0
LINE
 8
Layer0
10
268.72243291188136
20
229.75236484167095
30
470.5099900463504
11
268.88557505539444
21
229.75236484167112
31
470.4009819511106
  0
LINE
 8
Layer0
10
268.88557505539444
20
229.75236484167112
30
470.4009819511106
11
269.06154990684684
21
229.75236484167132
31
470.3142007580203
  0
LINE
 8
Layer0
10
269.06154990684684
20
229.75236484167132
30
470.3142007580203
11
269.24734648774074
21
229.75236484167158
31
470.25113131735367
  0
LINE
 8
Layer0
10
269.24734648774074
20
229.75236484167158
30
470.25113131735367
11
269.63557505539444
21
229.75236484167195
31
470.20002005678725
  0
LINE
 8
Layer0
10
269.63557505539444
20
229.75236484167195
30
470.20002005678725
11
313.6355750553946
21
229.75236484171924
31
470.20002005678725
  0
LINE
 8
Layer0
10
313.6355750553946
20
229.75236484171924
30
470.20002005678725
11
314.0238036230485
21
229.75236484171913
31
470.25113131735367
  0
LINE
 8
Layer0
10
314.0238036230485
20
229.75236484171913
30
470.25113131735367
11
314.20960020394216
21
229.75236484171987
31
470.3142007580203
  0
LINE
 8
Layer0
10
314.20960020394216
20
229.75236484171987
30
470.3142007580203
11
314.38557505539455
21
229.75236484172004
31
470.4009819511106
  0
LINE
 8
Layer0
10
314.38557505539455
20
229.75236484172004
30
470.4009819511106
11
314.54871719890764
21
229.75236484172024
31
470.5099900463504
  0
LINE
 8
Layer0
10
314.54871719890764
20
229.75236484172024
30
470.5099900463504
11
314.6962352271743
21
229.75236484171995
31
470.6393598850075
  0
LINE
 8
Layer0
10
314.6962352271743
20
229.75236484171995
30
470.6393598850075
11
314.8256050658314
21
229.75236484172004
31
470.78687791327417
  0
LINE
 8
Layer0
10
314.8256050658314
20
229.75236484172004
30
470.78687791327417
11
314.9346131610713
21
229.75236484172066
31
470.95002005678725
  0
LINE
 8
Layer0
10
314.9346131610713
20
229.75236484172066
30
470.95002005678725
11
315.0213943541616
21
229.75236484172078
31
471.12599490823965
  0
LINE
 8
Layer0
10
315.0213943541616
20
229.75236484172078
30
471.12599490823965
11
315.08446379482825
21
229.75236484172086
31
471.3117914891335
  0
LINE
 8
Layer0
10
315.08446379482825
20
229.75236484172086
30
471.3117914891335
11
315.13557505539455
21
229.75236484172086
31
471.7000200567873
  0
LINE
 8
Layer0
10
315.13557505539455
20
229.75236484172086
30
471.7000200567873
11
315.13557505539455
21
229.75236484172086
31
495.70002005678714
  0
LINE
 8
Layer0
10
315.13557505539455
20
229.75236484172086
30
495.70002005678714
11
315.08446379482825
21
229.75236484172078
31
496.08824862444095
  0
LINE
 8
Layer0
10
315.08446379482825
20
229.75236484172078
30
496.08824862444095
11
315.0213943541616
21
229.75236484172066
31
496.2740452053348
  0
LINE
 8
Layer0
10
315.0213943541616
20
229.75236484172066
30
496.2740452053348
11
314.9346131610713
21
229.75236484172058
31
496.45002005678714
  0
LINE
 8
Layer0
10
314.9346131610713
20
229.75236484172058
30
496.45002005678714
11
314.8256050658314
21
229.75236484172004
31
496.6131622003003
  0
LINE
 8
Layer0
10
314.8256050658314
20
229.75236484172004
30
496.6131622003003
11
314.6962352271743
21
229.75236484171995
31
496.76068022856697
  0
LINE
 8
Layer0
10
314.6962352271743
20
229.75236484171995
30
496.76068022856697
11
314.54871719890764
21
229.75236484172024
31
496.890050067224
  0
LINE
 8
Layer0
10
314.54871719890764
20
229.75236484172024
30
496.890050067224
11
314.38557505539455
21
229.75236484172004
31
496.9990581624638
  0
LINE
 8
Layer0
10
314.38557505539455
20
229.75236484172004
30
496.9990581624638
11
314.20960020394216
21
229.75236484171987
31
497.0858393555541
  0
LINE
 8
Layer0
10
314.20960020394216
20
229.75236484171987
30
497.0858393555541
11
314.0238036230485
21
229.75236484171913
31
497.1489087962208
  0
LINE
 8
Layer0
10
314.0238036230485
20
229.75236484171913
30
497.1489087962208
11
313.6355750553946
21
229.75236484171924
31
497.2000200567872
  0
LINE
 8
Layer0
10
313.6355750553946
20
229.75236484171924
30
497.2000200567872
11
269.63557505539444
21
229.75236484167195
31
497.2000200567872
  0
LINE
 8
Layer0
10
269.63557505539444
20
229.75236484167195
30
497.2000200567872
11
269.24734648774074
21
229.75236484167158
31
497.1489087962208
  0
LINE
 8
Layer0
10
269.24734648774074
20
229.75236484167158
30
497.1489087962208
11
269.06154990684684
21
229.75236484167132
31
497.0858393555541
  0
LINE
 8
Layer0
10
269.06154990684684
20
229.75236484167132
30
497.0858393555541
11
268.88557505539444
21
229.75236484167112
31
496.9990581624638
  0
LINE
 8
Layer0
10
268.88557505539444
20
229.75236484167112
30
496.9990581624638
11
268.72243291188136
21
229.75236484167095
31
496.890050067224
  0
LINE
 8
Layer0
10
268.72243291188136
20
229.75236484167095
30
496.890050067224
11
268.57491488361467
21
229.75236484167087
31
496.76068022856697
  0
LINE
 8
Layer0
10
268.57491488361467
20
229.75236484167087
30
496.76068022856697
11
268.4455450449576
21
229.75236484167024
31
496.6131622003003
  0
LINE
 8
Layer0
10
268.4455450449576
20
229.75236484167024
30
496.6131622003003
11
268.33653694971787
21
229.75236484167058
31
496.45002005678714
  0
LINE
 8
Layer0
10
268.33653694971787
20
229.75236484167058
30
496.45002005678714
11
268.24975575662756
21
229.7523648416705
31
496.2740452053348
  0
LINE
 8
Layer0
10
268.24975575662756
20
229.7523648416705
30
496.2740452053348
11
268.1866863159609
21
229.75236484167024
31
496.08824862444095
  0
LINE
 8
Layer0
10
268.1866863159609
20
229.75236484167024
30
496.08824862444095
11
268.13557505539444
21
229.75236484167033
31
495.70002005678714
  0
LINE
 8
Layer0
10
416.1630704396112
20
229.75236484182955
30
702.1850654898317
11
418.70952296188904
21
229.7523648418323
31
700.2845604239137
  0
LINE
 8
Layer0
10
413.3944919102533
20
229.75236484182656
30
703.7443287192018
11
416.1630704396112
21
229.75236484182955
31
702.1850654898317
  0
LINE
 8
Layer0
10
410.44924616745544
20
229.7523648418234
30
704.9367458639772
11
413.3944919102533
21
229.75236484182656
31
703.7443287192018
  0
LINE
 8
Layer0
10
407.37569641998846
20
229.75236484181977
30
705.7427398977907
11
410.44924616745544
21
229.7523648418234
31
704.9367458639772
  0
LINE
 8
Layer0
10
404.22431135109514
20
229.7523648418164
30
706.1490719137819
11
407.37569641998846
21
229.75236484181977
31
705.7427398977907
  0
LINE
 8
Layer0
10
401.04683875969505
20
229.75236484181332
30
706.1490719137819
11
404.22431135109514
21
229.7523648418164
31
706.1490719137819
  0
LINE
 8
Layer0
10
397.8954536908016
20
229.75236484180994
30
705.7427398977907
11
401.04683875969505
21
229.75236484181332
31
706.1490719137819
  0
LINE
 8
Layer0
10
394.8219039433346
20
229.75236484180664
30
704.9367458639772
11
397.8954536908016
21
229.75236484180994
31
705.7427398977907
  0
LINE
 8
Layer0
10
391.87665820053667
20
229.75236484180311
30
703.7443287192018
11
394.8219039433346
21
229.75236484180664
31
704.9367458639772
  0
LINE
 8
Layer0
10
389.10807967117887
20
229.7523648418005
30
702.1850654898317
11
391.87665820053667
21
229.75236484180311
31
703.7443287192018
  0
LINE
 8
Layer0
10
386.56162714890104
20
229.75236484179777
30
700.2845604239137
11
389.10807967117887
21
229.7523648418005
31
702.1850654898317
  0
LINE
 8
Layer0
10
386.3011767857418
20
229.75236484179752
30
699.9969131765993
11
386.56162714890104
21
229.75236484179777
31
700.2845604239137
  0
LINE
 8
Layer0
10
386.1232287876949
20
229.75236484179734
30
699.6520778952272
11
386.3011767857418
21
229.75236484179752
31
699.9969131765993
  0
LINE
 8
Layer0
10
386.03969073227506
20
229.75236484179723
30
699.2731354056032
11
386.1232287876949
21
229.75236484179734
31
699.6520778952272
  0
LINE
 8
Layer0
10
385.432310818945
20
229.7523648417966
30
692.3307535467775
11
386.03969073227506
21
229.75236484179723
31
699.2731354056032
  0
LINE
 8
Layer0
10
385.4533355229245
20
229.7523648417966
30
691.918091040674
11
385.432310818945
21
229.7523648417966
31
692.3307535467775
  0
LINE
 8
Layer0
10
385.5861537449704
20
229.7523648417968
30
691.5268213568361
11
385.4533355229245
21
229.7523648417966
31
691.918091040674
  0
LINE
 8
Layer0
10
385.8206870549069
20
229.752364841797
30
691.1866352377565
11
385.5861537449704
21
229.7523648417968
31
691.5268213568361
  0
LINE
 8
Layer0
10
386.13913798264133
20
229.75236484179737
30
690.923344832483
11
385.8206870549069
21
229.752364841797
31
691.1866352377565
  0
LINE
 8
Layer0
10
386.517344235693
20
229.75236484179777
30
690.7569315252931
11
386.13913798264133
21
229.75236484179737
31
690.923344832483
  0
LINE
 8
Layer0
10
386.9266030781613
20
229.75236484179823
30
690.7000200567873
11
386.517344235693
21
229.75236484179777
31
690.7569315252931
  0
LINE
 8
Layer0
10
418.34454703262884
20
229.7523648418316
30
690.7000200567873
11
386.9266030781613
21
229.75236484179823
31
690.7000200567873
  0
LINE
 8
Layer0
10
418.75380587509704
20
229.7523648418324
30
690.7569315252931
11
418.34454703262884
21
229.7523648418316
31
690.7000200567873
  0
LINE
 8
Layer0
10
419.1320121281488
20
229.7523648418328
30
690.923344832483
11
418.75380587509704
21
229.7523648418324
31
690.7569315252931
  0
LINE
 8
Layer0
10
419.45046305588323
20
229.75236484183316
30
691.1866352377566
11
419.1320121281488
21
229.7523648418328
31
690.923344832483
  0
LINE
 8
Layer0
10
419.6849963658197
20
229.752364841833
30
691.5268213568361
11
419.45046305588323
21
229.75236484183316
31
691.1866352377566
  0
LINE
 8
Layer0
10
419.8178145878656
20
229.75236484183353
30
691.918091040674
11
419.6849963658197
21
229.752364841833
31
691.5268213568361
  0
LINE
 8
Layer0
10
419.8388392918451
20
229.75236484183355
30
692.3307535467775
11
419.8178145878656
21
229.75236484183353
31
691.918091040674
  0
LINE
 8
Layer0
10
419.23145937851507
20
229.7523648418329
30
699.2731354056032
11
419.8388392918451
21
229.75236484183355
31
692.3307535467775
  0
LINE
 8
Layer0
10
419.1479213230951
20
229.7523648418328
30
699.6520778952272
11
419.23145937851507
21
229.7523648418329
31
699.2731354056032
  0
LINE
 8
Layer0
10
418.9699733250482
20
229.75236484183256
30
699.9969131765993
11
419.1479213230951
21
229.7523648418328
31
699.6520778952272
  0
LINE
 8
Layer0
10
418.70952296188904
20
229.7523648418323
30
700.2845604239137
11
418.9699733250482
21
229.75236484183256
31
699.9969131765993
  0
LINE
 8
Layer0
10
426.8911445134027
20
229.75236484184114
30
686.6738779364259
11
427.21150660446705
21
229.7523648418415
31
686.4035208044679
  0
LINE
 8
Layer0
10
426.508480786596
20
229.75236484184074
30
686.8450271902711
11
426.8911445134027
21
229.75236484184114
31
686.6738779364259
  0
LINE
 8
Layer0
10
426.0933997624261
20
229.7523648418403
30
686.9036018667847
11
426.508480786596
21
229.75236484184074
31
686.8450271902711
  0
LINE
 8
Layer0
10
423.04368662766063
20
229.75236484183705
30
686.9036018667847
11
426.0933997624261
21
229.7523648418403
31
686.9036018667847
  0
LINE
 8
Layer0
10
422.6696040623529
20
229.75236484183628
30
686.8562071142824
11
423.04368662766063
21
229.75236484183705
31
686.9036018667847
  0
LINE
 8
Layer0
10
422.31915926865184
20
229.75236484183623
30
686.7170173941286
11
422.6696040623529
21
229.75236484183628
31
686.8562071142824
  0
LINE
 8
Layer0
10
422.0145003788813
20
229.7523648418359
30
686.4948293982179
11
422.31915926865184
21
229.75236484183623
31
686.7170173941286
  0
LINE
 8
Layer0
10
421.77488017014105
20
229.75236484183569
30
686.2036831198366
11
422.0145003788813
21
229.7523648418359
31
686.4948293982179
  0
LINE
 8
Layer0
10
421.61543917587835
20
229.75236484183552
30
685.8619768438965
11
421.77488017014105
21
229.75236484183569
31
686.2036831198366
  0
LINE
 8
Layer0
10
421.5462520115717
20
229.7523648418354
30
685.4913050947816
11
421.61543917587835
21
229.75236484183552
31
685.8619768438965
  0
LINE
 8
Layer0
10
421.91670107773376
20
229.75236484183546
30
682.1716601071985
11
421.5462520115717
21
229.7523648418354
31
685.4913050947816
  0
LINE
 8
Layer0
10
421.80691790512634
20
229.75236484183574
30
679.2101130304964
11
421.91670107773376
21
229.75236484183546
31
682.1716601071985
  0
LINE
 8
Layer0
10
421.1915404789789
20
229.7523648418351
30
675.9111277876527
11
421.80691790512634
21
229.75236484183574
31
679.2101130304964
  0
LINE
 8
Layer0
10
421.24102282456005
20
229.75236484183478
30
675.5214345274597
11
421.1915404789789
21
229.7523648418351
31
675.9111277876527
  0
LINE
 8
Layer0
10
421.3899829380853
20
229.75236484183532
30
675.1579510985048
11
421.24102282456005
21
229.75236484183478
31
675.5214345274597
  0
LINE
 8
Layer0
10
421.6282050602779
20
229.75236484183554
30
674.8456060705812
11
421.3899829380853
21
229.75236484183532
31
675.1579510985048
  0
LINE
 8
Layer0
10
421.93935084274847
20
229.7523648418359
30
674.6058199225099
11
421.6282050602779
21
229.75236484183554
31
674.8456060705812
  0
LINE
 8
Layer0
10
422.30208277634216
20
229.75236484183628
30
674.4550382910402
11
421.93935084274847
21
229.7523648418359
31
674.6058199225099
  0
LINE
 8
Layer0
10
422.69152140549267
20
229.7523648418367
30
674.4036018667848
11
422.30208277634216
21
229.75236484183628
31
674.4550382910402
  0
LINE
 8
Layer0
10
425.7876708500725
20
229.75236484184
30
674.4036018667848
11
422.69152140549267
21
229.7523648418367
31
674.4036018667848
  0
LINE
 8
Layer0
10
426.1841704838617
20
229.75236484184046
30
674.456954699579
11
425.7876708500725
21
229.75236484184
31
674.4036018667848
  0
LINE
 8
Layer0
10
426.5524623387201
20
229.7523648418409
30
674.6132175741822
11
426.1841704838617
21
229.75236484184046
31
674.456954699579
  0
LINE
 8
Layer0
10
426.8663508885248
20
229.7523648418412
30
674.8612739859254
11
426.5524623387201
21
229.7523648418409
31
674.6132175741822
  0
LINE
 8
Layer0
10
427.10350680283136
20
229.75236484184146
30
675.1834790526063
11
426.8663508885248
21
229.7523648418412
31
674.8612739859254
  0
LINE
 8
Layer0
10
427.24705576828546
20
229.75236484184123
30
675.5569112120302
11
427.10350680283136
21
229.75236484184146
31
675.1834790526063
  0
LINE
 8
Layer0
10
427.80764651230396
20
229.7523648418422
30
678.8984963713319
11
427.24705576828546
21
229.75236484184123
31
675.5569112120302
  0
LINE
 8
Layer0
10
427.9166324131829
20
229.75236484184228
30
682.2850252209337
11
427.80764651230396
21
229.7523648418422
31
678.8984963713319
  0
LINE
 8
Layer0
10
427.57205653122503
20
229.7523648418419
30
685.6557404814394
11
427.9166324131829
21
229.75236484184228
31
682.2850252209337
  0
LINE
 8
Layer0
10
427.444542645727
20
229.75236484184177
30
686.0550706205995
11
427.57205653122503
21
229.7523648418419
31
685.6557404814394
  0
LINE
 8
Layer0
10
427.21150660446705
20
229.7523648418415
30
686.4035208044679
11
427.444542645727
21
229.75236484184177
31
686.0550706205995
  0
LINE
 8
Layer0
10
383.3317992680418
20
229.75236484179445
30
674.6058199225099
11
382.96906733444797
21
229.75236484179368
31
674.4550382910402
  0
LINE
 8
Layer0
10
383.64294505051237
20
229.7523648417944
30
674.8456060705812
11
383.3317992680418
21
229.75236484179445
31
674.6058199225099
  0
LINE
 8
Layer0
10
383.88116717270475
20
229.75236484179504
30
675.1579510985048
11
383.64294505051237
21
229.7523648417944
31
674.8456060705812
  0
LINE
 8
Layer0
10
384.0301272862302
20
229.75236484179516
30
675.5214345274599
11
383.88116717270475
21
229.75236484179504
31
675.1579510985048
  0
LINE
 8
Layer0
10
384.07960963181125
20
229.7523648417952
30
675.9111277876527
11
384.0301272862302
21
229.75236484179516
31
675.5214345274599
  0
LINE
 8
Layer0
10
383.46423220566373
20
229.75236484179453
30
679.2101130304964
11
384.07960963181125
21
229.7523648417952
31
675.9111277876527
  0
LINE
 8
Layer0
10
383.3544490330563
20
229.75236484179445
30
682.1716601071985
11
383.46423220566373
21
229.75236484179453
31
679.2101130304964
  0
LINE
 8
Layer0
10
383.7248980992184
20
229.75236484179445
30
685.4913050947816
11
383.3544490330563
21
229.75236484179445
31
682.1716601071985
  0
LINE
 8
Layer0
10
383.6557109349118
20
229.75236484179473
30
685.8619768438966
11
383.7248980992184
21
229.75236484179445
31
685.4913050947816
  0
LINE
 8
Layer0
10
383.49626994064914
20
229.75236484179453
30
686.2036831198366
11
383.6557109349118
21
229.75236484179473
31
685.8619768438966
  0
LINE
 8
Layer0
10
383.2566497319089
20
229.7523648417943
30
686.4948293982178
11
383.49626994064914
21
229.75236484179453
31
686.2036831198366
  0
LINE
 8
Layer0
10
382.9519908421384
20
229.75236484179396
30
686.7170173941286
11
383.2566497319089
21
229.7523648417943
31
686.4948293982178
  0
LINE
 8
Layer0
10
382.60154604843717
20
229.7523648417936
30
686.8562071142825
11
382.9519908421384
21
229.75236484179396
31
686.7170173941286
  0
LINE
 8
Layer0
10
382.2274634831296
20
229.7523648417932
30
686.9036018667847
11
382.60154604843717
21
229.7523648417936
31
686.8562071142825
  0
LINE
 8
Layer0
10
379.177750348364
20
229.75236484178993
30
686.9036018667847
11
382.2274634831296
21
229.7523648417932
31
686.9036018667847
  0
LINE
 8
Layer0
10
378.76266932419406
20
229.75236484178947
30
686.845027190271
11
379.177750348364
21
229.75236484178993
31
686.9036018667847
  0
LINE
 8
Layer0
10
378.3800055973874
20
229.75236484178907
30
686.6738779364259
11
378.76266932419406
21
229.75236484178947
31
686.845027190271
  0
LINE
 8
Layer0
10
378.059643506323
20
229.7523648417887
30
686.4035208044679
11
378.3800055973874
21
229.75236484178907
31
686.6738779364259
  0
LINE
 8
Layer0
10
377.8266074650632
20
229.75236484178848
30
686.0550706205995
11
378.059643506323
21
229.7523648417887
31
686.4035208044679
  0
LINE
 8
Layer0
10
377.69909357956516
20
229.75236484178836
30
685.6557404814394
11
377.8266074650632
21
229.75236484178848
31
686.0550706205995
  0
LINE
 8
Layer0
10
377.35451769760715
20
229.752364841788
30
682.2850252209338
11
377.69909357956516
21
229.75236484178836
31
685.6557404814394
  0
LINE
 8
Layer0
10
377.463503598486
20
229.75236484178777
30
678.8984963713319
11
377.35451769760715
21
229.752364841788
31
682.2850252209338
  0
LINE
 8
Layer0
10
378.0240943425046
20
229.7523648417887
30
675.5569112120303
11
377.463503598486
21
229.75236484178777
31
678.8984963713319
  0
LINE
 8
Layer0
10
378.1676433079587
20
229.7523648417889
30
675.1834790526063
11
378.0240943425046
21
229.7523648417887
31
675.5569112120303
  0
LINE
 8
Layer0
10
378.4047992222653
20
229.75236484178913
30
674.8612739859255
11
378.1676433079587
21
229.7523648417889
31
675.1834790526063
  0
LINE
 8
Layer0
10
378.71868777207
20
229.75236484178947
30
674.6132175741822
11
378.4047992222653
21
229.75236484178913
31
674.8612739859255
  0
LINE
 8
Layer0
10
379.0869796269284
20
229.7523648417899
30
674.456954699579
11
378.71868777207
21
229.75236484178947
31
674.6132175741822
  0
LINE
 8
Layer0
10
379.4834792607175
20
229.75236484178993
30
674.4036018667848
11
379.0869796269284
21
229.7523648417899
31
674.456954699579
  0
LINE
 8
Layer0
10
382.5796287052976
20
229.75236484179362
30
674.4036018667848
11
379.4834792607175
21
229.75236484178993
31
674.4036018667848
  0
LINE
 8
Layer0
10
382.96906733444797
20
229.75236484179368
30
674.4550382910402
11
382.5796287052976
21
229.75236484179362
31
674.4036018667848
  0
LINE
 8
Layer0
10
563.1863105290284
20
229.75236484198774
30
705.8021162567766
11
563.1360328190676
21
229.75236484198777
31
706.2000200567873
  0
LINE
 8
Layer0
10
563.3339545719973
20
229.75236484198797
30
705.4292142210634
11
563.1863105290284
21
229.75236484198774
31
705.8021162567766
  0
LINE
 8
Layer0
10
563.5696876042239
20
229.7523648419882
30
705.1047446547182
11
563.3339545719973
21
229.75236484198797
31
705.4292142210634
  0
LINE
 8
Layer0
10
563.8787086003176
20
229.75236484198854
30
704.8490953264862
11
563.5696876042239
21
229.7523648419882
31
705.1047446547182
  0
LINE
 8
Layer0
10
564.2416083805911
20
229.7523648419889
30
704.6783296881349
11
563.8787086003176
21
229.75236484198854
31
704.8490953264862
  0
LINE
 8
Layer0
10
564.6355750553957
20
229.75236484198936
30
704.6031772909791
11
564.2416083805911
21
229.7523648419889
31
704.6783296881349
  0
LINE
 8
Layer0
10
565.0358436100832
20
229.75236484198982
30
704.6283604918153
11
564.6355750553957
21
229.75236484198936
31
704.6031772909791
  0
LINE
 8
Layer0
10
565.4172828190676
20
229.7523648419902
30
704.7522966681154
11
565.0358436100832
21
229.75236484198982
31
704.6283604918153
  0
LINE
 8
Layer0
10
565.7559211247316
20
229.75236484199053
30
704.9671988306673
11
565.4172828190676
21
229.7523648419902
31
704.7522966681154
  0
LINE
 8
Layer0
10
566.0304725163332
20
229.7523648419909
30
705.2595636664064
11
565.7559211247316
21
229.75236484199053
31
704.9671988306673
  0
LINE
 8
Layer0
10
566.2236793034426
20
229.75236484199098
30
705.6110207853943
11
566.0304725163332
21
229.7523648419909
31
705.2595636664064
  0
LINE
 8
Layer0
10
566.3234260075442
20
229.7523648419912
30
705.9994869051607
11
566.2236793034426
21
229.75236484199098
31
705.6110207853943
  0
LINE
 8
Layer0
10
566.3234260075441
20
229.7523648419912
30
706.4005532084138
11
566.3234260075442
21
229.7523648419912
31
705.9994869051607
  0
LINE
 8
Layer0
10
566.2236793034426
20
229.75236484199112
30
706.7890193281801
11
566.3234260075441
21
229.7523648419912
31
706.4005532084138
  0
LINE
 8
Layer0
10
566.0304725163332
20
229.7523648419909
30
707.1404764620693
11
566.2236793034426
21
229.75236484199112
31
706.7890193281801
  0
LINE
 8
Layer0
10
565.7559211247317
20
229.75236484199053
30
707.4328412382038
11
566.0304725163332
21
229.7523648419909
31
707.1404764620693
  0
LINE
 8
Layer0
10
565.4172828190676
20
229.75236484199007
30
707.6477433262497
11
565.7559211247317
21
229.75236484199053
31
707.4328412382038
  0
LINE
 8
Layer0
10
565.0358436100832
20
229.75236484198973
30
707.7716796813638
11
565.4172828190676
21
229.75236484199007
31
707.6477433262497
  0
LINE
 8
Layer0
10
564.6355750553957
20
229.75236484198928
30
707.7968628225954
11
565.0358436100832
21
229.75236484198973
31
707.7716796813638
  0
LINE
 8
Layer0
10
564.2416083805911
20
229.75236484198882
30
707.7217104850442
11
564.6355750553957
21
229.75236484198928
31
707.7968628225954
  0
LINE
 8
Layer0
10
563.8787086003176
20
229.75236484198845
30
707.5509447274835
11
564.2416083805911
21
229.75236484198882
31
707.7217104850442
  0
LINE
 8
Layer0
10
563.5696876042238
20
229.7523648419882
30
707.2952954290539
11
563.8787086003176
21
229.75236484198845
31
707.5509447274835
  0
LINE
 8
Layer0
10
563.3339545719973
20
229.75236484198797
30
706.9708259372146
11
563.5696876042238
21
229.7523648419882
31
707.2952954290539
  0
LINE
 8
Layer0
10
563.1863105290286
20
229.75236484198783
30
706.5979238567978
11
563.3339545719973
21
229.75236484198797
31
706.9708259372146
  0
LINE
 8
Layer0
10
563.1360328190676
20
229.75236484198777
30
706.2000200567873
11
563.1863105290286
21
229.75236484198783
31
706.5979238567978
  0
LINE
 8
Layer0
10
563.1863105290286
20
229.7523648419876
30
675.5979234991702
11
563.3339545719973
21
229.75236484198777
31
675.9708254156741
  0
LINE
 8
Layer0
10
563.1360328190676
20
229.75236484198743
30
675.2000200567874
11
563.1863105290286
21
229.7523648419876
31
675.5979234991702
  0
LINE
 8
Layer0
10
563.1863105290284
20
229.75236484198751
30
674.8021166144046
11
563.1360328190676
21
229.75236484198743
31
675.2000200567874
  0
LINE
 8
Layer0
10
563.3339545719973
20
229.75236484198777
30
674.4292146979008
11
563.1863105290284
21
229.75236484198751
31
674.8021166144046
  0
LINE
 8
Layer0
10
563.5696876042238
20
229.75236484198797
30
674.1047441778812
11
563.3339545719973
21
229.75236484198777
31
674.4292146979008
  0
LINE
 8
Layer0
10
563.8787086003176
20
229.7523648419883
30
673.8490946112308
11
563.5696876042238
21
229.75236484198797
31
674.1047441778812
  0
LINE
 8
Layer0
10
564.2416083805911
20
229.75236484198868
30
673.678329688135
11
563.8787086003176
21
229.7523648419883
31
673.8490946112308
  0
LINE
 8
Layer0
10
564.6355750553957
20
229.75236484198913
30
673.6031763373051
11
564.2416083805911
21
229.75236484198868
31
673.678329688135
  0
LINE
 8
Layer0
10
565.0358436100832
20
229.7523648419896
30
673.6283609686526
11
564.6355750553957
21
229.75236484198913
31
673.6031763373051
  0
LINE
 8
Layer0
10
565.4172828190676
20
229.75236484198996
30
673.7522966681156
11
565.0358436100832
21
229.7523648419896
31
673.6283609686526
  0
LINE
 8
Layer0
10
565.7559211247316
20
229.7523648419903
30
673.9671976385745
11
565.4172828190676
21
229.75236484198996
31
673.7522966681156
  0
LINE
 8
Layer0
10
566.0304725163332
20
229.75236484199067
30
674.2595636664066
11
565.7559211247316
21
229.7523648419903
31
673.9671976385745
  0
LINE
 8
Layer0
10
566.2236793034426
20
229.75236484199084
30
674.6110193548832
11
566.0304725163332
21
229.75236484199067
31
674.2595636664066
  0
LINE
 8
Layer0
10
566.3234260075442
20
229.75236484199084
30
674.9994852362308
11
566.2236793034426
21
229.75236484199084
31
674.6110193548832
  0
LINE
 8
Layer0
10
566.3234260075441
20
229.75236484199095
30
675.4005529699955
11
566.3234260075442
21
229.75236484199084
31
674.9994852362308
  0
LINE
 8
Layer0
10
566.2236793034426
20
229.75236484199084
30
675.7890188513431
11
566.3234260075441
21
229.75236484199095
31
675.4005529699955
  0
LINE
 8
Layer0
10
566.0304725163332
20
229.75236484199067
30
676.1404764471683
11
566.2236793034426
21
229.75236484199084
31
675.7890188513431
  0
LINE
 8
Layer0
10
565.7559211247317
20
229.7523648419903
30
676.4328405676516
11
566.0304725163332
21
229.75236484199067
31
676.1404764471683
  0
LINE
 8
Layer0
10
565.4172828190676
20
229.75236484198996
30
676.6477434454592
11
565.7559211247317
21
229.7523648419903
31
676.4328405676516
  0
LINE
 8
Layer0
10
565.0358436100832
20
229.7523648419896
30
676.7716791449221
11
565.4172828190676
21
229.75236484198996
31
676.6477434454592
  0
LINE
 8
Layer0
10
564.6355750553957
20
229.75236484198913
30
676.7968618689212
11
565.0358436100832
21
229.7523648419896
31
676.7716791449221
  0
LINE
 8
Layer0
10
564.2416083805911
20
229.75236484198868
30
676.7217104254398
11
564.6355750553957
21
229.75236484198913
31
676.7968618689212
  0
LINE
 8
Layer0
10
563.8787086003176
20
229.7523648419883
30
676.5509455023441
11
564.2416083805911
21
229.75236484198868
31
676.7217104254398
  0
LINE
 8
Layer0
10
563.5696876042238
20
229.75236484198797
30
676.2952959356936
11
563.8787086003176
21
229.7523648419883
31
676.5509455023441
  0
LINE
 8
Layer0
10
563.3339545719973
20
229.75236484198777
30
675.9708254156741
11
563.5696876042238
21
229.75236484198797
31
676.2952959356936
  0
LINE
 8
Layer0
10
533.2416083805911
20
229.75236484195528
30
673.678329688135
11
532.8787162297123
21
229.75236484195486
31
673.8490946112308
  0
LINE
 8
Layer0
10
533.6355750553959
20
229.75236484195565
30
673.6031763373051
11
533.2416083805911
21
229.75236484195528
31
673.678329688135
  0
LINE
 8
Layer0
10
534.0358512394778
20
229.7523648419561
30
673.6283609686526
11
533.6355750553959
21
229.75236484195565
31
673.6031763373051
  0
LINE
 8
Layer0
10
534.4172828190677
20
229.75236484195656
30
673.7522966681156
11
534.0358512394778
21
229.7523648419561
31
673.6283609686526
  0
LINE
 8
Layer0
10
534.7559134953372
20
229.75236484195693
30
673.9671976385745
11
534.4172828190677
21
229.75236484195656
31
673.7522966681156
  0
LINE
 8
Layer0
10
535.0304648869388
20
229.7523648419572
30
674.2595636664066
11
534.7559134953372
21
229.75236484195693
31
673.9671976385745
  0
LINE
 8
Layer0
10
535.2236793034427
20
229.75236484195725
30
674.6110193548831
11
535.0304648869388
21
229.7523648419572
31
674.2595636664066
  0
LINE
 8
Layer0
10
535.3234260075443
20
229.75236484195736
30
674.9994852362308
11
535.2236793034427
21
229.75236484195725
31
674.6110193548831
  0
LINE
 8
Layer0
10
535.3234260075442
20
229.75236484195747
30
675.4005529699955
11
535.3234260075443
21
229.75236484195736
31
674.9994852362308
  0
LINE
 8
Layer0
10
535.2236793034427
20
229.75236484195725
30
675.789018851343
11
535.3234260075442
21
229.75236484195747
31
675.4005529699955
  0
LINE
 8
Layer0
10
535.0304648869387
20
229.7523648419572
30
676.1404764471683
11
535.2236793034427
21
229.75236484195725
31
675.789018851343
  0
LINE
 8
Layer0
10
534.7559134953372
20
229.75236484195693
30
676.4328405676516
11
535.0304648869387
21
229.7523648419572
31
676.1404764471683
  0
LINE
 8
Layer0
10
534.4172828190676
20
229.75236484195656
30
676.6477434454592
11
534.7559134953372
21
229.75236484195693
31
676.4328405676516
  0
LINE
 8
Layer0
10
534.0358512394779
20
229.7523648419561
30
676.7716791449221
11
534.4172828190676
21
229.75236484195656
31
676.6477434454592
  0
LINE
 8
Layer0
10
533.6355750553959
20
229.75236484195565
30
676.7968618689212
11
534.0358512394779
21
229.7523648419561
31
676.7716791449221
  0
LINE
 8
Layer0
10
533.2416083805911
20
229.75236484195528
30
676.7217104254398
11
533.6355750553959
21
229.75236484195565
31
676.7968618689212
  0
LINE
 8
Layer0
10
532.8787162297123
20
229.75236484195486
30
676.5509455023441
11
533.2416083805911
21
229.75236484195528
31
676.7217104254398
  0
LINE
 8
Layer0
10
532.5696876042239
20
229.75236484195457
30
676.2952959356936
11
532.8787162297123
21
229.75236484195486
31
676.5509455023441
  0
LINE
 8
Layer0
10
532.3339469426028
20
229.75236484195432
30
675.9708254156741
11
532.5696876042239
21
229.75236484195457
31
676.2952959356936
  0
LINE
 8
Layer0
10
532.186302899634
20
229.75236484195412
30
675.5979234991703
11
532.3339469426028
21
229.75236484195432
31
675.9708254156741
  0
LINE
 8
Layer0
10
532.1360404484622
20
229.75236484195395
30
675.2000200567874
11
532.186302899634
21
229.75236484195412
31
675.5979234991703
  0
LINE
 8
Layer0
10
532.186302899634
20
229.75236484195403
30
674.8021166144047
11
532.1360404484622
21
229.75236484195395
31
675.2000200567874
  0
LINE
 8
Layer0
10
532.3339469426029
20
229.75236484195432
30
674.4292146979008
11
532.186302899634
21
229.75236484195403
31
674.8021166144047
  0
LINE
 8
Layer0
10
532.569687604224
20
229.75236484195457
30
674.1047441778812
11
532.3339469426029
21
229.75236484195432
31
674.4292146979008
  0
LINE
 8
Layer0
10
532.8787162297123
20
229.75236484195486
30
673.8490946112308
11
532.569687604224
21
229.75236484195457
31
674.1047441778812
  0
LINE
 8
Layer0
10
532.8787162297123
20
229.75236484195503
30
704.8490953264865
11
532.5696876042241
21
229.75236484195474
31
705.1047446547182
  0
LINE
 8
Layer0
10
533.2416083805912
20
229.75236484195548
30
704.6783296881349
11
532.8787162297123
21
229.75236484195503
31
704.8490953264865
  0
LINE
 8
Layer0
10
533.6355750553959
20
229.75236484195582
30
704.6031772909793
11
533.2416083805912
21
229.75236484195548
31
704.6783296881349
  0
LINE
 8
Layer0
10
534.0358512394779
20
229.75236484195628
30
704.6283604918154
11
533.6355750553959
21
229.75236484195582
31
704.6031772909793
  0
LINE
 8
Layer0
10
534.4172828190677
20
229.75236484195673
30
704.7522966681155
11
534.0358512394779
21
229.75236484195628
31
704.6283604918154
  0
LINE
 8
Layer0
10
534.7559134953373
20
229.7523648419571
30
704.9671988306674
11
534.4172828190677
21
229.75236484195673
31
704.7522966681155
  0
LINE
 8
Layer0
10
535.030464886939
20
229.75236484195736
30
705.2595636664065
11
534.7559134953373
21
229.7523648419571
31
704.9671988306674
  0
LINE
 8
Layer0
10
535.2236793034427
20
229.75236484195733
30
705.6110207853944
11
535.030464886939
21
229.75236484195736
31
705.2595636664065
  0
LINE
 8
Layer0
10
535.3234260075444
20
229.75236484195773
30
705.9994869051608
11
535.2236793034427
21
229.75236484195733
31
705.6110207853944
  0
LINE
 8
Layer0
10
535.3234260075443
20
229.75236484195773
30
706.4005532084138
11
535.3234260075444
21
229.75236484195773
31
705.9994869051608
  0
LINE
 8
Layer0
10
535.2236793034427
20
229.75236484195742
30
706.7890193281801
11
535.3234260075443
21
229.75236484195773
31
706.4005532084138
  0
LINE
 8
Layer0
10
535.0304648869388
20
229.75236484195736
30
707.1404764620694
11
535.2236793034427
21
229.75236484195742
31
706.7890193281801
  0
LINE
 8
Layer0
10
534.7559134953374
20
229.7523648419571
30
707.4328412382039
11
535.0304648869388
21
229.75236484195736
31
707.1404764620694
  0
LINE
 8
Layer0
10
534.4172828190677
20
229.75236484195665
30
707.6477433262498
11
534.7559134953374
21
229.7523648419571
31
707.4328412382039
  0
LINE
 8
Layer0
10
534.035851239478
20
229.7523648419562
30
707.7716796813638
11
534.4172828190677
21
229.75236484195665
31
707.6477433262498
  0
LINE
 8
Layer0
10
533.6355750553959
20
229.75236484195582
30
707.7968628225955
11
534.035851239478
21
229.7523648419562
31
707.7716796813638
  0
LINE
 8
Layer0
10
533.2416083805912
20
229.7523648419554
30
707.7217104850444
11
533.6355750553959
21
229.75236484195582
31
707.7968628225955
  0
LINE
 8
Layer0
10
532.8787162297123
20
229.75236484195503
30
707.5509447274836
11
533.2416083805912
21
229.7523648419554
31
707.7217104850444
  0
LINE
 8
Layer0
10
532.569687604224
20
229.75236484195474
30
707.295295429054
11
532.8787162297123
21
229.75236484195503
31
707.5509447274836
  0
LINE
 8
Layer0
10
532.3339469426029
20
229.7523648419545
30
706.9708259372147
11
532.569687604224
21
229.75236484195474
31
707.295295429054
  0
LINE
 8
Layer0
10
532.1863028996343
20
229.75236484195432
30
706.597923856798
11
532.3339469426029
21
229.7523648419545
31
706.9708259372147
  0
LINE
 8
Layer0
10
532.1360404484624
20
229.75236484195432
30
706.2000200567873
11
532.1863028996343
21
229.75236484195432
31
706.597923856798
  0
LINE
 8
Layer0
10
532.1863028996341
20
229.7523648419542
30
705.8021162567767
11
532.1360404484624
21
229.75236484195432
31
706.2000200567873
  0
LINE
 8
Layer0
10
532.333946942603
20
229.7523648419545
30
705.4292142210635
11
532.1863028996341
21
229.7523648419542
31
705.8021162567767
  0
LINE
 8
Layer0
10
532.5696876042241
20
229.75236484195474
30
705.1047446547182
11
532.333946942603
21
229.7523648419545
31
705.4292142210635
  0
LINE
 8
Layer0
10
542.7974097721926
20
229.75236484196603
30
681.6582262335451
11
541.2025916569581
21
229.75236484196424
31
683.0401422796876
  0
LINE
 8
Layer0
10
544.6249396794191
20
229.75236484196793
30
680.6031057654054
11
542.7974097721926
21
229.75236484196603
31
681.6582262335451
  0
LINE
 8
Layer0
10
546.6191108219973
20
229.7523648419701
30
679.9129125891359
11
544.6249396794191
21
229.75236484196793
31
680.6031057654054
  0
LINE
 8
Layer0
10
548.7078864567628
20
229.75236484197214
30
679.6125929175051
11
546.6191108219973
21
229.7523648419701
31
679.9129125891359
  0
LINE
 8
Layer0
10
550.8157355778566
20
229.7523648419746
30
679.7130014715823
11
548.7078864567628
21
229.75236484197214
31
679.6125929175051
  0
LINE
 8
Layer0
10
552.8664863102786
20
229.75236484197663
30
680.2105104742678
11
550.8157355778566
21
229.7523648419746
31
679.7130014715823
  0
LINE
 8
Layer0
10
554.786041974341
20
229.75236484197876
30
681.0871374426515
11
552.8664863102786
21
229.75236484197663
31
680.2105104742678
  0
LINE
 8
Layer0
10
556.5049903385989
20
229.75236484198075
30
682.3111994085939
11
554.786041974341
21
229.75236484197876
31
681.0871374426515
  0
LINE
 8
Layer0
10
557.9612281315676
20
229.75236484198228
30
683.8384554205569
11
556.5049903385989
21
229.75236484198075
31
682.3111994085939
  0
LINE
 8
Layer0
10
559.1021125309817
20
229.75236484198354
30
685.6137049017581
11
557.9612281315676
21
229.75236484198228
31
683.8384554205569
  0
LINE
 8
Layer0
10
559.8864142887941
20
229.75236484198413
30
687.5727884588869
11
559.1021125309817
21
229.75236484198354
31
685.6137049017581
  0
LINE
 8
Layer0
10
560.285782574927
20
229.75236484198481
30
689.644897681299
11
559.8864142887941
21
229.75236484198413
31
687.5727884588869
  0
LINE
 8
Layer0
10
560.285782574927
20
229.75236484198481
30
691.7551424322755
11
560.285782574927
21
229.75236484198481
31
689.644897681299
  0
LINE
 8
Layer0
10
559.8864142887942
20
229.75236484198422
30
693.8272516546876
11
560.285782574927
21
229.75236484198481
31
691.7551424322755
  0
LINE
 8
Layer0
10
559.1021125309817
20
229.75236484198354
30
695.7863342581422
11
559.8864142887942
21
229.75236484198422
31
693.8272516546876
  0
LINE
 8
Layer0
10
557.9612281315676
20
229.7523648419822
30
697.5615846930178
11
559.1021125309817
21
229.75236484198354
31
695.7863342581422
  0
LINE
 8
Layer0
10
556.5049903385989
20
229.75236484198075
30
699.0888407049807
11
557.9612281315676
21
229.7523648419822
31
697.5615846930178
  0
LINE
 8
Layer0
10
554.7860419743411
20
229.75236484197885
30
700.312902194086
11
556.5049903385989
21
229.75236484198075
31
699.0888407049807
  0
LINE
 8
Layer0
10
552.8664863102784
20
229.75236484197663
30
701.1895291624696
11
554.7860419743411
21
229.75236484197885
31
700.312902194086
  0
LINE
 8
Layer0
10
550.8157355778566
20
229.75236484197453
30
701.6870381651553
11
552.8664863102784
21
229.75236484197663
31
701.1895291624696
  0
LINE
 8
Layer0
10
548.7078864567629
20
229.75236484197214
30
701.7874476729068
11
550.8157355778566
21
229.75236484197453
31
701.6870381651553
  0
LINE
 8
Layer0
10
546.6191108219973
20
229.75236484197
30
701.4871284781129
11
548.7078864567629
21
229.75236484197214
31
701.7874476729068
  0
LINE
 8
Layer0
10
544.6249396794192
20
229.75236484196793
30
700.7969353018434
11
546.6191108219973
21
229.75236484197
31
701.4871284781129
  0
LINE
 8
Layer0
10
542.7974097721925
20
229.75236484196594
30
699.7418129263551
11
544.6249396794192
21
229.75236484196793
31
700.7969353018434
  0
LINE
 8
Layer0
10
541.2025916569582
20
229.75236484196432
30
698.3598968802125
11
542.7974097721925
21
229.75236484196594
31
699.7418129263551
  0
LINE
 8
Layer0
10
539.8981254093997
20
229.75236484196287
30
696.7011329947145
11
541.2025916569582
21
229.75236484196432
31
698.3598968802125
  0
LINE
 8
Layer0
10
538.9311530583254
20
229.75236484196188
30
694.8254730520877
11
539.8981254093997
21
229.75236484196287
31
696.7011329947145
  0
LINE
 8
Layer0
10
538.3366324894777
20
229.75236484196125
30
692.8007089911135
11
538.9311530583254
21
229.75236484196188
31
694.8254730520877
  0
LINE
 8
Layer0
10
538.136040448462
20
229.75236484196097
30
690.7000200567873
11
538.3366324894777
21
229.75236484196125
31
692.8007089911135
  0
LINE
 8
Layer0
10
538.3366324894777
20
229.75236484196117
30
688.5993311224612
11
538.136040448462
21
229.75236484196097
31
690.7000200567873
  0
LINE
 8
Layer0
10
538.9311530583253
20
229.75236484196188
30
686.5745661078126
11
538.3366324894777
21
229.75236484196117
31
688.5993311224612
  0
LINE
 8
Layer0
10
539.8981254093997
20
229.75236484196287
30
684.6989061651857
11
538.9311530583253
21
229.75236484196188
31
686.5745661078126
  0
LINE
 8
Layer0
10
541.2025916569581
20
229.75236484196424
30
683.0401422796876
11
539.8981254093997
21
229.75236484196287
31
684.6989061651857
  0
LINE
 8
Layer0
10
527.7877082341068
20
229.7523648419501
30
654.9553384810148
11
528.3852805607671
21
229.75236484195088
31
656.7944688826261
  0
LINE
 8
Layer0
10
527.5855750553959
20
229.75236484194988
30
653.0321550398527
11
527.7877082341068
21
229.7523648419501
31
654.9553384810148
  0
LINE
 8
Layer0
10
527.5855750553959
20
229.75236484194997
30
647.0321550398526
11
527.5855750553959
21
229.75236484194988
31
653.0321550398527
  0
LINE
 8
Layer0
10
527.787708234107
20
229.7523648419501
30
645.1089715986906
11
527.5855750553959
21
229.75236484194997
31
647.0321550398526
  0
LINE
 8
Layer0
10
528.3852805607671
20
229.75236484195088
30
643.2698402434048
11
527.787708234107
21
229.7523648419501
31
645.1089715986906
  0
LINE
 8
Layer0
10
529.3521689885015
20
229.75236484195187
30
641.595141413754
11
528.3852805607671
21
229.75236484195088
31
643.2698402434048
  0
LINE
 8
Layer0
10
530.646121930396
20
229.7523648419532
30
640.1580648451505
11
529.3521689885015
21
229.75236484195187
31
641.595141413754
  0
LINE
 8
Layer0
10
532.2105750553959
20
229.75236484195494
30
639.0214195280729
11
530.646121930396
21
229.7523648419532
31
640.1580648451505
  0
LINE
 8
Layer0
10
533.9771689885015
20
229.75236484195673
30
638.2348823576627
11
532.2105750553959
21
229.75236484195494
31
639.0214195280729
  0
LINE
 8
Layer0
10
535.8686866276615
20
229.7523648419589
30
637.8328275709806
11
533.9771689885015
21
229.75236484195673
31
638.2348823576627
  0
LINE
 8
Layer0
10
537.8024634831303
20
229.75236484196097
30
637.8328275709806
11
535.8686866276615
21
229.7523648419589
31
637.8328275709806
  0
LINE
 8
Layer0
10
539.6939811222906
20
229.75236484196287
30
638.2348823576627
11
537.8024634831303
21
229.75236484196097
31
637.8328275709806
  0
LINE
 8
Layer0
10
541.4605826847904
20
229.75236484196486
30
639.0214195280729
11
539.6939811222906
21
229.75236484196287
31
638.2348823576627
  0
LINE
 8
Layer0
10
543.0250358097906
20
229.75236484196648
30
640.1580648451504
11
541.4605826847904
21
229.75236484196486
31
639.0214195280729
  0
LINE
 8
Layer0
10
544.3189811222906
20
229.75236484196793
30
641.595141413754
11
543.0250358097906
21
229.75236484196648
31
640.1580648451504
  0
LINE
 8
Layer0
10
545.2858695500248
20
229.752364841969
30
643.2698402434048
11
544.3189811222906
21
229.75236484196793
31
641.595141413754
  0
LINE
 8
Layer0
10
545.8834495060796
20
229.75236484196964
30
645.1089715986905
11
545.2858695500248
21
229.752364841969
31
643.2698402434048
  0
LINE
 8
Layer0
10
546.0855826847904
20
229.75236484196984
30
647.0321550398527
11
545.8834495060796
21
229.75236484196964
31
645.1089715986905
  0
LINE
 8
Layer0
10
546.0855826847904
20
229.75236484196984
30
653.0321550398527
11
546.0855826847904
21
229.75236484196984
31
647.0321550398527
  0
LINE
 8
Layer0
10
545.8834495060796
20
229.75236484196955
30
654.9553384810147
11
546.0855826847904
21
229.75236484196984
31
653.0321550398527
  0
LINE
 8
Layer0
10
545.2858695500248
20
229.752364841969
30
656.7944688826261
11
545.8834495060796
21
229.75236484196955
31
654.9553384810147
  0
LINE
 8
Layer0
10
544.3189811222906
20
229.75236484196776
30
658.4691686659513
11
545.2858695500248
21
229.752364841969
31
656.7944688826261
  0
LINE
 8
Layer0
10
543.0250358097906
20
229.75236484196648
30
659.9062452345548
11
544.3189811222906
21
229.75236484196776
31
658.4691686659513
  0
LINE
 8
Layer0
10
541.4605826847904
20
229.75236484196478
30
661.0428895979582
11
543.0250358097906
21
229.75236484196648
31
659.9062452345548
  0
LINE
 8
Layer0
10
539.6939811222906
20
229.75236484196287
30
661.8294286757169
11
541.4605826847904
21
229.75236484196478
31
661.0428895979582
  0
LINE
 8
Layer0
10
537.8024634831303
20
229.7523648419608
30
662.2314825087246
11
539.6939811222906
21
229.75236484196287
31
661.8294286757169
  0
LINE
 8
Layer0
10
535.8686866276615
20
229.75236484195872
30
662.2314825087246
11
537.8024634831303
21
229.7523648419608
31
662.2314825087246
  0
LINE
 8
Layer0
10
533.9771689885015
20
229.75236484195673
30
661.8294286757169
11
535.8686866276615
21
229.75236484195872
31
662.2314825087246
  0
LINE
 8
Layer0
10
532.2105750553959
20
229.75236484195486
30
661.0428895979582
11
533.9771689885015
21
229.75236484195673
31
661.8294286757169
  0
LINE
 8
Layer0
10
530.646121930396
20
229.75236484195312
30
659.9062452345548
11
532.2105750553959
21
229.75236484195486
31
661.0428895979582
  0
LINE
 8
Layer0
10
529.3521689885015
20
229.75236484195167
30
658.4691686659513
11
530.646121930396
21
229.75236484195312
31
659.9062452345548
  0
LINE
 8
Layer0
10
528.3852805607671
20
229.75236484195088
30
656.7944688826261
11
529.3521689885015
21
229.75236484195167
31
658.4691686659513
 0
ENDSEC
 0
EOF
