  0
SECTION
  2
HEADER
  9
$ACADVER
  1
AC1024
  9
$ACADMAINTVER
 70
     6
  9
$DWGCODEPAGE
  3
ANSI_1252
  9
$LASTSAVEDBY
  1
_assetcache
  9
$INSBASE
 10
0.0
 20
0.0
 30
0.0
  9
$EXTMIN
 10
292.606740409998
 20
248.9023650443237
 30
567.7000200567879
  9
$EXTMAX
 10
512.6067404102498
 20
523.9023644193034
 30
567.7000200567885
  9
$LIMMIN
 10
0.0
 20
0.0
  9
$LIMMAX
 10
12.0
 20
9.0
  9
$ORTHOMODE
 70
     0
  9
$REGENMODE
 70
     1
  9
$FILLMODE
 70
     1
  9
$QTEXTMODE
 70
     0
  9
$MIRRTEXT
 70
     1
  9
$LTSCALE
 40
1.0
  9
$ATTMODE
 70
     1
  9
$TEXTSIZE
 40
0.2
  9
$TRACEWID
 40
0.05
  9
$TEXTSTYLE
  7
Standard
  9
$CLAYER
  8
0
  9
$CELTYPE
  6
ByBlock
  9
$CECOLOR
 62
   256
  9
$CELTSCALE
 40
1.0
  9
$DISPSILH
 70
     0
  9
$DIMSCALE
 40
1.0
  9
$DIMASZ
 40
0.18
  9
$DIMEXO
 40
0.0625
  9
$DIMDLI
 40
0.38
  9
$DIMRND
 40
0.0
  9
$DIMDLE
 40
0.0
  9
$DIMEXE
 40
0.18
  9
$DIMTP
 40
0.0
  9
$DIMTM
 40
0.0
  9
$DIMTXT
 40
0.18
  9
$DIMCEN
 40
0.09
  9
$DIMTSZ
 40
0.0
  9
$DIMTOL
 70
     0
  9
$DIMLIM
 70
     0
  9
$DIMTIH
 70
     1
  9
$DIMTOH
 70
     1
  9
$DIMSE1
 70
     0
  9
$DIMSE2
 70
     0
  9
$DIMTAD
 70
     0
  9
$DIMZIN
 70
     0
  9
$DIMBLK
  1

  9
$DIMASO
 70
     1
  9
$DIMSHO
 70
     1
  9
$DIMPOST
  1

  9
$DIMAPOST
  1

  9
$DIMALT
 70
     0
  9
$DIMALTD
 70
     2
  9
$DIMALTF
 40
25.4
  9
$DIMLFAC
 40
1.0
  9
$DIMTOFL
 70
     0
  9
$DIMTVP
 40
0.0
  9
$DIMTIX
 70
     0
  9
$DIMSOXD
 70
     0
  9
$DIMSAH
 70
     0
  9
$DIMBLK1
  1

  9
$DIMBLK2
  1

  9
$DIMSTYLE
  2
Standard
  9
$DIMCLRD
 70
     0
  9
$DIMCLRE
 70
     0
  9
$DIMCLRT
 70
     0
  9
$DIMTFAC
 40
1.0
  9
$DIMGAP
 40
0.09
  9
$DIMJUST
 70
     0
  9
$DIMSD1
 70
     0
  9
$DIMSD2
 70
     0
  9
$DIMTOLJ
 70
     1
  9
$DIMTZIN
 70
     0
  9
$DIMALTZ
 70
     0
  9
$DIMALTTZ
 70
     0
  9
$DIMUPT
 70
     0
  9
$DIMDEC
 70
     4
  9
$DIMTDEC
 70
     4
  9
$DIMALTU
 70
     2
  9
$DIMALTTD
 70
     2
  9
$DIMTXSTY
  7
Standard
  9
$DIMAUNIT
 70
     0
  9
$DIMADEC
 70
     0
  9
$DIMALTRND
 40
0.0
  9
$DIMAZIN
 70
     0
  9
$DIMDSEP
 70
    46
  9
$DIMATFIT
 70
     3
  9
$DIMFRAC
 70
     0
  9
$DIMLDRBLK
  1

  9
$DIMLUNIT
 70
     2
  9
$DIMLWD
 70
    -2
  9
$DIMLWE
 70
    -2
  9
$DIMTMOVE
 70
     2
  9
$DIMFXL
 40
1.0
  9
$DIMFXLON
 70
     0
  9
$DIMJOGANG
 40
0.7853981633974483
  9
$DIMTFILL
 70
     0
  9
$DIMTFILLCLR
 70
     0
  9
$DIMARCSYM
 70
     0
  9
$DIMLTYPE
  6

  9
$DIMLTEX1
  6

  9
$DIMLTEX2
  6

  9
$DIMTXTDIRECTION
 70
     0
  9
$LUNITS
 70
     2
  9
$LUPREC
 70
     4
  9
$SKETCHINC
 40
0.1
  9
$FILLETRAD
 40
0.5
  9
$AUNITS
 70
     0
  9
$AUPREC
 70
     0
  9
$MENU
  1
.
  9
$ELEVATION
 40
0.0
  9
$PELEVATION
 40
0.0
  9
$THICKNESS
 40
0.0
  9
$LIMCHECK
 70
     0
  9
$CHAMFERA
 40
0.0
  9
$CHAMFERB
 40
0.0
  9
$CHAMFERC
 40
0.0
  9
$CHAMFERD
 40
0.0
  9
$SKPOLY
 70
     0
  9
$TDCREATE
 40
2457058.277777778
  9
$TDUCREATE
 40
2457058.194444444
  9
$TDUPDATE
 40
2457058.278819445
  9
$TDUUPDATE
 40
2457058.195486111
  9
$TDINDWG
 40
0.0000000116
  9
$TDUSRTIMER
 40
2457058.194456019
  9
$USRTIMER
 70
     1
  9
$ANGBASE
 50
0.0
  9
$ANGDIR
 70
     0
  9
$PDMODE
 70
     0
  9
$PDSIZE
 40
0.0
  9
$PLINEWID
 40
0.0
  9
$SPLFRAME
 70
     0
  9
$SPLINETYPE
 70
     6
  9
$SPLINESEGS
 70
     8
  9
$HANDSEED
  5
299
  9
$SURFTAB1
 70
     6
  9
$SURFTAB2
 70
     6
  9
$SURFTYPE
 70
     6
  9
$SURFU
 70
     6
  9
$SURFV
 70
     6
  9
$UCSBASE
  2

  9
$UCSNAME
  2

  9
$UCSORG
 10
0.0
 20
0.0
 30
0.0
  9
$UCSXDIR
 10
1.0
 20
0.0
 30
0.0
  9
$UCSYDIR
 10
0.0
 20
1.0
 30
0.0
  9
$UCSORTHOREF
  2

  9
$UCSORTHOVIEW
 70
     1
  9
$UCSORGTOP
 10
0.0
 20
0.0
 30
0.0
  9
$UCSORGBOTTOM
 10
0.0
 20
0.0
 30
0.0
  9
$UCSORGLEFT
 10
0.0
 20
0.0
 30
0.0
  9
$UCSORGRIGHT
 10
0.0
 20
0.0
 30
0.0
  9
$UCSORGFRONT
 10
0.0
 20
0.0
 30
0.0
  9
$UCSORGBACK
 10
0.0
 20
0.0
 30
0.0
  9
$PUCSBASE
  2

  9
$PUCSNAME
  2

  9
$PUCSORG
 10
0.0
 20
0.0
 30
0.0
  9
$PUCSXDIR
 10
1.0
 20
0.0
 30
0.0
  9
$PUCSYDIR
 10
0.0
 20
1.0
 30
0.0
  9
$PUCSORTHOREF
  2

  9
$PUCSORTHOVIEW
 70
     0
  9
$PUCSORGTOP
 10
0.0
 20
0.0
 30
0.0
  9
$PUCSORGBOTTOM
 10
0.0
 20
0.0
 30
0.0
  9
$PUCSORGLEFT
 10
0.0
 20
0.0
 30
0.0
  9
$PUCSORGRIGHT
 10
0.0
 20
0.0
 30
0.0
  9
$PUCSORGFRONT
 10
0.0
 20
0.0
 30
0.0
  9
$PUCSORGBACK
 10
0.0
 20
0.0
 30
0.0
  9
$USERI1
 70
     0
  9
$USERI2
 70
     0
  9
$USERI3
 70
     0
  9
$USERI4
 70
     0
  9
$USERI5
 70
     0
  9
$USERR1
 40
0.0
  9
$USERR2
 40
0.0
  9
$USERR3
 40
0.0
  9
$USERR4
 40
0.0
  9
$USERR5
 40
0.0
  9
$WORLDVIEW
 70
     1
  9
$SHADEDGE
 70
     3
  9
$SHADEDIF
 70
    70
  9
$TILEMODE
 70
     1
  9
$MAXACTVP
 70
    64
  9
$PINSBASE
 10
0.0
 20
0.0
 30
0.0
  9
$PLIMCHECK
 70
     0
  9
$PEXTMIN
 10
1.000000000000000E+20
 20
1.000000000000000E+20
 30
1.000000000000000E+20
  9
$PEXTMAX
 10
-1.000000000000000E+20
 20
-1.000000000000000E+20
 30
-1.000000000000000E+20
  9
$PLIMMIN
 10
0.0
 20
0.0
  9
$PLIMMAX
 10
0.0
 20
0.0
  9
$UNITMODE
 70
     0
  9
$VISRETAIN
 70
     1
  9
$PLINEGEN
 70
     0
  9
$PSLTSCALE
 70
     1
  9
$TREEDEPTH
 70
  3020
  9
$CMLSTYLE
  2
Standard
  9
$CMLJUST
 70
     0
  9
$CMLSCALE
 40
1.0
  9
$PROXYGRAPHICS
 70
     1
  9
$MEASUREMENT
 70
     0
  9
$CELWEIGHT
370
    -1
  9
$ENDCAPS
280
     0
  9
$JOINSTYLE
280
     0
  9
$LWDISPLAY
290
     0
  9
$INSUNITS
 70
     0
  9
$HYPERLINKBASE
  1

  9
$STYLESHEET
  1

  9
$XEDIT
290
     1
  9
$CEPSNTYPE
380
     0
  9
$PSTYLEMODE
290
     1
  9
$FINGERPRINTGUID
  2
{AEA11FE7-A936-5FB0-705C-E64D2FE727DD}
  9
$VERSIONGUID
  2
{FAEB1C32-E019-11D5-929B-00C0DF256EC4}
  9
$EXTNAMES
290
     1
  9
$PSVPSCALE
 40
0.0
  9
$OLESTARTUP
290
     0
  9
$SORTENTS
280
   127
  9
$INDEXCTL
280
     0
  9
$HIDETEXT
280
     1
  9
$XCLIPFRAME
280
     2
  9
$HALOGAP
280
     0
  9
$OBSCOLOR
 70
   257
  9
$OBSLTYPE
280
     0
  9
$INTERSECTIONDISPLAY
280
     0
  9
$INTERSECTIONCOLOR
 70
   257
  9
$DIMASSOC
280
     2
  9
$PROJECTNAME
  1

  9
$CAMERADISPLAY
290
     0
  9
$LENSLENGTH
 40
50.0
  9
$CAMERAHEIGHT
 40
0.0
  9
$STEPSPERSEC
 40
2.0
  9
$STEPSIZE
 40
6.0
  9
$3DDWFPREC
 40
2.0
  9
$PSOLWIDTH
 40
0.25
  9
$PSOLHEIGHT
 40
4.0
  9
$LOFTANG1
 40
1.570796326794897
  9
$LOFTANG2
 40
1.570796326794897
  9
$LOFTMAG1
 40
0.0
  9
$LOFTMAG2
 40
0.0
  9
$LOFTPARAM
 70
     7
  9
$LOFTNORMALS
280
     1
  9
$LATITUDE
 40
37.795
  9
$LONGITUDE
 40
-122.394
  9
$NORTHDIRECTION
 40
0.0
  9
$TIMEZONE
 70
 -8000
  9
$LIGHTGLYPHDISPLAY
280
     1
  9
$TILEMODELIGHTSYNCH
280
     1
  9
$SOLIDHIST
280
     0
  9
$SHOWHIST
280
     1
  9
$DWFFRAME
280
     2
  9
$DGNFRAME
280
     2
  9
$REALWORLDSCALE
290
     1
  9
$INTERFERECOLOR
 62
   256
  9
$CSHADOW
280
     0
  9
$SHADOWPLANELOCATION
 40
0.0
  0
ENDSEC
  0
SECTION
  2
CLASSES
  0
CLASS
  1
ACDBDICTIONARYWDFLT
  2
AcDbDictionaryWithDefault
  3
ObjectDBX Classes
 90
        0
 91
        4
280
     0
281
     0
  0
CLASS
  1
SCALE
  2
AcDbScale
  3
ObjectDBX Classes
 90
     1153
 91
        4
280
     0
281
     0
  0
CLASS
  1
VISUALSTYLE
  2
AcDbVisualStyle
  3
ObjectDBX Classes
 90
     4095
 91
        4
280
     0
281
     0
  0
CLASS
  1
MATERIAL
  2
AcDbMaterial
  3
ObjectDBX Classes
 90
     1153
 91
        4
280
     0
281
     0
  0
CLASS
  1
TABLESTYLE
  2
AcDbTableStyle
  3
ObjectDBX Classes
 90
     4095
 91
        4
280
     0
281
     0
  0
CLASS
  1
MLEADERSTYLE
  2
AcDbMLeaderStyle
  3
ACDB_MLEADERSTYLE_CLASS
 90
     4095
 91
        4
280
     0
281
     0
  0
CLASS
  1
SUN
  2
AcDbSun
  3
SCENEOE
 90
     1153
 91
        4
280
     0
281
     0
  0
CLASS
  1
RASTERVARIABLES
  2
AcDbRasterVariables
  3
ISM
 90
        0
 91
        4
280
     0
281
     0
  0
CLASS
  1
DICTIONARYVAR
  2
AcDbDictionaryVar
  3
ObjectDBX Classes
 90
        0
 91
        4
280
     0
281
     0
  0
CLASS
  1
CELLSTYLEMAP
  2
AcDbCellStyleMap
  3
ObjectDBX Classes
 90
     1152
 91
        4
280
     0
281
     0
  0
ENDSEC
  0
SECTION
  2
TABLES
  0
TABLE
  2
VPORT
  5
8
330
0
100
AcDbSymbolTable
 70
     1
  0
VPORT
  5
243
330
8
100
AcDbSymbolTableRecord
100
AcDbViewportTableRecord
  2
*Active
 70
     0
 10
0.0
 20
0.0
 11
1.0
 21
1.0
 12
402.6067404101239
 22
386.4023647318135
 13
0.0
 23
0.0
 14
0.5
 24
0.5
 15
0.5
 25
0.5
 16
0.0
 26
0.0
 36
1.0
 17
0.0
 27
0.0
 37
0.0
 40
280.4999993624793
 41
1.515933232169955
 42
50.0
 43
0.0
 44
0.0
 50
0.0
 51
0.0
 71
    16
 72
   100
 73
     1
 74
     3
 75
     0
 76
     0
 77
     0
 78
     0
281
     0
 65
     1
110
0.0
120
0.0
130
0.0
111
1.0
121
0.0
131
0.0
112
0.0
122
1.0
132
0.0
 79
     1
146
0.0
348
270
 60
     3
 61
     5
292
     1
282
     1
141
0.0
142
0.0
 63
   250
361
28D
  0
ENDTAB
  0
TABLE
  2
LTYPE
  5
5
330
0
100
AcDbSymbolTable
 70
     1
  0
LTYPE
  5
14
330
5
100
AcDbSymbolTableRecord
100
AcDbLinetypeTableRecord
  2
ByBlock
 70
     0
  3

 72
    65
 73
     0
 40
0.0
  0
LTYPE
  5
15
330
5
100
AcDbSymbolTableRecord
100
AcDbLinetypeTableRecord
  2
ByLayer
 70
     0
  3

 72
    65
 73
     0
 40
0.0
  0
LTYPE
  5
16
330
5
100
AcDbSymbolTableRecord
100
AcDbLinetypeTableRecord
  2
Continuous
 70
     0
  3
Solid line
 72
    65
 73
     0
 40
0.0
  0
ENDTAB
  0
TABLE
  2
LAYER
  5
2
330
0
100
AcDbSymbolTable
 70
     2
  0
LAYER
  5
10
330
2
100
AcDbSymbolTableRecord
100
AcDbLayerTableRecord
  2
0
 70
     0
 62
     7
  6
Continuous
370
    -3
390
F
347
287
  0
LAYER
  5
244
330
2
100
AcDbSymbolTableRecord
100
AcDbLayerTableRecord
  2
Layer0
 70
     0
 62
     7
  6
Continuous
370
    -3
390
F
347
287
  0
ENDTAB
  0
TABLE
  2
STYLE
  5
3
330
0
100
AcDbSymbolTable
 70
     1
  0
STYLE
  5
11
330
3
100
AcDbSymbolTableRecord
100
AcDbTextStyleTableRecord
  2
Standard
 70
     0
 40
0.0
 41
1.0
 50
0.0
 71
     0
 42
0.2
  3
txt
  4

  0
ENDTAB
  0
TABLE
  2
VIEW
  5
6
330
0
100
AcDbSymbolTable
 70
     0
  0
ENDTAB
  0
TABLE
  2
UCS
  5
7
330
0
100
AcDbSymbolTable
 70
     0
  0
ENDTAB
  0
TABLE
  2
APPID
  5
9
330
0
100
AcDbSymbolTable
 70
     1
  0
APPID
  5
12
330
9
100
AcDbSymbolTableRecord
100
AcDbRegAppTableRecord
  2
ACAD
 70
     0
  0
ENDTAB
  0
TABLE
  2
DIMSTYLE
  5
A
330
0
100
AcDbSymbolTable
 70
     1
100
AcDbDimStyleTable
  0
DIMSTYLE
105
20
330
A
100
AcDbSymbolTableRecord
100
AcDbDimStyleTableRecord
  2
Standard
 70
     0
178
     0
340
11
  0
ENDTAB
  0
TABLE
  2
BLOCK_RECORD
  5
1
330
0
100
AcDbSymbolTable
 70
     0
  0
BLOCK_RECORD
  5
1D
330
1
100
AcDbSymbolTableRecord
100
AcDbBlockTableRecord
  2
*Model_Space
340
1E
 70
     0
280
     1
281
     0
  0
BLOCK_RECORD
  5
1B
330
1
100
AcDbSymbolTableRecord
100
AcDbBlockTableRecord
  2
*Paper_Space
340
1C
 70
     0
280
     1
281
     0
  0
ENDTAB
  0
ENDSEC
  0
SECTION
  2
BLOCKS
  0
BLOCK
  5
267
330
1D
100
AcDbEntity
  8
0
100
AcDbBlockBegin
  2
*Model_Space
 70
     0
 10
0.0
 20
0.0
 30
0.0
  3
*Model_Space
  1
*Model_Space
  0
ENDBLK
  5
268
330
1D
100
AcDbEntity
  8
0
100
AcDbBlockEnd
  0
BLOCK
  5
269
330
1B
100
AcDbEntity
 67
     1
  8
0
100
AcDbBlockBegin
  2
*Paper_Space
 70
     0
 10
0.0
 20
0.0
 30
0.0
  3
*Paper_Space
  1
*Paper_Space
  0
ENDBLK
  5
26A
330
1B
100
AcDbEntity
 67
     1
  8
0
100
AcDbBlockEnd
  0
ENDSEC
  0
SECTION
  2
ENTITIES
  0
LINE
  5
21
330
1D
100
AcDbEntity
  8
Layer0
100
AcDbLine
 10
482.6067404102814
 20
258.902365264162
 30
567.7000200567883
 11
479.9793140647769
 21
258.9023651393931
 31
567.7000200567885
  0
LINE
  5
22
330
1D
100
AcDbEntity
  8
Layer0
100
AcDbLine
 10
322.6067404102517
 20
288.9023644191007
 30
567.7000200567883
 11
322.6067404102843
 21
258.9023644191006
 31
567.7000200567883
  0
LINE
  5
23
330
1D
100
AcDbEntity
  8
Layer0
100
AcDbLine
 10
482.6067404102814
 20
258.902365264162
 30
567.7000200567883
 11
482.606740410249
 21
288.9023644192724
 31
567.7000200567883
  0
LINE
  5
24
330
1D
100
AcDbEntity
  8
Layer0
100
AcDbLine
 10
512.6067404102498
 20
288.9023644193047
 30
567.7000200567883
 11
482.606740410249
 21
288.9023644192724
 31
567.7000200567883
  0
LINE
  5
25
330
1D
100
AcDbEntity
  8
Layer0
100
AcDbLine
 10
292.6067404102517
 20
288.902364419067
 30
567.7000200567883
 11
322.6067404102517
 21
288.9023644191007
 31
567.7000200567883
  0
LINE
  5
26
330
1D
100
AcDbEntity
  8
Layer0
100
AcDbLine
 10
292.606740409998
 20
523.9023644190694
 30
567.7000200567883
 11
512.6067404099974
 21
523.9023644193034
 31
567.7000200567883
  0
LINE
  5
27
330
1D
100
AcDbEntity
  8
Layer0
100
AcDbLine
 10
292.6067404102517
 20
288.902364419067
 30
567.7000200567883
 11
292.606740409998
 21
523.9023644190694
 31
567.7000200567883
  0
LINE
  5
28
330
1D
100
AcDbEntity
  8
Layer0
100
AcDbLine
 10
512.6067404099974
 20
523.9023644193034
 30
567.7000200567883
 11
512.6067404102498
 21
288.9023644193047
 31
567.7000200567883
  0
LINE
  5
29
330
1D
100
AcDbEntity
  8
Layer0
100
AcDbLine
 10
327.0067404102758
 20
265.4023644191038
 30
567.7000200567883
 11
326.463220415562
 21
265.3308086543103
 31
567.7000200567883
  0
LINE
  5
2A
330
1D
100
AcDbEntity
  8
Layer0
100
AcDbLine
 10
326.463220415562
 20
265.3308086543103
 30
567.7000200567883
 11
325.9567404102775
 21
265.12101776705
 31
567.7000200567883
  0
LINE
  5
2B
330
1D
100
AcDbEntity
  8
Layer0
100
AcDbLine
 10
325.9567404102775
 20
265.12101776705
 30
567.7000200567883
 11
325.5218161697862
 21
264.7872886595955
 31
567.7000200567883
  0
LINE
  5
2C
330
1D
100
AcDbEntity
  8
Layer0
100
AcDbLine
 10
325.5218161697862
 20
264.7872886595955
 30
567.7000200567883
 11
325.1880870623296
 21
264.3523644191033
 31
567.7000200567883
  0
LINE
  5
2D
330
1D
100
AcDbEntity
  8
Layer0
100
AcDbLine
 10
325.1880870623296
 20
264.3523644191033
 30
567.7000200567883
 11
324.9782961750705
 21
263.8458844138183
 31
567.7000200567883
  0
LINE
  5
2E
330
1D
100
AcDbEntity
  8
Layer0
100
AcDbLine
 10
324.9782961750705
 20
263.8458844138183
 30
567.7000200567883
 11
324.9067404102781
 21
263.3023644191017
 31
567.7000200567883
  0
LINE
  5
2F
330
1D
100
AcDbEntity
  8
Layer0
100
AcDbLine
 10
324.9067404102781
 20
263.3023644191017
 30
567.7000200567883
 11
324.9782961750718
 21
262.7588444243878
 31
567.7000200567883
  0
LINE
  5
30
330
1D
100
AcDbEntity
  8
Layer0
100
AcDbLine
 10
324.9782961750718
 20
262.7588444243878
 30
567.7000200567883
 11
325.1880870623319
 21
262.2523644191033
 31
567.7000200567883
  0
LINE
  5
31
330
1D
100
AcDbEntity
  8
Layer0
100
AcDbLine
 10
325.1880870623319
 20
262.2523644191033
 30
567.7000200567883
 11
325.5218161697879
 21
261.8174401786121
 31
567.7000200567883
  0
LINE
  5
32
330
1D
100
AcDbEntity
  8
Layer0
100
AcDbLine
 10
325.5218161697879
 20
261.8174401786121
 30
567.7000200567883
 11
325.95674041028
 21
261.4837110711553
 31
567.7000200567883
  0
LINE
  5
33
330
1D
100
AcDbEntity
  8
Layer0
100
AcDbLine
 10
325.95674041028
 20
261.4837110711553
 30
567.7000200567883
 11
326.4632204155649
 21
261.2739201838962
 31
567.7000200567883
  0
LINE
  5
34
330
1D
100
AcDbEntity
  8
Layer0
100
AcDbLine
 10
326.4632204155649
 20
261.2739201838962
 30
567.7000200567883
 11
327.0067404102804
 21
261.2023644191038
 31
567.7000200567883
  0
LINE
  5
35
330
1D
100
AcDbEntity
  8
Layer0
100
AcDbLine
 10
327.0067404102804
 20
261.2023644191038
 30
567.7000200567883
 11
327.5502604049955
 21
261.2739201838987
 31
567.7000200567883
  0
LINE
  5
36
330
1D
100
AcDbEntity
  8
Layer0
100
AcDbLine
 10
327.5502604049955
 20
261.2739201838987
 30
567.7000200567883
 11
328.05674041028
 21
261.4837110711578
 31
567.7000200567883
  0
LINE
  5
37
330
1D
100
AcDbEntity
  8
Layer0
100
AcDbLine
 10
328.05674041028
 20
261.4837110711578
 30
567.7000200567883
 11
328.4916646507714
 21
261.8174401786151
 31
567.7000200567883
  0
LINE
  5
38
330
1D
100
AcDbEntity
  8
Layer0
100
AcDbLine
 10
328.4916646507714
 20
261.8174401786151
 30
567.7000200567883
 11
328.8253937582265
 21
262.2523644191073
 31
567.7000200567883
  0
LINE
  5
39
330
1D
100
AcDbEntity
  8
Layer0
100
AcDbLine
 10
328.8253937582265
 20
262.2523644191073
 30
567.7000200567883
 11
329.0351846454858
 21
262.7588444243922
 31
567.7000200567883
  0
LINE
  5
3A
330
1D
100
AcDbEntity
  8
Layer0
100
AcDbLine
 10
329.0351846454858
 20
262.7588444243922
 30
567.7000200567883
 11
329.106740410278
 21
263.3023644191061
 31
567.7000200567883
  0
LINE
  5
3B
330
1D
100
AcDbEntity
  8
Layer0
100
AcDbLine
 10
329.106740410278
 20
263.3023644191061
 30
567.7000200567883
 11
329.0351846454845
 21
263.8458844138228
 31
567.7000200567883
  0
LINE
  5
3C
330
1D
100
AcDbEntity
  8
Layer0
100
AcDbLine
 10
329.0351846454845
 20
263.8458844138228
 30
567.7000200567883
 11
328.8253937582242
 21
264.3523644191072
 31
567.7000200567883
  0
LINE
  5
3D
330
1D
100
AcDbEntity
  8
Layer0
100
AcDbLine
 10
328.8253937582242
 20
264.3523644191072
 30
567.7000200567883
 11
328.4916646507696
 21
264.7872886595985
 31
567.7000200567883
  0
LINE
  5
3E
330
1D
100
AcDbEntity
  8
Layer0
100
AcDbLine
 10
328.4916646507696
 20
264.7872886595985
 30
567.7000200567883
 11
328.0567404102775
 21
265.1210177670523
 31
567.7000200567883
  0
LINE
  5
3F
330
1D
100
AcDbEntity
  8
Layer0
100
AcDbLine
 10
328.0567404102775
 20
265.1210177670523
 30
567.7000200567883
 11
327.5502604049925
 21
265.3308086543128
 31
567.7000200567883
  0
LINE
  5
40
330
1D
100
AcDbEntity
  8
Layer0
100
AcDbLine
 10
327.5502604049925
 20
265.3308086543128
 30
567.7000200567883
 11
327.0067404102758
 21
265.4023644191038
 31
567.7000200567883
  0
LINE
  5
41
330
1D
100
AcDbEntity
  8
Layer0
100
AcDbLine
 10
327.0067404102544
 20
286.6023644191039
 30
567.7000200567883
 11
326.4632204155377
 21
286.5308086543102
 31
567.7000200567883
  0
LINE
  5
42
330
1D
100
AcDbEntity
  8
Layer0
100
AcDbLine
 10
326.4632204155377
 20
286.5308086543102
 30
567.7000200567883
 11
325.9567404102532
 21
286.32101776705
 31
567.7000200567883
  0
LINE
  5
43
330
1D
100
AcDbEntity
  8
Layer0
100
AcDbLine
 10
325.9567404102532
 20
286.32101776705
 30
567.7000200567883
 11
325.5218161697619
 21
285.9872886595954
 31
567.7000200567883
  0
LINE
  5
44
330
1D
100
AcDbEntity
  8
Layer0
100
AcDbLine
 10
325.5218161697619
 20
285.9872886595954
 30
567.7000200567883
 11
325.1880870623083
 21
285.5523644191034
 31
567.7000200567883
  0
LINE
  5
45
330
1D
100
AcDbEntity
  8
Layer0
100
AcDbLine
 10
325.1880870623083
 20
285.5523644191034
 30
567.7000200567883
 11
324.978296175049
 21
285.0458844138184
 31
567.7000200567883
  0
LINE
  5
46
330
1D
100
AcDbEntity
  8
Layer0
100
AcDbLine
 10
324.978296175049
 20
285.0458844138184
 30
567.7000200567883
 11
324.9067404102566
 21
284.5023644191016
 31
567.7000200567883
  0
LINE
  5
47
330
1D
100
AcDbEntity
  8
Layer0
100
AcDbLine
 10
324.9067404102566
 20
284.5023644191016
 30
567.7000200567883
 11
324.9782961750488
 21
283.9588444243877
 31
567.7000200567883
  0
LINE
  5
48
330
1D
100
AcDbEntity
  8
Layer0
100
AcDbLine
 10
324.9782961750488
 20
283.9588444243877
 30
567.7000200567883
 11
325.1880870623105
 21
283.4523644191034
 31
567.7000200567883
  0
LINE
  5
49
330
1D
100
AcDbEntity
  8
Layer0
100
AcDbLine
 10
325.1880870623105
 20
283.4523644191034
 30
567.7000200567883
 11
325.5218161697637
 21
283.0174401786119
 31
567.7000200567883
  0
LINE
  5
4A
330
1D
100
AcDbEntity
  8
Layer0
100
AcDbLine
 10
325.5218161697637
 20
283.0174401786119
 30
567.7000200567883
 11
325.9567404102586
 21
282.6837110711554
 31
567.7000200567883
  0
LINE
  5
4B
330
1D
100
AcDbEntity
  8
Layer0
100
AcDbLine
 10
325.9567404102586
 20
282.6837110711554
 30
567.7000200567883
 11
326.4632204155436
 21
282.4739201838963
 31
567.7000200567883
  0
LINE
  5
4C
330
1D
100
AcDbEntity
  8
Layer0
100
AcDbLine
 10
326.4632204155436
 20
282.4739201838963
 30
567.7000200567883
 11
327.006740410259
 21
282.4023644191039
 31
567.7000200567883
  0
LINE
  5
4D
330
1D
100
AcDbEntity
  8
Layer0
100
AcDbLine
 10
327.006740410259
 20
282.4023644191039
 30
567.7000200567883
 11
327.5502604049741
 21
282.4739201838989
 31
567.7000200567883
  0
LINE
  5
4E
330
1D
100
AcDbEntity
  8
Layer0
100
AcDbLine
 10
327.5502604049741
 20
282.4739201838989
 30
567.7000200567883
 11
328.0567404102586
 21
282.6837110711578
 31
567.7000200567883
  0
LINE
  5
4F
330
1D
100
AcDbEntity
  8
Layer0
100
AcDbLine
 10
328.0567404102586
 20
282.6837110711578
 30
567.7000200567883
 11
328.4916646507472
 21
283.0174401786152
 31
567.7000200567883
  0
LINE
  5
50
330
1D
100
AcDbEntity
  8
Layer0
100
AcDbLine
 10
328.4916646507472
 20
283.0174401786152
 30
567.7000200567883
 11
328.8253937582051
 21
283.4523644191073
 31
567.7000200567883
  0
LINE
  5
51
330
1D
100
AcDbEntity
  8
Layer0
100
AcDbLine
 10
328.8253937582051
 20
283.4523644191073
 30
567.7000200567883
 11
329.0351846454628
 21
283.9588444243923
 31
567.7000200567883
  0
LINE
  5
52
330
1D
100
AcDbEntity
  8
Layer0
100
AcDbLine
 10
329.0351846454628
 20
283.9588444243923
 30
567.7000200567883
 11
329.1067404102566
 21
284.5023644191062
 31
567.7000200567883
  0
LINE
  5
53
330
1D
100
AcDbEntity
  8
Layer0
100
AcDbLine
 10
329.1067404102566
 20
284.5023644191062
 30
567.7000200567883
 11
329.0351846454631
 21
285.0458844138229
 31
567.7000200567883
  0
LINE
  5
54
330
1D
100
AcDbEntity
  8
Layer0
100
AcDbLine
 10
329.0351846454631
 20
285.0458844138229
 30
567.7000200567883
 11
328.8253937582029
 21
285.5523644191073
 31
567.7000200567883
  0
LINE
  5
55
330
1D
100
AcDbEntity
  8
Layer0
100
AcDbLine
 10
328.8253937582029
 20
285.5523644191073
 30
567.7000200567883
 11
328.4916646507453
 21
285.9872886595987
 31
567.7000200567883
  0
LINE
  5
56
330
1D
100
AcDbEntity
  8
Layer0
100
AcDbLine
 10
328.4916646507453
 20
285.9872886595987
 30
567.7000200567883
 11
328.0567404102532
 21
286.3210177670524
 31
567.7000200567883
  0
LINE
  5
57
330
1D
100
AcDbEntity
  8
Layer0
100
AcDbLine
 10
328.0567404102532
 20
286.3210177670524
 30
567.7000200567883
 11
327.5502604049682
 21
286.5308086543129
 31
567.7000200567883
  0
LINE
  5
58
330
1D
100
AcDbEntity
  8
Layer0
100
AcDbLine
 10
327.5502604049682
 20
286.5308086543129
 30
567.7000200567883
 11
327.0067404102544
 21
286.6023644191039
 31
567.7000200567883
  0
LINE
  5
59
330
1D
100
AcDbEntity
  8
Layer0
100
AcDbLine
 10
478.2067404102771
 20
265.4023644192685
 30
567.7000200567883
 11
477.6632204155619
 21
265.3308086544736
 31
567.7000200567883
  0
LINE
  5
5A
330
1D
100
AcDbEntity
  8
Layer0
100
AcDbLine
 10
477.6632204155619
 20
265.3308086544736
 30
567.7000200567883
 11
477.1567404102746
 21
265.1210177672148
 31
567.7000200567883
  0
LINE
  5
5B
330
1D
100
AcDbEntity
  8
Layer0
100
AcDbLine
 10
477.1567404102746
 20
265.1210177672148
 30
567.7000200567883
 11
476.7218161697832
 21
264.7872886597587
 31
567.7000200567883
  0
LINE
  5
5C
330
1D
100
AcDbEntity
  8
Layer0
100
AcDbLine
 10
476.7218161697832
 20
264.7872886597587
 30
567.7000200567883
 11
476.3880870623282
 21
264.3523644192667
 31
567.7000200567883
  0
LINE
  5
5D
330
1D
100
AcDbEntity
  8
Layer0
100
AcDbLine
 10
476.3880870623282
 20
264.3523644192667
 30
567.7000200567883
 11
476.1782961750718
 21
263.8458844139817
 31
567.7000200567883
  0
LINE
  5
5E
330
1D
100
AcDbEntity
  8
Layer0
100
AcDbLine
 10
476.1782961750718
 20
263.8458844139817
 30
567.7000200567883
 11
476.1067404102795
 21
263.3023644192663
 31
567.7000200567883
  0
LINE
  5
5F
330
1D
100
AcDbEntity
  8
Layer0
100
AcDbLine
 10
476.1067404102795
 20
263.3023644192663
 30
567.7000200567883
 11
476.1782961750702
 21
262.7588444245511
 31
567.7000200567883
  0
LINE
  5
60
330
1D
100
AcDbEntity
  8
Layer0
100
AcDbLine
 10
476.1782961750702
 20
262.7588444245511
 30
567.7000200567883
 11
476.3880870623308
 21
262.2523644192667
 31
567.7000200567883
  0
LINE
  5
61
330
1D
100
AcDbEntity
  8
Layer0
100
AcDbLine
 10
476.3880870623308
 20
262.2523644192667
 30
567.7000200567883
 11
476.7218161697897
 21
261.8174401787753
 31
567.7000200567883
  0
LINE
  5
62
330
1D
100
AcDbEntity
  8
Layer0
100
AcDbLine
 10
476.7218161697897
 20
261.8174401787753
 30
567.7000200567883
 11
477.1567404102814
 21
261.4837110713202
 31
567.7000200567883
  0
LINE
  5
63
330
1D
100
AcDbEntity
  8
Layer0
100
AcDbLine
 10
477.1567404102814
 20
261.4837110713202
 30
567.7000200567883
 11
477.6632204155635
 21
261.2739201840595
 31
567.7000200567883
  0
LINE
  5
64
330
1D
100
AcDbEntity
  8
Layer0
100
AcDbLine
 10
477.6632204155635
 20
261.2739201840595
 30
567.7000200567883
 11
478.2067404102817
 21
261.2023644192685
 31
567.7000200567883
  0
LINE
  5
65
330
1D
100
AcDbEntity
  8
Layer0
100
AcDbLine
 10
478.2067404102817
 20
261.2023644192685
 30
567.7000200567883
 11
478.7502604049942
 21
261.2739201840622
 31
567.7000200567883
  0
LINE
  5
66
330
1D
100
AcDbEntity
  8
Layer0
100
AcDbLine
 10
478.7502604049942
 20
261.2739201840622
 30
567.7000200567883
 11
479.2567404102814
 21
261.4837110713224
 31
567.7000200567883
  0
LINE
  5
67
330
1D
100
AcDbEntity
  8
Layer0
100
AcDbLine
 10
479.2567404102814
 20
261.4837110713224
 30
567.7000200567883
 11
479.6916646507731
 21
261.8174401787786
 31
567.7000200567883
  0
LINE
  5
68
330
1D
100
AcDbEntity
  8
Layer0
100
AcDbLine
 10
479.6916646507731
 20
261.8174401787786
 30
567.7000200567883
 11
480.0253937582253
 21
262.2523644192692
 31
567.7000200567883
  0
LINE
  5
69
330
1D
100
AcDbEntity
  8
Layer0
100
AcDbLine
 10
480.0253937582253
 20
262.2523644192692
 30
567.7000200567883
 11
480.2351846454843
 21
262.7588444245542
 31
567.7000200567883
  0
LINE
  5
6A
330
1D
100
AcDbEntity
  8
Layer0
100
AcDbLine
 10
480.2351846454843
 20
262.7588444245542
 30
567.7000200567883
 11
480.3067404102794
 21
263.3023644192709
 31
567.7000200567883
  0
LINE
  5
6B
330
1D
100
AcDbEntity
  8
Layer0
100
AcDbLine
 10
480.3067404102794
 20
263.3023644192709
 30
567.7000200567883
 11
480.2351846454858
 21
263.8458844139848
 31
567.7000200567883
  0
LINE
  5
6C
330
1D
100
AcDbEntity
  8
Layer0
100
AcDbLine
 10
480.2351846454858
 20
263.8458844139848
 30
567.7000200567883
 11
480.0253937582227
 21
264.3523644192692
 31
567.7000200567883
  0
LINE
  5
6D
330
1D
100
AcDbEntity
  8
Layer0
100
AcDbLine
 10
480.0253937582227
 20
264.3523644192692
 30
567.7000200567883
 11
479.6916646507667
 21
264.7872886597621
 31
567.7000200567883
  0
LINE
  5
6E
330
1D
100
AcDbEntity
  8
Layer0
100
AcDbLine
 10
479.6916646507667
 20
264.7872886597621
 30
567.7000200567883
 11
479.2567404102746
 21
265.121017767217
 31
567.7000200567883
  0
LINE
  5
6F
330
1D
100
AcDbEntity
  8
Layer0
100
AcDbLine
 10
479.2567404102746
 20
265.121017767217
 30
567.7000200567883
 11
478.7502604049925
 21
265.3308086544761
 31
567.7000200567883
  0
LINE
  5
70
330
1D
100
AcDbEntity
  8
Layer0
100
AcDbLine
 10
478.7502604049925
 20
265.3308086544761
 30
567.7000200567883
 11
478.2067404102771
 21
265.4023644192685
 31
567.7000200567883
  0
LINE
  5
71
330
1D
100
AcDbEntity
  8
Layer0
100
AcDbLine
 10
478.2067404102542
 20
286.6023644192676
 30
567.7000200567883
 11
477.6632204155389
 21
286.5308086544725
 31
567.7000200567883
  0
LINE
  5
72
330
1D
100
AcDbEntity
  8
Layer0
100
AcDbLine
 10
477.6632204155389
 20
286.5308086544725
 30
567.7000200567883
 11
477.1567404102545
 21
286.3210177672138
 31
567.7000200567883
  0
LINE
  5
73
330
1D
100
AcDbEntity
  8
Layer0
100
AcDbLine
 10
477.1567404102545
 20
286.3210177672138
 30
567.7000200567883
 11
476.7218161697631
 21
285.9872886597578
 31
567.7000200567883
  0
LINE
  5
74
330
1D
100
AcDbEntity
  8
Layer0
100
AcDbLine
 10
476.7218161697631
 20
285.9872886597578
 30
567.7000200567883
 11
476.3880870623053
 21
285.5523644192657
 31
567.7000200567883
  0
LINE
  5
75
330
1D
100
AcDbEntity
  8
Layer0
100
AcDbLine
 10
476.3880870623053
 20
285.5523644192657
 30
567.7000200567883
 11
476.1782961750463
 21
285.0458844139808
 31
567.7000200567883
  0
LINE
  5
76
330
1D
100
AcDbEntity
  8
Layer0
100
AcDbLine
 10
476.1782961750463
 20
285.0458844139808
 30
567.7000200567883
 11
476.1067404102568
 21
284.5023644192654
 31
567.7000200567883
  0
LINE
  5
77
330
1D
100
AcDbEntity
  8
Layer0
100
AcDbLine
 10
476.1067404102568
 20
284.5023644192654
 30
567.7000200567883
 11
476.1782961750473
 21
283.9588444245501
 31
567.7000200567883
  0
LINE
  5
78
330
1D
100
AcDbEntity
  8
Layer0
100
AcDbLine
 10
476.1782961750473
 20
283.9588444245501
 30
567.7000200567883
 11
476.3880870623075
 21
283.4523644192657
 31
567.7000200567883
  0
LINE
  5
79
330
1D
100
AcDbEntity
  8
Layer0
100
AcDbLine
 10
476.3880870623075
 20
283.4523644192657
 30
567.7000200567883
 11
476.7218161697635
 21
283.0174401787743
 31
567.7000200567883
  0
LINE
  5
7A
330
1D
100
AcDbEntity
  8
Layer0
100
AcDbLine
 10
476.7218161697635
 20
283.0174401787743
 30
567.7000200567883
 11
477.1567404102556
 21
282.6837110713193
 31
567.7000200567883
  0
LINE
  5
7B
330
1D
100
AcDbEntity
  8
Layer0
100
AcDbLine
 10
477.1567404102556
 20
282.6837110713193
 30
567.7000200567883
 11
477.6632204155434
 21
282.4739201840587
 31
567.7000200567883
  0
LINE
  5
7C
330
1D
100
AcDbEntity
  8
Layer0
100
AcDbLine
 10
477.6632204155434
 20
282.4739201840587
 30
567.7000200567883
 11
478.2067404102588
 21
282.4023644192677
 31
567.7000200567883
  0
LINE
  5
7D
330
1D
100
AcDbEntity
  8
Layer0
100
AcDbLine
 10
478.2067404102588
 20
282.4023644192677
 30
567.7000200567883
 11
478.750260404974
 21
282.4739201840612
 31
567.7000200567883
  0
LINE
  5
7E
330
1D
100
AcDbEntity
  8
Layer0
100
AcDbLine
 10
478.750260404974
 20
282.4739201840612
 30
567.7000200567883
 11
479.2567404102556
 21
282.6837110713215
 31
567.7000200567883
  0
LINE
  5
7F
330
1D
100
AcDbEntity
  8
Layer0
100
AcDbLine
 10
479.2567404102556
 20
282.6837110713215
 30
567.7000200567883
 11
479.691664650747
 21
283.0174401787777
 31
567.7000200567883
  0
LINE
  5
80
330
1D
100
AcDbEntity
  8
Layer0
100
AcDbLine
 10
479.691664650747
 20
283.0174401787777
 30
567.7000200567883
 11
480.025393758202
 21
283.4523644192683
 31
567.7000200567883
  0
LINE
  5
81
330
1D
100
AcDbEntity
  8
Layer0
100
AcDbLine
 10
480.025393758202
 20
283.4523644192683
 30
567.7000200567883
 11
480.2351846454612
 21
283.9588444245532
 31
567.7000200567883
  0
LINE
  5
82
330
1D
100
AcDbEntity
  8
Layer0
100
AcDbLine
 10
480.2351846454612
 20
283.9588444245532
 30
567.7000200567883
 11
480.3067404102568
 21
284.50236441927
 31
567.7000200567883
  0
LINE
  5
83
330
1D
100
AcDbEntity
  8
Layer0
100
AcDbLine
 10
480.3067404102568
 20
284.50236441927
 30
567.7000200567883
 11
480.2351846454603
 21
285.0458844139839
 31
567.7000200567883
  0
LINE
  5
84
330
1D
100
AcDbEntity
  8
Layer0
100
AcDbLine
 10
480.2351846454603
 20
285.0458844139839
 30
567.7000200567883
 11
480.0253937581998
 21
285.5523644192683
 31
567.7000200567883
  0
LINE
  5
85
330
1D
100
AcDbEntity
  8
Layer0
100
AcDbLine
 10
480.0253937581998
 20
285.5523644192683
 30
567.7000200567883
 11
479.6916646507465
 21
285.9872886597611
 31
567.7000200567883
  0
LINE
  5
86
330
1D
100
AcDbEntity
  8
Layer0
100
AcDbLine
 10
479.6916646507465
 20
285.9872886597611
 30
567.7000200567883
 11
479.2567404102545
 21
286.321017767216
 31
567.7000200567883
  0
LINE
  5
87
330
1D
100
AcDbEntity
  8
Layer0
100
AcDbLine
 10
479.2567404102545
 20
286.321017767216
 30
567.7000200567883
 11
478.7502604049696
 21
286.5308086544753
 31
567.7000200567883
  0
LINE
  5
88
330
1D
100
AcDbEntity
  8
Layer0
100
AcDbLine
 10
478.7502604049696
 20
286.5308086544753
 30
567.7000200567883
 11
478.2067404102542
 21
286.6023644192676
 31
567.7000200567883
  0
LINE
  5
89
330
1D
100
AcDbEntity
  8
Layer0
100
AcDbLine
 10
348.2067404102758
 20
265.4023644191282
 30
567.7000200567883
 11
347.663220415562
 21
265.3308086543345
 31
567.7000200567883
  0
LINE
  5
8A
330
1D
100
AcDbEntity
  8
Layer0
100
AcDbLine
 10
347.663220415562
 20
265.3308086543345
 30
567.7000200567883
 11
347.1567404102776
 21
265.1210177670742
 31
567.7000200567883
  0
LINE
  5
8B
330
1D
100
AcDbEntity
  8
Layer0
100
AcDbLine
 10
347.1567404102776
 20
265.1210177670742
 30
567.7000200567883
 11
346.7218161697862
 21
264.7872886596182
 31
567.7000200567883
  0
LINE
  5
8C
330
1D
100
AcDbEntity
  8
Layer0
100
AcDbLine
 10
346.7218161697862
 20
264.7872886596182
 30
567.7000200567883
 11
346.3880870623296
 21
264.3523644191262
 31
567.7000200567883
  0
LINE
  5
8D
330
1D
100
AcDbEntity
  8
Layer0
100
AcDbLine
 10
346.3880870623296
 20
264.3523644191262
 30
567.7000200567883
 11
346.1782961750705
 21
263.8458844138412
 31
567.7000200567883
  0
LINE
  5
8E
330
1D
100
AcDbEntity
  8
Layer0
100
AcDbLine
 10
346.1782961750705
 20
263.8458844138412
 30
567.7000200567883
 11
346.1067404102781
 21
263.3023644191258
 31
567.7000200567883
  0
LINE
  5
8F
330
1D
100
AcDbEntity
  8
Layer0
100
AcDbLine
 10
346.1067404102781
 20
263.3023644191258
 30
567.7000200567883
 11
346.1782961750718
 21
262.7588444244106
 31
567.7000200567883
  0
LINE
  5
90
330
1D
100
AcDbEntity
  8
Layer0
100
AcDbLine
 10
346.1782961750718
 20
262.7588444244106
 30
567.7000200567883
 11
346.388087062332
 21
262.2523644191262
 31
567.7000200567883
  0
LINE
  5
91
330
1D
100
AcDbEntity
  8
Layer0
100
AcDbLine
 10
346.388087062332
 20
262.2523644191262
 30
567.7000200567883
 11
346.721816169788
 21
261.8174401786348
 31
567.7000200567883
  0
LINE
  5
92
330
1D
100
AcDbEntity
  8
Layer0
100
AcDbLine
 10
346.721816169788
 20
261.8174401786348
 30
567.7000200567883
 11
347.1567404102802
 21
261.4837110711797
 31
567.7000200567883
  0
LINE
  5
93
330
1D
100
AcDbEntity
  8
Layer0
100
AcDbLine
 10
347.1567404102802
 20
261.4837110711797
 30
567.7000200567883
 11
347.6632204155651
 21
261.2739201839206
 31
567.7000200567883
  0
LINE
  5
94
330
1D
100
AcDbEntity
  8
Layer0
100
AcDbLine
 10
347.6632204155651
 20
261.2739201839206
 30
567.7000200567883
 11
348.2067404102804
 21
261.2023644191282
 31
567.7000200567883
  0
LINE
  5
95
330
1D
100
AcDbEntity
  8
Layer0
100
AcDbLine
 10
348.2067404102804
 20
261.2023644191282
 30
567.7000200567883
 11
348.7502604049956
 21
261.2739201839217
 31
567.7000200567883
  0
LINE
  5
96
330
1D
100
AcDbEntity
  8
Layer0
100
AcDbLine
 10
348.7502604049956
 20
261.2739201839217
 30
567.7000200567883
 11
349.2567404102801
 21
261.4837110711819
 31
567.7000200567883
  0
LINE
  5
97
330
1D
100
AcDbEntity
  8
Layer0
100
AcDbLine
 10
349.2567404102801
 20
261.4837110711819
 30
567.7000200567883
 11
349.6916646507714
 21
261.8174401786366
 31
567.7000200567883
  0
LINE
  5
98
330
1D
100
AcDbEntity
  8
Layer0
100
AcDbLine
 10
349.6916646507714
 20
261.8174401786366
 30
567.7000200567883
 11
350.0253937582265
 21
262.2523644191301
 31
567.7000200567883
  0
LINE
  5
99
330
1D
100
AcDbEntity
  8
Layer0
100
AcDbLine
 10
350.0253937582265
 20
262.2523644191301
 30
567.7000200567883
 11
350.2351846454858
 21
262.758844424415
 31
567.7000200567883
  0
LINE
  5
9A
330
1D
100
AcDbEntity
  8
Layer0
100
AcDbLine
 10
350.2351846454858
 20
262.758844424415
 30
567.7000200567883
 11
350.3067404102781
 21
263.3023644191304
 31
567.7000200567883
  0
LINE
  5
9B
330
1D
100
AcDbEntity
  8
Layer0
100
AcDbLine
 10
350.3067404102781
 20
263.3023644191304
 30
567.7000200567883
 11
350.2351846454845
 21
263.8458844138456
 31
567.7000200567883
  0
LINE
  5
9C
330
1D
100
AcDbEntity
  8
Layer0
100
AcDbLine
 10
350.2351846454845
 20
263.8458844138456
 30
567.7000200567883
 11
350.0253937582242
 21
264.35236441913
 31
567.7000200567883
  0
LINE
  5
9D
330
1D
100
AcDbEntity
  8
Layer0
100
AcDbLine
 10
350.0253937582242
 20
264.35236441913
 30
567.7000200567883
 11
349.6916646507697
 21
264.78728865962
 31
567.7000200567883
  0
LINE
  5
9E
330
1D
100
AcDbEntity
  8
Layer0
100
AcDbLine
 10
349.6916646507697
 20
264.78728865962
 30
567.7000200567883
 11
349.2567404102775
 21
265.1210177670765
 31
567.7000200567883
  0
LINE
  5
9F
330
1D
100
AcDbEntity
  8
Layer0
100
AcDbLine
 10
349.2567404102775
 20
265.1210177670765
 30
567.7000200567883
 11
348.7502604049926
 21
265.3308086543356
 31
567.7000200567883
  0
LINE
  5
A0
330
1D
100
AcDbEntity
  8
Layer0
100
AcDbLine
 10
348.7502604049926
 20
265.3308086543356
 30
567.7000200567883
 11
348.2067404102758
 21
265.4023644191282
 31
567.7000200567883
  0
LINE
  5
A1
330
1D
100
AcDbEntity
  8
Layer0
100
AcDbLine
 10
348.2067404102544
 20
286.6023644191281
 30
567.7000200567883
 11
347.6632204155378
 21
286.5308086543346
 31
567.7000200567883
  0
LINE
  5
A2
330
1D
100
AcDbEntity
  8
Layer0
100
AcDbLine
 10
347.6632204155378
 20
286.5308086543346
 30
567.7000200567883
 11
347.1567404102532
 21
286.3210177670742
 31
567.7000200567883
  0
LINE
  5
A3
330
1D
100
AcDbEntity
  8
Layer0
100
AcDbLine
 10
347.1567404102532
 20
286.3210177670742
 30
567.7000200567883
 11
346.721816169762
 21
285.9872886596183
 31
567.7000200567883
  0
LINE
  5
A4
330
1D
100
AcDbEntity
  8
Layer0
100
AcDbLine
 10
346.721816169762
 20
285.9872886596183
 30
567.7000200567883
 11
346.3880870623083
 21
285.5523644191261
 31
567.7000200567883
  0
LINE
  5
A5
330
1D
100
AcDbEntity
  8
Layer0
100
AcDbLine
 10
346.3880870623083
 20
285.5523644191261
 30
567.7000200567883
 11
346.178296175049
 21
285.0458844138411
 31
567.7000200567883
  0
LINE
  5
A6
330
1D
100
AcDbEntity
  8
Layer0
100
AcDbLine
 10
346.178296175049
 20
285.0458844138411
 30
567.7000200567883
 11
346.1067404102566
 21
284.5023644191258
 31
567.7000200567883
  0
LINE
  5
A7
330
1D
100
AcDbEntity
  8
Layer0
100
AcDbLine
 10
346.1067404102566
 20
284.5023644191258
 30
567.7000200567883
 11
346.1782961750488
 21
283.9588444244106
 31
567.7000200567883
  0
LINE
  5
A8
330
1D
100
AcDbEntity
  8
Layer0
100
AcDbLine
 10
346.1782961750488
 20
283.9588444244106
 30
567.7000200567883
 11
346.3880870623104
 21
283.4523644191261
 31
567.7000200567883
  0
LINE
  5
A9
330
1D
100
AcDbEntity
  8
Layer0
100
AcDbLine
 10
346.3880870623104
 20
283.4523644191261
 30
567.7000200567883
 11
346.7218161697636
 21
283.0174401786348
 31
567.7000200567883
  0
LINE
  5
AA
330
1D
100
AcDbEntity
  8
Layer0
100
AcDbLine
 10
346.7218161697636
 20
283.0174401786348
 30
567.7000200567883
 11
347.1567404102585
 21
282.6837110711797
 31
567.7000200567883
  0
LINE
  5
AB
330
1D
100
AcDbEntity
  8
Layer0
100
AcDbLine
 10
347.1567404102585
 20
282.6837110711797
 30
567.7000200567883
 11
347.6632204155435
 21
282.4739201839205
 31
567.7000200567883
  0
LINE
  5
AC
330
1D
100
AcDbEntity
  8
Layer0
100
AcDbLine
 10
347.6632204155435
 20
282.4739201839205
 30
567.7000200567883
 11
348.2067404102589
 21
282.4023644191282
 31
567.7000200567883
  0
LINE
  5
AD
330
1D
100
AcDbEntity
  8
Layer0
100
AcDbLine
 10
348.2067404102589
 20
282.4023644191282
 30
567.7000200567883
 11
348.7502604049741
 21
282.4739201839216
 31
567.7000200567883
  0
LINE
  5
AE
330
1D
100
AcDbEntity
  8
Layer0
100
AcDbLine
 10
348.7502604049741
 20
282.4739201839216
 30
567.7000200567883
 11
349.2567404102585
 21
282.6837110711819
 31
567.7000200567883
  0
LINE
  5
AF
330
1D
100
AcDbEntity
  8
Layer0
100
AcDbLine
 10
349.2567404102585
 20
282.6837110711819
 30
567.7000200567883
 11
349.6916646507472
 21
283.0174401786364
 31
567.7000200567883
  0
LINE
  5
B0
330
1D
100
AcDbEntity
  8
Layer0
100
AcDbLine
 10
349.6916646507472
 20
283.0174401786364
 30
567.7000200567883
 11
350.025393758205
 21
283.4523644191299
 31
567.7000200567883
  0
LINE
  5
B1
330
1D
100
AcDbEntity
  8
Layer0
100
AcDbLine
 10
350.025393758205
 20
283.4523644191299
 30
567.7000200567883
 11
350.2351846454628
 21
283.958844424415
 31
567.7000200567883
  0
LINE
  5
B2
330
1D
100
AcDbEntity
  8
Layer0
100
AcDbLine
 10
350.2351846454628
 20
283.958844424415
 30
567.7000200567883
 11
350.3067404102566
 21
284.5023644191303
 31
567.7000200567883
  0
LINE
  5
B3
330
1D
100
AcDbEntity
  8
Layer0
100
AcDbLine
 10
350.3067404102566
 20
284.5023644191303
 30
567.7000200567883
 11
350.235184645463
 21
285.0458844138455
 31
567.7000200567883
  0
LINE
  5
B4
330
1D
100
AcDbEntity
  8
Layer0
100
AcDbLine
 10
350.235184645463
 20
285.0458844138455
 30
567.7000200567883
 11
350.0253937582029
 21
285.55236441913
 31
567.7000200567883
  0
LINE
  5
B5
330
1D
100
AcDbEntity
  8
Layer0
100
AcDbLine
 10
350.0253937582029
 20
285.55236441913
 30
567.7000200567883
 11
349.6916646507454
 21
285.9872886596199
 31
567.7000200567883
  0
LINE
  5
B6
330
1D
100
AcDbEntity
  8
Layer0
100
AcDbLine
 10
349.6916646507454
 20
285.9872886596199
 30
567.7000200567883
 11
349.2567404102533
 21
286.3210177670764
 31
567.7000200567883
  0
LINE
  5
B7
330
1D
100
AcDbEntity
  8
Layer0
100
AcDbLine
 10
349.2567404102533
 20
286.3210177670764
 30
567.7000200567883
 11
348.7502604049683
 21
286.5308086543357
 31
567.7000200567883
  0
LINE
  5
B8
330
1D
100
AcDbEntity
  8
Layer0
100
AcDbLine
 10
348.7502604049683
 20
286.5308086543357
 30
567.7000200567883
 11
348.2067404102544
 21
286.6023644191281
 31
567.7000200567883
  0
LINE
  5
B9
330
1D
100
AcDbEntity
  8
Layer0
100
AcDbLine
 10
457.0067404102771
 20
265.4023644192457
 30
567.7000200567883
 11
456.4632204155619
 21
265.330808654452
 31
567.7000200567883
  0
LINE
  5
BA
330
1D
100
AcDbEntity
  8
Layer0
100
AcDbLine
 10
456.4632204155619
 20
265.330808654452
 30
567.7000200567883
 11
455.9567404102747
 21
265.1210177671919
 31
567.7000200567883
  0
LINE
  5
BB
330
1D
100
AcDbEntity
  8
Layer0
100
AcDbLine
 10
455.9567404102747
 20
265.1210177671919
 30
567.7000200567883
 11
455.5218161697833
 21
264.7872886597344
 31
567.7000200567883
  0
LINE
  5
BC
330
1D
100
AcDbEntity
  8
Layer0
100
AcDbLine
 10
455.5218161697833
 20
264.7872886597344
 30
567.7000200567883
 11
455.188087062331
 21
264.3523644192422
 31
567.7000200567883
  0
LINE
  5
BD
330
1D
100
AcDbEntity
  8
Layer0
100
AcDbLine
 10
455.188087062331
 20
264.3523644192422
 30
567.7000200567883
 11
454.9782961750719
 21
263.8458844139573
 31
567.7000200567883
  0
LINE
  5
BE
330
1D
100
AcDbEntity
  8
Layer0
100
AcDbLine
 10
454.9782961750719
 20
263.8458844139573
 30
567.7000200567883
 11
454.9067404102795
 21
263.3023644192434
 31
567.7000200567883
  0
LINE
  5
BF
330
1D
100
AcDbEntity
  8
Layer0
100
AcDbLine
 10
454.9067404102795
 20
263.3023644192434
 30
567.7000200567883
 11
454.9782961750703
 21
262.7588444245267
 31
567.7000200567883
  0
LINE
  5
C0
330
1D
100
AcDbEntity
  8
Layer0
100
AcDbLine
 10
454.9782961750703
 20
262.7588444245267
 30
567.7000200567883
 11
455.1880870623334
 21
262.2523644192424
 31
567.7000200567883
  0
LINE
  5
C1
330
1D
100
AcDbEntity
  8
Layer0
100
AcDbLine
 10
455.1880870623334
 20
262.2523644192424
 30
567.7000200567883
 11
455.5218161697896
 21
261.8174401787509
 31
567.7000200567883
  0
LINE
  5
C2
330
1D
100
AcDbEntity
  8
Layer0
100
AcDbLine
 10
455.5218161697896
 20
261.8174401787509
 30
567.7000200567883
 11
455.9567404102814
 21
261.4837110712972
 31
567.7000200567883
  0
LINE
  5
C3
330
1D
100
AcDbEntity
  8
Layer0
100
AcDbLine
 10
455.9567404102814
 20
261.4837110712972
 30
567.7000200567883
 11
456.4632204155635
 21
261.2739201840381
 31
567.7000200567883
  0
LINE
  5
C4
330
1D
100
AcDbEntity
  8
Layer0
100
AcDbLine
 10
456.4632204155635
 20
261.2739201840381
 30
567.7000200567883
 11
457.0067404102817
 21
261.2023644192458
 31
567.7000200567883
  0
LINE
  5
C5
330
1D
100
AcDbEntity
  8
Layer0
100
AcDbLine
 10
457.0067404102817
 20
261.2023644192458
 30
567.7000200567883
 11
457.5502604049942
 21
261.2739201840394
 31
567.7000200567883
  0
LINE
  5
C6
330
1D
100
AcDbEntity
  8
Layer0
100
AcDbLine
 10
457.5502604049942
 20
261.2739201840394
 30
567.7000200567883
 11
458.0567404102814
 21
261.4837110712996
 31
567.7000200567883
  0
LINE
  5
C7
330
1D
100
AcDbEntity
  8
Layer0
100
AcDbLine
 10
458.0567404102814
 20
261.4837110712996
 30
567.7000200567883
 11
458.4916646507731
 21
261.8174401787557
 31
567.7000200567883
  0
LINE
  5
C8
330
1D
100
AcDbEntity
  8
Layer0
100
AcDbLine
 10
458.4916646507731
 20
261.8174401787557
 30
567.7000200567883
 11
458.825393758228
 21
262.2523644192476
 31
567.7000200567883
  0
LINE
  5
C9
330
1D
100
AcDbEntity
  8
Layer0
100
AcDbLine
 10
458.825393758228
 20
262.2523644192476
 30
567.7000200567883
 11
459.0351846454843
 21
262.7588444245325
 31
567.7000200567883
  0
LINE
  5
CA
330
1D
100
AcDbEntity
  8
Layer0
100
AcDbLine
 10
459.0351846454843
 20
262.7588444245325
 30
567.7000200567883
 11
459.1067404102795
 21
263.302364419248
 31
567.7000200567883
  0
LINE
  5
CB
330
1D
100
AcDbEntity
  8
Layer0
100
AcDbLine
 10
459.1067404102795
 20
263.302364419248
 30
567.7000200567883
 11
459.0351846454858
 21
263.8458844139631
 31
567.7000200567883
  0
LINE
  5
CC
330
1D
100
AcDbEntity
  8
Layer0
100
AcDbLine
 10
459.0351846454858
 20
263.8458844139631
 30
567.7000200567883
 11
458.8253937582256
 21
264.3523644192476
 31
567.7000200567883
  0
LINE
  5
CD
330
1D
100
AcDbEntity
  8
Layer0
100
AcDbLine
 10
458.8253937582256
 20
264.3523644192476
 30
567.7000200567883
 11
458.4916646507667
 21
264.7872886597391
 31
567.7000200567883
  0
LINE
  5
CE
330
1D
100
AcDbEntity
  8
Layer0
100
AcDbLine
 10
458.4916646507667
 20
264.7872886597391
 30
567.7000200567883
 11
458.0567404102746
 21
265.1210177671942
 31
567.7000200567883
  0
LINE
  5
CF
330
1D
100
AcDbEntity
  8
Layer0
100
AcDbLine
 10
458.0567404102746
 20
265.1210177671942
 30
567.7000200567883
 11
457.5502604049926
 21
265.3308086544534
 31
567.7000200567883
  0
LINE
  5
D0
330
1D
100
AcDbEntity
  8
Layer0
100
AcDbLine
 10
457.5502604049926
 20
265.3308086544534
 30
567.7000200567883
 11
457.0067404102771
 21
265.4023644192457
 31
567.7000200567883
  0
LINE
  5
D1
330
1D
100
AcDbEntity
  8
Layer0
100
AcDbLine
 10
457.0067404102543
 20
286.6023644192449
 30
567.7000200567883
 11
456.4632204155391
 21
286.5308086544512
 31
567.7000200567883
  0
LINE
  5
D2
330
1D
100
AcDbEntity
  8
Layer0
100
AcDbLine
 10
456.4632204155391
 20
286.5308086544512
 30
567.7000200567883
 11
455.9567404102547
 21
286.321017767191
 31
567.7000200567883
  0
LINE
  5
D3
330
1D
100
AcDbEntity
  8
Layer0
100
AcDbLine
 10
455.9567404102547
 20
286.321017767191
 30
567.7000200567883
 11
455.5218161697632
 21
285.9872886597336
 31
567.7000200567883
  0
LINE
  5
D4
330
1D
100
AcDbEntity
  8
Layer0
100
AcDbLine
 10
455.5218161697632
 20
285.9872886597336
 30
567.7000200567883
 11
455.1880870623054
 21
285.5523644192414
 31
567.7000200567883
  0
LINE
  5
D5
330
1D
100
AcDbEntity
  8
Layer0
100
AcDbLine
 10
455.1880870623054
 20
285.5523644192414
 30
567.7000200567883
 11
454.9782961750463
 21
285.0458844139565
 31
567.7000200567883
  0
LINE
  5
D6
330
1D
100
AcDbEntity
  8
Layer0
100
AcDbLine
 10
454.9782961750463
 20
285.0458844139565
 30
567.7000200567883
 11
454.9067404102569
 21
284.5023644192426
 31
567.7000200567883
  0
LINE
  5
D7
330
1D
100
AcDbEntity
  8
Layer0
100
AcDbLine
 10
454.9067404102569
 20
284.5023644192426
 30
567.7000200567883
 11
454.9782961750474
 21
283.9588444245258
 31
567.7000200567883
  0
LINE
  5
D8
330
1D
100
AcDbEntity
  8
Layer0
100
AcDbLine
 10
454.9782961750474
 20
283.9588444245258
 30
567.7000200567883
 11
455.1880870623076
 21
283.4523644192415
 31
567.7000200567883
  0
LINE
  5
D9
330
1D
100
AcDbEntity
  8
Layer0
100
AcDbLine
 10
455.1880870623076
 20
283.4523644192415
 30
567.7000200567883
 11
455.5218161697637
 21
283.0174401787501
 31
567.7000200567883
  0
LINE
  5
DA
330
1D
100
AcDbEntity
  8
Layer0
100
AcDbLine
 10
455.5218161697637
 20
283.0174401787501
 30
567.7000200567883
 11
455.9567404102557
 21
282.6837110712963
 31
567.7000200567883
  0
LINE
  5
DB
330
1D
100
AcDbEntity
  8
Layer0
100
AcDbLine
 10
455.9567404102557
 20
282.6837110712963
 30
567.7000200567883
 11
456.4632204155435
 21
282.4739201840372
 31
567.7000200567883
  0
LINE
  5
DC
330
1D
100
AcDbEntity
  8
Layer0
100
AcDbLine
 10
456.4632204155435
 20
282.4739201840372
 30
567.7000200567883
 11
457.0067404102589
 21
282.4023644192449
 31
567.7000200567883
  0
LINE
  5
DD
330
1D
100
AcDbEntity
  8
Layer0
100
AcDbLine
 10
457.0067404102589
 20
282.4023644192449
 30
567.7000200567883
 11
457.5502604049742
 21
282.4739201840385
 31
567.7000200567883
  0
LINE
  5
DE
330
1D
100
AcDbEntity
  8
Layer0
100
AcDbLine
 10
457.5502604049742
 20
282.4739201840385
 30
567.7000200567883
 11
458.0567404102557
 21
282.6837110712988
 31
567.7000200567883
  0
LINE
  5
DF
330
1D
100
AcDbEntity
  8
Layer0
100
AcDbLine
 10
458.0567404102557
 20
282.6837110712988
 30
567.7000200567883
 11
458.4916646507471
 21
283.0174401787548
 31
567.7000200567883
  0
LINE
  5
E0
330
1D
100
AcDbEntity
  8
Layer0
100
AcDbLine
 10
458.4916646507471
 20
283.0174401787548
 30
567.7000200567883
 11
458.8253937582022
 21
283.4523644192467
 31
567.7000200567883
  0
LINE
  5
E1
330
1D
100
AcDbEntity
  8
Layer0
100
AcDbLine
 10
458.8253937582022
 20
283.4523644192467
 30
567.7000200567883
 11
459.0351846454614
 21
283.9588444245317
 31
567.7000200567883
  0
LINE
  5
E2
330
1D
100
AcDbEntity
  8
Layer0
100
AcDbLine
 10
459.0351846454614
 20
283.9588444245317
 30
567.7000200567883
 11
459.1067404102568
 21
284.5023644192472
 31
567.7000200567883
  0
LINE
  5
E3
330
1D
100
AcDbEntity
  8
Layer0
100
AcDbLine
 10
459.1067404102568
 20
284.5023644192472
 30
567.7000200567883
 11
459.0351846454602
 21
285.0458844139623
 31
567.7000200567883
  0
LINE
  5
E4
330
1D
100
AcDbEntity
  8
Layer0
100
AcDbLine
 10
459.0351846454602
 20
285.0458844139623
 30
567.7000200567883
 11
458.8253937581999
 21
285.5523644192468
 31
567.7000200567883
  0
LINE
  5
E5
330
1D
100
AcDbEntity
  8
Layer0
100
AcDbLine
 10
458.8253937581999
 20
285.5523644192468
 30
567.7000200567883
 11
458.4916646507467
 21
285.9872886597383
 31
567.7000200567883
  0
LINE
  5
E6
330
1D
100
AcDbEntity
  8
Layer0
100
AcDbLine
 10
458.4916646507467
 20
285.9872886597383
 30
567.7000200567883
 11
458.0567404102546
 21
286.3210177671933
 31
567.7000200567883
  0
LINE
  5
E7
330
1D
100
AcDbEntity
  8
Layer0
100
AcDbLine
 10
458.0567404102546
 20
286.3210177671933
 30
567.7000200567883
 11
457.5502604049697
 21
286.5308086544526
 31
567.7000200567883
  0
LINE
  5
E8
330
1D
100
AcDbEntity
  8
Layer0
100
AcDbLine
 10
457.5502604049697
 20
286.5308086544526
 30
567.7000200567883
 11
457.0067404102543
 21
286.6023644192449
 31
567.7000200567883
  0
LINE
  5
E9
330
1D
100
AcDbEntity
  8
Layer0
100
AcDbLine
 10
346.0504880714182
 20
278.7773645429219
 30
567.7000200567879
 11
347.0245172032582
 21
276.425850237816
 31
567.7000200567879
  0
LINE
  5
EA
330
1D
100
AcDbEntity
  8
Layer0
100
AcDbLine
 10
344.5010314904235
 20
280.796655651307
 30
567.7000200567879
 11
346.0504880714182
 21
278.7773645429219
 31
567.7000200567879
  0
LINE
  5
EB
330
1D
100
AcDbEntity
  8
Layer0
100
AcDbLine
 10
342.481740365671
 20
282.3461122109713
 30
567.7000200567879
 11
344.5010314904235
 21
280.796655651307
 31
567.7000200567879
  0
LINE
  5
EC
330
1D
100
AcDbEntity
  8
Layer0
100
AcDbLine
 10
340.1302260502761
 20
283.3201413179715
 30
567.7000200567879
 11
342.481740365671
 21
282.3461122109713
 31
567.7000200567879
  0
LINE
  5
ED
330
1D
100
AcDbEntity
  8
Layer0
100
AcDbLine
 10
337.6067403587718
 20
283.6523644983249
 30
567.7000200567879
 11
340.1302260502761
 21
283.3201413179715
 31
567.7000200567879
  0
LINE
  5
EE
330
1D
100
AcDbEntity
  8
Layer0
100
AcDbLine
 10
335.083254670777
 20
283.3201412913152
 30
567.7000200567879
 11
337.6067403587718
 21
283.6523644983249
 31
567.7000200567879
  0
LINE
  5
EF
330
1D
100
AcDbEntity
  8
Layer0
100
AcDbLine
 10
332.731740365671
 20
282.3461121594752
 30
567.7000200567879
 11
335.083254670777
 21
283.3201412913152
 31
567.7000200567879
  0
LINE
  5
F0
330
1D
100
AcDbEntity
  8
Layer0
100
AcDbLine
 10
330.7124492572858
 20
280.7966555784794
 30
567.7000200567879
 11
332.731740365671
 21
282.3461121594752
 31
567.7000200567879
  0
LINE
  5
F1
330
1D
100
AcDbEntity
  8
Layer0
100
AcDbLine
 10
329.1629926976216
 20
278.777364453728
 30
567.7000200567879
 11
330.7124492572858
 21
280.7966555784794
 31
567.7000200567879
  0
LINE
  5
F2
330
1D
100
AcDbEntity
  8
Layer0
100
AcDbLine
 10
328.1889635906214
 20
276.425850138332
 30
567.7000200567879
 11
329.1629926976216
 21
278.777364453728
 31
567.7000200567879
  0
LINE
  5
F3
330
1D
100
AcDbEntity
  8
Layer0
100
AcDbLine
 10
327.856740410268
 20
273.9023644468288
 30
567.7000200567879
 11
328.1889635906214
 21
276.425850138332
 31
567.7000200567879
  0
LINE
  5
F4
330
1D
100
AcDbEntity
  8
Layer0
100
AcDbLine
 10
328.1889636172756
 20
271.3788787588329
 30
567.7000200567879
 11
327.856740410268
 21
273.9023644468288
 31
567.7000200567879
  0
LINE
  5
F5
330
1D
100
AcDbEntity
  8
Layer0
100
AcDbLine
 10
329.1629927491177
 20
269.027364453728
 30
567.7000200567879
 11
328.1889636172756
 21
271.3788787588329
 31
567.7000200567879
  0
LINE
  5
F6
330
1D
100
AcDbEntity
  8
Layer0
100
AcDbLine
 10
330.7124493301102
 20
267.0080733453418
 30
567.7000200567879
 11
329.1629927491177
 21
269.027364453728
 31
567.7000200567879
  0
LINE
  5
F7
330
1D
100
AcDbEntity
  8
Layer0
100
AcDbLine
 10
332.731740454865
 20
265.4586167856786
 30
567.7000200567879
 11
330.7124493301102
 21
267.0080733453418
 31
567.7000200567879
  0
LINE
  5
F8
330
1D
100
AcDbEntity
  8
Layer0
100
AcDbLine
 10
335.0832547702587
 20
264.4845876786784
 30
567.7000200567879
 11
332.731740454865
 21
265.4586167856786
 31
567.7000200567879
  0
LINE
  5
F9
330
1D
100
AcDbEntity
  8
Layer0
100
AcDbLine
 10
337.6067404617619
 20
264.152364498325
 30
567.7000200567879
 11
335.0832547702587
 21
264.4845876786784
 31
567.7000200567879
  0
LINE
  5
FA
330
1D
100
AcDbEntity
  8
Layer0
100
AcDbLine
 10
340.1302261497579
 20
264.4845877053347
 30
567.7000200567879
 11
337.6067404617619
 21
264.152364498325
 31
567.7000200567879
  0
LINE
  5
FB
330
1D
100
AcDbEntity
  8
Layer0
100
AcDbLine
 10
342.4817404548649
 20
265.4586168371747
 30
567.7000200567879
 11
340.1302261497579
 21
264.4845877053347
 31
567.7000200567879
  0
LINE
  5
FC
330
1D
100
AcDbEntity
  8
Layer0
100
AcDbLine
 10
344.501031563248
 20
267.0080734181694
 30
567.7000200567879
 11
342.4817404548649
 21
265.4586168371747
 31
567.7000200567879
  0
LINE
  5
FD
330
1D
100
AcDbEntity
  8
Layer0
100
AcDbLine
 10
346.0504881229143
 20
269.0273645429219
 30
567.7000200567879
 11
344.501031563248
 21
267.0080734181694
 31
567.7000200567879
  0
LINE
  5
FE
330
1D
100
AcDbEntity
  8
Layer0
100
AcDbLine
 10
347.0245172299124
 20
271.3788788583168
 30
567.7000200567879
 11
346.0504881229143
 21
269.0273645429219
 31
567.7000200567879
  0
LINE
  5
FF
330
1D
100
AcDbEntity
  8
Layer0
100
AcDbLine
 10
347.3567404102679
 20
273.9023645498211
 30
567.7000200567879
 11
347.0245172299124
 21
271.3788788583168
 31
567.7000200567879
  0
LINE
  5
100
330
1D
100
AcDbEntity
  8
Layer0
100
AcDbLine
 10
347.0245172032582
 20
276.425850237816
 30
567.7000200567879
 11
347.3567404102679
 21
273.9023645498211
 31
567.7000200567879
  0
LINE
  5
101
330
1D
100
AcDbEntity
  8
Layer0
100
AcDbLine
 10
459.1629927491178
 20
269.0273651403406
 30
567.7000200567882
 11
460.7124493301125
 21
267.0080740319555
 31
567.7000200567882
  0
LINE
  5
102
330
1D
100
AcDbEntity
  8
Layer0
100
AcDbLine
 10
460.7124493301125
 20
267.0080740319555
 30
567.7000200567882
 11
462.7317404548629
 21
265.4586174722912
 31
567.7000200567882
  0
LINE
  5
103
330
1D
100
AcDbEntity
  8
Layer0
100
AcDbLine
 10
462.7317404548629
 20
265.4586174722912
 30
567.7000200567882
 11
465.0832547702598
 21
264.4845883652908
 31
567.7000200567882
  0
LINE
  5
104
330
1D
100
AcDbEntity
  8
Layer0
100
AcDbLine
 10
465.0832547702598
 20
264.4845883652908
 30
567.7000200567882
 11
467.606740461764
 21
264.1523651849374
 31
567.7000200567882
  0
LINE
  5
105
330
1D
100
AcDbEntity
  8
Layer0
100
AcDbLine
 10
467.606740461764
 20
264.1523651849374
 30
567.7000200567882
 11
470.130226149759
 21
264.4845883919471
 31
567.7000200567882
  0
LINE
  5
106
330
1D
100
AcDbEntity
  8
Layer0
100
AcDbLine
 10
470.130226149759
 20
264.4845883919471
 30
567.7000200567882
 11
472.4817404548629
 21
265.458617523787
 31
567.7000200567882
  0
LINE
  5
107
330
1D
100
AcDbEntity
  8
Layer0
100
AcDbLine
 10
472.4817404548629
 20
265.458617523787
 30
567.7000200567882
 11
474.5010315632501
 21
267.0080741047817
 31
567.7000200567882
  0
LINE
  5
108
330
1D
100
AcDbEntity
  8
Layer0
100
AcDbLine
 10
474.5010315632501
 20
267.0080741047817
 30
567.7000200567882
 11
476.0504881229144
 21
269.0273652295342
 31
567.7000200567882
  0
LINE
  5
109
330
1D
100
AcDbEntity
  8
Layer0
100
AcDbLine
 10
476.0504881229144
 20
269.0273652295342
 30
567.7000200567882
 11
477.0245172299148
 21
271.378879544929
 31
567.7000200567882
  0
LINE
  5
10A
330
1D
100
AcDbEntity
  8
Layer0
100
AcDbLine
 10
477.0245172299148
 20
271.378879544929
 30
567.7000200567882
 11
477.3567404102683
 21
273.9023652364333
 31
567.7000200567882
  0
LINE
  5
10B
330
1D
100
AcDbEntity
  8
Layer0
100
AcDbLine
 10
477.3567404102683
 20
273.9023652364333
 30
567.7000200567882
 11
477.0245172032586
 21
276.4258509244282
 31
567.7000200567882
  0
LINE
  5
10C
330
1D
100
AcDbEntity
  8
Layer0
100
AcDbLine
 10
477.0245172032586
 20
276.4258509244282
 30
567.7000200567882
 11
476.0504880714186
 21
278.7773652295342
 31
567.7000200567882
  0
LINE
  5
10D
330
1D
100
AcDbEntity
  8
Layer0
100
AcDbLine
 10
476.0504880714186
 20
278.7773652295342
 30
567.7000200567882
 11
474.501031490424
 21
280.7966563379194
 31
567.7000200567882
  0
LINE
  5
10E
330
1D
100
AcDbEntity
  8
Layer0
100
AcDbLine
 10
474.501031490424
 20
280.7966563379194
 30
567.7000200567882
 11
472.4817403656694
 21
282.3461128975837
 31
567.7000200567882
  0
LINE
  5
10F
330
1D
100
AcDbEntity
  8
Layer0
100
AcDbLine
 10
472.4817403656694
 20
282.3461128975837
 30
567.7000200567882
 11
470.1302260502767
 21
283.320142004584
 31
567.7000200567882
  0
LINE
  5
110
330
1D
100
AcDbEntity
  8
Layer0
100
AcDbLine
 10
470.1302260502767
 20
283.320142004584
 30
567.7000200567882
 11
467.6067403587724
 21
283.6523651849375
 31
567.7000200567882
  0
LINE
  5
111
330
1D
100
AcDbEntity
  8
Layer0
100
AcDbLine
 10
467.6067403587724
 20
283.6523651849375
 30
567.7000200567882
 11
465.0832546707774
 21
283.3201419779278
 31
567.7000200567882
  0
LINE
  5
112
330
1D
100
AcDbEntity
  8
Layer0
100
AcDbLine
 10
465.0832546707774
 20
283.3201419779278
 30
567.7000200567882
 11
462.7317403656694
 21
282.3461128460878
 31
567.7000200567882
  0
LINE
  5
113
330
1D
100
AcDbEntity
  8
Layer0
100
AcDbLine
 10
462.7317403656694
 20
282.3461128460878
 30
567.7000200567882
 11
460.7124492572863
 21
280.7966562650932
 31
567.7000200567882
  0
LINE
  5
114
330
1D
100
AcDbEntity
  8
Layer0
100
AcDbLine
 10
460.7124492572863
 20
280.7966562650932
 30
567.7000200567882
 11
459.1629926976219
 21
278.7773651403407
 31
567.7000200567882
  0
LINE
  5
115
330
1D
100
AcDbEntity
  8
Layer0
100
AcDbLine
 10
459.1629926976219
 20
278.7773651403407
 30
567.7000200567882
 11
458.1889635906217
 21
276.4258508249458
 31
567.7000200567882
  0
LINE
  5
116
330
1D
100
AcDbEntity
  8
Layer0
100
AcDbLine
 10
458.1889635906217
 20
276.4258508249458
 30
567.7000200567882
 11
457.8567404102682
 21
273.9023651334415
 31
567.7000200567882
  0
LINE
  5
117
330
1D
100
AcDbEntity
  8
Layer0
100
AcDbLine
 10
457.8567404102682
 20
273.9023651334415
 30
567.7000200567882
 11
458.1889636172779
 21
271.3788794454466
 31
567.7000200567882
  0
LINE
  5
118
330
1D
100
AcDbEntity
  8
Layer0
100
AcDbLine
 10
458.1889636172779
 20
271.3788794454466
 30
567.7000200567882
 11
459.1629927491178
 21
269.0273651403406
 31
567.7000200567882
  0
LINE
  5
119
330
1D
100
AcDbEntity
  8
Layer0
100
AcDbLine
 10
398.6357378140634
 20
284.1416274819504
 30
567.7000200567883
 11
398.7488143149487
 21
283.8686366599304
 31
567.7000200567883
  0
LINE
  5
11A
330
1D
100
AcDbEntity
  8
Layer0
100
AcDbLine
 10
398.5789835966904
 20
284.2786442832559
 30
567.7000200567883
 11
398.6357378140634
 21
284.1416274819504
 31
567.7000200567883
  0
LINE
  5
11B
330
1D
100
AcDbEntity
  8
Layer0
100
AcDbLine
 10
398.3088219382727
 20
284.6307258112718
 30
567.7000200567883
 11
398.5789835966904
 21
284.2786442832559
 31
567.7000200567883
  0
LINE
  5
11C
330
1D
100
AcDbEntity
  8
Layer0
100
AcDbLine
 10
397.9567404102553
 20
284.9008874696888
 30
567.7000200567883
 11
398.3088219382727
 21
284.6307258112718
 31
567.7000200567883
  0
LINE
  5
11D
330
1D
100
AcDbEntity
  8
Layer0
100
AcDbLine
 10
397.5467327869294
 20
285.0707181879453
 30
567.7000200567883
 11
397.9567404102553
 21
284.9008874696888
 31
567.7000200567883
  0
LINE
  5
11E
330
1D
100
AcDbEntity
  8
Layer0
100
AcDbLine
 10
397.106740410256
 20
285.1286442832543
 30
567.7000200567883
 11
397.5467327869294
 21
285.0707181879453
 31
567.7000200567883
  0
LINE
  5
11F
330
1D
100
AcDbEntity
  8
Layer0
100
AcDbLine
 10
396.6667480335808
 20
285.0707181879443
 30
567.7000200567883
 11
397.106740410256
 21
285.1286442832543
 31
567.7000200567883
  0
LINE
  5
120
330
1D
100
AcDbEntity
  8
Layer0
100
AcDbLine
 10
396.2567404102552
 20
284.9008874696869
 30
567.7000200567883
 11
396.6667480335808
 21
285.0707181879443
 31
567.7000200567883
  0
LINE
  5
121
330
1D
100
AcDbEntity
  8
Layer0
100
AcDbLine
 10
395.9046588822384
 20
284.6307258112701
 30
567.7000200567883
 11
396.2567404102552
 21
284.9008874696869
 31
567.7000200567883
  0
LINE
  5
122
330
1D
100
AcDbEntity
  8
Layer0
100
AcDbLine
 10
395.6344972238234
 20
284.2786442832527
 30
567.7000200567883
 11
395.9046588822384
 21
284.6307258112701
 31
567.7000200567883
  0
LINE
  5
123
330
1D
100
AcDbEntity
  8
Layer0
100
AcDbLine
 10
395.464666505566
 20
283.8686366599268
 30
567.7000200567883
 11
395.6344972238234
 21
284.2786442832527
 31
567.7000200567883
  0
LINE
  5
124
330
1D
100
AcDbEntity
  8
Layer0
100
AcDbLine
 10
395.4067404102569
 20
283.4286442832515
 30
567.7000200567883
 11
395.464666505566
 21
283.8686366599268
 31
567.7000200567883
  0
LINE
  5
125
330
1D
100
AcDbEntity
  8
Layer0
100
AcDbLine
 10
395.4646665055668
 20
282.9886519065782
 30
567.7000200567883
 11
395.4067404102569
 21
283.4286442832515
 31
567.7000200567883
  0
LINE
  5
126
330
1D
100
AcDbEntity
  8
Layer0
100
AcDbLine
 10
395.6344972238243
 20
282.5786442832527
 30
567.7000200567883
 11
395.4646665055668
 21
282.9886519065782
 31
567.7000200567883
  0
LINE
  5
127
330
1D
100
AcDbEntity
  8
Layer0
100
AcDbLine
 10
395.904658882242
 20
282.2265627552359
 30
567.7000200567883
 11
395.6344972238243
 21
282.5786442832527
 31
567.7000200567883
  0
LINE
  5
128
330
1D
100
AcDbEntity
  8
Layer0
100
AcDbLine
 10
396.2567404102585
 20
281.9564010968198
 30
567.7000200567883
 11
395.904658882242
 21
282.2265627552359
 31
567.7000200567883
  0
LINE
  5
129
330
1D
100
AcDbEntity
  8
Layer0
100
AcDbLine
 10
396.6667480335844
 20
281.7865703785615
 30
567.7000200567883
 11
396.2567404102585
 21
281.9564010968198
 31
567.7000200567883
  0
LINE
  5
12A
330
1D
100
AcDbEntity
  8
Layer0
100
AcDbLine
 10
397.1067404102596
 20
281.7286442832543
 30
567.7000200567883
 11
396.6667480335844
 21
281.7865703785615
 31
567.7000200567883
  0
LINE
  5
12B
330
1D
100
AcDbEntity
  8
Layer0
100
AcDbLine
 10
397.5467327869329
 20
281.7865703785624
 30
567.7000200567883
 11
397.1067404102596
 21
281.7286442832543
 31
567.7000200567883
  0
LINE
  5
12C
330
1D
100
AcDbEntity
  8
Layer0
100
AcDbLine
 10
397.9567404102585
 20
281.9564010968217
 30
567.7000200567883
 11
397.5467327869329
 21
281.7865703785624
 31
567.7000200567883
  0
LINE
  5
12D
330
1D
100
AcDbEntity
  8
Layer0
100
AcDbLine
 10
398.3088219382763
 20
282.2265627552375
 30
567.7000200567883
 11
397.9567404102585
 21
281.9564010968217
 31
567.7000200567883
  0
LINE
  5
12E
330
1D
100
AcDbEntity
  8
Layer0
100
AcDbLine
 10
398.5789835966914
 20
282.5786442832559
 30
567.7000200567883
 11
398.3088219382763
 21
282.2265627552375
 31
567.7000200567883
  0
LINE
  5
12F
330
1D
100
AcDbEntity
  8
Layer0
100
AcDbLine
 10
398.7488143149497
 20
282.9886519065818
 30
567.7000200567883
 11
398.5789835966914
 21
282.5786442832559
 31
567.7000200567883
  0
LINE
  5
130
330
1D
100
AcDbEntity
  8
Layer0
100
AcDbLine
 10
398.8067404102569
 20
283.4286442832552
 30
567.7000200567883
 11
398.7488143149497
 21
282.9886519065818
 31
567.7000200567883
  0
LINE
  5
131
330
1D
100
AcDbEntity
  8
Layer0
100
AcDbLine
 10
398.7488143149487
 20
283.8686366599304
 30
567.7000200567883
 11
398.8067404102569
 21
283.4286442832552
 31
567.7000200567883
  0
LINE
  5
132
330
1D
100
AcDbEntity
  8
Layer0
100
AcDbLine
 10
413.4597032707217
 20
275.583007037086
 30
567.7000200567885
 11
413.6067403621196
 21
275.6023648416432
 31
567.7000200567885
  0
LINE
  5
133
330
1D
100
AcDbEntity
  8
Layer0
100
AcDbLine
 10
413.1667479870841
 20
275.5444387338729
 30
567.7000200567885
 11
413.4597032707217
 21
275.583007037086
 31
567.7000200567885
  0
LINE
  5
134
330
1D
100
AcDbEntity
  8
Layer0
100
AcDbLine
 10
412.7567403685685
 20
275.3746080040016
 30
567.7000200567885
 11
413.1667479870841
 21
275.5444387338729
 31
567.7000200567885
  0
LINE
  5
135
330
1D
100
AcDbEntity
  8
Layer0
100
AcDbLine
 10
412.4046588482049
 20
275.1044463356142
 30
567.7000200567885
 11
412.7567403685685
 21
275.3746080040016
 31
567.7000200567885
  0
LINE
  5
136
330
1D
100
AcDbEntity
  8
Layer0
100
AcDbLine
 10
412.1344971997603
 20
274.7523647999454
 30
567.7000200567885
 11
412.4046588482049
 21
275.1044463356142
 31
567.7000200567885
  0
LINE
  5
137
330
1D
100
AcDbEntity
  8
Layer0
100
AcDbLine
 10
411.9646664931149
 20
274.3423571718088
 30
567.7000200567885
 11
412.1344971997603
 21
274.7523647999454
 31
567.7000200567885
  0
LINE
  5
138
330
1D
100
AcDbEntity
  8
Layer0
100
AcDbLine
 10
411.9067404102681
 20
273.9023647934948
 30
567.7000200567885
 11
411.9646664931149
 21
274.3423571718088
 31
567.7000200567885
  0
LINE
  5
139
330
1D
100
AcDbEntity
  8
Layer0
100
AcDbLine
 10
411.9646665180384
 20
273.4623724184602
 30
567.7000200567885
 11
411.9067404102681
 21
273.9023647934948
 31
567.7000200567885
  0
LINE
  5
13A
330
1D
100
AcDbEntity
  8
Layer0
100
AcDbLine
 10
412.1344972479087
 20
273.0523647999455
 30
567.7000200567885
 11
411.9646665180384
 21
273.4623724184602
 31
567.7000200567885
  0
LINE
  5
13B
330
1D
100
AcDbEntity
  8
Layer0
100
AcDbLine
 10
412.4046589162951
 20
272.70028327958
 30
567.7000200567885
 11
412.1344972479087
 21
273.0523647999455
 31
567.7000200567885
  0
LINE
  5
13C
330
1D
100
AcDbEntity
  8
Layer0
100
AcDbLine
 10
412.7567404519639
 20
272.4301216311345
 30
567.7000200567885
 11
412.4046589162951
 21
272.70028327958
 31
567.7000200567885
  0
LINE
  5
13D
330
1D
100
AcDbEntity
  8
Layer0
100
AcDbLine
 10
413.1667480800996
 20
272.2602909244901
 30
567.7000200567885
 11
412.7567404519639
 21
272.4301216311345
 31
567.7000200567885
  0
LINE
  5
13E
330
1D
100
AcDbEntity
  8
Layer0
100
AcDbLine
 10
413.4597032710889
 20
272.2217226503565
 30
567.7000200567885
 11
413.1667480800996
 21
272.2602909244901
 31
567.7000200567885
  0
LINE
  5
13F
330
1D
100
AcDbEntity
  8
Layer0
100
AcDbLine
 10
413.6067404584165
 20
272.2023648416432
 30
567.7000200567885
 11
413.4597032710889
 21
272.2217226503565
 31
567.7000200567885
  0
LINE
  5
140
330
1D
100
AcDbEntity
  8
Layer0
100
AcDbLine
 10
414.0467328334482
 20
272.2602909494135
 30
567.7000200567885
 11
413.6067404584165
 21
272.2023648416432
 31
567.7000200567885
  0
LINE
  5
141
330
1D
100
AcDbEntity
  8
Layer0
100
AcDbLine
 10
414.4567404519639
 20
272.4301216792838
 30
567.7000200567885
 11
414.0467328334482
 21
272.2602909494135
 31
567.7000200567885
  0
LINE
  5
142
330
1D
100
AcDbEntity
  8
Layer0
100
AcDbLine
 10
414.8088219723294
 20
272.7002833476721
 30
567.7000200567885
 11
414.4567404519639
 21
272.4301216792838
 31
567.7000200567885
  0
LINE
  5
143
330
1D
100
AcDbEntity
  8
Layer0
100
AcDbLine
 10
415.0789836207758
 20
273.0523648833409
 30
567.7000200567885
 11
414.8088219723294
 21
272.7002833476721
 31
567.7000200567885
  0
LINE
  5
144
330
1D
100
AcDbEntity
  8
Layer0
100
AcDbLine
 10
415.2488143274211
 20
273.4623725114766
 30
567.7000200567885
 11
415.0789836207758
 21
273.0523648833409
 31
567.7000200567885
  0
LINE
  5
145
330
1D
100
AcDbEntity
  8
Layer0
100
AcDbLine
 10
415.306740410268
 20
273.9023648897916
 30
567.7000200567885
 11
415.2488143274211
 21
273.4623725114766
 31
567.7000200567885
  0
LINE
  5
146
330
1D
100
AcDbEntity
  8
Layer0
100
AcDbLine
 10
415.2488143024976
 20
274.3423572648252
 30
567.7000200567885
 11
415.306740410268
 21
273.9023648897916
 31
567.7000200567885
  0
LINE
  5
147
330
1D
100
AcDbEntity
  8
Layer0
100
AcDbLine
 10
415.0789835726275
 20
274.7523648833409
 30
567.7000200567885
 11
415.2488143024976
 21
274.3423572648252
 31
567.7000200567885
  0
LINE
  5
148
330
1D
100
AcDbEntity
  8
Layer0
100
AcDbLine
 10
414.8088219042392
 20
275.1044464037063
 30
567.7000200567885
 11
415.0789835726275
 21
274.7523648833409
 31
567.7000200567885
  0
LINE
  5
149
330
1D
100
AcDbEntity
  8
Layer0
100
AcDbLine
 10
414.4567403685685
 20
275.3746080521509
 30
567.7000200567885
 11
414.8088219042392
 21
275.1044464037063
 31
567.7000200567885
  0
LINE
  5
14A
330
1D
100
AcDbEntity
  8
Layer0
100
AcDbLine
 10
414.0467327404327
 20
275.5444387587963
 30
567.7000200567885
 11
414.4567403685685
 21
275.3746080521509
 31
567.7000200567885
  0
LINE
  5
14B
330
1D
100
AcDbEntity
  8
Layer0
100
AcDbLine
 10
413.6067403621196
 20
275.6023648416432
 30
567.7000200567885
 11
414.0467327404327
 21
275.5444387587963
 31
567.7000200567885
  0
LINE
  5
14C
330
1D
100
AcDbEntity
  8
Layer0
100
AcDbLine
 10
398.7488143149692
 20
263.936093023324
 30
567.7000200567883
 11
398.6357378140863
 21
263.6631022013038
 31
567.7000200567883
  0
LINE
  5
14D
330
1D
100
AcDbEntity
  8
Layer0
100
AcDbLine
 10
398.8067404102783
 20
264.3760853999975
 30
567.7000200567883
 11
398.7488143149692
 21
263.936093023324
 31
567.7000200567883
  0
LINE
  5
14E
330
1D
100
AcDbEntity
  8
Layer0
100
AcDbLine
 10
398.7488143149683
 20
264.8160777766726
 30
567.7000200567883
 11
398.8067404102783
 21
264.3760853999975
 31
567.7000200567883
  0
LINE
  5
14F
330
1D
100
AcDbEntity
  8
Layer0
100
AcDbLine
 10
398.57898359671
 20
265.2260853999982
 30
567.7000200567883
 11
398.7488143149683
 21
264.8160777766726
 31
567.7000200567883
  0
LINE
  5
150
330
1D
100
AcDbEntity
  8
Layer0
100
AcDbLine
 10
398.3088219382923
 20
265.5781669280141
 30
567.7000200567883
 11
398.57898359671
 21
265.2260853999982
 31
567.7000200567883
  0
LINE
  5
151
330
1D
100
AcDbEntity
  8
Layer0
100
AcDbLine
 10
397.9567404102767
 20
265.848328586431
 30
567.7000200567883
 11
398.3088219382923
 21
265.5781669280141
 31
567.7000200567883
  0
LINE
  5
152
330
1D
100
AcDbEntity
  8
Layer0
100
AcDbLine
 10
397.5467327869508
 20
266.0181593046875
 30
567.7000200567883
 11
397.9567404102767
 21
265.848328586431
 31
567.7000200567883
  0
LINE
  5
153
330
1D
100
AcDbEntity
  8
Layer0
100
AcDbLine
 10
397.1067404102755
 20
266.0760853999966
 30
567.7000200567883
 11
397.5467327869508
 21
266.0181593046875
 31
567.7000200567883
  0
LINE
  5
154
330
1D
100
AcDbEntity
  8
Layer0
100
AcDbLine
 10
396.6667480336022
 20
266.0181593046866
 30
567.7000200567883
 11
397.1067404102755
 21
266.0760853999966
 31
567.7000200567883
  0
LINE
  5
155
330
1D
100
AcDbEntity
  8
Layer0
100
AcDbLine
 10
396.2567404102767
 20
265.8483285864292
 30
567.7000200567883
 11
396.6667480336022
 21
266.0181593046866
 31
567.7000200567883
  0
LINE
  5
156
330
1D
100
AcDbEntity
  8
Layer0
100
AcDbLine
 10
395.904658882258
 20
265.5781669280125
 30
567.7000200567883
 11
396.2567404102767
 21
265.8483285864292
 31
567.7000200567883
  0
LINE
  5
157
330
1D
100
AcDbEntity
  8
Layer0
100
AcDbLine
 10
395.6344972238429
 20
265.226085399995
 30
567.7000200567883
 11
395.904658882258
 21
265.5781669280125
 31
567.7000200567883
  0
LINE
  5
158
330
1D
100
AcDbEntity
  8
Layer0
100
AcDbLine
 10
395.4646665055854
 20
264.8160777766691
 30
567.7000200567883
 11
395.6344972238429
 21
265.226085399995
 31
567.7000200567883
  0
LINE
  5
159
330
1D
100
AcDbEntity
  8
Layer0
100
AcDbLine
 10
395.4067404102782
 20
264.3760853999938
 30
567.7000200567883
 11
395.4646665055854
 21
264.8160777766691
 31
567.7000200567883
  0
LINE
  5
15A
330
1D
100
AcDbEntity
  8
Layer0
100
AcDbLine
 10
395.4646665055864
 20
263.9360930233206
 30
567.7000200567883
 11
395.4067404102782
 21
264.3760853999938
 31
567.7000200567883
  0
LINE
  5
15B
330
1D
100
AcDbEntity
  8
Layer0
100
AcDbLine
 10
395.6344972238456
 20
263.526085399995
 30
567.7000200567883
 11
395.4646665055864
 21
263.9360930233206
 31
567.7000200567883
  0
LINE
  5
15C
330
1D
100
AcDbEntity
  8
Layer0
100
AcDbLine
 10
395.9046588822615
 20
263.1740038719782
 30
567.7000200567883
 11
395.6344972238456
 21
263.526085399995
 31
567.7000200567883
  0
LINE
  5
15D
330
1D
100
AcDbEntity
  8
Layer0
100
AcDbLine
 10
396.2567404102797
 20
262.9038422135621
 30
567.7000200567883
 11
395.9046588822615
 21
263.1740038719782
 31
567.7000200567883
  0
LINE
  5
15E
330
1D
100
AcDbEntity
  8
Layer0
100
AcDbLine
 10
396.6667480336057
 20
262.7340114953037
 30
567.7000200567883
 11
396.2567404102797
 21
262.9038422135621
 31
567.7000200567883
  0
LINE
  5
15F
330
1D
100
AcDbEntity
  8
Layer0
100
AcDbLine
 10
397.1067404102791
 20
262.6760853999966
 30
567.7000200567883
 11
396.6667480336057
 21
262.7340114953037
 31
567.7000200567883
  0
LINE
  5
160
330
1D
100
AcDbEntity
  8
Layer0
100
AcDbLine
 10
397.5467327869542
 20
262.7340114953047
 30
567.7000200567883
 11
397.1067404102791
 21
262.6760853999966
 31
567.7000200567883
  0
LINE
  5
161
330
1D
100
AcDbEntity
  8
Layer0
100
AcDbLine
 10
397.9567404102798
 20
262.903842213564
 30
567.7000200567883
 11
397.5467327869542
 21
262.7340114953047
 31
567.7000200567883
  0
LINE
  5
162
330
1D
100
AcDbEntity
  8
Layer0
100
AcDbLine
 10
398.3088219382957
 20
263.1740038719798
 30
567.7000200567883
 11
397.9567404102798
 21
262.903842213564
 31
567.7000200567883
  0
LINE
  5
163
330
1D
100
AcDbEntity
  8
Layer0
100
AcDbLine
 10
398.5789835967127
 20
263.5260853999981
 30
567.7000200567883
 11
398.3088219382957
 21
263.1740038719798
 31
567.7000200567883
  0
LINE
  5
164
330
1D
100
AcDbEntity
  8
Layer0
100
AcDbLine
 10
398.6357378140863
 20
263.6631022013038
 30
567.7000200567883
 11
398.5789835967127
 21
263.5260853999981
 31
567.7000200567883
  0
LINE
  5
165
330
1D
100
AcDbEntity
  8
Layer0
100
AcDbLine
 10
395.2455244780958
 20
278.1523648416235
 30
567.7000200567882
 11
394.3963708868077
 21
276.1023267249931
 31
567.7000200567882
  0
LINE
  5
166
330
1D
100
AcDbEntity
  8
Layer0
100
AcDbLine
 10
394.3963708868077
 20
276.1023267249931
 30
567.7000200567882
 11
394.1067404102681
 21
273.9023648416214
 31
567.7000200567882
  0
LINE
  5
167
330
1D
100
AcDbEntity
  8
Layer0
100
AcDbLine
 10
394.1067404102681
 20
273.9023648416214
 30
567.7000200567882
 11
394.3963708868124
 21
271.7024029582503
 31
567.7000200567882
  0
LINE
  5
168
330
1D
100
AcDbEntity
  8
Layer0
100
AcDbLine
 10
394.3963708868124
 20
271.7024029582503
 30
567.7000200567882
 11
395.245524478104
 21
269.6523648416235
 31
567.7000200567882
  0
LINE
  5
169
330
1D
100
AcDbEntity
  8
Layer0
100
AcDbLine
 10
395.245524478104
 20
269.6523648416235
 30
567.7000200567882
 11
396.596332770187
 21
267.8919572015393
 31
567.7000200567882
  0
LINE
  5
16A
330
1D
100
AcDbEntity
  8
Layer0
100
AcDbLine
 10
396.596332770187
 20
267.8919572015393
 30
567.7000200567882
 11
398.3567404102751
 21
266.5411489094591
 31
567.7000200567882
  0
LINE
  5
16B
330
1D
100
AcDbEntity
  8
Layer0
100
AcDbLine
 10
398.3567404102751
 20
266.5411489094591
 30
567.7000200567882
 11
400.4067785269045
 21
265.6919953181711
 31
567.7000200567882
  0
LINE
  5
16C
330
1D
100
AcDbEntity
  8
Layer0
100
AcDbLine
 10
400.4067785269045
 20
265.6919953181711
 30
567.7000200567882
 11
402.6067404102762
 21
265.4023648416314
 31
567.7000200567882
  0
LINE
  5
16D
330
1D
100
AcDbEntity
  8
Layer0
100
AcDbLine
 10
402.6067404102762
 20
265.4023648416314
 30
567.7000200567882
 11
404.8067022936473
 21
265.6919953181767
 31
567.7000200567882
  0
LINE
  5
16E
330
1D
100
AcDbEntity
  8
Layer0
100
AcDbLine
 10
404.8067022936473
 20
265.6919953181767
 30
567.7000200567882
 11
406.8567404102758
 21
266.5411489094682
 31
567.7000200567882
  0
LINE
  5
16F
330
1D
100
AcDbEntity
  8
Layer0
100
AcDbLine
 10
406.8567404102758
 20
266.5411489094682
 30
567.7000200567882
 11
408.6171480503583
 21
267.8919572015521
 31
567.7000200567882
  0
LINE
  5
170
330
1D
100
AcDbEntity
  8
Layer0
100
AcDbLine
 10
408.6171480503583
 20
267.8919572015521
 30
567.7000200567882
 11
409.9679563424403
 21
269.6523648416393
 31
567.7000200567882
  0
LINE
  5
171
330
1D
100
AcDbEntity
  8
Layer0
100
AcDbLine
 10
409.9679563424403
 20
269.6523648416393
 30
567.7000200567882
 11
410.8171099337274
 21
271.7024029582687
 31
567.7000200567882
  0
LINE
  5
172
330
1D
100
AcDbEntity
  8
Layer0
100
AcDbLine
 10
410.8171099337274
 20
271.7024029582687
 30
567.7000200567882
 11
411.106740410268
 21
273.9023648416405
 31
567.7000200567882
  0
LINE
  5
173
330
1D
100
AcDbEntity
  8
Layer0
100
AcDbLine
 10
411.106740410268
 20
273.9023648416405
 30
567.7000200567882
 11
410.8171099337226
 21
276.1023267250116
 31
567.7000200567882
  0
LINE
  5
174
330
1D
100
AcDbEntity
  8
Layer0
100
AcDbLine
 10
410.8171099337226
 20
276.1023267250116
 30
567.7000200567882
 11
409.9679563424294
 21
278.1523648416392
 31
567.7000200567882
  0
LINE
  5
175
330
1D
100
AcDbEntity
  8
Layer0
100
AcDbLine
 10
409.9679563424294
 20
278.1523648416392
 30
567.7000200567882
 11
408.6171480503454
 21
279.9127724817234
 31
567.7000200567882
  0
LINE
  5
176
330
1D
100
AcDbEntity
  8
Layer0
100
AcDbLine
 10
408.6171480503454
 20
279.9127724817234
 30
567.7000200567882
 11
406.8567404102583
 21
281.2635807738036
 31
567.7000200567882
  0
LINE
  5
177
330
1D
100
AcDbEntity
  8
Layer0
100
AcDbLine
 10
406.8567404102583
 20
281.2635807738036
 30
567.7000200567882
 11
404.8067022936298
 21
282.1127343650908
 31
567.7000200567882
  0
LINE
  5
178
330
1D
100
AcDbEntity
  8
Layer0
100
AcDbLine
 10
404.8067022936298
 20
282.1127343650908
 30
567.7000200567882
 11
402.6067404102589
 21
282.4023648416313
 31
567.7000200567882
  0
LINE
  5
179
330
1D
100
AcDbEntity
  8
Layer0
100
AcDbLine
 10
402.6067404102589
 20
282.4023648416313
 30
567.7000200567882
 11
400.4067785268869
 21
282.1127343650851
 31
567.7000200567882
  0
LINE
  5
17A
330
1D
100
AcDbEntity
  8
Layer0
100
AcDbLine
 10
400.4067785268869
 20
282.1127343650851
 30
567.7000200567882
 11
398.3567404102602
 21
281.2635807737945
 31
567.7000200567882
  0
LINE
  5
17B
330
1D
100
AcDbEntity
  8
Layer0
100
AcDbLine
 10
398.3567404102602
 20
281.2635807737945
 30
567.7000200567882
 11
396.5963327701759
 21
279.9127724817105
 31
567.7000200567882
  0
LINE
  5
17C
330
1D
100
AcDbEntity
  8
Layer0
100
AcDbLine
 10
396.5963327701759
 20
279.9127724817105
 30
567.7000200567882
 11
395.2455244780958
 21
278.1523648416235
 31
567.7000200567882
  0
LINE
  5
17E
330
1D
100
AcDbEntity
  8
Layer0
100
AcDbLine
 10
296.0612590881826
 20
294.3164748912357
 30
567.7000200567884
 11
296.2210997641904
 21
294.702364419071
 31
567.7000200567884
  0
LINE
  5
17F
330
1D
100
AcDbEntity
  8
Layer0
100
AcDbLine
 10
296.0067404102463
 20
293.9023644190708
 30
567.7000200567884
 11
296.0612590881826
 21
294.3164748912357
 31
567.7000200567884
  0
LINE
  5
180
330
1D
100
AcDbEntity
  8
Layer0
100
AcDbLine
 10
296.0612590881835
 20
293.4882539469076
 30
567.7000200567884
 11
296.0067404102463
 21
293.9023644190708
 31
567.7000200567884
  0
LINE
  5
181
330
1D
100
AcDbEntity
  8
Layer0
100
AcDbLine
 10
296.2210997641921
 20
293.102364419071
 30
567.7000200567884
 11
296.0612590881835
 21
293.4882539469076
 31
567.7000200567884
  0
LINE
  5
182
330
1D
100
AcDbEntity
  8
Layer0
100
AcDbLine
 10
296.4753695603483
 20
292.7709935691736
 30
567.7000200567884
 11
296.2210997641921
 21
293.102364419071
 31
567.7000200567884
  0
LINE
  5
183
330
1D
100
AcDbEntity
  8
Layer0
100
AcDbLine
 10
296.8067404102478
 20
292.5167237730166
 30
567.7000200567884
 11
296.4753695603483
 21
292.7709935691736
 31
567.7000200567884
  0
LINE
  5
184
330
1D
100
AcDbEntity
  8
Layer0
100
AcDbLine
 10
297.1926299380832
 20
292.3568830970104
 30
567.7000200567884
 11
296.8067404102478
 21
292.5167237730166
 31
567.7000200567884
  0
LINE
  5
185
330
1D
100
AcDbEntity
  8
Layer0
100
AcDbLine
 10
297.6067404102481
 20
292.3023644190725
 30
567.7000200567884
 11
297.1926299380832
 21
292.3568830970104
 31
567.7000200567884
  0
LINE
  5
186
330
1D
100
AcDbEntity
  8
Layer0
100
AcDbLine
 10
298.0208508824113
 20
292.3568830970104
 30
567.7000200567884
 11
297.6067404102481
 21
292.3023644190725
 31
567.7000200567884
  0
LINE
  5
187
330
1D
100
AcDbEntity
  8
Layer0
100
AcDbLine
 10
298.4067404102478
 20
292.5167237730191
 30
567.7000200567884
 11
298.0208508824113
 21
292.3568830970104
 31
567.7000200567884
  0
LINE
  5
188
330
1D
100
AcDbEntity
  8
Layer0
100
AcDbLine
 10
298.7381112601453
 20
292.7709935691753
 30
567.7000200567884
 11
298.4067404102478
 21
292.5167237730191
 31
567.7000200567884
  0
LINE
  5
189
330
1D
100
AcDbEntity
  8
Layer0
100
AcDbLine
 10
298.9923810563023
 20
293.102364419074
 30
567.7000200567884
 11
298.7381112601453
 21
292.7709935691753
 31
567.7000200567884
  0
LINE
  5
18A
330
1D
100
AcDbEntity
  8
Layer0
100
AcDbLine
 10
299.1522217323085
 20
293.4882539469102
 30
567.7000200567884
 11
298.9923810563023
 21
293.102364419074
 31
567.7000200567884
  0
LINE
  5
18B
330
1D
100
AcDbEntity
  8
Layer0
100
AcDbLine
 10
299.2067404102464
 20
293.902364419075
 30
567.7000200567884
 11
299.1522217323085
 21
293.4882539469102
 31
567.7000200567884
  0
LINE
  5
18C
330
1D
100
AcDbEntity
  8
Layer0
100
AcDbLine
 10
299.1522217323077
 20
294.3164748912382
 30
567.7000200567884
 11
299.2067404102464
 21
293.902364419075
 31
567.7000200567884
  0
LINE
  5
18D
330
1D
100
AcDbEntity
  8
Layer0
100
AcDbLine
 10
298.9923810563006
 20
294.702364419074
 30
567.7000200567884
 11
299.1522217323077
 21
294.3164748912382
 31
567.7000200567884
  0
LINE
  5
18E
330
1D
100
AcDbEntity
  8
Layer0
100
AcDbLine
 10
298.7381112601436
 20
295.0337352689722
 30
567.7000200567884
 11
298.9923810563006
 21
294.702364419074
 31
567.7000200567884
  0
LINE
  5
18F
330
1D
100
AcDbEntity
  8
Layer0
100
AcDbLine
 10
298.4067404102449
 20
295.2880050651293
 30
567.7000200567884
 11
298.7381112601436
 21
295.0337352689722
 31
567.7000200567884
  0
LINE
  5
190
330
1D
100
AcDbEntity
  8
Layer0
100
AcDbLine
 10
298.020850882408
 20
295.4478457411354
 30
567.7000200567884
 11
298.4067404102449
 21
295.2880050651293
 31
567.7000200567884
  0
LINE
  5
191
330
1D
100
AcDbEntity
  8
Layer0
100
AcDbLine
 10
297.6067404102438
 20
295.5023644190725
 30
567.7000200567884
 11
298.020850882408
 21
295.4478457411354
 31
567.7000200567884
  0
LINE
  5
192
330
1D
100
AcDbEntity
  8
Layer0
100
AcDbLine
 10
297.1926299380799
 20
295.4478457411354
 30
567.7000200567884
 11
297.6067404102438
 21
295.5023644190725
 31
567.7000200567884
  0
LINE
  5
193
330
1D
100
AcDbEntity
  8
Layer0
100
AcDbLine
 10
296.8067404102449
 20
295.2880050651268
 30
567.7000200567884
 11
297.1926299380799
 21
295.4478457411354
 31
567.7000200567884
  0
LINE
  5
194
330
1D
100
AcDbEntity
  8
Layer0
100
AcDbLine
 10
296.4753695603467
 20
295.0337352689705
 30
567.7000200567884
 11
296.8067404102449
 21
295.2880050651268
 31
567.7000200567884
  0
LINE
  5
195
330
1D
100
AcDbEntity
  8
Layer0
100
AcDbLine
 10
296.2210997641904
 20
294.702364419071
 30
567.7000200567884
 11
296.4753695603467
 21
295.0337352689705
 31
567.7000200567884
  0
LINE
  5
196
330
1D
100
AcDbEntity
  8
Layer0
100
AcDbLine
 10
314.4067404102446
 20
295.2880050651458
 30
567.7000200567883
 11
314.7381112601434
 21
295.0337352689896
 31
567.7000200567883
  0
LINE
  5
197
330
1D
100
AcDbEntity
  8
Layer0
100
AcDbLine
 10
314.0208508824077
 20
295.4478457411535
 30
567.7000200567883
 11
314.4067404102446
 21
295.2880050651458
 31
567.7000200567883
  0
LINE
  5
198
330
1D
100
AcDbEntity
  8
Layer0
100
AcDbLine
 10
313.6067404102444
 20
295.5023644190896
 30
567.7000200567883
 11
314.0208508824077
 21
295.4478457411535
 31
567.7000200567883
  0
LINE
  5
199
330
1D
100
AcDbEntity
  8
Layer0
100
AcDbLine
 10
313.1926299380796
 20
295.4478457411516
 30
567.7000200567883
 11
313.6067404102444
 21
295.5023644190896
 31
567.7000200567883
  0
LINE
  5
19A
330
1D
100
AcDbEntity
  8
Layer0
100
AcDbLine
 10
312.8067404102446
 20
295.2880050651438
 30
567.7000200567883
 11
313.1926299380796
 21
295.4478457411516
 31
567.7000200567883
  0
LINE
  5
19B
330
1D
100
AcDbEntity
  8
Layer0
100
AcDbLine
 10
312.4753695603465
 20
295.0337352689867
 30
567.7000200567883
 11
312.8067404102446
 21
295.2880050651438
 31
567.7000200567883
  0
LINE
  5
19C
330
1D
100
AcDbEntity
  8
Layer0
100
AcDbLine
 10
312.2210997641902
 20
294.7023644190879
 30
567.7000200567883
 11
312.4753695603465
 21
295.0337352689867
 31
567.7000200567883
  0
LINE
  5
19D
330
1D
100
AcDbEntity
  8
Layer0
100
AcDbLine
 10
312.0612590881818
 20
294.3164748912525
 30
567.7000200567883
 11
312.2210997641902
 21
294.7023644190879
 31
567.7000200567883
  0
LINE
  5
19E
330
1D
100
AcDbEntity
  8
Layer0
100
AcDbLine
 10
312.0067404102463
 20
293.9023644190876
 30
567.7000200567883
 11
312.0612590881818
 21
294.3164748912525
 31
567.7000200567883
  0
LINE
  5
19F
330
1D
100
AcDbEntity
  8
Layer0
100
AcDbLine
 10
312.0612590881844
 20
293.4882539469244
 30
567.7000200567883
 11
312.0067404102463
 21
293.9023644190876
 31
567.7000200567883
  0
LINE
  5
1A0
330
1D
100
AcDbEntity
  8
Layer0
100
AcDbLine
 10
312.2210997641923
 20
293.1023644190879
 30
567.7000200567883
 11
312.0612590881844
 21
293.4882539469244
 31
567.7000200567883
  0
LINE
  5
1A1
330
1D
100
AcDbEntity
  8
Layer0
100
AcDbLine
 10
312.4753695603493
 20
292.7709935691897
 30
567.7000200567883
 11
312.2210997641923
 21
293.1023644190879
 31
567.7000200567883
  0
LINE
  5
1A2
330
1D
100
AcDbEntity
  8
Layer0
100
AcDbLine
 10
312.8067404102481
 20
292.5167237730336
 30
567.7000200567883
 11
312.4753695603493
 21
292.7709935691897
 31
567.7000200567883
  0
LINE
  5
1A3
330
1D
100
AcDbEntity
  8
Layer0
100
AcDbLine
 10
313.1926299380842
 20
292.3568830970266
 30
567.7000200567883
 11
312.8067404102481
 21
292.5167237730336
 31
567.7000200567883
  0
LINE
  5
1A4
330
1D
100
AcDbEntity
  8
Layer0
100
AcDbLine
 10
313.6067404102484
 20
292.3023644190897
 30
567.7000200567883
 11
313.1926299380842
 21
292.3568830970266
 31
567.7000200567883
  0
LINE
  5
1A5
330
1D
100
AcDbEntity
  8
Layer0
100
AcDbLine
 10
314.0208508824123
 20
292.3568830970285
 30
567.7000200567883
 11
313.6067404102484
 21
292.3023644190897
 31
567.7000200567883
  0
LINE
  5
1A6
330
1D
100
AcDbEntity
  8
Layer0
100
AcDbLine
 10
314.4067404102481
 20
292.5167237730356
 30
567.7000200567883
 11
314.0208508824123
 21
292.3568830970285
 31
567.7000200567883
  0
LINE
  5
1A7
330
1D
100
AcDbEntity
  8
Layer0
100
AcDbLine
 10
314.7381112601463
 20
292.7709935691926
 30
567.7000200567883
 11
314.4067404102481
 21
292.5167237730356
 31
567.7000200567883
  0
LINE
  5
1A8
330
1D
100
AcDbEntity
  8
Layer0
100
AcDbLine
 10
314.9923810563025
 20
293.1023644190914
 30
567.7000200567883
 11
314.7381112601463
 21
292.7709935691926
 31
567.7000200567883
  0
LINE
  5
1A9
330
1D
100
AcDbEntity
  8
Layer0
100
AcDbLine
 10
315.1522217323093
 20
293.4882539469284
 30
567.7000200567883
 11
314.9923810563025
 21
293.1023644190914
 31
567.7000200567883
  0
LINE
  5
1AA
330
1D
100
AcDbEntity
  8
Layer0
100
AcDbLine
 10
315.2067404102463
 20
293.9023644190917
 30
567.7000200567883
 11
315.1522217323093
 21
293.4882539469284
 31
567.7000200567883
  0
LINE
  5
1AB
330
1D
100
AcDbEntity
  8
Layer0
100
AcDbLine
 10
315.1522217323068
 20
294.3164748912564
 30
567.7000200567883
 11
315.2067404102463
 21
293.9023644190917
 31
567.7000200567883
  0
LINE
  5
1AC
330
1D
100
AcDbEntity
  8
Layer0
100
AcDbLine
 10
314.9923810563005
 20
294.7023644190915
 30
567.7000200567883
 11
315.1522217323068
 21
294.3164748912564
 31
567.7000200567883
  0
LINE
  5
1AD
330
1D
100
AcDbEntity
  8
Layer0
100
AcDbLine
 10
314.7381112601434
 20
295.0337352689896
 30
567.7000200567883
 11
314.9923810563005
 21
294.7023644190915
 31
567.7000200567883
  0
LINE
  5
1AE
330
1D
100
AcDbEntity
  8
Layer0
100
AcDbLine
 10
297.2317404100054
 20
516.9368199624516
 30
567.7000200567883
 11
296.8693035429287
 21
517.2149275519967
 31
567.7000200567883
  0
LINE
  5
1AF
330
1D
100
AcDbEntity
  8
Layer0
100
AcDbLine
 10
297.6538070810762
 20
516.761994223069
 30
567.7000200567883
 11
297.2317404100054
 21
516.9368199624516
 31
567.7000200567883
  0
LINE
  5
1B0
330
1D
100
AcDbEntity
  8
Layer0
100
AcDbLine
 10
298.1067404100057
 20
516.7023644190745
 30
567.7000200567883
 11
297.6538070810762
 21
516.761994223069
 31
567.7000200567883
  0
LINE
  5
1B1
330
1D
100
AcDbEntity
  8
Layer0
100
AcDbLine
 10
298.559673738935
 20
516.7619942230699
 30
567.7000200567883
 11
298.1067404100057
 21
516.7023644190745
 31
567.7000200567883
  0
LINE
  5
1B2
330
1D
100
AcDbEntity
  8
Layer0
100
AcDbLine
 10
298.9817404100054
 20
516.9368199624535
 30
567.7000200567883
 11
298.559673738935
 21
516.7619942230699
 31
567.7000200567883
  0
LINE
  5
1B3
330
1D
100
AcDbEntity
  8
Layer0
100
AcDbLine
 10
299.3441772770816
 20
517.2149275519992
 30
567.7000200567883
 11
298.9817404100054
 21
516.9368199624535
 31
567.7000200567883
  0
LINE
  5
1B4
330
1D
100
AcDbEntity
  8
Layer0
100
AcDbLine
 10
299.622284866628
 20
517.5773644190759
 30
567.7000200567883
 11
299.3441772770816
 21
517.2149275519992
 31
567.7000200567883
  0
LINE
  5
1B5
330
1D
100
AcDbEntity
  8
Layer0
100
AcDbLine
 10
299.7971106060102
 20
517.9994310901468
 30
567.7000200567883
 11
299.622284866628
 21
517.5773644190759
 31
567.7000200567883
  0
LINE
  5
1B6
330
1D
100
AcDbEntity
  8
Layer0
100
AcDbLine
 10
299.8567404100039
 20
518.4523644190763
 30
567.7000200567883
 11
299.7971106060102
 21
517.9994310901468
 31
567.7000200567883
  0
LINE
  5
1B7
330
1D
100
AcDbEntity
  8
Layer0
100
AcDbLine
 10
299.7971106060093
 20
518.9052977480056
 30
567.7000200567883
 11
299.8567404100039
 21
518.4523644190763
 31
567.7000200567883
  0
LINE
  5
1B8
330
1D
100
AcDbEntity
  8
Layer0
100
AcDbLine
 10
299.6222848666257
 20
519.327364419076
 30
567.7000200567883
 11
299.7971106060093
 21
518.9052977480056
 31
567.7000200567883
  0
LINE
  5
1B9
330
1D
100
AcDbEntity
  8
Layer0
100
AcDbLine
 10
299.344177277079
 20
519.6898012861521
 30
567.7000200567883
 11
299.6222848666257
 21
519.327364419076
 31
567.7000200567883
  0
LINE
  5
1BA
330
1D
100
AcDbEntity
  8
Layer0
100
AcDbLine
 10
298.9817404100023
 20
519.967908875699
 30
567.7000200567883
 11
299.344177277079
 21
519.6898012861521
 31
567.7000200567883
  0
LINE
  5
1BB
330
1D
100
AcDbEntity
  8
Layer0
100
AcDbLine
 10
298.5596737389315
 20
520.1427346150816
 30
567.7000200567883
 11
298.9817404100023
 21
519.967908875699
 31
567.7000200567883
  0
LINE
  5
1BC
330
1D
100
AcDbEntity
  8
Layer0
100
AcDbLine
 10
298.106740410002
 20
520.2023644190743
 30
567.7000200567883
 11
298.5596737389315
 21
520.1427346150816
 31
567.7000200567883
  0
LINE
  5
1BD
330
1D
100
AcDbEntity
  8
Layer0
100
AcDbLine
 10
297.6538070810727
 20
520.1427346150807
 30
567.7000200567883
 11
298.106740410002
 21
520.2023644190743
 31
567.7000200567883
  0
LINE
  5
1BE
330
1D
100
AcDbEntity
  8
Layer0
100
AcDbLine
 10
297.2317404100023
 20
519.9679088756972
 30
567.7000200567883
 11
297.6538070810727
 21
520.1427346150807
 31
567.7000200567883
  0
LINE
  5
1BF
330
1D
100
AcDbEntity
  8
Layer0
100
AcDbLine
 10
296.8693035429261
 20
519.6898012861496
 30
567.7000200567883
 11
297.2317404100023
 21
519.9679088756972
 31
567.7000200567883
  0
LINE
  5
1C0
330
1D
100
AcDbEntity
  8
Layer0
100
AcDbLine
 10
296.5911959533802
 20
519.3273644190729
 30
567.7000200567883
 11
296.8693035429261
 21
519.6898012861496
 31
567.7000200567883
  0
LINE
  5
1C1
330
1D
100
AcDbEntity
  8
Layer0
100
AcDbLine
 10
296.4163702139975
 20
518.9052977480021
 30
567.7000200567883
 11
296.5911959533802
 21
519.3273644190729
 31
567.7000200567883
  0
LINE
  5
1C2
330
1D
100
AcDbEntity
  8
Layer0
100
AcDbLine
 10
296.3567404100039
 20
518.4523644190726
 30
567.7000200567883
 11
296.4163702139975
 21
518.9052977480021
 31
567.7000200567883
  0
LINE
  5
1C3
330
1D
100
AcDbEntity
  8
Layer0
100
AcDbLine
 10
296.4163702139984
 20
517.9994310901433
 30
567.7000200567883
 11
296.3567404100039
 21
518.4523644190726
 31
567.7000200567883
  0
LINE
  5
1C4
330
1D
100
AcDbEntity
  8
Layer0
100
AcDbLine
 10
296.5911959533825
 20
517.5773644190729
 30
567.7000200567883
 11
296.4163702139984
 21
517.9994310901433
 31
567.7000200567883
  0
LINE
  5
1C5
330
1D
100
AcDbEntity
  8
Layer0
100
AcDbLine
 10
296.8693035429287
 20
517.2149275519967
 30
567.7000200567883
 11
296.5911959533825
 21
517.5773644190729
 31
567.7000200567883
  0
LINE
  5
1C6
330
1D
100
AcDbEntity
  8
Layer0
100
AcDbLine
 10
506.653807081072
 20
520.1427346153029
 30
567.7000200567882
 11
507.1067404100023
 21
520.2023644192983
 31
567.7000200567882
  0
LINE
  5
1C7
330
1D
100
AcDbEntity
  8
Layer0
100
AcDbLine
 10
506.2317404100016
 20
519.9679088759193
 30
567.7000200567882
 11
506.653807081072
 21
520.1427346153029
 31
567.7000200567882
  0
LINE
  5
1C8
330
1D
100
AcDbEntity
  8
Layer0
100
AcDbLine
 10
505.8693035429264
 20
519.6898012863735
 30
567.7000200567882
 11
506.2317404100016
 21
519.9679088759193
 31
567.7000200567882
  0
LINE
  5
1C9
330
1D
100
AcDbEntity
  8
Layer0
100
AcDbLine
 10
505.5911959533805
 20
519.3273644192967
 30
567.7000200567882
 11
505.8693035429264
 21
519.6898012863735
 31
567.7000200567882
  0
LINE
  5
1CA
330
1D
100
AcDbEntity
  8
Layer0
100
AcDbLine
 10
505.4163702139978
 20
518.905297748225
 30
567.7000200567882
 11
505.5911959533805
 21
519.3273644192967
 31
567.7000200567882
  0
LINE
  5
1CB
330
1D
100
AcDbEntity
  8
Layer0
100
AcDbLine
 10
505.3567404100033
 20
518.4523644192965
 30
567.7000200567882
 11
505.4163702139978
 21
518.905297748225
 31
567.7000200567882
  0
LINE
  5
1CC
330
1D
100
AcDbEntity
  8
Layer0
100
AcDbLine
 10
505.4163702139988
 20
517.9994310903663
 30
567.7000200567882
 11
505.3567404100033
 21
518.4523644192965
 31
567.7000200567882
  0
LINE
  5
1CD
330
1D
100
AcDbEntity
  8
Layer0
100
AcDbLine
 10
505.5911959533824
 20
517.5773644192968
 30
567.7000200567882
 11
505.4163702139988
 21
517.9994310903663
 31
567.7000200567882
  0
LINE
  5
1CE
330
1D
100
AcDbEntity
  8
Layer0
100
AcDbLine
 10
505.8693035429282
 20
517.2149275522206
 30
567.7000200567882
 11
505.5911959533824
 21
517.5773644192968
 31
567.7000200567882
  0
LINE
  5
1CF
330
1D
100
AcDbEntity
  8
Layer0
100
AcDbLine
 10
506.2317404100049
 20
516.9368199626738
 30
567.7000200567882
 11
505.8693035429282
 21
517.2149275522206
 31
567.7000200567882
  0
LINE
  5
1D0
330
1D
100
AcDbEntity
  8
Layer0
100
AcDbLine
 10
506.6538070810757
 20
516.7619942232911
 30
567.7000200567882
 11
506.2317404100049
 21
516.9368199626738
 31
567.7000200567882
  0
LINE
  5
1D1
330
1D
100
AcDbEntity
  8
Layer0
100
AcDbLine
 10
507.1067404100052
 20
516.7023644192984
 30
567.7000200567882
 11
506.6538070810757
 21
516.7619942232911
 31
567.7000200567882
  0
LINE
  5
1D2
330
1D
100
AcDbEntity
  8
Layer0
100
AcDbLine
 10
507.5596737389345
 20
516.7619942232922
 30
567.7000200567882
 11
507.1067404100052
 21
516.7023644192984
 31
567.7000200567882
  0
LINE
  5
1D3
330
1D
100
AcDbEntity
  8
Layer0
100
AcDbLine
 10
507.9817404100049
 20
516.9368199626757
 30
567.7000200567882
 11
507.5596737389345
 21
516.7619942232922
 31
567.7000200567882
  0
LINE
  5
1D4
330
1D
100
AcDbEntity
  8
Layer0
100
AcDbLine
 10
508.344177277081
 20
517.2149275522224
 30
567.7000200567882
 11
507.9817404100049
 21
516.9368199626757
 31
567.7000200567882
  0
LINE
  5
1D5
330
1D
100
AcDbEntity
  8
Layer0
100
AcDbLine
 10
508.6222848666278
 20
517.5773644193
 30
567.7000200567882
 11
508.344177277081
 21
517.2149275522224
 31
567.7000200567882
  0
LINE
  5
1D6
330
1D
100
AcDbEntity
  8
Layer0
100
AcDbLine
 10
508.7971106060105
 20
517.9994310903708
 30
567.7000200567882
 11
508.6222848666278
 21
517.5773644193
 31
567.7000200567882
  0
LINE
  5
1D7
330
1D
100
AcDbEntity
  8
Layer0
100
AcDbLine
 10
508.8567404100032
 20
518.4523644192994
 30
567.7000200567882
 11
508.7971106060105
 21
517.9994310903708
 31
567.7000200567882
  0
LINE
  5
1D8
330
1D
100
AcDbEntity
  8
Layer0
100
AcDbLine
 10
508.7971106060095
 20
518.9052977482296
 30
567.7000200567882
 11
508.8567404100032
 21
518.4523644192994
 31
567.7000200567882
  0
LINE
  5
1D9
330
1D
100
AcDbEntity
  8
Layer0
100
AcDbLine
 10
508.6222848666259
 20
519.3273644193
 30
567.7000200567882
 11
508.7971106060095
 21
518.9052977482296
 31
567.7000200567882
  0
LINE
  5
1DA
330
1D
100
AcDbEntity
  8
Layer0
100
AcDbLine
 10
508.3441772770792
 20
519.6898012863752
 30
567.7000200567882
 11
508.6222848666259
 21
519.3273644193
 31
567.7000200567882
  0
LINE
  5
1DB
330
1D
100
AcDbEntity
  8
Layer0
100
AcDbLine
 10
507.9817404100016
 20
519.9679088759211
 30
567.7000200567882
 11
508.3441772770792
 21
519.6898012863752
 31
567.7000200567882
  0
LINE
  5
1DC
330
1D
100
AcDbEntity
  8
Layer0
100
AcDbLine
 10
507.5596737389308
 20
520.1427346153039
 30
567.7000200567882
 11
507.9817404100016
 21
519.9679088759211
 31
567.7000200567882
  0
LINE
  5
1DD
330
1D
100
AcDbEntity
  8
Layer0
100
AcDbLine
 10
507.1067404100023
 20
520.2023644192983
 30
567.7000200567882
 11
507.5596737389308
 21
520.1427346153039
 31
567.7000200567882
  0
LINE
  5
1DE
330
1D
100
AcDbEntity
  8
Layer0
100
AcDbLine
 10
506.2317404102302
 20
307.9368199626739
 30
567.7000200567884
 11
505.8693035431525
 21
308.2149275522203
 31
567.7000200567884
  0
LINE
  5
1DF
330
1D
100
AcDbEntity
  8
Layer0
100
AcDbLine
 10
506.653807081301
 20
307.7619942232913
 30
567.7000200567884
 11
506.2317404102302
 21
307.9368199626739
 31
567.7000200567884
  0
LINE
  5
1E0
330
1D
100
AcDbEntity
  8
Layer0
100
AcDbLine
 10
507.1067404102305
 20
307.702364419298
 30
567.7000200567884
 11
506.653807081301
 21
307.7619942232913
 31
567.7000200567884
  0
LINE
  5
1E1
330
1D
100
AcDbEntity
  8
Layer0
100
AcDbLine
 10
507.5596737391598
 20
307.7619942232927
 30
567.7000200567884
 11
507.1067404102305
 21
307.702364419298
 31
567.7000200567884
  0
LINE
  5
1E2
330
1D
100
AcDbEntity
  8
Layer0
100
AcDbLine
 10
507.9817404102302
 20
307.9368199626762
 30
567.7000200567884
 11
507.5596737391598
 21
307.7619942232927
 31
567.7000200567884
  0
LINE
  5
1E3
330
1D
100
AcDbEntity
  8
Layer0
100
AcDbLine
 10
508.3441772773054
 20
308.2149275522229
 30
567.7000200567884
 11
507.9817404102302
 21
307.9368199626762
 31
567.7000200567884
  0
LINE
  5
1E4
330
1D
100
AcDbEntity
  8
Layer0
100
AcDbLine
 10
508.6222848668513
 20
308.5773644192997
 30
567.7000200567884
 11
508.3441772773054
 21
308.2149275522229
 31
567.7000200567884
  0
LINE
  5
1E5
330
1D
100
AcDbEntity
  8
Layer0
100
AcDbLine
 10
508.797110606234
 20
308.9994310903699
 30
567.7000200567884
 11
508.6222848668513
 21
308.5773644192997
 31
567.7000200567884
  0
LINE
  5
1E6
330
1D
100
AcDbEntity
  8
Layer0
100
AcDbLine
 10
508.8567404102286
 20
309.4523644192998
 30
567.7000200567884
 11
508.797110606234
 21
308.9994310903699
 31
567.7000200567884
  0
LINE
  5
1E7
330
1D
100
AcDbEntity
  8
Layer0
100
AcDbLine
 10
508.797110606233
 20
309.9052977482287
 30
567.7000200567884
 11
508.8567404102286
 21
309.4523644192998
 31
567.7000200567884
  0
LINE
  5
1E8
330
1D
100
AcDbEntity
  8
Layer0
100
AcDbLine
 10
508.6222848668494
 20
310.3273644192996
 30
567.7000200567884
 11
508.797110606233
 21
309.9052977482287
 31
567.7000200567884
  0
LINE
  5
1E9
330
1D
100
AcDbEntity
  8
Layer0
100
AcDbLine
 10
508.3441772773037
 20
310.6898012863758
 30
567.7000200567884
 11
508.6222848668494
 21
310.3273644192996
 31
567.7000200567884
  0
LINE
  5
1EA
330
1D
100
AcDbEntity
  8
Layer0
100
AcDbLine
 10
507.9817404102269
 20
310.9679088759217
 30
567.7000200567884
 11
508.3441772773037
 21
310.6898012863758
 31
567.7000200567884
  0
LINE
  5
1EB
330
1D
100
AcDbEntity
  8
Layer0
100
AcDbLine
 10
507.5596737391562
 20
311.1427346153043
 30
567.7000200567884
 11
507.9817404102269
 21
310.9679088759217
 31
567.7000200567884
  0
LINE
  5
1EC
330
1D
100
AcDbEntity
  8
Layer0
100
AcDbLine
 10
507.1067404102267
 20
311.202364419298
 30
567.7000200567884
 11
507.5596737391562
 21
311.1427346153043
 31
567.7000200567884
  0
LINE
  5
1ED
330
1D
100
AcDbEntity
  8
Layer0
100
AcDbLine
 10
506.6538070812974
 20
311.1427346153029
 30
567.7000200567884
 11
507.1067404102267
 21
311.202364419298
 31
567.7000200567884
  0
LINE
  5
1EE
330
1D
100
AcDbEntity
  8
Layer0
100
AcDbLine
 10
506.231740410227
 20
310.9679088759194
 30
567.7000200567884
 11
506.6538070812974
 21
311.1427346153029
 31
567.7000200567884
  0
LINE
  5
1EF
330
1D
100
AcDbEntity
  8
Layer0
100
AcDbLine
 10
505.8693035431508
 20
310.6898012863732
 30
567.7000200567884
 11
506.231740410227
 21
310.9679088759194
 31
567.7000200567884
  0
LINE
  5
1F0
330
1D
100
AcDbEntity
  8
Layer0
100
AcDbLine
 10
505.591195953604
 20
310.3273644192964
 30
567.7000200567884
 11
505.8693035431508
 21
310.6898012863732
 31
567.7000200567884
  0
LINE
  5
1F1
330
1D
100
AcDbEntity
  8
Layer0
100
AcDbLine
 10
505.4163702142213
 20
309.9052977482256
 30
567.7000200567884
 11
505.591195953604
 21
310.3273644192964
 31
567.7000200567884
  0
LINE
  5
1F2
330
1D
100
AcDbEntity
  8
Layer0
100
AcDbLine
 10
505.3567404102286
 20
309.4523644192957
 30
567.7000200567884
 11
505.4163702142213
 21
309.9052977482256
 31
567.7000200567884
  0
LINE
  5
1F3
330
1D
100
AcDbEntity
  8
Layer0
100
AcDbLine
 10
505.4163702142223
 20
308.9994310903668
 30
567.7000200567884
 11
505.3567404102286
 21
309.4523644192957
 31
567.7000200567884
  0
LINE
  5
1F4
330
1D
100
AcDbEntity
  8
Layer0
100
AcDbLine
 10
505.5911959536059
 20
308.5773644192964
 30
567.7000200567884
 11
505.4163702142223
 21
308.9994310903668
 31
567.7000200567884
  0
LINE
  5
1F5
330
1D
100
AcDbEntity
  8
Layer0
100
AcDbLine
 10
505.8693035431525
 20
308.2149275522203
 30
567.7000200567884
 11
505.5911959536059
 21
308.5773644192964
 31
567.7000200567884
  0
LINE
  5
1F6
330
1D
100
AcDbEntity
  8
Layer0
100
AcDbLine
 10
400.9163702142229
 20
308.9994310902548
 30
567.7000200567882
 11
400.8567404102287
 21
309.4523644191846
 31
567.7000200567882
  0
LINE
  5
1F7
330
1D
100
AcDbEntity
  8
Layer0
100
AcDbLine
 10
401.0911959536064
 20
308.5773644191848
 30
567.7000200567882
 11
400.9163702142229
 21
308.9994310902548
 31
567.7000200567882
  0
LINE
  5
1F8
330
1D
100
AcDbEntity
  8
Layer0
100
AcDbLine
 10
401.3693035431531
 20
308.2149275521082
 30
567.7000200567882
 11
401.0911959536064
 21
308.5773644191848
 31
567.7000200567882
  0
LINE
  5
1F9
330
1D
100
AcDbEntity
  8
Layer0
100
AcDbLine
 10
401.7317404102303
 20
307.9368199625627
 30
567.7000200567882
 11
401.3693035431531
 21
308.2149275521082
 31
567.7000200567882
  0
LINE
  5
1FA
330
1D
100
AcDbEntity
  8
Layer0
100
AcDbLine
 10
402.1538070813002
 20
307.7619942231801
 30
567.7000200567882
 11
401.7317404102303
 21
307.9368199625627
 31
567.7000200567882
  0
LINE
  5
1FB
330
1D
100
AcDbEntity
  8
Layer0
100
AcDbLine
 10
402.6067404102301
 20
307.7023644191864
 30
567.7000200567882
 11
402.1538070813002
 21
307.7619942231801
 31
567.7000200567882
  0
LINE
  5
1FC
330
1D
100
AcDbEntity
  8
Layer0
100
AcDbLine
 10
403.059673739159
 20
307.761994223181
 30
567.7000200567882
 11
402.6067404102301
 21
307.7023644191864
 31
567.7000200567882
  0
LINE
  5
1FD
330
1D
100
AcDbEntity
  8
Layer0
100
AcDbLine
 10
403.4817404102303
 20
307.9368199625646
 30
567.7000200567882
 11
403.059673739159
 21
307.761994223181
 31
567.7000200567882
  0
LINE
  5
1FE
330
1D
100
AcDbEntity
  8
Layer0
100
AcDbLine
 10
403.844177277306
 20
308.2149275521113
 30
567.7000200567882
 11
403.4817404102303
 21
307.9368199625646
 31
567.7000200567882
  0
LINE
  5
1FF
330
1D
100
AcDbEntity
  8
Layer0
100
AcDbLine
 10
404.1222848668519
 20
308.577364419188
 30
567.7000200567882
 11
403.844177277306
 21
308.2149275521113
 31
567.7000200567882
  0
LINE
  5
200
330
1D
100
AcDbEntity
  8
Layer0
100
AcDbLine
 10
404.2971106062346
 20
308.9994310902588
 30
567.7000200567882
 11
404.1222848668519
 21
308.577364419188
 31
567.7000200567882
  0
LINE
  5
201
330
1D
100
AcDbEntity
  8
Layer0
100
AcDbLine
 10
404.3567404102287
 20
309.4523644191878
 30
567.7000200567882
 11
404.2971106062346
 21
308.9994310902588
 31
567.7000200567882
  0
LINE
  5
202
330
1D
100
AcDbEntity
  8
Layer0
100
AcDbLine
 10
404.2971106062332
 20
309.9052977481176
 30
567.7000200567882
 11
404.3567404102287
 21
309.4523644191878
 31
567.7000200567882
  0
LINE
  5
203
330
1D
100
AcDbEntity
  8
Layer0
100
AcDbLine
 10
404.1222848668506
 20
310.327364419188
 30
567.7000200567882
 11
404.2971106062332
 21
309.9052977481176
 31
567.7000200567882
  0
LINE
  5
204
330
1D
100
AcDbEntity
  8
Layer0
100
AcDbLine
 10
403.8441772773034
 20
310.6898012862642
 30
567.7000200567882
 11
404.1222848668506
 21
310.327364419188
 31
567.7000200567882
  0
LINE
  5
205
330
1D
100
AcDbEntity
  8
Layer0
100
AcDbLine
 10
403.4817404102271
 20
310.9679088758102
 30
567.7000200567882
 11
403.8441772773034
 21
310.6898012862642
 31
567.7000200567882
  0
LINE
  5
206
330
1D
100
AcDbEntity
  8
Layer0
100
AcDbLine
 10
403.0596737391559
 20
311.1427346151928
 30
567.7000200567882
 11
403.4817404102271
 21
310.9679088758102
 31
567.7000200567882
  0
LINE
  5
207
330
1D
100
AcDbEntity
  8
Layer0
100
AcDbLine
 10
402.6067404102264
 20
311.2023644191864
 30
567.7000200567882
 11
403.0596737391559
 21
311.1427346151928
 31
567.7000200567882
  0
LINE
  5
208
330
1D
100
AcDbEntity
  8
Layer0
100
AcDbLine
 10
402.153807081297
 20
311.1427346151918
 30
567.7000200567882
 11
402.6067404102264
 21
311.2023644191864
 31
567.7000200567882
  0
LINE
  5
209
330
1D
100
AcDbEntity
  8
Layer0
100
AcDbLine
 10
401.7317404102271
 20
310.9679088758083
 30
567.7000200567882
 11
402.153807081297
 21
311.1427346151918
 31
567.7000200567882
  0
LINE
  5
20A
330
1D
100
AcDbEntity
  8
Layer0
100
AcDbLine
 10
401.3693035431505
 20
310.6898012862611
 30
567.7000200567882
 11
401.7317404102271
 21
310.9679088758083
 31
567.7000200567882
  0
LINE
  5
20B
330
1D
100
AcDbEntity
  8
Layer0
100
AcDbLine
 10
401.0911959536049
 20
310.3273644191848
 30
567.7000200567882
 11
401.3693035431505
 21
310.6898012862611
 31
567.7000200567882
  0
LINE
  5
20C
330
1D
100
AcDbEntity
  8
Layer0
100
AcDbLine
 10
400.9163702142214
 20
309.9052977481136
 30
567.7000200567882
 11
401.0911959536049
 21
310.3273644191848
 31
567.7000200567882
  0
LINE
  5
20D
330
1D
100
AcDbEntity
  8
Layer0
100
AcDbLine
 10
400.8567404102287
 20
309.4523644191846
 30
567.7000200567882
 11
400.9163702142214
 21
309.9052977481136
 31
567.7000200567882
  0
LINE
  5
20E
330
1D
100
AcDbEntity
  8
Layer0
100
AcDbLine
 10
299.6222848668521
 20
308.577364419076
 30
567.7000200567883
 11
299.3441772773061
 21
308.2149275519997
 31
567.7000200567883
  0
LINE
  5
20F
330
1D
100
AcDbEntity
  8
Layer0
100
AcDbLine
 10
299.7971106062347
 20
308.9994310901473
 30
567.7000200567883
 11
299.6222848668521
 21
308.577364419076
 31
567.7000200567883
  0
LINE
  5
210
330
1D
100
AcDbEntity
  8
Layer0
100
AcDbLine
 10
299.8567404102283
 20
309.4523644190767
 30
567.7000200567883
 11
299.7971106062347
 21
308.9994310901473
 31
567.7000200567883
  0
LINE
  5
211
330
1D
100
AcDbEntity
  8
Layer0
100
AcDbLine
 10
299.7971106062337
 20
309.9052977480061
 30
567.7000200567883
 11
299.8567404102283
 21
309.4523644190767
 31
567.7000200567883
  0
LINE
  5
212
330
1D
100
AcDbEntity
  8
Layer0
100
AcDbLine
 10
299.6222848668506
 20
310.327364419076
 30
567.7000200567883
 11
299.7971106062337
 21
309.9052977480061
 31
567.7000200567883
  0
LINE
  5
213
330
1D
100
AcDbEntity
  8
Layer0
100
AcDbLine
 10
299.3441772773035
 20
310.6898012861527
 30
567.7000200567883
 11
299.6222848668506
 21
310.327364419076
 31
567.7000200567883
  0
LINE
  5
214
330
1D
100
AcDbEntity
  8
Layer0
100
AcDbLine
 10
298.9817404102267
 20
310.9679088756986
 30
567.7000200567883
 11
299.3441772773035
 21
310.6898012861527
 31
567.7000200567883
  0
LINE
  5
215
330
1D
100
AcDbEntity
  8
Layer0
100
AcDbLine
 10
298.5596737391559
 20
311.1427346150812
 30
567.7000200567883
 11
298.9817404102267
 21
310.9679088756986
 31
567.7000200567883
  0
LINE
  5
216
330
1D
100
AcDbEntity
  8
Layer0
100
AcDbLine
 10
298.1067404102265
 20
311.2023644190744
 30
567.7000200567883
 11
298.5596737391559
 21
311.1427346150812
 31
567.7000200567883
  0
LINE
  5
217
330
1D
100
AcDbEntity
  8
Layer0
100
AcDbLine
 10
297.6538070812971
 20
311.1427346150803
 30
567.7000200567883
 11
298.1067404102265
 21
311.2023644190744
 31
567.7000200567883
  0
LINE
  5
218
330
1D
100
AcDbEntity
  8
Layer0
100
AcDbLine
 10
297.2317404102267
 20
310.9679088756967
 30
567.7000200567883
 11
297.6538070812971
 21
311.1427346150803
 31
567.7000200567883
  0
LINE
  5
219
330
1D
100
AcDbEntity
  8
Layer0
100
AcDbLine
 10
296.8693035431505
 20
310.68980128615
 30
567.7000200567883
 11
297.2317404102267
 21
310.9679088756967
 31
567.7000200567883
  0
LINE
  5
21A
330
1D
100
AcDbEntity
  8
Layer0
100
AcDbLine
 10
296.5911959536051
 20
310.3273644190728
 30
567.7000200567883
 11
296.8693035431505
 21
310.68980128615
 31
567.7000200567883
  0
LINE
  5
21B
330
1D
100
AcDbEntity
  8
Layer0
100
AcDbLine
 10
296.416370214222
 20
309.9052977480025
 30
567.7000200567883
 11
296.5911959536051
 21
310.3273644190728
 31
567.7000200567883
  0
LINE
  5
21C
330
1D
100
AcDbEntity
  8
Layer0
100
AcDbLine
 10
296.3567404102283
 20
309.452364419073
 30
567.7000200567883
 11
296.416370214222
 21
309.9052977480025
 31
567.7000200567883
  0
LINE
  5
21D
330
1D
100
AcDbEntity
  8
Layer0
100
AcDbLine
 10
296.4163702142229
 20
308.9994310901436
 30
567.7000200567883
 11
296.3567404102283
 21
309.452364419073
 31
567.7000200567883
  0
LINE
  5
21E
330
1D
100
AcDbEntity
  8
Layer0
100
AcDbLine
 10
296.5911959536065
 20
308.5773644190728
 30
567.7000200567883
 11
296.4163702142229
 21
308.9994310901436
 31
567.7000200567883
  0
LINE
  5
21F
330
1D
100
AcDbEntity
  8
Layer0
100
AcDbLine
 10
296.8693035431532
 20
308.2149275519971
 30
567.7000200567883
 11
296.5911959536065
 21
308.5773644190728
 31
567.7000200567883
  0
LINE
  5
220
330
1D
100
AcDbEntity
  8
Layer0
100
AcDbLine
 10
297.23174041023
 20
307.9368199624511
 30
567.7000200567883
 11
296.8693035431532
 21
308.2149275519971
 31
567.7000200567883
  0
LINE
  5
221
330
1D
100
AcDbEntity
  8
Layer0
100
AcDbLine
 10
297.6538070813007
 20
307.7619942230685
 30
567.7000200567883
 11
297.23174041023
 21
307.9368199624511
 31
567.7000200567883
  0
LINE
  5
222
330
1D
100
AcDbEntity
  8
Layer0
100
AcDbLine
 10
298.1067404102302
 20
307.7023644190744
 30
567.7000200567883
 11
297.6538070813007
 21
307.7619942230685
 31
567.7000200567883
  0
LINE
  5
223
330
1D
100
AcDbEntity
  8
Layer0
100
AcDbLine
 10
298.5596737391596
 20
307.7619942230695
 30
567.7000200567883
 11
298.1067404102302
 21
307.7023644190744
 31
567.7000200567883
  0
LINE
  5
224
330
1D
100
AcDbEntity
  8
Layer0
100
AcDbLine
 10
298.98174041023
 20
307.936819962453
 30
567.7000200567883
 11
298.5596737391596
 21
307.7619942230695
 31
567.7000200567883
  0
LINE
  5
225
330
1D
100
AcDbEntity
  8
Layer0
100
AcDbLine
 10
299.3441772773061
 20
308.2149275519997
 30
567.7000200567883
 11
298.98174041023
 21
307.936819962453
 31
567.7000200567883
  0
LINE
  5
226
330
1D
100
AcDbEntity
  8
Layer0
100
AcDbLine
 10
473.9793141281546
 20
248.9023650443366
 30
567.7000200567885
 11
479.9793140647769
 21
258.9023651393931
 31
567.7000200567885
  0
LINE
  5
227
330
1D
100
AcDbEntity
  8
Layer0
100
AcDbLine
 10
461.9793140547134
 20
248.9023650443237
 30
567.7000200567885
 11
473.9793141281546
 21
248.9023650443366
 31
567.7000200567885
  0
LINE
  5
228
330
1D
100
AcDbEntity
  8
Layer0
100
AcDbLine
 10
455.9793140547025
 20
258.9023650126338
 30
567.7000200567885
 11
461.9793140547134
 21
248.9023650443237
 31
567.7000200567885
  0
LINE
  5
22A
330
1D
100
AcDbEntity
  8
Layer0
100
AcDbLine
 10
469.7293140791897
 20
252.902365044332
 30
567.7000200567885
 11
469.6696842751958
 21
252.4494317154025
 31
567.7000200567885
  0
LINE
  5
22B
330
1D
100
AcDbEntity
  8
Layer0
100
AcDbLine
 10
469.6696842751948
 20
253.3552983732614
 30
567.7000200567885
 11
469.7293140791897
 21
252.902365044332
 31
567.7000200567885
  0
LINE
  5
22C
330
1D
100
AcDbEntity
  8
Layer0
100
AcDbLine
 10
469.4948585358112
 20
253.7773650443317
 30
567.7000200567885
 11
469.6696842751948
 21
253.3552983732614
 31
567.7000200567885
  0
LINE
  5
22D
330
1D
100
AcDbEntity
  8
Layer0
100
AcDbLine
 10
469.2167509462648
 20
254.1398019114078
 30
567.7000200567885
 11
469.4948585358112
 21
253.7773650443317
 31
567.7000200567885
  0
LINE
  5
22E
330
1D
100
AcDbEntity
  8
Layer0
100
AcDbLine
 10
468.8543140791882
 20
254.4179095009538
 30
567.7000200567885
 11
469.2167509462648
 21
254.1398019114078
 31
567.7000200567885
  0
LINE
  5
22F
330
1D
100
AcDbEntity
  8
Layer0
100
AcDbLine
 10
468.4322474081173
 20
254.5927352403365
 30
567.7000200567885
 11
468.8543140791882
 21
254.4179095009538
 31
567.7000200567885
  0
LINE
  5
230
330
1D
100
AcDbEntity
  8
Layer0
100
AcDbLine
 10
467.9793140791879
 20
254.6523650443301
 30
567.7000200567885
 11
468.4322474081173
 21
254.5927352403365
 31
567.7000200567885
  0
LINE
  5
231
330
1D
100
AcDbEntity
  8
Layer0
100
AcDbLine
 10
467.5263807502585
 20
254.5927352403355
 30
567.7000200567885
 11
467.9793140791879
 21
254.6523650443301
 31
567.7000200567885
  0
LINE
  5
232
330
1D
100
AcDbEntity
  8
Layer0
100
AcDbLine
 10
467.1043140791882
 20
254.4179095009519
 30
567.7000200567885
 11
467.5263807502585
 21
254.5927352403355
 31
567.7000200567885
  0
LINE
  5
233
330
1D
100
AcDbEntity
  8
Layer0
100
AcDbLine
 10
466.741877212112
 20
254.139801911405
 30
567.7000200567885
 11
467.1043140791882
 21
254.4179095009519
 31
567.7000200567885
  0
LINE
  5
234
330
1D
100
AcDbEntity
  8
Layer0
100
AcDbLine
 10
466.4637696225657
 20
253.7773650443285
 30
567.7000200567885
 11
466.741877212112
 21
254.139801911405
 31
567.7000200567885
  0
LINE
  5
235
330
1D
100
AcDbEntity
  8
Layer0
100
AcDbLine
 10
466.2889438831831
 20
253.3552983732577
 30
567.7000200567885
 11
466.4637696225657
 21
253.7773650443285
 31
567.7000200567885
  0
LINE
  5
236
330
1D
100
AcDbEntity
  8
Layer0
100
AcDbLine
 10
466.2293140791898
 20
252.9023650443281
 30
567.7000200567885
 11
466.2889438831831
 21
253.3552983732577
 31
567.7000200567885
  0
LINE
  5
237
330
1D
100
AcDbEntity
  8
Layer0
100
AcDbLine
 10
466.2889438831842
 20
252.4494317153989
 30
567.7000200567885
 11
466.2293140791898
 21
252.9023650443281
 31
567.7000200567885
  0
LINE
  5
238
330
1D
100
AcDbEntity
  8
Layer0
100
AcDbLine
 10
466.4637696225677
 20
252.0273650443285
 30
567.7000200567885
 11
466.2889438831842
 21
252.4494317153989
 31
567.7000200567885
  0
LINE
  5
239
330
1D
100
AcDbEntity
  8
Layer0
100
AcDbLine
 10
466.7418772121144
 20
251.6649281772522
 30
567.7000200567885
 11
466.4637696225677
 21
252.0273650443285
 31
567.7000200567885
  0
LINE
  5
23A
330
1D
100
AcDbEntity
  8
Layer0
100
AcDbLine
 10
467.1043140791914
 20
251.3868205877065
 30
567.7000200567885
 11
466.7418772121144
 21
251.6649281772522
 31
567.7000200567885
  0
LINE
  5
23B
330
1D
100
AcDbEntity
  8
Layer0
100
AcDbLine
 10
467.5263807502622
 20
251.2119948483238
 30
567.7000200567885
 11
467.1043140791914
 21
251.3868205877065
 31
567.7000200567885
  0
LINE
  5
23C
330
1D
100
AcDbEntity
  8
Layer0
100
AcDbLine
 10
467.9793140791916
 20
251.1523650443302
 30
567.7000200567885
 11
467.5263807502622
 21
251.2119948483238
 31
567.7000200567885
  0
LINE
  5
23D
330
1D
100
AcDbEntity
  8
Layer0
100
AcDbLine
 10
468.432247408121
 20
251.2119948483248
 30
567.7000200567885
 11
467.9793140791916
 21
251.1523650443302
 31
567.7000200567885
  0
LINE
  5
23E
330
1D
100
AcDbEntity
  8
Layer0
100
AcDbLine
 10
468.8543140791914
 20
251.3868205877084
 30
567.7000200567885
 11
468.432247408121
 21
251.2119948483248
 31
567.7000200567885
  0
LINE
  5
23F
330
1D
100
AcDbEntity
  8
Layer0
100
AcDbLine
 10
469.2167509462673
 20
251.6649281772549
 30
567.7000200567885
 11
468.8543140791914
 21
251.3868205877084
 31
567.7000200567885
  0
LINE
  5
240
330
1D
100
AcDbEntity
  8
Layer0
100
AcDbLine
 10
469.4948585358132
 20
252.0273650443318
 30
567.7000200567885
 11
469.2167509462673
 21
251.6649281772549
 31
567.7000200567885
  0
LINE
  5
241
330
1D
100
AcDbEntity
  8
Layer0
100
AcDbLine
 10
469.6696842751958
 20
252.4494317154025
 30
567.7000200567885
 11
469.4948585358132
 21
252.0273650443318
 31
567.7000200567885
  0
LINE
  5
242
330
1D
100
AcDbEntity
  8
Layer0
100
AcDbLine
 10
455.9793140547025
 20
258.9023650126338
 30
567.7000200567885
 11
322.6067404102843
 21
258.9023644191006
 31
567.7000200567883
  0
ENDSEC
  0
SECTION
  2
OBJECTS
  0
DICTIONARY
  5
C
330
0
100
AcDbDictionary
281
     1
  3
ACAD_DETAILVIEWSTYLE
350
297
  3
ACAD_GROUP
350
D
  3
ACAD_IMAGE_VARS
350
28E
  3
ACAD_LAYOUT
350
1A
  3
ACAD_MATERIAL
350
284
  3
ACAD_MLEADERSTYLE
350
28A
  3
ACAD_MLINESTYLE
350
17
  3
ACAD_PLOTSETTINGS
350
19
  3
ACAD_PLOTSTYLENAME
350
E
  3
ACAD_SCALELIST
350
245
  3
ACAD_SECTIONVIEWSTYLE
350
298
  3
ACAD_TABLESTYLE
350
288
  3
ACAD_VISUALSTYLE
350
26B
  3
AcDbVariableDictionary
350
28F
  3
ACDB_RECOMPOSE_DATA
350
293
  3
APPDATA
350
28C
  0
SUN
  5
28D
330
243
100
AcDbSun
 90
        1
290
     0
 63
     7
421
 16777215
 40
1.0
291
     1
 91
  2455826
 92
 54000000
292
     0
 70
     2
 71
   256
280
     1
  0
DICTIONARY
  5
297
102
{ACAD_REACTORS
330
C
102
}
330
C
100
AcDbDictionary
281
     1
  0
DICTIONARY
  5
D
102
{ACAD_REACTORS
330
C
102
}
330
C
100
AcDbDictionary
281
     1
  0
RASTERVARIABLES
  5
28E
102
{ACAD_REACTORS
330
C
102
}
330
C
100
AcDbRasterVariables
 90
        0
 70
     1
 71
     1
 72
     0
  0
DICTIONARY
  5
1A
102
{ACAD_REACTORS
330
C
102
}
330
C
100
AcDbDictionary
281
     1
  3
Model
350
1E
  3
Sheet 1
350
1C
  0
DICTIONARY
  5
284
102
{ACAD_REACTORS
330
C
102
}
330
C
100
AcDbDictionary
281
     1
  3
ByBlock
350
286
  3
ByLayer
350
285
  3
Global
350
287
  0
DICTIONARY
  5
28A
102
{ACAD_REACTORS
330
C
102
}
330
C
100
AcDbDictionary
281
     1
  3
Standard
350
28B
  0
DICTIONARY
  5
17
102
{ACAD_REACTORS
330
C
102
}
330
C
100
AcDbDictionary
281
     1
  3
Standard
350
18
  0
DICTIONARY
  5
19
102
{ACAD_REACTORS
330
C
102
}
330
C
100
AcDbDictionary
281
     1
  0
ACDBDICTIONARYWDFLT
  5
E
102
{ACAD_REACTORS
330
C
102
}
330
C
100
AcDbDictionary
281
     1
  3
Normal
350
F
100
AcDbDictionaryWithDefault
340
F
  0
DICTIONARY
  5
245
102
{ACAD_REACTORS
330
C
102
}
330
C
100
AcDbDictionary
281
     1
  3
A0
350
246
  3
A1
350
247
  3
A2
350
248
  3
A3
350
249
  3
A4
350
24A
  3
A5
350
24B
  3
A6
350
24C
  3
A7
350
24D
  3
A8
350
24E
  3
A9
350
24F
  3
B0
350
250
  3
B1
350
251
  3
B2
350
252
  3
B3
350
253
  3
B4
350
254
  3
B5
350
255
  3
B6
350
256
  3
B7
350
257
  3
B8
350
258
  3
B9
350
259
  3
C0
350
25A
  3
C1
350
25B
  3
C2
350
25C
  3
C3
350
25D
  3
C4
350
25E
  3
C5
350
25F
  3
C6
350
260
  3
C7
350
261
  3
C8
350
262
  3
C9
350
263
  3
D0
350
264
  3
D1
350
265
  3
D2
350
266
  0
DICTIONARY
  5
298
102
{ACAD_REACTORS
330
C
102
}
330
C
100
AcDbDictionary
281
     1
  0
DICTIONARY
  5
288
102
{ACAD_REACTORS
330
C
102
}
330
C
100
AcDbDictionary
281
     1
  3
Standard
350
289
  0
DICTIONARY
  5
26B
102
{ACAD_REACTORS
330
C
102
}
330
C
100
AcDbDictionary
281
     1
  3
2dWireframe
350
270
  3
Basic
350
273
  3
Brighten
350
277
  3
ColorChange
350
27B
  3
Conceptual
350
275
  3
Dim
350
276
  3
EdgeColorOff
350
27E
  3
Facepattern
350
27A
  3
Flat
350
26C
  3
FlatWithEdges
350
26D
  3
Gouraud
350
26E
  3
GouraudWithEdges
350
26F
  3
Hidden
350
272
  3
JitterOff
350
27C
  3
Linepattern
350
279
  3
OverhangOff
350
27D
  3
Realistic
350
274
  3
Shaded
350
283
  3
Shaded with edges
350
282
  3
Shades of Gray
350
27F
  3
Sketchy
350
280
  3
Thicken
350
278
  3
Wireframe
350
271
  3
X-Ray
350
281
  0
DICTIONARY
  5
28F
102
{ACAD_REACTORS
330
C
102
}
330
C
100
AcDbDictionary
281
     1
  3
CANNOSCALE
350
290
  3
CMLEADERSTYLE
350
295
  3
CTABLESTYLE
350
294
  3
MSLTSCALE
350
296
  0
XRECORD
  5
293
102
{ACAD_REACTORS
330
C
102
}
330
C
100
AcDbXrecord
280
     1
 90
        1
330
289
  0
DICTIONARY
  5
28C
102
{ACAD_REACTORS
330
C
102
}
330
C
100
AcDbDictionary
281
     1
  0
LAYOUT
  5
1E
102
{ACAD_REACTORS
330
1A
102
}
330
1A
100
AcDbPlotSettings
  1

  2
none_device
  4
na-letter
  6

 40
6.35
 41
6.35
 42
6.35
 43
14.11111111111111
 44
215.9
 45
279.4
 46
0.0
 47
0.0
 48
0.0
 49
0.0
140
0.0
141
0.0
142
1.0
143
1.0
 70
  1712
 72
     0
 73
     0
 74
     0
  7

 75
     0
 76
     0
 77
     2
 78
   300
147
1.0
148
0.0
149
0.0
100
AcDbLayout
  1
Model
 70
     1
 71
     0
 10
0.0
 20
0.0
 11
12.0
 21
9.0
 12
0.0
 22
0.0
 32
0.0
 14
292.606740409998
 24
248.9023650443237
 34
567.7000200567879
 15
512.6067404102498
 25
523.9023644193034
 35
567.7000200567885
146
0.0
 13
0.0
 23
0.0
 33
0.0
 16
1.0
 26
0.0
 36
0.0
 17
0.0
 27
1.0
 37
0.0
 76
     0
330
1D
331
243
  0
LAYOUT
  5
1C
102
{ACAD_REACTORS
330
1A
102
}
330
1A
100
AcDbPlotSettings
  1

  2
none_device
  4

  6

 40
0.0
 41
0.0
 42
0.0
 43
0.0
 44
0.0
 45
0.0
 46
0.0
 47
0.0
 48
0.0
 49
0.0
140
0.0
141
0.0
142
1.0
143
1.0
 70
   688
 72
     0
 73
     0
 74
     5
  7

 75
    16
 76
     0
 77
     2
 78
   300
147
1.0
148
0.0
149
0.0
100
AcDbLayout
  1
Sheet 1
 70
     1
 71
     1
 10
0.0
 20
0.0
 11
0.0
 21
0.0
 12
0.0
 22
0.0
 32
0.0
 14
1.000000000000000E+20
 24
1.000000000000000E+20
 34
1.000000000000000E+20
 15
-1.000000000000000E+20
 25
-1.000000000000000E+20
 35
-1.000000000000000E+20
146
0.0
 13
0.0
 23
0.0
 33
0.0
 16
1.0
 26
0.0
 36
0.0
 17
0.0
 27
1.0
 37
0.0
 76
     0
330
1B
  0
MATERIAL
  5
286
102
{ACAD_REACTORS
330
284
102
}
330
284
100
AcDbMaterial
  1
ByBlock
 72
     1
 94
      127
  0
MATERIAL
  5
285
102
{ACAD_REACTORS
330
284
102
}
330
284
100
AcDbMaterial
  1
ByLayer
 72
     1
 94
      127
  0
MATERIAL
  5
287
102
{ACAD_REACTORS
330
284
102
}
330
284
100
AcDbMaterial
  1
Global
 72
     1
 94
      127
  0
MLEADERSTYLE
  5
28B
102
{ACAD_REACTORS
330
28A
102
}
330
28A
100
AcDbMLeaderStyle
179
     2
170
     2
171
     1
172
     0
 90
        2
 40
0.0
 41
0.0
173
     1
 91
-1056964608
340
14
 92
       -2
290
     1
 42
0.09
291
     1
 43
0.36
  3
Standard
341
0
 44
0.18
300

342
11
174
     1
178
     6
175
     1
176
     0
 93
-1056964608
 45
0.18
292
     0
297
     0
 46
0.18
343
0
 94
-1056964608
 47
1.0
 49
1.0
140
1.0
293
     1
141
0.0
294
     1
177
     0
142
1.0
295
     0
296
     0
143
0.125
271
     0
272
     9
273
     9
  0
MLINESTYLE
  5
18
102
{ACAD_REACTORS
330
17
102
}
330
17
100
AcDbMlineStyle
  2
Standard
 70
     0
  3

 62
   256
 51
90.0
 52
90.0
 71
     2
 49
0.5
 62
   256
  6
BYLAYER
 49
-0.5
 62
   256
  6
BYLAYER
  0
ACDBPLACEHOLDER
  5
F
102
{ACAD_REACTORS
330
E
102
}
330
E
  0
SCALE
  5
246
102
{ACAD_REACTORS
330
245
102
}
330
245
100
AcDbScale
 70
     0
300
1:1
140
1.0
141
1.0
290
     1
  0
SCALE
  5
247
102
{ACAD_REACTORS
330
245
102
}
330
245
100
AcDbScale
 70
     0
300
1:2
140
1.0
141
2.0
290
     0
  0
SCALE
  5
248
102
{ACAD_REACTORS
330
245
102
}
330
245
100
AcDbScale
 70
     0
300
1:4
140
1.0
141
4.0
290
     0
  0
SCALE
  5
249
102
{ACAD_REACTORS
330
245
102
}
330
245
100
AcDbScale
 70
     0
300
1:5
140
1.0
141
5.0
290
     0
  0
SCALE
  5
24A
102
{ACAD_REACTORS
330
245
102
}
330
245
100
AcDbScale
 70
     0
300
1:8
140
1.0
141
8.0
290
     0
  0
SCALE
  5
24B
102
{ACAD_REACTORS
330
245
102
}
330
245
100
AcDbScale
 70
     0
300
1:10
140
1.0
141
10.0
290
     0
  0
SCALE
  5
24C
102
{ACAD_REACTORS
330
245
102
}
330
245
100
AcDbScale
 70
     0
300
1:16
140
1.0
141
16.0
290
     0
  0
SCALE
  5
24D
102
{ACAD_REACTORS
330
245
102
}
330
245
100
AcDbScale
 70
     0
300
1:20
140
1.0
141
20.0
290
     0
  0
SCALE
  5
24E
102
{ACAD_REACTORS
330
245
102
}
330
245
100
AcDbScale
 70
     0
300
1:30
140
1.0
141
30.0
290
     0
  0
SCALE
  5
24F
102
{ACAD_REACTORS
330
245
102
}
330
245
100
AcDbScale
 70
     0
300
1:40
140
1.0
141
40.0
290
     0
  0
SCALE
  5
250
102
{ACAD_REACTORS
330
245
102
}
330
245
100
AcDbScale
 70
     0
300
1:50
140
1.0
141
50.0
290
     0
  0
SCALE
  5
251
102
{ACAD_REACTORS
330
245
102
}
330
245
100
AcDbScale
 70
     0
300
1:100
140
1.0
141
100.0
290
     0
  0
SCALE
  5
252
102
{ACAD_REACTORS
330
245
102
}
330
245
100
AcDbScale
 70
     0
300
2:1
140
2.0
141
1.0
290
     0
  0
SCALE
  5
253
102
{ACAD_REACTORS
330
245
102
}
330
245
100
AcDbScale
 70
     0
300
4:1
140
4.0
141
1.0
290
     0
  0
SCALE
  5
254
102
{ACAD_REACTORS
330
245
102
}
330
245
100
AcDbScale
 70
     0
300
8:1
140
8.0
141
1.0
290
     0
  0
SCALE
  5
255
102
{ACAD_REACTORS
330
245
102
}
330
245
100
AcDbScale
 70
     0
300
10:1
140
10.0
141
1.0
290
     0
  0
SCALE
  5
256
102
{ACAD_REACTORS
330
245
102
}
330
245
100
AcDbScale
 70
     0
300
100:1
140
100.0
141
1.0
290
     0
  0
SCALE
  5
257
102
{ACAD_REACTORS
330
245
102
}
330
245
100
AcDbScale
 70
     0
300
1/128" = 1'-0"
140
0.0078125
141
12.0
290
     0
  0
SCALE
  5
258
102
{ACAD_REACTORS
330
245
102
}
330
245
100
AcDbScale
 70
     0
300
1/64" = 1'-0"
140
0.015625
141
12.0
290
     0
  0
SCALE
  5
259
102
{ACAD_REACTORS
330
245
102
}
330
245
100
AcDbScale
 70
     0
300
1/32" = 1'-0"
140
0.03125
141
12.0
290
     0
  0
SCALE
  5
25A
102
{ACAD_REACTORS
330
245
102
}
330
245
100
AcDbScale
 70
     0
300
1/16" = 1'-0"
140
0.0625
141
12.0
290
     0
  0
SCALE
  5
25B
102
{ACAD_REACTORS
330
245
102
}
330
245
100
AcDbScale
 70
     0
300
3/32" = 1'-0"
140
0.09375
141
12.0
290
     0
  0
SCALE
  5
25C
102
{ACAD_REACTORS
330
245
102
}
330
245
100
AcDbScale
 70
     0
300
1/8" = 1'-0"
140
0.125
141
12.0
290
     0
  0
SCALE
  5
25D
102
{ACAD_REACTORS
330
245
102
}
330
245
100
AcDbScale
 70
     0
300
3/16" = 1'-0"
140
0.1875
141
12.0
290
     0
  0
SCALE
  5
25E
102
{ACAD_REACTORS
330
245
102
}
330
245
100
AcDbScale
 70
     0
300
1/4" = 1'-0"
140
0.25
141
12.0
290
     0
  0
SCALE
  5
25F
102
{ACAD_REACTORS
330
245
102
}
330
245
100
AcDbScale
 70
     0
300
3/8" = 1'-0"
140
0.375
141
12.0
290
     0
  0
SCALE
  5
260
102
{ACAD_REACTORS
330
245
102
}
330
245
100
AcDbScale
 70
     0
300
1/2" = 1'-0"
140
0.5
141
12.0
290
     0
  0
SCALE
  5
261
102
{ACAD_REACTORS
330
245
102
}
330
245
100
AcDbScale
 70
     0
300
3/4" = 1'-0"
140
0.75
141
12.0
290
     0
  0
SCALE
  5
262
102
{ACAD_REACTORS
330
245
102
}
330
245
100
AcDbScale
 70
     0
300
1" = 1'-0"
140
1.0
141
12.0
290
     0
  0
SCALE
  5
263
102
{ACAD_REACTORS
330
245
102
}
330
245
100
AcDbScale
 70
     0
300
1-1/2" = 1'-0"
140
1.5
141
12.0
290
     0
  0
SCALE
  5
264
102
{ACAD_REACTORS
330
245
102
}
330
245
100
AcDbScale
 70
     0
300
3" = 1'-0"
140
3.0
141
12.0
290
     0
  0
SCALE
  5
265
102
{ACAD_REACTORS
330
245
102
}
330
245
100
AcDbScale
 70
     0
300
6" = 1'-0"
140
6.0
141
12.0
290
     0
  0
SCALE
  5
266
102
{ACAD_REACTORS
330
245
102
}
330
245
100
AcDbScale
 70
     0
300
1'-0" = 1'-0"
140
12.0
141
12.0
290
     0
  0
TABLESTYLE
  5
289
102
{ACAD_REACTORS
330
288
102
}
102
{ACAD_XDICTIONARY
360
291
102
}
330
288
100
AcDbTableStyle
  3
Standard
 70
     0
 71
     0
 40
0.06
 41
0.06
280
     0
281
     0
  7
Standard
140
0.18
170
     2
 62
     0
 63
   257
283
     0
 90
        4
 91
        0
  1

274
    -2
284
     1
 64
     0
275
    -2
285
     1
 65
     0
276
    -2
286
     1
 66
     0
277
    -2
287
     1
 67
     0
278
    -2
288
     1
 68
     0
279
    -2
289
     1
 69
     0
  7
Standard
140
0.25
170
     5
 62
     0
 63
   257
283
     0
 90
        4
 91
        0
  1

274
    -2
284
     1
 64
     0
275
    -2
285
     1
 65
     0
276
    -2
286
     1
 66
     0
277
    -2
287
     1
 67
     0
278
    -2
288
     1
 68
     0
279
    -2
289
     1
 69
     0
  7
Standard
140
0.18
170
     5
 62
     0
 63
   257
283
     0
 90
        4
 91
        0
  1

274
    -2
284
     1
 64
     0
275
    -2
285
     1
 65
     0
276
    -2
286
     1
 66
     0
277
    -2
287
     1
 67
     0
278
    -2
288
     1
 68
     0
279
    -2
289
     1
 69
     0
  0
VISUALSTYLE
  5
270
102
{ACAD_REACTORS
330
26B
102
}
330
26B
100
AcDbVisualStyle
  2
2dWireframe
 70
     4
177
     2
291
     0
 71
     0
176
     1
 72
     2
176
     1
 73
     0
176
     1
 90
        0
176
     1
 40
0.6
176
     1
 41
30.0
176
     1
 62
     5
 63
     7
421
 16777215
176
     1
 74
     1
176
     1
 91
        4
176
     1
 64
     7
176
     1
 65
   257
176
     1
 75
     1
176
     1
175
     1
176
     1
 42
1.0
176
     1
 92
        0
176
     1
 66
   257
176
     1
 43
1.0
176
     1
 76
     1
176
     1
 77
     6
176
     1
 78
     2
176
     1
 67
     7
176
     1
 79
     5
176
     1
170
     0
176
     1
171
     0
176
     1
290
     0
176
     1
 93
        1
176
     1
 44
0.0
176
     1
173
     0
176
     1
  0
VISUALSTYLE
  5
273
102
{ACAD_REACTORS
330
26B
102
}
330
26B
100
AcDbVisualStyle
  2
Basic
 70
     7
177
     2
291
     1
 71
     1
176
     1
 72
     0
176
     1
 73
     1
176
     1
 90
        0
176
     1
 40
0.6
176
     1
 41
30.0
176
     1
 62
     5
 63
     7
421
 16777215
176
     1
 74
     0
176
     1
 91
        4
176
     1
 64
     7
176
     1
 65
   257
176
     1
 75
     1
176
     1
175
     1
176
     1
 42
1.0
176
     1
 92
        8
176
     1
 66
     7
176
     1
 43
1.0
176
     1
 76
     1
176
     1
 77
     6
176
     1
 78
     2
176
     1
 67
     7
176
     1
 79
     5
176
     1
170
     0
176
     1
171
     0
176
     1
290
     0
176
     1
 93
        1
176
     1
 44
0.0
176
     1
173
     0
176
     1
  0
VISUALSTYLE
  5
277
102
{ACAD_REACTORS
330
26B
102
}
330
26B
100
AcDbVisualStyle
  2
Brighten
 70
    12
177
     2
291
     1
 71
     2
176
     1
 72
     2
176
     1
 73
     0
176
     1
 90
        0
176
     1
 40
0.6
176
     1
 41
30.0
176
     1
 62
     5
 63
     7
421
 16777215
176
     1
 74
     1
176
     1
 91
        4
176
     1
 64
     7
176
     1
 65
   257
176
     1
 75
     1
176
     1
175
     1
176
     1
 42
1.0
176
     1
 92
        8
176
     1
 66
     7
176
     1
 43
1.0
176
     1
 76
     1
176
     1
 77
     6
176
     1
 78
     2
176
     1
 67
     7
176
     1
 79
     5
176
     1
170
     0
176
     1
171
     0
176
     1
290
     0
176
     1
 93
        1
176
     1
 44
50.0
176
     1
173
     0
176
     1
  0
VISUALSTYLE
  5
27B
102
{ACAD_REACTORS
330
26B
102
}
330
26B
100
AcDbVisualStyle
  2
ColorChange
 70
    16
177
     2
291
     1
 71
     2
176
     1
 72
     2
176
     1
 73
     3
176
     1
 90
        0
176
     1
 40
0.6
176
     1
 41
30.0
176
     1
 62
     5
 63
     8
421
  8421504
176
     1
 74
     1
176
     1
 91
        4
176
     1
 64
     7
176
     1
 65
   257
176
     1
 75
     1
176
     1
175
     1
176
     1
 42
1.0
176
     1
 92
        8
176
     1
 66
     8
424
  8421504
176
     1
 43
1.0
176
     1
 76
     1
176
     1
 77
     6
176
     1
 78
     2
176
     1
 67
     7
176
     1
 79
     5
176
     1
170
     0
176
     1
171
     0
176
     1
290
     0
176
     1
 93
        1
176
     1
 44
0.0
176
     1
173
     0
176
     1
  0
VISUALSTYLE
  5
275
102
{ACAD_REACTORS
330
26B
102
}
330
26B
100
AcDbVisualStyle
  2
Conceptual
 70
     9
177
     2
291
     0
 71
     3
176
     1
 72
     2
176
     1
 73
     0
176
     1
 90
        0
176
     1
 40
0.6
176
     1
 41
30.0
176
     1
 62
     5
 63
     7
421
 16777215
176
     1
 74
     2
176
     1
 91
        2
176
     1
 64
     7
176
     1
 65
   257
176
     1
 75
     1
176
     1
175
     1
176
     1
 42
179.0
176
     1
 92
        8
176
     1
 66
     7
176
     1
 43
1.0
176
     1
 76
     1
176
     1
 77
     6
176
     1
 78
     2
176
     1
 67
     7
176
     1
 79
     3
176
     1
170
     0
176
     1
171
     0
176
     1
290
     0
176
     1
 93
        1
176
     1
 44
0.0
176
     1
173
     0
176
     1
  0
VISUALSTYLE
  5
276
102
{ACAD_REACTORS
330
26B
102
}
330
26B
100
AcDbVisualStyle
  2
Dim
 70
    11
177
     2
291
     1
 71
     2
176
     1
 72
     2
176
     1
 73
     0
176
     1
 90
        0
176
     1
 40
0.6
176
     1
 41
30.0
176
     1
 62
     5
 63
     7
421
 16777215
176
     1
 74
     1
176
     1
 91
        4
176
     1
 64
     7
176
     1
 65
   257
176
     1
 75
     1
176
     1
175
     1
176
     1
 42
1.0
176
     1
 92
        8
176
     1
 66
     7
176
     1
 43
1.0
176
     1
 76
     1
176
     1
 77
     6
176
     1
 78
     2
176
     1
 67
     7
176
     1
 79
     5
176
     1
170
     0
176
     1
171
     0
176
     1
290
     0
176
     1
 93
        1
176
     1
 44
-50.0
176
     1
173
     0
176
     1
  0
VISUALSTYLE
  5
27E
102
{ACAD_REACTORS
330
26B
102
}
330
26B
100
AcDbVisualStyle
  2
EdgeColorOff
 70
    22
177
     2
291
     1
 71
     2
176
     0
 72
     2
176
     0
 73
     0
176
     0
 90
        0
176
     0
 40
0.6
176
     0
 41
30.0
176
     0
 62
     5
 63
     7
421
 16777215
176
     0
 74
     1
176
     0
 91
        4
176
     0
 64
     7
176
     0
 65
   257
176
     0
 75
     1
176
     0
175
     1
176
     0
 42
1.0
176
     0
 92
        8
176
     2
 66
     7
176
     0
 43
1.0
176
     0
 76
     1
176
     0
 77
     6
176
     0
 78
     2
176
     0
 67
     7
176
     0
 79
     5
176
     0
170
     0
176
     0
171
     0
176
     0
290
     0
176
     0
 93
        1
176
     0
 44
0.0
176
     0
173
     0
176
     0
  0
VISUALSTYLE
  5
27A
102
{ACAD_REACTORS
330
26B
102
}
330
26B
100
AcDbVisualStyle
  2
Facepattern
 70
    15
177
     2
291
     1
 71
     2
176
     1
 72
     2
176
     1
 73
     0
176
     1
 90
        0
176
     1
 40
0.6
176
     1
 41
30.0
176
     1
 62
     5
 63
     7
421
 16777215
176
     1
 74
     1
176
     1
 91
        4
176
     1
 64
     7
176
     1
 65
   257
176
     1
 75
     1
176
     1
175
     1
176
     1
 42
1.0
176
     1
 92
        8
176
     1
 66
     7
176
     1
 43
1.0
176
     1
 76
     1
176
     1
 77
     6
176
     1
 78
     2
176
     1
 67
     7
176
     1
 79
     5
176
     1
170
     0
176
     1
171
     0
176
     1
290
     0
176
     1
 93
        1
176
     1
 44
0.0
176
     1
173
     0
176
     1
  0
VISUALSTYLE
  5
26C
102
{ACAD_REACTORS
330
26B
102
}
330
26B
100
AcDbVisualStyle
  2
Flat
 70
     0
177
     2
291
     1
 71
     2
176
     1
 72
     1
176
     1
 73
     1
176
     1
 90
        2
176
     1
 40
0.6
176
     1
 41
30.0
176
     1
 62
     5
 63
     7
421
 16777215
176
     1
 74
     0
176
     1
 91
        0
176
     1
 64
     7
176
     1
 65
   257
176
     1
 75
     1
176
     1
175
     1
176
     1
 42
1.0
176
     1
 92
        8
176
     1
 66
     7
176
     1
 43
1.0
176
     1
 76
     1
176
     1
 77
     6
176
     1
 78
     2
176
     1
 67
     7
176
     1
 79
     5
176
     1
170
     0
176
     1
171
     0
176
     1
290
     0
176
     1
 93
       13
176
     1
 44
0.0
176
     1
173
     0
176
     1
  0
VISUALSTYLE
  5
26D
102
{ACAD_REACTORS
330
26B
102
}
330
26B
100
AcDbVisualStyle
  2
FlatWithEdges
 70
     1
177
     2
291
     1
 71
     2
176
     1
 72
     1
176
     1
 73
     1
176
     1
 90
        2
176
     1
 40
0.6
176
     1
 41
30.0
176
     1
 62
     5
 63
     7
421
 16777215
176
     1
 74
     1
176
     1
 91
        0
176
     1
 64
     7
176
     1
 65
   257
176
     1
 75
     1
176
     1
175
     1
176
     1
 42
1.0
176
     1
 92
        0
176
     1
 66
   257
176
     1
 43
1.0
176
     1
 76
     1
176
     1
 77
     6
176
     1
 78
     2
176
     1
 67
     7
176
     1
 79
     5
176
     1
170
     0
176
     1
171
     0
176
     1
290
     0
176
     1
 93
       13
176
     1
 44
0.0
176
     1
173
     0
176
     1
  0
VISUALSTYLE
  5
26E
102
{ACAD_REACTORS
330
26B
102
}
330
26B
100
AcDbVisualStyle
  2
Gouraud
 70
     2
177
     2
291
     1
 71
     2
176
     1
 72
     2
176
     1
 73
     1
176
     1
 90
        2
176
     1
 40
0.6
176
     1
 41
30.0
176
     1
 62
     5
 63
     7
421
 16777215
176
     1
 74
     0
176
     1
 91
        0
176
     1
 64
     7
176
     1
 65
   257
176
     1
 75
     1
176
     1
175
     1
176
     1
 42
1.0
176
     1
 92
        0
176
     1
 66
     7
176
     1
 43
1.0
176
     1
 76
     1
176
     1
 77
     6
176
     1
 78
     2
176
     1
 67
     7
176
     1
 79
     5
176
     1
170
     0
176
     1
171
     0
176
     1
290
     0
176
     1
 93
       13
176
     1
 44
0.0
176
     1
173
     0
176
     1
  0
VISUALSTYLE
  5
26F
102
{ACAD_REACTORS
330
26B
102
}
330
26B
100
AcDbVisualStyle
  2
GouraudWithEdges
 70
     3
177
     2
291
     1
 71
     2
176
     1
 72
     2
176
     1
 73
     1
176
     1
 90
        2
176
     1
 40
0.6
176
     1
 41
30.0
176
     1
 62
     5
 63
     7
421
 16777215
176
     1
 74
     1
176
     1
 91
        0
176
     1
 64
     7
176
     1
 65
   257
176
     1
 75
     1
176
     1
175
     1
176
     1
 42
1.0
176
     1
 92
        0
176
     1
 66
   257
176
     1
 43
1.0
176
     1
 76
     1
176
     1
 77
     6
176
     1
 78
     2
176
     1
 67
     7
176
     1
 79
     5
176
     1
170
     0
176
     1
171
     0
176
     1
290
     0
176
     1
 93
       13
176
     1
 44
0.0
176
     1
173
     0
176
     1
  0
VISUALSTYLE
  5
272
102
{ACAD_REACTORS
330
26B
102
}
330
26B
100
AcDbVisualStyle
  2
Hidden
 70
     6
177
     2
291
     0
 71
     1
176
     1
 72
     2
176
     1
 73
     2
176
     1
 90
        0
176
     1
 40
0.6
176
     1
 41
30.0
176
     1
 62
     5
 63
     7
421
 16777215
176
     1
 74
     2
176
     1
 91
        2
176
     1
 64
     7
176
     1
 65
   257
176
     1
 75
     2
176
     1
175
     1
176
     1
 42
40.0
176
     1
 92
        0
176
     1
 66
   257
176
     1
 43
1.0
176
     1
 76
     1
176
     1
 77
     6
176
     1
 78
     2
176
     1
 67
     7
176
     1
 79
     3
176
     1
170
     0
176
     1
171
     0
176
     1
290
     0
176
     1
 93
        1
176
     1
 44
0.0
176
     1
173
     0
176
     1
  0
VISUALSTYLE
  5
27C
102
{ACAD_REACTORS
330
26B
102
}
330
26B
100
AcDbVisualStyle
  2
JitterOff
 70
    20
177
     2
291
     1
 71
     2
176
     0
 72
     2
176
     0
 73
     0
176
     0
 90
        0
176
     0
 40
0.6
176
     0
 41
30.0
176
     0
 62
     5
 63
     7
421
 16777215
176
     0
 74
     1
176
     0
 91
        4
176
     0
 64
     7
176
     0
 65
   257
176
     0
 75
     1
176
     0
175
     1
176
     0
 42
1.0
176
     0
 92
       10
176
     2
 66
     7
176
     0
 43
1.0
176
     0
 76
     1
176
     0
 77
     6
176
     0
 78
     2
176
     0
 67
     7
176
     0
 79
     5
176
     0
170
     0
176
     0
171
     0
176
     0
290
     0
176
     0
 93
        1
176
     0
 44
0.0
176
     0
173
     0
176
     0
  0
VISUALSTYLE
  5
279
102
{ACAD_REACTORS
330
26B
102
}
330
26B
100
AcDbVisualStyle
  2
Linepattern
 70
    14
177
     2
291
     1
 71
     2
176
     1
 72
     2
176
     1
 73
     0
176
     1
 90
        0
176
     1
 40
0.6
176
     1
 41
30.0
176
     1
 62
     5
 63
     7
421
 16777215
176
     1
 74
     1
176
     1
 91
        4
176
     1
 64
     7
176
     1
 65
   257
176
     1
 75
     7
176
     1
175
     7
176
     1
 42
1.0
176
     1
 92
        8
176
     1
 66
     7
176
     1
 43
1.0
176
     1
 76
     1
176
     1
 77
     6
176
     1
 78
     2
176
     1
 67
     7
176
     1
 79
     5
176
     1
170
     0
176
     1
171
     0
176
     1
290
     0
176
     1
 93
        1
176
     1
 44
0.0
176
     1
173
     0
176
     1
  0
VISUALSTYLE
  5
27D
102
{ACAD_REACTORS
330
26B
102
}
330
26B
100
AcDbVisualStyle
  2
OverhangOff
 70
    21
177
     2
291
     1
 71
     2
176
     0
 72
     2
176
     0
 73
     0
176
     0
 90
        0
176
     0
 40
0.6
176
     0
 41
30.0
176
     0
 62
     5
 63
     7
421
 16777215
176
     0
 74
     1
176
     0
 91
        4
176
     0
 64
     7
176
     0
 65
   257
176
     0
 75
     1
176
     0
175
     1
176
     0
 42
1.0
176
     0
 92
        9
176
     2
 66
     7
176
     0
 43
1.0
176
     0
 76
     1
176
     0
 77
     6
176
     0
 78
     2
176
     0
 67
     7
176
     0
 79
     5
176
     0
170
     0
176
     0
171
     0
176
     0
290
     0
176
     0
 93
        1
176
     0
 44
0.0
176
     0
173
     0
176
     0
  0
VISUALSTYLE
  5
274
102
{ACAD_REACTORS
330
26B
102
}
330
26B
100
AcDbVisualStyle
  2
Realistic
 70
     8
177
     2
291
     0
 71
     2
176
     1
 72
     3
176
     1
 73
     0
176
     1
 90
        2
176
     1
 40
0.6
176
     1
 41
30.0
176
     1
 62
     5
 63
     7
421
 16777215
176
     1
 74
     0
176
     1
 91
        0
176
     1
 64
     7
176
     1
 65
   257
176
     1
 75
     1
176
     1
175
     1
176
     1
 42
1.0
176
     1
 92
        8
176
     1
 66
   257
176
     1
 43
1.0
176
     1
 76
     1
176
     1
 77
     6
176
     1
 78
     2
176
     1
 67
     7
176
     1
 79
     3
176
     1
170
     0
176
     1
171
     0
176
     1
290
     0
176
     1
 93
       13
176
     1
 44
0.0
176
     1
173
     0
176
     1
  0
VISUALSTYLE
  5
283
102
{ACAD_REACTORS
330
26B
102
}
330
26B
100
AcDbVisualStyle
  2
Shaded
 70
    27
177
     2
291
     0
 71
     2
176
     1
 72
     2
176
     1
 73
     1
176
     1
 90
        2
176
     1
 40
0.6
176
     1
 41
30.0
176
     1
 62
     5
 63
     7
421
 16777215
176
     1
 74
     0
176
     1
 91
        4
176
     1
 64
     7
176
     1
 65
   257
176
     1
 75
     1
176
     1
175
     1
176
     1
 42
1.0
176
     1
 92
        8
176
     1
 66
   257
176
     1
 43
1.0
176
     1
 76
     1
176
     1
 77
     6
176
     1
 78
     2
176
     1
 67
     8
425
  7895160
176
     1
 79
     3
176
     1
170
     0
176
     1
171
     0
176
     1
290
     0
176
     1
 93
        5
176
     1
 44
0.0
176
     1
173
     0
176
     1
  0
VISUALSTYLE
  5
282
102
{ACAD_REACTORS
330
26B
102
}
330
26B
100
AcDbVisualStyle
  2
Shaded with edges
 70
    26
177
     2
291
     0
 71
     2
176
     1
 72
     2
176
     1
 73
     1
176
     1
 90
        2
176
     1
 40
0.6
176
     1
 41
30.0
176
     1
 62
     5
 63
     7
421
 16777215
176
     1
 74
     1
176
     1
 91
       10
176
     1
 64
     7
176
     1
 65
   257
176
     1
 75
     2
176
     1
175
     1
176
     1
 42
1.0
176
     1
 92
        8
176
     1
 66
   257
176
     1
 43
1.0
176
     1
 76
     1
176
     1
 77
     6
176
     1
 78
     2
176
     1
 67
     7
176
     1
 79
     3
176
     1
170
     0
176
     1
171
     0
176
     1
290
     0
176
     1
 93
        5
176
     1
 44
0.0
176
     1
173
     0
176
     1
  0
VISUALSTYLE
  5
27F
102
{ACAD_REACTORS
330
26B
102
}
330
26B
100
AcDbVisualStyle
  2
Shades of Gray
 70
    23
177
     2
291
     0
 71
     2
176
     1
 72
     2
176
     1
 73
     3
176
     1
 90
        0
176
     1
 40
0.6
176
     1
 41
30.0
176
     1
 62
     5
 63
     7
421
 16777215
176
     1
 74
     2
176
     1
 91
        2
176
     1
 64
     7
176
     1
 65
     7
176
     1
 75
     1
176
     1
175
     1
176
     1
 42
40.0
176
     1
 92
        8
176
     1
 66
     7
176
     1
 43
1.0
176
     1
 76
     1
176
     1
 77
     6
176
     1
 78
     2
176
     1
 67
     7
176
     1
 79
     3
176
     1
170
     0
176
     1
171
     0
176
     1
290
     0
176
     1
 93
        1
176
     1
 44
0.0
176
     1
173
     0
176
     1
  0
VISUALSTYLE
  5
280
102
{ACAD_REACTORS
330
26B
102
}
330
26B
100
AcDbVisualStyle
  2
Sketchy
 70
    24
177
     2
291
     0
 71
     1
176
     1
 72
     2
176
     1
 73
     2
176
     1
 90
        0
176
     1
 40
0.6
176
     1
 41
30.0
176
     1
 62
     5
 63
     7
421
 16777215
176
     1
 74
     2
176
     1
 91
        2
176
     1
 64
     7
176
     1
 65
     7
176
     1
 75
     1
176
     1
175
     1
176
     1
 42
40.0
176
     1
 92
       11
176
     1
 66
     7
176
     1
 43
1.0
176
     1
 76
     1
176
     1
 77
     6
176
     1
 78
     2
176
     1
 67
     7
176
     1
 79
     6
176
     1
170
     0
176
     1
171
     0
176
     1
290
     0
176
     1
 93
        1
176
     1
 44
0.0
176
     1
173
     0
176
     1
  0
VISUALSTYLE
  5
278
102
{ACAD_REACTORS
330
26B
102
}
330
26B
100
AcDbVisualStyle
  2
Thicken
 70
    13
177
     2
291
     1
 71
     2
176
     1
 72
     2
176
     1
 73
     0
176
     1
 90
        0
176
     1
 40
0.6
176
     1
 41
30.0
176
     1
 62
     5
 63
     7
421
 16777215
176
     1
 74
     1
176
     1
 91
        4
176
     1
 64
     7
176
     1
 65
   257
176
     1
 75
     1
176
     1
175
     1
176
     1
 42
1.0
176
     1
 92
       12
176
     1
 66
     7
176
     1
 43
1.0
176
     1
 76
     1
176
     1
 77
     6
176
     1
 78
     2
176
     1
 67
     7
176
     1
 79
     5
176
     1
170
     0
176
     1
171
     0
176
     1
290
     0
176
     1
 93
        1
176
     1
 44
0.0
176
     1
173
     0
176
     1
  0
VISUALSTYLE
  5
271
102
{ACAD_REACTORS
330
26B
102
}
330
26B
100
AcDbVisualStyle
  2
Wireframe
 70
     5
177
     2
291
     0
 71
     0
176
     1
 72
     2
176
     1
 73
     0
176
     1
 90
        0
176
     1
 40
0.6
176
     1
 41
30.0
176
     1
 62
     5
 63
     7
421
 16777215
176
     1
 74
     1
176
     1
 91
        4
176
     1
 64
     7
176
     1
 65
   257
176
     1
 75
     1
176
     1
175
     1
176
     1
 42
1.0
176
     1
 92
        0
176
     1
 66
   257
176
     1
 43
1.0
176
     1
 76
     1
176
     1
 77
     6
176
     1
 78
     2
176
     1
 67
     7
176
     1
 79
     3
176
     1
170
     0
176
     1
171
     0
176
     1
290
     0
176
     1
 93
        1
176
     1
 44
0.0
176
     1
173
     0
176
     1
  0
VISUALSTYLE
  5
281
102
{ACAD_REACTORS
330
26B
102
}
330
26B
100
AcDbVisualStyle
  2
X-Ray
 70
    25
177
     2
291
     0
 71
     2
176
     1
 72
     2
176
     1
 73
     1
176
     1
 90
        1
176
     1
 40
0.5
176
     1
 41
30.0
176
     1
 62
     5
 63
     7
421
 16777215
176
     1
 74
     1
176
     1
 91
        0
176
     1
 64
     7
176
     1
 65
   257
176
     1
 75
     1
176
     1
175
     1
176
     1
 42
1.0
176
     1
 92
        8
176
     1
 66
     7
176
     1
 43
1.0
176
     1
 76
     1
176
     1
 77
     6
176
     1
 78
     2
176
     1
 67
     7
176
     1
 79
     3
176
     1
170
     0
176
     1
171
     0
176
     1
290
     0
176
     1
 93
       13
176
     1
 44
0.0
176
     1
173
     0
176
     1
  0
DICTIONARYVAR
  5
290
102
{ACAD_REACTORS
330
28F
102
}
330
28F
100
DictionaryVariables
280
     0
  1
1:1
  0
DICTIONARYVAR
  5
295
102
{ACAD_REACTORS
330
28F
102
}
330
28F
100
DictionaryVariables
280
     0
  1
Standard
  0
DICTIONARYVAR
  5
294
102
{ACAD_REACTORS
330
28F
102
}
330
28F
100
DictionaryVariables
280
     0
  1
Standard
  0
DICTIONARYVAR
  5
296
102
{ACAD_REACTORS
330
28F
102
}
330
28F
100
DictionaryVariables
280
     0
  1
0
  0
DICTIONARY
  5
291
330
289
100
AcDbDictionary
280
     1
281
     1
  3
ACAD_ROUNDTRIP_2008_TABLESTYLE_CELLSTYLEMAP
360
292
  0
CELLSTYLEMAP
  5
292
102
{ACAD_REACTORS
330
291
102
}
330
291
100
AcDbCellStyleMap
 90
        3
300
CELLSTYLE
  1
TABLEFORMAT_BEGIN
 90
        5
170
     1
 91
        0
 92
    32768
 62
   257
 93
        1
300
CONTENTFORMAT
  1
CONTENTFORMAT_BEGIN
 90
        0
 91
        0
 92
        4
 93
        0
300

 40
0.0
140
1.0
 94
        5
 62
     0
340
11
144
0.25
309
CONTENTFORMAT_END
171
     1
301
MARGIN
  1
CELLMARGIN_BEGIN
 40
0.06
 40
0.06
 40
0.06
 40
0.06
 40
0.06
 40
0.06
309
CELLMARGIN_END
 94
        6
 95
        1
302
GRIDFORMAT
  1
GRIDFORMAT_BEGIN
 90
        0
 91
        1
 62
     0
 92
       -2
340
14
 93
        0
 40
0.045
309
GRIDFORMAT_END
 95
        2
302
GRIDFORMAT
  1
GRIDFORMAT_BEGIN
 90
        0
 91
        1
 62
     0
 92
       -2
340
14
 93
        0
 40
0.045
309
GRIDFORMAT_END
 95
        4
302
GRIDFORMAT
  1
GRIDFORMAT_BEGIN
 90
        0
 91
        1
 62
     0
 92
       -2
340
14
 93
        0
 40
0.045
309
GRIDFORMAT_END
 95
        8
302
GRIDFORMAT
  1
GRIDFORMAT_BEGIN
 90
        0
 91
        1
 62
     0
 92
       -2
340
14
 93
        0
 40
0.045
309
GRIDFORMAT_END
 95
       16
302
GRIDFORMAT
  1
GRIDFORMAT_BEGIN
 90
        0
 91
        1
 62
     0
 92
       -2
340
14
 93
        0
 40
0.045
309
GRIDFORMAT_END
 95
       32
302
GRIDFORMAT
  1
GRIDFORMAT_BEGIN
 90
        0
 91
        1
 62
     0
 92
       -2
340
14
 93
        0
 40
0.045
309
GRIDFORMAT_END
309
TABLEFORMAT_END
  1
CELLSTYLE_BEGIN
 90
        1
 91
        1
300
_TITLE
309
CELLSTYLE_END
300
CELLSTYLE
  1
TABLEFORMAT_BEGIN
 90
        5
170
     1
 91
        0
 92
        0
 62
   257
 93
        1
300
CONTENTFORMAT
  1
CONTENTFORMAT_BEGIN
 90
        0
 91
        0
 92
        4
 93
        0
300

 40
0.0
140
1.0
 94
        5
 62
     0
340
11
144
0.18
309
CONTENTFORMAT_END
171
     1
301
MARGIN
  1
CELLMARGIN_BEGIN
 40
0.06
 40
0.06
 40
0.06
 40
0.06
 40
0.06
 40
0.06
309
CELLMARGIN_END
 94
        6
 95
        1
302
GRIDFORMAT
  1
GRIDFORMAT_BEGIN
 90
        0
 91
        1
 62
     0
 92
       -2
340
14
 93
        0
 40
0.045
309
GRIDFORMAT_END
 95
        2
302
GRIDFORMAT
  1
GRIDFORMAT_BEGIN
 90
        0
 91
        1
 62
     0
 92
       -2
340
14
 93
        0
 40
0.045
309
GRIDFORMAT_END
 95
        4
302
GRIDFORMAT
  1
GRIDFORMAT_BEGIN
 90
        0
 91
        1
 62
     0
 92
       -2
340
14
 93
        0
 40
0.045
309
GRIDFORMAT_END
 95
        8
302
GRIDFORMAT
  1
GRIDFORMAT_BEGIN
 90
        0
 91
        1
 62
     0
 92
       -2
340
14
 93
        0
 40
0.045
309
GRIDFORMAT_END
 95
       16
302
GRIDFORMAT
  1
GRIDFORMAT_BEGIN
 90
        0
 91
        1
 62
     0
 92
       -2
340
14
 93
        0
 40
0.045
309
GRIDFORMAT_END
 95
       32
302
GRIDFORMAT
  1
GRIDFORMAT_BEGIN
 90
        0
 91
        1
 62
     0
 92
       -2
340
14
 93
        0
 40
0.045
309
GRIDFORMAT_END
309
TABLEFORMAT_END
  1
CELLSTYLE_BEGIN
 90
        2
 91
        1
300
_HEADER
309
CELLSTYLE_END
300
CELLSTYLE
  1
TABLEFORMAT_BEGIN
 90
        5
170
     1
 91
        0
 92
        0
 62
   257
 93
        1
300
CONTENTFORMAT
  1
CONTENTFORMAT_BEGIN
 90
        0
 91
        0
 92
        4
 93
        0
300

 40
0.0
140
1.0
 94
        2
 62
     0
340
11
144
0.18
309
CONTENTFORMAT_END
171
     1
301
MARGIN
  1
CELLMARGIN_BEGIN
 40
0.06
 40
0.06
 40
0.06
 40
0.06
 40
0.06
 40
0.06
309
CELLMARGIN_END
 94
        6
 95
        1
302
GRIDFORMAT
  1
GRIDFORMAT_BEGIN
 90
        0
 91
        1
 62
     0
 92
       -2
340
14
 93
        0
 40
0.045
309
GRIDFORMAT_END
 95
        2
302
GRIDFORMAT
  1
GRIDFORMAT_BEGIN
 90
        0
 91
        1
 62
     0
 92
       -2
340
14
 93
        0
 40
0.045
309
GRIDFORMAT_END
 95
        4
302
GRIDFORMAT
  1
GRIDFORMAT_BEGIN
 90
        0
 91
        1
 62
     0
 92
       -2
340
14
 93
        0
 40
0.045
309
GRIDFORMAT_END
 95
        8
302
GRIDFORMAT
  1
GRIDFORMAT_BEGIN
 90
        0
 91
        1
 62
     0
 92
       -2
340
14
 93
        0
 40
0.045
309
GRIDFORMAT_END
 95
       16
302
GRIDFORMAT
  1
GRIDFORMAT_BEGIN
 90
        0
 91
        1
 62
     0
 92
       -2
340
14
 93
        0
 40
0.045
309
GRIDFORMAT_END
 95
       32
302
GRIDFORMAT
  1
GRIDFORMAT_BEGIN
 90
        0
 91
        1
 62
     0
 92
       -2
340
14
 93
        0
 40
0.045
309
GRIDFORMAT_END
309
TABLEFORMAT_END
  1
CELLSTYLE_BEGIN
 90
        3
 91
        2
300
_DATA
309
CELLSTYLE_END
  0
ENDSEC
  0
EOF
