 0
SECTION
 2
ENTITIES
  0
POLYLINE
 8
Layer0
 66
     1
70
    8
 10
0.0
 20
 0.0
 30
0.0
  0
VERTEX
  8
MY3DLAYER
10
28.588190451025202
20
16.340741737109344
30
1.8047785488306544e-13
 70
     32
  0
VERTEX
  8
MY3DLAYER
10
30.700349113886478
20
17.215626501150286
30
1.8047785488306544e-13
 70
     32
  0
VERTEX
  8
MY3DLAYER
10
30.99999999999999
20
17.339745962155618
30
1.8047785488306544e-13
 70
     32
  0
VERTEX
  8
MY3DLAYER
10
33.07106781186545
20
18.92893218813455
30
1.8047785488306544e-13
 70
     32
  0
VERTEX
  8
MY3DLAYER
10
34.660254037844375
20
21.000000000000007
30
1.8047785488306544e-13
 70
     32
  0
VERTEX
  8
MY3DLAYER
10
35.65925826289065
20
23.41180954897479
30
1.8047785488306544e-13
 70
     32
  0
VERTEX
  8
MY3DLAYER
10
35.99999999999998
20
25.999999999999996
30
1.8047785488306544e-13
 70
     32
  0
VERTEX
  8
MY3DLAYER
10
35.65925826289065
20
28.588190451025202
30
1.8047785488306544e-13
 70
     32
  0
VERTEX
  8
MY3DLAYER
10
34.660254037844375
20
30.99999999999999
30
1.8047785488306544e-13
 70
     32
  0
VERTEX
  8
MY3DLAYER
10
33.07106781186545
20
33.07106781186545
30
1.8047785488306544e-13
 70
     32
  0
VERTEX
  8
MY3DLAYER
10
30.99999999999999
20
34.660254037844375
30
1.8047785488306544e-13
 70
     32
  0
VERTEX
  8
MY3DLAYER
10
28.588190451025202
20
35.65925826289065
30
1.8047785488306544e-13
 70
     32
  0
VERTEX
  8
MY3DLAYER
10
25.999999999999996
20
35.99999999999998
30
1.8047785488306544e-13
 70
     32
  0
VERTEX
  8
MY3DLAYER
10
23.41180954897479
20
35.65925826289065
30
1.8047785488306544e-13
 70
     32
  0
VERTEX
  8
MY3DLAYER
10
21.000000000000007
20
34.660254037844375
30
1.8047785488306544e-13
 70
     32
  0
VERTEX
  8
MY3DLAYER
10
18.92893218813455
20
33.07106781186545
30
1.8047785488306544e-13
 70
     32
  0
VERTEX
  8
MY3DLAYER
10
17.339745962155618
20
30.99999999999999
30
1.8047785488306544e-13
 70
     32
  0
VERTEX
  8
MY3DLAYER
10
17.215626501150286
20
30.70034911388652
30
1.8047785488306544e-13
 70
     32
  0
VERTEX
  8
MY3DLAYER
10
16.340741737109344
20
28.588190451025202
30
1.8047785488306544e-13
 70
     32
  0
VERTEX
  8
MY3DLAYER
10
16.000000000000014
20
25.999999999999996
30
1.8047785488306544e-13
 70
     32
  0
VERTEX
  8
MY3DLAYER
10
16.340741737109344
20
23.41180954897479
30
1.8047785488306544e-13
 70
     32
  0
VERTEX
  8
MY3DLAYER
10
17.339745962155618
20
21.000000000000007
30
1.8047785488306544e-13
 70
     32
  0
VERTEX
  8
MY3DLAYER
10
0.0
20
21.000000000000007
30
1.8047785488306544e-13
 70
     32
  0
VERTEX
  8
MY3DLAYER
10
0.0
20
338.99999999999994
30
1.8047785488306544e-13
 70
     32
  0
VERTEX
  8
MY3DLAYER
10
17.999999999999968
20
338.99999999999994
30
1.8047785488306544e-13
 70
     32
  0
VERTEX
  8
MY3DLAYER
10
18.102222521132756
20
338.2235428646924
30
1.8047785488306544e-13
 70
     32
  0
VERTEX
  8
MY3DLAYER
10
18.401923788646663
20
337.49999999999994
30
1.8047785488306544e-13
 70
     32
  0
VERTEX
  8
MY3DLAYER
10
18.878679656440315
20
336.8786796564403
30
1.8047785488306544e-13
 70
     32
  0
VERTEX
  8
MY3DLAYER
10
19.499999999999986
20
336.4019237886466
30
1.8047785488306544e-13
 70
     32
  0
VERTEX
  8
MY3DLAYER
10
20.22354286469245
20
336.1022225211328
30
1.8047785488306544e-13
 70
     32
  0
VERTEX
  8
MY3DLAYER
10
21.000000000000007
20
335.99999999999994
30
1.8047785488306544e-13
 70
     32
  0
VERTEX
  8
MY3DLAYER
10
21.776457135307563
20
336.1022225211328
30
1.8047785488306544e-13
 70
     32
  0
VERTEX
  8
MY3DLAYER
10
22.500000000000025
20
336.4019237886466
30
1.8047785488306544e-13
 70
     32
  0
VERTEX
  8
MY3DLAYER
10
23.1213203435597
20
336.8786796564403
30
1.8047785488306544e-13
 70
     32
  0
VERTEX
  8
MY3DLAYER
10
23.59807621135335
20
337.49999999999994
30
1.8047785488306544e-13
 70
     32
  0
VERTEX
  8
MY3DLAYER
10
23.89777747886726
20
338.2235428646924
30
1.8047785488306544e-13
 70
     32
  0
VERTEX
  8
MY3DLAYER
10
24.000000000000046
20
338.99999999999994
30
1.8047785488306544e-13
 70
     32
  0
VERTEX
  8
MY3DLAYER
10
23.89777747886726
20
339.77645713530757
30
1.8047785488306544e-13
 70
     32
  0
VERTEX
  8
MY3DLAYER
10
23.59807621135335
20
340.5
30
1.8047785488306544e-13
 70
     32
  0
VERTEX
  8
MY3DLAYER
10
23.121320343559656
20
341.12132034355966
30
1.8047785488306544e-13
 70
     32
  0
VERTEX
  8
MY3DLAYER
10
22.500000000000025
20
341.5980762113533
30
1.8047785488306544e-13
 70
     32
  0
VERTEX
  8
MY3DLAYER
10
21.776457135307563
20
341.89777747886717
30
1.8047785488306544e-13
 70
     32
  0
VERTEX
  8
MY3DLAYER
10
21.000000000000007
20
342.0
30
1.8047785488306544e-13
 70
     32
  0
VERTEX
  8
MY3DLAYER
10
21.000000000000007
20
360.0
30
1.8047785488306544e-13
 70
     32
  0
VERTEX
  8
MY3DLAYER
10
71.50000000000003
20
360.0
30
2.7071678232459813e-13
 70
     32
  0
VERTEX
  8
MY3DLAYER
10
71.50000000000003
20
344.99999999999994
30
2.7071678232459813e-13
 70
     32
  0
VERTEX
  8
MY3DLAYER
10
76.00000000000004
20
344.99999999999994
30
2.7071678232459813e-13
 70
     32
  0
VERTEX
  8
MY3DLAYER
10
76.00000000000004
20
325.99999999999994
30
1.8047785488306544e-13
 70
     32
  0
VERTEX
  8
MY3DLAYER
10
98.0
20
325.99999999999994
30
1.8047785488306544e-13
 70
     32
  0
VERTEX
  8
MY3DLAYER
10
98.0
20
344.99999999999994
30
1.8047785488306544e-13
 70
     32
  0
VERTEX
  8
MY3DLAYER
10
102.50000000000001
20
344.99999999999994
30
1.8047785488306544e-13
 70
     32
  0
VERTEX
  8
MY3DLAYER
10
102.50000000000001
20
360.0
30
1.8047785488306544e-13
 70
     32
  0
VERTEX
  8
MY3DLAYER
10
138.00000000000003
20
360.0
30
1.8047785488306544e-13
 70
     32
  0
VERTEX
  8
MY3DLAYER
10
138.00000000000003
20
346.5
30
1.8047785488306544e-13
 70
     32
  0
VERTEX
  8
MY3DLAYER
10
138.05111126056644
20
346.1117714323462
30
1.8047785488306544e-13
 70
     32
  0
VERTEX
  8
MY3DLAYER
10
138.20096189432337
20
345.74999999999994
30
1.8047785488306544e-13
 70
     32
  0
VERTEX
  8
MY3DLAYER
10
138.4393398282202
20
345.43933982822017
30
1.8047785488306544e-13
 70
     32
  0
VERTEX
  8
MY3DLAYER
10
138.75000000000003
20
345.2009618943233
30
1.8047785488306544e-13
 70
     32
  0
VERTEX
  8
MY3DLAYER
10
139.11177143234625
20
345.05111126056636
30
1.8047785488306544e-13
 70
     32
  0
VERTEX
  8
MY3DLAYER
10
139.50000000000003
20
344.99999999999994
30
1.8047785488306544e-13
 70
     32
  0
VERTEX
  8
MY3DLAYER
10
240.5
20
344.99999999999994
30
1.8047785488306544e-13
 70
     32
  0
VERTEX
  8
MY3DLAYER
10
240.88822856765378
20
345.05111126056636
30
1.8047785488306544e-13
 70
     32
  0
VERTEX
  8
MY3DLAYER
10
241.25
20
345.2009618943233
30
1.8047785488306544e-13
 70
     32
  0
VERTEX
  8
MY3DLAYER
10
241.5606601717798
20
345.43933982822017
30
1.8047785488306544e-13
 70
     32
  0
VERTEX
  8
MY3DLAYER
10
241.79903810567666
20
345.74999999999994
30
1.8047785488306544e-13
 70
     32
  0
VERTEX
  8
MY3DLAYER
10
241.94888873943358
20
346.1117714323462
30
1.8047785488306544e-13
 70
     32
  0
VERTEX
  8
MY3DLAYER
10
242.0
20
346.5
30
1.8047785488306544e-13
 70
     32
  0
VERTEX
  8
MY3DLAYER
10
242.0
20
360.0
30
1.8047785488306544e-13
 70
     32
  0
VERTEX
  8
MY3DLAYER
10
359.0000000000002
20
360.0
30
1.8047785488306544e-13
 70
     32
  0
VERTEX
  8
MY3DLAYER
10
359.0000000000001
20
342.0
30
1.8047785488306544e-13
 70
     32
  0
VERTEX
  8
MY3DLAYER
10
358.2235428646925
20
341.89777747886717
30
1.8047785488306544e-13
 70
     32
  0
VERTEX
  8
MY3DLAYER
10
357.5000000000001
20
341.5980762113533
30
1.8047785488306544e-13
 70
     32
  0
VERTEX
  8
MY3DLAYER
10
356.8786796564404
20
341.12132034355966
30
1.8047785488306544e-13
 70
     32
  0
VERTEX
  8
MY3DLAYER
10
356.40192378864674
20
340.5
30
1.8047785488306544e-13
 70
     32
  0
VERTEX
  8
MY3DLAYER
10
356.1022225211329
20
339.77645713530757
30
1.8047785488306544e-13
 70
     32
  0
VERTEX
  8
MY3DLAYER
10
356.00000000000006
20
338.99999999999994
30
1.8047785488306544e-13
 70
     32
  0
VERTEX
  8
MY3DLAYER
10
356.1022225211329
20
338.2235428646924
30
1.8047785488306544e-13
 70
     32
  0
VERTEX
  8
MY3DLAYER
10
356.40192378864674
20
337.49999999999994
30
1.8047785488306544e-13
 70
     32
  0
VERTEX
  8
MY3DLAYER
10
356.8786796564404
20
336.8786796564403
30
1.8047785488306544e-13
 70
     32
  0
VERTEX
  8
MY3DLAYER
10
357.5000000000001
20
336.4019237886466
30
1.8047785488306544e-13
 70
     32
  0
VERTEX
  8
MY3DLAYER
10
358.2235428646925
20
336.1022225211328
30
1.8047785488306544e-13
 70
     32
  0
VERTEX
  8
MY3DLAYER
10
359.0000000000001
20
335.99999999999994
30
1.8047785488306544e-13
 70
     32
  0
VERTEX
  8
MY3DLAYER
10
359.77645713530774
20
336.1022225211328
30
1.8047785488306544e-13
 70
     32
  0
VERTEX
  8
MY3DLAYER
10
360.5000000000001
20
336.4019237886466
30
1.8047785488306544e-13
 70
     32
  0
VERTEX
  8
MY3DLAYER
10
361.12132034355983
20
336.8786796564403
30
1.8047785488306544e-13
 70
     32
  0
VERTEX
  8
MY3DLAYER
10
361.59807621135343
20
337.49999999999994
30
1.8047785488306544e-13
 70
     32
  0
VERTEX
  8
MY3DLAYER
10
361.89777747886734
20
338.2235428646924
30
1.8047785488306544e-13
 70
     32
  0
VERTEX
  8
MY3DLAYER
10
362.00000000000017
20
338.99999999999994
30
1.8047785488306544e-13
 70
     32
  0
VERTEX
  8
MY3DLAYER
10
380.0
20
338.99999999999994
30
1.8047785488306544e-13
 70
     32
  0
VERTEX
  8
MY3DLAYER
10
380.0000000000001
20
21.000000000000007
30
1.8047785488306544e-13
 70
     32
  0
VERTEX
  8
MY3DLAYER
10
362.6602540378444
20
21.000000000000007
30
2.7071678232459813e-13
 70
     32
  0
VERTEX
  8
MY3DLAYER
10
363.6592582628907
20
23.41180954897479
30
2.7071678232459813e-13
 70
     32
  0
VERTEX
  8
MY3DLAYER
10
364.00000000000006
20
25.999999999999996
30
2.7071678232459813e-13
 70
     32
  0
VERTEX
  8
MY3DLAYER
10
363.6592582628907
20
28.588190451025202
30
2.7071678232459813e-13
 70
     32
  0
VERTEX
  8
MY3DLAYER
10
362.6602540378444
20
30.99999999999999
30
2.7071678232459813e-13
 70
     32
  0
VERTEX
  8
MY3DLAYER
10
361.0710678118656
20
33.07106781186545
30
2.7071678232459813e-13
 70
     32
  0
VERTEX
  8
MY3DLAYER
10
359.0
20
34.660254037844375
30
2.7071678232459813e-13
 70
     32
  0
VERTEX
  8
MY3DLAYER
10
356.58819045102524
20
35.65925826289065
30
2.7071678232459813e-13
 70
     32
  0
VERTEX
  8
MY3DLAYER
10
354.00000000000006
20
35.99999999999998
30
2.7071678232459813e-13
 70
     32
  0
VERTEX
  8
MY3DLAYER
10
351.4118095489748
20
35.65925826289065
30
2.7071678232459813e-13
 70
     32
  0
VERTEX
  8
MY3DLAYER
10
349.00000000000006
20
34.660254037844375
30
2.7071678232459813e-13
 70
     32
  0
VERTEX
  8
MY3DLAYER
10
346.9289321881346
20
33.07106781186545
30
2.7071678232459813e-13
 70
     32
  0
VERTEX
  8
MY3DLAYER
10
345.33974596215575
20
30.99999999999999
30
2.7071678232459813e-13
 70
     32
  0
VERTEX
  8
MY3DLAYER
10
344.3407417371094
20
28.588190451025202
30
2.7071678232459813e-13
 70
     32
  0
VERTEX
  8
MY3DLAYER
10
344.0000000000001
20
25.999999999999996
30
2.7071678232459813e-13
 70
     32
  0
VERTEX
  8
MY3DLAYER
10
344.3407417371094
20
23.41180954897479
30
2.7071678232459813e-13
 70
     32
  0
VERTEX
  8
MY3DLAYER
10
345.33974596215575
20
21.000000000000007
30
2.7071678232459813e-13
 70
     32
  0
VERTEX
  8
MY3DLAYER
10
346.9289321881346
20
18.92893218813455
30
2.7071678232459813e-13
 70
     32
  0
VERTEX
  8
MY3DLAYER
10
349.0000000000001
20
17.339745962155618
30
2.7071678232459813e-13
 70
     32
  0
VERTEX
  8
MY3DLAYER
10
351.41180954897493
20
16.340741737109344
30
2.7071678232459813e-13
 70
     32
  0
VERTEX
  8
MY3DLAYER
10
354.00000000000006
20
16.000000000000014
30
2.7071678232459813e-13
 70
     32
  0
VERTEX
  8
MY3DLAYER
10
356.58819045102524
20
16.340741737109344
30
2.7071678232459813e-13
 70
     32
  0
VERTEX
  8
MY3DLAYER
10
359.0000000000001
20
17.339745962155618
30
2.7071678232459813e-13
 70
     32
  0
VERTEX
  8
MY3DLAYER
10
359.0000000000001
20
0.0
30
1.8047785488306544e-13
 70
     32
  0
VERTEX
  8
MY3DLAYER
10
21.000000000000007
20
0.0
30
1.8047785488306544e-13
 70
     32
  0
VERTEX
  8
MY3DLAYER
10
21.000000000000007
20
17.339745962155618
30
1.8047785488306544e-13
 70
     32
  0
VERTEX
  8
MY3DLAYER
10
23.41180954897479
20
16.340741737109344
30
1.8047785488306544e-13
 70
     32
  0
VERTEX
  8
MY3DLAYER
10
25.999999999999996
20
16.000000000000014
30
1.8047785488306544e-13
 70
     32
  0
VERTEX
  8
MY3DLAYER
10
28.588190451025202
20
16.340741737109344
30
1.8047785488306544e-13
 70
     32
  0
SEQEND
  0
POLYLINE
 8
Layer0
 66
     1
70
    8
 10
0.0
 20
 0.0
 30
0.0
  0
VERTEX
  8
MY3DLAYER
10
193.89352380645957
20
247.94926119842245
30
5.233857791608897e-12
 70
     32
  0
VERTEX
  8
MY3DLAYER
10
194.19500000008122
20
248.07413672655346
30
5.233857791608897e-12
 70
     32
  0
VERTEX
  8
MY3DLAYER
10
194.45388347656439
20
248.27278500480094
30
5.233857791608897e-12
 70
     32
  0
VERTEX
  8
MY3DLAYER
10
194.6525317548115
20
248.53166848128427
30
5.233857791608897e-12
 70
     32
  0
VERTEX
  8
MY3DLAYER
10
194.77740728294214
20
248.8331446749063
30
5.233857791608897e-12
 70
     32
  0
VERTEX
  8
MY3DLAYER
10
194.82000000008063
20
249.1566684812845
30
5.233857791608897e-12
 70
     32
  0
VERTEX
  8
MY3DLAYER
10
194.77740728294177
20
249.48019228766253
30
5.233857791608897e-12
 70
     32
  0
VERTEX
  8
MY3DLAYER
10
194.65253175481075
20
249.78166848128416
30
5.233857791608897e-12
 70
     32
  0
VERTEX
  8
MY3DLAYER
10
194.45388347656328
20
250.04055195776732
30
5.233857791608897e-12
 70
     32
  0
VERTEX
  8
MY3DLAYER
10
194.19500000007986
20
250.23920023601463
30
5.233857791608897e-12
 70
     32
  0
VERTEX
  8
MY3DLAYER
10
193.89352380645812
20
250.3640757641451
30
5.233857791608897e-12
 70
     32
  0
VERTEX
  8
MY3DLAYER
10
193.57000000007977
20
250.4066684812836
30
5.233857791608897e-12
 70
     32
  0
VERTEX
  8
MY3DLAYER
10
193.24647619370165
20
250.36407576414473
30
5.233857791608897e-12
 70
     32
  0
VERTEX
  8
MY3DLAYER
10
192.94500000008
20
250.2392002360139
30
5.233857791608897e-12
 70
     32
  0
VERTEX
  8
MY3DLAYER
10
192.6861165235969
20
250.04055195776624
30
5.233857791608897e-12
 70
     32
  0
VERTEX
  8
MY3DLAYER
10
192.48746824534973
20
249.78166848128308
30
5.233857791608897e-12
 70
     32
  0
VERTEX
  8
MY3DLAYER
10
192.3625927172191
20
249.48019228766108
30
5.233857791608897e-12
 70
     32
  0
VERTEX
  8
MY3DLAYER
10
192.3200000000806
20
249.15666848128296
30
5.233857791608897e-12
 70
     32
  0
VERTEX
  8
MY3DLAYER
10
192.36259271721948
20
248.83314467490484
30
5.233857791608897e-12
 70
     32
  0
VERTEX
  8
MY3DLAYER
10
192.4874682453505
20
248.53166848128302
30
5.233857791608897e-12
 70
     32
  0
VERTEX
  8
MY3DLAYER
10
192.68611652359792
20
248.27278500479986
30
5.233857791608897e-12
 70
     32
  0
VERTEX
  8
MY3DLAYER
10
192.9450000000813
20
248.07413672655275
30
5.233857791608897e-12
 70
     32
  0
VERTEX
  8
MY3DLAYER
10
193.24647619370313
20
247.94926119842208
30
5.233857791608897e-12
 70
     32
  0
VERTEX
  8
MY3DLAYER
10
193.57000000008125
20
247.90666848128362
30
5.233857791608897e-12
 70
     32
  0
VERTEX
  8
MY3DLAYER
10
193.89352380645957
20
247.94926119842245
30
5.233857791608897e-12
 70
     32
  0
SEQEND
  0
POLYLINE
 8
Layer0
 66
     1
70
    8
 10
0.0
 20
 0.0
 30
0.0
  0
VERTEX
  8
MY3DLAYER
10
215.75000000006438
20
275.750000000131
30
1.8047785488306544e-13
 70
     32
  0
VERTEX
  8
MY3DLAYER
10
215.82666689091423
20
275.16765714865045
30
1.8047785488306544e-13
 70
     32
  0
VERTEX
  8
MY3DLAYER
10
216.05144284154997
20
274.6250000001312
30
1.8047785488306544e-13
 70
     32
  0
VERTEX
  8
MY3DLAYER
10
216.4090097423956
20
274.1590097424617
30
1.8047785488306544e-13
 70
     32
  0
VERTEX
  8
MY3DLAYER
10
216.87500000006554
20
273.8014428416167
30
1.8047785488306544e-13
 70
     32
  0
VERTEX
  8
MY3DLAYER
10
217.417657148585
20
273.5766668909816
30
1.8047785488306544e-13
 70
     32
  0
VERTEX
  8
MY3DLAYER
10
218.00000000006565
20
273.50000000013233
30
1.8047785488306544e-13
 70
     32
  0
VERTEX
  8
MY3DLAYER
10
218.58234285154631
20
273.57666689098227
30
1.8047785488306544e-13
 70
     32
  0
VERTEX
  8
MY3DLAYER
10
219.12500000006557
20
273.80144284161804
30
1.8047785488306544e-13
 70
     32
  0
VERTEX
  8
MY3DLAYER
10
219.59099025773517
20
274.1590097424636
30
1.8047785488306544e-13
 70
     32
  0
VERTEX
  8
MY3DLAYER
10
219.9485571585801
20
274.6250000001335
30
1.8047785488306544e-13
 70
     32
  0
VERTEX
  8
MY3DLAYER
10
220.17333310921512
20
275.167657148653
30
1.8047785488306544e-13
 70
     32
  0
VERTEX
  8
MY3DLAYER
10
220.25000000006443
20
275.75000000013375
30
1.8047785488306544e-13
 70
     32
  0
VERTEX
  8
MY3DLAYER
10
220.17333310921458
20
276.3323428516144
30
1.8047785488306544e-13
 70
     32
  0
VERTEX
  8
MY3DLAYER
10
219.9485571585788
20
276.8750000001336
30
1.8047785488306544e-13
 70
     32
  0
VERTEX
  8
MY3DLAYER
10
219.59099025773318
20
277.34099025780307
30
1.8047785488306544e-13
 70
     32
  0
VERTEX
  8
MY3DLAYER
10
219.12500000006324
20
277.69855715864804
30
1.8047785488306544e-13
 70
     32
  0
VERTEX
  8
MY3DLAYER
10
218.58234285154379
20
277.9233331092832
30
1.8047785488306544e-13
 70
     32
  0
VERTEX
  8
MY3DLAYER
10
218.00000000006295
20
278.0000000001324
30
1.8047785488306544e-13
 70
     32
  0
VERTEX
  8
MY3DLAYER
10
217.41765714858246
20
277.92333310928245
30
1.8047785488306544e-13
 70
     32
  0
VERTEX
  8
MY3DLAYER
10
216.8750000000632
20
277.69855715864674
30
1.8047785488306544e-13
 70
     32
  0
VERTEX
  8
MY3DLAYER
10
216.4090097423936
20
277.3409902578012
30
1.8047785488306544e-13
 70
     32
  0
VERTEX
  8
MY3DLAYER
10
216.0514428415487
20
276.87500000013125
30
1.8047785488306544e-13
 70
     32
  0
VERTEX
  8
MY3DLAYER
10
215.82666689091369
20
276.33234285161177
30
1.8047785488306544e-13
 70
     32
  0
VERTEX
  8
MY3DLAYER
10
215.75000000006438
20
275.750000000131
30
1.8047785488306544e-13
 70
     32
  0
SEQEND
  0
POLYLINE
 8
Layer0
 66
     1
70
    8
 10
0.0
 20
 0.0
 30
0.0
  0
VERTEX
  8
MY3DLAYER
10
198.66999999999925
20
297.4166684812936
30
1.8047785488306544e-13
 70
     32
  0
VERTEX
  8
MY3DLAYER
10
198.7125927171381
20
297.09314467491544
30
1.8047785488306544e-13
 70
     32
  0
VERTEX
  8
MY3DLAYER
10
198.83746824526912
20
296.7916684812938
30
1.8047785488306544e-13
 70
     32
  0
VERTEX
  8
MY3DLAYER
10
199.03611652351657
20
296.53278500481053
30
1.8047785488306544e-13
 70
     32
  0
VERTEX
  8
MY3DLAYER
10
199.29500000000002
20
296.3341367265634
30
1.8047785488306544e-13
 70
     32
  0
VERTEX
  8
MY3DLAYER
10
199.59647619362175
20
296.2092611984327
30
1.8047785488306544e-13
 70
     32
  0
VERTEX
  8
MY3DLAYER
10
199.92000000000013
20
296.1666684812942
30
1.8047785488306544e-13
 70
     32
  0
VERTEX
  8
MY3DLAYER
10
200.24352380637816
20
296.2092611984331
30
1.8047785488306544e-13
 70
     32
  0
VERTEX
  8
MY3DLAYER
10
200.5449999999999
20
296.33413672656417
30
1.8047785488306544e-13
 70
     32
  0
VERTEX
  8
MY3DLAYER
10
200.80388347648298
20
296.53278500481156
30
1.8047785488306544e-13
 70
     32
  0
VERTEX
  8
MY3DLAYER
10
201.0025317547301
20
296.79166848129495
30
1.8047785488306544e-13
 70
     32
  0
VERTEX
  8
MY3DLAYER
10
201.12740728286073
20
297.0931446749169
30
1.8047785488306544e-13
 70
     32
  0
VERTEX
  8
MY3DLAYER
10
201.16999999999922
20
297.4166684812951
30
1.8047785488306544e-13
 70
     32
  0
VERTEX
  8
MY3DLAYER
10
201.1274072828604
20
297.74019228767315
30
1.8047785488306544e-13
 70
     32
  0
VERTEX
  8
MY3DLAYER
10
201.00253175472938
20
298.0416684812949
30
1.8047785488306544e-13
 70
     32
  0
VERTEX
  8
MY3DLAYER
10
200.8038834764819
20
298.3005519577781
30
1.8047785488306544e-13
 70
     32
  0
VERTEX
  8
MY3DLAYER
10
200.54499999999857
20
298.49920023602533
30
1.8047785488306544e-13
 70
     32
  0
VERTEX
  8
MY3DLAYER
10
200.24352380637671
20
298.624075764156
30
1.8047785488306544e-13
 70
     32
  0
VERTEX
  8
MY3DLAYER
10
199.9199999999986
20
298.6666684812944
30
1.8047785488306544e-13
 70
     32
  0
VERTEX
  8
MY3DLAYER
10
199.5964761936203
20
298.6240757641555
30
1.8047785488306544e-13
 70
     32
  0
VERTEX
  8
MY3DLAYER
10
199.29499999999865
20
298.4992002360245
30
1.8047785488306544e-13
 70
     32
  0
VERTEX
  8
MY3DLAYER
10
199.0361165235155
20
298.30055195777715
30
1.8047785488306544e-13
 70
     32
  0
VERTEX
  8
MY3DLAYER
10
198.83746824526838
20
298.0416684812937
30
1.8047785488306544e-13
 70
     32
  0
VERTEX
  8
MY3DLAYER
10
198.71259271713774
20
297.7401922876717
30
1.8047785488306544e-13
 70
     32
  0
VERTEX
  8
MY3DLAYER
10
198.66999999999925
20
297.4166684812936
30
1.8047785488306544e-13
 70
     32
  0
SEQEND
  0
POLYLINE
 8
Layer0
 66
     1
70
    8
 10
0.0
 20
 0.0
 30
0.0
  0
VERTEX
  8
MY3DLAYER
10
117.38999999999918
20
297.41666848115665
30
9.926282018568599e-13
 70
     32
  0
VERTEX
  8
MY3DLAYER
10
117.43259271713804
20
297.09314467477856
30
9.926282018568599e-13
 70
     32
  0
VERTEX
  8
MY3DLAYER
10
117.55746824526895
20
296.7916684811567
30
9.926282018568599e-13
 70
     32
  0
VERTEX
  8
MY3DLAYER
10
117.75611652351655
20
296.53278500467354
30
9.926282018568599e-13
 70
     32
  0
VERTEX
  8
MY3DLAYER
10
118.01499999999976
20
296.33413672642644
30
9.926282018568599e-13
 70
     32
  0
VERTEX
  8
MY3DLAYER
10
118.31647619362177
20
296.2092611982958
30
9.926282018568599e-13
 70
     32
  0
VERTEX
  8
MY3DLAYER
10
118.63999999999989
20
296.16666848115733
30
9.926282018568599e-13
 70
     32
  0
VERTEX
  8
MY3DLAYER
10
118.963523806378
20
296.2092611982962
30
9.926282018568599e-13
 70
     32
  0
VERTEX
  8
MY3DLAYER
10
119.26499999999984
20
296.3341367264272
30
9.926282018568599e-13
 70
     32
  0
VERTEX
  8
MY3DLAYER
10
119.52388347648278
20
296.5327850046747
30
9.926282018568599e-13
 70
     32
  0
VERTEX
  8
MY3DLAYER
10
119.7225317547301
20
296.7916684811578
30
9.926282018568599e-13
 70
     32
  0
VERTEX
  8
MY3DLAYER
10
119.84740728286067
20
297.09314467478
30
9.926282018568599e-13
 70
     32
  0
VERTEX
  8
MY3DLAYER
10
119.88999999999916
20
297.4166684811582
30
9.926282018568599e-13
 70
     32
  0
VERTEX
  8
MY3DLAYER
10
119.84740728286026
20
297.7401922875362
30
9.926282018568599e-13
 70
     32
  0
VERTEX
  8
MY3DLAYER
10
119.72253175472935
20
298.0416684811579
30
9.926282018568599e-13
 70
     32
  0
VERTEX
  8
MY3DLAYER
10
119.52388347648173
20
298.30055195764106
30
9.926282018568599e-13
 70
     32
  0
VERTEX
  8
MY3DLAYER
10
119.26499999999854
20
298.49920023588834
30
9.926282018568599e-13
 70
     32
  0
VERTEX
  8
MY3DLAYER
10
118.96352380637657
20
298.6240757640188
30
9.926282018568599e-13
 70
     32
  0
VERTEX
  8
MY3DLAYER
10
118.63999999999841
20
298.6666684811573
30
9.926282018568599e-13
 70
     32
  0
VERTEX
  8
MY3DLAYER
10
118.31647619362032
20
298.62407576401847
30
9.926282018568599e-13
 70
     32
  0
VERTEX
  8
MY3DLAYER
10
118.01499999999845
20
298.4992002358876
30
9.926282018568599e-13
 70
     32
  0
VERTEX
  8
MY3DLAYER
10
117.75611652351552
20
298.30055195764
30
9.926282018568599e-13
 70
     32
  0
VERTEX
  8
MY3DLAYER
10
117.55746824526818
20
298.04166848115665
30
9.926282018568599e-13
 70
     32
  0
VERTEX
  8
MY3DLAYER
10
117.43259271713762
20
297.7401922875348
30
9.926282018568599e-13
 70
     32
  0
VERTEX
  8
MY3DLAYER
10
117.38999999999918
20
297.41666848115665
30
9.926282018568599e-13
 70
     32
  0
SEQEND
  0
POLYLINE
 8
Layer0
 66
     1
70
    8
 10
0.0
 20
 0.0
 30
0.0
  0
VERTEX
  8
MY3DLAYER
10
97.23075093815508
20
276.043683932426
30
1.8047785488306544e-13
 70
     32
  0
VERTEX
  8
MY3DLAYER
10
97.07872894821345
20
276.6110377227521
30
1.8047785488306544e-13
 70
     32
  0
VERTEX
  8
MY3DLAYER
10
96.78504501571754
20
277.11971321519974
30
1.8047785488306544e-13
 70
     32
  0
VERTEX
  8
MY3DLAYER
10
96.3697132153312
20
277.5350450155847
30
1.8047785488306544e-13
 70
     32
  0
VERTEX
  8
MY3DLAYER
10
95.86103772288254
20
277.82872894807906
30
1.8047785488306544e-13
 70
     32
  0
VERTEX
  8
MY3DLAYER
10
95.29368393255594
20
277.98075093801873
30
1.8047785488306544e-13
 70
     32
  0
VERTEX
  8
MY3DLAYER
10
94.70631606756572
20
277.98075093801776
30
1.8047785488306544e-13
 70
     32
  0
VERTEX
  8
MY3DLAYER
10
94.13896227723964
20
277.82872894807616
30
1.8047785488306544e-13
 70
     32
  0
VERTEX
  8
MY3DLAYER
10
93.63028678479199
20
277.5350450155802
30
1.8047785488306544e-13
 70
     32
  0
VERTEX
  8
MY3DLAYER
10
93.214954984407
20
277.1197132151938
30
1.8047785488306544e-13
 70
     32
  0
VERTEX
  8
MY3DLAYER
10
92.92127105191275
20
276.61103772274527
30
1.8047785488306544e-13
 70
     32
  0
VERTEX
  8
MY3DLAYER
10
92.76924906197297
20
276.0436839324186
30
1.8047785488306544e-13
 70
     32
  0
VERTEX
  8
MY3DLAYER
10
92.76924906197397
20
275.4563160674284
30
1.8047785488306544e-13
 70
     32
  0
VERTEX
  8
MY3DLAYER
10
92.9212710519156
20
274.8889622771024
30
1.8047785488306544e-13
 70
     32
  0
VERTEX
  8
MY3DLAYER
10
93.21495498441152
20
274.38028678465463
30
1.8047785488306544e-13
 70
     32
  0
VERTEX
  8
MY3DLAYER
10
93.63028678479786
20
273.96495498426964
30
1.8047785488306544e-13
 70
     32
  0
VERTEX
  8
MY3DLAYER
10
94.1389622772465
20
273.6712710517754
30
1.8047785488306544e-13
 70
     32
  0
VERTEX
  8
MY3DLAYER
10
94.70631606757313
20
273.51924906183564
30
1.8047785488306544e-13
 70
     32
  0
VERTEX
  8
MY3DLAYER
10
95.29368393256333
20
273.5192490618366
30
1.8047785488306544e-13
 70
     32
  0
VERTEX
  8
MY3DLAYER
10
95.8610377228894
20
273.6712710517783
30
1.8047785488306544e-13
 70
     32
  0
VERTEX
  8
MY3DLAYER
10
96.36971321533706
20
273.9649549842742
30
1.8047785488306544e-13
 70
     32
  0
VERTEX
  8
MY3DLAYER
10
96.78504501572205
20
274.3802867846605
30
1.8047785488306544e-13
 70
     32
  0
VERTEX
  8
MY3DLAYER
10
97.0787289482163
20
274.88896227710916
30
1.8047785488306544e-13
 70
     32
  0
VERTEX
  8
MY3DLAYER
10
97.23075093815608
20
275.4563160674358
30
1.8047785488306544e-13
 70
     32
  0
VERTEX
  8
MY3DLAYER
10
97.23075093815508
20
276.043683932426
30
1.8047785488306544e-13
 70
     32
  0
SEQEND
  0
POLYLINE
 8
Layer0
 66
     1
70
    8
 10
0.0
 20
 0.0
 30
0.0
  0
VERTEX
  8
MY3DLAYER
10
74.12503681783602
20
334.4305981007744
30
0.0
 70
     32
  0
VERTEX
  8
MY3DLAYER
10
74.20000000000005
20
335.0
30
0.0
 70
     32
  0
VERTEX
  8
MY3DLAYER
10
74.20000000000005
20
337.19999999999993
30
0.0
 70
     32
  0
VERTEX
  8
MY3DLAYER
10
74.12503681783602
20
337.7694018992255
30
0.0
 70
     32
  0
VERTEX
  8
MY3DLAYER
10
73.90525588832583
20
338.29999999999995
30
0.0
 70
     32
  0
VERTEX
  8
MY3DLAYER
10
73.55563491861044
20
338.7556349186104
30
0.0
 70
     32
  0
VERTEX
  8
MY3DLAYER
10
73.10000000000002
20
339.1052558883257
30
0.0
 70
     32
  0
VERTEX
  8
MY3DLAYER
10
72.56940189922558
20
339.32503681783584
30
0.0
 70
     32
  0
VERTEX
  8
MY3DLAYER
10
72.00000000000004
20
339.4
30
0.0
 70
     32
  0
VERTEX
  8
MY3DLAYER
10
71.43059810077452
20
339.32503681783584
30
0.0
 70
     32
  0
VERTEX
  8
MY3DLAYER
10
70.90000000000003
20
339.1052558883257
30
0.0
 70
     32
  0
VERTEX
  8
MY3DLAYER
10
70.44436508138966
20
338.7556349186104
30
0.0
 70
     32
  0
VERTEX
  8
MY3DLAYER
10
70.09474411167427
20
338.29999999999995
30
0.0
 70
     32
  0
VERTEX
  8
MY3DLAYER
10
69.87496318216408
20
337.7694018992255
30
0.0
 70
     32
  0
VERTEX
  8
MY3DLAYER
10
69.80000000000005
20
337.19999999999993
30
0.0
 70
     32
  0
VERTEX
  8
MY3DLAYER
10
69.80000000000005
20
335.0
30
0.0
 70
     32
  0
VERTEX
  8
MY3DLAYER
10
69.87496318216408
20
334.4305981007744
30
0.0
 70
     32
  0
VERTEX
  8
MY3DLAYER
10
70.09474411167427
20
333.9
30
0.0
 70
     32
  0
VERTEX
  8
MY3DLAYER
10
70.44436508138966
20
333.44436508138955
30
0.0
 70
     32
  0
VERTEX
  8
MY3DLAYER
10
70.90000000000008
20
333.0947441116742
30
0.0
 70
     32
  0
VERTEX
  8
MY3DLAYER
10
71.43059810077452
20
332.87496318216404
30
0.0
 70
     32
  0
VERTEX
  8
MY3DLAYER
10
72.00000000000004
20
332.8
30
0.0
 70
     32
  0
VERTEX
  8
MY3DLAYER
10
72.56940189922558
20
332.87496318216404
30
0.0
 70
     32
  0
VERTEX
  8
MY3DLAYER
10
73.10000000000007
20
333.0947441116742
30
0.0
 70
     32
  0
VERTEX
  8
MY3DLAYER
10
73.55563491861044
20
333.44436508138955
30
0.0
 70
     32
  0
VERTEX
  8
MY3DLAYER
10
73.90525588832583
20
333.9
30
0.0
 70
     32
  0
VERTEX
  8
MY3DLAYER
10
74.12503681783602
20
334.4305981007744
30
0.0
 70
     32
  0
SEQEND
  0
POLYLINE
 8
Layer0
 66
     1
70
    8
 10
0.0
 20
 0.0
 30
0.0
  0
VERTEX
  8
MY3DLAYER
10
7.488592851648374
20
289.67292951726654
30
1.8047785488306544e-13
 70
     32
  0
VERTEX
  8
MY3DLAYER
10
7.399999999999942
20
288.99999999999994
30
1.8047785488306544e-13
 70
     32
  0
VERTEX
  8
MY3DLAYER
10
7.488592851648374
20
288.3270704827334
30
1.8047785488306544e-13
 70
     32
  0
VERTEX
  8
MY3DLAYER
10
7.7483339501604185
20
287.6999999999999
30
1.8047785488306544e-13
 70
     32
  0
VERTEX
  8
MY3DLAYER
10
8.161522368914918
20
287.161522368915
30
1.8047785488306544e-13
 70
     32
  0
VERTEX
  8
MY3DLAYER
10
8.699999999999962
20
286.7483339501604
30
1.8047785488306544e-13
 70
     32
  0
VERTEX
  8
MY3DLAYER
10
9.327070482733438
20
286.4885928516484
30
1.8047785488306544e-13
 70
     32
  0
VERTEX
  8
MY3DLAYER
10
9.999999999999982
20
286.3999999999999
30
1.8047785488306544e-13
 70
     32
  0
VERTEX
  8
MY3DLAYER
10
10.67292951726657
20
286.4885928516484
30
1.8047785488306544e-13
 70
     32
  0
VERTEX
  8
MY3DLAYER
10
11.300000000000002
20
286.7483339501604
30
1.8047785488306544e-13
 70
     32
  0
VERTEX
  8
MY3DLAYER
10
11.838477631085047
20
287.161522368915
30
1.8047785488306544e-13
 70
     32
  0
VERTEX
  8
MY3DLAYER
10
12.251666049839544
20
287.7
30
1.8047785488306544e-13
 70
     32
  0
VERTEX
  8
MY3DLAYER
10
12.511407148351589
20
288.3270704827334
30
1.8047785488306544e-13
 70
     32
  0
VERTEX
  8
MY3DLAYER
10
12.600000000000023
20
288.99999999999994
30
1.8047785488306544e-13
 70
     32
  0
VERTEX
  8
MY3DLAYER
10
12.511407148351589
20
289.67292951726654
30
1.8047785488306544e-13
 70
     32
  0
VERTEX
  8
MY3DLAYER
10
12.251666049839544
20
290.3
30
1.8047785488306544e-13
 70
     32
  0
VERTEX
  8
MY3DLAYER
10
11.838477631085047
20
290.83847763108497
30
1.8047785488306544e-13
 70
     32
  0
VERTEX
  8
MY3DLAYER
10
11.300000000000002
20
291.25166604983957
30
1.8047785488306544e-13
 70
     32
  0
VERTEX
  8
MY3DLAYER
10
10.672929517266525
20
291.51140714835157
30
1.8047785488306544e-13
 70
     32
  0
VERTEX
  8
MY3DLAYER
10
9.999999999999982
20
291.6
30
1.8047785488306544e-13
 70
     32
  0
VERTEX
  8
MY3DLAYER
10
9.327070482733438
20
291.51140714835157
30
1.8047785488306544e-13
 70
     32
  0
VERTEX
  8
MY3DLAYER
10
8.699999999999962
20
291.25166604983957
30
1.8047785488306544e-13
 70
     32
  0
VERTEX
  8
MY3DLAYER
10
8.161522368914918
20
290.83847763108497
30
1.8047785488306544e-13
 70
     32
  0
VERTEX
  8
MY3DLAYER
10
7.7483339501604185
20
290.29999999999995
30
1.8047785488306544e-13
 70
     32
  0
VERTEX
  8
MY3DLAYER
10
7.488592851648374
20
289.67292951726654
30
1.8047785488306544e-13
 70
     32
  0
SEQEND
  0
POLYLINE
 8
Layer0
 66
     1
70
    8
 10
0.0
 20
 0.0
 30
0.0
  0
VERTEX
  8
MY3DLAYER
10
99.87496318216402
20
337.7694018992255
30
3.6095570976613087e-13
 70
     32
  0
VERTEX
  8
MY3DLAYER
10
99.8
20
337.19999999999993
30
3.6095570976613087e-13
 70
     32
  0
VERTEX
  8
MY3DLAYER
10
99.8
20
335.0
30
3.6095570976613087e-13
 70
     32
  0
VERTEX
  8
MY3DLAYER
10
99.87496318216402
20
334.4305981007744
30
3.6095570976613087e-13
 70
     32
  0
VERTEX
  8
MY3DLAYER
10
100.09474411167422
20
333.9
30
3.6095570976613087e-13
 70
     32
  0
VERTEX
  8
MY3DLAYER
10
100.4443650813896
20
333.44436508138955
30
3.6095570976613087e-13
 70
     32
  0
VERTEX
  8
MY3DLAYER
10
100.90000000000002
20
333.0947441116742
30
3.6095570976613087e-13
 70
     32
  0
VERTEX
  8
MY3DLAYER
10
101.43059810077446
20
332.87496318216404
30
3.6095570976613087e-13
 70
     32
  0
VERTEX
  8
MY3DLAYER
10
102.0
20
332.8
30
3.6095570976613087e-13
 70
     32
  0
VERTEX
  8
MY3DLAYER
10
102.56940189922553
20
332.87496318216404
30
3.6095570976613087e-13
 70
     32
  0
VERTEX
  8
MY3DLAYER
10
103.10000000000001
20
333.0947441116742
30
3.6095570976613087e-13
 70
     32
  0
VERTEX
  8
MY3DLAYER
10
103.55563491861038
20
333.44436508138955
30
3.6095570976613087e-13
 70
     32
  0
VERTEX
  8
MY3DLAYER
10
103.90525588832577
20
333.9
30
3.6095570976613087e-13
 70
     32
  0
VERTEX
  8
MY3DLAYER
10
104.12503681783596
20
334.4305981007744
30
3.6095570976613087e-13
 70
     32
  0
VERTEX
  8
MY3DLAYER
10
104.19999999999999
20
335.0
30
3.6095570976613087e-13
 70
     32
  0
VERTEX
  8
MY3DLAYER
10
104.19999999999999
20
337.19999999999993
30
3.6095570976613087e-13
 70
     32
  0
VERTEX
  8
MY3DLAYER
10
104.12503681783596
20
337.7694018992255
30
3.6095570976613087e-13
 70
     32
  0
VERTEX
  8
MY3DLAYER
10
103.90525588832577
20
338.29999999999995
30
3.6095570976613087e-13
 70
     32
  0
VERTEX
  8
MY3DLAYER
10
103.55563491861038
20
338.7556349186104
30
3.6095570976613087e-13
 70
     32
  0
VERTEX
  8
MY3DLAYER
10
103.09999999999997
20
339.1052558883257
30
3.6095570976613087e-13
 70
     32
  0
VERTEX
  8
MY3DLAYER
10
102.56940189922553
20
339.32503681783584
30
3.6095570976613087e-13
 70
     32
  0
VERTEX
  8
MY3DLAYER
10
102.0
20
339.4
30
3.6095570976613087e-13
 70
     32
  0
VERTEX
  8
MY3DLAYER
10
101.43059810077446
20
339.32503681783584
30
3.6095570976613087e-13
 70
     32
  0
VERTEX
  8
MY3DLAYER
10
100.89999999999998
20
339.1052558883257
30
3.6095570976613087e-13
 70
     32
  0
VERTEX
  8
MY3DLAYER
10
100.4443650813896
20
338.7556349186104
30
3.6095570976613087e-13
 70
     32
  0
VERTEX
  8
MY3DLAYER
10
100.09474411167422
20
338.29999999999995
30
3.6095570976613087e-13
 70
     32
  0
VERTEX
  8
MY3DLAYER
10
99.87496318216402
20
337.7694018992255
30
3.6095570976613087e-13
 70
     32
  0
SEQEND
  0
POLYLINE
 8
Layer0
 66
     1
70
    8
 10
0.0
 20
 0.0
 30
0.0
  0
VERTEX
  8
MY3DLAYER
10
130.8096298039942
20
351.8970666710706
30
2.7071678232459813e-13
 70
     32
  0
VERTEX
  8
MY3DLAYER
10
130.98445554337732
20
351.475
30
2.7071678232459813e-13
 70
     32
  0
VERTEX
  8
MY3DLAYER
10
131.2625631329236
20
351.1125631329236
30
2.7071678232459813e-13
 70
     32
  0
VERTEX
  8
MY3DLAYER
10
131.62500000000006
20
350.8344555433772
30
2.7071678232459813e-13
 70
     32
  0
VERTEX
  8
MY3DLAYER
10
132.04706667107067
20
350.6596298039942
30
2.7071678232459813e-13
 70
     32
  0
VERTEX
  8
MY3DLAYER
10
132.50000000000006
20
350.6
30
2.7071678232459813e-13
 70
     32
  0
VERTEX
  8
MY3DLAYER
10
132.95293332892945
20
350.6596298039942
30
2.7071678232459813e-13
 70
     32
  0
VERTEX
  8
MY3DLAYER
10
133.37500000000003
20
350.8344555433772
30
2.7071678232459813e-13
 70
     32
  0
VERTEX
  8
MY3DLAYER
10
133.7374368670765
20
351.1125631329236
30
2.7071678232459813e-13
 70
     32
  0
VERTEX
  8
MY3DLAYER
10
134.01554445662276
20
351.475
30
2.7071678232459813e-13
 70
     32
  0
VERTEX
  8
MY3DLAYER
10
134.1903701960059
20
351.8970666710706
30
2.7071678232459813e-13
 70
     32
  0
VERTEX
  8
MY3DLAYER
10
134.25
20
352.35
30
2.7071678232459813e-13
 70
     32
  0
VERTEX
  8
MY3DLAYER
10
134.1903701960059
20
352.8029333289294
30
2.7071678232459813e-13
 70
     32
  0
VERTEX
  8
MY3DLAYER
10
134.01554445662276
20
353.22499999999997
30
2.7071678232459813e-13
 70
     32
  0
VERTEX
  8
MY3DLAYER
10
133.7374368670765
20
353.5874368670764
30
2.7071678232459813e-13
 70
     32
  0
VERTEX
  8
MY3DLAYER
10
133.37500000000003
20
353.8655444566228
30
2.7071678232459813e-13
 70
     32
  0
VERTEX
  8
MY3DLAYER
10
132.95293332892945
20
354.04037019600577
30
2.7071678232459813e-13
 70
     32
  0
VERTEX
  8
MY3DLAYER
10
132.50000000000006
20
354.09999999999997
30
2.7071678232459813e-13
 70
     32
  0
VERTEX
  8
MY3DLAYER
10
132.04706667107067
20
354.04037019600577
30
2.7071678232459813e-13
 70
     32
  0
VERTEX
  8
MY3DLAYER
10
131.62500000000006
20
353.8655444566228
30
2.7071678232459813e-13
 70
     32
  0
VERTEX
  8
MY3DLAYER
10
131.2625631329236
20
353.5874368670764
30
2.7071678232459813e-13
 70
     32
  0
VERTEX
  8
MY3DLAYER
10
130.98445554337732
20
353.22499999999997
30
2.7071678232459813e-13
 70
     32
  0
VERTEX
  8
MY3DLAYER
10
130.8096298039942
20
352.8029333289294
30
2.7071678232459813e-13
 70
     32
  0
VERTEX
  8
MY3DLAYER
10
130.75000000000009
20
352.35
30
2.7071678232459813e-13
 70
     32
  0
VERTEX
  8
MY3DLAYER
10
130.8096298039942
20
351.8970666710706
30
2.7071678232459813e-13
 70
     32
  0
SEQEND
  0
POLYLINE
 8
Layer0
 66
     1
70
    8
 10
0.0
 20
 0.0
 30
0.0
  0
VERTEX
  8
MY3DLAYER
10
118.96352380645806
20
250.36407576401868
30
1.8047785488306544e-13
 70
     32
  0
VERTEX
  8
MY3DLAYER
10
118.64000000007984
20
250.40666848115714
30
1.8047785488306544e-13
 70
     32
  0
VERTEX
  8
MY3DLAYER
10
118.31647619370163
20
250.3640757640183
30
1.8047785488306544e-13
 70
     32
  0
VERTEX
  8
MY3DLAYER
10
118.01500000007998
20
250.23920023588747
30
1.8047785488306544e-13
 70
     32
  0
VERTEX
  8
MY3DLAYER
10
117.75611652359687
20
250.04055195763982
30
1.8047785488306544e-13
 70
     32
  0
VERTEX
  8
MY3DLAYER
10
117.55746824534972
20
249.78166848115666
30
1.8047785488306544e-13
 70
     32
  0
VERTEX
  8
MY3DLAYER
10
117.43259271721907
20
249.48019228753466
30
1.8047785488306544e-13
 70
     32
  0
VERTEX
  8
MY3DLAYER
10
117.39000000008058
20
249.15666848115654
30
1.8047785488306544e-13
 70
     32
  0
VERTEX
  8
MY3DLAYER
10
117.43259271721946
20
248.83314467477842
30
1.8047785488306544e-13
 70
     32
  0
VERTEX
  8
MY3DLAYER
10
117.55746824535049
20
248.5316684811566
30
1.8047785488306544e-13
 70
     32
  0
VERTEX
  8
MY3DLAYER
10
117.75611652359791
20
248.27278500467344
30
1.8047785488306544e-13
 70
     32
  0
VERTEX
  8
MY3DLAYER
10
118.01500000008129
20
248.07413672642633
30
1.8047785488306544e-13
 70
     32
  0
VERTEX
  8
MY3DLAYER
10
118.31647619370307
20
247.94926119829566
30
1.8047785488306544e-13
 70
     32
  0
VERTEX
  8
MY3DLAYER
10
118.64000000008133
20
247.90666848115717
30
1.8047785488306544e-13
 70
     32
  0
VERTEX
  8
MY3DLAYER
10
118.9635238064595
20
247.94926119829603
30
1.8047785488306544e-13
 70
     32
  0
VERTEX
  8
MY3DLAYER
10
119.26500000008119
20
248.07413672642704
30
1.8047785488306544e-13
 70
     32
  0
VERTEX
  8
MY3DLAYER
10
119.52388347656431
20
248.27278500467452
30
1.8047785488306544e-13
 70
     32
  0
VERTEX
  8
MY3DLAYER
10
119.72253175481146
20
248.53166848115785
30
1.8047785488306544e-13
 70
     32
  0
VERTEX
  8
MY3DLAYER
10
119.84740728294211
20
248.83314467477985
30
1.8047785488306544e-13
 70
     32
  0
VERTEX
  8
MY3DLAYER
10
119.89000000008055
20
249.15666848115808
30
1.8047785488306544e-13
 70
     32
  0
VERTEX
  8
MY3DLAYER
10
119.8474072829417
20
249.4801922875361
30
1.8047785488306544e-13
 70
     32
  0
VERTEX
  8
MY3DLAYER
10
119.72253175481069
20
249.78166848115774
30
1.8047785488306544e-13
 70
     32
  0
VERTEX
  8
MY3DLAYER
10
119.52388347656323
20
250.0405519576409
30
1.8047785488306544e-13
 70
     32
  0
VERTEX
  8
MY3DLAYER
10
119.26500000007988
20
250.2392002358882
30
1.8047785488306544e-13
 70
     32
  0
VERTEX
  8
MY3DLAYER
10
118.96352380645806
20
250.36407576401868
30
1.8047785488306544e-13
 70
     32
  0
SEQEND
  0
POLYLINE
 8
Layer0
 66
     1
70
    8
 10
0.0
 20
 0.0
 30
0.0
  0
VERTEX
  8
MY3DLAYER
10
173.48552473520482
20
29.450000000082685
30
2.7071678232459813e-13
 70
     32
  0
VERTEX
  8
MY3DLAYER
10
173.32568405919739
20
29.064110472246696
30
2.7071678232459813e-13
 70
     32
  0
VERTEX
  8
MY3DLAYER
10
173.2711653812599
20
28.650000000082684
30
2.7071678232459813e-13
 70
     32
  0
VERTEX
  8
MY3DLAYER
10
173.32568405919739
20
28.23588952791863
30
2.7071678232459813e-13
 70
     32
  0
VERTEX
  8
MY3DLAYER
10
173.48552473520482
20
27.850000000082687
30
2.7071678232459813e-13
 70
     32
  0
VERTEX
  8
MY3DLAYER
10
173.73979453136144
20
27.518629150184214
30
2.7071678232459813e-13
 70
     32
  0
VERTEX
  8
MY3DLAYER
10
174.0711653812599
20
27.2643593540276
30
2.7071678232459813e-13
 70
     32
  0
VERTEX
  8
MY3DLAYER
10
174.45705490909583
20
27.10451867802016
30
2.7071678232459813e-13
 70
     32
  0
VERTEX
  8
MY3DLAYER
10
174.87116538125989
20
27.050000000082687
30
2.7071678232459813e-13
 70
     32
  0
VERTEX
  8
MY3DLAYER
10
175.28527585342394
20
27.10451867802016
30
2.7071678232459813e-13
 70
     32
  0
VERTEX
  8
MY3DLAYER
10
175.6711653812599
20
27.2643593540276
30
2.7071678232459813e-13
 70
     32
  0
VERTEX
  8
MY3DLAYER
10
176.00253623115836
20
27.518629150184214
30
2.7071678232459813e-13
 70
     32
  0
VERTEX
  8
MY3DLAYER
10
176.25680602731498
20
27.850000000082687
30
2.7071678232459813e-13
 70
     32
  0
VERTEX
  8
MY3DLAYER
10
176.4166467033224
20
28.23588952791863
30
2.7071678232459813e-13
 70
     32
  0
VERTEX
  8
MY3DLAYER
10
176.4711653812599
20
28.650000000082684
30
2.7071678232459813e-13
 70
     32
  0
VERTEX
  8
MY3DLAYER
10
176.4166467033224
20
29.06411047224674
30
2.7071678232459813e-13
 70
     32
  0
VERTEX
  8
MY3DLAYER
10
176.25680602731498
20
29.450000000082685
30
2.7071678232459813e-13
 70
     32
  0
VERTEX
  8
MY3DLAYER
10
176.00253623115836
20
29.781370849981155
30
2.7071678232459813e-13
 70
     32
  0
VERTEX
  8
MY3DLAYER
10
175.6711653812599
20
30.03564064613777
30
2.7071678232459813e-13
 70
     32
  0
VERTEX
  8
MY3DLAYER
10
175.2852758534239
20
30.19548132214521
30
2.7071678232459813e-13
 70
     32
  0
VERTEX
  8
MY3DLAYER
10
174.87116538125989
20
30.250000000082682
30
2.7071678232459813e-13
 70
     32
  0
VERTEX
  8
MY3DLAYER
10
174.45705490909583
20
30.19548132214521
30
2.7071678232459813e-13
 70
     32
  0
VERTEX
  8
MY3DLAYER
10
174.0711653812599
20
30.03564064613777
30
2.7071678232459813e-13
 70
     32
  0
VERTEX
  8
MY3DLAYER
10
173.73979453136144
20
29.781370849981155
30
2.7071678232459813e-13
 70
     32
  0
VERTEX
  8
MY3DLAYER
10
173.48552473520482
20
29.450000000082685
30
2.7071678232459813e-13
 70
     32
  0
SEQEND
  0
POLYLINE
 8
Layer0
 66
     1
70
    8
 10
0.0
 20
 0.0
 30
0.0
  0
VERTEX
  8
MY3DLAYER
10
205.8711653812598
20
27.050000000082687
30
2.7071678232459813e-13
 70
     32
  0
VERTEX
  8
MY3DLAYER
10
206.28527585342385
20
27.10451867802016
30
2.7071678232459813e-13
 70
     32
  0
VERTEX
  8
MY3DLAYER
10
206.67116538125978
20
27.2643593540276
30
2.7071678232459813e-13
 70
     32
  0
VERTEX
  8
MY3DLAYER
10
207.0025362311583
20
27.518629150184214
30
2.7071678232459813e-13
 70
     32
  0
VERTEX
  8
MY3DLAYER
10
207.25680602731492
20
27.850000000082687
30
2.7071678232459813e-13
 70
     32
  0
VERTEX
  8
MY3DLAYER
10
207.41664670332236
20
28.23588952791863
30
2.7071678232459813e-13
 70
     32
  0
VERTEX
  8
MY3DLAYER
10
207.4711653812598
20
28.650000000082684
30
2.7071678232459813e-13
 70
     32
  0
VERTEX
  8
MY3DLAYER
10
207.41664670332236
20
29.06411047224674
30
2.7071678232459813e-13
 70
     32
  0
VERTEX
  8
MY3DLAYER
10
207.25680602731492
20
29.450000000082685
30
2.7071678232459813e-13
 70
     32
  0
VERTEX
  8
MY3DLAYER
10
207.0025362311583
20
29.781370849981155
30
2.7071678232459813e-13
 70
     32
  0
VERTEX
  8
MY3DLAYER
10
206.67116538125978
20
30.03564064613777
30
2.7071678232459813e-13
 70
     32
  0
VERTEX
  8
MY3DLAYER
10
206.28527585342385
20
30.19548132214521
30
2.7071678232459813e-13
 70
     32
  0
VERTEX
  8
MY3DLAYER
10
205.8711653812598
20
30.250000000082682
30
2.7071678232459813e-13
 70
     32
  0
VERTEX
  8
MY3DLAYER
10
205.45705490909592
20
30.19548132214521
30
2.7071678232459813e-13
 70
     32
  0
VERTEX
  8
MY3DLAYER
10
205.07116538126
20
30.03564064613777
30
2.7071678232459813e-13
 70
     32
  0
VERTEX
  8
MY3DLAYER
10
204.73979453136138
20
29.781370849981155
30
2.7071678232459813e-13
 70
     32
  0
VERTEX
  8
MY3DLAYER
10
204.48552473520476
20
29.450000000082685
30
2.7071678232459813e-13
 70
     32
  0
VERTEX
  8
MY3DLAYER
10
204.3256840591975
20
29.064110472246696
30
2.7071678232459813e-13
 70
     32
  0
VERTEX
  8
MY3DLAYER
10
204.2711653812599
20
28.650000000082684
30
2.7071678232459813e-13
 70
     32
  0
VERTEX
  8
MY3DLAYER
10
204.3256840591975
20
28.23588952791863
30
2.7071678232459813e-13
 70
     32
  0
VERTEX
  8
MY3DLAYER
10
204.48552473520476
20
27.850000000082687
30
2.7071678232459813e-13
 70
     32
  0
VERTEX
  8
MY3DLAYER
10
204.73979453136138
20
27.518629150184214
30
2.7071678232459813e-13
 70
     32
  0
VERTEX
  8
MY3DLAYER
10
205.07116538126
20
27.2643593540276
30
2.7071678232459813e-13
 70
     32
  0
VERTEX
  8
MY3DLAYER
10
205.45705490909592
20
27.10451867802016
30
2.7071678232459813e-13
 70
     32
  0
VERTEX
  8
MY3DLAYER
10
205.8711653812598
20
27.050000000082687
30
2.7071678232459813e-13
 70
     32
  0
SEQEND
  0
POLYLINE
 8
Layer0
 66
     1
70
    8
 10
0.0
 20
 0.0
 30
0.0
  0
VERTEX
  8
MY3DLAYER
10
207.0025362311583
20
58.5186291501842
30
1.8047785488306544e-13
 70
     32
  0
VERTEX
  8
MY3DLAYER
10
207.25680602731492
20
58.85000000008267
30
1.8047785488306544e-13
 70
     32
  0
VERTEX
  8
MY3DLAYER
10
207.41664670332236
20
59.235889527918616
30
1.8047785488306544e-13
 70
     32
  0
VERTEX
  8
MY3DLAYER
10
207.4711653812598
20
59.65000000008267
30
1.8047785488306544e-13
 70
     32
  0
VERTEX
  8
MY3DLAYER
10
207.41664670332236
20
60.064110472246725
30
1.8047785488306544e-13
 70
     32
  0
VERTEX
  8
MY3DLAYER
10
207.25680602731492
20
60.450000000082674
30
1.8047785488306544e-13
 70
     32
  0
VERTEX
  8
MY3DLAYER
10
207.0025362311583
20
60.781370849981144
30
1.8047785488306544e-13
 70
     32
  0
VERTEX
  8
MY3DLAYER
10
206.67116538125978
20
61.03564064613776
30
1.8047785488306544e-13
 70
     32
  0
VERTEX
  8
MY3DLAYER
10
206.28527585342385
20
61.1954813221452
30
1.8047785488306544e-13
 70
     32
  0
VERTEX
  8
MY3DLAYER
10
205.8711653812598
20
61.25000000008267
30
1.8047785488306544e-13
 70
     32
  0
VERTEX
  8
MY3DLAYER
10
205.45705490909592
20
61.1954813221452
30
1.8047785488306544e-13
 70
     32
  0
VERTEX
  8
MY3DLAYER
10
205.07116538126
20
61.03564064613776
30
1.8047785488306544e-13
 70
     32
  0
VERTEX
  8
MY3DLAYER
10
204.73979453136138
20
60.781370849981144
30
1.8047785488306544e-13
 70
     32
  0
VERTEX
  8
MY3DLAYER
10
204.48552473520476
20
60.450000000082674
30
1.8047785488306544e-13
 70
     32
  0
VERTEX
  8
MY3DLAYER
10
204.3256840591975
20
60.06411047224668
30
1.8047785488306544e-13
 70
     32
  0
VERTEX
  8
MY3DLAYER
10
204.2711653812599
20
59.65000000008267
30
1.8047785488306544e-13
 70
     32
  0
VERTEX
  8
MY3DLAYER
10
204.3256840591975
20
59.235889527918616
30
1.8047785488306544e-13
 70
     32
  0
VERTEX
  8
MY3DLAYER
10
204.48552473520476
20
58.85000000008267
30
1.8047785488306544e-13
 70
     32
  0
VERTEX
  8
MY3DLAYER
10
204.73979453136138
20
58.5186291501842
30
1.8047785488306544e-13
 70
     32
  0
VERTEX
  8
MY3DLAYER
10
205.07116538126
20
58.26435935402759
30
1.8047785488306544e-13
 70
     32
  0
VERTEX
  8
MY3DLAYER
10
205.45705490909592
20
58.10451867802015
30
1.8047785488306544e-13
 70
     32
  0
VERTEX
  8
MY3DLAYER
10
205.8711653812598
20
58.050000000082676
30
1.8047785488306544e-13
 70
     32
  0
VERTEX
  8
MY3DLAYER
10
206.28527585342385
20
58.10451867802015
30
1.8047785488306544e-13
 70
     32
  0
VERTEX
  8
MY3DLAYER
10
206.67116538125978
20
58.26435935402759
30
1.8047785488306544e-13
 70
     32
  0
VERTEX
  8
MY3DLAYER
10
207.0025362311583
20
58.5186291501842
30
1.8047785488306544e-13
 70
     32
  0
SEQEND
  0
POLYLINE
 8
Layer0
 66
     1
70
    8
 10
0.0
 20
 0.0
 30
0.0
  0
VERTEX
  8
MY3DLAYER
10
176.4482038132129
20
47.77346663151802
30
1.8047785488306544e-13
 70
     32
  0
VERTEX
  8
MY3DLAYER
10
175.97116538125988
20
44.15000000008273
30
1.8047785488306544e-13
 70
     32
  0
VERTEX
  8
MY3DLAYER
10
176.4482038132129
20
40.52653336864743
30
1.8047785488306544e-13
 70
     32
  0
VERTEX
  8
MY3DLAYER
10
177.84680972827775
20
37.150000000082734
30
1.8047785488306544e-13
 70
     32
  0
VERTEX
  8
MY3DLAYER
10
180.0716704446482
20
34.25050506347103
30
1.8047785488306544e-13
 70
     32
  0
VERTEX
  8
MY3DLAYER
10
182.97116538125982
20
32.02564434710057
30
1.8047785488306544e-13
 70
     32
  0
VERTEX
  8
MY3DLAYER
10
186.34769874982456
20
30.62703843203574
30
1.8047785488306544e-13
 70
     32
  0
VERTEX
  8
MY3DLAYER
10
189.97116538125994
20
30.150000000082706
30
1.8047785488306544e-13
 70
     32
  0
VERTEX
  8
MY3DLAYER
10
193.59463201269514
20
30.62703843203574
30
1.8047785488306544e-13
 70
     32
  0
VERTEX
  8
MY3DLAYER
10
196.97116538125982
20
32.02564434710057
30
1.8047785488306544e-13
 70
     32
  0
VERTEX
  8
MY3DLAYER
10
199.87066031787106
20
34.25050506347103
30
1.8047785488306544e-13
 70
     32
  0
VERTEX
  8
MY3DLAYER
10
202.09552103424178
20
37.15000000008269
30
1.8047785488306544e-13
 70
     32
  0
VERTEX
  8
MY3DLAYER
10
203.49412694930643
20
40.52653336864743
30
1.8047785488306544e-13
 70
     32
  0
VERTEX
  8
MY3DLAYER
10
203.9711653812596
20
44.15000000008273
30
1.8047785488306544e-13
 70
     32
  0
VERTEX
  8
MY3DLAYER
10
203.49412694930643
20
47.77346663151802
30
1.8047785488306544e-13
 70
     32
  0
VERTEX
  8
MY3DLAYER
10
202.09552103424178
20
51.15000000008271
30
1.8047785488306544e-13
 70
     32
  0
VERTEX
  8
MY3DLAYER
10
199.87066031787106
20
54.049494936694416
30
1.8047785488306544e-13
 70
     32
  0
VERTEX
  8
MY3DLAYER
10
196.97116538125982
20
56.27435565306489
30
1.8047785488306544e-13
 70
     32
  0
VERTEX
  8
MY3DLAYER
10
193.59463201269514
20
57.67296156812971
30
1.8047785488306544e-13
 70
     32
  0
VERTEX
  8
MY3DLAYER
10
189.97116538125994
20
58.15000000008274
30
1.8047785488306544e-13
 70
     32
  0
VERTEX
  8
MY3DLAYER
10
186.34769874982456
20
57.67296156812971
30
1.8047785488306544e-13
 70
     32
  0
VERTEX
  8
MY3DLAYER
10
182.9711653812599
20
56.27435565306489
30
1.8047785488306544e-13
 70
     32
  0
VERTEX
  8
MY3DLAYER
10
180.0716704446482
20
54.049494936694416
30
1.8047785488306544e-13
 70
     32
  0
VERTEX
  8
MY3DLAYER
10
177.84680972827775
20
51.150000000082755
30
1.8047785488306544e-13
 70
     32
  0
VERTEX
  8
MY3DLAYER
10
176.4482038132129
20
47.77346663151802
30
1.8047785488306544e-13
 70
     32
  0
SEQEND
  0
POLYLINE
 8
Layer0
 66
     1
70
    8
 10
0.0
 20
 0.0
 30
0.0
  0
VERTEX
  8
MY3DLAYER
10
173.27116538125995
20
59.65000000008267
30
9.023892744153272e-14
 70
     32
  0
VERTEX
  8
MY3DLAYER
10
173.3256840591974
20
59.235889527918616
30
9.023892744153272e-14
 70
     32
  0
VERTEX
  8
MY3DLAYER
10
173.48552473520485
20
58.85000000008267
30
9.023892744153272e-14
 70
     32
  0
VERTEX
  8
MY3DLAYER
10
173.73979453136147
20
58.5186291501842
30
9.023892744153272e-14
 70
     32
  0
VERTEX
  8
MY3DLAYER
10
174.07116538125996
20
58.26435935402759
30
9.023892744153272e-14
 70
     32
  0
VERTEX
  8
MY3DLAYER
10
174.4570549090959
20
58.10451867802015
30
9.023892744153272e-14
 70
     32
  0
VERTEX
  8
MY3DLAYER
10
174.87116538125994
20
58.050000000082676
30
9.023892744153272e-14
 70
     32
  0
VERTEX
  8
MY3DLAYER
10
175.285275853424
20
58.10451867802015
30
9.023892744153272e-14
 70
     32
  0
VERTEX
  8
MY3DLAYER
10
175.67116538125995
20
58.26435935402759
30
9.023892744153272e-14
 70
     32
  0
VERTEX
  8
MY3DLAYER
10
176.00253623115842
20
58.5186291501842
30
9.023892744153272e-14
 70
     32
  0
VERTEX
  8
MY3DLAYER
10
176.25680602731504
20
58.85000000008267
30
9.023892744153272e-14
 70
     32
  0
VERTEX
  8
MY3DLAYER
10
176.41664670332247
20
59.235889527918616
30
9.023892744153272e-14
 70
     32
  0
VERTEX
  8
MY3DLAYER
10
176.47116538125994
20
59.65000000008267
30
9.023892744153272e-14
 70
     32
  0
VERTEX
  8
MY3DLAYER
10
176.41664670332247
20
60.064110472246725
30
9.023892744153272e-14
 70
     32
  0
VERTEX
  8
MY3DLAYER
10
176.25680602731504
20
60.450000000082674
30
9.023892744153272e-14
 70
     32
  0
VERTEX
  8
MY3DLAYER
10
176.00253623115842
20
60.781370849981144
30
9.023892744153272e-14
 70
     32
  0
VERTEX
  8
MY3DLAYER
10
175.67116538125995
20
61.03564064613776
30
9.023892744153272e-14
 70
     32
  0
VERTEX
  8
MY3DLAYER
10
175.28527585342394
20
61.1954813221452
30
9.023892744153272e-14
 70
     32
  0
VERTEX
  8
MY3DLAYER
10
174.87116538125994
20
61.25000000008267
30
9.023892744153272e-14
 70
     32
  0
VERTEX
  8
MY3DLAYER
10
174.4570549090959
20
61.1954813221452
30
9.023892744153272e-14
 70
     32
  0
VERTEX
  8
MY3DLAYER
10
174.07116538125996
20
61.03564064613776
30
9.023892744153272e-14
 70
     32
  0
VERTEX
  8
MY3DLAYER
10
173.73979453136147
20
60.781370849981144
30
9.023892744153272e-14
 70
     32
  0
VERTEX
  8
MY3DLAYER
10
173.48552473520485
20
60.450000000082674
30
9.023892744153272e-14
 70
     32
  0
VERTEX
  8
MY3DLAYER
10
173.3256840591974
20
60.06411047224668
30
9.023892744153272e-14
 70
     32
  0
VERTEX
  8
MY3DLAYER
10
173.27116538125995
20
59.65000000008267
30
9.023892744153272e-14
 70
     32
  0
SEQEND
  0
POLYLINE
 8
Layer0
 66
     1
70
    8
 10
0.0
 20
 0.0
 30
0.0
  0
VERTEX
  8
MY3DLAYER
10
250.09324035455361
20
45.457036177851606
30
9.023892744153272e-14
 70
     32
  0
VERTEX
  8
MY3DLAYER
10
249.92116577731483
20
44.15000000008367
30
9.023892744153272e-14
 70
     32
  0
VERTEX
  8
MY3DLAYER
10
250.0932403545564
20
42.8429638223161
30
9.023892744153272e-14
 70
     32
  0
VERTEX
  8
MY3DLAYER
10
250.59773748820618
20
41.625000000084384
30
9.023892744153272e-14
 70
     32
  0
VERTEX
  8
MY3DLAYER
10
251.4002765323266
20
40.57911075509319
30
9.023892744153272e-14
 70
     32
  0
VERTEX
  8
MY3DLAYER
10
252.4461657773195
20
39.776571710974935
30
9.023892744153272e-14
 70
     32
  0
VERTEX
  8
MY3DLAYER
10
253.66412959955235
20
39.27207457732788
30
9.023892744153272e-14
 70
     32
  0
VERTEX
  8
MY3DLAYER
10
254.97116577732027
20
39.10000000008906
30
9.023892744153272e-14
 70
     32
  0
VERTEX
  8
MY3DLAYER
10
256.27820195508787
20
39.27207457733068
30
9.023892744153272e-14
 70
     32
  0
VERTEX
  8
MY3DLAYER
10
257.4961657773195
20
39.77657171098035
30
9.023892744153272e-14
 70
     32
  0
VERTEX
  8
MY3DLAYER
10
258.5420550223108
20
40.57911075510082
30
9.023892744153272e-14
 70
     32
  0
VERTEX
  8
MY3DLAYER
10
259.34459406642895
20
41.62500000009376
30
9.023892744153272e-14
 70
     32
  0
VERTEX
  8
MY3DLAYER
10
259.8490912000761
20
42.84296382232657
30
9.023892744153272e-14
 70
     32
  0
VERTEX
  8
MY3DLAYER
10
260.0211657773149
20
44.1500000000945
30
9.023892744153272e-14
 70
     32
  0
VERTEX
  8
MY3DLAYER
10
259.8490912000733
20
45.45703617786207
30
9.023892744153272e-14
 70
     32
  0
VERTEX
  8
MY3DLAYER
10
259.34459406642355
20
46.67500000009379
30
9.023892744153272e-14
 70
     32
  0
VERTEX
  8
MY3DLAYER
10
258.54205502230315
20
47.72088924508498
30
9.023892744153272e-14
 70
     32
  0
VERTEX
  8
MY3DLAYER
10
257.4961657773101
20
48.52342828920324
30
9.023892744153272e-14
 70
     32
  0
VERTEX
  8
MY3DLAYER
10
256.2782019550774
20
49.027925422850295
30
9.023892744153272e-14
 70
     32
  0
VERTEX
  8
MY3DLAYER
10
254.97116577730944
20
49.20000000008911
30
9.023892744153272e-14
 70
     32
  0
VERTEX
  8
MY3DLAYER
10
253.66412959954187
20
49.027925422847495
30
9.023892744153272e-14
 70
     32
  0
VERTEX
  8
MY3DLAYER
10
252.4461657773102
20
48.523428289197824
30
9.023892744153272e-14
 70
     32
  0
VERTEX
  8
MY3DLAYER
10
251.4002765323189
20
47.72088924507735
30
9.023892744153272e-14
 70
     32
  0
VERTEX
  8
MY3DLAYER
10
250.59773748820075
20
46.67500000008441
30
9.023892744153272e-14
 70
     32
  0
VERTEX
  8
MY3DLAYER
10
250.09324035455361
20
45.457036177851606
30
9.023892744153272e-14
 70
     32
  0
SEQEND
  0
POLYLINE
 8
Layer0
 66
     1
70
    8
 10
0.0
 20
 0.0
 30
0.0
  0
VERTEX
  8
MY3DLAYER
10
124.31200766170883
20
49.15679654988611
30
2.7071678232459813e-13
 70
     32
  0
VERTEX
  8
MY3DLAYER
10
123.03861359897675
20
48.81559163912901
30
2.7071678232459813e-13
 70
     32
  0
VERTEX
  8
MY3DLAYER
10
121.89691971592713
20
48.15643436841651
30
2.7071678232459813e-13
 70
     32
  0
VERTEX
  8
MY3DLAYER
10
120.96473056395142
20
47.22424521643882
30
2.7071678232459813e-13
 70
     32
  0
VERTEX
  8
MY3DLAYER
10
120.30557329324141
20
46.082551333387805
30
2.7071678232459813e-13
 70
     32
  0
VERTEX
  8
MY3DLAYER
10
119.96436838248701
20
44.80915727065499
30
2.7071678232459813e-13
 70
     32
  0
VERTEX
  8
MY3DLAYER
10
119.9643683824884
20
43.490842729232476
30
2.7071678232459813e-13
 70
     32
  0
VERTEX
  8
MY3DLAYER
10
120.30557329324552
20
42.21744866650039
30
2.7071678232459813e-13
 70
     32
  0
VERTEX
  8
MY3DLAYER
10
120.96473056395801
20
41.07575478345077
30
2.7071678232459813e-13
 70
     32
  0
VERTEX
  8
MY3DLAYER
10
121.8969197159357
20
40.14356563147506
30
2.7071678232459813e-13
 70
     32
  0
VERTEX
  8
MY3DLAYER
10
123.03861359898671
20
39.484408360765045
30
2.7071678232459813e-13
 70
     32
  0
VERTEX
  8
MY3DLAYER
10
124.31200766171952
20
39.14320345001065
30
2.7071678232459813e-13
 70
     32
  0
VERTEX
  8
MY3DLAYER
10
125.63032220314204
20
39.14320345001205
30
2.7071678232459813e-13
 70
     32
  0
VERTEX
  8
MY3DLAYER
10
126.90371626587414
20
39.48440836076915
30
2.7071678232459813e-13
 70
     32
  0
VERTEX
  8
MY3DLAYER
10
128.04541014892374
20
40.14356563148165
30
2.7071678232459813e-13
 70
     32
  0
VERTEX
  8
MY3DLAYER
10
128.97759930089944
20
41.075754783459345
30
2.7071678232459813e-13
 70
     32
  0
VERTEX
  8
MY3DLAYER
10
129.63675657160948
20
42.21744866651036
30
2.7071678232459813e-13
 70
     32
  0
VERTEX
  8
MY3DLAYER
10
129.97796148236387
20
43.49084272924316
30
2.7071678232459813e-13
 70
     32
  0
VERTEX
  8
MY3DLAYER
10
129.97796148236247
20
44.809157270665686
30
2.7071678232459813e-13
 70
     32
  0
VERTEX
  8
MY3DLAYER
10
129.63675657160536
20
46.082551333397774
30
2.7071678232459813e-13
 70
     32
  0
VERTEX
  8
MY3DLAYER
10
128.97759930089288
20
47.22424521644739
30
2.7071678232459813e-13
 70
     32
  0
VERTEX
  8
MY3DLAYER
10
128.04541014891518
20
48.1564343684231
30
2.7071678232459813e-13
 70
     32
  0
VERTEX
  8
MY3DLAYER
10
126.90371626586416
20
48.81559163913312
30
2.7071678232459813e-13
 70
     32
  0
VERTEX
  8
MY3DLAYER
10
125.63032220313136
20
49.15679654988751
30
2.7071678232459813e-13
 70
     32
  0
VERTEX
  8
MY3DLAYER
10
124.31200766170883
20
49.15679654988611
30
2.7071678232459813e-13
 70
     32
  0
SEQEND
  0
POLYLINE
 8
Layer0
 66
     1
70
    8
 10
0.0
 20
 0.0
 30
0.0
  0
VERTEX
  8
MY3DLAYER
10
133.85504840890863
20
45.03388347643223
30
2.7071678232459813e-13
 70
     32
  0
VERTEX
  8
MY3DLAYER
10
133.5961649324254
20
45.23253175467961
30
2.7071678232459813e-13
 70
     32
  0
VERTEX
  8
MY3DLAYER
10
133.2946887388036
20
45.3574072828104
30
2.7071678232459813e-13
 70
     32
  0
VERTEX
  8
MY3DLAYER
10
132.97116493242544
20
45.39999999994907
30
2.7071678232459813e-13
 70
     32
  0
VERTEX
  8
MY3DLAYER
10
132.64764112604726
20
45.3574072828104
30
2.7071678232459813e-13
 70
     32
  0
VERTEX
  8
MY3DLAYER
10
132.34616493242544
20
45.23253175467961
30
2.7071678232459813e-13
 70
     32
  0
VERTEX
  8
MY3DLAYER
10
132.08728145594227
20
45.03388347643223
30
2.7071678232459813e-13
 70
     32
  0
VERTEX
  8
MY3DLAYER
10
131.88863317769489
20
44.774999999949074
30
2.7071678232459813e-13
 70
     32
  0
VERTEX
  8
MY3DLAYER
10
131.7637576495641
20
44.47352380632725
30
2.7071678232459813e-13
 70
     32
  0
VERTEX
  8
MY3DLAYER
10
131.72116493242544
20
44.14999999994908
30
2.7071678232459813e-13
 70
     32
  0
VERTEX
  8
MY3DLAYER
10
131.7637576495641
20
43.82647619357091
30
2.7071678232459813e-13
 70
     32
  0
VERTEX
  8
MY3DLAYER
10
131.88863317769489
20
43.52499999994909
30
2.7071678232459813e-13
 70
     32
  0
VERTEX
  8
MY3DLAYER
10
132.08728145594227
20
43.266116523465925
30
2.7071678232459813e-13
 70
     32
  0
VERTEX
  8
MY3DLAYER
10
132.34616493242544
20
43.06746824521855
30
2.7071678232459813e-13
 70
     32
  0
VERTEX
  8
MY3DLAYER
10
132.64764112604726
20
42.94259271708776
30
2.7071678232459813e-13
 70
     32
  0
VERTEX
  8
MY3DLAYER
10
132.97116493242544
20
42.899999999949095
30
2.7071678232459813e-13
 70
     32
  0
VERTEX
  8
MY3DLAYER
10
133.2946887388036
20
42.94259271708776
30
2.7071678232459813e-13
 70
     32
  0
VERTEX
  8
MY3DLAYER
10
133.5961649324254
20
43.06746824521855
30
2.7071678232459813e-13
 70
     32
  0
VERTEX
  8
MY3DLAYER
10
133.85504840890857
20
43.266116523465925
30
2.7071678232459813e-13
 70
     32
  0
VERTEX
  8
MY3DLAYER
10
134.05369668715596
20
43.52499999994909
30
2.7071678232459813e-13
 70
     32
  0
VERTEX
  8
MY3DLAYER
10
134.17857221528675
20
43.82647619357091
30
2.7071678232459813e-13
 70
     32
  0
VERTEX
  8
MY3DLAYER
10
134.2211649324254
20
44.14999999994908
30
2.7071678232459813e-13
 70
     32
  0
VERTEX
  8
MY3DLAYER
10
134.17857221528675
20
44.47352380632725
30
2.7071678232459813e-13
 70
     32
  0
VERTEX
  8
MY3DLAYER
10
134.05369668715596
20
44.774999999949074
30
2.7071678232459813e-13
 70
     32
  0
VERTEX
  8
MY3DLAYER
10
133.85504840890863
20
45.03388347643223
30
2.7071678232459813e-13
 70
     32
  0
SEQEND
  0
POLYLINE
 8
Layer0
 66
     1
70
    8
 10
0.0
 20
 0.0
 30
0.0
  0
VERTEX
  8
MY3DLAYER
10
116.97116493242545
20
45.39999999994907
30
2.7071678232459813e-13
 70
     32
  0
VERTEX
  8
MY3DLAYER
10
116.64764112604729
20
45.3574072828104
30
2.7071678232459813e-13
 70
     32
  0
VERTEX
  8
MY3DLAYER
10
116.34616493242547
20
45.23253175467961
30
2.7071678232459813e-13
 70
     32
  0
VERTEX
  8
MY3DLAYER
10
116.0872814559423
20
45.03388347643223
30
2.7071678232459813e-13
 70
     32
  0
VERTEX
  8
MY3DLAYER
10
115.88863317769493
20
44.774999999949074
30
2.7071678232459813e-13
 70
     32
  0
VERTEX
  8
MY3DLAYER
10
115.76375764956413
20
44.47352380632725
30
2.7071678232459813e-13
 70
     32
  0
VERTEX
  8
MY3DLAYER
10
115.72116493242547
20
44.14999999994908
30
2.7071678232459813e-13
 70
     32
  0
VERTEX
  8
MY3DLAYER
10
115.76375764956413
20
43.82647619357091
30
2.7071678232459813e-13
 70
     32
  0
VERTEX
  8
MY3DLAYER
10
115.88863317769493
20
43.52499999994909
30
2.7071678232459813e-13
 70
     32
  0
VERTEX
  8
MY3DLAYER
10
116.0872814559423
20
43.266116523465925
30
2.7071678232459813e-13
 70
     32
  0
VERTEX
  8
MY3DLAYER
10
116.34616493242547
20
43.06746824521855
30
2.7071678232459813e-13
 70
     32
  0
VERTEX
  8
MY3DLAYER
10
116.64764112604729
20
42.94259271708776
30
2.7071678232459813e-13
 70
     32
  0
VERTEX
  8
MY3DLAYER
10
116.97116493242545
20
42.899999999949095
30
2.7071678232459813e-13
 70
     32
  0
VERTEX
  8
MY3DLAYER
10
117.29468873880363
20
42.94259271708776
30
2.7071678232459813e-13
 70
     32
  0
VERTEX
  8
MY3DLAYER
10
117.59616493242545
20
43.06746824521855
30
2.7071678232459813e-13
 70
     32
  0
VERTEX
  8
MY3DLAYER
10
117.8550484089086
20
43.266116523465925
30
2.7071678232459813e-13
 70
     32
  0
VERTEX
  8
MY3DLAYER
10
118.05369668715599
20
43.52499999994909
30
2.7071678232459813e-13
 70
     32
  0
VERTEX
  8
MY3DLAYER
10
118.17857221528678
20
43.82647619357091
30
2.7071678232459813e-13
 70
     32
  0
VERTEX
  8
MY3DLAYER
10
118.22116493242544
20
44.14999999994908
30
2.7071678232459813e-13
 70
     32
  0
VERTEX
  8
MY3DLAYER
10
118.17857221528678
20
44.47352380632725
30
2.7071678232459813e-13
 70
     32
  0
VERTEX
  8
MY3DLAYER
10
118.05369668715599
20
44.774999999949074
30
2.7071678232459813e-13
 70
     32
  0
VERTEX
  8
MY3DLAYER
10
117.85504840890866
20
45.03388347643223
30
2.7071678232459813e-13
 70
     32
  0
VERTEX
  8
MY3DLAYER
10
117.59616493242545
20
45.23253175467961
30
2.7071678232459813e-13
 70
     32
  0
VERTEX
  8
MY3DLAYER
10
117.29468873880363
20
45.3574072828104
30
2.7071678232459813e-13
 70
     32
  0
VERTEX
  8
MY3DLAYER
10
116.97116493242545
20
45.39999999994907
30
2.7071678232459813e-13
 70
     32
  0
SEQEND
  0
POLYLINE
 8
Layer0
 66
     1
70
    8
 10
0.0
 20
 0.0
 30
0.0
  0
VERTEX
  8
MY3DLAYER
10
263.85504925379803
20
43.26611652360593
30
9.023892744153272e-14
 70
     32
  0
VERTEX
  8
MY3DLAYER
10
264.0536975320454
20
43.52500000008909
30
9.023892744153272e-14
 70
     32
  0
VERTEX
  8
MY3DLAYER
10
264.1785730601762
20
43.82647619371092
30
9.023892744153272e-14
 70
     32
  0
VERTEX
  8
MY3DLAYER
10
264.2211657773148
20
44.150000000089086
30
9.023892744153272e-14
 70
     32
  0
VERTEX
  8
MY3DLAYER
10
264.1785730601762
20
44.473523806467256
30
9.023892744153272e-14
 70
     32
  0
VERTEX
  8
MY3DLAYER
10
264.0536975320454
20
44.77500000008908
30
9.023892744153272e-14
 70
     32
  0
VERTEX
  8
MY3DLAYER
10
263.85504925379803
20
45.03388347657224
30
9.023892744153272e-14
 70
     32
  0
VERTEX
  8
MY3DLAYER
10
263.59616577731487
20
45.23253175481962
30
9.023892744153272e-14
 70
     32
  0
VERTEX
  8
MY3DLAYER
10
263.29468958369296
20
45.357407282950405
30
9.023892744153272e-14
 70
     32
  0
VERTEX
  8
MY3DLAYER
10
262.97116577731487
20
45.40000000008907
30
9.023892744153272e-14
 70
     32
  0
VERTEX
  8
MY3DLAYER
10
262.6476419709367
20
45.357407282950405
30
9.023892744153272e-14
 70
     32
  0
VERTEX
  8
MY3DLAYER
10
262.3461657773149
20
45.23253175481962
30
9.023892744153272e-14
 70
     32
  0
VERTEX
  8
MY3DLAYER
10
262.08728230083165
20
45.03388347657224
30
9.023892744153272e-14
 70
     32
  0
VERTEX
  8
MY3DLAYER
10
261.88863402258426
20
44.77500000008908
30
9.023892744153272e-14
 70
     32
  0
VERTEX
  8
MY3DLAYER
10
261.76375849445355
20
44.473523806467256
30
9.023892744153272e-14
 70
     32
  0
VERTEX
  8
MY3DLAYER
10
261.72116577731487
20
44.150000000089086
30
9.023892744153272e-14
 70
     32
  0
VERTEX
  8
MY3DLAYER
10
261.76375849445355
20
43.82647619371092
30
9.023892744153272e-14
 70
     32
  0
VERTEX
  8
MY3DLAYER
10
261.88863402258426
20
43.52500000008909
30
9.023892744153272e-14
 70
     32
  0
VERTEX
  8
MY3DLAYER
10
262.08728230083165
20
43.26611652360593
30
9.023892744153272e-14
 70
     32
  0
VERTEX
  8
MY3DLAYER
10
262.3461657773148
20
43.067468245358555
30
9.023892744153272e-14
 70
     32
  0
VERTEX
  8
MY3DLAYER
10
262.6476419709367
20
42.94259271722777
30
9.023892744153272e-14
 70
     32
  0
VERTEX
  8
MY3DLAYER
10
262.97116577731487
20
42.9000000000891
30
9.023892744153272e-14
 70
     32
  0
VERTEX
  8
MY3DLAYER
10
263.29468958369296
20
42.94259271722777
30
9.023892744153272e-14
 70
     32
  0
VERTEX
  8
MY3DLAYER
10
263.5961657773148
20
43.067468245358555
30
9.023892744153272e-14
 70
     32
  0
VERTEX
  8
MY3DLAYER
10
263.85504925379803
20
43.26611652360593
30
9.023892744153272e-14
 70
     32
  0
SEQEND
  0
POLYLINE
 8
Layer0
 66
     1
70
    8
 10
0.0
 20
 0.0
 30
0.0
  0
VERTEX
  8
MY3DLAYER
10
245.8886340225843
20
43.52500000008909
30
9.023892744153272e-14
 70
     32
  0
VERTEX
  8
MY3DLAYER
10
246.08728230083167
20
43.26611652360593
30
9.023892744153272e-14
 70
     32
  0
VERTEX
  8
MY3DLAYER
10
246.34616577731484
20
43.067468245358555
30
9.023892744153272e-14
 70
     32
  0
VERTEX
  8
MY3DLAYER
10
246.64764197093675
20
42.94259271722777
30
9.023892744153272e-14
 70
     32
  0
VERTEX
  8
MY3DLAYER
10
246.97116577731487
20
42.9000000000891
30
9.023892744153272e-14
 70
     32
  0
VERTEX
  8
MY3DLAYER
10
247.294689583693
20
42.94259271722777
30
9.023892744153272e-14
 70
     32
  0
VERTEX
  8
MY3DLAYER
10
247.59616577731484
20
43.067468245358555
30
9.023892744153272e-14
 70
     32
  0
VERTEX
  8
MY3DLAYER
10
247.8550492537981
20
43.26611652360593
30
9.023892744153272e-14
 70
     32
  0
VERTEX
  8
MY3DLAYER
10
248.05369753204545
20
43.52500000008909
30
9.023892744153272e-14
 70
     32
  0
VERTEX
  8
MY3DLAYER
10
248.1785730601762
20
43.82647619371092
30
9.023892744153272e-14
 70
     32
  0
VERTEX
  8
MY3DLAYER
10
248.22116577731487
20
44.150000000089086
30
9.023892744153272e-14
 70
     32
  0
VERTEX
  8
MY3DLAYER
10
248.1785730601762
20
44.473523806467256
30
9.023892744153272e-14
 70
     32
  0
VERTEX
  8
MY3DLAYER
10
248.05369753204545
20
44.77500000008908
30
9.023892744153272e-14
 70
     32
  0
VERTEX
  8
MY3DLAYER
10
247.8550492537981
20
45.03388347657224
30
9.023892744153272e-14
 70
     32
  0
VERTEX
  8
MY3DLAYER
10
247.59616577731492
20
45.23253175481962
30
9.023892744153272e-14
 70
     32
  0
VERTEX
  8
MY3DLAYER
10
247.294689583693
20
45.357407282950405
30
9.023892744153272e-14
 70
     32
  0
VERTEX
  8
MY3DLAYER
10
246.97116577731487
20
45.40000000008907
30
9.023892744153272e-14
 70
     32
  0
VERTEX
  8
MY3DLAYER
10
246.64764197093675
20
45.357407282950405
30
9.023892744153272e-14
 70
     32
  0
VERTEX
  8
MY3DLAYER
10
246.34616577731492
20
45.23253175481962
30
9.023892744153272e-14
 70
     32
  0
VERTEX
  8
MY3DLAYER
10
246.08728230083167
20
45.03388347657224
30
9.023892744153272e-14
 70
     32
  0
VERTEX
  8
MY3DLAYER
10
245.8886340225843
20
44.77500000008908
30
9.023892744153272e-14
 70
     32
  0
VERTEX
  8
MY3DLAYER
10
245.76375849445355
20
44.473523806467256
30
9.023892744153272e-14
 70
     32
  0
VERTEX
  8
MY3DLAYER
10
245.7211657773149
20
44.150000000089086
30
9.023892744153272e-14
 70
     32
  0
VERTEX
  8
MY3DLAYER
10
245.76375849445355
20
43.82647619371092
30
9.023892744153272e-14
 70
     32
  0
VERTEX
  8
MY3DLAYER
10
245.8886340225843
20
43.52500000008909
30
9.023892744153272e-14
 70
     32
  0
SEQEND
  0
POLYLINE
 8
Layer0
 66
     1
70
    8
 10
0.0
 20
 0.0
 30
0.0
  0
VERTEX
  8
MY3DLAYER
10
307.1615223689151
20
8.161522368914918
30
2.165734258596785e-12
 70
     32
  0
VERTEX
  8
MY3DLAYER
10
307.70000000000016
20
7.7483339501604185
30
2.165734258596785e-12
 70
     32
  0
VERTEX
  8
MY3DLAYER
10
308.3270704827335
20
7.488592851648374
30
2.165734258596785e-12
 70
     32
  0
VERTEX
  8
MY3DLAYER
10
309.0000000000001
20
7.399999999999942
30
2.165734258596785e-12
 70
     32
  0
VERTEX
  8
MY3DLAYER
10
309.6729295172667
20
7.488592851648374
30
2.165734258596785e-12
 70
     32
  0
VERTEX
  8
MY3DLAYER
10
310.3000000000002
20
7.7483339501604185
30
2.165734258596785e-12
 70
     32
  0
VERTEX
  8
MY3DLAYER
10
310.83847763108514
20
8.161522368914918
30
2.165734258596785e-12
 70
     32
  0
VERTEX
  8
MY3DLAYER
10
311.25166604983974
20
8.699999999999962
30
2.165734258596785e-12
 70
     32
  0
VERTEX
  8
MY3DLAYER
10
311.51140714835174
20
9.327070482733438
30
2.165734258596785e-12
 70
     32
  0
VERTEX
  8
MY3DLAYER
10
311.60000000000014
20
9.999999999999982
30
2.165734258596785e-12
 70
     32
  0
VERTEX
  8
MY3DLAYER
10
311.51140714835174
20
10.67292951726657
30
2.165734258596785e-12
 70
     32
  0
VERTEX
  8
MY3DLAYER
10
311.25166604983974
20
11.300000000000002
30
2.165734258596785e-12
 70
     32
  0
VERTEX
  8
MY3DLAYER
10
310.83847763108514
20
11.838477631085047
30
2.165734258596785e-12
 70
     32
  0
VERTEX
  8
MY3DLAYER
10
310.30000000000007
20
12.251666049839544
30
2.165734258596785e-12
 70
     32
  0
VERTEX
  8
MY3DLAYER
10
309.6729295172667
20
12.511407148351589
30
2.165734258596785e-12
 70
     32
  0
VERTEX
  8
MY3DLAYER
10
309.0000000000001
20
12.600000000000023
30
2.165734258596785e-12
 70
     32
  0
VERTEX
  8
MY3DLAYER
10
308.3270704827335
20
12.511407148351589
30
2.165734258596785e-12
 70
     32
  0
VERTEX
  8
MY3DLAYER
10
307.70000000000005
20
12.251666049839544
30
2.165734258596785e-12
 70
     32
  0
VERTEX
  8
MY3DLAYER
10
307.1615223689151
20
11.838477631085047
30
2.165734258596785e-12
 70
     32
  0
VERTEX
  8
MY3DLAYER
10
306.7483339501605
20
11.300000000000002
30
2.165734258596785e-12
 70
     32
  0
VERTEX
  8
MY3DLAYER
10
306.4885928516485
20
10.672929517266525
30
2.165734258596785e-12
 70
     32
  0
VERTEX
  8
MY3DLAYER
10
306.4000000000001
20
9.999999999999982
30
2.165734258596785e-12
 70
     32
  0
VERTEX
  8
MY3DLAYER
10
306.4885928516485
20
9.327070482733438
30
2.165734258596785e-12
 70
     32
  0
VERTEX
  8
MY3DLAYER
10
306.7483339501605
20
8.699999999999962
30
2.165734258596785e-12
 70
     32
  0
VERTEX
  8
MY3DLAYER
10
307.1615223689151
20
8.161522368914918
30
2.165734258596785e-12
 70
     32
  0
SEQEND
  0
POLYLINE
 8
Layer0
 66
     1
70
    8
 10
0.0
 20
 0.0
 30
0.0
  0
VERTEX
  8
MY3DLAYER
10
68.74833395016049
20
11.299999999999956
30
0.0
 70
     32
  0
VERTEX
  8
MY3DLAYER
10
68.48859285164845
20
10.672929517266525
30
0.0
 70
     32
  0
VERTEX
  8
MY3DLAYER
10
68.4
20
9.999999999999982
30
0.0
 70
     32
  0
VERTEX
  8
MY3DLAYER
10
68.48859285164845
20
9.327070482733438
30
0.0
 70
     32
  0
VERTEX
  8
MY3DLAYER
10
68.74833395016049
20
8.699999999999962
30
0.0
 70
     32
  0
VERTEX
  8
MY3DLAYER
10
69.16152236891499
20
8.161522368914962
30
0.0
 70
     32
  0
VERTEX
  8
MY3DLAYER
10
69.70000000000003
20
7.748333950160464
30
0.0
 70
     32
  0
VERTEX
  8
MY3DLAYER
10
70.32707048273346
20
7.488592851648419
30
0.0
 70
     32
  0
VERTEX
  8
MY3DLAYER
10
71.0
20
7.399999999999986
30
0.0
 70
     32
  0
VERTEX
  8
MY3DLAYER
10
71.67292951726655
20
7.488592851648419
30
0.0
 70
     32
  0
VERTEX
  8
MY3DLAYER
10
72.30000000000003
20
7.748333950160464
30
0.0
 70
     32
  0
VERTEX
  8
MY3DLAYER
10
72.83847763108503
20
8.161522368914962
30
0.0
 70
     32
  0
VERTEX
  8
MY3DLAYER
10
73.25166604983953
20
8.700000000000006
30
0.0
 70
     32
  0
VERTEX
  8
MY3DLAYER
10
73.51140714835157
20
9.327070482733438
30
0.0
 70
     32
  0
VERTEX
  8
MY3DLAYER
10
73.6
20
9.999999999999982
30
0.0
 70
     32
  0
VERTEX
  8
MY3DLAYER
10
73.51140714835157
20
10.672929517266525
30
0.0
 70
     32
  0
VERTEX
  8
MY3DLAYER
10
73.25166604983953
20
11.300000000000002
30
0.0
 70
     32
  0
VERTEX
  8
MY3DLAYER
10
72.83847763108503
20
11.838477631085
30
0.0
 70
     32
  0
VERTEX
  8
MY3DLAYER
10
72.29999999999998
20
12.2516660498395
30
0.0
 70
     32
  0
VERTEX
  8
MY3DLAYER
10
71.67292951726655
20
12.511407148351545
30
0.0
 70
     32
  0
VERTEX
  8
MY3DLAYER
10
71.0
20
12.599999999999977
30
0.0
 70
     32
  0
VERTEX
  8
MY3DLAYER
10
70.32707048273346
20
12.511407148351545
30
0.0
 70
     32
  0
VERTEX
  8
MY3DLAYER
10
69.69999999999999
20
12.2516660498395
30
0.0
 70
     32
  0
VERTEX
  8
MY3DLAYER
10
69.16152236891499
20
11.838477631085
30
0.0
 70
     32
  0
VERTEX
  8
MY3DLAYER
10
68.74833395016049
20
11.299999999999956
30
0.0
 70
     32
  0
SEQEND
  0
POLYLINE
 8
Layer0
 66
     1
70
    8
 10
0.0
 20
 0.0
 30
0.0
  0
VERTEX
  8
MY3DLAYER
10
367.4000000000002
20
71.0
30
2.7071678232459813e-13
 70
     32
  0
VERTEX
  8
MY3DLAYER
10
367.48859285164855
20
70.32707048273346
30
2.7071678232459813e-13
 70
     32
  0
VERTEX
  8
MY3DLAYER
10
367.7483339501606
20
69.69999999999999
30
2.7071678232459813e-13
 70
     32
  0
VERTEX
  8
MY3DLAYER
10
368.16152236891514
20
69.16152236891499
30
2.7071678232459813e-13
 70
     32
  0
VERTEX
  8
MY3DLAYER
10
368.70000000000016
20
68.74833395016049
30
2.7071678232459813e-13
 70
     32
  0
VERTEX
  8
MY3DLAYER
10
369.3270704827335
20
68.48859285164845
30
2.7071678232459813e-13
 70
     32
  0
VERTEX
  8
MY3DLAYER
10
370.0000000000001
20
68.4
30
2.7071678232459813e-13
 70
     32
  0
VERTEX
  8
MY3DLAYER
10
370.6729295172667
20
68.48859285164845
30
2.7071678232459813e-13
 70
     32
  0
VERTEX
  8
MY3DLAYER
10
371.3000000000001
20
68.74833395016049
30
2.7071678232459813e-13
 70
     32
  0
VERTEX
  8
MY3DLAYER
10
371.83847763108514
20
69.16152236891499
30
2.7071678232459813e-13
 70
     32
  0
VERTEX
  8
MY3DLAYER
10
372.2516660498396
20
69.70000000000003
30
2.7071678232459813e-13
 70
     32
  0
VERTEX
  8
MY3DLAYER
10
372.51140714835174
20
70.32707048273346
30
2.7071678232459813e-13
 70
     32
  0
VERTEX
  8
MY3DLAYER
10
372.6000000000001
20
71.0
30
2.7071678232459813e-13
 70
     32
  0
VERTEX
  8
MY3DLAYER
10
372.51140714835174
20
71.67292951726655
30
2.7071678232459813e-13
 70
     32
  0
VERTEX
  8
MY3DLAYER
10
372.2516660498396
20
72.30000000000003
30
2.7071678232459813e-13
 70
     32
  0
VERTEX
  8
MY3DLAYER
10
371.83847763108514
20
72.83847763108503
30
2.7071678232459813e-13
 70
     32
  0
VERTEX
  8
MY3DLAYER
10
371.3000000000001
20
73.25166604983953
30
2.7071678232459813e-13
 70
     32
  0
VERTEX
  8
MY3DLAYER
10
370.6729295172667
20
73.51140714835157
30
2.7071678232459813e-13
 70
     32
  0
VERTEX
  8
MY3DLAYER
10
370.0000000000001
20
73.6
30
2.7071678232459813e-13
 70
     32
  0
VERTEX
  8
MY3DLAYER
10
369.3270704827335
20
73.51140714835157
30
2.7071678232459813e-13
 70
     32
  0
VERTEX
  8
MY3DLAYER
10
368.70000000000016
20
73.25166604983953
30
2.7071678232459813e-13
 70
     32
  0
VERTEX
  8
MY3DLAYER
10
368.16152236891514
20
72.83847763108503
30
2.7071678232459813e-13
 70
     32
  0
VERTEX
  8
MY3DLAYER
10
367.7483339501606
20
72.29999999999998
30
2.7071678232459813e-13
 70
     32
  0
VERTEX
  8
MY3DLAYER
10
367.48859285164855
20
71.67292951726655
30
2.7071678232459813e-13
 70
     32
  0
VERTEX
  8
MY3DLAYER
10
367.4000000000002
20
71.0
30
2.7071678232459813e-13
 70
     32
  0
SEQEND
  0
POLYLINE
 8
Layer0
 66
     1
70
    8
 10
0.0
 20
 0.0
 30
0.0
  0
VERTEX
  8
MY3DLAYER
10
371.8384776310851
20
287.161522368915
30
1.1370104857633122e-11
 70
     32
  0
VERTEX
  8
MY3DLAYER
10
372.2516660498396
20
287.7
30
1.1370104857633122e-11
 70
     32
  0
VERTEX
  8
MY3DLAYER
10
372.5114071483517
20
288.3270704827334
30
1.1370104857633122e-11
 70
     32
  0
VERTEX
  8
MY3DLAYER
10
372.6000000000001
20
288.99999999999994
30
1.1370104857633122e-11
 70
     32
  0
VERTEX
  8
MY3DLAYER
10
372.5114071483517
20
289.67292951726654
30
1.1370104857633122e-11
 70
     32
  0
VERTEX
  8
MY3DLAYER
10
372.2516660498396
20
290.3
30
1.1370104857633122e-11
 70
     32
  0
VERTEX
  8
MY3DLAYER
10
371.8384776310851
20
290.83847763108497
30
1.1370104857633122e-11
 70
     32
  0
VERTEX
  8
MY3DLAYER
10
371.3
20
291.25166604983957
30
1.1370104857633122e-11
 70
     32
  0
VERTEX
  8
MY3DLAYER
10
370.67292951726665
20
291.51140714835157
30
1.1370104857633122e-11
 70
     32
  0
VERTEX
  8
MY3DLAYER
10
370.00000000000006
20
291.6
30
1.1370104857633122e-11
 70
     32
  0
VERTEX
  8
MY3DLAYER
10
369.32707048273346
20
291.51140714835157
30
1.1370104857633122e-11
 70
     32
  0
VERTEX
  8
MY3DLAYER
10
368.7
20
291.25166604983957
30
1.1370104857633122e-11
 70
     32
  0
VERTEX
  8
MY3DLAYER
10
368.16152236891503
20
290.83847763108497
30
1.1370104857633122e-11
 70
     32
  0
VERTEX
  8
MY3DLAYER
10
367.74833395016043
20
290.29999999999995
30
1.1370104857633122e-11
 70
     32
  0
VERTEX
  8
MY3DLAYER
10
367.48859285164843
20
289.67292951726654
30
1.1370104857633122e-11
 70
     32
  0
VERTEX
  8
MY3DLAYER
10
367.4
20
288.99999999999994
30
1.1370104857633122e-11
 70
     32
  0
VERTEX
  8
MY3DLAYER
10
367.48859285164843
20
288.3270704827334
30
1.1370104857633122e-11
 70
     32
  0
VERTEX
  8
MY3DLAYER
10
367.74833395016043
20
287.6999999999999
30
1.1370104857633122e-11
 70
     32
  0
VERTEX
  8
MY3DLAYER
10
368.16152236891503
20
287.161522368915
30
1.1370104857633122e-11
 70
     32
  0
VERTEX
  8
MY3DLAYER
10
368.70000000000005
20
286.7483339501604
30
1.1370104857633122e-11
 70
     32
  0
VERTEX
  8
MY3DLAYER
10
369.32707048273346
20
286.4885928516484
30
1.1370104857633122e-11
 70
     32
  0
VERTEX
  8
MY3DLAYER
10
370.00000000000006
20
286.3999999999999
30
1.1370104857633122e-11
 70
     32
  0
VERTEX
  8
MY3DLAYER
10
370.67292951726665
20
286.4885928516484
30
1.1370104857633122e-11
 70
     32
  0
VERTEX
  8
MY3DLAYER
10
371.3000000000001
20
286.7483339501604
30
1.1370104857633122e-11
 70
     32
  0
VERTEX
  8
MY3DLAYER
10
371.8384776310851
20
287.161522368915
30
1.1370104857633122e-11
 70
     32
  0
SEQEND
  0
POLYLINE
 8
Layer0
 66
     1
70
    8
 10
0.0
 20
 0.0
 30
0.0
  0
VERTEX
  8
MY3DLAYER
10
7.488592851648419
20
70.32707048273346
30
1.8047785488306544e-13
 70
     32
  0
VERTEX
  8
MY3DLAYER
10
7.748333950160464
20
69.69999999999999
30
1.8047785488306544e-13
 70
     32
  0
VERTEX
  8
MY3DLAYER
10
8.161522368914962
20
69.16152236891499
30
1.8047785488306544e-13
 70
     32
  0
VERTEX
  8
MY3DLAYER
10
8.700000000000006
20
68.74833395016049
30
1.8047785488306544e-13
 70
     32
  0
VERTEX
  8
MY3DLAYER
10
9.327070482733438
20
68.48859285164845
30
1.8047785488306544e-13
 70
     32
  0
VERTEX
  8
MY3DLAYER
10
9.999999999999982
20
68.4
30
1.8047785488306544e-13
 70
     32
  0
VERTEX
  8
MY3DLAYER
10
10.672929517266525
20
68.48859285164845
30
1.8047785488306544e-13
 70
     32
  0
VERTEX
  8
MY3DLAYER
10
11.300000000000002
20
68.74833395016049
30
1.8047785488306544e-13
 70
     32
  0
VERTEX
  8
MY3DLAYER
10
11.838477631085
20
69.16152236891499
30
1.8047785488306544e-13
 70
     32
  0
VERTEX
  8
MY3DLAYER
10
12.2516660498395
20
69.70000000000003
30
1.8047785488306544e-13
 70
     32
  0
VERTEX
  8
MY3DLAYER
10
12.511407148351545
20
70.32707048273346
30
1.8047785488306544e-13
 70
     32
  0
VERTEX
  8
MY3DLAYER
10
12.599999999999977
20
71.0
30
1.8047785488306544e-13
 70
     32
  0
VERTEX
  8
MY3DLAYER
10
12.511407148351545
20
71.67292951726655
30
1.8047785488306544e-13
 70
     32
  0
VERTEX
  8
MY3DLAYER
10
12.2516660498395
20
72.30000000000003
30
1.8047785488306544e-13
 70
     32
  0
VERTEX
  8
MY3DLAYER
10
11.838477631085
20
72.83847763108503
30
1.8047785488306544e-13
 70
     32
  0
VERTEX
  8
MY3DLAYER
10
11.299999999999956
20
73.25166604983953
30
1.8047785488306544e-13
 70
     32
  0
VERTEX
  8
MY3DLAYER
10
10.672929517266525
20
73.51140714835157
30
1.8047785488306544e-13
 70
     32
  0
VERTEX
  8
MY3DLAYER
10
9.999999999999982
20
73.6
30
1.8047785488306544e-13
 70
     32
  0
VERTEX
  8
MY3DLAYER
10
9.327070482733438
20
73.51140714835157
30
1.8047785488306544e-13
 70
     32
  0
VERTEX
  8
MY3DLAYER
10
8.699999999999962
20
73.25166604983953
30
1.8047785488306544e-13
 70
     32
  0
VERTEX
  8
MY3DLAYER
10
8.161522368914962
20
72.83847763108503
30
1.8047785488306544e-13
 70
     32
  0
VERTEX
  8
MY3DLAYER
10
7.748333950160464
20
72.29999999999998
30
1.8047785488306544e-13
 70
     32
  0
VERTEX
  8
MY3DLAYER
10
7.488592851648419
20
71.67292951726655
30
1.8047785488306544e-13
 70
     32
  0
VERTEX
  8
MY3DLAYER
10
7.399999999999986
20
71.0
30
1.8047785488306544e-13
 70
     32
  0
VERTEX
  8
MY3DLAYER
10
7.488592851648419
20
70.32707048273346
30
1.8047785488306544e-13
 70
     32
  0
SEQEND
  0
POLYLINE
 8
Layer0
 66
     1
70
    8
 10
0.0
 20
 0.0
 30
0.0
  0
VERTEX
  8
MY3DLAYER
10
261.40046239883213
20
20.610251787059426
30
0.0
 70
     32
  0
VERTEX
  8
MY3DLAYER
10
261.8999645113553
20
21.81615656154682
30
0.0
 70
     32
  0
VERTEX
  8
MY3DLAYER
10
262.07033537991
20
23.110251787059443
30
0.0
 70
     32
  0
VERTEX
  8
MY3DLAYER
10
261.8999645113553
20
24.404347012572067
30
0.0
 70
     32
  0
VERTEX
  8
MY3DLAYER
10
261.40046239883213
20
25.61025178705946
30
0.0
 70
     32
  0
VERTEX
  8
MY3DLAYER
10
260.6058692858427
20
26.64578569299219
30
0.0
 70
     32
  0
VERTEX
  8
MY3DLAYER
10
259.57033537990986
20
27.440378805981656
30
0.0
 70
     32
  0
VERTEX
  8
MY3DLAYER
10
258.3644306054225
20
27.939880918504816
30
0.0
 70
     32
  0
VERTEX
  8
MY3DLAYER
10
257.0703353799099
20
28.11025178705948
30
0.0
 70
     32
  0
VERTEX
  8
MY3DLAYER
10
247.07033537990984
20
28.11025178705948
30
0.0
 70
     32
  0
VERTEX
  8
MY3DLAYER
10
245.77624015439727
20
27.939880918504816
30
0.0
 70
     32
  0
VERTEX
  8
MY3DLAYER
10
244.57033537990978
20
27.440378805981656
30
0.0
 70
     32
  0
VERTEX
  8
MY3DLAYER
10
243.53480147397704
20
26.64578569299219
30
0.0
 70
     32
  0
VERTEX
  8
MY3DLAYER
10
242.74020836098762
20
25.61025178705946
30
0.0
 70
     32
  0
VERTEX
  8
MY3DLAYER
10
242.24070624846448
20
24.404347012572067
30
0.0
 70
     32
  0
VERTEX
  8
MY3DLAYER
10
242.0703353799098
20
23.110251787059443
30
0.0
 70
     32
  0
VERTEX
  8
MY3DLAYER
10
242.24070624846448
20
21.81615656154682
30
0.0
 70
     32
  0
VERTEX
  8
MY3DLAYER
10
242.74020836098762
20
20.610251787059426
30
0.0
 70
     32
  0
VERTEX
  8
MY3DLAYER
10
243.53480147397704
20
19.5747178811267
30
0.0
 70
     32
  0
VERTEX
  8
MY3DLAYER
10
244.57033537990986
20
18.78012476813723
30
0.0
 70
     32
  0
VERTEX
  8
MY3DLAYER
10
245.77624015439727
20
18.28062265561407
30
0.0
 70
     32
  0
VERTEX
  8
MY3DLAYER
10
247.07033537990984
20
18.110251787059408
30
0.0
 70
     32
  0
VERTEX
  8
MY3DLAYER
10
257.0703353799099
20
18.110251787059408
30
0.0
 70
     32
  0
VERTEX
  8
MY3DLAYER
10
258.3644306054225
20
18.28062265561407
30
0.0
 70
     32
  0
VERTEX
  8
MY3DLAYER
10
259.57033537991
20
18.78012476813723
30
0.0
 70
     32
  0
VERTEX
  8
MY3DLAYER
10
260.6058692858427
20
19.5747178811267
30
0.0
 70
     32
  0
VERTEX
  8
MY3DLAYER
10
261.40046239883213
20
20.610251787059426
30
0.0
 70
     32
  0
SEQEND
  0
POLYLINE
 8
Layer0
 66
     1
70
    8
 10
0.0
 20
 0.0
 30
0.0
  0
VERTEX
  8
MY3DLAYER
10
246.26256313292362
20
351.1125631329236
30
9.023892744153272e-14
 70
     32
  0
VERTEX
  8
MY3DLAYER
10
246.62500000000003
20
350.8344555433772
30
9.023892744153272e-14
 70
     32
  0
VERTEX
  8
MY3DLAYER
10
247.04706667107064
20
350.6596298039942
30
9.023892744153272e-14
 70
     32
  0
VERTEX
  8
MY3DLAYER
10
247.50000000000003
20
350.6
30
9.023892744153272e-14
 70
     32
  0
VERTEX
  8
MY3DLAYER
10
247.95293332892942
20
350.6596298039942
30
9.023892744153272e-14
 70
     32
  0
VERTEX
  8
MY3DLAYER
10
248.375
20
350.8344555433772
30
9.023892744153272e-14
 70
     32
  0
VERTEX
  8
MY3DLAYER
10
248.7374368670764
20
351.1125631329236
30
9.023892744153272e-14
 70
     32
  0
VERTEX
  8
MY3DLAYER
10
249.0155444566228
20
351.475
30
9.023892744153272e-14
 70
     32
  0
VERTEX
  8
MY3DLAYER
10
249.1903701960058
20
351.8970666710706
30
9.023892744153272e-14
 70
     32
  0
VERTEX
  8
MY3DLAYER
10
249.24999999999997
20
352.35
30
9.023892744153272e-14
 70
     32
  0
VERTEX
  8
MY3DLAYER
10
249.1903701960058
20
352.8029333289294
30
9.023892744153272e-14
 70
     32
  0
VERTEX
  8
MY3DLAYER
10
249.0155444566228
20
353.22499999999997
30
9.023892744153272e-14
 70
     32
  0
VERTEX
  8
MY3DLAYER
10
248.7374368670764
20
353.5874368670764
30
9.023892744153272e-14
 70
     32
  0
VERTEX
  8
MY3DLAYER
10
248.375
20
353.8655444566228
30
9.023892744153272e-14
 70
     32
  0
VERTEX
  8
MY3DLAYER
10
247.95293332892942
20
354.04037019600577
30
9.023892744153272e-14
 70
     32
  0
VERTEX
  8
MY3DLAYER
10
247.50000000000003
20
354.09999999999997
30
9.023892744153272e-14
 70
     32
  0
VERTEX
  8
MY3DLAYER
10
247.04706667107064
20
354.04037019600577
30
9.023892744153272e-14
 70
     32
  0
VERTEX
  8
MY3DLAYER
10
246.62500000000003
20
353.8655444566228
30
9.023892744153272e-14
 70
     32
  0
VERTEX
  8
MY3DLAYER
10
246.26256313292362
20
353.5874368670764
30
9.023892744153272e-14
 70
     32
  0
VERTEX
  8
MY3DLAYER
10
245.98445554337724
20
353.22499999999997
30
9.023892744153272e-14
 70
     32
  0
VERTEX
  8
MY3DLAYER
10
245.80962980399423
20
352.8029333289294
30
9.023892744153272e-14
 70
     32
  0
VERTEX
  8
MY3DLAYER
10
245.75000000000006
20
352.35
30
9.023892744153272e-14
 70
     32
  0
VERTEX
  8
MY3DLAYER
10
245.80962980399423
20
351.8970666710706
30
9.023892744153272e-14
 70
     32
  0
VERTEX
  8
MY3DLAYER
10
245.98445554337724
20
351.475
30
9.023892744153272e-14
 70
     32
  0
VERTEX
  8
MY3DLAYER
10
246.26256313292362
20
351.1125631329236
30
9.023892744153272e-14
 70
     32
  0
SEQEND
  0
POLYLINE
 8
Layer0
 66
     1
70
    8
 10
0.0
 20
 0.0
 30
0.0
  0
VERTEX
  8
MY3DLAYER
10
261.3235238063783
20
355.9925927171387
30
1.8047785488306544e-13
 70
     32
  0
VERTEX
  8
MY3DLAYER
10
261.62500000000017
20
356.1174682452694
30
1.8047785488306544e-13
 70
     32
  0
VERTEX
  8
MY3DLAYER
10
261.8838834764834
20
356.31611652351677
30
1.8047785488306544e-13
 70
     32
  0
VERTEX
  8
MY3DLAYER
10
262.0825317547308
20
356.57499999999993
30
1.8047785488306544e-13
 70
     32
  0
VERTEX
  8
MY3DLAYER
10
262.20740728286154
20
356.87647619362184
30
1.8047785488306544e-13
 70
     32
  0
VERTEX
  8
MY3DLAYER
10
262.25000000000017
20
357.2
30
1.8047785488306544e-13
 70
     32
  0
VERTEX
  8
MY3DLAYER
10
262.20740728286154
20
357.5235238063781
30
1.8047785488306544e-13
 70
     32
  0
VERTEX
  8
MY3DLAYER
10
262.0825317547308
20
357.82499999999993
30
1.8047785488306544e-13
 70
     32
  0
VERTEX
  8
MY3DLAYER
10
261.8838834764834
20
358.08388347648315
30
1.8047785488306544e-13
 70
     32
  0
VERTEX
  8
MY3DLAYER
10
261.6250000000002
20
358.28253175473054
30
1.8047785488306544e-13
 70
     32
  0
VERTEX
  8
MY3DLAYER
10
261.3235238063783
20
358.4074072828613
30
1.8047785488306544e-13
 70
     32
  0
VERTEX
  8
MY3DLAYER
10
261.00000000000017
20
358.45
30
1.8047785488306544e-13
 70
     32
  0
VERTEX
  8
MY3DLAYER
10
260.6764761936221
20
358.4074072828613
30
1.8047785488306544e-13
 70
     32
  0
VERTEX
  8
MY3DLAYER
10
260.3750000000002
20
358.28253175473054
30
1.8047785488306544e-13
 70
     32
  0
VERTEX
  8
MY3DLAYER
10
260.116116523517
20
358.08388347648315
30
1.8047785488306544e-13
 70
     32
  0
VERTEX
  8
MY3DLAYER
10
259.9174682452696
20
357.825
30
1.8047785488306544e-13
 70
     32
  0
VERTEX
  8
MY3DLAYER
10
259.79259271713886
20
357.5235238063781
30
1.8047785488306544e-13
 70
     32
  0
VERTEX
  8
MY3DLAYER
10
259.7500000000002
20
357.2
30
1.8047785488306544e-13
 70
     32
  0
VERTEX
  8
MY3DLAYER
10
259.79259271713886
20
356.87647619362184
30
1.8047785488306544e-13
 70
     32
  0
VERTEX
  8
MY3DLAYER
10
259.9174682452696
20
356.57500000000005
30
1.8047785488306544e-13
 70
     32
  0
VERTEX
  8
MY3DLAYER
10
260.116116523517
20
356.31611652351677
30
1.8047785488306544e-13
 70
     32
  0
VERTEX
  8
MY3DLAYER
10
260.37500000000017
20
356.1174682452694
30
1.8047785488306544e-13
 70
     32
  0
VERTEX
  8
MY3DLAYER
10
260.6764761936221
20
355.9925927171387
30
1.8047785488306544e-13
 70
     32
  0
VERTEX
  8
MY3DLAYER
10
261.00000000000017
20
355.95
30
1.8047785488306544e-13
 70
     32
  0
VERTEX
  8
MY3DLAYER
10
261.3235238063783
20
355.9925927171387
30
1.8047785488306544e-13
 70
     32
  0
SEQEND
  0
POLYLINE
 8
Layer0
 66
     1
70
    8
 10
0.0
 20
 0.0
 30
0.0
  0
VERTEX
  8
MY3DLAYER
10
325.676476193622
20
358.4074072828613
30
1.8047785488306544e-13
 70
     32
  0
VERTEX
  8
MY3DLAYER
10
325.37500000000017
20
358.28253175473054
30
1.8047785488306544e-13
 70
     32
  0
VERTEX
  8
MY3DLAYER
10
325.11611652351695
20
358.08388347648315
30
1.8047785488306544e-13
 70
     32
  0
VERTEX
  8
MY3DLAYER
10
324.91746824526956
20
357.825
30
1.8047785488306544e-13
 70
     32
  0
VERTEX
  8
MY3DLAYER
10
324.7925927171388
20
357.5235238063781
30
1.8047785488306544e-13
 70
     32
  0
VERTEX
  8
MY3DLAYER
10
324.7500000000001
20
357.2
30
1.8047785488306544e-13
 70
     32
  0
VERTEX
  8
MY3DLAYER
10
324.7925927171388
20
356.87647619362184
30
1.8047785488306544e-13
 70
     32
  0
VERTEX
  8
MY3DLAYER
10
324.91746824526956
20
356.57500000000005
30
1.8047785488306544e-13
 70
     32
  0
VERTEX
  8
MY3DLAYER
10
325.11611652351695
20
356.31611652351677
30
1.8047785488306544e-13
 70
     32
  0
VERTEX
  8
MY3DLAYER
10
325.3750000000001
20
356.1174682452694
30
1.8047785488306544e-13
 70
     32
  0
VERTEX
  8
MY3DLAYER
10
325.676476193622
20
355.9925927171387
30
1.8047785488306544e-13
 70
     32
  0
VERTEX
  8
MY3DLAYER
10
326.0000000000001
20
355.95
30
1.8047785488306544e-13
 70
     32
  0
VERTEX
  8
MY3DLAYER
10
326.32352380637826
20
355.9925927171387
30
1.8047785488306544e-13
 70
     32
  0
VERTEX
  8
MY3DLAYER
10
326.62500000000006
20
356.1174682452694
30
1.8047785488306544e-13
 70
     32
  0
VERTEX
  8
MY3DLAYER
10
326.88388347648333
20
356.31611652351677
30
1.8047785488306544e-13
 70
     32
  0
VERTEX
  8
MY3DLAYER
10
327.0825317547307
20
356.57499999999993
30
1.8047785488306544e-13
 70
     32
  0
VERTEX
  8
MY3DLAYER
10
327.2074072828614
20
356.87647619362184
30
1.8047785488306544e-13
 70
     32
  0
VERTEX
  8
MY3DLAYER
10
327.2500000000001
20
357.2
30
1.8047785488306544e-13
 70
     32
  0
VERTEX
  8
MY3DLAYER
10
327.2074072828614
20
357.5235238063781
30
1.8047785488306544e-13
 70
     32
  0
VERTEX
  8
MY3DLAYER
10
327.0825317547307
20
357.82499999999993
30
1.8047785488306544e-13
 70
     32
  0
VERTEX
  8
MY3DLAYER
10
326.88388347648333
20
358.08388347648315
30
1.8047785488306544e-13
 70
     32
  0
VERTEX
  8
MY3DLAYER
10
326.62500000000017
20
358.28253175473054
30
1.8047785488306544e-13
 70
     32
  0
VERTEX
  8
MY3DLAYER
10
326.32352380637826
20
358.4074072828613
30
1.8047785488306544e-13
 70
     32
  0
VERTEX
  8
MY3DLAYER
10
326.0000000000001
20
358.45
30
1.8047785488306544e-13
 70
     32
  0
VERTEX
  8
MY3DLAYER
10
325.676476193622
20
358.4074072828613
30
1.8047785488306544e-13
 70
     32
  0
SEQEND
  0
POLYLINE
 8
Layer0
 66
     1
70
    8
 10
0.0
 20
 0.0
 30
0.0
  0
VERTEX
  8
MY3DLAYER
10
261.32352380637786
20
271.0074072828613
30
1.8047785488306544e-13
 70
     32
  0
VERTEX
  8
MY3DLAYER
10
260.9999999999998
20
271.05
30
1.8047785488306544e-13
 70
     32
  0
VERTEX
  8
MY3DLAYER
10
260.6764761936216
20
271.0074072828613
30
1.8047785488306544e-13
 70
     32
  0
VERTEX
  8
MY3DLAYER
10
260.3749999999998
20
270.88253175473056
30
1.8047785488306544e-13
 70
     32
  0
VERTEX
  8
MY3DLAYER
10
260.11611652351655
20
270.6838834764832
30
1.8047785488306544e-13
 70
     32
  0
VERTEX
  8
MY3DLAYER
10
259.91746824526916
20
270.42500000000007
30
1.8047785488306544e-13
 70
     32
  0
VERTEX
  8
MY3DLAYER
10
259.7925927171384
20
270.1235238063781
30
1.8047785488306544e-13
 70
     32
  0
VERTEX
  8
MY3DLAYER
10
259.7499999999998
20
269.8
30
1.8047785488306544e-13
 70
     32
  0
VERTEX
  8
MY3DLAYER
10
259.7925927171384
20
269.47647619362186
30
1.8047785488306544e-13
 70
     32
  0
VERTEX
  8
MY3DLAYER
10
259.91746824526916
20
269.17500000000007
30
1.8047785488306544e-13
 70
     32
  0
VERTEX
  8
MY3DLAYER
10
260.11611652351655
20
268.9161165235168
30
1.8047785488306544e-13
 70
     32
  0
VERTEX
  8
MY3DLAYER
10
260.3749999999997
20
268.7174682452694
30
1.8047785488306544e-13
 70
     32
  0
VERTEX
  8
MY3DLAYER
10
260.6764761936216
20
268.5925927171387
30
1.8047785488306544e-13
 70
     32
  0
VERTEX
  8
MY3DLAYER
10
260.9999999999998
20
268.55
30
1.8047785488306544e-13
 70
     32
  0
VERTEX
  8
MY3DLAYER
10
261.32352380637786
20
268.5925927171387
30
1.8047785488306544e-13
 70
     32
  0
VERTEX
  8
MY3DLAYER
10
261.6249999999997
20
268.7174682452694
30
1.8047785488306544e-13
 70
     32
  0
VERTEX
  8
MY3DLAYER
10
261.88388347648294
20
268.9161165235168
30
1.8047785488306544e-13
 70
     32
  0
VERTEX
  8
MY3DLAYER
10
262.0825317547303
20
269.17499999999995
30
1.8047785488306544e-13
 70
     32
  0
VERTEX
  8
MY3DLAYER
10
262.2074072828611
20
269.47647619362186
30
1.8047785488306544e-13
 70
     32
  0
VERTEX
  8
MY3DLAYER
10
262.2499999999997
20
269.8
30
1.8047785488306544e-13
 70
     32
  0
VERTEX
  8
MY3DLAYER
10
262.2074072828611
20
270.1235238063781
30
1.8047785488306544e-13
 70
     32
  0
VERTEX
  8
MY3DLAYER
10
262.0825317547303
20
270.42499999999995
30
1.8047785488306544e-13
 70
     32
  0
VERTEX
  8
MY3DLAYER
10
261.88388347648294
20
270.6838834764832
30
1.8047785488306544e-13
 70
     32
  0
VERTEX
  8
MY3DLAYER
10
261.6249999999998
20
270.88253175473056
30
1.8047785488306544e-13
 70
     32
  0
VERTEX
  8
MY3DLAYER
10
261.32352380637786
20
271.0074072828613
30
1.8047785488306544e-13
 70
     32
  0
SEQEND
  0
POLYLINE
 8
Layer0
 66
     1
70
    8
 10
0.0
 20
 0.0
 30
0.0
  0
VERTEX
  8
MY3DLAYER
10
326.3235238063778
20
268.5925927171387
30
1.8047785488306544e-13
 70
     32
  0
VERTEX
  8
MY3DLAYER
10
326.6249999999996
20
268.7174682452694
30
1.8047785488306544e-13
 70
     32
  0
VERTEX
  8
MY3DLAYER
10
326.8838834764829
20
268.9161165235168
30
1.8047785488306544e-13
 70
     32
  0
VERTEX
  8
MY3DLAYER
10
327.08253175473027
20
269.17499999999995
30
1.8047785488306544e-13
 70
     32
  0
VERTEX
  8
MY3DLAYER
10
327.20740728286097
20
269.47647619362186
30
1.8047785488306544e-13
 70
     32
  0
VERTEX
  8
MY3DLAYER
10
327.24999999999966
20
269.8
30
1.8047785488306544e-13
 70
     32
  0
VERTEX
  8
MY3DLAYER
10
327.20740728286097
20
270.1235238063781
30
1.8047785488306544e-13
 70
     32
  0
VERTEX
  8
MY3DLAYER
10
327.08253175473027
20
270.42499999999995
30
1.8047785488306544e-13
 70
     32
  0
VERTEX
  8
MY3DLAYER
10
326.8838834764829
20
270.6838834764832
30
1.8047785488306544e-13
 70
     32
  0
VERTEX
  8
MY3DLAYER
10
326.6249999999997
20
270.88253175473056
30
1.8047785488306544e-13
 70
     32
  0
VERTEX
  8
MY3DLAYER
10
326.3235238063778
20
271.0074072828613
30
1.8047785488306544e-13
 70
     32
  0
VERTEX
  8
MY3DLAYER
10
325.99999999999966
20
271.05
30
1.8047785488306544e-13
 70
     32
  0
VERTEX
  8
MY3DLAYER
10
325.67647619362157
20
271.0074072828613
30
1.8047785488306544e-13
 70
     32
  0
VERTEX
  8
MY3DLAYER
10
325.3749999999997
20
270.88253175473056
30
1.8047785488306544e-13
 70
     32
  0
VERTEX
  8
MY3DLAYER
10
325.1161165235165
20
270.6838834764832
30
1.8047785488306544e-13
 70
     32
  0
VERTEX
  8
MY3DLAYER
10
324.9174682452691
20
270.42500000000007
30
1.8047785488306544e-13
 70
     32
  0
VERTEX
  8
MY3DLAYER
10
324.79259271713835
20
270.1235238063781
30
1.8047785488306544e-13
 70
     32
  0
VERTEX
  8
MY3DLAYER
10
324.74999999999966
20
269.8
30
1.8047785488306544e-13
 70
     32
  0
VERTEX
  8
MY3DLAYER
10
324.79259271713835
20
269.47647619362186
30
1.8047785488306544e-13
 70
     32
  0
VERTEX
  8
MY3DLAYER
10
324.9174682452691
20
269.17500000000007
30
1.8047785488306544e-13
 70
     32
  0
VERTEX
  8
MY3DLAYER
10
325.1161165235165
20
268.9161165235168
30
1.8047785488306544e-13
 70
     32
  0
VERTEX
  8
MY3DLAYER
10
325.37499999999966
20
268.7174682452694
30
1.8047785488306544e-13
 70
     32
  0
VERTEX
  8
MY3DLAYER
10
325.67647619362157
20
268.5925927171387
30
1.8047785488306544e-13
 70
     32
  0
VERTEX
  8
MY3DLAYER
10
325.99999999999966
20
268.55
30
1.8047785488306544e-13
 70
     32
  0
VERTEX
  8
MY3DLAYER
10
326.3235238063778
20
268.5925927171387
30
1.8047785488306544e-13
 70
     32
  0
SEQEND
  0
POLYLINE
 8
Layer0
 66
     1
70
    8
 10
0.0
 20
 0.0
 30
0.0
  0
VERTEX
  8
MY3DLAYER
10
314.2000000000001
20
213.61435935394488
30
1.8047785488306544e-13
 70
     32
  0
VERTEX
  8
MY3DLAYER
10
314.58588952783606
20
213.45451867793744
30
1.8047785488306544e-13
 70
     32
  0
VERTEX
  8
MY3DLAYER
10
315.0000000000001
20
213.4
30
1.8047785488306544e-13
 70
     32
  0
VERTEX
  8
MY3DLAYER
10
315.41411047216417
20
213.45451867793744
30
1.8047785488306544e-13
 70
     32
  0
VERTEX
  8
MY3DLAYER
10
315.8000000000001
20
213.61435935394488
30
1.8047785488306544e-13
 70
     32
  0
VERTEX
  8
MY3DLAYER
10
316.1313708498986
20
213.8686291501015
30
1.8047785488306544e-13
 70
     32
  0
VERTEX
  8
MY3DLAYER
10
316.3856406460552
20
214.20000000000002
30
1.8047785488306544e-13
 70
     32
  0
VERTEX
  8
MY3DLAYER
10
316.5454813220626
20
214.58588952783595
30
1.8047785488306544e-13
 70
     32
  0
VERTEX
  8
MY3DLAYER
10
316.6000000000001
20
215.0
30
1.8047785488306544e-13
 70
     32
  0
VERTEX
  8
MY3DLAYER
10
316.5454813220626
20
215.41411047216405
30
1.8047785488306544e-13
 70
     32
  0
VERTEX
  8
MY3DLAYER
10
316.3856406460552
20
215.8
30
1.8047785488306544e-13
 70
     32
  0
VERTEX
  8
MY3DLAYER
10
316.1313708498986
20
216.13137084989853
30
1.8047785488306544e-13
 70
     32
  0
VERTEX
  8
MY3DLAYER
10
315.8000000000001
20
216.38564064605515
30
1.8047785488306544e-13
 70
     32
  0
VERTEX
  8
MY3DLAYER
10
315.41411047216417
20
216.54548132206259
30
1.8047785488306544e-13
 70
     32
  0
VERTEX
  8
MY3DLAYER
10
315.0000000000001
20
216.60000000000002
30
1.8047785488306544e-13
 70
     32
  0
VERTEX
  8
MY3DLAYER
10
314.58588952783606
20
216.54548132206259
30
1.8047785488306544e-13
 70
     32
  0
VERTEX
  8
MY3DLAYER
10
314.2000000000001
20
216.38564064605515
30
1.8047785488306544e-13
 70
     32
  0
VERTEX
  8
MY3DLAYER
10
313.8686291501016
20
216.13137084989853
30
1.8047785488306544e-13
 70
     32
  0
VERTEX
  8
MY3DLAYER
10
313.61435935394496
20
215.8
30
1.8047785488306544e-13
 70
     32
  0
VERTEX
  8
MY3DLAYER
10
313.45451867793764
20
215.41411047216405
30
1.8047785488306544e-13
 70
     32
  0
VERTEX
  8
MY3DLAYER
10
313.4000000000001
20
215.0
30
1.8047785488306544e-13
 70
     32
  0
VERTEX
  8
MY3DLAYER
10
313.45451867793764
20
214.58588952783595
30
1.8047785488306544e-13
 70
     32
  0
VERTEX
  8
MY3DLAYER
10
313.61435935394496
20
214.20000000000002
30
1.8047785488306544e-13
 70
     32
  0
VERTEX
  8
MY3DLAYER
10
313.8686291501016
20
213.8686291501015
30
1.8047785488306544e-13
 70
     32
  0
VERTEX
  8
MY3DLAYER
10
314.2000000000001
20
213.61435935394488
30
1.8047785488306544e-13
 70
     32
  0
SEQEND
  0
POLYLINE
 8
Layer0
 66
     1
70
    8
 10
0.0
 20
 0.0
 30
0.0
  0
VERTEX
  8
MY3DLAYER
10
314.2000000000001
20
121.3856406460551
30
1.8047785488306544e-13
 70
     32
  0
VERTEX
  8
MY3DLAYER
10
313.8686291501016
20
121.13137084989847
30
1.8047785488306544e-13
 70
     32
  0
VERTEX
  8
MY3DLAYER
10
313.61435935394496
20
120.8
30
1.8047785488306544e-13
 70
     32
  0
VERTEX
  8
MY3DLAYER
10
313.45451867793764
20
120.41411047216405
30
1.8047785488306544e-13
 70
     32
  0
VERTEX
  8
MY3DLAYER
10
313.4000000000001
20
120.0
30
1.8047785488306544e-13
 70
     32
  0
VERTEX
  8
MY3DLAYER
10
313.45451867793764
20
119.585889527836
30
1.8047785488306544e-13
 70
     32
  0
VERTEX
  8
MY3DLAYER
10
313.61435935394496
20
119.2
30
1.8047785488306544e-13
 70
     32
  0
VERTEX
  8
MY3DLAYER
10
313.8686291501016
20
118.86862915010154
30
1.8047785488306544e-13
 70
     32
  0
VERTEX
  8
MY3DLAYER
10
314.2000000000001
20
118.61435935394492
30
1.8047785488306544e-13
 70
     32
  0
VERTEX
  8
MY3DLAYER
10
314.58588952783606
20
118.45451867793749
30
1.8047785488306544e-13
 70
     32
  0
VERTEX
  8
MY3DLAYER
10
315.0000000000001
20
118.4
30
1.8047785488306544e-13
 70
     32
  0
VERTEX
  8
MY3DLAYER
10
315.41411047216417
20
118.45451867793749
30
1.8047785488306544e-13
 70
     32
  0
VERTEX
  8
MY3DLAYER
10
315.8000000000001
20
118.61435935394492
30
1.8047785488306544e-13
 70
     32
  0
VERTEX
  8
MY3DLAYER
10
316.1313708498986
20
118.86862915010154
30
1.8047785488306544e-13
 70
     32
  0
VERTEX
  8
MY3DLAYER
10
316.3856406460552
20
119.2
30
1.8047785488306544e-13
 70
     32
  0
VERTEX
  8
MY3DLAYER
10
316.5454813220626
20
119.58588952783595
30
1.8047785488306544e-13
 70
     32
  0
VERTEX
  8
MY3DLAYER
10
316.6000000000001
20
120.0
30
1.8047785488306544e-13
 70
     32
  0
VERTEX
  8
MY3DLAYER
10
316.5454813220626
20
120.41411047216405
30
1.8047785488306544e-13
 70
     32
  0
VERTEX
  8
MY3DLAYER
10
316.3856406460552
20
120.8
30
1.8047785488306544e-13
 70
     32
  0
VERTEX
  8
MY3DLAYER
10
316.1313708498986
20
121.13137084989847
30
1.8047785488306544e-13
 70
     32
  0
VERTEX
  8
MY3DLAYER
10
315.8000000000001
20
121.3856406460551
30
1.8047785488306544e-13
 70
     32
  0
VERTEX
  8
MY3DLAYER
10
315.41411047216417
20
121.54548132206253
30
1.8047785488306544e-13
 70
     32
  0
VERTEX
  8
MY3DLAYER
10
315.0000000000001
20
121.60000000000001
30
1.8047785488306544e-13
 70
     32
  0
VERTEX
  8
MY3DLAYER
10
314.58588952783606
20
121.54548132206253
30
1.8047785488306544e-13
 70
     32
  0
VERTEX
  8
MY3DLAYER
10
314.2000000000001
20
121.3856406460551
30
1.8047785488306544e-13
 70
     32
  0
SEQEND
  0
POLYLINE
 8
Layer0
 66
     1
70
    8
 10
0.0
 20
 0.0
 30
0.0
  0
VERTEX
  8
MY3DLAYER
10
139.10000000000014
20
120.0
30
1.8047785488306544e-13
 70
     32
  0
VERTEX
  8
MY3DLAYER
10
139.04548132206264
20
120.41411047216401
30
1.8047785488306544e-13
 70
     32
  0
VERTEX
  8
MY3DLAYER
10
138.8856406460552
20
120.8
30
1.8047785488306544e-13
 70
     32
  0
VERTEX
  8
MY3DLAYER
10
138.6313708498986
20
121.13137084989847
30
1.8047785488306544e-13
 70
     32
  0
VERTEX
  8
MY3DLAYER
10
138.30000000000013
20
121.3856406460551
30
1.8047785488306544e-13
 70
     32
  0
VERTEX
  8
MY3DLAYER
10
137.9141104721642
20
121.54548132206253
30
1.8047785488306544e-13
 70
     32
  0
VERTEX
  8
MY3DLAYER
10
137.50000000000014
20
121.60000000000001
30
1.8047785488306544e-13
 70
     32
  0
VERTEX
  8
MY3DLAYER
10
137.08588952783612
20
121.54548132206253
30
1.8047785488306544e-13
 70
     32
  0
VERTEX
  8
MY3DLAYER
10
136.70000000000013
20
121.3856406460551
30
1.8047785488306544e-13
 70
     32
  0
VERTEX
  8
MY3DLAYER
10
136.36862915010167
20
121.13137084989847
30
1.8047785488306544e-13
 70
     32
  0
VERTEX
  8
MY3DLAYER
10
136.11435935394505
20
120.8
30
1.8047785488306544e-13
 70
     32
  0
VERTEX
  8
MY3DLAYER
10
135.9545186779376
20
120.41411047216405
30
1.8047785488306544e-13
 70
     32
  0
VERTEX
  8
MY3DLAYER
10
135.90000000000015
20
120.0
30
1.8047785488306544e-13
 70
     32
  0
VERTEX
  8
MY3DLAYER
10
135.9545186779376
20
119.58588952783595
30
1.8047785488306544e-13
 70
     32
  0
VERTEX
  8
MY3DLAYER
10
136.11435935394505
20
119.2
30
1.8047785488306544e-13
 70
     32
  0
VERTEX
  8
MY3DLAYER
10
136.36862915010167
20
118.86862915010154
30
1.8047785488306544e-13
 70
     32
  0
VERTEX
  8
MY3DLAYER
10
136.70000000000013
20
118.61435935394492
30
1.8047785488306544e-13
 70
     32
  0
VERTEX
  8
MY3DLAYER
10
137.0858895278361
20
118.45451867793749
30
1.8047785488306544e-13
 70
     32
  0
VERTEX
  8
MY3DLAYER
10
137.50000000000014
20
118.4
30
1.8047785488306544e-13
 70
     32
  0
VERTEX
  8
MY3DLAYER
10
137.9141104721642
20
118.45451867793749
30
1.8047785488306544e-13
 70
     32
  0
VERTEX
  8
MY3DLAYER
10
138.30000000000013
20
118.61435935394492
30
1.8047785488306544e-13
 70
     32
  0
VERTEX
  8
MY3DLAYER
10
138.6313708498986
20
118.86862915010154
30
1.8047785488306544e-13
 70
     32
  0
VERTEX
  8
MY3DLAYER
10
138.8856406460552
20
119.2
30
1.8047785488306544e-13
 70
     32
  0
VERTEX
  8
MY3DLAYER
10
139.04548132206264
20
119.58588952783595
30
1.8047785488306544e-13
 70
     32
  0
VERTEX
  8
MY3DLAYER
10
139.10000000000014
20
120.0
30
1.8047785488306544e-13
 70
     32
  0
SEQEND
  0
POLYLINE
 8
Layer0
 66
     1
70
    8
 10
0.0
 20
 0.0
 30
0.0
  0
VERTEX
  8
MY3DLAYER
10
135.90000000000015
20
215.0
30
1.8047785488306544e-13
 70
     32
  0
VERTEX
  8
MY3DLAYER
10
135.9545186779376
20
214.58588952783595
30
1.8047785488306544e-13
 70
     32
  0
VERTEX
  8
MY3DLAYER
10
136.11435935394505
20
214.20000000000002
30
1.8047785488306544e-13
 70
     32
  0
VERTEX
  8
MY3DLAYER
10
136.36862915010167
20
213.8686291501015
30
1.8047785488306544e-13
 70
     32
  0
VERTEX
  8
MY3DLAYER
10
136.70000000000013
20
213.61435935394488
30
1.8047785488306544e-13
 70
     32
  0
VERTEX
  8
MY3DLAYER
10
137.0858895278361
20
213.45451867793744
30
1.8047785488306544e-13
 70
     32
  0
VERTEX
  8
MY3DLAYER
10
137.50000000000014
20
213.4
30
1.8047785488306544e-13
 70
     32
  0
VERTEX
  8
MY3DLAYER
10
137.9141104721642
20
213.45451867793744
30
1.8047785488306544e-13
 70
     32
  0
VERTEX
  8
MY3DLAYER
10
138.30000000000013
20
213.61435935394488
30
1.8047785488306544e-13
 70
     32
  0
VERTEX
  8
MY3DLAYER
10
138.6313708498986
20
213.8686291501015
30
1.8047785488306544e-13
 70
     32
  0
VERTEX
  8
MY3DLAYER
10
138.8856406460552
20
214.20000000000002
30
1.8047785488306544e-13
 70
     32
  0
VERTEX
  8
MY3DLAYER
10
139.04548132206264
20
214.58588952783595
30
1.8047785488306544e-13
 70
     32
  0
VERTEX
  8
MY3DLAYER
10
139.10000000000014
20
215.0
30
1.8047785488306544e-13
 70
     32
  0
VERTEX
  8
MY3DLAYER
10
139.04548132206264
20
215.41411047216405
30
1.8047785488306544e-13
 70
     32
  0
VERTEX
  8
MY3DLAYER
10
138.8856406460552
20
215.8
30
1.8047785488306544e-13
 70
     32
  0
VERTEX
  8
MY3DLAYER
10
138.6313708498986
20
216.13137084989853
30
1.8047785488306544e-13
 70
     32
  0
VERTEX
  8
MY3DLAYER
10
138.30000000000013
20
216.38564064605515
30
1.8047785488306544e-13
 70
     32
  0
VERTEX
  8
MY3DLAYER
10
137.9141104721642
20
216.54548132206259
30
1.8047785488306544e-13
 70
     32
  0
VERTEX
  8
MY3DLAYER
10
137.50000000000014
20
216.60000000000002
30
1.8047785488306544e-13
 70
     32
  0
VERTEX
  8
MY3DLAYER
10
137.08588952783612
20
216.54548132206259
30
1.8047785488306544e-13
 70
     32
  0
VERTEX
  8
MY3DLAYER
10
136.70000000000013
20
216.38564064605515
30
1.8047785488306544e-13
 70
     32
  0
VERTEX
  8
MY3DLAYER
10
136.36862915010167
20
216.13137084989853
30
1.8047785488306544e-13
 70
     32
  0
VERTEX
  8
MY3DLAYER
10
136.11435935394505
20
215.8
30
1.8047785488306544e-13
 70
     32
  0
VERTEX
  8
MY3DLAYER
10
135.9545186779376
20
215.41411047216405
30
1.8047785488306544e-13
 70
     32
  0
VERTEX
  8
MY3DLAYER
10
135.90000000000015
20
215.0
30
1.8047785488306544e-13
 70
     32
  0
SEQEND
 0
ENDSEC
 0
EOF
