 0
SECTION
 2
ENTITIES
  0
LINE
 8
Layer0
10
233.63557505539455
20
247.09211080376664
30
523.7000200567892
11
233.63557505539455
21
229.75236484161104
31
523.7000200567892
  0
LINE
 8
Layer0
10
230.63557505539453
20
568.752364841611
30
523.7000200567892
11
212.63557505539455
21
568.752364841611
31
523.7000200567892
  0
LINE
 8
Layer0
10
454.63557505539455
20
589.752364841611
30
523.7000200567892
11
571.6355750553947
21
589.752364841611
31
523.7000200567892
  0
LINE
 8
Layer0
10
575.2958290932389
20
250.75236484161104
30
523.7000200567892
11
592.6355750553946
21
250.75236484161104
31
523.7000200567892
  0
LINE
 8
Layer0
10
592.6355750553946
20
568.752364841611
30
523.7000200567892
11
592.6355750553946
21
250.75236484161104
31
523.7000200567892
  0
LINE
 8
Layer0
10
574.6355750553947
20
568.752364841611
30
523.7000200567892
11
592.6355750553946
21
568.752364841611
31
523.7000200567892
  0
LINE
 8
Layer0
10
571.6355750553946
20
229.75236484161104
30
523.7000200567892
11
571.6355750553946
21
247.09211080376664
31
523.7000200567892
  0
LINE
 8
Layer0
10
571.6355750553946
20
229.75236484161104
30
523.7000200567892
11
233.63557505539455
21
229.75236484161104
31
523.7000200567892
  0
LINE
 8
Layer0
10
212.63557505539455
20
250.75236484161104
30
523.7000200567892
11
212.63557505539455
21
568.752364841611
31
523.7000200567892
  0
LINE
 8
Layer0
10
212.63557505539455
20
250.75236484161104
30
523.7000200567892
11
229.97532101755016
21
250.75236484161104
31
523.7000200567892
  0
LINE
 8
Layer0
10
233.63557505539455
20
589.752364841611
30
523.7000200567892
11
233.63557505539455
21
571.752364841611
31
523.7000200567892
  0
LINE
 8
Layer0
10
406.23020706808967
20
287.42532640974076
30
523.7000200567893
11
402.6067404366545
21
287.9023648416938
31
523.7000200567893
  0
LINE
 8
Layer0
10
409.6067404366544
20
286.02672049467594
30
523.7000200567893
11
406.23020706808967
21
287.42532640974076
31
523.7000200567893
  0
LINE
 8
Layer0
10
412.5062353732656
20
283.80185977830547
30
523.7000200567893
11
409.6067404366544
21
286.02672049467594
31
523.7000200567893
  0
LINE
 8
Layer0
10
414.7310960896363
20
280.9023648416937
30
523.7000200567893
11
412.5062353732656
21
283.80185977830547
31
523.7000200567893
  0
LINE
 8
Layer0
10
416.12970200470096
20
277.5258314731291
30
523.7000200567893
11
414.7310960896363
21
280.9023648416937
31
523.7000200567893
  0
LINE
 8
Layer0
10
416.60674043665415
20
273.9023648416938
30
523.7000200567893
11
416.12970200470096
21
277.5258314731291
31
523.7000200567893
  0
LINE
 8
Layer0
10
416.12970200470096
20
270.2788982102585
30
523.7000200567893
11
416.60674043665415
21
273.9023648416938
31
523.7000200567893
  0
LINE
 8
Layer0
10
414.7310960896363
20
266.9023648416937
30
523.7000200567893
11
416.12970200470096
21
270.2788982102585
31
523.7000200567893
  0
LINE
 8
Layer0
10
412.5062353732656
20
264.0028699050821
30
523.7000200567893
11
414.7310960896363
21
266.9023648416937
31
523.7000200567893
  0
LINE
 8
Layer0
10
409.6067404366544
20
261.7780091887116
30
523.7000200567893
11
412.5062353732656
21
264.0028699050821
31
523.7000200567893
  0
LINE
 8
Layer0
10
406.23020706808967
20
260.3794032736468
30
523.7000200567893
11
409.6067404366544
21
261.7780091887116
31
523.7000200567893
  0
LINE
 8
Layer0
10
402.6067404366545
20
259.9023648416937
30
523.7000200567893
11
406.23020706808967
21
260.3794032736468
31
523.7000200567893
  0
LINE
 8
Layer0
10
398.9832738052191
20
260.3794032736468
30
523.7000200567893
11
402.6067404366545
21
259.9023648416937
31
523.7000200567893
  0
LINE
 8
Layer0
10
395.6067404366544
20
261.7780091887116
30
523.7000200567893
11
398.9832738052191
21
260.3794032736468
31
523.7000200567893
  0
LINE
 8
Layer0
10
392.70724550004275
20
264.0028699050821
30
523.7000200567893
11
395.6067404366544
21
261.7780091887116
31
523.7000200567893
  0
LINE
 8
Layer0
10
390.4823847836723
20
266.9023648416938
30
523.7000200567893
11
392.70724550004275
21
264.0028699050821
31
523.7000200567893
  0
LINE
 8
Layer0
10
389.08377886860745
20
270.2788982102585
30
523.7000200567893
11
390.4823847836723
21
266.9023648416938
31
523.7000200567893
  0
LINE
 8
Layer0
10
388.60674043665443
20
273.9023648416938
30
523.7000200567893
11
389.08377886860745
21
270.2788982102585
31
523.7000200567893
  0
LINE
 8
Layer0
10
389.08377886860745
20
277.5258314731291
30
523.7000200567893
11
388.60674043665443
21
273.9023648416938
31
523.7000200567893
  0
LINE
 8
Layer0
10
390.4823847836723
20
280.9023648416938
30
523.7000200567893
11
389.08377886860745
21
277.5258314731291
31
523.7000200567893
  0
LINE
 8
Layer0
10
392.70724550004275
20
283.80185977830547
30
523.7000200567893
11
390.4823847836723
21
280.9023648416938
31
523.7000200567893
  0
LINE
 8
Layer0
10
395.60674043665443
20
286.02672049467594
30
523.7000200567893
11
392.70724550004275
21
283.80185977830547
31
523.7000200567893
  0
LINE
 8
Layer0
10
398.9832738052191
20
287.42532640974076
30
523.7000200567893
11
395.60674043665443
21
286.02672049467594
31
523.7000200567893
  0
LINE
 8
Layer0
10
402.6067404366545
20
287.9023648416938
30
523.7000200567893
11
398.9832738052191
21
287.42532640974076
31
523.7000200567893
  0
LINE
 8
Layer0
10
386.375369586756
20
290.5337356915922
30
523.7000200567893
11
386.7067404366545
21
290.7880054877488
31
523.7000200567893
  0
LINE
 8
Layer0
10
386.12109979059943
20
290.2023648416937
30
523.7000200567893
11
386.375369586756
21
290.5337356915922
31
523.7000200567893
  0
LINE
 8
Layer0
10
385.96125911459194
20
289.8164753138577
30
523.7000200567893
11
386.12109979059943
21
290.2023648416937
31
523.7000200567893
  0
LINE
 8
Layer0
10
385.9067404366545
20
289.4023648416937
30
523.7000200567893
11
385.96125911459194
21
289.8164753138577
31
523.7000200567893
  0
LINE
 8
Layer0
10
385.96125911459194
20
288.98825436952967
30
523.7000200567893
11
385.9067404366545
21
289.4023648416937
31
523.7000200567893
  0
LINE
 8
Layer0
10
386.12109979059943
20
288.6023648416937
30
523.7000200567893
11
385.96125911459194
21
288.98825436952967
31
523.7000200567893
  0
LINE
 8
Layer0
10
386.375369586756
20
288.27099399179525
30
523.7000200567893
11
386.12109979059943
21
288.6023648416937
31
523.7000200567893
  0
LINE
 8
Layer0
10
386.7067404366545
20
288.01672419563863
30
523.7000200567893
11
386.375369586756
21
288.27099399179525
31
523.7000200567893
  0
LINE
 8
Layer0
10
387.0926299644904
20
287.8568835196312
30
523.7000200567893
11
386.7067404366545
21
288.01672419563863
31
523.7000200567893
  0
LINE
 8
Layer0
10
387.50674043665447
20
287.8023648416937
30
523.7000200567893
11
387.0926299644904
21
287.8568835196312
31
523.7000200567893
  0
LINE
 8
Layer0
10
387.9208509088185
20
287.8568835196312
30
523.7000200567893
11
387.50674043665447
21
287.8023648416937
31
523.7000200567893
  0
LINE
 8
Layer0
10
388.3067404366545
20
288.01672419563863
30
523.7000200567893
11
387.9208509088185
21
287.8568835196312
31
523.7000200567893
  0
LINE
 8
Layer0
10
388.63811128655294
20
288.27099399179525
30
523.7000200567893
11
388.3067404366545
21
288.01672419563863
31
523.7000200567893
  0
LINE
 8
Layer0
10
388.89238108270956
20
288.6023648416937
30
523.7000200567893
11
388.63811128655294
21
288.27099399179525
31
523.7000200567893
  0
LINE
 8
Layer0
10
389.052221758717
20
288.98825436952967
30
523.7000200567893
11
388.89238108270956
21
288.6023648416937
31
523.7000200567893
  0
LINE
 8
Layer0
10
389.1067404366545
20
289.4023648416937
30
523.7000200567893
11
389.052221758717
21
288.98825436952967
31
523.7000200567893
  0
LINE
 8
Layer0
10
389.052221758717
20
289.8164753138578
30
523.7000200567893
11
389.1067404366545
21
289.4023648416937
31
523.7000200567893
  0
LINE
 8
Layer0
10
388.89238108270956
20
290.2023648416937
30
523.7000200567893
11
389.052221758717
21
289.8164753138578
31
523.7000200567893
  0
LINE
 8
Layer0
10
388.63811128655294
20
290.5337356915922
30
523.7000200567893
11
388.89238108270956
21
290.2023648416937
31
523.7000200567893
  0
LINE
 8
Layer0
10
388.3067404366545
20
290.7880054877488
30
523.7000200567893
11
388.63811128655294
21
290.5337356915922
31
523.7000200567893
  0
LINE
 8
Layer0
10
387.9208509088185
20
290.94784616375625
30
523.7000200567893
11
388.3067404366545
21
290.7880054877488
31
523.7000200567893
  0
LINE
 8
Layer0
10
387.50674043665447
20
291.0023648416937
30
523.7000200567893
11
387.9208509088185
21
290.94784616375625
31
523.7000200567893
  0
LINE
 8
Layer0
10
387.0926299644904
20
290.94784616375625
30
523.7000200567893
11
387.50674043665447
21
291.0023648416937
31
523.7000200567893
  0
LINE
 8
Layer0
10
386.7067404366545
20
290.7880054877488
30
523.7000200567893
11
387.0926299644904
21
290.94784616375625
31
523.7000200567893
  0
LINE
 8
Layer0
10
418.9208509088184
20
290.94784616375625
30
523.7000200567893
11
419.30674043665437
21
290.7880054877488
31
523.7000200567893
  0
LINE
 8
Layer0
10
418.50674043665435
20
291.0023648416937
30
523.7000200567893
11
418.9208509088184
21
290.94784616375625
31
523.7000200567893
  0
LINE
 8
Layer0
10
418.09262996449047
20
290.94784616375625
30
523.7000200567893
11
418.50674043665435
21
291.0023648416937
31
523.7000200567893
  0
LINE
 8
Layer0
10
417.7067404366545
20
290.7880054877488
30
523.7000200567893
11
418.09262996449047
21
290.94784616375625
31
523.7000200567893
  0
LINE
 8
Layer0
10
417.37536958675594
20
290.5337356915922
30
523.7000200567893
11
417.7067404366545
21
290.7880054877488
31
523.7000200567893
  0
LINE
 8
Layer0
10
417.1210997905993
20
290.2023648416937
30
523.7000200567893
11
417.37536958675594
21
290.5337356915922
31
523.7000200567893
  0
LINE
 8
Layer0
10
416.96125911459205
20
289.8164753138577
30
523.7000200567893
11
417.1210997905993
21
290.2023648416937
31
523.7000200567893
  0
LINE
 8
Layer0
10
416.90674043665445
20
289.4023648416937
30
523.7000200567893
11
416.96125911459205
21
289.8164753138577
31
523.7000200567893
  0
LINE
 8
Layer0
10
416.96125911459205
20
288.98825436952967
30
523.7000200567893
11
416.90674043665445
21
289.4023648416937
31
523.7000200567893
  0
LINE
 8
Layer0
10
417.1210997905993
20
288.6023648416937
30
523.7000200567893
11
416.96125911459205
21
288.98825436952967
31
523.7000200567893
  0
LINE
 8
Layer0
10
417.37536958675594
20
288.27099399179525
30
523.7000200567893
11
417.1210997905993
21
288.6023648416937
31
523.7000200567893
  0
LINE
 8
Layer0
10
417.7067404366545
20
288.01672419563863
30
523.7000200567893
11
417.37536958675594
21
288.27099399179525
31
523.7000200567893
  0
LINE
 8
Layer0
10
418.09262996449047
20
287.8568835196312
30
523.7000200567893
11
417.7067404366545
21
288.01672419563863
31
523.7000200567893
  0
LINE
 8
Layer0
10
418.50674043665435
20
287.8023648416937
30
523.7000200567893
11
418.09262996449047
21
287.8568835196312
31
523.7000200567893
  0
LINE
 8
Layer0
10
418.9208509088184
20
287.8568835196312
30
523.7000200567893
11
418.50674043665435
21
287.8023648416937
31
523.7000200567893
  0
LINE
 8
Layer0
10
419.30674043665437
20
288.01672419563863
30
523.7000200567893
11
418.9208509088184
21
287.8568835196312
31
523.7000200567893
  0
LINE
 8
Layer0
10
419.6381112865529
20
288.27099399179525
30
523.7000200567893
11
419.30674043665437
21
288.01672419563863
31
523.7000200567893
  0
LINE
 8
Layer0
10
419.89238108270945
20
288.6023648416937
30
523.7000200567893
11
419.6381112865529
21
288.27099399179525
31
523.7000200567893
  0
LINE
 8
Layer0
10
420.05222175871694
20
288.98825436952967
30
523.7000200567893
11
419.89238108270945
21
288.6023648416937
31
523.7000200567893
  0
LINE
 8
Layer0
10
420.1067404366543
20
289.4023648416937
30
523.7000200567893
11
420.05222175871694
21
288.98825436952967
31
523.7000200567893
  0
LINE
 8
Layer0
10
420.05222175871694
20
289.8164753138578
30
523.7000200567893
11
420.1067404366543
21
289.4023648416937
31
523.7000200567893
  0
LINE
 8
Layer0
10
419.89238108270945
20
290.2023648416937
30
523.7000200567893
11
420.05222175871694
21
289.8164753138578
31
523.7000200567893
  0
LINE
 8
Layer0
10
419.6381112865529
20
290.5337356915922
30
523.7000200567893
11
419.89238108270945
21
290.2023648416937
31
523.7000200567893
  0
LINE
 8
Layer0
10
419.30674043665437
20
290.7880054877488
30
523.7000200567893
11
419.6381112865529
21
290.5337356915922
31
523.7000200567893
  0
LINE
 8
Layer0
10
420.1067404366543
20
258.4023648416937
30
523.7000200567893
11
420.05222175871694
21
257.98825436952967
31
523.7000200567893
  0
LINE
 8
Layer0
10
420.05222175871694
20
258.8164753138578
30
523.7000200567893
11
420.1067404366543
21
258.4023648416937
31
523.7000200567893
  0
LINE
 8
Layer0
10
419.89238108270945
20
259.20236484169374
30
523.7000200567893
11
420.05222175871694
21
258.8164753138578
31
523.7000200567893
  0
LINE
 8
Layer0
10
419.6381112865529
20
259.5337356915922
30
523.7000200567893
11
419.89238108270945
21
259.20236484169374
31
523.7000200567893
  0
LINE
 8
Layer0
10
419.30674043665437
20
259.7880054877488
30
523.7000200567893
11
419.6381112865529
21
259.5337356915922
31
523.7000200567893
  0
LINE
 8
Layer0
10
418.9208509088184
20
259.94784616375625
30
523.7000200567893
11
419.30674043665437
21
259.7880054877488
31
523.7000200567893
  0
LINE
 8
Layer0
10
418.50674043665435
20
260.0023648416937
30
523.7000200567893
11
418.9208509088184
21
259.94784616375625
31
523.7000200567893
  0
LINE
 8
Layer0
10
418.09262996449047
20
259.94784616375625
30
523.7000200567893
11
418.50674043665435
21
260.0023648416937
31
523.7000200567893
  0
LINE
 8
Layer0
10
417.7067404366545
20
259.7880054877488
30
523.7000200567893
11
418.09262996449047
21
259.94784616375625
31
523.7000200567893
  0
LINE
 8
Layer0
10
417.37536958675594
20
259.5337356915922
30
523.7000200567893
11
417.7067404366545
21
259.7880054877488
31
523.7000200567893
  0
LINE
 8
Layer0
10
417.1210997905993
20
259.20236484169374
30
523.7000200567893
11
417.37536958675594
21
259.5337356915922
31
523.7000200567893
  0
LINE
 8
Layer0
10
416.96125911459205
20
258.8164753138577
30
523.7000200567893
11
417.1210997905993
21
259.20236484169374
31
523.7000200567893
  0
LINE
 8
Layer0
10
416.90674043665445
20
258.4023648416937
30
523.7000200567893
11
416.96125911459205
21
258.8164753138577
31
523.7000200567893
  0
LINE
 8
Layer0
10
416.96125911459205
20
257.98825436952967
30
523.7000200567893
11
416.90674043665445
21
258.4023648416937
31
523.7000200567893
  0
LINE
 8
Layer0
10
417.1210997905993
20
257.6023648416937
30
523.7000200567893
11
416.96125911459205
21
257.98825436952967
31
523.7000200567893
  0
LINE
 8
Layer0
10
417.37536958675594
20
257.27099399179525
30
523.7000200567893
11
417.1210997905993
21
257.6023648416937
31
523.7000200567893
  0
LINE
 8
Layer0
10
417.7067404366545
20
257.01672419563863
30
523.7000200567893
11
417.37536958675594
21
257.27099399179525
31
523.7000200567893
  0
LINE
 8
Layer0
10
418.09262996449047
20
256.8568835196312
30
523.7000200567893
11
417.7067404366545
21
257.01672419563863
31
523.7000200567893
  0
LINE
 8
Layer0
10
418.50674043665435
20
256.8023648416937
30
523.7000200567893
11
418.09262996449047
21
256.8568835196312
31
523.7000200567893
  0
LINE
 8
Layer0
10
418.9208509088184
20
256.8568835196312
30
523.7000200567893
11
418.50674043665435
21
256.8023648416937
31
523.7000200567893
  0
LINE
 8
Layer0
10
419.30674043665437
20
257.01672419563863
30
523.7000200567893
11
418.9208509088184
21
256.8568835196312
31
523.7000200567893
  0
LINE
 8
Layer0
10
419.6381112865529
20
257.27099399179525
30
523.7000200567893
11
419.30674043665437
21
257.01672419563863
31
523.7000200567893
  0
LINE
 8
Layer0
10
419.89238108270945
20
257.6023648416937
30
523.7000200567893
11
419.6381112865529
21
257.27099399179525
31
523.7000200567893
  0
LINE
 8
Layer0
10
420.05222175871694
20
257.98825436952967
30
523.7000200567893
11
419.89238108270945
21
257.6023648416937
31
523.7000200567893
  0
LINE
 8
Layer0
10
385.96125911459194
20
258.8164753138577
30
523.7000200567893
11
386.1210997905994
21
259.20236484169374
31
523.7000200567893
  0
LINE
 8
Layer0
10
385.90674043665445
20
258.4023648416937
30
523.7000200567893
11
385.96125911459194
21
258.8164753138577
31
523.7000200567893
  0
LINE
 8
Layer0
10
385.96125911459194
20
257.98825436952967
30
523.7000200567893
11
385.90674043665445
21
258.4023648416937
31
523.7000200567893
  0
LINE
 8
Layer0
10
386.1210997905994
20
257.6023648416937
30
523.7000200567893
11
385.96125911459194
21
257.98825436952967
31
523.7000200567893
  0
LINE
 8
Layer0
10
386.375369586756
20
257.27099399179525
30
523.7000200567893
11
386.1210997905994
21
257.6023648416937
31
523.7000200567893
  0
LINE
 8
Layer0
10
386.70674043665446
20
257.01672419563863
30
523.7000200567893
11
386.375369586756
21
257.27099399179525
31
523.7000200567893
  0
LINE
 8
Layer0
10
387.0926299644904
20
256.8568835196312
30
523.7000200567893
11
386.70674043665446
21
257.01672419563863
31
523.7000200567893
  0
LINE
 8
Layer0
10
387.50674043665447
20
256.8023648416937
30
523.7000200567893
11
387.0926299644904
21
256.8568835196312
31
523.7000200567893
  0
LINE
 8
Layer0
10
387.9208509088185
20
256.8568835196312
30
523.7000200567893
11
387.50674043665447
21
256.8023648416937
31
523.7000200567893
  0
LINE
 8
Layer0
10
388.3067404366544
20
257.01672419563863
30
523.7000200567893
11
387.9208509088185
21
256.8568835196312
31
523.7000200567893
  0
LINE
 8
Layer0
10
388.63811128655294
20
257.27099399179525
30
523.7000200567893
11
388.3067404366544
21
257.01672419563863
31
523.7000200567893
  0
LINE
 8
Layer0
10
388.8923810827095
20
257.6023648416937
30
523.7000200567893
11
388.63811128655294
21
257.27099399179525
31
523.7000200567893
  0
LINE
 8
Layer0
10
389.052221758717
20
257.98825436952967
30
523.7000200567893
11
388.8923810827095
21
257.6023648416937
31
523.7000200567893
  0
LINE
 8
Layer0
10
389.10674043665443
20
258.4023648416937
30
523.7000200567893
11
389.052221758717
21
257.98825436952967
31
523.7000200567893
  0
LINE
 8
Layer0
10
389.052221758717
20
258.8164753138578
30
523.7000200567893
11
389.10674043665443
21
258.4023648416937
31
523.7000200567893
  0
LINE
 8
Layer0
10
388.8923810827095
20
259.20236484169374
30
523.7000200567893
11
389.052221758717
21
258.8164753138578
31
523.7000200567893
  0
LINE
 8
Layer0
10
388.63811128655294
20
259.5337356915922
30
523.7000200567893
11
388.8923810827095
21
259.20236484169374
31
523.7000200567893
  0
LINE
 8
Layer0
10
388.3067404366544
20
259.7880054877488
30
523.7000200567893
11
388.63811128655294
21
259.5337356915922
31
523.7000200567893
  0
LINE
 8
Layer0
10
387.92085090881847
20
259.94784616375625
30
523.7000200567893
11
388.3067404366544
21
259.7880054877488
31
523.7000200567893
  0
LINE
 8
Layer0
10
387.50674043665447
20
260.0023648416937
30
523.7000200567893
11
387.92085090881847
21
259.94784616375625
31
523.7000200567893
  0
LINE
 8
Layer0
10
387.0926299644904
20
259.94784616375625
30
523.7000200567893
11
387.50674043665447
21
260.0023648416937
31
523.7000200567893
  0
LINE
 8
Layer0
10
386.70674043665446
20
259.7880054877488
30
523.7000200567893
11
387.0926299644904
21
259.94784616375625
31
523.7000200567893
  0
LINE
 8
Layer0
10
386.375369586756
20
259.5337356915922
30
523.7000200567893
11
386.70674043665446
21
259.7880054877488
31
523.7000200567893
  0
LINE
 8
Layer0
10
386.1210997905994
20
259.20236484169374
30
523.7000200567893
11
386.375369586756
21
259.5337356915922
31
523.7000200567893
  0
LINE
 8
Layer0
10
571.6355750553946
20
571.752364841611
30
523.7000200567892
11
571.6355750553947
21
589.752364841611
31
523.7000200567892
  0
LINE
 8
Layer0
10
570.8591179200871
20
571.6501423204782
30
523.7000200567892
11
571.6355750553946
21
571.752364841611
31
523.7000200567892
  0
LINE
 8
Layer0
10
570.1355750553946
20
571.3504410529644
30
523.7000200567892
11
570.8591179200871
21
571.6501423204782
31
523.7000200567892
  0
LINE
 8
Layer0
10
569.514254711835
20
570.8736851851706
30
523.7000200567892
11
570.1355750553946
21
571.3504410529644
31
523.7000200567892
  0
LINE
 8
Layer0
10
569.0374988440414
20
570.252364841611
30
523.7000200567892
11
569.514254711835
21
570.8736851851706
31
523.7000200567892
  0
LINE
 8
Layer0
10
568.7377975765274
20
569.5288219769186
30
523.7000200567892
11
569.0374988440414
21
570.252364841611
31
523.7000200567892
  0
LINE
 8
Layer0
10
568.6355750553946
20
568.752364841611
30
523.7000200567892
11
568.7377975765274
21
569.5288219769186
31
523.7000200567892
  0
LINE
 8
Layer0
10
568.7377975765274
20
567.9759077063034
30
523.7000200567892
11
568.6355750553946
21
568.752364841611
31
523.7000200567892
  0
LINE
 8
Layer0
10
569.0374988440414
20
567.252364841611
30
523.7000200567892
11
568.7377975765274
21
567.9759077063034
31
523.7000200567892
  0
LINE
 8
Layer0
10
569.514254711835
20
566.6310444980513
30
523.7000200567892
11
569.0374988440414
21
567.252364841611
31
523.7000200567892
  0
LINE
 8
Layer0
10
570.1355750553946
20
566.1542886302576
30
523.7000200567892
11
569.514254711835
21
566.6310444980513
31
523.7000200567892
  0
LINE
 8
Layer0
10
570.8591179200871
20
565.8545873627438
30
523.7000200567892
11
570.1355750553946
21
566.1542886302576
31
523.7000200567892
  0
LINE
 8
Layer0
10
571.6355750553946
20
565.752364841611
30
523.7000200567892
11
570.8591179200871
21
565.8545873627438
31
523.7000200567892
  0
LINE
 8
Layer0
10
572.4120321907022
20
565.8545873627438
30
523.7000200567892
11
571.6355750553946
21
565.752364841611
31
523.7000200567892
  0
LINE
 8
Layer0
10
573.1355750553947
20
566.1542886302576
30
523.7000200567892
11
572.4120321907022
21
565.8545873627438
31
523.7000200567892
  0
LINE
 8
Layer0
10
573.7568953989544
20
566.6310444980513
30
523.7000200567892
11
573.1355750553947
21
566.1542886302576
31
523.7000200567892
  0
LINE
 8
Layer0
10
574.233651266748
20
567.252364841611
30
523.7000200567892
11
573.7568953989544
21
566.6310444980513
31
523.7000200567892
  0
LINE
 8
Layer0
10
574.5333525342619
20
567.9759077063034
30
523.7000200567892
11
574.233651266748
21
567.252364841611
31
523.7000200567892
  0
LINE
 8
Layer0
10
574.6355750553947
20
568.752364841611
30
523.7000200567892
11
574.5333525342619
21
567.9759077063034
31
523.7000200567892
  0
LINE
 8
Layer0
10
230.7377975765273
20
567.9759077063034
30
523.7000200567892
11
230.63557505539453
21
568.752364841611
31
523.7000200567892
  0
LINE
 8
Layer0
10
231.0374988440412
20
567.252364841611
30
523.7000200567892
11
230.7377975765273
21
567.9759077063034
31
523.7000200567892
  0
LINE
 8
Layer0
10
231.51425471183487
20
566.6310444980513
30
523.7000200567892
11
231.0374988440412
21
567.252364841611
31
523.7000200567892
  0
LINE
 8
Layer0
10
232.13557505539453
20
566.1542886302576
30
523.7000200567892
11
231.51425471183487
21
566.6310444980513
31
523.7000200567892
  0
LINE
 8
Layer0
10
232.859117920087
20
565.8545873627438
30
523.7000200567892
11
232.13557505539453
21
566.1542886302576
31
523.7000200567892
  0
LINE
 8
Layer0
10
233.63557505539455
20
565.752364841611
30
523.7000200567892
11
232.859117920087
21
565.8545873627438
31
523.7000200567892
  0
LINE
 8
Layer0
10
234.41203219070212
20
565.8545873627438
30
523.7000200567892
11
233.63557505539455
21
565.752364841611
31
523.7000200567892
  0
LINE
 8
Layer0
10
235.13557505539458
20
566.1542886302576
30
523.7000200567892
11
234.41203219070212
21
565.8545873627438
31
523.7000200567892
  0
LINE
 8
Layer0
10
235.75689539895424
20
566.6310444980513
30
523.7000200567892
11
235.13557505539458
21
566.1542886302576
31
523.7000200567892
  0
LINE
 8
Layer0
10
236.2336512667479
20
567.252364841611
30
523.7000200567892
11
235.75689539895424
21
566.6310444980513
31
523.7000200567892
  0
LINE
 8
Layer0
10
236.5333525342618
20
567.9759077063034
30
523.7000200567892
11
236.2336512667479
21
567.252364841611
31
523.7000200567892
  0
LINE
 8
Layer0
10
236.63557505539458
20
568.752364841611
30
523.7000200567892
11
236.5333525342618
21
567.9759077063034
31
523.7000200567892
  0
LINE
 8
Layer0
10
236.5333525342618
20
569.5288219769186
30
523.7000200567892
11
236.63557505539458
21
568.752364841611
31
523.7000200567892
  0
LINE
 8
Layer0
10
236.2336512667479
20
570.252364841611
30
523.7000200567892
11
236.5333525342618
21
569.5288219769186
31
523.7000200567892
  0
LINE
 8
Layer0
10
235.7568953989542
20
570.8736851851706
30
523.7000200567892
11
236.2336512667479
21
570.252364841611
31
523.7000200567892
  0
LINE
 8
Layer0
10
235.13557505539458
20
571.3504410529644
30
523.7000200567892
11
235.7568953989542
21
570.8736851851706
31
523.7000200567892
  0
LINE
 8
Layer0
10
234.41203219070212
20
571.6501423204782
30
523.7000200567892
11
235.13557505539458
21
571.3504410529644
31
523.7000200567892
  0
LINE
 8
Layer0
10
233.63557505539455
20
571.752364841611
30
523.7000200567892
11
234.41203219070212
21
571.6501423204782
31
523.7000200567892
  0
LINE
 8
Layer0
10
462.5567408327094
20
273.9023648416947
30
523.7000200567892
11
462.72881540994814
21
275.20940101946263
31
523.7000200567892
  0
LINE
 8
Layer0
10
462.728815409951
20
272.59532866392715
30
523.7000200567892
11
462.5567408327094
21
273.9023648416947
31
523.7000200567892
  0
LINE
 8
Layer0
10
463.23331254360073
20
271.3773648416954
30
523.7000200567892
11
462.728815409951
21
272.59532866392715
31
523.7000200567892
  0
LINE
 8
Layer0
10
464.03585158772114
20
270.33147559670425
30
523.7000200567892
11
463.23331254360073
21
271.3773648416954
31
523.7000200567892
  0
LINE
 8
Layer0
10
465.08174083271405
20
269.52893655258595
30
523.7000200567892
11
464.03585158772114
21
270.33147559670425
31
523.7000200567892
  0
LINE
 8
Layer0
10
466.2997046549469
20
269.0244394189389
30
523.7000200567892
11
465.08174083271405
21
269.52893655258595
31
523.7000200567892
  0
LINE
 8
Layer0
10
467.6067408327148
20
268.8523648417001
30
523.7000200567892
11
466.2997046549469
21
269.0244394189389
31
523.7000200567892
  0
LINE
 8
Layer0
10
468.9137770104824
20
269.0244394189417
30
523.7000200567892
11
467.6067408327148
21
268.8523648417001
31
523.7000200567892
  0
LINE
 8
Layer0
10
470.13174083271406
20
269.5289365525914
30
523.7000200567892
11
468.9137770104824
21
269.0244394189417
31
523.7000200567892
  0
LINE
 8
Layer0
10
471.1776300777054
20
270.33147559671187
30
523.7000200567892
11
470.13174083271406
21
269.5289365525914
31
523.7000200567892
  0
LINE
 8
Layer0
10
471.9801691218235
20
271.3773648417048
30
523.7000200567892
11
471.1776300777054
21
270.33147559671187
31
523.7000200567892
  0
LINE
 8
Layer0
10
472.48466625547064
20
272.5953286639376
30
523.7000200567892
11
471.9801691218235
21
271.3773648417048
31
523.7000200567892
  0
LINE
 8
Layer0
10
472.65674083270943
20
273.90236484170555
30
523.7000200567892
11
472.48466625547064
21
272.5953286639376
31
523.7000200567892
  0
LINE
 8
Layer0
10
472.48466625546786
20
275.2094010194731
30
523.7000200567892
11
472.65674083270943
21
273.90236484170555
31
523.7000200567892
  0
LINE
 8
Layer0
10
471.9801691218181
20
276.42736484170484
30
523.7000200567892
11
472.48466625546786
21
275.2094010194731
31
523.7000200567892
  0
LINE
 8
Layer0
10
471.1776300776977
20
277.473254086696
30
523.7000200567892
11
471.9801691218181
21
276.42736484170484
31
523.7000200567892
  0
LINE
 8
Layer0
10
470.1317408327047
20
278.2757931308143
30
523.7000200567892
11
471.1776300776977
21
277.473254086696
31
523.7000200567892
  0
LINE
 8
Layer0
10
468.9137770104719
20
278.7802902644613
30
523.7000200567892
11
470.1317408327047
21
278.2757931308143
31
523.7000200567892
  0
LINE
 8
Layer0
10
467.606740832704
20
278.95236484170016
30
523.7000200567892
11
468.9137770104719
21
278.7802902644613
31
523.7000200567892
  0
LINE
 8
Layer0
10
466.2997046549364
20
278.78029026445853
30
523.7000200567892
11
467.606740832704
21
278.95236484170016
31
523.7000200567892
  0
LINE
 8
Layer0
10
465.0817408327047
20
278.27579313080884
30
523.7000200567892
11
466.2997046549364
21
278.78029026445853
31
523.7000200567892
  0
LINE
 8
Layer0
10
464.03585158771347
20
277.47325408668837
30
523.7000200567892
11
465.0817408327047
21
278.27579313080884
31
523.7000200567892
  0
LINE
 8
Layer0
10
463.23331254359533
20
276.42736484169546
30
523.7000200567892
11
464.03585158771347
21
277.47325408668837
31
523.7000200567892
  0
LINE
 8
Layer0
10
462.72881540994814
20
275.20940101946263
30
523.7000200567892
11
463.23331254359533
21
276.42736484169546
31
523.7000200567892
  0
LINE
 8
Layer0
10
335.6741886543713
20
278.56795648074007
30
523.7000200567892
11
336.9475827171034
21
278.90916139149715
31
523.7000200567892
  0
LINE
 8
Layer0
10
334.5324947713217
20
277.90879921002755
30
523.7000200567892
11
335.6741886543713
21
278.56795648074007
31
523.7000200567892
  0
LINE
 8
Layer0
10
333.600305619346
20
276.97661005804986
30
523.7000200567892
11
334.5324947713217
21
277.90879921002755
31
523.7000200567892
  0
LINE
 8
Layer0
10
332.941148348636
20
275.83491617499885
30
523.7000200567892
11
333.600305619346
21
276.97661005804986
31
523.7000200567892
  0
LINE
 8
Layer0
10
332.59994343788156
20
274.561522112266
30
523.7000200567892
11
332.941148348636
21
275.83491617499885
31
523.7000200567892
  0
LINE
 8
Layer0
10
332.5999434378829
20
273.2432075708435
30
523.7000200567892
11
332.59994343788156
21
274.561522112266
31
523.7000200567892
  0
LINE
 8
Layer0
10
332.94114834864007
20
271.96981350811143
30
523.7000200567892
11
332.5999434378829
21
273.2432075708435
31
523.7000200567892
  0
LINE
 8
Layer0
10
333.6003056193526
20
270.8281196250618
30
523.7000200567892
11
332.94114834864007
21
271.96981350811143
31
523.7000200567892
  0
LINE
 8
Layer0
10
334.5324947713303
20
269.8959304730861
30
523.7000200567892
11
333.6003056193526
21
270.8281196250618
31
523.7000200567892
  0
LINE
 8
Layer0
10
335.6741886543813
20
269.23677320237607
30
523.7000200567892
11
334.5324947713303
21
269.8959304730861
31
523.7000200567892
  0
LINE
 8
Layer0
10
336.9475827171141
20
268.89556829162166
30
523.7000200567892
11
335.6741886543813
21
269.23677320237607
31
523.7000200567892
  0
LINE
 8
Layer0
10
338.2658972585366
20
268.8955682916231
30
523.7000200567892
11
336.9475827171141
21
268.89556829162166
31
523.7000200567892
  0
LINE
 8
Layer0
10
339.5392913212687
20
269.23677320238016
30
523.7000200567892
11
338.2658972585366
21
268.8955682916231
31
523.7000200567892
  0
LINE
 8
Layer0
10
340.6809852043183
20
269.8959304730927
30
523.7000200567892
11
339.5392913212687
21
269.23677320238016
31
523.7000200567892
  0
LINE
 8
Layer0
10
341.613174356294
20
270.82811962507037
30
523.7000200567892
11
340.6809852043183
21
269.8959304730927
31
523.7000200567892
  0
LINE
 8
Layer0
10
342.272331627004
20
271.9698135081214
30
523.7000200567892
11
341.613174356294
21
270.82811962507037
31
523.7000200567892
  0
LINE
 8
Layer0
10
342.6135365377584
20
273.2432075708542
30
523.7000200567892
11
342.272331627004
21
271.9698135081214
31
523.7000200567892
  0
LINE
 8
Layer0
10
342.613536537757
20
274.56152211227675
30
523.7000200567892
11
342.6135365377584
21
273.2432075708542
31
523.7000200567892
  0
LINE
 8
Layer0
10
342.2723316269999
20
275.8349161750088
30
523.7000200567892
11
342.613536537757
21
274.56152211227675
31
523.7000200567892
  0
LINE
 8
Layer0
10
341.6131743562874
20
276.97661005805844
30
523.7000200567892
11
342.2723316269999
21
275.8349161750088
31
523.7000200567892
  0
LINE
 8
Layer0
10
340.6809852043097
20
277.90879921003415
30
523.7000200567892
11
341.6131743562874
21
276.97661005805844
31
523.7000200567892
  0
LINE
 8
Layer0
10
339.5392913212587
20
278.56795648074416
30
523.7000200567892
11
340.6809852043097
21
277.90879921003415
31
523.7000200567892
  0
LINE
 8
Layer0
10
338.2658972585259
20
278.90916139149857
30
523.7000200567892
11
339.5392913212587
21
278.56795648074416
31
523.7000200567892
  0
LINE
 8
Layer0
10
336.9475827171034
20
278.90916139149715
30
523.7000200567892
11
338.2658972585259
21
278.90916139149857
31
523.7000200567892
  0
LINE
 8
Layer0
10
346.49062346430316
20
274.78624831804325
30
523.700020056789
11
346.23173998782
21
274.98489659629064
31
523.700020056789
  0
LINE
 8
Layer0
10
346.6892717425505
20
274.5273648415601
30
523.700020056789
11
346.49062346430316
21
274.78624831804325
31
523.700020056789
  0
LINE
 8
Layer0
10
346.8141472706813
20
274.2258886479383
30
523.700020056789
11
346.6892717425505
21
274.5273648415601
31
523.700020056789
  0
LINE
 8
Layer0
10
346.85673998781994
20
273.90236484156014
30
523.700020056789
11
346.8141472706813
21
274.2258886479383
31
523.700020056789
  0
LINE
 8
Layer0
10
346.8141472706813
20
273.57884103518194
30
523.700020056789
11
346.85673998781994
21
273.90236484156014
31
523.700020056789
  0
LINE
 8
Layer0
10
346.6892717425505
20
273.27736484156014
30
523.700020056789
11
346.8141472706813
21
273.57884103518194
31
523.700020056789
  0
LINE
 8
Layer0
10
346.4906234643031
20
273.018481365077
30
523.700020056789
11
346.6892717425505
21
273.27736484156014
31
523.700020056789
  0
LINE
 8
Layer0
10
346.23173998782
20
272.8198330868296
30
523.700020056789
11
346.4906234643031
21
273.018481365077
31
523.700020056789
  0
LINE
 8
Layer0
10
345.93026379419814
20
272.6949575586988
30
523.700020056789
11
346.23173998782
21
272.8198330868296
31
523.700020056789
  0
LINE
 8
Layer0
10
345.60673998782
20
272.65236484156014
30
523.700020056789
11
345.93026379419814
21
272.6949575586988
31
523.700020056789
  0
LINE
 8
Layer0
10
345.2832161814418
20
272.6949575586988
30
523.700020056789
11
345.60673998782
21
272.65236484156014
31
523.700020056789
  0
LINE
 8
Layer0
10
344.98173998782
20
272.8198330868296
30
523.700020056789
11
345.2832161814418
21
272.6949575586988
31
523.700020056789
  0
LINE
 8
Layer0
10
344.72285651133683
20
273.018481365077
30
523.700020056789
11
344.98173998782
21
272.8198330868296
31
523.700020056789
  0
LINE
 8
Layer0
10
344.52420823308944
20
273.27736484156014
30
523.700020056789
11
344.72285651133683
21
273.018481365077
31
523.700020056789
  0
LINE
 8
Layer0
10
344.3993327049586
20
273.57884103518194
30
523.700020056789
11
344.52420823308944
21
273.27736484156014
31
523.700020056789
  0
LINE
 8
Layer0
10
344.35673998782
20
273.90236484156014
30
523.700020056789
11
344.3993327049586
21
273.57884103518194
31
523.700020056789
  0
LINE
 8
Layer0
10
344.3993327049586
20
274.2258886479383
30
523.700020056789
11
344.35673998782
21
273.90236484156014
31
523.700020056789
  0
LINE
 8
Layer0
10
344.52420823308944
20
274.5273648415601
30
523.700020056789
11
344.3993327049586
21
274.2258886479383
31
523.700020056789
  0
LINE
 8
Layer0
10
344.72285651133683
20
274.78624831804325
30
523.700020056789
11
344.52420823308944
21
274.5273648415601
31
523.700020056789
  0
LINE
 8
Layer0
10
344.98173998782
20
274.98489659629064
30
523.700020056789
11
344.72285651133683
21
274.78624831804325
31
523.700020056789
  0
LINE
 8
Layer0
10
345.2832161814418
20
275.10977212442145
30
523.700020056789
11
344.98173998782
21
274.98489659629064
31
523.700020056789
  0
LINE
 8
Layer0
10
345.60673998782
20
275.1523648415601
30
523.700020056789
11
345.2832161814418
21
275.10977212442145
31
523.700020056789
  0
LINE
 8
Layer0
10
345.93026379419814
20
275.10977212442145
30
523.700020056789
11
345.60673998782
21
275.1523648415601
31
523.700020056789
  0
LINE
 8
Layer0
10
346.23173998782
20
274.98489659629064
30
523.700020056789
11
345.93026379419814
21
275.10977212442145
31
523.700020056789
  0
LINE
 8
Layer0
10
329.60673998782
20
275.1523648415601
30
523.7000200567892
11
329.28321618144184
21
275.10977212442145
31
523.7000200567892
  0
LINE
 8
Layer0
10
329.9302637941982
20
275.10977212442145
30
523.7000200567892
11
329.60673998782
21
275.1523648415601
31
523.7000200567892
  0
LINE
 8
Layer0
10
330.23173998782
20
274.98489659629064
30
523.7000200567892
11
329.9302637941982
21
275.10977212442145
31
523.7000200567892
  0
LINE
 8
Layer0
10
330.4906234643032
20
274.78624831804325
30
523.7000200567892
11
330.23173998782
21
274.98489659629064
31
523.7000200567892
  0
LINE
 8
Layer0
10
330.68927174255055
20
274.5273648415601
30
523.7000200567892
11
330.4906234643032
21
274.78624831804325
31
523.7000200567892
  0
LINE
 8
Layer0
10
330.8141472706813
20
274.2258886479383
30
523.7000200567892
11
330.68927174255055
21
274.5273648415601
31
523.7000200567892
  0
LINE
 8
Layer0
10
330.85673998782
20
273.90236484156014
30
523.7000200567892
11
330.8141472706813
21
274.2258886479383
31
523.7000200567892
  0
LINE
 8
Layer0
10
330.8141472706813
20
273.57884103518194
30
523.7000200567892
11
330.85673998782
21
273.90236484156014
31
523.7000200567892
  0
LINE
 8
Layer0
10
330.68927174255055
20
273.27736484156014
30
523.7000200567892
11
330.8141472706813
21
273.57884103518194
31
523.7000200567892
  0
LINE
 8
Layer0
10
330.49062346430316
20
273.018481365077
30
523.7000200567892
11
330.68927174255055
21
273.27736484156014
31
523.7000200567892
  0
LINE
 8
Layer0
10
330.23173998782
20
272.8198330868296
30
523.7000200567892
11
330.49062346430316
21
273.018481365077
31
523.7000200567892
  0
LINE
 8
Layer0
10
329.9302637941982
20
272.6949575586988
30
523.7000200567892
11
330.23173998782
21
272.8198330868296
31
523.7000200567892
  0
LINE
 8
Layer0
10
329.60673998782
20
272.65236484156014
30
523.7000200567892
11
329.9302637941982
21
272.6949575586988
31
523.7000200567892
  0
LINE
 8
Layer0
10
329.28321618144184
20
272.6949575586988
30
523.7000200567892
11
329.60673998782
21
272.65236484156014
31
523.7000200567892
  0
LINE
 8
Layer0
10
328.98173998782
20
272.8198330868296
30
523.7000200567892
11
329.28321618144184
21
272.6949575586988
31
523.7000200567892
  0
LINE
 8
Layer0
10
328.72285651133683
20
273.018481365077
30
523.7000200567892
11
328.98173998782
21
272.8198330868296
31
523.7000200567892
  0
LINE
 8
Layer0
10
328.5242082330895
20
273.27736484156014
30
523.7000200567892
11
328.72285651133683
21
273.018481365077
31
523.7000200567892
  0
LINE
 8
Layer0
10
328.3993327049587
20
273.57884103518194
30
523.7000200567892
11
328.5242082330895
21
273.27736484156014
31
523.7000200567892
  0
LINE
 8
Layer0
10
328.35673998782
20
273.90236484156014
30
523.7000200567892
11
328.3993327049587
21
273.57884103518194
31
523.7000200567892
  0
LINE
 8
Layer0
10
328.3993327049587
20
274.2258886479383
30
523.7000200567892
11
328.35673998782
21
273.90236484156014
31
523.7000200567892
  0
LINE
 8
Layer0
10
328.5242082330895
20
274.5273648415601
30
523.7000200567892
11
328.3993327049587
21
274.2258886479383
31
523.7000200567892
  0
LINE
 8
Layer0
10
328.72285651133683
20
274.78624831804325
30
523.7000200567892
11
328.5242082330895
21
274.5273648415601
31
523.7000200567892
  0
LINE
 8
Layer0
10
328.98173998782
20
274.98489659629064
30
523.7000200567892
11
328.72285651133683
21
274.78624831804325
31
523.7000200567892
  0
LINE
 8
Layer0
10
329.28321618144184
20
275.10977212442145
30
523.7000200567892
11
328.98173998782
21
274.98489659629064
31
523.7000200567892
  0
LINE
 8
Layer0
10
476.4906243091926
20
273.018481365217
30
523.7000200567892
11
476.68927258744
21
273.27736484170015
31
523.7000200567892
  0
LINE
 8
Layer0
10
476.23174083270936
20
272.8198330869696
30
523.7000200567892
11
476.4906243091926
21
273.018481365217
31
523.7000200567892
  0
LINE
 8
Layer0
10
475.9302646390875
20
272.6949575588388
30
523.7000200567892
11
476.23174083270936
21
272.8198330869696
31
523.7000200567892
  0
LINE
 8
Layer0
10
475.6067408327094
20
272.65236484170015
30
523.7000200567892
11
475.9302646390875
21
272.6949575588388
31
523.7000200567892
  0
LINE
 8
Layer0
10
475.2832170263313
20
272.6949575588388
30
523.7000200567892
11
475.6067408327094
21
272.65236484170015
31
523.7000200567892
  0
LINE
 8
Layer0
10
474.98174083270936
20
272.8198330869696
30
523.7000200567892
11
475.2832170263313
21
272.6949575588388
31
523.7000200567892
  0
LINE
 8
Layer0
10
474.7228573562262
20
273.018481365217
30
523.7000200567892
11
474.98174083270936
21
272.8198330869696
31
523.7000200567892
  0
LINE
 8
Layer0
10
474.5242090779788
20
273.27736484170015
30
523.7000200567892
11
474.7228573562262
21
273.018481365217
31
523.7000200567892
  0
LINE
 8
Layer0
10
474.39933354984805
20
273.57884103532194
30
523.7000200567892
11
474.5242090779788
21
273.27736484170015
31
523.7000200567892
  0
LINE
 8
Layer0
10
474.3567408327094
20
273.90236484170015
30
523.7000200567892
11
474.39933354984805
21
273.57884103532194
31
523.7000200567892
  0
LINE
 8
Layer0
10
474.39933354984805
20
274.2258886480783
30
523.7000200567892
11
474.3567408327094
21
273.90236484170015
31
523.7000200567892
  0
LINE
 8
Layer0
10
474.5242090779788
20
274.5273648417001
30
523.7000200567892
11
474.39933354984805
21
274.2258886480783
31
523.7000200567892
  0
LINE
 8
Layer0
10
474.7228573562262
20
274.78624831818325
30
523.7000200567892
11
474.5242090779788
21
274.5273648417001
31
523.7000200567892
  0
LINE
 8
Layer0
10
474.9817408327094
20
274.98489659643064
30
523.7000200567892
11
474.7228573562262
21
274.78624831818325
31
523.7000200567892
  0
LINE
 8
Layer0
10
475.2832170263313
20
275.10977212456146
30
523.7000200567892
11
474.9817408327094
21
274.98489659643064
31
523.7000200567892
  0
LINE
 8
Layer0
10
475.6067408327094
20
275.1523648417001
30
523.7000200567892
11
475.2832170263313
21
275.10977212456146
31
523.7000200567892
  0
LINE
 8
Layer0
10
475.9302646390875
20
275.10977212456146
30
523.7000200567892
11
475.6067408327094
21
275.1523648417001
31
523.7000200567892
  0
LINE
 8
Layer0
10
476.2317408327094
20
274.98489659643064
30
523.7000200567892
11
475.9302646390875
21
275.10977212456146
31
523.7000200567892
  0
LINE
 8
Layer0
10
476.4906243091926
20
274.78624831818325
30
523.7000200567892
11
476.2317408327094
21
274.98489659643064
31
523.7000200567892
  0
LINE
 8
Layer0
10
476.68927258744
20
274.5273648417001
30
523.7000200567892
11
476.4906243091926
21
274.78624831818325
31
523.7000200567892
  0
LINE
 8
Layer0
10
476.81414811557073
20
274.2258886480783
30
523.7000200567892
11
476.68927258744
21
274.5273648417001
31
523.7000200567892
  0
LINE
 8
Layer0
10
476.85674083270936
20
273.90236484170015
30
523.7000200567892
11
476.81414811557073
21
274.2258886480783
31
523.7000200567892
  0
LINE
 8
Layer0
10
476.81414811557073
20
273.57884103532194
30
523.7000200567892
11
476.85674083270936
21
273.90236484170015
31
523.7000200567892
  0
LINE
 8
Layer0
10
476.68927258744
20
273.27736484170015
30
523.7000200567892
11
476.81414811557073
21
273.57884103532194
31
523.7000200567892
  0
LINE
 8
Layer0
10
458.52420907797887
20
273.27736484170015
30
523.7000200567891
11
458.7228573562262
21
273.018481365217
31
523.7000200567891
  0
LINE
 8
Layer0
10
458.3993335498481
20
273.57884103532194
30
523.7000200567891
11
458.52420907797887
21
273.27736484170015
31
523.7000200567891
  0
LINE
 8
Layer0
10
458.3567408327094
20
273.90236484170015
30
523.7000200567891
11
458.3993335498481
21
273.57884103532194
31
523.7000200567891
  0
LINE
 8
Layer0
10
458.3993335498481
20
274.2258886480783
30
523.7000200567891
11
458.3567408327094
21
273.90236484170015
31
523.7000200567891
  0
LINE
 8
Layer0
10
458.52420907797887
20
274.5273648417001
30
523.7000200567891
11
458.3993335498481
21
274.2258886480783
31
523.7000200567891
  0
LINE
 8
Layer0
10
458.7228573562262
20
274.78624831818325
30
523.7000200567891
11
458.52420907797887
21
274.5273648417001
31
523.7000200567891
  0
LINE
 8
Layer0
10
458.9817408327095
20
274.98489659643064
30
523.7000200567891
11
458.7228573562262
21
274.78624831818325
31
523.7000200567891
  0
LINE
 8
Layer0
10
459.28321702633133
20
275.10977212456146
30
523.7000200567891
11
458.9817408327095
21
274.98489659643064
31
523.7000200567891
  0
LINE
 8
Layer0
10
459.6067408327094
20
275.1523648417001
30
523.7000200567891
11
459.28321702633133
21
275.10977212456146
31
523.7000200567891
  0
LINE
 8
Layer0
10
459.93026463908757
20
275.10977212456146
30
523.7000200567891
11
459.6067408327094
21
275.1523648417001
31
523.7000200567891
  0
LINE
 8
Layer0
10
460.2317408327095
20
274.98489659643064
30
523.7000200567891
11
459.93026463908757
21
275.10977212456146
31
523.7000200567891
  0
LINE
 8
Layer0
10
460.49062430919264
20
274.78624831818325
30
523.7000200567891
11
460.2317408327095
21
274.98489659643064
31
523.7000200567891
  0
LINE
 8
Layer0
10
460.68927258744
20
274.5273648417001
30
523.7000200567891
11
460.49062430919264
21
274.78624831818325
31
523.7000200567891
  0
LINE
 8
Layer0
10
460.81414811557073
20
274.2258886480783
30
523.7000200567891
11
460.68927258744
21
274.5273648417001
31
523.7000200567891
  0
LINE
 8
Layer0
10
460.8567408327094
20
273.90236484170015
30
523.7000200567891
11
460.81414811557073
21
274.2258886480783
31
523.7000200567891
  0
LINE
 8
Layer0
10
460.81414811557073
20
273.57884103532194
30
523.7000200567891
11
460.8567408327094
21
273.90236484170015
31
523.7000200567891
  0
LINE
 8
Layer0
10
460.68927258744
20
273.27736484170015
30
523.7000200567891
11
460.81414811557073
21
273.57884103532194
31
523.7000200567891
  0
LINE
 8
Layer0
10
460.49062430919264
20
273.018481365217
30
523.7000200567891
11
460.68927258744
21
273.27736484170015
31
523.7000200567891
  0
LINE
 8
Layer0
10
460.23174083270936
20
272.8198330869696
30
523.7000200567891
11
460.49062430919264
21
273.018481365217
31
523.7000200567891
  0
LINE
 8
Layer0
10
459.93026463908757
20
272.6949575588388
30
523.7000200567891
11
460.23174083270936
21
272.8198330869696
31
523.7000200567891
  0
LINE
 8
Layer0
10
459.6067408327094
20
272.65236484170015
30
523.7000200567891
11
459.93026463908757
21
272.6949575588388
31
523.7000200567891
  0
LINE
 8
Layer0
10
459.28321702633133
20
272.6949575588388
30
523.7000200567891
11
459.6067408327094
21
272.65236484170015
31
523.7000200567891
  0
LINE
 8
Layer0
10
458.98174083270936
20
272.8198330869696
30
523.7000200567891
11
459.28321702633133
21
272.6949575588388
31
523.7000200567891
  0
LINE
 8
Layer0
10
458.7228573562262
20
273.018481365217
30
523.7000200567891
11
458.98174083270936
21
272.8198330869696
31
523.7000200567891
  0
LINE
 8
Layer0
10
286.2355750553945
20
239.752364841611
30
523.7000200567892
11
286.1469822037461
21
239.07943532434447
31
523.7000200567892
  0
LINE
 8
Layer0
10
286.1469822037461
20
239.07943532434447
30
523.7000200567892
11
285.88724110523407
21
238.45236484161103
31
523.7000200567892
  0
LINE
 8
Layer0
10
285.88724110523407
20
238.45236484161103
30
523.7000200567892
11
285.4740526864796
21
237.91388721052598
31
523.7000200567892
  0
LINE
 8
Layer0
10
285.4740526864796
20
237.91388721052598
30
523.7000200567892
11
284.93557505539457
21
237.5006987917715
31
523.7000200567892
  0
LINE
 8
Layer0
10
284.93557505539457
20
237.5006987917715
30
523.7000200567892
11
284.3085045726611
21
237.24095769325945
31
523.7000200567892
  0
LINE
 8
Layer0
10
284.3085045726611
20
237.24095769325945
30
523.7000200567892
11
283.63557505539455
21
237.15236484161102
31
523.7000200567892
  0
LINE
 8
Layer0
10
283.63557505539455
20
237.15236484161102
30
523.7000200567892
11
282.962645538128
21
237.24095769325945
31
523.7000200567892
  0
LINE
 8
Layer0
10
282.962645538128
20
237.24095769325945
30
523.7000200567892
11
282.3355750553946
21
237.5006987917715
31
523.7000200567892
  0
LINE
 8
Layer0
10
282.3355750553946
20
237.5006987917715
30
523.7000200567892
11
281.7970974243095
21
237.91388721052598
31
523.7000200567892
  0
LINE
 8
Layer0
10
281.7970974243095
20
237.91388721052598
30
523.7000200567892
11
281.38390900555504
21
238.452364841611
31
523.7000200567892
  0
LINE
 8
Layer0
10
281.38390900555504
20
238.452364841611
30
523.7000200567892
11
281.124167907043
21
239.07943532434447
31
523.7000200567892
  0
LINE
 8
Layer0
10
281.124167907043
20
239.07943532434447
30
523.7000200567892
11
281.03557505539453
21
239.752364841611
31
523.7000200567892
  0
LINE
 8
Layer0
10
281.03557505539453
20
239.752364841611
30
523.7000200567892
11
281.124167907043
21
240.42529435887755
31
523.7000200567892
  0
LINE
 8
Layer0
10
281.124167907043
20
240.42529435887755
30
523.7000200567892
11
281.38390900555504
21
241.052364841611
31
523.7000200567892
  0
LINE
 8
Layer0
10
281.38390900555504
20
241.052364841611
30
523.7000200567892
11
281.7970974243095
21
241.59084247269604
31
523.7000200567892
  0
LINE
 8
Layer0
10
281.7970974243095
20
241.59084247269604
30
523.7000200567892
11
282.33557505539454
21
242.00403089145053
31
523.7000200567892
  0
LINE
 8
Layer0
10
282.33557505539454
20
242.00403089145053
30
523.7000200567892
11
282.962645538128
21
242.26377198996258
31
523.7000200567892
  0
LINE
 8
Layer0
10
282.962645538128
20
242.26377198996258
30
523.7000200567892
11
283.63557505539455
21
242.352364841611
31
523.7000200567892
  0
LINE
 8
Layer0
10
283.63557505539455
20
242.352364841611
30
523.7000200567892
11
284.3085045726611
21
242.26377198996258
31
523.7000200567892
  0
LINE
 8
Layer0
10
284.3085045726611
20
242.26377198996258
30
523.7000200567892
11
284.9355750553945
21
242.00403089145053
31
523.7000200567892
  0
LINE
 8
Layer0
10
284.9355750553945
20
242.00403089145053
30
523.7000200567892
11
285.4740526864796
21
241.59084247269604
31
523.7000200567892
  0
LINE
 8
Layer0
10
285.4740526864796
20
241.59084247269604
30
523.7000200567892
11
285.88724110523407
21
241.05236484161102
31
523.7000200567892
  0
LINE
 8
Layer0
10
285.88724110523407
20
241.05236484161102
30
523.7000200567892
11
286.1469822037461
21
240.42529435887755
31
523.7000200567892
  0
LINE
 8
Layer0
10
286.1469822037461
20
240.42529435887755
30
523.7000200567892
11
286.2355750553945
21
239.752364841611
31
523.7000200567892
  0
LINE
 8
Layer0
10
524.2355750553947
20
239.752364841611
30
523.7000200567892
11
524.1469822037462
21
239.07943532434447
31
523.7000200567892
  0
LINE
 8
Layer0
10
524.1469822037462
20
239.07943532434447
30
523.7000200567892
11
523.8872411052342
21
238.452364841611
31
523.7000200567892
  0
LINE
 8
Layer0
10
523.8872411052342
20
238.452364841611
30
523.7000200567892
11
523.4740526864797
21
237.91388721052596
31
523.7000200567892
  0
LINE
 8
Layer0
10
523.4740526864797
20
237.91388721052596
30
523.7000200567892
11
522.9355750553947
21
237.50069879177144
31
523.7000200567892
  0
LINE
 8
Layer0
10
522.9355750553947
20
237.50069879177144
30
523.7000200567892
11
522.3085045726613
21
237.24095769325942
31
523.7000200567892
  0
LINE
 8
Layer0
10
522.3085045726613
20
237.24095769325942
30
523.7000200567892
11
521.6355750553946
21
237.152364841611
31
523.7000200567892
  0
LINE
 8
Layer0
10
521.6355750553946
20
237.152364841611
30
523.7000200567892
11
520.9626455381281
21
237.24095769325942
31
523.7000200567892
  0
LINE
 8
Layer0
10
520.9626455381281
20
237.24095769325942
30
523.7000200567892
11
520.3355750553947
21
237.50069879177144
31
523.7000200567892
  0
LINE
 8
Layer0
10
520.3355750553947
20
237.50069879177144
30
523.7000200567892
11
519.7970974243096
21
237.91388721052596
31
523.7000200567892
  0
LINE
 8
Layer0
10
519.7970974243096
20
237.91388721052596
30
523.7000200567892
11
519.3839090055551
21
238.452364841611
31
523.7000200567892
  0
LINE
 8
Layer0
10
519.3839090055551
20
238.452364841611
30
523.7000200567892
11
519.1241679070431
21
239.07943532434447
31
523.7000200567892
  0
LINE
 8
Layer0
10
519.1241679070431
20
239.07943532434447
30
523.7000200567892
11
519.0355750553946
21
239.752364841611
31
523.7000200567892
  0
LINE
 8
Layer0
10
519.0355750553946
20
239.752364841611
30
523.7000200567892
11
519.1241679070431
21
240.42529435887755
31
523.7000200567892
  0
LINE
 8
Layer0
10
519.1241679070431
20
240.42529435887755
30
523.7000200567892
11
519.3839090055551
21
241.05236484161102
31
523.7000200567892
  0
LINE
 8
Layer0
10
519.3839090055551
20
241.05236484161102
30
523.7000200567892
11
519.7970974243096
21
241.59084247269607
31
523.7000200567892
  0
LINE
 8
Layer0
10
519.7970974243096
20
241.59084247269607
30
523.7000200567892
11
520.3355750553945
21
242.00403089145058
31
523.7000200567892
  0
LINE
 8
Layer0
10
520.3355750553945
20
242.00403089145058
30
523.7000200567892
11
520.9626455381281
21
242.26377198996263
31
523.7000200567892
  0
LINE
 8
Layer0
10
520.9626455381281
20
242.26377198996263
30
523.7000200567892
11
521.6355750553946
21
242.35236484161106
31
523.7000200567892
  0
LINE
 8
Layer0
10
521.6355750553946
20
242.35236484161106
30
523.7000200567892
11
522.3085045726613
21
242.26377198996263
31
523.7000200567892
  0
LINE
 8
Layer0
10
522.3085045726613
20
242.26377198996263
30
523.7000200567892
11
522.9355750553947
21
242.00403089145058
31
523.7000200567892
  0
LINE
 8
Layer0
10
522.9355750553947
20
242.00403089145058
30
523.7000200567892
11
523.4740526864797
21
241.59084247269607
31
523.7000200567892
  0
LINE
 8
Layer0
10
523.4740526864797
20
241.59084247269607
30
523.7000200567892
11
523.8872411052342
21
241.05236484161102
31
523.7000200567892
  0
LINE
 8
Layer0
10
523.8872411052342
20
241.05236484161102
30
523.7000200567892
11
524.1469822037462
21
240.4252943588776
31
523.7000200567892
  0
LINE
 8
Layer0
10
524.1469822037462
20
240.4252943588776
30
523.7000200567892
11
524.2355750553947
21
239.752364841611
31
523.7000200567892
  0
LINE
 8
Layer0
10
233.63557505539455
20
589.752364841611
30
523.7000200567892
11
284.13557505539455
21
589.752364841611
31
523.7000200567892
  0
LINE
 8
Layer0
10
582.6355750553946
20
521.352364841611
30
523.7000200567892
11
583.3085045726611
21
521.2637719899626
31
523.7000200567892
  0
LINE
 8
Layer0
10
583.3085045726611
20
521.2637719899626
30
523.7000200567892
11
583.9355750553946
21
521.0040308914506
31
523.7000200567892
  0
LINE
 8
Layer0
10
583.9355750553946
20
521.0040308914506
30
523.7000200567892
11
584.4740526864796
21
520.5908424726961
31
523.7000200567892
  0
LINE
 8
Layer0
10
584.4740526864796
20
520.5908424726961
30
523.7000200567892
11
584.8872411052342
21
520.052364841611
31
523.7000200567892
  0
LINE
 8
Layer0
10
584.8872411052342
20
520.052364841611
30
523.7000200567892
11
585.1469822037462
21
519.4252943588776
31
523.7000200567892
  0
LINE
 8
Layer0
10
585.1469822037462
20
519.4252943588776
30
523.7000200567892
11
585.2355750553946
21
518.752364841611
31
523.7000200567892
  0
LINE
 8
Layer0
10
585.2355750553946
20
518.752364841611
30
523.7000200567892
11
585.1469822037462
21
518.0794353243444
31
523.7000200567892
  0
LINE
 8
Layer0
10
585.1469822037462
20
518.0794353243444
30
523.7000200567892
11
584.8872411052342
21
517.452364841611
31
523.7000200567892
  0
LINE
 8
Layer0
10
584.8872411052342
20
517.452364841611
30
523.7000200567892
11
584.4740526864796
21
516.913887210526
31
523.7000200567892
  0
LINE
 8
Layer0
10
584.4740526864796
20
516.913887210526
30
523.7000200567892
11
583.9355750553947
21
516.5006987917714
31
523.7000200567892
  0
LINE
 8
Layer0
10
583.9355750553947
20
516.5006987917714
30
523.7000200567892
11
583.3085045726611
21
516.2409576932594
31
523.7000200567892
  0
LINE
 8
Layer0
10
583.3085045726611
20
516.2409576932594
30
523.7000200567892
11
582.6355750553946
21
516.152364841611
31
523.7000200567892
  0
LINE
 8
Layer0
10
582.6355750553946
20
516.152364841611
30
523.7000200567892
11
581.962645538128
21
516.2409576932594
31
523.7000200567892
  0
LINE
 8
Layer0
10
581.962645538128
20
516.2409576932594
30
523.7000200567892
11
581.3355750553947
21
516.5006987917714
31
523.7000200567892
  0
LINE
 8
Layer0
10
581.3355750553947
20
516.5006987917714
30
523.7000200567892
11
580.7970974243095
21
516.913887210526
31
523.7000200567892
  0
LINE
 8
Layer0
10
580.7970974243095
20
516.913887210526
30
523.7000200567892
11
580.383909005555
21
517.4523648416109
31
523.7000200567892
  0
LINE
 8
Layer0
10
580.383909005555
20
517.4523648416109
30
523.7000200567892
11
580.124167907043
21
518.0794353243444
31
523.7000200567892
  0
LINE
 8
Layer0
10
580.124167907043
20
518.0794353243444
30
523.7000200567892
11
580.0355750553946
21
518.752364841611
31
523.7000200567892
  0
LINE
 8
Layer0
10
580.0355750553946
20
518.752364841611
30
523.7000200567892
11
580.124167907043
21
519.4252943588776
31
523.7000200567892
  0
LINE
 8
Layer0
10
580.124167907043
20
519.4252943588776
30
523.7000200567892
11
580.383909005555
21
520.0523648416109
31
523.7000200567892
  0
LINE
 8
Layer0
10
580.383909005555
20
520.0523648416109
30
523.7000200567892
11
580.7970974243095
21
520.5908424726961
31
523.7000200567892
  0
LINE
 8
Layer0
10
580.7970974243095
20
520.5908424726961
30
523.7000200567892
11
581.3355750553945
21
521.0040308914506
31
523.7000200567892
  0
LINE
 8
Layer0
10
581.3355750553945
20
521.0040308914506
30
523.7000200567892
11
581.962645538128
21
521.2637719899626
31
523.7000200567892
  0
LINE
 8
Layer0
10
581.962645538128
20
521.2637719899626
30
523.7000200567892
11
582.6355750553946
21
521.352364841611
31
523.7000200567892
  0
LINE
 8
Layer0
10
582.6355750553947
20
303.35236484161106
30
523.7000200567892
11
583.3085045726613
21
303.2637719899626
31
523.7000200567892
  0
LINE
 8
Layer0
10
583.3085045726613
20
303.2637719899626
30
523.7000200567892
11
583.9355750553947
21
303.00403089145055
31
523.7000200567892
  0
LINE
 8
Layer0
10
583.9355750553947
20
303.00403089145055
30
523.7000200567892
11
584.4740526864797
21
302.59084247269607
31
523.7000200567892
  0
LINE
 8
Layer0
10
584.4740526864797
20
302.59084247269607
30
523.7000200567892
11
584.8872411052342
21
302.05236484161105
31
523.7000200567892
  0
LINE
 8
Layer0
10
584.8872411052342
20
302.05236484161105
30
523.7000200567892
11
585.1469822037462
21
301.4252943588776
31
523.7000200567892
  0
LINE
 8
Layer0
10
585.1469822037462
20
301.4252943588776
30
523.7000200567892
11
585.2355750553946
21
300.75236484161104
31
523.7000200567892
  0
LINE
 8
Layer0
10
585.2355750553946
20
300.75236484161104
30
523.7000200567892
11
585.1469822037462
21
300.0794353243445
31
523.7000200567892
  0
LINE
 8
Layer0
10
585.1469822037462
20
300.0794353243445
30
523.7000200567892
11
584.8872411052342
21
299.4523648416111
31
523.7000200567892
  0
LINE
 8
Layer0
10
584.8872411052342
20
299.4523648416111
30
523.7000200567892
11
584.4740526864797
21
298.913887210526
31
523.7000200567892
  0
LINE
 8
Layer0
10
584.4740526864797
20
298.913887210526
30
523.7000200567892
11
583.9355750553947
21
298.5006987917715
31
523.7000200567892
  0
LINE
 8
Layer0
10
583.9355750553947
20
298.5006987917715
30
523.7000200567892
11
583.3085045726613
21
298.2409576932595
31
523.7000200567892
  0
LINE
 8
Layer0
10
583.3085045726613
20
298.2409576932595
30
523.7000200567892
11
582.6355750553947
21
298.152364841611
31
523.7000200567892
  0
LINE
 8
Layer0
10
582.6355750553947
20
298.152364841611
30
523.7000200567892
11
581.9626455381281
21
298.2409576932595
31
523.7000200567892
  0
LINE
 8
Layer0
10
581.9626455381281
20
298.2409576932595
30
523.7000200567892
11
581.3355750553947
21
298.5006987917715
31
523.7000200567892
  0
LINE
 8
Layer0
10
581.3355750553947
20
298.5006987917715
30
523.7000200567892
11
580.7970974243096
21
298.913887210526
31
523.7000200567892
  0
LINE
 8
Layer0
10
580.7970974243096
20
298.913887210526
30
523.7000200567892
11
580.3839090055552
21
299.45236484161103
31
523.7000200567892
  0
LINE
 8
Layer0
10
580.3839090055552
20
299.45236484161103
30
523.7000200567892
11
580.1241679070431
21
300.0794353243445
31
523.7000200567892
  0
LINE
 8
Layer0
10
580.1241679070431
20
300.0794353243445
30
523.7000200567892
11
580.0355750553947
21
300.75236484161104
31
523.7000200567892
  0
LINE
 8
Layer0
10
580.0355750553947
20
300.75236484161104
30
523.7000200567892
11
580.1241679070431
21
301.4252943588776
31
523.7000200567892
  0
LINE
 8
Layer0
10
580.1241679070431
20
301.4252943588776
30
523.7000200567892
11
580.3839090055552
21
302.052364841611
31
523.7000200567892
  0
LINE
 8
Layer0
10
580.3839090055552
20
302.052364841611
30
523.7000200567892
11
580.7970974243096
21
302.59084247269607
31
523.7000200567892
  0
LINE
 8
Layer0
10
580.7970974243096
20
302.59084247269607
30
523.7000200567892
11
581.3355750553947
21
303.00403089145055
31
523.7000200567892
  0
LINE
 8
Layer0
10
581.3355750553947
20
303.00403089145055
30
523.7000200567892
11
581.9626455381281
21
303.2637719899626
31
523.7000200567892
  0
LINE
 8
Layer0
10
581.9626455381281
20
303.2637719899626
30
523.7000200567892
11
582.6355750553947
21
303.35236484161106
31
523.7000200567892
  0
LINE
 8
Layer0
10
222.63557505539453
20
298.152364841611
30
523.7000200567892
11
221.962645538128
21
298.2409576932595
31
523.7000200567892
  0
LINE
 8
Layer0
10
221.962645538128
20
298.2409576932595
30
523.7000200567892
11
221.33557505539454
21
298.5006987917715
31
523.7000200567892
  0
LINE
 8
Layer0
10
221.33557505539454
20
298.5006987917715
30
523.7000200567892
11
220.7970974243095
21
298.913887210526
31
523.7000200567892
  0
LINE
 8
Layer0
10
220.7970974243095
20
298.913887210526
30
523.7000200567892
11
220.383909005555
21
299.45236484161103
31
523.7000200567892
  0
LINE
 8
Layer0
10
220.383909005555
20
299.45236484161103
30
523.7000200567892
11
220.12416790704296
21
300.0794353243445
31
523.7000200567892
  0
LINE
 8
Layer0
10
220.12416790704296
20
300.0794353243445
30
523.7000200567892
11
220.03557505539453
21
300.75236484161104
31
523.7000200567892
  0
LINE
 8
Layer0
10
220.03557505539453
20
300.75236484161104
30
523.7000200567892
11
220.12416790704296
21
301.4252943588776
31
523.7000200567892
  0
LINE
 8
Layer0
10
220.12416790704296
20
301.4252943588776
30
523.7000200567892
11
220.383909005555
21
302.052364841611
31
523.7000200567892
  0
LINE
 8
Layer0
10
220.383909005555
20
302.052364841611
30
523.7000200567892
11
220.7970974243095
21
302.59084247269607
31
523.7000200567892
  0
LINE
 8
Layer0
10
220.7970974243095
20
302.59084247269607
30
523.7000200567892
11
221.33557505539451
21
303.00403089145055
31
523.7000200567892
  0
LINE
 8
Layer0
10
221.33557505539451
20
303.00403089145055
30
523.7000200567892
11
221.962645538128
21
303.2637719899626
31
523.7000200567892
  0
LINE
 8
Layer0
10
221.962645538128
20
303.2637719899626
30
523.7000200567892
11
222.63557505539453
21
303.35236484161106
31
523.7000200567892
  0
LINE
 8
Layer0
10
222.63557505539453
20
303.35236484161106
30
523.7000200567892
11
223.30850457266106
21
303.2637719899626
31
523.7000200567892
  0
LINE
 8
Layer0
10
223.30850457266106
20
303.2637719899626
30
523.7000200567892
11
223.9355750553945
21
303.00403089145055
31
523.7000200567892
  0
LINE
 8
Layer0
10
223.9355750553945
20
303.00403089145055
30
523.7000200567892
11
224.47405268647955
21
302.59084247269607
31
523.7000200567892
  0
LINE
 8
Layer0
10
224.47405268647955
20
302.59084247269607
30
523.7000200567892
11
224.88724110523404
21
302.05236484161105
31
523.7000200567892
  0
LINE
 8
Layer0
10
224.88724110523404
20
302.05236484161105
30
523.7000200567892
11
225.1469822037461
21
301.4252943588776
31
523.7000200567892
  0
LINE
 8
Layer0
10
225.1469822037461
20
301.4252943588776
30
523.7000200567892
11
225.23557505539452
21
300.75236484161104
31
523.7000200567892
  0
LINE
 8
Layer0
10
225.23557505539452
20
300.75236484161104
30
523.7000200567892
11
225.1469822037461
21
300.0794353243445
31
523.7000200567892
  0
LINE
 8
Layer0
10
225.1469822037461
20
300.0794353243445
30
523.7000200567892
11
224.88724110523404
21
299.4523648416111
31
523.7000200567892
  0
LINE
 8
Layer0
10
224.88724110523404
20
299.4523648416111
30
523.7000200567892
11
224.47405268647955
21
298.913887210526
31
523.7000200567892
  0
LINE
 8
Layer0
10
224.47405268647955
20
298.913887210526
30
523.7000200567892
11
223.93557505539454
21
298.5006987917715
31
523.7000200567892
  0
LINE
 8
Layer0
10
223.93557505539454
20
298.5006987917715
30
523.7000200567892
11
223.30850457266106
21
298.2409576932595
31
523.7000200567892
  0
LINE
 8
Layer0
10
223.30850457266106
20
298.2409576932595
30
523.7000200567892
11
222.63557505539453
21
298.152364841611
31
523.7000200567892
  0
LINE
 8
Layer0
10
222.63557505539453
20
516.152364841611
30
523.7000200567892
11
221.962645538128
21
516.2409576932594
31
523.7000200567892
  0
LINE
 8
Layer0
10
221.962645538128
20
516.2409576932594
30
523.7000200567892
11
221.33557505539451
21
516.5006987917714
31
523.7000200567892
  0
LINE
 8
Layer0
10
221.33557505539451
20
516.5006987917714
30
523.7000200567892
11
220.79709742430947
21
516.913887210526
31
523.7000200567892
  0
LINE
 8
Layer0
10
220.79709742430947
20
516.913887210526
30
523.7000200567892
11
220.38390900555495
21
517.4523648416109
31
523.7000200567892
  0
LINE
 8
Layer0
10
220.38390900555495
20
517.4523648416109
30
523.7000200567892
11
220.12416790704293
21
518.0794353243444
31
523.7000200567892
  0
LINE
 8
Layer0
10
220.12416790704293
20
518.0794353243444
30
523.7000200567892
11
220.0355750553945
21
518.752364841611
31
523.7000200567892
  0
LINE
 8
Layer0
10
220.0355750553945
20
518.752364841611
30
523.7000200567892
11
220.12416790704293
21
519.4252943588776
31
523.7000200567892
  0
LINE
 8
Layer0
10
220.12416790704293
20
519.4252943588776
30
523.7000200567892
11
220.38390900555495
21
520.0523648416109
31
523.7000200567892
  0
LINE
 8
Layer0
10
220.38390900555495
20
520.0523648416109
30
523.7000200567892
11
220.79709742430947
21
520.5908424726961
31
523.7000200567892
  0
LINE
 8
Layer0
10
220.79709742430947
20
520.5908424726961
30
523.7000200567892
11
221.33557505539451
21
521.0040308914506
31
523.7000200567892
  0
LINE
 8
Layer0
10
221.33557505539451
20
521.0040308914506
30
523.7000200567892
11
221.962645538128
21
521.2637719899626
31
523.7000200567892
  0
LINE
 8
Layer0
10
221.962645538128
20
521.2637719899626
30
523.7000200567892
11
222.63557505539453
21
521.352364841611
31
523.7000200567892
  0
LINE
 8
Layer0
10
222.63557505539453
20
521.352364841611
30
523.7000200567892
11
223.30850457266106
21
521.2637719899626
31
523.7000200567892
  0
LINE
 8
Layer0
10
223.30850457266106
20
521.2637719899626
30
523.7000200567892
11
223.93557505539454
21
521.0040308914506
31
523.7000200567892
  0
LINE
 8
Layer0
10
223.93557505539454
20
521.0040308914506
30
523.7000200567892
11
224.47405268647958
21
520.5908424726961
31
523.7000200567892
  0
LINE
 8
Layer0
10
224.47405268647958
20
520.5908424726961
30
523.7000200567892
11
224.8872411052341
21
520.052364841611
31
523.7000200567892
  0
LINE
 8
Layer0
10
224.8872411052341
20
520.052364841611
30
523.7000200567892
11
225.14698220374615
21
519.4252943588776
31
523.7000200567892
  0
LINE
 8
Layer0
10
225.14698220374615
20
519.4252943588776
30
523.7000200567892
11
225.23557505539458
21
518.752364841611
31
523.7000200567892
  0
LINE
 8
Layer0
10
225.23557505539458
20
518.752364841611
30
523.7000200567892
11
225.14698220374615
21
518.0794353243444
31
523.7000200567892
  0
LINE
 8
Layer0
10
225.14698220374615
20
518.0794353243444
30
523.7000200567892
11
224.8872411052341
21
517.452364841611
31
523.7000200567892
  0
LINE
 8
Layer0
10
224.8872411052341
20
517.452364841611
30
523.7000200567892
11
224.47405268647958
21
516.913887210526
31
523.7000200567892
  0
LINE
 8
Layer0
10
224.47405268647958
20
516.913887210526
30
523.7000200567892
11
223.93557505539454
21
516.5006987917714
31
523.7000200567892
  0
LINE
 8
Layer0
10
223.93557505539454
20
516.5006987917714
30
523.7000200567892
11
223.30850457266112
21
516.2409576932594
31
523.7000200567892
  0
LINE
 8
Layer0
10
223.30850457266112
20
516.2409576932594
30
523.7000200567892
11
222.63557505539453
21
516.152364841611
31
523.7000200567892
  0
LINE
 8
Layer0
10
474.7059104353045
20
252.86261662867048
30
523.7000200567892
11
474.53553956674983
21
251.56852140315786
31
523.7000200567892
  0
LINE
 8
Layer0
10
474.53553956674983
20
251.56852140315786
30
523.7000200567892
11
474.0360374542267
21
250.36261662867045
31
523.7000200567892
  0
LINE
 8
Layer0
10
474.0360374542267
20
250.36261662867045
30
523.7000200567892
11
473.24144434123724
21
249.32708272273774
31
523.7000200567892
  0
LINE
 8
Layer0
10
473.24144434123724
20
249.32708272273774
30
523.7000200567892
11
472.20591043530453
21
248.53248960974827
31
523.7000200567892
  0
LINE
 8
Layer0
10
472.20591043530453
20
248.53248960974827
30
523.7000200567892
11
471.00000566081707
21
248.0329874972251
31
523.7000200567892
  0
LINE
 8
Layer0
10
471.00000566081707
20
248.0329874972251
30
523.7000200567892
11
469.7059104353045
21
247.86261662867045
31
523.7000200567892
  0
LINE
 8
Layer0
10
469.7059104353045
20
257.86261662867054
30
523.7000200567892
11
471.00000566081707
21
257.69224576011584
31
523.7000200567892
  0
LINE
 8
Layer0
10
471.00000566081707
20
257.69224576011584
30
523.7000200567892
11
472.2059104353044
21
257.1927436475927
31
523.7000200567892
  0
LINE
 8
Layer0
10
472.2059104353044
20
257.1927436475927
30
523.7000200567892
11
473.24144434123724
21
256.39815053460325
31
523.7000200567892
  0
LINE
 8
Layer0
10
473.24144434123724
20
256.39815053460325
30
523.7000200567892
11
474.0360374542267
21
255.3626166286705
31
523.7000200567892
  0
LINE
 8
Layer0
10
474.0360374542267
20
255.3626166286705
30
523.7000200567892
11
474.53553956674983
21
254.1567118541831
31
523.7000200567892
  0
LINE
 8
Layer0
10
474.53553956674983
20
254.1567118541831
30
523.7000200567892
11
474.7059104353045
21
252.86261662867048
31
523.7000200567892
  0
LINE
 8
Layer0
10
459.7059104353044
20
247.86261662867045
30
523.7000200567892
11
458.4118152097918
21
248.0329874972251
31
523.7000200567892
  0
LINE
 8
Layer0
10
458.4118152097918
20
248.0329874972251
30
523.7000200567892
11
457.2059104353044
21
248.53248960974827
31
523.7000200567892
  0
LINE
 8
Layer0
10
457.2059104353044
20
248.53248960974827
30
523.7000200567892
11
456.1703765293716
21
249.32708272273774
31
523.7000200567892
  0
LINE
 8
Layer0
10
456.1703765293716
20
249.32708272273774
30
523.7000200567892
11
455.3757834163822
21
250.36261662867045
31
523.7000200567892
  0
LINE
 8
Layer0
10
455.3757834163822
20
250.36261662867045
30
523.7000200567892
11
454.876281303859
21
251.56852140315786
31
523.7000200567892
  0
LINE
 8
Layer0
10
454.876281303859
20
251.56852140315786
30
523.7000200567892
11
454.70591043530436
21
252.86261662867048
31
523.7000200567892
  0
LINE
 8
Layer0
10
454.70591043530436
20
252.86261662867048
30
523.7000200567892
11
454.876281303859
21
254.1567118541831
31
523.7000200567892
  0
LINE
 8
Layer0
10
454.876281303859
20
254.1567118541831
30
523.7000200567892
11
455.3757834163822
21
255.3626166286705
31
523.7000200567892
  0
LINE
 8
Layer0
10
455.3757834163822
20
255.3626166286705
30
523.7000200567892
11
456.1703765293716
21
256.39815053460325
31
523.7000200567892
  0
LINE
 8
Layer0
10
456.1703765293716
20
256.39815053460325
30
523.7000200567892
11
457.2059104353043
21
257.1927436475927
31
523.7000200567892
  0
LINE
 8
Layer0
10
457.2059104353043
20
257.1927436475927
30
523.7000200567892
11
458.4118152097918
21
257.69224576011584
31
523.7000200567892
  0
LINE
 8
Layer0
10
458.4118152097918
20
257.69224576011584
30
523.7000200567892
11
459.7059104353044
21
257.86261662867054
31
523.7000200567892
  0
LINE
 8
Layer0
10
459.7059104353044
20
257.86261662867054
30
523.7000200567892
11
469.7059104353045
21
257.86261662867054
31
523.7000200567892
  0
LINE
 8
Layer0
10
459.7059104353044
20
247.86261662867045
30
523.7000200567892
11
469.7059104353045
21
247.86261662867045
31
523.7000200567892
  0
LINE
 8
Layer0
10
454.63557505539455
20
589.752364841611
30
523.7000200567892
11
454.63557505539455
21
576.252364841611
31
523.7000200567892
  0
LINE
 8
Layer0
10
454.63557505539455
20
576.252364841611
30
523.7000200567892
11
454.58446379482814
21
575.8641362739572
31
523.7000200567892
  0
LINE
 8
Layer0
10
454.58446379482814
20
575.8641362739572
30
523.7000200567892
11
454.4346131610712
21
575.502364841611
31
523.7000200567892
  0
LINE
 8
Layer0
10
454.4346131610712
20
575.502364841611
30
523.7000200567892
11
454.1962352271743
21
575.1917046698312
31
523.7000200567892
  0
LINE
 8
Layer0
10
454.1962352271743
20
575.1917046698312
30
523.7000200567892
11
453.88557505539455
21
574.9533267359343
31
523.7000200567892
  0
LINE
 8
Layer0
10
453.88557505539455
20
574.9533267359343
30
523.7000200567892
11
453.5238036230483
21
574.8034761021775
31
523.7000200567892
  0
LINE
 8
Layer0
10
453.5238036230483
20
574.8034761021775
30
523.7000200567892
11
453.13557505539455
21
574.752364841611
31
523.7000200567892
  0
LINE
 8
Layer0
10
453.13557505539455
20
574.752364841611
30
523.7000200567892
11
352.1355750553946
21
574.752364841611
31
523.7000200567892
  0
LINE
 8
Layer0
10
352.1355750553946
20
574.752364841611
30
523.7000200567892
11
351.7473464877408
21
574.8034761021775
31
523.7000200567892
  0
LINE
 8
Layer0
10
351.7473464877408
20
574.8034761021775
30
523.7000200567892
11
351.38557505539455
21
574.9533267359343
31
523.7000200567892
  0
LINE
 8
Layer0
10
351.38557505539455
20
574.9533267359343
30
523.7000200567892
11
351.0749148836147
21
575.1917046698312
31
523.7000200567892
  0
LINE
 8
Layer0
10
351.0749148836147
20
575.1917046698312
30
523.7000200567892
11
350.8365369497179
21
575.502364841611
31
523.7000200567892
  0
LINE
 8
Layer0
10
350.8365369497179
20
575.502364841611
30
523.7000200567892
11
350.68668631596097
21
575.8641362739572
31
523.7000200567892
  0
LINE
 8
Layer0
10
350.68668631596097
20
575.8641362739572
30
523.7000200567892
11
350.63557505539455
21
576.252364841611
31
523.7000200567892
  0
LINE
 8
Layer0
10
350.63557505539455
20
576.252364841611
30
523.7000200567892
11
350.63557505539455
21
589.752364841611
31
523.7000200567892
  0
LINE
 8
Layer0
10
315.13557505539455
20
589.752364841611
30
523.7000200567892
11
350.63557505539455
21
589.752364841611
31
523.7000200567892
  0
LINE
 8
Layer0
10
288.6355750553946
20
555.752364841611
30
523.7000200567892
11
310.63557505539455
21
555.752364841611
31
523.7000200567892
  0
LINE
 8
Layer0
10
310.63557505539455
20
555.752364841611
30
523.7000200567892
11
310.63557505539455
21
574.752364841611
31
523.7000200567892
  0
LINE
 8
Layer0
10
288.6355750553946
20
574.752364841611
30
523.7000200567892
11
288.6355750553946
21
555.752364841611
31
523.7000200567892
  0
LINE
 8
Layer0
10
286.8355750553946
20
564.752364841611
30
523.7000200567892
11
286.7606118732306
21
564.1829629423854
31
523.7000200567892
  0
LINE
 8
Layer0
10
286.7606118732306
20
564.1829629423854
30
523.7000200567892
11
286.5408309437204
21
563.652364841611
31
523.7000200567892
  0
LINE
 8
Layer0
10
286.5408309437204
20
563.652364841611
30
523.7000200567892
11
286.191209974005
21
563.1967299230006
31
523.7000200567892
  0
LINE
 8
Layer0
10
286.191209974005
20
563.1967299230006
30
523.7000200567892
11
285.73557505539463
21
562.8471089532852
31
523.7000200567892
  0
LINE
 8
Layer0
10
285.73557505539463
20
562.8471089532852
30
523.7000200567892
11
285.2049769546201
21
562.6273280237751
31
523.7000200567892
  0
LINE
 8
Layer0
10
285.2049769546201
20
562.6273280237751
30
523.7000200567892
11
284.6355750553946
21
562.552364841611
31
523.7000200567892
  0
LINE
 8
Layer0
10
284.6355750553946
20
562.552364841611
30
523.7000200567892
11
284.06617315616904
21
562.6273280237751
31
523.7000200567892
  0
LINE
 8
Layer0
10
284.06617315616904
20
562.6273280237751
30
523.7000200567892
11
283.53557505539465
21
562.8471089532852
31
523.7000200567892
  0
LINE
 8
Layer0
10
283.53557505539465
20
562.8471089532852
30
523.7000200567892
11
283.0799401367842
21
563.1967299230006
31
523.7000200567892
  0
LINE
 8
Layer0
10
283.0799401367842
20
563.1967299230006
30
523.7000200567892
11
282.73031916706884
21
563.652364841611
31
523.7000200567892
  0
LINE
 8
Layer0
10
282.73031916706884
20
563.652364841611
30
523.7000200567892
11
282.51053823755865
21
564.1829629423854
31
523.7000200567892
  0
LINE
 8
Layer0
10
282.51053823755865
20
564.1829629423854
30
523.7000200567892
11
282.4355750553946
21
564.752364841611
31
523.7000200567892
  0
LINE
 8
Layer0
10
316.83557505539454
20
564.752364841611
30
523.7000200567892
11
316.7606118732305
21
564.1829629423854
31
523.7000200567892
  0
LINE
 8
Layer0
10
316.7606118732305
20
564.1829629423854
30
523.7000200567892
11
316.5408309437203
21
563.652364841611
31
523.7000200567892
  0
LINE
 8
Layer0
10
316.5408309437203
20
563.652364841611
30
523.7000200567892
11
316.19120997400495
21
563.1967299230006
31
523.7000200567892
  0
LINE
 8
Layer0
10
316.19120997400495
20
563.1967299230006
30
523.7000200567892
11
315.7355750553946
21
562.8471089532852
31
523.7000200567892
  0
LINE
 8
Layer0
10
315.7355750553946
20
562.8471089532852
30
523.7000200567892
11
315.20497695462007
21
562.6273280237751
31
523.7000200567892
  0
LINE
 8
Layer0
10
315.20497695462007
20
562.6273280237751
30
523.7000200567892
11
314.63557505539455
21
562.552364841611
31
523.7000200567892
  0
LINE
 8
Layer0
10
314.63557505539455
20
562.552364841611
30
523.7000200567892
11
314.066173156169
21
562.6273280237751
31
523.7000200567892
  0
LINE
 8
Layer0
10
314.066173156169
20
562.6273280237751
30
523.7000200567892
11
313.5355750553946
21
562.8471089532852
31
523.7000200567892
  0
LINE
 8
Layer0
10
313.5355750553946
20
562.8471089532852
30
523.7000200567892
11
313.07994013678416
21
563.1967299230006
31
523.7000200567892
  0
LINE
 8
Layer0
10
313.07994013678416
20
563.1967299230006
30
523.7000200567892
11
312.7303191670688
21
563.652364841611
31
523.7000200567892
  0
LINE
 8
Layer0
10
312.7303191670688
20
563.652364841611
30
523.7000200567892
11
312.5105382375586
21
564.1829629423854
31
523.7000200567892
  0
LINE
 8
Layer0
10
312.5105382375586
20
564.1829629423854
30
523.7000200567892
11
312.43557505539457
21
564.752364841611
31
523.7000200567892
  0
LINE
 8
Layer0
10
312.43557505539457
20
566.9523648416109
30
523.7000200567892
11
312.5105382375586
21
567.5217667408365
31
523.7000200567892
  0
LINE
 8
Layer0
10
312.5105382375586
20
567.5217667408365
30
523.7000200567892
11
312.7303191670688
21
568.0523648416109
31
523.7000200567892
  0
LINE
 8
Layer0
10
312.7303191670688
20
568.0523648416109
30
523.7000200567892
11
313.07994013678416
21
568.5079997602214
31
523.7000200567892
  0
LINE
 8
Layer0
10
313.07994013678416
20
568.5079997602214
30
523.7000200567892
11
313.53557505539453
21
568.8576207299367
31
523.7000200567892
  0
LINE
 8
Layer0
10
313.53557505539453
20
568.8576207299367
30
523.7000200567892
11
314.066173156169
21
569.0774016594469
31
523.7000200567892
  0
LINE
 8
Layer0
10
314.066173156169
20
569.0774016594469
30
523.7000200567892
11
314.63557505539455
21
569.152364841611
31
523.7000200567892
  0
LINE
 8
Layer0
10
314.63557505539455
20
569.152364841611
30
523.7000200567892
11
315.20497695462007
21
569.0774016594469
31
523.7000200567892
  0
LINE
 8
Layer0
10
315.20497695462007
20
569.0774016594469
30
523.7000200567892
11
315.7355750553945
21
568.8576207299367
31
523.7000200567892
  0
LINE
 8
Layer0
10
315.7355750553945
20
568.8576207299367
30
523.7000200567892
11
316.19120997400495
21
568.5079997602214
31
523.7000200567892
  0
LINE
 8
Layer0
10
316.19120997400495
20
568.5079997602214
30
523.7000200567892
11
316.5408309437203
21
568.0523648416109
31
523.7000200567892
  0
LINE
 8
Layer0
10
316.5408309437203
20
568.0523648416109
30
523.7000200567892
11
316.7606118732305
21
567.5217667408365
31
523.7000200567892
  0
LINE
 8
Layer0
10
316.7606118732305
20
567.5217667408365
30
523.7000200567892
11
316.83557505539454
21
566.9523648416109
31
523.7000200567892
  0
LINE
 8
Layer0
10
282.4355750553946
20
566.9523648416109
30
523.7000200567892
11
282.51053823755865
21
567.5217667408365
31
523.7000200567892
  0
LINE
 8
Layer0
10
282.51053823755865
20
567.5217667408365
30
523.7000200567892
11
282.73031916706884
21
568.0523648416109
31
523.7000200567892
  0
LINE
 8
Layer0
10
282.73031916706884
20
568.0523648416109
30
523.7000200567892
11
283.0799401367842
21
568.5079997602214
31
523.7000200567892
  0
LINE
 8
Layer0
10
283.0799401367842
20
568.5079997602214
30
523.7000200567892
11
283.5355750553946
21
568.8576207299367
31
523.7000200567892
  0
LINE
 8
Layer0
10
283.5355750553946
20
568.8576207299367
30
523.7000200567892
11
284.06617315616904
21
569.0774016594469
31
523.7000200567892
  0
LINE
 8
Layer0
10
284.06617315616904
20
569.0774016594469
30
523.7000200567892
11
284.6355750553946
21
569.152364841611
31
523.7000200567892
  0
LINE
 8
Layer0
10
284.6355750553946
20
569.152364841611
30
523.7000200567892
11
285.2049769546201
21
569.0774016594469
31
523.7000200567892
  0
LINE
 8
Layer0
10
285.2049769546201
20
569.0774016594469
30
523.7000200567892
11
285.7355750553946
21
568.8576207299367
31
523.7000200567892
  0
LINE
 8
Layer0
10
285.7355750553946
20
568.8576207299367
30
523.7000200567892
11
286.191209974005
21
568.5079997602214
31
523.7000200567892
  0
LINE
 8
Layer0
10
286.191209974005
20
568.5079997602214
30
523.7000200567892
11
286.5408309437204
21
568.0523648416109
31
523.7000200567892
  0
LINE
 8
Layer0
10
286.5408309437204
20
568.0523648416109
30
523.7000200567892
11
286.7606118732306
21
567.5217667408365
31
523.7000200567892
  0
LINE
 8
Layer0
10
286.7606118732306
20
567.5217667408365
30
523.7000200567892
11
286.8355750553946
21
566.9523648416109
31
523.7000200567892
  0
LINE
 8
Layer0
10
316.83557505539454
20
564.752364841611
30
523.7000200567892
11
316.83557505539454
21
566.9523648416109
31
523.7000200567892
  0
LINE
 8
Layer0
10
312.43557505539457
20
564.752364841611
30
523.7000200567892
11
312.43557505539457
21
566.9523648416109
31
523.7000200567892
  0
LINE
 8
Layer0
10
286.8355750553946
20
564.752364841611
30
523.7000200567892
11
286.8355750553946
21
566.9523648416109
31
523.7000200567892
  0
LINE
 8
Layer0
10
282.4355750553946
20
564.752364841611
30
523.7000200567892
11
282.4355750553946
21
566.9523648416109
31
523.7000200567892
  0
LINE
 8
Layer0
10
310.63557505539455
20
574.752364841611
30
523.7000200567892
11
315.13557505539455
21
574.752364841611
31
523.7000200567892
  0
LINE
 8
Layer0
10
315.13557505539455
20
574.752364841611
30
523.7000200567892
11
315.13557505539455
21
589.752364841611
31
523.7000200567892
  0
LINE
 8
Layer0
10
288.6355750553946
20
574.752364841611
30
523.7000200567892
11
284.13557505539455
21
574.752364841611
31
523.7000200567892
  0
LINE
 8
Layer0
10
284.13557505539455
20
574.752364841611
30
523.7000200567892
11
284.13557505539455
21
589.752364841611
31
523.7000200567892
  0
LINE
 8
Layer0
10
459.2605750553946
20
580.5868203849883
30
523.7000200567892
11
458.89813818831817
21
580.8649279745347
31
523.7000200567892
  0
LINE
 8
Layer0
10
458.89813818831817
20
580.8649279745347
30
523.7000200567892
11
458.6200305987718
21
581.227364841611
31
523.7000200567892
  0
LINE
 8
Layer0
10
458.6200305987718
20
581.227364841611
30
523.7000200567892
11
458.44520485938875
21
581.6494315126816
31
523.7000200567892
  0
LINE
 8
Layer0
10
458.44520485938875
20
581.6494315126816
30
523.7000200567892
11
458.3855750553946
21
582.102364841611
31
523.7000200567892
  0
LINE
 8
Layer0
10
458.3855750553946
20
582.102364841611
30
523.7000200567892
11
458.44520485938875
21
582.5552981705404
31
523.7000200567892
  0
LINE
 8
Layer0
10
458.44520485938875
20
582.5552981705404
30
523.7000200567892
11
458.6200305987718
21
582.977364841611
31
523.7000200567892
  0
LINE
 8
Layer0
10
458.6200305987718
20
582.977364841611
30
523.7000200567892
11
458.89813818831817
21
583.3398017086874
31
523.7000200567892
  0
LINE
 8
Layer0
10
458.89813818831817
20
583.3398017086874
30
523.7000200567892
11
459.2605750553946
21
583.6179092982338
31
523.7000200567892
  0
LINE
 8
Layer0
10
459.2605750553946
20
583.6179092982338
30
523.7000200567892
11
459.6826417264652
21
583.7927350376168
31
523.7000200567892
  0
LINE
 8
Layer0
10
459.6826417264652
20
583.7927350376168
30
523.7000200567892
11
460.13557505539455
21
583.852364841611
31
523.7000200567892
  0
LINE
 8
Layer0
10
460.13557505539455
20
583.852364841611
30
523.7000200567892
11
460.588508384324
21
583.7927350376168
31
523.7000200567892
  0
LINE
 8
Layer0
10
460.588508384324
20
583.7927350376168
30
523.7000200567892
11
461.01057505539455
21
583.6179092982338
31
523.7000200567892
  0
LINE
 8
Layer0
10
461.01057505539455
20
583.6179092982338
30
523.7000200567892
11
461.373011922471
21
583.3398017086874
31
523.7000200567892
  0
LINE
 8
Layer0
10
461.373011922471
20
583.3398017086874
30
523.7000200567892
11
461.6511195120173
21
582.977364841611
31
523.7000200567892
  0
LINE
 8
Layer0
10
461.6511195120173
20
582.977364841611
30
523.7000200567892
11
461.82594525140036
21
582.5552981705404
31
523.7000200567892
  0
LINE
 8
Layer0
10
461.82594525140036
20
582.5552981705404
30
523.7000200567892
11
461.88557505539455
21
582.102364841611
31
523.7000200567892
  0
LINE
 8
Layer0
10
461.88557505539455
20
582.102364841611
30
523.7000200567892
11
461.82594525140036
21
581.6494315126816
31
523.7000200567892
  0
LINE
 8
Layer0
10
461.82594525140036
20
581.6494315126816
30
523.7000200567892
11
461.6511195120173
21
581.227364841611
31
523.7000200567892
  0
LINE
 8
Layer0
10
461.6511195120173
20
581.227364841611
30
523.7000200567892
11
461.373011922471
21
580.8649279745347
31
523.7000200567892
  0
LINE
 8
Layer0
10
461.373011922471
20
580.8649279745347
30
523.7000200567892
11
461.01057505539455
21
580.5868203849883
31
523.7000200567892
  0
LINE
 8
Layer0
10
461.01057505539455
20
580.5868203849883
30
523.7000200567892
11
460.588508384324
21
580.4119946456052
31
523.7000200567892
  0
LINE
 8
Layer0
10
460.588508384324
20
580.4119946456052
30
523.7000200567892
11
460.13557505539455
21
580.3523648416111
31
523.7000200567892
  0
LINE
 8
Layer0
10
460.13557505539455
20
580.3523648416111
30
523.7000200567892
11
459.6826417264652
21
580.4119946456052
31
523.7000200567892
  0
LINE
 8
Layer0
10
459.6826417264652
20
580.4119946456052
30
523.7000200567892
11
459.2605750553946
21
580.5868203849883
31
523.7000200567892
  0
LINE
 8
Layer0
10
343.62003059877185
20
581.227364841611
30
523.7000200567892
11
343.44520485938875
21
581.6494315126816
31
523.7000200567892
  0
LINE
 8
Layer0
10
343.44520485938875
20
581.6494315126816
30
523.7000200567892
11
343.3855750553946
21
582.102364841611
31
523.7000200567892
  0
LINE
 8
Layer0
10
343.3855750553946
20
582.102364841611
30
523.7000200567892
11
343.44520485938875
21
582.5552981705404
31
523.7000200567892
  0
LINE
 8
Layer0
10
343.44520485938875
20
582.5552981705404
30
523.7000200567892
11
343.62003059877185
21
582.977364841611
31
523.7000200567892
  0
LINE
 8
Layer0
10
343.62003059877185
20
582.977364841611
30
523.7000200567892
11
343.89813818831817
21
583.3398017086874
31
523.7000200567892
  0
LINE
 8
Layer0
10
343.89813818831817
20
583.3398017086874
30
523.7000200567892
11
344.2605750553946
21
583.6179092982338
31
523.7000200567892
  0
LINE
 8
Layer0
10
344.2605750553946
20
583.6179092982338
30
523.7000200567892
11
344.6826417264652
21
583.7927350376168
31
523.7000200567892
  0
LINE
 8
Layer0
10
344.6826417264652
20
583.7927350376168
30
523.7000200567892
11
345.1355750553946
21
583.852364841611
31
523.7000200567892
  0
LINE
 8
Layer0
10
345.1355750553946
20
583.852364841611
30
523.7000200567892
11
345.588508384324
21
583.7927350376168
31
523.7000200567892
  0
LINE
 8
Layer0
10
345.588508384324
20
583.7927350376168
30
523.7000200567892
11
346.01057505539455
21
583.6179092982338
31
523.7000200567892
  0
LINE
 8
Layer0
10
346.01057505539455
20
583.6179092982338
30
523.7000200567892
11
346.37301192247105
21
583.3398017086874
31
523.7000200567892
  0
LINE
 8
Layer0
10
346.37301192247105
20
583.3398017086874
30
523.7000200567892
11
346.6511195120173
21
582.977364841611
31
523.7000200567892
  0
LINE
 8
Layer0
10
346.6511195120173
20
582.977364841611
30
523.7000200567892
11
346.8259452514004
21
582.5552981705404
31
523.7000200567892
  0
LINE
 8
Layer0
10
346.8259452514004
20
582.5552981705404
30
523.7000200567892
11
346.88557505539455
21
582.102364841611
31
523.7000200567892
  0
LINE
 8
Layer0
10
346.88557505539455
20
582.102364841611
30
523.7000200567892
11
346.8259452514004
21
581.6494315126816
31
523.7000200567892
  0
LINE
 8
Layer0
10
346.8259452514004
20
581.6494315126816
30
523.7000200567892
11
346.6511195120173
21
581.227364841611
31
523.7000200567892
  0
LINE
 8
Layer0
10
346.6511195120173
20
581.227364841611
30
523.7000200567892
11
346.37301192247105
21
580.8649279745347
31
523.7000200567892
  0
LINE
 8
Layer0
10
346.37301192247105
20
580.8649279745347
30
523.7000200567892
11
346.01057505539455
21
580.5868203849883
31
523.7000200567892
  0
LINE
 8
Layer0
10
346.01057505539455
20
580.5868203849883
30
523.7000200567892
11
345.588508384324
21
580.4119946456052
31
523.7000200567892
  0
LINE
 8
Layer0
10
345.588508384324
20
580.4119946456052
30
523.7000200567892
11
345.1355750553946
21
580.3523648416111
31
523.7000200567892
  0
LINE
 8
Layer0
10
345.1355750553946
20
580.3523648416111
30
523.7000200567892
11
344.6826417264652
21
580.4119946456052
31
523.7000200567892
  0
LINE
 8
Layer0
10
344.6826417264652
20
580.4119946456052
30
523.7000200567892
11
344.2605750553946
21
580.5868203849883
31
523.7000200567892
  0
LINE
 8
Layer0
10
344.2605750553946
20
580.5868203849883
30
523.7000200567892
11
343.89813818831817
21
580.8649279745347
31
523.7000200567892
  0
LINE
 8
Layer0
10
343.89813818831817
20
580.8649279745347
30
523.7000200567892
11
343.62003059877185
21
581.227364841611
31
523.7000200567892
  0
LINE
 8
Layer0
10
538.3120512490166
20
588.1597721244723
30
523.7000200567892
11
538.0105750553947
21
588.0348965963416
31
523.7000200567892
  0
LINE
 8
Layer0
10
538.6355750553947
20
588.202364841611
30
523.7000200567892
11
538.3120512490166
21
588.1597721244723
31
523.7000200567892
  0
LINE
 8
Layer0
10
538.9590988617728
20
588.1597721244723
30
523.7000200567892
11
538.6355750553947
21
588.202364841611
31
523.7000200567892
  0
LINE
 8
Layer0
10
539.2605750553947
20
588.0348965963416
30
523.7000200567892
11
538.9590988617728
21
588.1597721244723
31
523.7000200567892
  0
LINE
 8
Layer0
10
539.5194585318778
20
587.8362483180942
30
523.7000200567892
11
539.2605750553947
21
588.0348965963416
31
523.7000200567892
  0
LINE
 8
Layer0
10
539.7181068101253
20
587.5773648416109
30
523.7000200567892
11
539.5194585318778
21
587.8362483180942
31
523.7000200567892
  0
LINE
 8
Layer0
10
539.842982338256
20
587.2758886479892
30
523.7000200567892
11
539.7181068101253
21
587.5773648416109
31
523.7000200567892
  0
LINE
 8
Layer0
10
539.8855750553946
20
586.952364841611
30
523.7000200567892
11
539.842982338256
21
587.2758886479892
31
523.7000200567892
  0
LINE
 8
Layer0
10
539.842982338256
20
586.6288410352329
30
523.7000200567892
11
539.8855750553946
21
586.952364841611
31
523.7000200567892
  0
LINE
 8
Layer0
10
539.7181068101253
20
586.327364841611
30
523.7000200567892
11
539.842982338256
21
586.6288410352329
31
523.7000200567892
  0
LINE
 8
Layer0
10
539.5194585318778
20
586.0684813651278
30
523.7000200567892
11
539.7181068101253
21
586.327364841611
31
523.7000200567892
  0
LINE
 8
Layer0
10
539.2605750553946
20
585.8698330868805
30
523.7000200567892
11
539.5194585318778
21
586.0684813651278
31
523.7000200567892
  0
LINE
 8
Layer0
10
538.9590988617728
20
585.7449575587497
30
523.7000200567892
11
539.2605750553946
21
585.8698330868805
31
523.7000200567892
  0
LINE
 8
Layer0
10
538.6355750553947
20
585.702364841611
30
523.7000200567892
11
538.9590988617728
21
585.7449575587497
31
523.7000200567892
  0
LINE
 8
Layer0
10
538.3120512490166
20
585.7449575587497
30
523.7000200567892
11
538.6355750553947
21
585.702364841611
31
523.7000200567892
  0
LINE
 8
Layer0
10
538.0105750553946
20
585.8698330868805
30
523.7000200567892
11
538.3120512490166
21
585.7449575587497
31
523.7000200567892
  0
LINE
 8
Layer0
10
537.7516915789115
20
586.0684813651278
30
523.7000200567892
11
538.0105750553946
21
585.8698330868805
31
523.7000200567892
  0
LINE
 8
Layer0
10
537.5530433006641
20
586.327364841611
30
523.7000200567892
11
537.7516915789115
21
586.0684813651278
31
523.7000200567892
  0
LINE
 8
Layer0
10
537.4281677725334
20
586.6288410352329
30
523.7000200567892
11
537.5530433006641
21
586.327364841611
31
523.7000200567892
  0
LINE
 8
Layer0
10
537.3855750553947
20
586.952364841611
30
523.7000200567892
11
537.4281677725334
21
586.6288410352329
31
523.7000200567892
  0
LINE
 8
Layer0
10
537.4281677725334
20
587.2758886479892
30
523.7000200567892
11
537.3855750553947
21
586.952364841611
31
523.7000200567892
  0
LINE
 8
Layer0
10
537.5530433006641
20
587.577364841611
30
523.7000200567892
11
537.4281677725334
21
587.2758886479892
31
523.7000200567892
  0
LINE
 8
Layer0
10
537.7516915789115
20
587.8362483180942
30
523.7000200567892
11
537.5530433006641
21
587.577364841611
31
523.7000200567892
  0
LINE
 8
Layer0
10
538.0105750553947
20
588.0348965963416
30
523.7000200567892
11
537.7516915789115
21
587.8362483180942
31
523.7000200567892
  0
LINE
 8
Layer0
10
473.9590988617729
20
585.7449575587497
30
523.7000200567894
11
474.26057505539467
21
585.8698330868805
31
523.7000200567894
  0
LINE
 8
Layer0
10
473.6355750553947
20
585.702364841611
30
523.7000200567894
11
473.9590988617729
21
585.7449575587497
31
523.7000200567894
  0
LINE
 8
Layer0
10
473.31205124901663
20
585.7449575587497
30
523.7000200567894
11
473.6355750553947
21
585.702364841611
31
523.7000200567894
  0
LINE
 8
Layer0
10
473.0105750553947
20
585.8698330868805
30
523.7000200567894
11
473.31205124901663
21
585.7449575587497
31
523.7000200567894
  0
LINE
 8
Layer0
10
472.75169157891156
20
586.0684813651278
30
523.7000200567894
11
473.0105750553947
21
585.8698330868805
31
523.7000200567894
  0
LINE
 8
Layer0
10
472.55304330066417
20
586.327364841611
30
523.7000200567894
11
472.75169157891156
21
586.0684813651278
31
523.7000200567894
  0
LINE
 8
Layer0
10
472.4281677725334
20
586.6288410352329
30
523.7000200567894
11
472.55304330066417
21
586.327364841611
31
523.7000200567894
  0
LINE
 8
Layer0
10
472.3855750553948
20
586.952364841611
30
523.7000200567894
11
472.4281677725334
21
586.6288410352329
31
523.7000200567894
  0
LINE
 8
Layer0
10
472.4281677725334
20
587.2758886479892
30
523.7000200567894
11
472.3855750553948
21
586.952364841611
31
523.7000200567894
  0
LINE
 8
Layer0
10
472.55304330066417
20
587.577364841611
30
523.7000200567894
11
472.4281677725334
21
587.2758886479892
31
523.7000200567894
  0
LINE
 8
Layer0
10
472.75169157891156
20
587.8362483180942
30
523.7000200567894
11
472.55304330066417
21
587.577364841611
31
523.7000200567894
  0
LINE
 8
Layer0
10
473.0105750553948
20
588.0348965963416
30
523.7000200567894
11
472.75169157891156
21
587.8362483180942
31
523.7000200567894
  0
LINE
 8
Layer0
10
473.31205124901663
20
588.1597721244723
30
523.7000200567894
11
473.0105750553948
21
588.0348965963416
31
523.7000200567894
  0
LINE
 8
Layer0
10
473.6355750553947
20
588.202364841611
30
523.7000200567894
11
473.31205124901663
21
588.1597721244723
31
523.7000200567894
  0
LINE
 8
Layer0
10
473.9590988617729
20
588.1597721244723
30
523.7000200567894
11
473.6355750553947
21
588.202364841611
31
523.7000200567894
  0
LINE
 8
Layer0
10
474.2605750553948
20
588.0348965963416
30
523.7000200567894
11
473.9590988617729
21
588.1597721244723
31
523.7000200567894
  0
LINE
 8
Layer0
10
474.51945853187794
20
587.8362483180942
30
523.7000200567894
11
474.2605750553948
21
588.0348965963416
31
523.7000200567894
  0
LINE
 8
Layer0
10
474.71810681012533
20
587.5773648416109
30
523.7000200567894
11
474.51945853187794
21
587.8362483180942
31
523.7000200567894
  0
LINE
 8
Layer0
10
474.8429823382561
20
587.2758886479892
30
523.7000200567894
11
474.71810681012533
21
587.5773648416109
31
523.7000200567894
  0
LINE
 8
Layer0
10
474.8855750553947
20
586.952364841611
30
523.7000200567894
11
474.8429823382561
21
587.2758886479892
31
523.7000200567894
  0
LINE
 8
Layer0
10
474.8429823382561
20
586.6288410352329
30
523.7000200567894
11
474.8855750553947
21
586.952364841611
31
523.7000200567894
  0
LINE
 8
Layer0
10
474.71810681012533
20
586.327364841611
30
523.7000200567894
11
474.8429823382561
21
586.6288410352329
31
523.7000200567894
  0
LINE
 8
Layer0
10
474.51945853187794
20
586.0684813651278
30
523.7000200567894
11
474.71810681012533
21
586.327364841611
31
523.7000200567894
  0
LINE
 8
Layer0
10
474.26057505539467
20
585.8698330868805
30
523.7000200567894
11
474.51945853187794
21
586.0684813651278
31
523.7000200567894
  0
LINE
 8
Layer0
10
473.9590988617724
20
500.75977212447236
30
523.7000200567891
11
473.63557505539427
21
500.80236484161105
31
523.7000200567891
  0
LINE
 8
Layer0
10
474.2605750553943
20
500.6348965963416
30
523.7000200567891
11
473.9590988617724
21
500.75977212447236
31
523.7000200567891
  0
LINE
 8
Layer0
10
474.5194585318775
20
500.4362483180942
30
523.7000200567891
11
474.2605750553943
21
500.6348965963416
31
523.7000200567891
  0
LINE
 8
Layer0
10
474.7181068101249
20
500.177364841611
30
523.7000200567891
11
474.5194585318775
21
500.4362483180942
31
523.7000200567891
  0
LINE
 8
Layer0
10
474.84298233825564
20
499.87588864798914
30
523.7000200567891
11
474.7181068101249
21
500.177364841611
31
523.7000200567891
  0
LINE
 8
Layer0
10
474.88557505539427
20
499.55236484161105
30
523.7000200567891
11
474.84298233825564
21
499.87588864798914
31
523.7000200567891
  0
LINE
 8
Layer0
10
474.84298233825564
20
499.2288410352329
30
523.7000200567891
11
474.88557505539427
21
499.55236484161105
31
523.7000200567891
  0
LINE
 8
Layer0
10
474.7181068101249
20
498.927364841611
30
523.7000200567891
11
474.84298233825564
21
499.2288410352329
31
523.7000200567891
  0
LINE
 8
Layer0
10
474.5194585318775
20
498.66848136512783
30
523.7000200567891
11
474.7181068101249
21
498.927364841611
31
523.7000200567891
  0
LINE
 8
Layer0
10
474.26057505539427
20
498.46983308688044
30
523.7000200567891
11
474.5194585318775
21
498.66848136512783
31
523.7000200567891
  0
LINE
 8
Layer0
10
473.9590988617724
20
498.34495755874974
30
523.7000200567891
11
474.26057505539427
21
498.46983308688044
31
523.7000200567891
  0
LINE
 8
Layer0
10
473.63557505539427
20
498.30236484161105
30
523.7000200567891
11
473.9590988617724
21
498.34495755874974
31
523.7000200567891
  0
LINE
 8
Layer0
10
473.3120512490162
20
498.34495755874974
30
523.7000200567891
11
473.63557505539427
21
498.30236484161105
31
523.7000200567891
  0
LINE
 8
Layer0
10
473.01057505539427
20
498.46983308688044
30
523.7000200567891
11
473.3120512490162
21
498.34495755874974
31
523.7000200567891
  0
LINE
 8
Layer0
10
472.7516915789111
20
498.66848136512783
30
523.7000200567891
11
473.01057505539427
21
498.46983308688044
31
523.7000200567891
  0
LINE
 8
Layer0
10
472.5530433006637
20
498.9273648416111
30
523.7000200567891
11
472.7516915789111
21
498.66848136512783
31
523.7000200567891
  0
LINE
 8
Layer0
10
472.42816777253296
20
499.2288410352329
30
523.7000200567891
11
472.5530433006637
21
498.9273648416111
31
523.7000200567891
  0
LINE
 8
Layer0
10
472.3855750553943
20
499.55236484161105
30
523.7000200567891
11
472.42816777253296
21
499.2288410352329
31
523.7000200567891
  0
LINE
 8
Layer0
10
472.42816777253296
20
499.87588864798914
30
523.7000200567891
11
472.3855750553943
21
499.55236484161105
31
523.7000200567891
  0
LINE
 8
Layer0
10
472.5530433006637
20
500.17736484161105
30
523.7000200567891
11
472.42816777253296
21
499.87588864798914
31
523.7000200567891
  0
LINE
 8
Layer0
10
472.7516915789111
20
500.4362483180942
30
523.7000200567891
11
472.5530433006637
21
500.17736484161105
31
523.7000200567891
  0
LINE
 8
Layer0
10
473.0105750553943
20
500.6348965963416
30
523.7000200567891
11
472.7516915789111
21
500.4362483180942
31
523.7000200567891
  0
LINE
 8
Layer0
10
473.3120512490162
20
500.75977212447236
30
523.7000200567891
11
473.0105750553943
21
500.6348965963416
31
523.7000200567891
  0
LINE
 8
Layer0
10
473.63557505539427
20
500.80236484161105
30
523.7000200567891
11
473.3120512490162
21
500.75977212447236
31
523.7000200567891
  0
LINE
 8
Layer0
10
538.9590988617723
20
498.34495755874974
30
523.7000200567891
11
539.2605750553942
21
498.46983308688044
31
523.7000200567891
  0
LINE
 8
Layer0
10
538.6355750553943
20
498.30236484161105
30
523.7000200567891
11
538.9590988617723
21
498.34495755874974
31
523.7000200567891
  0
LINE
 8
Layer0
10
538.3120512490161
20
498.34495755874974
30
523.7000200567891
11
538.6355750553943
21
498.30236484161105
31
523.7000200567891
  0
LINE
 8
Layer0
10
538.0105750553942
20
498.46983308688044
30
523.7000200567891
11
538.3120512490161
21
498.34495755874974
31
523.7000200567891
  0
LINE
 8
Layer0
10
537.751691578911
20
498.66848136512783
30
523.7000200567891
11
538.0105750553942
21
498.46983308688044
31
523.7000200567891
  0
LINE
 8
Layer0
10
537.5530433006636
20
498.9273648416111
30
523.7000200567891
11
537.751691578911
21
498.66848136512783
31
523.7000200567891
  0
LINE
 8
Layer0
10
537.4281677725329
20
499.2288410352329
30
523.7000200567891
11
537.5530433006636
21
498.9273648416111
31
523.7000200567891
  0
LINE
 8
Layer0
10
537.3855750553943
20
499.55236484161105
30
523.7000200567891
11
537.4281677725329
21
499.2288410352329
31
523.7000200567891
  0
LINE
 8
Layer0
10
537.4281677725329
20
499.87588864798914
30
523.7000200567891
11
537.3855750553943
21
499.55236484161105
31
523.7000200567891
  0
LINE
 8
Layer0
10
537.5530433006636
20
500.17736484161105
30
523.7000200567891
11
537.4281677725329
21
499.87588864798914
31
523.7000200567891
  0
LINE
 8
Layer0
10
537.751691578911
20
500.4362483180942
30
523.7000200567891
11
537.5530433006636
21
500.17736484161105
31
523.7000200567891
  0
LINE
 8
Layer0
10
538.0105750553943
20
500.6348965963416
30
523.7000200567891
11
537.751691578911
21
500.4362483180942
31
523.7000200567891
  0
LINE
 8
Layer0
10
538.3120512490161
20
500.75977212447236
30
523.7000200567891
11
538.0105750553943
21
500.6348965963416
31
523.7000200567891
  0
LINE
 8
Layer0
10
538.6355750553943
20
500.80236484161105
30
523.7000200567891
11
538.3120512490161
21
500.75977212447236
31
523.7000200567891
  0
LINE
 8
Layer0
10
538.9590988617723
20
500.75977212447236
30
523.7000200567891
11
538.6355750553943
21
500.80236484161105
31
523.7000200567891
  0
LINE
 8
Layer0
10
539.2605750553943
20
500.6348965963416
30
523.7000200567891
11
538.9590988617723
21
500.75977212447236
31
523.7000200567891
  0
LINE
 8
Layer0
10
539.5194585318774
20
500.4362483180942
30
523.7000200567891
11
539.2605750553943
21
500.6348965963416
31
523.7000200567891
  0
LINE
 8
Layer0
10
539.7181068101248
20
500.177364841611
30
523.7000200567891
11
539.5194585318774
21
500.4362483180942
31
523.7000200567891
  0
LINE
 8
Layer0
10
539.8429823382555
20
499.87588864798914
30
523.7000200567891
11
539.7181068101248
21
500.177364841611
31
523.7000200567891
  0
LINE
 8
Layer0
10
539.8855750553942
20
499.55236484161105
30
523.7000200567891
11
539.8429823382555
21
499.87588864798914
31
523.7000200567891
  0
LINE
 8
Layer0
10
539.8429823382555
20
499.2288410352329
30
523.7000200567891
11
539.8855750553942
21
499.55236484161105
31
523.7000200567891
  0
LINE
 8
Layer0
10
539.7181068101248
20
498.927364841611
30
523.7000200567891
11
539.8429823382555
21
499.2288410352329
31
523.7000200567891
  0
LINE
 8
Layer0
10
539.5194585318774
20
498.66848136512783
30
523.7000200567891
11
539.7181068101248
21
498.927364841611
31
523.7000200567891
  0
LINE
 8
Layer0
10
539.2605750553942
20
498.46983308688044
30
523.7000200567891
11
539.5194585318774
21
498.66848136512783
31
523.7000200567891
  0
LINE
 8
Layer0
10
526.8355750553947
20
443.36672419555595
30
523.7000200567893
11
527.2214645832306
21
443.20688351954846
31
523.7000200567893
  0
LINE
 8
Layer0
10
526.5042042054961
20
443.6209939917125
30
523.7000200567893
11
526.8355750553947
21
443.36672419555595
31
523.7000200567893
  0
LINE
 8
Layer0
10
526.2499344093395
20
443.95236484161103
30
523.7000200567893
11
526.5042042054961
21
443.6209939917125
31
523.7000200567893
  0
LINE
 8
Layer0
10
526.0900937333322
20
444.338254369447
30
523.7000200567893
11
526.2499344093395
21
443.95236484161103
31
523.7000200567893
  0
LINE
 8
Layer0
10
526.0355750553947
20
444.75236484161104
30
523.7000200567893
11
526.0900937333322
21
444.338254369447
31
523.7000200567893
  0
LINE
 8
Layer0
10
526.0900937333322
20
445.1664753137751
30
523.7000200567893
11
526.0355750553947
21
444.75236484161104
31
523.7000200567893
  0
LINE
 8
Layer0
10
526.2499344093395
20
445.55236484161105
30
523.7000200567893
11
526.0900937333322
21
445.1664753137751
31
523.7000200567893
  0
LINE
 8
Layer0
10
526.5042042054961
20
445.88373569150957
30
523.7000200567893
11
526.2499344093395
21
445.55236484161105
31
523.7000200567893
  0
LINE
 8
Layer0
10
526.8355750553947
20
446.1380054876662
30
523.7000200567893
11
526.5042042054961
21
445.88373569150957
31
523.7000200567893
  0
LINE
 8
Layer0
10
527.2214645832306
20
446.2978461636736
30
523.7000200567893
11
526.8355750553947
21
446.1380054876662
31
523.7000200567893
  0
LINE
 8
Layer0
10
527.6355750553946
20
446.35236484161106
30
523.7000200567893
11
527.2214645832306
21
446.2978461636736
31
523.7000200567893
  0
LINE
 8
Layer0
10
528.0496855275587
20
446.2978461636736
30
523.7000200567893
11
527.6355750553946
21
446.35236484161106
31
523.7000200567893
  0
LINE
 8
Layer0
10
528.4355750553947
20
446.1380054876662
30
523.7000200567893
11
528.0496855275587
21
446.2978461636736
31
523.7000200567893
  0
LINE
 8
Layer0
10
528.7669459052931
20
445.88373569150957
30
523.7000200567893
11
528.4355750553947
21
446.1380054876662
31
523.7000200567893
  0
LINE
 8
Layer0
10
529.0212157014498
20
445.55236484161105
30
523.7000200567893
11
528.7669459052931
21
445.88373569150957
31
523.7000200567893
  0
LINE
 8
Layer0
10
529.1810563774571
20
445.1664753137751
30
523.7000200567893
11
529.0212157014498
21
445.55236484161105
31
523.7000200567893
  0
LINE
 8
Layer0
10
529.2355750553946
20
444.75236484161104
30
523.7000200567893
11
529.1810563774571
21
445.1664753137751
31
523.7000200567893
  0
LINE
 8
Layer0
10
529.1810563774571
20
444.338254369447
30
523.7000200567893
11
529.2355750553946
21
444.75236484161104
31
523.7000200567893
  0
LINE
 8
Layer0
10
529.0212157014498
20
443.95236484161103
30
523.7000200567893
11
529.1810563774571
21
444.338254369447
31
523.7000200567893
  0
LINE
 8
Layer0
10
528.7669459052931
20
443.6209939917125
30
523.7000200567893
11
529.0212157014498
21
443.95236484161103
31
523.7000200567893
  0
LINE
 8
Layer0
10
528.4355750553947
20
443.36672419555595
30
523.7000200567893
11
528.7669459052931
21
443.6209939917125
31
523.7000200567893
  0
LINE
 8
Layer0
10
528.0496855275587
20
443.20688351954846
30
523.7000200567893
11
528.4355750553947
21
443.36672419555595
31
523.7000200567893
  0
LINE
 8
Layer0
10
527.6355750553946
20
443.1523648416111
30
523.7000200567893
11
528.0496855275587
21
443.20688351954846
31
523.7000200567893
  0
LINE
 8
Layer0
10
527.2214645832306
20
443.20688351954846
30
523.7000200567893
11
527.6355750553946
21
443.1523648416111
31
523.7000200567893
  0
LINE
 8
Layer0
10
526.8355750553947
20
351.13800548766613
30
523.7000200567891
11
526.5042042054961
21
350.8837356915095
31
523.7000200567891
  0
LINE
 8
Layer0
10
527.2214645832306
20
351.29784616367357
30
523.7000200567891
11
526.8355750553947
21
351.13800548766613
31
523.7000200567891
  0
LINE
 8
Layer0
10
527.6355750553946
20
351.35236484161106
30
523.7000200567891
11
527.2214645832306
21
351.29784616367357
31
523.7000200567891
  0
LINE
 8
Layer0
10
528.0496855275587
20
351.29784616367357
30
523.7000200567891
11
527.6355750553946
21
351.35236484161106
31
523.7000200567891
  0
LINE
 8
Layer0
10
528.4355750553947
20
351.13800548766613
30
523.7000200567891
11
528.0496855275587
21
351.29784616367357
31
523.7000200567891
  0
LINE
 8
Layer0
10
528.7669459052931
20
350.8837356915095
30
523.7000200567891
11
528.4355750553947
21
351.13800548766613
31
523.7000200567891
  0
LINE
 8
Layer0
10
529.0212157014498
20
350.55236484161105
30
523.7000200567891
11
528.7669459052931
21
350.8837356915095
31
523.7000200567891
  0
LINE
 8
Layer0
10
529.1810563774571
20
350.1664753137751
30
523.7000200567891
11
529.0212157014498
21
350.55236484161105
31
523.7000200567891
  0
LINE
 8
Layer0
10
529.2355750553946
20
349.75236484161104
30
523.7000200567891
11
529.1810563774571
21
350.1664753137751
31
523.7000200567891
  0
LINE
 8
Layer0
10
529.1810563774571
20
349.338254369447
30
523.7000200567891
11
529.2355750553946
21
349.75236484161104
31
523.7000200567891
  0
LINE
 8
Layer0
10
529.0212157014498
20
348.95236484161103
30
523.7000200567891
11
529.1810563774571
21
349.338254369447
31
523.7000200567891
  0
LINE
 8
Layer0
10
528.7669459052931
20
348.62099399171257
30
523.7000200567891
11
529.0212157014498
21
348.95236484161103
31
523.7000200567891
  0
LINE
 8
Layer0
10
528.4355750553947
20
348.36672419555595
30
523.7000200567891
11
528.7669459052931
21
348.62099399171257
31
523.7000200567891
  0
LINE
 8
Layer0
10
528.0496855275587
20
348.2068835195485
30
523.7000200567891
11
528.4355750553947
21
348.36672419555595
31
523.7000200567891
  0
LINE
 8
Layer0
10
527.6355750553946
20
348.152364841611
30
523.7000200567891
11
528.0496855275587
21
348.2068835195485
31
523.7000200567891
  0
LINE
 8
Layer0
10
527.2214645832306
20
348.2068835195485
30
523.7000200567891
11
527.6355750553946
21
348.152364841611
31
523.7000200567891
  0
LINE
 8
Layer0
10
526.8355750553947
20
348.36672419555595
30
523.7000200567891
11
527.2214645832306
21
348.2068835195485
31
523.7000200567891
  0
LINE
 8
Layer0
10
526.5042042054961
20
348.62099399171257
30
523.7000200567891
11
526.8355750553947
21
348.36672419555595
31
523.7000200567891
  0
LINE
 8
Layer0
10
526.2499344093395
20
348.95236484161103
30
523.7000200567891
11
526.5042042054961
21
348.62099399171257
31
523.7000200567891
  0
LINE
 8
Layer0
10
526.0900937333322
20
349.33825436944704
30
523.7000200567891
11
526.2499344093395
21
348.95236484161103
31
523.7000200567891
  0
LINE
 8
Layer0
10
526.0355750553947
20
349.75236484161104
30
523.7000200567891
11
526.0900937333322
21
349.33825436944704
31
523.7000200567891
  0
LINE
 8
Layer0
10
526.0900937333322
20
350.1664753137751
30
523.7000200567891
11
526.0355750553947
21
349.75236484161104
31
523.7000200567891
  0
LINE
 8
Layer0
10
526.2499344093395
20
350.55236484161105
30
523.7000200567891
11
526.0900937333322
21
350.1664753137751
31
523.7000200567891
  0
LINE
 8
Layer0
10
526.5042042054961
20
350.8837356915095
30
523.7000200567891
11
526.2499344093395
21
350.55236484161105
31
523.7000200567891
  0
LINE
 8
Layer0
10
351.7355750553947
20
349.75236484161104
30
523.7000200567893
11
351.6810563774572
21
350.16647531377504
31
523.7000200567893
  0
LINE
 8
Layer0
10
351.6810563774572
20
349.338254369447
30
523.7000200567893
11
351.7355750553947
21
349.75236484161104
31
523.7000200567893
  0
LINE
 8
Layer0
10
351.52121570144976
20
348.95236484161103
30
523.7000200567893
11
351.6810563774572
21
349.338254369447
31
523.7000200567893
  0
LINE
 8
Layer0
10
351.26694590529314
20
348.62099399171257
30
523.7000200567893
11
351.52121570144976
21
348.95236484161103
31
523.7000200567893
  0
LINE
 8
Layer0
10
350.9355750553947
20
348.36672419555595
30
523.7000200567893
11
351.26694590529314
21
348.62099399171257
31
523.7000200567893
  0
LINE
 8
Layer0
10
350.5496855275587
20
348.2068835195485
30
523.7000200567893
11
350.9355750553947
21
348.36672419555595
31
523.7000200567893
  0
LINE
 8
Layer0
10
350.13557505539467
20
348.152364841611
30
523.7000200567893
11
350.5496855275587
21
348.2068835195485
31
523.7000200567893
  0
LINE
 8
Layer0
10
349.7214645832306
20
348.2068835195485
30
523.7000200567893
11
350.13557505539467
21
348.152364841611
31
523.7000200567893
  0
LINE
 8
Layer0
10
349.33557505539466
20
348.36672419555595
30
523.7000200567893
11
349.7214645832306
21
348.2068835195485
31
523.7000200567893
  0
LINE
 8
Layer0
10
349.0042042054962
20
348.62099399171257
30
523.7000200567893
11
349.33557505539466
21
348.36672419555595
31
523.7000200567893
  0
LINE
 8
Layer0
10
348.7499344093396
20
348.95236484161103
30
523.7000200567893
11
349.0042042054962
21
348.62099399171257
31
523.7000200567893
  0
LINE
 8
Layer0
10
348.59009373333214
20
349.338254369447
30
523.7000200567893
11
348.7499344093396
21
348.95236484161103
31
523.7000200567893
  0
LINE
 8
Layer0
10
348.5355750553947
20
349.75236484161104
30
523.7000200567893
11
348.59009373333214
21
349.338254369447
31
523.7000200567893
  0
LINE
 8
Layer0
10
348.59009373333214
20
350.1664753137751
30
523.7000200567893
11
348.5355750553947
21
349.75236484161104
31
523.7000200567893
  0
LINE
 8
Layer0
10
348.7499344093396
20
350.55236484161105
30
523.7000200567893
11
348.59009373333214
21
350.1664753137751
31
523.7000200567893
  0
LINE
 8
Layer0
10
349.0042042054962
20
350.8837356915095
30
523.7000200567893
11
348.7499344093396
21
350.55236484161105
31
523.7000200567893
  0
LINE
 8
Layer0
10
349.33557505539466
20
351.13800548766613
30
523.7000200567893
11
349.0042042054962
21
350.8837356915095
31
523.7000200567893
  0
LINE
 8
Layer0
10
349.72146458323067
20
351.29784616367357
30
523.7000200567893
11
349.33557505539466
21
351.13800548766613
31
523.7000200567893
  0
LINE
 8
Layer0
10
350.13557505539467
20
351.35236484161106
30
523.7000200567893
11
349.72146458323067
21
351.29784616367357
31
523.7000200567893
  0
LINE
 8
Layer0
10
350.5496855275587
20
351.29784616367357
30
523.7000200567893
11
350.13557505539467
21
351.35236484161106
31
523.7000200567893
  0
LINE
 8
Layer0
10
350.9355750553947
20
351.13800548766613
30
523.7000200567893
11
350.5496855275587
21
351.29784616367357
31
523.7000200567893
  0
LINE
 8
Layer0
10
351.26694590529314
20
350.8837356915095
30
523.7000200567893
11
350.9355750553947
21
351.13800548766613
31
523.7000200567893
  0
LINE
 8
Layer0
10
351.52121570144976
20
350.55236484161105
30
523.7000200567893
11
351.26694590529314
21
350.8837356915095
31
523.7000200567893
  0
LINE
 8
Layer0
10
351.6810563774572
20
350.16647531377504
30
523.7000200567893
11
351.52121570144976
21
350.55236484161105
31
523.7000200567893
  0
LINE
 8
Layer0
10
348.5355750553947
20
444.75236484161104
30
523.700020056789
11
348.59009373333214
21
444.338254369447
31
523.700020056789
  0
LINE
 8
Layer0
10
348.59009373333214
20
445.1664753137751
30
523.700020056789
11
348.5355750553947
21
444.75236484161104
31
523.700020056789
  0
LINE
 8
Layer0
10
348.7499344093396
20
445.55236484161105
30
523.700020056789
11
348.59009373333214
21
445.1664753137751
31
523.700020056789
  0
LINE
 8
Layer0
10
349.0042042054962
20
445.88373569150957
30
523.700020056789
11
348.7499344093396
21
445.55236484161105
31
523.700020056789
  0
LINE
 8
Layer0
10
349.33557505539466
20
446.1380054876662
30
523.700020056789
11
349.0042042054962
21
445.88373569150957
31
523.700020056789
  0
LINE
 8
Layer0
10
349.72146458323067
20
446.2978461636736
30
523.700020056789
11
349.33557505539466
21
446.1380054876662
31
523.700020056789
  0
LINE
 8
Layer0
10
350.13557505539467
20
446.35236484161106
30
523.700020056789
11
349.72146458323067
21
446.2978461636736
31
523.700020056789
  0
LINE
 8
Layer0
10
350.5496855275587
20
446.2978461636736
30
523.700020056789
11
350.13557505539467
21
446.35236484161106
31
523.700020056789
  0
LINE
 8
Layer0
10
350.9355750553947
20
446.1380054876662
30
523.700020056789
11
350.5496855275587
21
446.2978461636736
31
523.700020056789
  0
LINE
 8
Layer0
10
351.26694590529314
20
445.88373569150957
30
523.700020056789
11
350.9355750553947
21
446.1380054876662
31
523.700020056789
  0
LINE
 8
Layer0
10
351.52121570144976
20
445.55236484161105
30
523.700020056789
11
351.26694590529314
21
445.88373569150957
31
523.700020056789
  0
LINE
 8
Layer0
10
351.6810563774572
20
445.1664753137751
30
523.700020056789
11
351.52121570144976
21
445.55236484161105
31
523.700020056789
  0
LINE
 8
Layer0
10
351.7355750553947
20
444.75236484161104
30
523.700020056789
11
351.6810563774572
21
445.1664753137751
31
523.700020056789
  0
LINE
 8
Layer0
10
351.6810563774572
20
444.338254369447
30
523.700020056789
11
351.7355750553947
21
444.75236484161104
31
523.700020056789
  0
LINE
 8
Layer0
10
351.52121570144976
20
443.95236484161103
30
523.700020056789
11
351.6810563774572
21
444.338254369447
31
523.700020056789
  0
LINE
 8
Layer0
10
351.26694590529314
20
443.6209939917125
30
523.700020056789
11
351.52121570144976
21
443.95236484161103
31
523.700020056789
  0
LINE
 8
Layer0
10
350.9355750553947
20
443.36672419555595
30
523.700020056789
11
351.26694590529314
21
443.6209939917125
31
523.700020056789
  0
LINE
 8
Layer0
10
350.5496855275587
20
443.20688351954846
30
523.700020056789
11
350.9355750553947
21
443.36672419555595
31
523.700020056789
  0
LINE
 8
Layer0
10
350.13557505539467
20
443.1523648416111
30
523.700020056789
11
350.5496855275587
21
443.20688351954846
31
523.700020056789
  0
LINE
 8
Layer0
10
349.7214645832306
20
443.20688351954846
30
523.700020056789
11
350.13557505539467
21
443.1523648416111
31
523.700020056789
  0
LINE
 8
Layer0
10
349.33557505539466
20
443.36672419555595
30
523.700020056789
11
349.7214645832306
21
443.20688351954846
31
523.700020056789
  0
LINE
 8
Layer0
10
349.0042042054962
20
443.6209939917125
30
523.700020056789
11
349.33557505539466
21
443.36672419555595
31
523.700020056789
  0
LINE
 8
Layer0
10
348.7499344093396
20
443.95236484161103
30
523.700020056789
11
349.0042042054962
21
443.6209939917125
31
523.700020056789
  0
LINE
 8
Layer0
10
348.59009373333214
20
444.338254369447
30
523.700020056789
11
348.7499344093396
21
443.95236484161103
31
523.700020056789
  0
LINE
 8
Layer0
10
309.86632599354965
20
505.79604877403705
30
523.7000200567894
11
309.714304003608
21
506.36340256436307
31
523.7000200567894
  0
LINE
 8
Layer0
10
309.8663259935506
20
505.20868090904685
30
523.7000200567894
11
309.86632599354965
21
505.79604877403705
31
523.7000200567894
  0
LINE
 8
Layer0
10
309.71430400361083
20
504.6413271187202
30
523.7000200567894
11
309.8663259935506
21
505.20868090904685
31
523.7000200567894
  0
LINE
 8
Layer0
10
309.4206200711166
20
504.1326516262715
30
523.7000200567894
11
309.71430400361083
21
504.6413271187202
31
523.7000200567894
  0
LINE
 8
Layer0
10
309.0052882707316
20
503.7173198258852
30
523.7000200567894
11
309.4206200711166
21
504.1326516262715
31
523.7000200567894
  0
LINE
 8
Layer0
10
308.496612778284
20
503.42363589338936
30
523.7000200567894
11
309.0052882707316
21
503.7173198258852
31
523.7000200567894
  0
LINE
 8
Layer0
10
307.9292589879579
20
503.27161390344764
30
523.7000200567894
11
308.496612778284
21
503.42363589338936
31
523.7000200567894
  0
LINE
 8
Layer0
10
307.3418911229677
20
503.2716139034467
30
523.7000200567894
11
307.9292589879579
21
503.27161390344764
31
523.7000200567894
  0
LINE
 8
Layer0
10
306.77453733264105
20
503.42363589338646
30
523.7000200567894
11
307.3418911229677
21
503.2716139034467
31
523.7000200567894
  0
LINE
 8
Layer0
10
306.26586184019243
20
503.7173198258807
30
523.7000200567894
11
306.77453733264105
21
503.42363589338646
31
523.7000200567894
  0
LINE
 8
Layer0
10
305.8505300398061
20
504.13265162626567
30
523.7000200567894
11
306.26586184019243
21
503.7173198258807
31
523.7000200567894
  0
LINE
 8
Layer0
10
305.55684610731015
20
504.64132711871343
30
523.7000200567894
11
305.8505300398061
21
504.13265162626567
31
523.7000200567894
  0
LINE
 8
Layer0
10
305.4048241173685
20
505.20868090903946
30
523.7000200567894
11
305.55684610731015
21
504.64132711871343
31
523.7000200567894
  0
LINE
 8
Layer0
10
305.4048241173675
20
505.79604877402966
30
523.7000200567894
11
305.4048241173685
21
505.20868090903946
31
523.7000200567894
  0
LINE
 8
Layer0
10
305.5568461073073
20
506.3634025643563
30
523.7000200567894
11
305.4048241173675
21
505.79604877402966
31
523.7000200567894
  0
LINE
 8
Layer0
10
305.8505300398015
20
506.87207805680487
30
523.7000200567894
11
305.5568461073073
21
506.3634025643563
31
523.7000200567894
  0
LINE
 8
Layer0
10
306.2658618401865
20
507.2874098571912
30
523.7000200567894
11
305.8505300398015
21
506.87207805680487
31
523.7000200567894
  0
LINE
 8
Layer0
10
306.77453733263417
20
507.5810937896872
30
523.7000200567894
11
306.2658618401865
21
507.2874098571912
31
523.7000200567894
  0
LINE
 8
Layer0
10
307.34189112296025
20
507.73311577962875
30
523.7000200567894
11
306.77453733263417
21
507.5810937896872
31
523.7000200567894
  0
LINE
 8
Layer0
10
307.9292589879505
20
507.73311577962977
30
523.7000200567894
11
307.34189112296025
21
507.73311577962875
31
523.7000200567894
  0
LINE
 8
Layer0
10
308.4966127782771
20
507.5810937896901
30
523.7000200567894
11
307.9292589879505
21
507.73311577962977
31
523.7000200567894
  0
LINE
 8
Layer0
10
309.00528827072577
20
507.2874098571957
30
523.7000200567894
11
308.4966127782771
21
507.5810937896901
31
523.7000200567894
  0
LINE
 8
Layer0
10
309.42062007111207
20
506.8720780568108
30
523.7000200567894
11
309.00528827072577
21
507.2874098571957
31
523.7000200567894
  0
LINE
 8
Layer0
10
309.714304003608
20
506.36340256436307
30
523.7000200567894
11
309.42062007111207
21
506.8720780568108
31
523.7000200567894
  0
LINE
 8
Layer0
10
331.2755750554744
20
480.1590333227682
30
523.7000200567895
11
331.5990988618526
21
480.1164406056297
31
523.7000200567895
  0
LINE
 8
Layer0
10
331.5990988618526
20
480.1164406056297
30
523.7000200567895
11
331.9005750554744
21
479.9915650774992
31
523.7000200567895
  0
LINE
 8
Layer0
10
331.9005750554744
20
479.9915650774992
30
523.7000200567895
11
332.1594585319578
21
479.79291679925194
31
523.7000200567895
  0
LINE
 8
Layer0
10
332.1594585319578
20
479.79291679925194
30
523.7000200567895
11
332.35810681020524
21
479.5340333227688
31
523.7000200567895
  0
LINE
 8
Layer0
10
332.35810681020524
20
479.5340333227688
30
523.7000200567895
11
332.4829823383362
21
479.23255712914715
31
523.7000200567895
  0
LINE
 8
Layer0
10
332.4829823383362
20
479.23255712914715
30
523.7000200567895
11
332.5255750554751
21
478.9090333227691
31
523.7000200567895
  0
LINE
 8
Layer0
10
332.5255750554751
20
478.9090333227691
30
523.7000200567895
11
332.4829823383367
21
478.5855095163909
31
523.7000200567895
  0
LINE
 8
Layer0
10
332.4829823383367
20
478.5855095163909
30
523.7000200567895
11
332.358106810206
21
478.2840333227689
31
523.7000200567895
  0
LINE
 8
Layer0
10
332.358106810206
20
478.2840333227689
30
523.7000200567895
11
332.1594585319589
21
478.02514984628556
31
523.7000200567895
  0
LINE
 8
Layer0
10
332.1594585319589
20
478.02514984628556
30
523.7000200567895
11
331.9005750554757
21
477.82650156803805
31
523.7000200567895
  0
LINE
 8
Layer0
10
331.9005750554757
20
477.82650156803805
30
523.7000200567895
11
331.59909886185403
21
477.70162603990707
31
523.7000200567895
  0
LINE
 8
Layer0
10
331.59909886185403
20
477.70162603990707
30
523.7000200567895
11
331.2755750554759
21
477.6590333227682
31
523.7000200567895
  0
LINE
 8
Layer0
10
331.2755750554759
20
477.6590333227682
30
523.7000200567895
11
330.9520512490976
21
477.7016260399067
31
523.7000200567895
  0
LINE
 8
Layer0
10
330.9520512490976
20
477.7016260399067
30
523.7000200567895
11
330.6505750554758
21
477.8265015680374
31
523.7000200567895
  0
LINE
 8
Layer0
10
330.6505750554758
20
477.8265015680374
30
523.7000200567895
11
330.39169157899244
21
478.0251498462845
31
523.7000200567895
  0
LINE
 8
Layer0
10
330.39169157899244
20
478.0251498462845
30
523.7000200567895
11
330.19304330074505
21
478.28403332276764
31
523.7000200567895
  0
LINE
 8
Layer0
10
330.19304330074505
20
478.28403332276764
30
523.7000200567895
11
330.068167772614
21
478.58550951638944
31
523.7000200567895
  0
LINE
 8
Layer0
10
330.068167772614
20
478.58550951638944
30
523.7000200567895
11
330.02557505547514
21
478.9090333227676
31
523.7000200567895
  0
LINE
 8
Layer0
10
330.02557505547514
20
478.9090333227676
30
523.7000200567895
11
330.0681677726136
21
479.2325571291457
31
523.7000200567895
  0
LINE
 8
Layer0
10
330.0681677726136
20
479.2325571291457
30
523.7000200567895
11
330.19304330074425
21
479.5340333227677
31
523.7000200567895
  0
LINE
 8
Layer0
10
330.19304330074425
20
479.5340333227677
30
523.7000200567895
11
330.3916915789914
21
479.79291679925086
31
523.7000200567895
  0
LINE
 8
Layer0
10
330.3916915789914
20
479.79291679925086
30
523.7000200567895
11
330.6505750554745
21
479.99156507749854
31
523.7000200567895
  0
LINE
 8
Layer0
10
330.6505750554745
20
479.99156507749854
30
523.7000200567895
11
330.9520512490962
21
480.11644060562935
31
523.7000200567895
  0
LINE
 8
Layer0
10
330.9520512490962
20
480.11644060562935
30
523.7000200567895
11
331.2755750554744
21
480.1590333227682
31
523.7000200567895
  0
LINE
 8
Layer0
10
330.02557505539374
20
527.1690333227677
30
523.7000200567892
11
330.0681677725326
21
526.8455095163896
31
523.7000200567892
  0
LINE
 8
Layer0
10
330.06816777253215
20
527.4925571291458
30
523.7000200567892
11
330.02557505539374
21
527.1690333227677
31
523.7000200567892
  0
LINE
 8
Layer0
10
330.19304330066274
20
527.7940333227676
30
523.7000200567892
11
330.06816777253215
21
527.4925571291458
31
523.7000200567892
  0
LINE
 8
Layer0
10
330.39169157891007
20
528.052916799251
30
523.7000200567892
11
330.19304330066274
21
527.7940333227676
31
523.7000200567892
  0
LINE
 8
Layer0
10
330.650575055393
20
528.2515650774986
30
523.7000200567892
11
330.39169157891007
21
528.052916799251
31
523.7000200567892
  0
LINE
 8
Layer0
10
330.95205124901486
20
528.3764406056295
30
523.7000200567892
11
330.650575055393
21
528.2515650774986
31
523.7000200567892
  0
LINE
 8
Layer0
10
331.27557505539295
20
528.4190333227683
30
523.7000200567892
11
330.95205124901486
21
528.3764406056295
31
523.7000200567892
  0
LINE
 8
Layer0
10
331.5990988617711
20
528.3764406056298
30
523.7000200567892
11
331.27557505539295
21
528.4190333227683
31
523.7000200567892
  0
LINE
 8
Layer0
10
331.90057505539306
20
528.2515650774993
30
523.7000200567892
11
331.5990988617711
21
528.3764406056298
31
523.7000200567892
  0
LINE
 8
Layer0
10
332.1594585318763
20
528.0529167992521
30
523.7000200567892
11
331.90057505539306
21
528.2515650774993
31
523.7000200567892
  0
LINE
 8
Layer0
10
332.3581068101239
20
527.7940333227689
30
523.7000200567892
11
332.1594585318763
21
528.0529167992521
31
523.7000200567892
  0
LINE
 8
Layer0
10
332.4829823382548
20
527.4925571291473
30
523.7000200567892
11
332.3581068101239
21
527.7940333227689
31
523.7000200567892
  0
LINE
 8
Layer0
10
332.5255750553937
20
527.1690333227692
30
523.7000200567892
11
332.4829823382548
21
527.4925571291473
31
523.7000200567892
  0
LINE
 8
Layer0
10
332.4829823382552
20
526.8455095163911
30
523.7000200567892
11
332.5255750553937
21
527.1690333227692
31
523.7000200567892
  0
LINE
 8
Layer0
10
332.35810681012464
20
526.5440333227689
30
523.7000200567892
11
332.4829823382552
21
526.8455095163911
31
523.7000200567892
  0
LINE
 8
Layer0
10
332.1594585318773
20
526.2851498462857
30
523.7000200567892
11
332.35810681012464
21
526.5440333227689
31
523.7000200567892
  0
LINE
 8
Layer0
10
331.90057505539437
20
526.0865015680382
30
523.7000200567892
11
332.1594585318773
21
526.2851498462857
31
523.7000200567892
  0
LINE
 8
Layer0
10
331.5990988617726
20
525.9616260399072
30
523.7000200567892
11
331.90057505539437
21
526.0865015680382
31
523.7000200567892
  0
LINE
 8
Layer0
10
331.2755750553944
20
525.9190333227683
30
523.7000200567892
11
331.5990988617726
21
525.9616260399072
31
523.7000200567892
  0
LINE
 8
Layer0
10
330.95205124901634
20
525.9616260399068
30
523.7000200567892
11
331.2755750553944
21
525.9190333227683
31
523.7000200567892
  0
LINE
 8
Layer0
10
330.6505750553943
20
526.0865015680375
30
523.7000200567892
11
330.95205124901634
21
525.9616260399068
31
523.7000200567892
  0
LINE
 8
Layer0
10
330.3916915789111
20
526.2851498462846
30
523.7000200567892
11
330.6505750553943
21
526.0865015680375
31
523.7000200567892
  0
LINE
 8
Layer0
10
330.1930433006635
20
526.5440333227677
30
523.7000200567892
11
330.3916915789111
21
526.2851498462846
31
523.7000200567892
  0
LINE
 8
Layer0
10
330.0681677725326
20
526.8455095163896
30
523.7000200567892
11
330.1930433006635
21
526.5440333227677
31
523.7000200567892
  0
LINE
 8
Layer0
10
411.3055750553938
20
527.1690333229046
30
523.7000200567894
11
411.34816777253263
21
526.8455095165265
31
523.7000200567894
  0
LINE
 8
Layer0
10
411.3481677725323
20
527.4925571292828
30
523.7000200567894
11
411.3055750553938
21
527.1690333229046
31
523.7000200567894
  0
LINE
 8
Layer0
10
411.47304330066294
20
527.7940333229047
30
523.7000200567894
11
411.3481677725323
21
527.4925571292828
31
523.7000200567894
  0
LINE
 8
Layer0
10
411.67169157891004
20
528.0529167993882
30
523.7000200567894
11
411.47304330066294
21
527.7940333229047
31
523.7000200567894
  0
LINE
 8
Layer0
10
411.9305750553932
20
528.2515650776355
30
523.7000200567894
11
411.67169157891004
21
528.0529167993882
31
523.7000200567894
  0
LINE
 8
Layer0
10
412.23205124901483
20
528.3764406057666
30
523.7000200567894
11
411.9305750553932
21
528.2515650776355
31
523.7000200567894
  0
LINE
 8
Layer0
10
412.55557505539315
20
528.4190333229054
30
523.7000200567894
11
412.23205124901483
21
528.3764406057666
31
523.7000200567894
  0
LINE
 8
Layer0
10
412.8790988617713
20
528.376440605767
30
523.7000200567894
11
412.55557505539315
21
528.4190333229054
31
523.7000200567894
  0
LINE
 8
Layer0
10
413.1805750553931
20
528.2515650776363
30
523.7000200567894
11
412.8790988617713
21
528.376440605767
31
523.7000200567894
  0
LINE
 8
Layer0
10
413.4394585318764
20
528.0529167993892
30
523.7000200567894
11
413.1805750553931
21
528.2515650776363
31
523.7000200567894
  0
LINE
 8
Layer0
10
413.63810681012393
20
527.7940333229059
30
523.7000200567894
11
413.4394585318764
21
528.0529167993892
31
523.7000200567894
  0
LINE
 8
Layer0
10
413.7629823382549
20
527.4925571292841
30
523.7000200567894
11
413.63810681012393
21
527.7940333229059
31
523.7000200567894
  0
LINE
 8
Layer0
10
413.8055750553938
20
527.1690333229061
30
523.7000200567894
11
413.7629823382549
21
527.4925571292841
31
523.7000200567894
  0
LINE
 8
Layer0
10
413.7629823382553
20
526.845509516528
30
523.7000200567894
11
413.8055750553938
21
527.1690333229061
31
523.7000200567894
  0
LINE
 8
Layer0
10
413.6381068101246
20
526.544033322906
30
523.7000200567894
11
413.7629823382553
21
526.845509516528
31
523.7000200567894
  0
LINE
 8
Layer0
10
413.4394585318775
20
526.2851498464225
30
523.7000200567894
11
413.6381068101246
21
526.544033322906
31
523.7000200567894
  0
LINE
 8
Layer0
10
413.18057505539446
20
526.0865015681752
30
523.7000200567894
11
413.4394585318775
21
526.2851498464225
31
523.7000200567894
  0
LINE
 8
Layer0
10
412.8790988617727
20
525.9616260400442
30
523.7000200567894
11
413.18057505539446
21
526.0865015681752
31
523.7000200567894
  0
LINE
 8
Layer0
10
412.5555750553947
20
525.9190333229052
30
523.7000200567894
11
412.8790988617727
21
525.9616260400442
31
523.7000200567894
  0
LINE
 8
Layer0
10
412.2320512490163
20
525.9616260400437
30
523.7000200567894
11
412.5555750553947
21
525.9190333229052
31
523.7000200567894
  0
LINE
 8
Layer0
10
411.93057505539457
20
526.0865015681744
30
523.7000200567894
11
412.2320512490163
21
525.9616260400437
31
523.7000200567894
  0
LINE
 8
Layer0
10
411.6716915789111
20
526.2851498464216
30
523.7000200567894
11
411.93057505539457
21
526.0865015681744
31
523.7000200567894
  0
LINE
 8
Layer0
10
411.4730433006637
20
526.5440333229049
30
523.7000200567894
11
411.6716915789111
21
526.2851498464216
31
523.7000200567894
  0
LINE
 8
Layer0
10
411.34816777253263
20
526.8455095165265
30
523.7000200567894
11
411.4730433006637
21
526.5440333229049
31
523.7000200567894
  0
LINE
 8
Layer0
10
428.3855750554589
20
505.50236484174206
30
523.7000200567891
11
428.4622419463088
21
504.9200219902615
31
523.7000200567891
  0
LINE
 8
Layer0
10
428.4622419463082
20
506.0847076932228
30
523.7000200567891
11
428.3855750554589
21
505.50236484174206
31
523.7000200567891
  0
LINE
 8
Layer0
10
428.68701789694325
20
506.62736484174224
30
523.7000200567891
11
428.4622419463082
21
506.0847076932228
31
523.7000200567891
  0
LINE
 8
Layer0
10
429.04458479778816
20
507.09335509941224
30
523.7000200567891
11
428.68701789694325
21
506.62736484174224
31
523.7000200567891
  0
LINE
 8
Layer0
10
429.51057505545776
20
507.4509220002578
30
523.7000200567891
11
429.04458479778816
21
507.09335509941224
31
523.7000200567891
  0
LINE
 8
Layer0
10
430.053232203977
20
507.6756979508935
30
523.7000200567891
11
429.51057505545776
21
507.4509220002578
31
523.7000200567891
  0
LINE
 8
Layer0
10
430.6355750554575
20
507.75236484174343
30
523.7000200567891
11
430.053232203977
21
507.6756979508935
31
523.7000200567891
  0
LINE
 8
Layer0
10
431.21791790693834
20
507.67569795089423
30
523.7000200567891
11
430.6355750554575
21
507.75236484174343
31
523.7000200567891
  0
LINE
 8
Layer0
10
431.76057505545776
20
507.4509220002591
30
523.7000200567891
11
431.21791790693834
21
507.67569795089423
31
523.7000200567891
  0
LINE
 8
Layer0
10
432.22656531312776
20
507.0933550994141
30
523.7000200567891
11
431.76057505545776
21
507.4509220002591
31
523.7000200567891
  0
LINE
 8
Layer0
10
432.58413221397336
20
506.6273648417446
30
523.7000200567891
11
432.22656531312776
21
507.0933550994141
31
523.7000200567891
  0
LINE
 8
Layer0
10
432.80890816460914
20
506.0847076932254
30
523.7000200567891
11
432.58413221397336
21
506.6273648417446
31
523.7000200567891
  0
LINE
 8
Layer0
10
432.88557505545896
20
505.5023648417448
30
523.7000200567891
11
432.80890816460914
21
506.0847076932254
31
523.7000200567891
  0
LINE
 8
Layer0
10
432.80890816460965
20
504.92002199026405
30
523.7000200567891
11
432.88557505545896
21
505.5023648417448
31
523.7000200567891
  0
LINE
 8
Layer0
10
432.5841322139746
20
504.37736484174457
30
523.7000200567891
11
432.80890816460965
21
504.92002199026405
31
523.7000200567891
  0
LINE
 8
Layer0
10
432.2265653131297
20
503.9113745840746
30
523.7000200567891
11
432.5841322139746
21
504.37736484174457
31
523.7000200567891
  0
LINE
 8
Layer0
10
431.76057505546015
20
503.5538076832291
30
523.7000200567891
11
432.2265653131297
21
503.9113745840746
31
523.7000200567891
  0
LINE
 8
Layer0
10
431.21791790694084
20
503.3290317325933
30
523.7000200567891
11
431.76057505546015
21
503.5538076832291
31
523.7000200567891
  0
LINE
 8
Layer0
10
430.6355750554602
20
503.2523648417434
30
523.7000200567891
11
431.21791790694084
21
503.3290317325933
31
523.7000200567891
  0
LINE
 8
Layer0
10
430.0532322039795
20
503.3290317325926
30
523.7000200567891
11
430.6355750554602
21
503.2523648417434
31
523.7000200567891
  0
LINE
 8
Layer0
10
429.5105750554601
20
503.5538076832277
30
523.7000200567891
11
430.0532322039795
21
503.3290317325926
31
523.7000200567891
  0
LINE
 8
Layer0
10
429.04458479779015
20
503.91137458407275
30
523.7000200567891
11
429.5105750554601
21
503.5538076832277
31
523.7000200567891
  0
LINE
 8
Layer0
10
428.6870178969445
20
504.37736484174224
30
523.7000200567891
11
429.04458479779015
21
503.91137458407275
31
523.7000200567891
  0
LINE
 8
Layer0
10
428.4622419463088
20
504.9200219902615
30
523.7000200567891
11
428.6870178969445
21
504.37736484174224
31
523.7000200567891
  0
LINE
 8
Layer0
10
406.5290988618541
20
477.7016260400335
30
523.7000200567892
11
406.8305750554758
21
477.8265015681645
31
523.7000200567892
  0
LINE
 8
Layer0
10
406.20557505547583
20
477.65903332289463
30
523.7000200567892
11
406.5290988618541
21
477.7016260400335
31
523.7000200567892
  0
LINE
 8
Layer0
10
405.8820512490977
20
477.70162604003315
30
523.7000200567892
11
406.20557505547583
21
477.65903332289463
31
523.7000200567892
  0
LINE
 8
Layer0
10
405.5805750554759
20
477.8265015681638
30
523.7000200567892
11
405.8820512490977
21
477.70162604003315
31
523.7000200567892
  0
LINE
 8
Layer0
10
405.3216915789925
20
478.0251498464109
30
523.7000200567892
11
405.5805750554759
21
477.8265015681638
31
523.7000200567892
  0
LINE
 8
Layer0
10
405.12304330074505
20
478.28403332289406
30
523.7000200567892
11
405.3216915789925
21
478.0251498464109
31
523.7000200567892
  0
LINE
 8
Layer0
10
404.99816777261407
20
478.58550951651586
30
523.7000200567892
11
405.12304330074505
21
478.28403332289406
31
523.7000200567892
  0
LINE
 8
Layer0
10
404.95557505547515
20
478.909033322894
30
523.7000200567892
11
404.99816777261407
21
478.58550951651586
31
523.7000200567892
  0
LINE
 8
Layer0
10
404.9981677726136
20
479.2325571292721
30
523.7000200567892
11
404.95557505547515
21
478.909033322894
31
523.7000200567892
  0
LINE
 8
Layer0
10
405.1230433007443
20
479.5340333228941
30
523.7000200567892
11
404.9981677726136
21
479.2325571292721
31
523.7000200567892
  0
LINE
 8
Layer0
10
405.3216915789914
20
479.7929167993773
30
523.7000200567892
11
405.1230433007443
21
479.5340333228941
31
523.7000200567892
  0
LINE
 8
Layer0
10
405.5805750554746
20
479.99156507762495
30
523.7000200567892
11
405.3216915789914
21
479.7929167993773
31
523.7000200567892
  0
LINE
 8
Layer0
10
405.8820512490962
20
480.11644060575577
30
523.7000200567892
11
405.5805750554746
21
479.99156507762495
31
523.7000200567892
  0
LINE
 8
Layer0
10
406.2055750554743
20
480.15903332289463
30
523.7000200567892
11
405.8820512490962
21
480.11644060575577
31
523.7000200567892
  0
LINE
 8
Layer0
10
406.5290988618527
20
480.1164406057561
30
523.7000200567892
11
406.2055750554743
21
480.15903332289463
31
523.7000200567892
  0
LINE
 8
Layer0
10
406.8305750554744
20
479.99156507762564
30
523.7000200567892
11
406.5290988618527
21
480.1164406057561
31
523.7000200567892
  0
LINE
 8
Layer0
10
407.08945853195786
20
479.79291679937836
30
523.7000200567892
11
406.8305750554744
21
479.99156507762564
31
523.7000200567892
  0
LINE
 8
Layer0
10
407.2881068102053
20
479.5340333228952
30
523.7000200567892
11
407.08945853195786
21
479.79291679937836
31
523.7000200567892
  0
LINE
 8
Layer0
10
407.4129823383363
20
479.2325571292736
30
523.7000200567892
11
407.2881068102053
21
479.5340333228952
31
523.7000200567892
  0
LINE
 8
Layer0
10
407.45557505547515
20
478.90903332289554
30
523.7000200567892
11
407.4129823383363
21
479.2325571292736
31
523.7000200567892
  0
LINE
 8
Layer0
10
407.4129823383367
20
478.58550951651733
30
523.7000200567892
11
407.45557505547515
21
478.90903332289554
31
523.7000200567892
  0
LINE
 8
Layer0
10
407.28810681020605
20
478.2840333228953
30
523.7000200567892
11
407.4129823383367
21
478.58550951651733
31
523.7000200567892
  0
LINE
 8
Layer0
10
407.08945853195894
20
478.025149846412
30
523.7000200567892
11
407.28810681020605
21
478.2840333228953
31
523.7000200567892
  0
LINE
 8
Layer0
10
406.8305750554758
20
477.8265015681645
30
523.7000200567892
11
407.08945853195894
21
478.025149846412
31
523.7000200567892
  0
LINE
 8
Layer0
10
576.6355750553946
20
255.75236484161104
30
523.7000200567892
11
576.2948333182853
21
253.16417439058583
31
523.7000200567892
  0
LINE
 8
Layer0
10
576.2948333182853
20
253.16417439058583
30
523.7000200567892
11
575.2958290932389
21
250.75236484161104
31
523.7000200567892
  0
LINE
 8
Layer0
10
571.6355750553946
20
247.09211080376664
30
523.7000200567892
11
569.2237655064198
21
246.09310657872038
31
523.7000200567892
  0
LINE
 8
Layer0
10
569.2237655064198
20
246.09310657872038
30
523.7000200567892
11
566.6355750553946
21
245.75236484161104
31
523.7000200567892
  0
LINE
 8
Layer0
10
566.6355750553946
20
245.75236484161104
30
523.7000200567892
11
564.0473846043694
21
246.09310657872038
31
523.7000200567892
  0
LINE
 8
Layer0
10
564.0473846043694
20
246.09310657872038
30
523.7000200567892
11
561.6355750553947
21
247.09211080376664
31
523.7000200567892
  0
LINE
 8
Layer0
10
561.6355750553947
20
247.09211080376664
30
523.7000200567892
11
559.5645072435291
21
248.6812970297456
31
523.7000200567892
  0
LINE
 8
Layer0
10
559.5645072435291
20
248.6812970297456
30
523.7000200567892
11
557.9753210175503
21
250.75236484161104
31
523.7000200567892
  0
LINE
 8
Layer0
10
557.9753210175503
20
250.75236484161104
30
523.7000200567892
11
556.976316792504
21
253.16417439058583
31
523.7000200567892
  0
LINE
 8
Layer0
10
556.976316792504
20
253.16417439058583
30
523.7000200567892
11
556.6355750553946
21
255.75236484161104
31
523.7000200567892
  0
LINE
 8
Layer0
10
556.6355750553946
20
255.75236484161104
30
523.7000200567892
11
556.976316792504
21
258.3405552926362
31
523.7000200567892
  0
LINE
 8
Layer0
10
556.976316792504
20
258.3405552926362
30
523.7000200567892
11
557.9753210175503
21
260.75236484161104
31
523.7000200567892
  0
LINE
 8
Layer0
10
557.9753210175503
20
260.75236484161104
30
523.7000200567892
11
559.5645072435291
21
262.82343265347646
31
523.7000200567892
  0
LINE
 8
Layer0
10
559.5645072435291
20
262.82343265347646
30
523.7000200567892
11
561.6355750553946
21
264.4126188794554
31
523.7000200567892
  0
LINE
 8
Layer0
10
561.6355750553946
20
264.4126188794554
30
523.7000200567892
11
564.0473846043694
21
265.4116231045017
31
523.7000200567892
  0
LINE
 8
Layer0
10
564.0473846043694
20
265.4116231045017
30
523.7000200567892
11
566.6355750553946
21
265.75236484161104
31
523.7000200567892
  0
LINE
 8
Layer0
10
566.6355750553946
20
265.75236484161104
30
523.7000200567892
11
569.2237655064198
21
265.4116231045017
31
523.7000200567892
  0
LINE
 8
Layer0
10
569.2237655064198
20
265.4116231045017
30
523.7000200567892
11
571.6355750553946
21
264.4126188794554
31
523.7000200567892
  0
LINE
 8
Layer0
10
571.6355750553946
20
264.4126188794554
30
523.7000200567892
11
573.7066428672601
21
262.82343265347646
31
523.7000200567892
  0
LINE
 8
Layer0
10
573.7066428672601
20
262.82343265347646
30
523.7000200567892
11
575.2958290932389
21
260.75236484161104
31
523.7000200567892
  0
LINE
 8
Layer0
10
575.2958290932389
20
260.75236484161104
30
523.7000200567892
11
576.2948333182853
21
258.3405552926362
31
523.7000200567892
  0
LINE
 8
Layer0
10
576.2948333182853
20
258.3405552926362
30
523.7000200567892
11
576.6355750553946
21
255.75236484161104
31
523.7000200567892
  0
LINE
 8
Layer0
10
233.63557505539455
20
247.09211080376664
30
523.7000200567892
11
236.04738460436934
21
246.09310657872038
31
523.7000200567892
  0
LINE
 8
Layer0
10
236.04738460436934
20
246.09310657872038
30
523.7000200567892
11
238.63557505539455
21
245.75236484161104
31
523.7000200567892
  0
LINE
 8
Layer0
10
238.63557505539455
20
245.75236484161104
30
523.7000200567892
11
241.22376550641974
21
246.09310657872038
31
523.7000200567892
  0
LINE
 8
Layer0
10
241.22376550641974
20
246.09310657872038
30
523.7000200567892
11
243.33592416928101
21
246.9679913427613
31
523.7000200567892
  0
LINE
 8
Layer0
10
243.63557505539453
20
247.09211080376664
30
523.7000200567892
11
245.70664286726
21
248.6812970297456
31
523.7000200567892
  0
LINE
 8
Layer0
10
245.70664286726
20
248.6812970297456
30
523.7000200567892
11
247.29582909323892
21
250.75236484161104
31
523.7000200567892
  0
LINE
 8
Layer0
10
247.29582909323892
20
250.75236484161104
30
523.7000200567892
11
248.29483331828519
21
253.16417439058583
31
523.7000200567892
  0
LINE
 8
Layer0
10
248.29483331828519
20
253.16417439058583
30
523.7000200567892
11
248.63557505539453
21
255.75236484161104
31
523.7000200567892
  0
LINE
 8
Layer0
10
248.63557505539453
20
255.75236484161104
30
523.7000200567892
11
248.29483331828519
21
258.3405552926362
31
523.7000200567892
  0
LINE
 8
Layer0
10
248.29483331828519
20
258.3405552926362
30
523.7000200567892
11
247.29582909323892
21
260.75236484161104
31
523.7000200567892
  0
LINE
 8
Layer0
10
247.29582909323892
20
260.75236484161104
30
523.7000200567892
11
245.70664286726
21
262.82343265347646
31
523.7000200567892
  0
LINE
 8
Layer0
10
245.70664286726
20
262.82343265347646
30
523.7000200567892
11
243.63557505539453
21
264.4126188794554
31
523.7000200567892
  0
LINE
 8
Layer0
10
243.63557505539453
20
264.4126188794554
30
523.7000200567892
11
241.22376550641974
21
265.4116231045017
31
523.7000200567892
  0
LINE
 8
Layer0
10
241.22376550641974
20
265.4116231045017
30
523.7000200567892
11
238.63557505539455
21
265.75236484161104
31
523.7000200567892
  0
LINE
 8
Layer0
10
238.63557505539455
20
265.75236484161104
30
523.7000200567892
11
236.04738460436934
21
265.4116231045017
31
523.7000200567892
  0
LINE
 8
Layer0
10
236.04738460436934
20
265.4116231045017
30
523.7000200567892
11
233.63557505539455
21
264.4126188794554
31
523.7000200567892
  0
LINE
 8
Layer0
10
233.63557505539455
20
264.4126188794554
30
523.7000200567892
11
231.5645072435291
21
262.82343265347646
31
523.7000200567892
  0
LINE
 8
Layer0
10
231.5645072435291
20
262.82343265347646
30
523.7000200567892
11
229.97532101755016
21
260.75236484161104
31
523.7000200567892
  0
LINE
 8
Layer0
10
229.97532101755016
20
260.75236484161104
30
523.7000200567892
11
229.85120155654482
21
260.45271395549753
31
523.7000200567892
  0
LINE
 8
Layer0
10
243.33592416928101
20
246.9679913427613
30
523.7000200567892
11
243.63557505539453
21
247.09211080376664
31
523.7000200567892
  0
LINE
 8
Layer0
10
228.9763167925039
20
253.16417439058583
30
523.7000200567892
11
229.97532101755016
21
250.75236484161104
31
523.7000200567892
  0
LINE
 8
Layer0
10
228.63557505539455
20
255.75236484161104
30
523.7000200567892
11
228.9763167925039
21
253.16417439058583
31
523.7000200567892
  0
LINE
 8
Layer0
10
228.9763167925039
20
258.3405552926362
30
523.7000200567892
11
228.63557505539455
21
255.75236484161104
31
523.7000200567892
  0
LINE
 8
Layer0
10
229.85120155654482
20
260.45271395549753
30
523.7000200567892
11
228.9763167925039
21
258.3405552926362
31
523.7000200567892
 0
ENDSEC
 0
EOF
