 0
SECTION
 2
ENTITIES
  0
POLYLINE
 8
Layer0
 66
     1
70
    8
 10
0.0
 20
 0.0
 30
0.0
  0
VERTEX
  8
MY3DLAYER
10
0.0
20
0.0
30
1.8047785488306544e-13
 70
     32
  0
VERTEX
  8
MY3DLAYER
10
0.0
20
52.36000000000002
30
1.8047785488306544e-13
 70
     32
  0
VERTEX
  8
MY3DLAYER
10
4.892793641318113
20
52.36000000000002
30
1.8047785488306544e-13
 70
     32
  0
VERTEX
  8
MY3DLAYER
10
4.939339828220188
20
52.29933982822026
30
1.8047785488306544e-13
 70
     32
  0
VERTEX
  8
MY3DLAYER
10
5.250000000000024
20
52.06096189432339
30
1.8047785488306544e-13
 70
     32
  0
VERTEX
  8
MY3DLAYER
10
5.611771432346233
20
51.911111260566464
30
1.8047785488306544e-13
 70
     32
  0
VERTEX
  8
MY3DLAYER
10
6.000000000000034
20
51.86000000000004
30
1.8047785488306544e-13
 70
     32
  0
VERTEX
  8
MY3DLAYER
10
6.388228567653835
20
51.911111260566464
30
1.8047785488306544e-13
 70
     32
  0
VERTEX
  8
MY3DLAYER
10
6.750000000000044
20
52.06096189432339
30
1.8047785488306544e-13
 70
     32
  0
VERTEX
  8
MY3DLAYER
10
7.0606601717798805
20
52.29933982822026
30
1.8047785488306544e-13
 70
     32
  0
VERTEX
  8
MY3DLAYER
10
7.1072063586819105
20
52.36000000000002
30
1.8047785488306544e-13
 70
     32
  0
VERTEX
  8
MY3DLAYER
10
18.39279364131811
20
52.36000000000002
30
3.6095570976613087e-13
 70
     32
  0
VERTEX
  8
MY3DLAYER
10
18.439339828220184
20
52.29933982822026
30
3.6095570976613087e-13
 70
     32
  0
VERTEX
  8
MY3DLAYER
10
18.75000000000002
20
52.06096189432339
30
3.6095570976613087e-13
 70
     32
  0
VERTEX
  8
MY3DLAYER
10
19.11177143234623
20
51.911111260566464
30
3.6095570976613087e-13
 70
     32
  0
VERTEX
  8
MY3DLAYER
10
19.500000000000032
20
51.86000000000004
30
3.6095570976613087e-13
 70
     32
  0
VERTEX
  8
MY3DLAYER
10
19.888228567653833
20
51.911111260566464
30
3.6095570976613087e-13
 70
     32
  0
VERTEX
  8
MY3DLAYER
10
20.250000000000043
20
52.06096189432339
30
3.6095570976613087e-13
 70
     32
  0
VERTEX
  8
MY3DLAYER
10
20.56066017177988
20
52.29933982822026
30
3.6095570976613087e-13
 70
     32
  0
VERTEX
  8
MY3DLAYER
10
20.607206358681953
20
52.36000000000002
30
3.6095570976613087e-13
 70
     32
  0
VERTEX
  8
MY3DLAYER
10
57.892793641317205
20
52.36000000000002
30
7.219114195322617e-13
 70
     32
  0
VERTEX
  8
MY3DLAYER
10
57.93933982821923
20
52.29933982822026
30
7.219114195322617e-13
 70
     32
  0
VERTEX
  8
MY3DLAYER
10
58.24999999999907
20
52.06096189432339
30
7.219114195322617e-13
 70
     32
  0
VERTEX
  8
MY3DLAYER
10
58.61177143234528
20
51.911111260566464
30
7.219114195322617e-13
 70
     32
  0
VERTEX
  8
MY3DLAYER
10
58.999999999999076
20
51.86000000000004
30
7.219114195322617e-13
 70
     32
  0
VERTEX
  8
MY3DLAYER
10
59.38822856765288
20
51.911111260566464
30
7.219114195322617e-13
 70
     32
  0
VERTEX
  8
MY3DLAYER
10
59.74999999999909
20
52.06096189432339
30
7.219114195322617e-13
 70
     32
  0
VERTEX
  8
MY3DLAYER
10
60.06066017177893
20
52.29933982822026
30
7.219114195322617e-13
 70
     32
  0
VERTEX
  8
MY3DLAYER
10
60.107206358681
20
52.36000000000002
30
7.219114195322617e-13
 70
     32
  0
VERTEX
  8
MY3DLAYER
10
71.39279364132004
20
52.36000000000002
30
3.6095570976613087e-13
 70
     32
  0
VERTEX
  8
MY3DLAYER
10
71.43933982822207
20
52.29933982822026
30
3.6095570976613087e-13
 70
     32
  0
VERTEX
  8
MY3DLAYER
10
71.7500000000019
20
52.06096189432339
30
3.6095570976613087e-13
 70
     32
  0
VERTEX
  8
MY3DLAYER
10
72.11177143234812
20
51.911111260566464
30
3.6095570976613087e-13
 70
     32
  0
VERTEX
  8
MY3DLAYER
10
72.50000000000192
20
51.86000000000004
30
3.6095570976613087e-13
 70
     32
  0
VERTEX
  8
MY3DLAYER
10
72.88822856765572
20
51.911111260566464
30
3.6095570976613087e-13
 70
     32
  0
VERTEX
  8
MY3DLAYER
10
73.25000000000193
20
52.06096189432339
30
3.6095570976613087e-13
 70
     32
  0
VERTEX
  8
MY3DLAYER
10
73.56066017178176
20
52.29933982822026
30
3.6095570976613087e-13
 70
     32
  0
VERTEX
  8
MY3DLAYER
10
73.6072063586838
20
52.36000000000002
30
3.6095570976613087e-13
 70
     32
  0
VERTEX
  8
MY3DLAYER
10
78.50000000000001
20
52.36000000000002
30
1.8047785488306544e-13
 70
     32
  0
VERTEX
  8
MY3DLAYER
10
78.50000000000001
20
0.0
30
1.8047785488306544e-13
 70
     32
  0
VERTEX
  8
MY3DLAYER
10
73.6072063586838
20
0.0
30
1.8047785488306544e-13
 70
     32
  0
VERTEX
  8
MY3DLAYER
10
73.56066017178176
20
0.06066017177975808
30
1.8047785488306544e-13
 70
     32
  0
VERTEX
  8
MY3DLAYER
10
73.25000000000193
20
0.2990381056766296
30
1.8047785488306544e-13
 70
     32
  0
VERTEX
  8
MY3DLAYER
10
72.88822856765572
20
0.44888873943355917
30
1.8047785488306544e-13
 70
     32
  0
VERTEX
  8
MY3DLAYER
10
72.50000000000192
20
0.4999999999999765
30
1.8047785488306544e-13
 70
     32
  0
VERTEX
  8
MY3DLAYER
10
72.11177143234812
20
0.44888873943355917
30
1.8047785488306544e-13
 70
     32
  0
VERTEX
  8
MY3DLAYER
10
71.7500000000019
20
0.2990381056766296
30
1.8047785488306544e-13
 70
     32
  0
VERTEX
  8
MY3DLAYER
10
71.43933982822207
20
0.06066017177975808
30
1.8047785488306544e-13
 70
     32
  0
VERTEX
  8
MY3DLAYER
10
71.39279364132004
20
0.0
30
1.8047785488306544e-13
 70
     32
  0
VERTEX
  8
MY3DLAYER
10
60.107206358681
20
0.0
30
1.8047785488306544e-13
 70
     32
  0
VERTEX
  8
MY3DLAYER
10
60.06066017177893
20
0.06066017177975808
30
1.8047785488306544e-13
 70
     32
  0
VERTEX
  8
MY3DLAYER
10
59.74999999999909
20
0.2990381056766296
30
1.8047785488306544e-13
 70
     32
  0
VERTEX
  8
MY3DLAYER
10
59.38822856765288
20
0.44888873943355917
30
1.8047785488306544e-13
 70
     32
  0
VERTEX
  8
MY3DLAYER
10
58.999999999999076
20
0.4999999999999765
30
1.8047785488306544e-13
 70
     32
  0
VERTEX
  8
MY3DLAYER
10
58.61177143234528
20
0.44888873943355917
30
1.8047785488306544e-13
 70
     32
  0
VERTEX
  8
MY3DLAYER
10
58.24999999999907
20
0.2990381056766296
30
1.8047785488306544e-13
 70
     32
  0
VERTEX
  8
MY3DLAYER
10
57.93933982821923
20
0.06066017177975808
30
1.8047785488306544e-13
 70
     32
  0
VERTEX
  8
MY3DLAYER
10
57.892793641317205
20
0.0
30
1.8047785488306544e-13
 70
     32
  0
VERTEX
  8
MY3DLAYER
10
20.607206358681907
20
0.0
30
1.8047785488306544e-13
 70
     32
  0
VERTEX
  8
MY3DLAYER
10
20.56066017177988
20
0.06066017177975808
30
1.8047785488306544e-13
 70
     32
  0
VERTEX
  8
MY3DLAYER
10
20.250000000000043
20
0.2990381056766296
30
1.8047785488306544e-13
 70
     32
  0
VERTEX
  8
MY3DLAYER
10
19.888228567653833
20
0.44888873943355917
30
1.8047785488306544e-13
 70
     32
  0
VERTEX
  8
MY3DLAYER
10
19.500000000000032
20
0.4999999999999765
30
1.8047785488306544e-13
 70
     32
  0
VERTEX
  8
MY3DLAYER
10
19.11177143234623
20
0.44888873943355917
30
1.8047785488306544e-13
 70
     32
  0
VERTEX
  8
MY3DLAYER
10
18.75000000000002
20
0.2990381056766296
30
1.8047785488306544e-13
 70
     32
  0
VERTEX
  8
MY3DLAYER
10
18.439339828220184
20
0.06066017177975808
30
1.8047785488306544e-13
 70
     32
  0
VERTEX
  8
MY3DLAYER
10
18.39279364131811
20
0.0
30
1.8047785488306544e-13
 70
     32
  0
VERTEX
  8
MY3DLAYER
10
7.1072063586819105
20
0.0
30
1.8047785488306544e-13
 70
     32
  0
VERTEX
  8
MY3DLAYER
10
7.0606601717798805
20
0.06066017177975808
30
1.8047785488306544e-13
 70
     32
  0
VERTEX
  8
MY3DLAYER
10
6.750000000000044
20
0.2990381056766296
30
1.8047785488306544e-13
 70
     32
  0
VERTEX
  8
MY3DLAYER
10
6.388228567653835
20
0.44888873943355917
30
1.8047785488306544e-13
 70
     32
  0
VERTEX
  8
MY3DLAYER
10
6.000000000000034
20
0.4999999999999765
30
1.8047785488306544e-13
 70
     32
  0
VERTEX
  8
MY3DLAYER
10
5.611771432346233
20
0.44888873943355917
30
1.8047785488306544e-13
 70
     32
  0
VERTEX
  8
MY3DLAYER
10
5.250000000000024
20
0.2990381056766296
30
1.8047785488306544e-13
 70
     32
  0
VERTEX
  8
MY3DLAYER
10
4.939339828220188
20
0.06066017177975808
30
1.8047785488306544e-13
 70
     32
  0
VERTEX
  8
MY3DLAYER
10
4.892793641318158
20
0.0
30
1.8047785488306544e-13
 70
     32
  0
VERTEX
  8
MY3DLAYER
10
0.0
20
0.0
30
1.8047785488306544e-13
 70
     32
  0
SEQEND
  0
POLYLINE
 8
Layer0
 66
     1
70
    8
 10
0.0
 20
 0.0
 30
0.0
  0
VERTEX
  8
MY3DLAYER
10
55.99999999999908
20
40.50038432003283
30
1.8047785488306544e-13
 70
     32
  0
VERTEX
  8
MY3DLAYER
10
75.50000000000192
20
40.50038432003283
30
1.8047785488306544e-13
 70
     32
  0
VERTEX
  8
MY3DLAYER
10
75.50000000000192
20
49.35803518948802
30
1.8047785488306544e-13
 70
     32
  0
VERTEX
  8
MY3DLAYER
10
55.99999999999908
20
49.35803518948802
30
1.8047785488306544e-13
 70
     32
  0
VERTEX
  8
MY3DLAYER
10
55.99999999999908
20
40.50038432003283
30
1.8047785488306544e-13
 70
     32
  0
SEQEND
  0
POLYLINE
 8
Layer0
 66
     1
70
    8
 10
0.0
 20
 0.0
 30
0.0
  0
VERTEX
  8
MY3DLAYER
10
55.99999999999908
20
3.0000000000000395
30
1.8047785488306544e-13
 70
     32
  0
VERTEX
  8
MY3DLAYER
10
75.50000000000192
20
3.0000000000000395
30
1.8047785488306544e-13
 70
     32
  0
VERTEX
  8
MY3DLAYER
10
75.50000000000192
20
11.860000000000028
30
1.8047785488306544e-13
 70
     32
  0
VERTEX
  8
MY3DLAYER
10
55.99999999999908
20
11.860000000000028
30
1.8047785488306544e-13
 70
     32
  0
VERTEX
  8
MY3DLAYER
10
55.99999999999908
20
3.0000000000000395
30
1.8047785488306544e-13
 70
     32
  0
SEQEND
  0
POLYLINE
 8
Layer0
 66
     1
70
    8
 10
0.0
 20
 0.0
 30
0.0
  0
VERTEX
  8
MY3DLAYER
10
3.0000000000000395
20
11.860000000000028
30
1.8047785488306544e-13
 70
     32
  0
VERTEX
  8
MY3DLAYER
10
3.0000000000000395
20
3.0000000000000395
30
1.8047785488306544e-13
 70
     32
  0
VERTEX
  8
MY3DLAYER
10
22.500000000000025
20
3.0000000000000395
30
1.8047785488306544e-13
 70
     32
  0
VERTEX
  8
MY3DLAYER
10
22.500000000000025
20
11.860000000000028
30
1.8047785488306544e-13
 70
     32
  0
VERTEX
  8
MY3DLAYER
10
3.0000000000000395
20
11.860000000000028
30
1.8047785488306544e-13
 70
     32
  0
SEQEND
  0
POLYLINE
 8
Layer0
 66
     1
70
    8
 10
0.0
 20
 0.0
 30
0.0
  0
VERTEX
  8
MY3DLAYER
10
3.0000000000000395
20
40.50038432003283
30
1.8047785488306544e-13
 70
     32
  0
VERTEX
  8
MY3DLAYER
10
22.500000000000025
20
40.50038432003283
30
1.8047785488306544e-13
 70
     32
  0
VERTEX
  8
MY3DLAYER
10
22.500000000000025
20
49.35803518948802
30
1.8047785488306544e-13
 70
     32
  0
VERTEX
  8
MY3DLAYER
10
3.0000000000000395
20
49.35803518948802
30
1.8047785488306544e-13
 70
     32
  0
VERTEX
  8
MY3DLAYER
10
3.0000000000000395
20
40.50038432003283
30
1.8047785488306544e-13
 70
     32
  0
SEQEND
  0
POLYLINE
 8
Layer0
 66
     1
70
    8
 10
0.0
 20
 0.0
 30
0.0
  0
VERTEX
  8
MY3DLAYER
10
54.25000000000002
20
33.16000000000005
30
1.8047785488306544e-13
 70
     32
  0
VERTEX
  8
MY3DLAYER
10
46.24999999999999
20
40.16
30
1.8047785488306544e-13
 70
     32
  0
VERTEX
  8
MY3DLAYER
10
32.25000000000002
20
40.16
30
1.8047785488306544e-13
 70
     32
  0
VERTEX
  8
MY3DLAYER
10
24.24999999999999
20
33.16000000000005
30
1.8047785488306544e-13
 70
     32
  0
VERTEX
  8
MY3DLAYER
10
24.24999999999999
20
19.159999999999993
30
1.8047785488306544e-13
 70
     32
  0
VERTEX
  8
MY3DLAYER
10
32.25000000000002
20
12.16000000000005
30
1.8047785488306544e-13
 70
     32
  0
VERTEX
  8
MY3DLAYER
10
46.24999999999999
20
12.16000000000005
30
1.8047785488306544e-13
 70
     32
  0
VERTEX
  8
MY3DLAYER
10
54.25000000000002
20
19.159999999999993
30
1.8047785488306544e-13
 70
     32
  0
VERTEX
  8
MY3DLAYER
10
54.25000000000002
20
33.16000000000005
30
1.8047785488306544e-13
 70
     32
  0
SEQEND
  0
POLYLINE
 8
Layer0
 66
     1
70
    8
 10
0.0
 20
 0.0
 30
0.0
  0
VERTEX
  8
MY3DLAYER
10
4.939339828220143
20
38.561044491812595
30
1.8047785488306544e-13
 70
     32
  0
VERTEX
  8
MY3DLAYER
10
4.700961894323316
20
38.2503843200328
30
1.8047785488306544e-13
 70
     32
  0
VERTEX
  8
MY3DLAYER
10
4.551111260566387
20
37.88861288768659
30
1.8047785488306544e-13
 70
     32
  0
VERTEX
  8
MY3DLAYER
10
4.499999999999969
20
37.50038432003279
30
1.8047785488306544e-13
 70
     32
  0
VERTEX
  8
MY3DLAYER
10
4.551111260566387
20
37.11215575237899
30
1.8047785488306544e-13
 70
     32
  0
VERTEX
  8
MY3DLAYER
10
4.700961894323316
20
36.750384320032786
30
1.8047785488306544e-13
 70
     32
  0
VERTEX
  8
MY3DLAYER
10
4.939339828220143
20
36.43972414825299
30
1.8047785488306544e-13
 70
     32
  0
VERTEX
  8
MY3DLAYER
10
5.249999999999979
20
36.20134621435612
30
1.8047785488306544e-13
 70
     32
  0
VERTEX
  8
MY3DLAYER
10
5.611771432346188
20
36.05149558059919
30
1.8047785488306544e-13
 70
     32
  0
VERTEX
  8
MY3DLAYER
10
5.999999999999989
20
36.00038432003277
30
1.8047785488306544e-13
 70
     32
  0
VERTEX
  8
MY3DLAYER
10
6.38822856765379
20
36.05149558059919
30
1.8047785488306544e-13
 70
     32
  0
VERTEX
  8
MY3DLAYER
10
6.749999999999999
20
36.20134621435612
30
1.8047785488306544e-13
 70
     32
  0
VERTEX
  8
MY3DLAYER
10
7.060660171779835
20
36.43972414825299
30
1.8047785488306544e-13
 70
     32
  0
VERTEX
  8
MY3DLAYER
10
7.299038105676662
20
36.750384320032786
30
1.8047785488306544e-13
 70
     32
  0
VERTEX
  8
MY3DLAYER
10
7.448888739433592
20
37.11215575237899
30
1.8047785488306544e-13
 70
     32
  0
VERTEX
  8
MY3DLAYER
10
7.500000000000009
20
37.50038432003279
30
1.8047785488306544e-13
 70
     32
  0
VERTEX
  8
MY3DLAYER
10
7.448888739433592
20
37.88861288768659
30
1.8047785488306544e-13
 70
     32
  0
VERTEX
  8
MY3DLAYER
10
7.299038105676662
20
38.2503843200328
30
1.8047785488306544e-13
 70
     32
  0
VERTEX
  8
MY3DLAYER
10
7.060660171779835
20
38.561044491812595
30
1.8047785488306544e-13
 70
     32
  0
VERTEX
  8
MY3DLAYER
10
6.749999999999999
20
38.799422425709466
30
1.8047785488306544e-13
 70
     32
  0
VERTEX
  8
MY3DLAYER
10
6.38822856765379
20
38.94927305946639
30
1.8047785488306544e-13
 70
     32
  0
VERTEX
  8
MY3DLAYER
10
5.999999999999989
20
39.000384320032815
30
1.8047785488306544e-13
 70
     32
  0
VERTEX
  8
MY3DLAYER
10
5.611771432346188
20
38.94927305946639
30
1.8047785488306544e-13
 70
     32
  0
VERTEX
  8
MY3DLAYER
10
5.249999999999979
20
38.799422425709466
30
1.8047785488306544e-13
 70
     32
  0
VERTEX
  8
MY3DLAYER
10
4.939339828220143
20
38.561044491812595
30
1.8047785488306544e-13
 70
     32
  0
SEQEND
  0
POLYLINE
 8
Layer0
 66
     1
70
    8
 10
0.0
 20
 0.0
 30
0.0
  0
VERTEX
  8
MY3DLAYER
10
4.939339828220143
20
15.920660171779868
30
1.8047785488306544e-13
 70
     32
  0
VERTEX
  8
MY3DLAYER
10
4.700961894323316
20
15.610000000000078
30
1.8047785488306544e-13
 70
     32
  0
VERTEX
  8
MY3DLAYER
10
4.551111260566387
20
15.248228567653868
30
1.8047785488306544e-13
 70
     32
  0
VERTEX
  8
MY3DLAYER
10
4.499999999999969
20
14.860000000000067
30
1.8047785488306544e-13
 70
     32
  0
VERTEX
  8
MY3DLAYER
10
4.551111260566387
20
14.471771432346266
30
1.8047785488306544e-13
 70
     32
  0
VERTEX
  8
MY3DLAYER
10
4.700961894323316
20
14.110000000000058
30
1.8047785488306544e-13
 70
     32
  0
VERTEX
  8
MY3DLAYER
10
4.939339828220143
20
13.799339828220266
30
1.8047785488306544e-13
 70
     32
  0
VERTEX
  8
MY3DLAYER
10
5.249999999999979
20
13.560961894323395
30
1.8047785488306544e-13
 70
     32
  0
VERTEX
  8
MY3DLAYER
10
5.611771432346188
20
13.411111260566464
30
1.8047785488306544e-13
 70
     32
  0
VERTEX
  8
MY3DLAYER
10
5.999999999999989
20
13.360000000000047
30
1.8047785488306544e-13
 70
     32
  0
VERTEX
  8
MY3DLAYER
10
6.38822856765379
20
13.411111260566464
30
1.8047785488306544e-13
 70
     32
  0
VERTEX
  8
MY3DLAYER
10
6.749999999999999
20
13.560961894323395
30
1.8047785488306544e-13
 70
     32
  0
VERTEX
  8
MY3DLAYER
10
7.060660171779835
20
13.799339828220266
30
1.8047785488306544e-13
 70
     32
  0
VERTEX
  8
MY3DLAYER
10
7.299038105676662
20
14.110000000000058
30
1.8047785488306544e-13
 70
     32
  0
VERTEX
  8
MY3DLAYER
10
7.448888739433592
20
14.471771432346266
30
1.8047785488306544e-13
 70
     32
  0
VERTEX
  8
MY3DLAYER
10
7.500000000000009
20
14.860000000000067
30
1.8047785488306544e-13
 70
     32
  0
VERTEX
  8
MY3DLAYER
10
7.448888739433592
20
15.248228567653868
30
1.8047785488306544e-13
 70
     32
  0
VERTEX
  8
MY3DLAYER
10
7.299038105676662
20
15.610000000000078
30
1.8047785488306544e-13
 70
     32
  0
VERTEX
  8
MY3DLAYER
10
7.060660171779835
20
15.920660171779868
30
1.8047785488306544e-13
 70
     32
  0
VERTEX
  8
MY3DLAYER
10
6.749999999999999
20
16.15903810567674
30
1.8047785488306544e-13
 70
     32
  0
VERTEX
  8
MY3DLAYER
10
6.38822856765379
20
16.30888873943367
30
1.8047785488306544e-13
 70
     32
  0
VERTEX
  8
MY3DLAYER
10
5.999999999999989
20
16.36000000000009
30
1.8047785488306544e-13
 70
     32
  0
VERTEX
  8
MY3DLAYER
10
5.611771432346188
20
16.30888873943367
30
1.8047785488306544e-13
 70
     32
  0
VERTEX
  8
MY3DLAYER
10
5.249999999999979
20
16.15903810567674
30
1.8047785488306544e-13
 70
     32
  0
VERTEX
  8
MY3DLAYER
10
4.939339828220143
20
15.920660171779868
30
1.8047785488306544e-13
 70
     32
  0
SEQEND
  0
POLYLINE
 8
Layer0
 66
     1
70
    8
 10
0.0
 20
 0.0
 30
0.0
  0
VERTEX
  8
MY3DLAYER
10
21.448888739433656
20
15.248228567653868
30
3.6095570976613087e-13
 70
     32
  0
VERTEX
  8
MY3DLAYER
10
21.299038105676726
20
15.610000000000078
30
3.6095570976613087e-13
 70
     32
  0
VERTEX
  8
MY3DLAYER
10
21.0606601717799
20
15.920660171779868
30
3.6095570976613087e-13
 70
     32
  0
VERTEX
  8
MY3DLAYER
10
20.750000000000064
20
16.15903810567674
30
3.6095570976613087e-13
 70
     32
  0
VERTEX
  8
MY3DLAYER
10
20.388228567653854
20
16.30888873943367
30
3.6095570976613087e-13
 70
     32
  0
VERTEX
  8
MY3DLAYER
10
20.000000000000053
20
16.36000000000009
30
3.6095570976613087e-13
 70
     32
  0
VERTEX
  8
MY3DLAYER
10
19.611771432346252
20
16.30888873943367
30
3.6095570976613087e-13
 70
     32
  0
VERTEX
  8
MY3DLAYER
10
19.250000000000043
20
16.15903810567674
30
3.6095570976613087e-13
 70
     32
  0
VERTEX
  8
MY3DLAYER
10
18.939339828220206
20
15.920660171779868
30
3.6095570976613087e-13
 70
     32
  0
VERTEX
  8
MY3DLAYER
10
18.70096189432338
20
15.610000000000078
30
3.6095570976613087e-13
 70
     32
  0
VERTEX
  8
MY3DLAYER
10
18.55111126056645
20
15.248228567653868
30
3.6095570976613087e-13
 70
     32
  0
VERTEX
  8
MY3DLAYER
10
18.500000000000036
20
14.860000000000067
30
3.6095570976613087e-13
 70
     32
  0
VERTEX
  8
MY3DLAYER
10
18.55111126056645
20
14.471771432346266
30
3.6095570976613087e-13
 70
     32
  0
VERTEX
  8
MY3DLAYER
10
18.70096189432338
20
14.110000000000058
30
3.6095570976613087e-13
 70
     32
  0
VERTEX
  8
MY3DLAYER
10
18.939339828220206
20
13.799339828220266
30
3.6095570976613087e-13
 70
     32
  0
VERTEX
  8
MY3DLAYER
10
19.250000000000043
20
13.560961894323395
30
3.6095570976613087e-13
 70
     32
  0
VERTEX
  8
MY3DLAYER
10
19.611771432346252
20
13.411111260566464
30
3.6095570976613087e-13
 70
     32
  0
VERTEX
  8
MY3DLAYER
10
20.000000000000053
20
13.360000000000047
30
3.6095570976613087e-13
 70
     32
  0
VERTEX
  8
MY3DLAYER
10
20.388228567653854
20
13.411111260566464
30
3.6095570976613087e-13
 70
     32
  0
VERTEX
  8
MY3DLAYER
10
20.750000000000064
20
13.560961894323395
30
3.6095570976613087e-13
 70
     32
  0
VERTEX
  8
MY3DLAYER
10
21.0606601717799
20
13.799339828220266
30
3.6095570976613087e-13
 70
     32
  0
VERTEX
  8
MY3DLAYER
10
21.299038105676726
20
14.110000000000058
30
3.6095570976613087e-13
 70
     32
  0
VERTEX
  8
MY3DLAYER
10
21.448888739433656
20
14.471771432346266
30
3.6095570976613087e-13
 70
     32
  0
VERTEX
  8
MY3DLAYER
10
21.500000000000075
20
14.860000000000067
30
3.6095570976613087e-13
 70
     32
  0
VERTEX
  8
MY3DLAYER
10
21.448888739433656
20
15.248228567653868
30
3.6095570976613087e-13
 70
     32
  0
SEQEND
  0
POLYLINE
 8
Layer0
 66
     1
70
    8
 10
0.0
 20
 0.0
 30
0.0
  0
VERTEX
  8
MY3DLAYER
10
18.70096189432338
20
38.2503843200328
30
3.6095570976613087e-13
 70
     32
  0
VERTEX
  8
MY3DLAYER
10
18.55111126056645
20
37.88861288768659
30
3.6095570976613087e-13
 70
     32
  0
VERTEX
  8
MY3DLAYER
10
18.500000000000036
20
37.50038432003279
30
3.6095570976613087e-13
 70
     32
  0
VERTEX
  8
MY3DLAYER
10
18.55111126056645
20
37.11215575237899
30
3.6095570976613087e-13
 70
     32
  0
VERTEX
  8
MY3DLAYER
10
18.70096189432338
20
36.750384320032786
30
3.6095570976613087e-13
 70
     32
  0
VERTEX
  8
MY3DLAYER
10
18.939339828220206
20
36.43972414825299
30
3.6095570976613087e-13
 70
     32
  0
VERTEX
  8
MY3DLAYER
10
19.250000000000043
20
36.20134621435612
30
3.6095570976613087e-13
 70
     32
  0
VERTEX
  8
MY3DLAYER
10
19.611771432346252
20
36.05149558059919
30
3.6095570976613087e-13
 70
     32
  0
VERTEX
  8
MY3DLAYER
10
20.000000000000053
20
36.00038432003277
30
3.6095570976613087e-13
 70
     32
  0
VERTEX
  8
MY3DLAYER
10
20.388228567653854
20
36.05149558059919
30
3.6095570976613087e-13
 70
     32
  0
VERTEX
  8
MY3DLAYER
10
20.750000000000064
20
36.20134621435612
30
3.6095570976613087e-13
 70
     32
  0
VERTEX
  8
MY3DLAYER
10
21.0606601717799
20
36.43972414825299
30
3.6095570976613087e-13
 70
     32
  0
VERTEX
  8
MY3DLAYER
10
21.299038105676726
20
36.750384320032786
30
3.6095570976613087e-13
 70
     32
  0
VERTEX
  8
MY3DLAYER
10
21.448888739433656
20
37.11215575237899
30
3.6095570976613087e-13
 70
     32
  0
VERTEX
  8
MY3DLAYER
10
21.500000000000075
20
37.50038432003279
30
3.6095570976613087e-13
 70
     32
  0
VERTEX
  8
MY3DLAYER
10
21.448888739433656
20
37.88861288768659
30
3.6095570976613087e-13
 70
     32
  0
VERTEX
  8
MY3DLAYER
10
21.299038105676726
20
38.2503843200328
30
3.6095570976613087e-13
 70
     32
  0
VERTEX
  8
MY3DLAYER
10
21.0606601717799
20
38.561044491812595
30
3.6095570976613087e-13
 70
     32
  0
VERTEX
  8
MY3DLAYER
10
20.750000000000064
20
38.799422425709466
30
3.6095570976613087e-13
 70
     32
  0
VERTEX
  8
MY3DLAYER
10
20.388228567653854
20
38.94927305946639
30
3.6095570976613087e-13
 70
     32
  0
VERTEX
  8
MY3DLAYER
10
20.000000000000053
20
39.000384320032815
30
3.6095570976613087e-13
 70
     32
  0
VERTEX
  8
MY3DLAYER
10
19.611771432346252
20
38.94927305946639
30
3.6095570976613087e-13
 70
     32
  0
VERTEX
  8
MY3DLAYER
10
19.250000000000043
20
38.799422425709466
30
3.6095570976613087e-13
 70
     32
  0
VERTEX
  8
MY3DLAYER
10
18.939339828220206
20
38.561044491812595
30
3.6095570976613087e-13
 70
     32
  0
VERTEX
  8
MY3DLAYER
10
18.70096189432338
20
38.2503843200328
30
3.6095570976613087e-13
 70
     32
  0
SEQEND
  0
POLYLINE
 8
Layer0
 66
     1
70
    8
 10
0.0
 20
 0.0
 30
0.0
  0
VERTEX
  8
MY3DLAYER
10
73.94888873943552
20
15.248228567653868
30
5.414335646491963e-13
 70
     32
  0
VERTEX
  8
MY3DLAYER
10
73.79903810567859
20
15.610000000000078
30
5.414335646491963e-13
 70
     32
  0
VERTEX
  8
MY3DLAYER
10
73.56066017178176
20
15.920660171779868
30
5.414335646491963e-13
 70
     32
  0
VERTEX
  8
MY3DLAYER
10
73.25000000000193
20
16.15903810567674
30
5.414335646491963e-13
 70
     32
  0
VERTEX
  8
MY3DLAYER
10
72.88822856765572
20
16.30888873943367
30
5.414335646491963e-13
 70
     32
  0
VERTEX
  8
MY3DLAYER
10
72.50000000000192
20
16.36000000000009
30
5.414335646491963e-13
 70
     32
  0
VERTEX
  8
MY3DLAYER
10
72.11177143234812
20
16.30888873943367
30
5.414335646491963e-13
 70
     32
  0
VERTEX
  8
MY3DLAYER
10
71.7500000000019
20
16.15903810567674
30
5.414335646491963e-13
 70
     32
  0
VERTEX
  8
MY3DLAYER
10
71.43933982822207
20
15.920660171779868
30
5.414335646491963e-13
 70
     32
  0
VERTEX
  8
MY3DLAYER
10
71.20096189432525
20
15.610000000000078
30
5.414335646491963e-13
 70
     32
  0
VERTEX
  8
MY3DLAYER
10
71.05111126056832
20
15.248228567653868
30
5.414335646491963e-13
 70
     32
  0
VERTEX
  8
MY3DLAYER
10
71.0000000000019
20
14.860000000000067
30
5.414335646491963e-13
 70
     32
  0
VERTEX
  8
MY3DLAYER
10
71.05111126056832
20
14.471771432346266
30
5.414335646491963e-13
 70
     32
  0
VERTEX
  8
MY3DLAYER
10
71.20096189432525
20
14.110000000000058
30
5.414335646491963e-13
 70
     32
  0
VERTEX
  8
MY3DLAYER
10
71.43933982822207
20
13.799339828220266
30
5.414335646491963e-13
 70
     32
  0
VERTEX
  8
MY3DLAYER
10
71.7500000000019
20
13.560961894323395
30
5.414335646491963e-13
 70
     32
  0
VERTEX
  8
MY3DLAYER
10
72.11177143234812
20
13.411111260566464
30
5.414335646491963e-13
 70
     32
  0
VERTEX
  8
MY3DLAYER
10
72.50000000000192
20
13.360000000000047
30
5.414335646491963e-13
 70
     32
  0
VERTEX
  8
MY3DLAYER
10
72.88822856765572
20
13.411111260566464
30
5.414335646491963e-13
 70
     32
  0
VERTEX
  8
MY3DLAYER
10
73.25000000000193
20
13.560961894323395
30
5.414335646491963e-13
 70
     32
  0
VERTEX
  8
MY3DLAYER
10
73.56066017178176
20
13.799339828220266
30
5.414335646491963e-13
 70
     32
  0
VERTEX
  8
MY3DLAYER
10
73.79903810567859
20
14.110000000000058
30
5.414335646491963e-13
 70
     32
  0
VERTEX
  8
MY3DLAYER
10
73.94888873943552
20
14.471771432346266
30
5.414335646491963e-13
 70
     32
  0
VERTEX
  8
MY3DLAYER
10
74.00000000000195
20
14.860000000000067
30
5.414335646491963e-13
 70
     32
  0
VERTEX
  8
MY3DLAYER
10
73.94888873943552
20
15.248228567653868
30
5.414335646491963e-13
 70
     32
  0
SEQEND
  0
POLYLINE
 8
Layer0
 66
     1
70
    8
 10
0.0
 20
 0.0
 30
0.0
  0
VERTEX
  8
MY3DLAYER
10
57.43933982822201
20
15.920660171779868
30
1.8047785488306544e-13
 70
     32
  0
VERTEX
  8
MY3DLAYER
10
57.20096189432518
20
15.610000000000078
30
1.8047785488306544e-13
 70
     32
  0
VERTEX
  8
MY3DLAYER
10
57.051111260568256
20
15.248228567653868
30
1.8047785488306544e-13
 70
     32
  0
VERTEX
  8
MY3DLAYER
10
57.00000000000183
20
14.860000000000067
30
1.8047785488306544e-13
 70
     32
  0
VERTEX
  8
MY3DLAYER
10
57.051111260568256
20
14.471771432346266
30
1.8047785488306544e-13
 70
     32
  0
VERTEX
  8
MY3DLAYER
10
57.20096189432518
20
14.110000000000058
30
1.8047785488306544e-13
 70
     32
  0
VERTEX
  8
MY3DLAYER
10
57.43933982822201
20
13.799339828220266
30
1.8047785488306544e-13
 70
     32
  0
VERTEX
  8
MY3DLAYER
10
57.75000000000185
20
13.560961894323395
30
1.8047785488306544e-13
 70
     32
  0
VERTEX
  8
MY3DLAYER
10
58.11177143234806
20
13.411111260566464
30
1.8047785488306544e-13
 70
     32
  0
VERTEX
  8
MY3DLAYER
10
58.500000000001855
20
13.360000000000047
30
1.8047785488306544e-13
 70
     32
  0
VERTEX
  8
MY3DLAYER
10
58.88822856765566
20
13.411111260566464
30
1.8047785488306544e-13
 70
     32
  0
VERTEX
  8
MY3DLAYER
10
59.25000000000187
20
13.560961894323395
30
1.8047785488306544e-13
 70
     32
  0
VERTEX
  8
MY3DLAYER
10
59.5606601717817
20
13.799339828220266
30
1.8047785488306544e-13
 70
     32
  0
VERTEX
  8
MY3DLAYER
10
59.79903810567853
20
14.110000000000058
30
1.8047785488306544e-13
 70
     32
  0
VERTEX
  8
MY3DLAYER
10
59.94888873943546
20
14.471771432346266
30
1.8047785488306544e-13
 70
     32
  0
VERTEX
  8
MY3DLAYER
10
60.000000000001876
20
14.860000000000067
30
1.8047785488306544e-13
 70
     32
  0
VERTEX
  8
MY3DLAYER
10
59.94888873943546
20
15.248228567653868
30
1.8047785488306544e-13
 70
     32
  0
VERTEX
  8
MY3DLAYER
10
59.79903810567853
20
15.610000000000078
30
1.8047785488306544e-13
 70
     32
  0
VERTEX
  8
MY3DLAYER
10
59.5606601717817
20
15.920660171779868
30
1.8047785488306544e-13
 70
     32
  0
VERTEX
  8
MY3DLAYER
10
59.25000000000187
20
16.15903810567674
30
1.8047785488306544e-13
 70
     32
  0
VERTEX
  8
MY3DLAYER
10
58.88822856765566
20
16.30888873943367
30
1.8047785488306544e-13
 70
     32
  0
VERTEX
  8
MY3DLAYER
10
58.500000000001855
20
16.36000000000009
30
1.8047785488306544e-13
 70
     32
  0
VERTEX
  8
MY3DLAYER
10
58.11177143234806
20
16.30888873943367
30
1.8047785488306544e-13
 70
     32
  0
VERTEX
  8
MY3DLAYER
10
57.75000000000185
20
16.15903810567674
30
1.8047785488306544e-13
 70
     32
  0
VERTEX
  8
MY3DLAYER
10
57.43933982822201
20
15.920660171779868
30
1.8047785488306544e-13
 70
     32
  0
SEQEND
  0
POLYLINE
 8
Layer0
 66
     1
70
    8
 10
0.0
 20
 0.0
 30
0.0
  0
VERTEX
  8
MY3DLAYER
10
71.20096189432525
20
38.2503843200328
30
0.0
 70
     32
  0
VERTEX
  8
MY3DLAYER
10
71.05111126056832
20
37.88861288768659
30
0.0
 70
     32
  0
VERTEX
  8
MY3DLAYER
10
71.0000000000019
20
37.50038432003279
30
0.0
 70
     32
  0
VERTEX
  8
MY3DLAYER
10
71.05111126056832
20
37.11215575237899
30
0.0
 70
     32
  0
VERTEX
  8
MY3DLAYER
10
71.20096189432525
20
36.750384320032786
30
0.0
 70
     32
  0
VERTEX
  8
MY3DLAYER
10
71.43933982822207
20
36.43972414825299
30
0.0
 70
     32
  0
VERTEX
  8
MY3DLAYER
10
71.7500000000019
20
36.20134621435612
30
0.0
 70
     32
  0
VERTEX
  8
MY3DLAYER
10
72.11177143234812
20
36.05149558059919
30
0.0
 70
     32
  0
VERTEX
  8
MY3DLAYER
10
72.50000000000192
20
36.00038432003277
30
0.0
 70
     32
  0
VERTEX
  8
MY3DLAYER
10
72.88822856765572
20
36.05149558059919
30
0.0
 70
     32
  0
VERTEX
  8
MY3DLAYER
10
73.25000000000193
20
36.20134621435612
30
0.0
 70
     32
  0
VERTEX
  8
MY3DLAYER
10
73.56066017178176
20
36.43972414825299
30
0.0
 70
     32
  0
VERTEX
  8
MY3DLAYER
10
73.79903810567859
20
36.750384320032786
30
0.0
 70
     32
  0
VERTEX
  8
MY3DLAYER
10
73.94888873943552
20
37.11215575237899
30
0.0
 70
     32
  0
VERTEX
  8
MY3DLAYER
10
74.00000000000195
20
37.50038432003279
30
0.0
 70
     32
  0
VERTEX
  8
MY3DLAYER
10
73.94888873943552
20
37.88861288768659
30
0.0
 70
     32
  0
VERTEX
  8
MY3DLAYER
10
73.79903810567859
20
38.2503843200328
30
0.0
 70
     32
  0
VERTEX
  8
MY3DLAYER
10
73.56066017178176
20
38.561044491812595
30
0.0
 70
     32
  0
VERTEX
  8
MY3DLAYER
10
73.25000000000193
20
38.799422425709466
30
0.0
 70
     32
  0
VERTEX
  8
MY3DLAYER
10
72.88822856765572
20
38.94927305946639
30
0.0
 70
     32
  0
VERTEX
  8
MY3DLAYER
10
72.50000000000192
20
39.000384320032815
30
0.0
 70
     32
  0
VERTEX
  8
MY3DLAYER
10
72.11177143234812
20
38.94927305946639
30
0.0
 70
     32
  0
VERTEX
  8
MY3DLAYER
10
71.7500000000019
20
38.799422425709466
30
0.0
 70
     32
  0
VERTEX
  8
MY3DLAYER
10
71.43933982822207
20
38.561044491812595
30
0.0
 70
     32
  0
VERTEX
  8
MY3DLAYER
10
71.20096189432525
20
38.2503843200328
30
0.0
 70
     32
  0
SEQEND
  0
POLYLINE
 8
Layer0
 66
     1
70
    8
 10
0.0
 20
 0.0
 30
0.0
  0
VERTEX
  8
MY3DLAYER
10
57.43933982822201
20
38.561044491812595
30
1.8047785488306544e-13
 70
     32
  0
VERTEX
  8
MY3DLAYER
10
57.20096189432518
20
38.2503843200328
30
1.8047785488306544e-13
 70
     32
  0
VERTEX
  8
MY3DLAYER
10
57.051111260568256
20
37.88861288768659
30
1.8047785488306544e-13
 70
     32
  0
VERTEX
  8
MY3DLAYER
10
57.00000000000183
20
37.50038432003279
30
1.8047785488306544e-13
 70
     32
  0
VERTEX
  8
MY3DLAYER
10
57.051111260568256
20
37.11215575237899
30
1.8047785488306544e-13
 70
     32
  0
VERTEX
  8
MY3DLAYER
10
57.20096189432518
20
36.750384320032786
30
1.8047785488306544e-13
 70
     32
  0
VERTEX
  8
MY3DLAYER
10
57.43933982822201
20
36.43972414825299
30
1.8047785488306544e-13
 70
     32
  0
VERTEX
  8
MY3DLAYER
10
57.75000000000185
20
36.20134621435612
30
1.8047785488306544e-13
 70
     32
  0
VERTEX
  8
MY3DLAYER
10
58.11177143234806
20
36.05149558059919
30
1.8047785488306544e-13
 70
     32
  0
VERTEX
  8
MY3DLAYER
10
58.500000000001855
20
36.00038432003277
30
1.8047785488306544e-13
 70
     32
  0
VERTEX
  8
MY3DLAYER
10
58.88822856765566
20
36.05149558059919
30
1.8047785488306544e-13
 70
     32
  0
VERTEX
  8
MY3DLAYER
10
59.25000000000187
20
36.20134621435612
30
1.8047785488306544e-13
 70
     32
  0
VERTEX
  8
MY3DLAYER
10
59.5606601717817
20
36.43972414825299
30
1.8047785488306544e-13
 70
     32
  0
VERTEX
  8
MY3DLAYER
10
59.79903810567853
20
36.750384320032786
30
1.8047785488306544e-13
 70
     32
  0
VERTEX
  8
MY3DLAYER
10
59.94888873943546
20
37.11215575237899
30
1.8047785488306544e-13
 70
     32
  0
VERTEX
  8
MY3DLAYER
10
60.000000000001876
20
37.50038432003279
30
1.8047785488306544e-13
 70
     32
  0
VERTEX
  8
MY3DLAYER
10
59.94888873943546
20
37.88861288768659
30
1.8047785488306544e-13
 70
     32
  0
VERTEX
  8
MY3DLAYER
10
59.79903810567853
20
38.2503843200328
30
1.8047785488306544e-13
 70
     32
  0
VERTEX
  8
MY3DLAYER
10
59.5606601717817
20
38.561044491812595
30
1.8047785488306544e-13
 70
     32
  0
VERTEX
  8
MY3DLAYER
10
59.25000000000187
20
38.799422425709466
30
1.8047785488306544e-13
 70
     32
  0
VERTEX
  8
MY3DLAYER
10
58.88822856765566
20
38.94927305946639
30
1.8047785488306544e-13
 70
     32
  0
VERTEX
  8
MY3DLAYER
10
58.500000000001855
20
39.000384320032815
30
1.8047785488306544e-13
 70
     32
  0
VERTEX
  8
MY3DLAYER
10
58.11177143234806
20
38.94927305946639
30
1.8047785488306544e-13
 70
     32
  0
VERTEX
  8
MY3DLAYER
10
57.75000000000185
20
38.799422425709466
30
1.8047785488306544e-13
 70
     32
  0
VERTEX
  8
MY3DLAYER
10
57.43933982822201
20
38.561044491812595
30
1.8047785488306544e-13
 70
     32
  0
SEQEND
  0
POLYLINE
 8
Layer0
 66
     1
70
    8
 10
0.0
 20
 0.0
 30
0.0
  0
VERTEX
  8
MY3DLAYER
10
5.95
20
24.3413466520527
30
1.8047785488306544e-13
 70
     32
  0
VERTEX
  8
MY3DLAYER
10
6.45648000528471
20
24.13155576479298
30
1.8047785488306544e-13
 70
     32
  0
VERTEX
  8
MY3DLAYER
10
6.999999999999988
20
24.05999999999996
30
1.8047785488306544e-13
 70
     32
  0
VERTEX
  8
MY3DLAYER
10
7.543519994715264
20
24.13155576479298
30
1.8047785488306544e-13
 70
     32
  0
VERTEX
  8
MY3DLAYER
10
8.050000000000018
20
24.3413466520527
30
1.8047785488306544e-13
 70
     32
  0
VERTEX
  8
MY3DLAYER
10
8.484924240491754
20
24.675075759508303
30
1.8047785488306544e-13
 70
     32
  0
VERTEX
  8
MY3DLAYER
10
8.818653347947311
20
25.109999999999992
30
1.8047785488306544e-13
 70
     32
  0
VERTEX
  8
MY3DLAYER
10
9.028444235207031
20
25.616480005284703
30
1.8047785488306544e-13
 70
     32
  0
VERTEX
  8
MY3DLAYER
10
9.100000000000007
20
26.160000000000025
30
1.8047785488306544e-13
 70
     32
  0
VERTEX
  8
MY3DLAYER
10
9.028444235207031
20
26.703519994715347
30
1.8047785488306544e-13
 70
     32
  0
VERTEX
  8
MY3DLAYER
10
8.818653347947311
20
27.210000000000058
30
1.8047785488306544e-13
 70
     32
  0
VERTEX
  8
MY3DLAYER
10
8.484924240491754
20
27.644924240491747
30
1.8047785488306544e-13
 70
     32
  0
VERTEX
  8
MY3DLAYER
10
8.049999999999974
20
27.978653347947347
30
1.8047785488306544e-13
 70
     32
  0
VERTEX
  8
MY3DLAYER
10
7.543519994715264
20
28.18844423520707
30
1.8047785488306544e-13
 70
     32
  0
VERTEX
  8
MY3DLAYER
10
6.999999999999988
20
28.260000000000087
30
1.8047785488306544e-13
 70
     32
  0
VERTEX
  8
MY3DLAYER
10
6.456480005284666
20
28.18844423520707
30
1.8047785488306544e-13
 70
     32
  0
VERTEX
  8
MY3DLAYER
10
5.949999999999955
20
27.978653347947347
30
1.8047785488306544e-13
 70
     32
  0
VERTEX
  8
MY3DLAYER
10
5.51507575950822
20
27.644924240491747
30
1.8047785488306544e-13
 70
     32
  0
VERTEX
  8
MY3DLAYER
10
5.181346652052663
20
27.210000000000058
30
1.8047785488306544e-13
 70
     32
  0
VERTEX
  8
MY3DLAYER
10
4.971555764792944
20
26.703519994715347
30
1.8047785488306544e-13
 70
     32
  0
VERTEX
  8
MY3DLAYER
10
4.899999999999968
20
26.160000000000025
30
1.8047785488306544e-13
 70
     32
  0
VERTEX
  8
MY3DLAYER
10
4.971555764792944
20
25.616480005284703
30
1.8047785488306544e-13
 70
     32
  0
VERTEX
  8
MY3DLAYER
10
5.181346652052663
20
25.109999999999992
30
1.8047785488306544e-13
 70
     32
  0
VERTEX
  8
MY3DLAYER
10
5.51507575950822
20
24.675075759508303
30
1.8047785488306544e-13
 70
     32
  0
VERTEX
  8
MY3DLAYER
10
5.95
20
24.3413466520527
30
1.8047785488306544e-13
 70
     32
  0
SEQEND
  0
POLYLINE
 8
Layer0
 66
     1
70
    8
 10
0.0
 20
 0.0
 30
0.0
  0
VERTEX
  8
MY3DLAYER
10
70.95648000528475
20
24.13155576479298
30
1.8047785488306544e-13
 70
     32
  0
VERTEX
  8
MY3DLAYER
10
71.50000000000003
20
24.05999999999996
30
1.8047785488306544e-13
 70
     32
  0
VERTEX
  8
MY3DLAYER
10
72.0435199947153
20
24.13155576479298
30
1.8047785488306544e-13
 70
     32
  0
VERTEX
  8
MY3DLAYER
10
72.55000000000005
20
24.3413466520527
30
1.8047785488306544e-13
 70
     32
  0
VERTEX
  8
MY3DLAYER
10
72.9849242404918
20
24.675075759508303
30
1.8047785488306544e-13
 70
     32
  0
VERTEX
  8
MY3DLAYER
10
73.31865334794735
20
25.109999999999992
30
1.8047785488306544e-13
 70
     32
  0
VERTEX
  8
MY3DLAYER
10
73.52844423520708
20
25.616480005284703
30
1.8047785488306544e-13
 70
     32
  0
VERTEX
  8
MY3DLAYER
10
73.60000000000005
20
26.160000000000025
30
1.8047785488306544e-13
 70
     32
  0
VERTEX
  8
MY3DLAYER
10
73.52844423520708
20
26.703519994715347
30
1.8047785488306544e-13
 70
     32
  0
VERTEX
  8
MY3DLAYER
10
73.31865334794735
20
27.210000000000058
30
1.8047785488306544e-13
 70
     32
  0
VERTEX
  8
MY3DLAYER
10
72.9849242404918
20
27.644924240491747
30
1.8047785488306544e-13
 70
     32
  0
VERTEX
  8
MY3DLAYER
10
72.55000000000001
20
27.978653347947347
30
1.8047785488306544e-13
 70
     32
  0
VERTEX
  8
MY3DLAYER
10
72.0435199947153
20
28.18844423520707
30
1.8047785488306544e-13
 70
     32
  0
VERTEX
  8
MY3DLAYER
10
71.50000000000003
20
28.260000000000087
30
1.8047785488306544e-13
 70
     32
  0
VERTEX
  8
MY3DLAYER
10
70.9564800052847
20
28.18844423520707
30
1.8047785488306544e-13
 70
     32
  0
VERTEX
  8
MY3DLAYER
10
70.44999999999999
20
27.978653347947347
30
1.8047785488306544e-13
 70
     32
  0
VERTEX
  8
MY3DLAYER
10
70.01507575950826
20
27.644924240491747
30
1.8047785488306544e-13
 70
     32
  0
VERTEX
  8
MY3DLAYER
10
69.68134665205271
20
27.210000000000058
30
1.8047785488306544e-13
 70
     32
  0
VERTEX
  8
MY3DLAYER
10
69.47155576479298
20
26.703519994715347
30
1.8047785488306544e-13
 70
     32
  0
VERTEX
  8
MY3DLAYER
10
69.4
20
26.160000000000025
30
1.8047785488306544e-13
 70
     32
  0
VERTEX
  8
MY3DLAYER
10
69.47155576479298
20
25.616480005284703
30
1.8047785488306544e-13
 70
     32
  0
VERTEX
  8
MY3DLAYER
10
69.68134665205271
20
25.109999999999992
30
1.8047785488306544e-13
 70
     32
  0
VERTEX
  8
MY3DLAYER
10
70.01507575950826
20
24.675075759508303
30
1.8047785488306544e-13
 70
     32
  0
VERTEX
  8
MY3DLAYER
10
70.45000000000005
20
24.3413466520527
30
1.8047785488306544e-13
 70
     32
  0
VERTEX
  8
MY3DLAYER
10
70.95648000528475
20
24.13155576479298
30
1.8047785488306544e-13
 70
     32
  0
SEQEND
  0
POLYLINE
 8
Layer0
 66
     1
70
    8
 10
0.0
 20
 0.0
 30
0.0
  0
VERTEX
  8
MY3DLAYER
10
18.200000000000014
20
27.545640646055155
30
1.8047785488306544e-13
 70
     32
  0
VERTEX
  8
MY3DLAYER
10
17.86862915010154
20
27.291370849898538
30
1.8047785488306544e-13
 70
     32
  0
VERTEX
  8
MY3DLAYER
10
17.614359353944927
20
26.960000000000022
30
1.8047785488306544e-13
 70
     32
  0
VERTEX
  8
MY3DLAYER
10
17.454518677937486
20
26.57411047216408
30
1.8047785488306544e-13
 70
     32
  0
VERTEX
  8
MY3DLAYER
10
17.400000000000013
20
26.160000000000025
30
1.8047785488306544e-13
 70
     32
  0
VERTEX
  8
MY3DLAYER
10
17.454518677937486
20
25.74588952783597
30
1.8047785488306544e-13
 70
     32
  0
VERTEX
  8
MY3DLAYER
10
17.614359353944927
20
25.360000000000024
30
1.8047785488306544e-13
 70
     32
  0
VERTEX
  8
MY3DLAYER
10
17.86862915010154
20
25.02862915010151
30
1.8047785488306544e-13
 70
     32
  0
VERTEX
  8
MY3DLAYER
10
18.200000000000014
20
24.774359353944895
30
1.8047785488306544e-13
 70
     32
  0
VERTEX
  8
MY3DLAYER
10
18.585889527835956
20
24.614518677937546
30
1.8047785488306544e-13
 70
     32
  0
VERTEX
  8
MY3DLAYER
10
19.00000000000001
20
24.560000000000027
30
1.8047785488306544e-13
 70
     32
  0
VERTEX
  8
MY3DLAYER
10
19.414110472164065
20
24.614518677937546
30
1.8047785488306544e-13
 70
     32
  0
VERTEX
  8
MY3DLAYER
10
19.800000000000008
20
24.774359353944895
30
1.8047785488306544e-13
 70
     32
  0
VERTEX
  8
MY3DLAYER
10
20.13137084989848
20
25.02862915010151
30
1.8047785488306544e-13
 70
     32
  0
VERTEX
  8
MY3DLAYER
10
20.385640646055094
20
25.360000000000024
30
1.8047785488306544e-13
 70
     32
  0
VERTEX
  8
MY3DLAYER
10
20.545481322062535
20
25.74588952783597
30
1.8047785488306544e-13
 70
     32
  0
VERTEX
  8
MY3DLAYER
10
20.60000000000001
20
26.160000000000025
30
1.8047785488306544e-13
 70
     32
  0
VERTEX
  8
MY3DLAYER
10
20.545481322062535
20
26.57411047216408
30
1.8047785488306544e-13
 70
     32
  0
VERTEX
  8
MY3DLAYER
10
20.385640646055094
20
26.960000000000022
30
1.8047785488306544e-13
 70
     32
  0
VERTEX
  8
MY3DLAYER
10
20.13137084989848
20
27.291370849898538
30
1.8047785488306544e-13
 70
     32
  0
VERTEX
  8
MY3DLAYER
10
19.800000000000008
20
27.545640646055155
30
1.8047785488306544e-13
 70
     32
  0
VERTEX
  8
MY3DLAYER
10
19.41411047216402
20
27.705481322062504
30
1.8047785488306544e-13
 70
     32
  0
VERTEX
  8
MY3DLAYER
10
19.00000000000001
20
27.760000000000023
30
1.8047785488306544e-13
 70
     32
  0
VERTEX
  8
MY3DLAYER
10
18.585889527835956
20
27.705481322062504
30
1.8047785488306544e-13
 70
     32
  0
VERTEX
  8
MY3DLAYER
10
18.200000000000014
20
27.545640646055155
30
1.8047785488306544e-13
 70
     32
  0
SEQEND
  0
POLYLINE
 8
Layer0
 66
     1
70
    8
 10
0.0
 20
 0.0
 30
0.0
  0
VERTEX
  8
MY3DLAYER
10
59.08588952783595
20
24.614518677937546
30
1.8047785488306544e-13
 70
     32
  0
VERTEX
  8
MY3DLAYER
10
59.50000000000001
20
24.560000000000027
30
1.8047785488306544e-13
 70
     32
  0
VERTEX
  8
MY3DLAYER
10
59.91411047216406
20
24.614518677937546
30
1.8047785488306544e-13
 70
     32
  0
VERTEX
  8
MY3DLAYER
10
60.300000000000004
20
24.774359353944895
30
1.8047785488306544e-13
 70
     32
  0
VERTEX
  8
MY3DLAYER
10
60.631370849898474
20
25.02862915010151
30
1.8047785488306544e-13
 70
     32
  0
VERTEX
  8
MY3DLAYER
10
60.88564064605509
20
25.360000000000024
30
1.8047785488306544e-13
 70
     32
  0
VERTEX
  8
MY3DLAYER
10
61.04548132206253
20
25.74588952783597
30
1.8047785488306544e-13
 70
     32
  0
VERTEX
  8
MY3DLAYER
10
61.1
20
26.160000000000025
30
1.8047785488306544e-13
 70
     32
  0
VERTEX
  8
MY3DLAYER
10
61.04548132206253
20
26.57411047216408
30
1.8047785488306544e-13
 70
     32
  0
VERTEX
  8
MY3DLAYER
10
60.88564064605509
20
26.960000000000022
30
1.8047785488306544e-13
 70
     32
  0
VERTEX
  8
MY3DLAYER
10
60.631370849898474
20
27.291370849898538
30
1.8047785488306544e-13
 70
     32
  0
VERTEX
  8
MY3DLAYER
10
60.300000000000004
20
27.545640646055155
30
1.8047785488306544e-13
 70
     32
  0
VERTEX
  8
MY3DLAYER
10
59.91411047216401
20
27.705481322062504
30
1.8047785488306544e-13
 70
     32
  0
VERTEX
  8
MY3DLAYER
10
59.50000000000001
20
27.760000000000023
30
1.8047785488306544e-13
 70
     32
  0
VERTEX
  8
MY3DLAYER
10
59.08588952783595
20
27.705481322062504
30
1.8047785488306544e-13
 70
     32
  0
VERTEX
  8
MY3DLAYER
10
58.7
20
27.545640646055155
30
1.8047785488306544e-13
 70
     32
  0
VERTEX
  8
MY3DLAYER
10
58.36862915010153
20
27.291370849898538
30
1.8047785488306544e-13
 70
     32
  0
VERTEX
  8
MY3DLAYER
10
58.11435935394492
20
26.960000000000022
30
1.8047785488306544e-13
 70
     32
  0
VERTEX
  8
MY3DLAYER
10
57.95451867793748
20
26.57411047216408
30
1.8047785488306544e-13
 70
     32
  0
VERTEX
  8
MY3DLAYER
10
57.900000000000006
20
26.160000000000025
30
1.8047785488306544e-13
 70
     32
  0
VERTEX
  8
MY3DLAYER
10
57.95451867793748
20
25.74588952783597
30
1.8047785488306544e-13
 70
     32
  0
VERTEX
  8
MY3DLAYER
10
58.11435935394492
20
25.360000000000024
30
1.8047785488306544e-13
 70
     32
  0
VERTEX
  8
MY3DLAYER
10
58.36862915010153
20
25.02862915010151
30
1.8047785488306544e-13
 70
     32
  0
VERTEX
  8
MY3DLAYER
10
58.7
20
24.774359353944895
30
1.8047785488306544e-13
 70
     32
  0
VERTEX
  8
MY3DLAYER
10
59.08588952783595
20
24.614518677937546
30
1.8047785488306544e-13
 70
     32
  0
SEQEND
  0
POLYLINE
 8
Layer0
 66
     1
70
    8
 10
0.0
 20
 0.0
 30
0.0
  0
VERTEX
  8
MY3DLAYER
10
26.801111260566426
20
47.24822856765381
30
1.8047785488306544e-13
 70
     32
  0
VERTEX
  8
MY3DLAYER
10
26.750000000000007
20
46.86000000000001
30
1.8047785488306544e-13
 70
     32
  0
VERTEX
  8
MY3DLAYER
10
26.801111260566426
20
46.47177143234621
30
1.8047785488306544e-13
 70
     32
  0
VERTEX
  8
MY3DLAYER
10
26.950961894323353
20
46.11
30
1.8047785488306544e-13
 70
     32
  0
VERTEX
  8
MY3DLAYER
10
27.18933982822018
20
45.799339828220205
30
1.8047785488306544e-13
 70
     32
  0
VERTEX
  8
MY3DLAYER
10
27.500000000000018
20
45.560961894323334
30
1.8047785488306544e-13
 70
     32
  0
VERTEX
  8
MY3DLAYER
10
27.861771432346227
20
45.41111126056641
30
1.8047785488306544e-13
 70
     32
  0
VERTEX
  8
MY3DLAYER
10
28.25000000000003
20
45.35999999999999
30
1.8047785488306544e-13
 70
     32
  0
VERTEX
  8
MY3DLAYER
10
28.63822856765383
20
45.41111126056641
30
1.8047785488306544e-13
 70
     32
  0
VERTEX
  8
MY3DLAYER
10
29.000000000000036
20
45.560961894323334
30
1.8047785488306544e-13
 70
     32
  0
VERTEX
  8
MY3DLAYER
10
29.310660171779872
20
45.799339828220205
30
1.8047785488306544e-13
 70
     32
  0
VERTEX
  8
MY3DLAYER
10
29.5490381056767
20
46.11
30
1.8047785488306544e-13
 70
     32
  0
VERTEX
  8
MY3DLAYER
10
29.69888873943363
20
46.47177143234621
30
1.8047785488306544e-13
 70
     32
  0
VERTEX
  8
MY3DLAYER
10
29.750000000000046
20
46.86000000000001
30
1.8047785488306544e-13
 70
     32
  0
VERTEX
  8
MY3DLAYER
10
29.69888873943363
20
47.24822856765381
30
1.8047785488306544e-13
 70
     32
  0
VERTEX
  8
MY3DLAYER
10
29.5490381056767
20
47.61000000000002
30
1.8047785488306544e-13
 70
     32
  0
VERTEX
  8
MY3DLAYER
10
29.310660171779872
20
47.92066017177981
30
1.8047785488306544e-13
 70
     32
  0
VERTEX
  8
MY3DLAYER
10
29.000000000000036
20
48.15903810567668
30
1.8047785488306544e-13
 70
     32
  0
VERTEX
  8
MY3DLAYER
10
28.63822856765383
20
48.30888873943361
30
1.8047785488306544e-13
 70
     32
  0
VERTEX
  8
MY3DLAYER
10
28.25000000000003
20
48.36000000000003
30
1.8047785488306544e-13
 70
     32
  0
VERTEX
  8
MY3DLAYER
10
27.861771432346227
20
48.30888873943361
30
1.8047785488306544e-13
 70
     32
  0
VERTEX
  8
MY3DLAYER
10
27.500000000000018
20
48.15903810567668
30
1.8047785488306544e-13
 70
     32
  0
VERTEX
  8
MY3DLAYER
10
27.18933982822018
20
47.92066017177981
30
1.8047785488306544e-13
 70
     32
  0
VERTEX
  8
MY3DLAYER
10
26.950961894323353
20
47.61000000000002
30
1.8047785488306544e-13
 70
     32
  0
VERTEX
  8
MY3DLAYER
10
26.801111260566426
20
47.24822856765381
30
1.8047785488306544e-13
 70
     32
  0
SEQEND
  0
POLYLINE
 8
Layer0
 66
     1
70
    8
 10
0.0
 20
 0.0
 30
0.0
  0
VERTEX
  8
MY3DLAYER
10
53.000000000000036
20
45.560961894323334
30
0.0
 70
     32
  0
VERTEX
  8
MY3DLAYER
10
53.31066017177987
20
45.799339828220205
30
0.0
 70
     32
  0
VERTEX
  8
MY3DLAYER
10
53.5490381056767
20
46.11
30
0.0
 70
     32
  0
VERTEX
  8
MY3DLAYER
10
53.69888873943363
20
46.47177143234621
30
0.0
 70
     32
  0
VERTEX
  8
MY3DLAYER
10
53.75000000000005
20
46.86000000000001
30
0.0
 70
     32
  0
VERTEX
  8
MY3DLAYER
10
53.69888873943363
20
47.24822856765381
30
0.0
 70
     32
  0
VERTEX
  8
MY3DLAYER
10
53.5490381056767
20
47.61000000000002
30
0.0
 70
     32
  0
VERTEX
  8
MY3DLAYER
10
53.31066017177987
20
47.92066017177981
30
0.0
 70
     32
  0
VERTEX
  8
MY3DLAYER
10
53.000000000000036
20
48.15903810567668
30
0.0
 70
     32
  0
VERTEX
  8
MY3DLAYER
10
52.638228567653826
20
48.30888873943361
30
0.0
 70
     32
  0
VERTEX
  8
MY3DLAYER
10
52.25000000000003
20
48.36000000000003
30
0.0
 70
     32
  0
VERTEX
  8
MY3DLAYER
10
51.861771432346224
20
48.30888873943361
30
0.0
 70
     32
  0
VERTEX
  8
MY3DLAYER
10
51.50000000000002
20
48.15903810567668
30
0.0
 70
     32
  0
VERTEX
  8
MY3DLAYER
10
51.189339828220184
20
47.92066017177981
30
0.0
 70
     32
  0
VERTEX
  8
MY3DLAYER
10
50.950961894323356
20
47.61000000000002
30
0.0
 70
     32
  0
VERTEX
  8
MY3DLAYER
10
50.80111126056642
20
47.24822856765381
30
0.0
 70
     32
  0
VERTEX
  8
MY3DLAYER
10
50.75000000000001
20
46.86000000000001
30
0.0
 70
     32
  0
VERTEX
  8
MY3DLAYER
10
50.80111126056642
20
46.47177143234621
30
0.0
 70
     32
  0
VERTEX
  8
MY3DLAYER
10
50.950961894323356
20
46.11
30
0.0
 70
     32
  0
VERTEX
  8
MY3DLAYER
10
51.189339828220184
20
45.799339828220205
30
0.0
 70
     32
  0
VERTEX
  8
MY3DLAYER
10
51.50000000000002
20
45.560961894323334
30
0.0
 70
     32
  0
VERTEX
  8
MY3DLAYER
10
51.861771432346224
20
45.41111126056641
30
0.0
 70
     32
  0
VERTEX
  8
MY3DLAYER
10
52.25000000000003
20
45.35999999999999
30
0.0
 70
     32
  0
VERTEX
  8
MY3DLAYER
10
52.638228567653826
20
45.41111126056641
30
0.0
 70
     32
  0
VERTEX
  8
MY3DLAYER
10
53.000000000000036
20
45.560961894323334
30
0.0
 70
     32
  0
SEQEND
  0
POLYLINE
 8
Layer0
 66
     1
70
    8
 10
0.0
 20
 0.0
 30
0.0
  0
VERTEX
  8
MY3DLAYER
10
34.750000000000036
20
46.86000000000001
30
1.8047785488306544e-13
 70
     32
  0
VERTEX
  8
MY3DLAYER
10
34.69888873943362
20
47.24822856765381
30
1.8047785488306544e-13
 70
     32
  0
VERTEX
  8
MY3DLAYER
10
34.54903810567669
20
47.61000000000002
30
1.8047785488306544e-13
 70
     32
  0
VERTEX
  8
MY3DLAYER
10
34.310660171779865
20
47.92066017177981
30
1.8047785488306544e-13
 70
     32
  0
VERTEX
  8
MY3DLAYER
10
34.00000000000003
20
48.15903810567668
30
1.8047785488306544e-13
 70
     32
  0
VERTEX
  8
MY3DLAYER
10
33.63822856765382
20
48.30888873943361
30
1.8047785488306544e-13
 70
     32
  0
VERTEX
  8
MY3DLAYER
10
33.25000000000002
20
48.36000000000003
30
1.8047785488306544e-13
 70
     32
  0
VERTEX
  8
MY3DLAYER
10
32.86177143234622
20
48.30888873943361
30
1.8047785488306544e-13
 70
     32
  0
VERTEX
  8
MY3DLAYER
10
32.50000000000001
20
48.15903810567668
30
1.8047785488306544e-13
 70
     32
  0
VERTEX
  8
MY3DLAYER
10
32.18933982822017
20
47.92066017177981
30
1.8047785488306544e-13
 70
     32
  0
VERTEX
  8
MY3DLAYER
10
31.950961894323346
20
47.61000000000002
30
1.8047785488306544e-13
 70
     32
  0
VERTEX
  8
MY3DLAYER
10
31.801111260566415
20
47.24822856765381
30
1.8047785488306544e-13
 70
     32
  0
VERTEX
  8
MY3DLAYER
10
31.75
20
46.86000000000001
30
1.8047785488306544e-13
 70
     32
  0
VERTEX
  8
MY3DLAYER
10
31.801111260566415
20
46.47177143234621
30
1.8047785488306544e-13
 70
     32
  0
VERTEX
  8
MY3DLAYER
10
31.950961894323346
20
46.11
30
1.8047785488306544e-13
 70
     32
  0
VERTEX
  8
MY3DLAYER
10
32.18933982822017
20
45.799339828220205
30
1.8047785488306544e-13
 70
     32
  0
VERTEX
  8
MY3DLAYER
10
32.50000000000001
20
45.560961894323334
30
1.8047785488306544e-13
 70
     32
  0
VERTEX
  8
MY3DLAYER
10
32.86177143234622
20
45.41111126056641
30
1.8047785488306544e-13
 70
     32
  0
VERTEX
  8
MY3DLAYER
10
33.25000000000002
20
45.35999999999999
30
1.8047785488306544e-13
 70
     32
  0
VERTEX
  8
MY3DLAYER
10
33.63822856765382
20
45.41111126056641
30
1.8047785488306544e-13
 70
     32
  0
VERTEX
  8
MY3DLAYER
10
34.00000000000003
20
45.560961894323334
30
1.8047785488306544e-13
 70
     32
  0
VERTEX
  8
MY3DLAYER
10
34.310660171779865
20
45.799339828220205
30
1.8047785488306544e-13
 70
     32
  0
VERTEX
  8
MY3DLAYER
10
34.54903810567669
20
46.11
30
1.8047785488306544e-13
 70
     32
  0
VERTEX
  8
MY3DLAYER
10
34.69888873943362
20
46.47177143234621
30
1.8047785488306544e-13
 70
     32
  0
VERTEX
  8
MY3DLAYER
10
34.750000000000036
20
46.86000000000001
30
1.8047785488306544e-13
 70
     32
  0
SEQEND
  0
POLYLINE
 8
Layer0
 66
     1
70
    8
 10
0.0
 20
 0.0
 30
0.0
  0
VERTEX
  8
MY3DLAYER
10
46.50000000000003
20
48.15903810567668
30
1.8047785488306544e-13
 70
     32
  0
VERTEX
  8
MY3DLAYER
10
46.18933982822019
20
47.92066017177981
30
1.8047785488306544e-13
 70
     32
  0
VERTEX
  8
MY3DLAYER
10
45.95096189432336
20
47.61000000000002
30
1.8047785488306544e-13
 70
     32
  0
VERTEX
  8
MY3DLAYER
10
45.80111126056644
20
47.24822856765381
30
1.8047785488306544e-13
 70
     32
  0
VERTEX
  8
MY3DLAYER
10
45.750000000000014
20
46.86000000000001
30
1.8047785488306544e-13
 70
     32
  0
VERTEX
  8
MY3DLAYER
10
45.80111126056644
20
46.47177143234621
30
1.8047785488306544e-13
 70
     32
  0
VERTEX
  8
MY3DLAYER
10
45.95096189432336
20
46.11
30
1.8047785488306544e-13
 70
     32
  0
VERTEX
  8
MY3DLAYER
10
46.18933982822019
20
45.799339828220205
30
1.8047785488306544e-13
 70
     32
  0
VERTEX
  8
MY3DLAYER
10
46.50000000000003
20
45.560961894323334
30
1.8047785488306544e-13
 70
     32
  0
VERTEX
  8
MY3DLAYER
10
46.86177143234624
20
45.41111126056641
30
1.8047785488306544e-13
 70
     32
  0
VERTEX
  8
MY3DLAYER
10
47.250000000000036
20
45.35999999999999
30
1.8047785488306544e-13
 70
     32
  0
VERTEX
  8
MY3DLAYER
10
47.63822856765384
20
45.41111126056641
30
1.8047785488306544e-13
 70
     32
  0
VERTEX
  8
MY3DLAYER
10
48.00000000000005
20
45.560961894323334
30
1.8047785488306544e-13
 70
     32
  0
VERTEX
  8
MY3DLAYER
10
48.31066017177989
20
45.799339828220205
30
1.8047785488306544e-13
 70
     32
  0
VERTEX
  8
MY3DLAYER
10
48.54903810567671
20
46.11
30
1.8047785488306544e-13
 70
     32
  0
VERTEX
  8
MY3DLAYER
10
48.69888873943364
20
46.47177143234621
30
1.8047785488306544e-13
 70
     32
  0
VERTEX
  8
MY3DLAYER
10
48.75000000000006
20
46.86000000000001
30
1.8047785488306544e-13
 70
     32
  0
VERTEX
  8
MY3DLAYER
10
48.69888873943364
20
47.24822856765381
30
1.8047785488306544e-13
 70
     32
  0
VERTEX
  8
MY3DLAYER
10
48.54903810567671
20
47.61000000000002
30
1.8047785488306544e-13
 70
     32
  0
VERTEX
  8
MY3DLAYER
10
48.31066017177989
20
47.92066017177981
30
1.8047785488306544e-13
 70
     32
  0
VERTEX
  8
MY3DLAYER
10
48.00000000000005
20
48.15903810567668
30
1.8047785488306544e-13
 70
     32
  0
VERTEX
  8
MY3DLAYER
10
47.63822856765384
20
48.30888873943361
30
1.8047785488306544e-13
 70
     32
  0
VERTEX
  8
MY3DLAYER
10
47.250000000000036
20
48.36000000000003
30
1.8047785488306544e-13
 70
     32
  0
VERTEX
  8
MY3DLAYER
10
46.86177143234624
20
48.30888873943361
30
1.8047785488306544e-13
 70
     32
  0
VERTEX
  8
MY3DLAYER
10
46.50000000000003
20
48.15903810567668
30
1.8047785488306544e-13
 70
     32
  0
SEQEND
  0
POLYLINE
 8
Layer0
 66
     1
70
    8
 10
0.0
 20
 0.0
 30
0.0
  0
VERTEX
  8
MY3DLAYER
10
38.950961894323335
20
47.61000000000002
30
1.8047785488306544e-13
 70
     32
  0
VERTEX
  8
MY3DLAYER
10
38.8011112605664
20
47.24822856765381
30
1.8047785488306544e-13
 70
     32
  0
VERTEX
  8
MY3DLAYER
10
38.749999999999986
20
46.86000000000001
30
1.8047785488306544e-13
 70
     32
  0
VERTEX
  8
MY3DLAYER
10
38.8011112605664
20
46.47177143234621
30
1.8047785488306544e-13
 70
     32
  0
VERTEX
  8
MY3DLAYER
10
38.950961894323335
20
46.11
30
1.8047785488306544e-13
 70
     32
  0
VERTEX
  8
MY3DLAYER
10
39.189339828220156
20
45.799339828220205
30
1.8047785488306544e-13
 70
     32
  0
VERTEX
  8
MY3DLAYER
10
39.49999999999999
20
45.560961894323334
30
1.8047785488306544e-13
 70
     32
  0
VERTEX
  8
MY3DLAYER
10
39.8617714323462
20
45.41111126056641
30
1.8047785488306544e-13
 70
     32
  0
VERTEX
  8
MY3DLAYER
10
40.25000000000001
20
45.35999999999999
30
1.8047785488306544e-13
 70
     32
  0
VERTEX
  8
MY3DLAYER
10
40.638228567653805
20
45.41111126056641
30
1.8047785488306544e-13
 70
     32
  0
VERTEX
  8
MY3DLAYER
10
41.000000000000014
20
45.560961894323334
30
1.8047785488306544e-13
 70
     32
  0
VERTEX
  8
MY3DLAYER
10
41.31066017177985
20
45.799339828220205
30
1.8047785488306544e-13
 70
     32
  0
VERTEX
  8
MY3DLAYER
10
41.54903810567668
20
46.11
30
1.8047785488306544e-13
 70
     32
  0
VERTEX
  8
MY3DLAYER
10
41.698888739433606
20
46.47177143234621
30
1.8047785488306544e-13
 70
     32
  0
VERTEX
  8
MY3DLAYER
10
41.75000000000003
20
46.86000000000001
30
1.8047785488306544e-13
 70
     32
  0
VERTEX
  8
MY3DLAYER
10
41.698888739433606
20
47.24822856765381
30
1.8047785488306544e-13
 70
     32
  0
VERTEX
  8
MY3DLAYER
10
41.54903810567668
20
47.61000000000002
30
1.8047785488306544e-13
 70
     32
  0
VERTEX
  8
MY3DLAYER
10
41.31066017177985
20
47.92066017177981
30
1.8047785488306544e-13
 70
     32
  0
VERTEX
  8
MY3DLAYER
10
41.000000000000014
20
48.15903810567668
30
1.8047785488306544e-13
 70
     32
  0
VERTEX
  8
MY3DLAYER
10
40.638228567653805
20
48.30888873943361
30
1.8047785488306544e-13
 70
     32
  0
VERTEX
  8
MY3DLAYER
10
40.25000000000001
20
48.36000000000003
30
1.8047785488306544e-13
 70
     32
  0
VERTEX
  8
MY3DLAYER
10
39.8617714323462
20
48.30888873943361
30
1.8047785488306544e-13
 70
     32
  0
VERTEX
  8
MY3DLAYER
10
39.49999999999999
20
48.15903810567668
30
1.8047785488306544e-13
 70
     32
  0
VERTEX
  8
MY3DLAYER
10
39.189339828220156
20
47.92066017177981
30
1.8047785488306544e-13
 70
     32
  0
VERTEX
  8
MY3DLAYER
10
38.950961894323335
20
47.61000000000002
30
1.8047785488306544e-13
 70
     32
  0
SEQEND
  0
POLYLINE
 8
Layer0
 66
     1
70
    8
 10
0.0
 20
 0.0
 30
0.0
  0
VERTEX
  8
MY3DLAYER
10
27.861771432346227
20
6.948888739433615
30
1.8047785488306544e-13
 70
     32
  0
VERTEX
  8
MY3DLAYER
10
27.500000000000018
20
6.7990381056766855
30
1.8047785488306544e-13
 70
     32
  0
VERTEX
  8
MY3DLAYER
10
27.18933982822018
20
6.560660171779814
30
1.8047785488306544e-13
 70
     32
  0
VERTEX
  8
MY3DLAYER
10
26.950961894323353
20
6.250000000000022
30
1.8047785488306544e-13
 70
     32
  0
VERTEX
  8
MY3DLAYER
10
26.801111260566426
20
5.8882285676538135
30
1.8047785488306544e-13
 70
     32
  0
VERTEX
  8
MY3DLAYER
10
26.750000000000007
20
5.500000000000012
30
1.8047785488306544e-13
 70
     32
  0
VERTEX
  8
MY3DLAYER
10
26.801111260566426
20
5.111771432346211
30
1.8047785488306544e-13
 70
     32
  0
VERTEX
  8
MY3DLAYER
10
26.950961894323353
20
4.750000000000003
30
1.8047785488306544e-13
 70
     32
  0
VERTEX
  8
MY3DLAYER
10
27.18933982822018
20
4.439339828220211
30
1.8047785488306544e-13
 70
     32
  0
VERTEX
  8
MY3DLAYER
10
27.500000000000018
20
4.200961894323339
30
1.8047785488306544e-13
 70
     32
  0
VERTEX
  8
MY3DLAYER
10
27.861771432346227
20
4.05111126056641
30
1.8047785488306544e-13
 70
     32
  0
VERTEX
  8
MY3DLAYER
10
28.25000000000003
20
3.9999999999999925
30
1.8047785488306544e-13
 70
     32
  0
VERTEX
  8
MY3DLAYER
10
28.63822856765383
20
4.05111126056641
30
1.8047785488306544e-13
 70
     32
  0
VERTEX
  8
MY3DLAYER
10
29.000000000000036
20
4.200961894323339
30
1.8047785488306544e-13
 70
     32
  0
VERTEX
  8
MY3DLAYER
10
29.310660171779872
20
4.439339828220211
30
1.8047785488306544e-13
 70
     32
  0
VERTEX
  8
MY3DLAYER
10
29.5490381056767
20
4.750000000000003
30
1.8047785488306544e-13
 70
     32
  0
VERTEX
  8
MY3DLAYER
10
29.69888873943363
20
5.111771432346211
30
1.8047785488306544e-13
 70
     32
  0
VERTEX
  8
MY3DLAYER
10
29.750000000000046
20
5.500000000000012
30
1.8047785488306544e-13
 70
     32
  0
VERTEX
  8
MY3DLAYER
10
29.69888873943363
20
5.8882285676538135
30
1.8047785488306544e-13
 70
     32
  0
VERTEX
  8
MY3DLAYER
10
29.5490381056767
20
6.250000000000022
30
1.8047785488306544e-13
 70
     32
  0
VERTEX
  8
MY3DLAYER
10
29.310660171779872
20
6.560660171779814
30
1.8047785488306544e-13
 70
     32
  0
VERTEX
  8
MY3DLAYER
10
29.000000000000036
20
6.7990381056766855
30
1.8047785488306544e-13
 70
     32
  0
VERTEX
  8
MY3DLAYER
10
28.63822856765383
20
6.948888739433615
30
1.8047785488306544e-13
 70
     32
  0
VERTEX
  8
MY3DLAYER
10
28.25000000000003
20
7.000000000000032
30
1.8047785488306544e-13
 70
     32
  0
VERTEX
  8
MY3DLAYER
10
27.861771432346227
20
6.948888739433615
30
1.8047785488306544e-13
 70
     32
  0
SEQEND
  0
POLYLINE
 8
Layer0
 66
     1
70
    8
 10
0.0
 20
 0.0
 30
0.0
  0
VERTEX
  8
MY3DLAYER
10
31.801111260566415
20
5.111771432346211
30
3.6095570976613087e-13
 70
     32
  0
VERTEX
  8
MY3DLAYER
10
31.950961894323346
20
4.750000000000003
30
3.6095570976613087e-13
 70
     32
  0
VERTEX
  8
MY3DLAYER
10
32.18933982822017
20
4.439339828220211
30
3.6095570976613087e-13
 70
     32
  0
VERTEX
  8
MY3DLAYER
10
32.50000000000001
20
4.200961894323339
30
3.6095570976613087e-13
 70
     32
  0
VERTEX
  8
MY3DLAYER
10
32.86177143234622
20
4.05111126056641
30
3.6095570976613087e-13
 70
     32
  0
VERTEX
  8
MY3DLAYER
10
33.25000000000002
20
3.9999999999999925
30
3.6095570976613087e-13
 70
     32
  0
VERTEX
  8
MY3DLAYER
10
33.63822856765382
20
4.05111126056641
30
3.6095570976613087e-13
 70
     32
  0
VERTEX
  8
MY3DLAYER
10
34.00000000000003
20
4.200961894323339
30
3.6095570976613087e-13
 70
     32
  0
VERTEX
  8
MY3DLAYER
10
34.310660171779865
20
4.439339828220211
30
3.6095570976613087e-13
 70
     32
  0
VERTEX
  8
MY3DLAYER
10
34.54903810567669
20
4.750000000000003
30
3.6095570976613087e-13
 70
     32
  0
VERTEX
  8
MY3DLAYER
10
34.69888873943362
20
5.111771432346211
30
3.6095570976613087e-13
 70
     32
  0
VERTEX
  8
MY3DLAYER
10
34.750000000000036
20
5.500000000000012
30
3.6095570976613087e-13
 70
     32
  0
VERTEX
  8
MY3DLAYER
10
34.69888873943362
20
5.8882285676538135
30
3.6095570976613087e-13
 70
     32
  0
VERTEX
  8
MY3DLAYER
10
34.54903810567669
20
6.250000000000022
30
3.6095570976613087e-13
 70
     32
  0
VERTEX
  8
MY3DLAYER
10
34.310660171779865
20
6.560660171779814
30
3.6095570976613087e-13
 70
     32
  0
VERTEX
  8
MY3DLAYER
10
34.00000000000003
20
6.7990381056766855
30
3.6095570976613087e-13
 70
     32
  0
VERTEX
  8
MY3DLAYER
10
33.63822856765382
20
6.948888739433615
30
3.6095570976613087e-13
 70
     32
  0
VERTEX
  8
MY3DLAYER
10
33.25000000000002
20
7.000000000000032
30
3.6095570976613087e-13
 70
     32
  0
VERTEX
  8
MY3DLAYER
10
32.86177143234622
20
6.948888739433615
30
3.6095570976613087e-13
 70
     32
  0
VERTEX
  8
MY3DLAYER
10
32.50000000000001
20
6.7990381056766855
30
3.6095570976613087e-13
 70
     32
  0
VERTEX
  8
MY3DLAYER
10
32.18933982822017
20
6.560660171779814
30
3.6095570976613087e-13
 70
     32
  0
VERTEX
  8
MY3DLAYER
10
31.950961894323346
20
6.250000000000022
30
3.6095570976613087e-13
 70
     32
  0
VERTEX
  8
MY3DLAYER
10
31.801111260566415
20
5.8882285676538135
30
3.6095570976613087e-13
 70
     32
  0
VERTEX
  8
MY3DLAYER
10
31.75
20
5.500000000000012
30
3.6095570976613087e-13
 70
     32
  0
VERTEX
  8
MY3DLAYER
10
31.801111260566415
20
5.111771432346211
30
3.6095570976613087e-13
 70
     32
  0
SEQEND
  0
POLYLINE
 8
Layer0
 66
     1
70
    8
 10
0.0
 20
 0.0
 30
0.0
  0
VERTEX
  8
MY3DLAYER
10
41.31066017177985
20
6.560660171779814
30
0.0
 70
     32
  0
VERTEX
  8
MY3DLAYER
10
41.000000000000014
20
6.7990381056766855
30
0.0
 70
     32
  0
VERTEX
  8
MY3DLAYER
10
40.638228567653805
20
6.948888739433615
30
0.0
 70
     32
  0
VERTEX
  8
MY3DLAYER
10
40.25000000000001
20
7.000000000000032
30
0.0
 70
     32
  0
VERTEX
  8
MY3DLAYER
10
39.8617714323462
20
6.948888739433615
30
0.0
 70
     32
  0
VERTEX
  8
MY3DLAYER
10
39.49999999999999
20
6.7990381056766855
30
0.0
 70
     32
  0
VERTEX
  8
MY3DLAYER
10
39.189339828220156
20
6.560660171779814
30
0.0
 70
     32
  0
VERTEX
  8
MY3DLAYER
10
38.950961894323335
20
6.250000000000022
30
0.0
 70
     32
  0
VERTEX
  8
MY3DLAYER
10
38.8011112605664
20
5.8882285676538135
30
0.0
 70
     32
  0
VERTEX
  8
MY3DLAYER
10
38.749999999999986
20
5.500000000000012
30
0.0
 70
     32
  0
VERTEX
  8
MY3DLAYER
10
38.8011112605664
20
5.111771432346211
30
0.0
 70
     32
  0
VERTEX
  8
MY3DLAYER
10
38.950961894323335
20
4.750000000000003
30
0.0
 70
     32
  0
VERTEX
  8
MY3DLAYER
10
39.189339828220156
20
4.439339828220211
30
0.0
 70
     32
  0
VERTEX
  8
MY3DLAYER
10
39.49999999999999
20
4.200961894323339
30
0.0
 70
     32
  0
VERTEX
  8
MY3DLAYER
10
39.8617714323462
20
4.05111126056641
30
0.0
 70
     32
  0
VERTEX
  8
MY3DLAYER
10
40.25000000000001
20
3.9999999999999925
30
0.0
 70
     32
  0
VERTEX
  8
MY3DLAYER
10
40.638228567653805
20
4.05111126056641
30
0.0
 70
     32
  0
VERTEX
  8
MY3DLAYER
10
41.000000000000014
20
4.200961894323339
30
0.0
 70
     32
  0
VERTEX
  8
MY3DLAYER
10
41.31066017177985
20
4.439339828220211
30
0.0
 70
     32
  0
VERTEX
  8
MY3DLAYER
10
41.54903810567668
20
4.750000000000003
30
0.0
 70
     32
  0
VERTEX
  8
MY3DLAYER
10
41.698888739433606
20
5.111771432346211
30
0.0
 70
     32
  0
VERTEX
  8
MY3DLAYER
10
41.75000000000003
20
5.500000000000012
30
0.0
 70
     32
  0
VERTEX
  8
MY3DLAYER
10
41.698888739433606
20
5.8882285676538135
30
0.0
 70
     32
  0
VERTEX
  8
MY3DLAYER
10
41.54903810567668
20
6.250000000000022
30
0.0
 70
     32
  0
VERTEX
  8
MY3DLAYER
10
41.31066017177985
20
6.560660171779814
30
0.0
 70
     32
  0
SEQEND
  0
POLYLINE
 8
Layer0
 66
     1
70
    8
 10
0.0
 20
 0.0
 30
0.0
  0
VERTEX
  8
MY3DLAYER
10
48.750000000000014
20
5.500000000000012
30
3.6095570976613087e-13
 70
     32
  0
VERTEX
  8
MY3DLAYER
10
48.69888873943359
20
5.8882285676538135
30
3.6095570976613087e-13
 70
     32
  0
VERTEX
  8
MY3DLAYER
10
48.549038105676665
20
6.250000000000022
30
3.6095570976613087e-13
 70
     32
  0
VERTEX
  8
MY3DLAYER
10
48.31066017177984
20
6.560660171779814
30
3.6095570976613087e-13
 70
     32
  0
VERTEX
  8
MY3DLAYER
10
48.0
20
6.7990381056766855
30
3.6095570976613087e-13
 70
     32
  0
VERTEX
  8
MY3DLAYER
10
47.63822856765379
20
6.948888739433615
30
3.6095570976613087e-13
 70
     32
  0
VERTEX
  8
MY3DLAYER
10
47.24999999999999
20
7.000000000000032
30
3.6095570976613087e-13
 70
     32
  0
VERTEX
  8
MY3DLAYER
10
46.86177143234619
20
6.948888739433615
30
3.6095570976613087e-13
 70
     32
  0
VERTEX
  8
MY3DLAYER
10
46.499999999999986
20
6.7990381056766855
30
3.6095570976613087e-13
 70
     32
  0
VERTEX
  8
MY3DLAYER
10
46.18933982822015
20
6.560660171779814
30
3.6095570976613087e-13
 70
     32
  0
VERTEX
  8
MY3DLAYER
10
45.95096189432332
20
6.250000000000022
30
3.6095570976613087e-13
 70
     32
  0
VERTEX
  8
MY3DLAYER
10
45.80111126056639
20
5.8882285676538135
30
3.6095570976613087e-13
 70
     32
  0
VERTEX
  8
MY3DLAYER
10
45.74999999999997
20
5.500000000000012
30
3.6095570976613087e-13
 70
     32
  0
VERTEX
  8
MY3DLAYER
10
45.80111126056639
20
5.111771432346211
30
3.6095570976613087e-13
 70
     32
  0
VERTEX
  8
MY3DLAYER
10
45.95096189432332
20
4.750000000000003
30
3.6095570976613087e-13
 70
     32
  0
VERTEX
  8
MY3DLAYER
10
46.18933982822015
20
4.439339828220211
30
3.6095570976613087e-13
 70
     32
  0
VERTEX
  8
MY3DLAYER
10
46.499999999999986
20
4.200961894323339
30
3.6095570976613087e-13
 70
     32
  0
VERTEX
  8
MY3DLAYER
10
46.86177143234619
20
4.05111126056641
30
3.6095570976613087e-13
 70
     32
  0
VERTEX
  8
MY3DLAYER
10
47.24999999999999
20
3.9999999999999925
30
3.6095570976613087e-13
 70
     32
  0
VERTEX
  8
MY3DLAYER
10
47.63822856765379
20
4.05111126056641
30
3.6095570976613087e-13
 70
     32
  0
VERTEX
  8
MY3DLAYER
10
48.0
20
4.200961894323339
30
3.6095570976613087e-13
 70
     32
  0
VERTEX
  8
MY3DLAYER
10
48.31066017177984
20
4.439339828220211
30
3.6095570976613087e-13
 70
     32
  0
VERTEX
  8
MY3DLAYER
10
48.549038105676665
20
4.750000000000003
30
3.6095570976613087e-13
 70
     32
  0
VERTEX
  8
MY3DLAYER
10
48.69888873943359
20
5.111771432346211
30
3.6095570976613087e-13
 70
     32
  0
VERTEX
  8
MY3DLAYER
10
48.750000000000014
20
5.500000000000012
30
3.6095570976613087e-13
 70
     32
  0
SEQEND
  0
POLYLINE
 8
Layer0
 66
     1
70
    8
 10
0.0
 20
 0.0
 30
0.0
  0
VERTEX
  8
MY3DLAYER
10
52.63822856765378
20
4.05111126056641
30
3.6095570976613087e-13
 70
     32
  0
VERTEX
  8
MY3DLAYER
10
52.99999999999999
20
4.200961894323339
30
3.6095570976613087e-13
 70
     32
  0
VERTEX
  8
MY3DLAYER
10
53.31066017177983
20
4.439339828220211
30
3.6095570976613087e-13
 70
     32
  0
VERTEX
  8
MY3DLAYER
10
53.54903810567666
20
4.750000000000003
30
3.6095570976613087e-13
 70
     32
  0
VERTEX
  8
MY3DLAYER
10
53.698888739433585
20
5.111771432346211
30
3.6095570976613087e-13
 70
     32
  0
VERTEX
  8
MY3DLAYER
10
53.75
20
5.500000000000012
30
3.6095570976613087e-13
 70
     32
  0
VERTEX
  8
MY3DLAYER
10
53.698888739433585
20
5.8882285676538135
30
3.6095570976613087e-13
 70
     32
  0
VERTEX
  8
MY3DLAYER
10
53.54903810567666
20
6.250000000000022
30
3.6095570976613087e-13
 70
     32
  0
VERTEX
  8
MY3DLAYER
10
53.31066017177983
20
6.560660171779814
30
3.6095570976613087e-13
 70
     32
  0
VERTEX
  8
MY3DLAYER
10
52.99999999999999
20
6.7990381056766855
30
3.6095570976613087e-13
 70
     32
  0
VERTEX
  8
MY3DLAYER
10
52.63822856765378
20
6.948888739433615
30
3.6095570976613087e-13
 70
     32
  0
VERTEX
  8
MY3DLAYER
10
52.249999999999986
20
7.000000000000032
30
3.6095570976613087e-13
 70
     32
  0
VERTEX
  8
MY3DLAYER
10
51.86177143234618
20
6.948888739433615
30
3.6095570976613087e-13
 70
     32
  0
VERTEX
  8
MY3DLAYER
10
51.49999999999997
20
6.7990381056766855
30
3.6095570976613087e-13
 70
     32
  0
VERTEX
  8
MY3DLAYER
10
51.189339828220135
20
6.560660171779814
30
3.6095570976613087e-13
 70
     32
  0
VERTEX
  8
MY3DLAYER
10
50.950961894323314
20
6.250000000000022
30
3.6095570976613087e-13
 70
     32
  0
VERTEX
  8
MY3DLAYER
10
50.80111126056638
20
5.8882285676538135
30
3.6095570976613087e-13
 70
     32
  0
VERTEX
  8
MY3DLAYER
10
50.749999999999964
20
5.500000000000012
30
3.6095570976613087e-13
 70
     32
  0
VERTEX
  8
MY3DLAYER
10
50.80111126056638
20
5.111771432346211
30
3.6095570976613087e-13
 70
     32
  0
VERTEX
  8
MY3DLAYER
10
50.950961894323314
20
4.750000000000003
30
3.6095570976613087e-13
 70
     32
  0
VERTEX
  8
MY3DLAYER
10
51.189339828220135
20
4.439339828220211
30
3.6095570976613087e-13
 70
     32
  0
VERTEX
  8
MY3DLAYER
10
51.49999999999997
20
4.200961894323339
30
3.6095570976613087e-13
 70
     32
  0
VERTEX
  8
MY3DLAYER
10
51.86177143234618
20
4.05111126056641
30
3.6095570976613087e-13
 70
     32
  0
VERTEX
  8
MY3DLAYER
10
52.249999999999986
20
3.9999999999999925
30
3.6095570976613087e-13
 70
     32
  0
VERTEX
  8
MY3DLAYER
10
52.63822856765378
20
4.05111126056641
30
3.6095570976613087e-13
 70
     32
  0
SEQEND
 0
ENDSEC
 0
EOF
