 0
SECTION
 2
ENTITIES
  0
POLYLINE
 8
Layer0
 66
     1
70
    8
 10
0.0
 20
 0.0
 30
0.0
  0
VERTEX
  8
MY3DLAYER
10
0.0
20
0.0
30
1.8047785488306544e-13
 70
     32
  0
VERTEX
  8
MY3DLAYER
10
0.0
20
52.36000000000002
30
1.8047785488306544e-13
 70
     32
  0
VERTEX
  8
MY3DLAYER
10
4.766746399917038
20
52.36000000000002
30
1.8047785488306544e-13
 70
     32
  0
VERTEX
  8
MY3DLAYER
10
4.813458307289017
20
52.29912385709909
30
1.8047785488306544e-13
 70
     32
  0
VERTEX
  8
MY3DLAYER
10
4.868018990447457
20
52.22801899044749
30
1.8047785488306544e-13
 70
     32
  0
VERTEX
  8
MY3DLAYER
10
5.199568551970798
20
51.97361206403797
30
1.8047785488306544e-13
 70
     32
  0
VERTEX
  8
MY3DLAYER
10
5.585666193902381
20
51.8136851843497
30
1.8047785488306544e-13
 70
     32
  0
VERTEX
  8
MY3DLAYER
10
6.000000000000034
20
51.759137103942045
30
1.8047785488306544e-13
 70
     32
  0
VERTEX
  8
MY3DLAYER
10
6.414333806097687
20
51.8136851843497
30
1.8047785488306544e-13
 70
     32
  0
VERTEX
  8
MY3DLAYER
10
6.80043144802927
20
51.97361206403797
30
1.8047785488306544e-13
 70
     32
  0
VERTEX
  8
MY3DLAYER
10
7.131981009552566
20
52.22801899044749
30
1.8047785488306544e-13
 70
     32
  0
VERTEX
  8
MY3DLAYER
10
7.186541692711051
20
52.299123857099175
30
1.8047785488306544e-13
 70
     32
  0
VERTEX
  8
MY3DLAYER
10
7.233253600082941
20
52.36000000000002
30
1.8047785488306544e-13
 70
     32
  0
VERTEX
  8
MY3DLAYER
10
18.266746399917036
20
52.36000000000002
30
3.6095570976613087e-13
 70
     32
  0
VERTEX
  8
MY3DLAYER
10
18.313458307289014
20
52.29912385709909
30
3.6095570976613087e-13
 70
     32
  0
VERTEX
  8
MY3DLAYER
10
18.368018990447453
20
52.22801899044749
30
3.6095570976613087e-13
 70
     32
  0
VERTEX
  8
MY3DLAYER
10
18.699568551970795
20
51.97361206403797
30
3.6095570976613087e-13
 70
     32
  0
VERTEX
  8
MY3DLAYER
10
19.08566619390238
20
51.8136851843497
30
3.6095570976613087e-13
 70
     32
  0
VERTEX
  8
MY3DLAYER
10
19.500000000000032
20
51.759137103942045
30
3.6095570976613087e-13
 70
     32
  0
VERTEX
  8
MY3DLAYER
10
19.914333806097684
20
51.8136851843497
30
3.6095570976613087e-13
 70
     32
  0
VERTEX
  8
MY3DLAYER
10
20.30043144802927
20
51.97361206403797
30
3.6095570976613087e-13
 70
     32
  0
VERTEX
  8
MY3DLAYER
10
20.63198100955261
20
52.22801899044749
30
3.6095570976613087e-13
 70
     32
  0
VERTEX
  8
MY3DLAYER
10
20.68654169271105
20
52.29912385709909
30
3.6095570976613087e-13
 70
     32
  0
VERTEX
  8
MY3DLAYER
10
20.733253600083028
20
52.36000000000002
30
3.6095570976613087e-13
 70
     32
  0
VERTEX
  8
MY3DLAYER
10
57.76674639991617
20
52.36000000000002
30
7.219114195322617e-13
 70
     32
  0
VERTEX
  8
MY3DLAYER
10
57.813458307288066
20
52.299123857099175
30
7.219114195322617e-13
 70
     32
  0
VERTEX
  8
MY3DLAYER
10
57.86801899044655
20
52.22801899044749
30
7.219114195322617e-13
 70
     32
  0
VERTEX
  8
MY3DLAYER
10
58.19956855196985
20
51.97361206403797
30
7.219114195322617e-13
 70
     32
  0
VERTEX
  8
MY3DLAYER
10
58.585666193901424
20
51.8136851843497
30
7.219114195322617e-13
 70
     32
  0
VERTEX
  8
MY3DLAYER
10
58.999999999999076
20
51.759137103942045
30
7.219114195322617e-13
 70
     32
  0
VERTEX
  8
MY3DLAYER
10
59.414333806096735
20
51.8136851843497
30
7.219114195322617e-13
 70
     32
  0
VERTEX
  8
MY3DLAYER
10
59.80043144802831
20
51.97361206403797
30
7.219114195322617e-13
 70
     32
  0
VERTEX
  8
MY3DLAYER
10
60.13198100955166
20
52.22801899044749
30
7.219114195322617e-13
 70
     32
  0
VERTEX
  8
MY3DLAYER
10
60.186541692710094
20
52.29912385709909
30
7.219114195322617e-13
 70
     32
  0
VERTEX
  8
MY3DLAYER
10
60.23325360008208
20
52.36000000000002
30
7.219114195322617e-13
 70
     32
  0
VERTEX
  8
MY3DLAYER
10
71.29787136619248
20
52.36000000000002
30
3.6095570976613087e-13
 70
     32
  0
VERTEX
  8
MY3DLAYER
10
71.3134583072909
20
52.299123857099175
30
3.6095570976613087e-13
 70
     32
  0
VERTEX
  8
MY3DLAYER
10
71.36801899044939
20
52.22801899044749
30
3.6095570976613087e-13
 70
     32
  0
VERTEX
  8
MY3DLAYER
10
71.69956855197269
20
51.97361206403797
30
3.6095570976613087e-13
 70
     32
  0
VERTEX
  8
MY3DLAYER
10
72.08566619390427
20
51.8136851843497
30
3.6095570976613087e-13
 70
     32
  0
VERTEX
  8
MY3DLAYER
10
72.50000000000192
20
51.759137103942045
30
3.6095570976613087e-13
 70
     32
  0
VERTEX
  8
MY3DLAYER
10
72.91433380609958
20
51.8136851843497
30
3.6095570976613087e-13
 70
     32
  0
VERTEX
  8
MY3DLAYER
10
73.30043144803116
20
51.97361206403797
30
3.6095570976613087e-13
 70
     32
  0
VERTEX
  8
MY3DLAYER
10
73.63198100955445
20
52.22801899044749
30
3.6095570976613087e-13
 70
     32
  0
VERTEX
  8
MY3DLAYER
10
73.68654169271294
20
52.299123857099175
30
3.6095570976613087e-13
 70
     32
  0
VERTEX
  8
MY3DLAYER
10
73.70796923535939
20
52.36000000000002
30
3.6095570976613087e-13
 70
     32
  0
VERTEX
  8
MY3DLAYER
10
78.50000000000001
20
52.36000000000002
30
1.8047785488306544e-13
 70
     32
  0
VERTEX
  8
MY3DLAYER
10
78.50000000000001
20
0.0
30
1.8047785488306544e-13
 70
     32
  0
VERTEX
  8
MY3DLAYER
10
73.76587702674199
20
0.0
30
1.8047785488306544e-13
 70
     32
  0
VERTEX
  8
MY3DLAYER
10
73.68654169271294
20
0.06087614290084317
30
1.8047785488306544e-13
 70
     32
  0
VERTEX
  8
MY3DLAYER
10
73.63198100955445
20
0.13198100955253408
30
1.8047785488306544e-13
 70
     32
  0
VERTEX
  8
MY3DLAYER
10
73.30043144803116
20
0.38638793596204546
30
1.8047785488306544e-13
 70
     32
  0
VERTEX
  8
MY3DLAYER
10
72.91433380609958
20
0.5463148156503222
30
1.8047785488306544e-13
 70
     32
  0
VERTEX
  8
MY3DLAYER
10
72.50000000000192
20
0.6008628960579777
30
1.8047785488306544e-13
 70
     32
  0
VERTEX
  8
MY3DLAYER
10
72.08566619390427
20
0.5463148156503222
30
1.8047785488306544e-13
 70
     32
  0
VERTEX
  8
MY3DLAYER
10
71.69956855197269
20
0.38638793596204546
30
1.8047785488306544e-13
 70
     32
  0
VERTEX
  8
MY3DLAYER
10
71.36801899044939
20
0.13198100955253408
30
1.8047785488306544e-13
 70
     32
  0
VERTEX
  8
MY3DLAYER
10
71.3134583072909
20
0.06087614290084317
30
1.8047785488306544e-13
 70
     32
  0
VERTEX
  8
MY3DLAYER
10
71.26674639991901
20
0.0
30
1.8047785488306544e-13
 70
     32
  0
VERTEX
  8
MY3DLAYER
10
60.23325360008208
20
0.0
30
1.8047785488306544e-13
 70
     32
  0
VERTEX
  8
MY3DLAYER
10
60.186541692710094
20
0.06087614290093341
30
1.8047785488306544e-13
 70
     32
  0
VERTEX
  8
MY3DLAYER
10
60.13198100955166
20
0.13198100955253408
30
1.8047785488306544e-13
 70
     32
  0
VERTEX
  8
MY3DLAYER
10
59.80043144802831
20
0.38638793596204546
30
1.8047785488306544e-13
 70
     32
  0
VERTEX
  8
MY3DLAYER
10
59.414333806096735
20
0.5463148156503222
30
1.8047785488306544e-13
 70
     32
  0
VERTEX
  8
MY3DLAYER
10
58.999999999999076
20
0.6008628960579777
30
1.8047785488306544e-13
 70
     32
  0
VERTEX
  8
MY3DLAYER
10
58.585666193901424
20
0.5463148156503222
30
1.8047785488306544e-13
 70
     32
  0
VERTEX
  8
MY3DLAYER
10
58.19956855196985
20
0.38638793596204546
30
1.8047785488306544e-13
 70
     32
  0
VERTEX
  8
MY3DLAYER
10
57.86801899044655
20
0.13198100955253408
30
1.8047785488306544e-13
 70
     32
  0
VERTEX
  8
MY3DLAYER
10
57.813458307288066
20
0.06087614290084317
30
1.8047785488306544e-13
 70
     32
  0
VERTEX
  8
MY3DLAYER
10
57.76674639991617
20
0.0
30
1.8047785488306544e-13
 70
     32
  0
VERTEX
  8
MY3DLAYER
10
20.73325360008294
20
0.0
30
1.8047785488306544e-13
 70
     32
  0
VERTEX
  8
MY3DLAYER
10
20.68654169271105
20
0.06087614290084317
30
1.8047785488306544e-13
 70
     32
  0
VERTEX
  8
MY3DLAYER
10
20.631981009552565
20
0.13198100955253408
30
1.8047785488306544e-13
 70
     32
  0
VERTEX
  8
MY3DLAYER
10
20.30043144802927
20
0.38638793596204546
30
1.8047785488306544e-13
 70
     32
  0
VERTEX
  8
MY3DLAYER
10
19.914333806097684
20
0.5463148156503222
30
1.8047785488306544e-13
 70
     32
  0
VERTEX
  8
MY3DLAYER
10
19.500000000000032
20
0.6008628960579777
30
1.8047785488306544e-13
 70
     32
  0
VERTEX
  8
MY3DLAYER
10
19.08566619390238
20
0.5463148156503222
30
1.8047785488306544e-13
 70
     32
  0
VERTEX
  8
MY3DLAYER
10
18.699568551970795
20
0.38638793596204546
30
1.8047785488306544e-13
 70
     32
  0
VERTEX
  8
MY3DLAYER
10
18.368018990447453
20
0.13198100955253408
30
1.8047785488306544e-13
 70
     32
  0
VERTEX
  8
MY3DLAYER
10
18.313458307289014
20
0.06087614290093341
30
1.8047785488306544e-13
 70
     32
  0
VERTEX
  8
MY3DLAYER
10
18.266746399917036
20
0.0
30
1.8047785488306544e-13
 70
     32
  0
VERTEX
  8
MY3DLAYER
10
7.233253600082941
20
0.0
30
1.8047785488306544e-13
 70
     32
  0
VERTEX
  8
MY3DLAYER
10
7.186541692711051
20
0.06087614290084317
30
1.8047785488306544e-13
 70
     32
  0
VERTEX
  8
MY3DLAYER
10
7.131981009552566
20
0.13198100955253408
30
1.8047785488306544e-13
 70
     32
  0
VERTEX
  8
MY3DLAYER
10
6.80043144802927
20
0.38638793596204546
30
1.8047785488306544e-13
 70
     32
  0
VERTEX
  8
MY3DLAYER
10
6.414333806097687
20
0.5463148156503222
30
1.8047785488306544e-13
 70
     32
  0
VERTEX
  8
MY3DLAYER
10
6.000000000000034
20
0.6008628960579777
30
1.8047785488306544e-13
 70
     32
  0
VERTEX
  8
MY3DLAYER
10
5.585666193902381
20
0.5463148156503222
30
1.8047785488306544e-13
 70
     32
  0
VERTEX
  8
MY3DLAYER
10
5.199568551970798
20
0.38638793596204546
30
1.8047785488306544e-13
 70
     32
  0
VERTEX
  8
MY3DLAYER
10
4.868018990447502
20
0.13198100955253408
30
1.8047785488306544e-13
 70
     32
  0
VERTEX
  8
MY3DLAYER
10
4.813458307289017
20
0.06087614290084317
30
1.8047785488306544e-13
 70
     32
  0
VERTEX
  8
MY3DLAYER
10
4.766746399917127
20
0.0
30
1.8047785488306544e-13
 70
     32
  0
VERTEX
  8
MY3DLAYER
10
0.0
20
0.0
30
1.8047785488306544e-13
 70
     32
  0
SEQEND
  0
POLYLINE
 8
Layer0
 66
     1
70
    8
 10
0.0
 20
 0.0
 30
0.0
  0
VERTEX
  8
MY3DLAYER
10
28.677051424419027
20
48.453777613376744
30
1.8047785488306544e-13
 70
     32
  0
VERTEX
  8
MY3DLAYER
10
28.249999999999936
20
48.51
30
1.8047785488306544e-13
 70
     32
  0
VERTEX
  8
MY3DLAYER
10
27.822948575580664
20
48.453777613376744
30
1.8047785488306544e-13
 70
     32
  0
VERTEX
  8
MY3DLAYER
10
27.424999999999898
20
48.28894191624414
30
1.8047785488306544e-13
 70
     32
  0
VERTEX
  8
MY3DLAYER
10
27.083273811042154
20
48.02672618895761
30
1.8047785488306544e-13
 70
     32
  0
VERTEX
  8
MY3DLAYER
10
26.821058083755624
20
47.684999999999825
30
1.8047785488306544e-13
 70
     32
  0
VERTEX
  8
MY3DLAYER
10
26.656222386622883
20
47.28705142441896
30
1.8047785488306544e-13
 70
     32
  0
VERTEX
  8
MY3DLAYER
10
26.599999999999817
20
46.85999999999983
30
1.8047785488306544e-13
 70
     32
  0
VERTEX
  8
MY3DLAYER
10
26.656222386622883
20
46.43294857558078
30
1.8047785488306544e-13
 70
     32
  0
VERTEX
  8
MY3DLAYER
10
26.821058083755624
20
46.034999999999926
30
1.8047785488306544e-13
 70
     32
  0
VERTEX
  8
MY3DLAYER
10
27.083273811042154
20
45.69327381104205
30
1.8047785488306544e-13
 70
     32
  0
VERTEX
  8
MY3DLAYER
10
27.424999999999898
20
45.431058083755424
30
1.8047785488306544e-13
 70
     32
  0
VERTEX
  8
MY3DLAYER
10
27.822948575580664
20
45.266222386623
30
1.8047785488306544e-13
 70
     32
  0
VERTEX
  8
MY3DLAYER
10
28.249999999999936
20
45.20999999999975
30
1.8047785488306544e-13
 70
     32
  0
VERTEX
  8
MY3DLAYER
10
28.677051424419027
20
45.266222386623
30
1.8047785488306544e-13
 70
     32
  0
VERTEX
  8
MY3DLAYER
10
29.07499999999993
20
45.431058083755424
30
1.8047785488306544e-13
 70
     32
  0
VERTEX
  8
MY3DLAYER
10
29.41672618895781
20
45.69327381104205
30
1.8047785488306544e-13
 70
     32
  0
VERTEX
  8
MY3DLAYER
10
29.67894191624434
20
46.034999999999926
30
1.8047785488306544e-13
 70
     32
  0
VERTEX
  8
MY3DLAYER
10
29.84377761337681
20
46.43294857558078
30
1.8047785488306544e-13
 70
     32
  0
VERTEX
  8
MY3DLAYER
10
29.899999999999878
20
46.85999999999983
30
1.8047785488306544e-13
 70
     32
  0
VERTEX
  8
MY3DLAYER
10
29.84377761337681
20
47.28705142441896
30
1.8047785488306544e-13
 70
     32
  0
VERTEX
  8
MY3DLAYER
10
29.67894191624434
20
47.684999999999825
30
1.8047785488306544e-13
 70
     32
  0
VERTEX
  8
MY3DLAYER
10
29.41672618895781
20
48.02672618895761
30
1.8047785488306544e-13
 70
     32
  0
VERTEX
  8
MY3DLAYER
10
29.07499999999993
20
48.28894191624414
30
1.8047785488306544e-13
 70
     32
  0
VERTEX
  8
MY3DLAYER
10
28.677051424419027
20
48.453777613376744
30
1.8047785488306544e-13
 70
     32
  0
SEQEND
  0
POLYLINE
 8
Layer0
 66
     1
70
    8
 10
0.0
 20
 0.0
 30
0.0
  0
VERTEX
  8
MY3DLAYER
10
47.24999999999986
20
48.510000000000176
30
1.8047785488306544e-13
 70
     32
  0
VERTEX
  8
MY3DLAYER
10
46.82294857558081
20
48.45377761337693
30
1.8047785488306544e-13
 70
     32
  0
VERTEX
  8
MY3DLAYER
10
46.42499999999991
20
48.28894191624441
30
1.8047785488306544e-13
 70
     32
  0
VERTEX
  8
MY3DLAYER
10
46.083273811042034
20
48.02672618895788
30
1.8047785488306544e-13
 70
     32
  0
VERTEX
  8
MY3DLAYER
10
45.821058083755545
20
47.685
30
1.8047785488306544e-13
 70
     32
  0
VERTEX
  8
MY3DLAYER
10
45.65622238662303
20
47.28705142441915
30
1.8047785488306544e-13
 70
     32
  0
VERTEX
  8
MY3DLAYER
10
45.59999999999996
20
46.8600000000001
30
1.8047785488306544e-13
 70
     32
  0
VERTEX
  8
MY3DLAYER
10
45.65622238662303
20
46.432948575580966
30
1.8047785488306544e-13
 70
     32
  0
VERTEX
  8
MY3DLAYER
10
45.821058083755545
20
46.0350000000001
30
1.8047785488306544e-13
 70
     32
  0
VERTEX
  8
MY3DLAYER
10
46.083273811042034
20
45.69327381104232
30
1.8047785488306544e-13
 70
     32
  0
VERTEX
  8
MY3DLAYER
10
46.42499999999991
20
45.43105808375561
30
1.8047785488306544e-13
 70
     32
  0
VERTEX
  8
MY3DLAYER
10
46.82294857558081
20
45.266222386623184
30
1.8047785488306544e-13
 70
     32
  0
VERTEX
  8
MY3DLAYER
10
47.24999999999986
20
45.20999999999993
30
1.8047785488306544e-13
 70
     32
  0
VERTEX
  8
MY3DLAYER
10
47.677051424419176
20
45.266222386623184
30
1.8047785488306544e-13
 70
     32
  0
VERTEX
  8
MY3DLAYER
10
48.07500000000003
20
45.43105808375561
30
1.8047785488306544e-13
 70
     32
  0
VERTEX
  8
MY3DLAYER
10
48.41672618895768
20
45.69327381104232
30
1.8047785488306544e-13
 70
     32
  0
VERTEX
  8
MY3DLAYER
10
48.67894191624426
20
46.0350000000001
30
1.8047785488306544e-13
 70
     32
  0
VERTEX
  8
MY3DLAYER
10
48.84377761337696
20
46.432948575580966
30
1.8047785488306544e-13
 70
     32
  0
VERTEX
  8
MY3DLAYER
10
48.90000000000002
20
46.8600000000001
30
1.8047785488306544e-13
 70
     32
  0
VERTEX
  8
MY3DLAYER
10
48.84377761337696
20
47.28705142441915
30
1.8047785488306544e-13
 70
     32
  0
VERTEX
  8
MY3DLAYER
10
48.67894191624426
20
47.685
30
1.8047785488306544e-13
 70
     32
  0
VERTEX
  8
MY3DLAYER
10
48.41672618895768
20
48.02672618895788
30
1.8047785488306544e-13
 70
     32
  0
VERTEX
  8
MY3DLAYER
10
48.07500000000003
20
48.28894191624441
30
1.8047785488306544e-13
 70
     32
  0
VERTEX
  8
MY3DLAYER
10
47.677051424419176
20
48.45377761337693
30
1.8047785488306544e-13
 70
     32
  0
VERTEX
  8
MY3DLAYER
10
47.24999999999986
20
48.510000000000176
30
1.8047785488306544e-13
 70
     32
  0
SEQEND
  0
POLYLINE
 8
Layer0
 66
     1
70
    8
 10
0.0
 20
 0.0
 30
0.0
  0
VERTEX
  8
MY3DLAYER
10
51.82294857558076
20
48.45377761337666
30
0.0
 70
     32
  0
VERTEX
  8
MY3DLAYER
10
51.4249999999999
20
48.28894191624414
30
0.0
 70
     32
  0
VERTEX
  8
MY3DLAYER
10
51.083273811042204
20
48.02672618895752
30
0.0
 70
     32
  0
VERTEX
  8
MY3DLAYER
10
50.821058083755624
20
47.68499999999991
30
0.0
 70
     32
  0
VERTEX
  8
MY3DLAYER
10
50.65622238662298
20
47.28705142441888
30
0.0
 70
     32
  0
VERTEX
  8
MY3DLAYER
10
50.59999999999991
20
46.85999999999974
30
0.0
 70
     32
  0
VERTEX
  8
MY3DLAYER
10
50.65622238662298
20
46.4329485755806
30
0.0
 70
     32
  0
VERTEX
  8
MY3DLAYER
10
50.821058083755624
20
46.03499999999983
30
0.0
 70
     32
  0
VERTEX
  8
MY3DLAYER
10
51.083273811042204
20
45.693273811041955
30
0.0
 70
     32
  0
VERTEX
  8
MY3DLAYER
10
51.4249999999999
20
45.43105808375525
30
0.0
 70
     32
  0
VERTEX
  8
MY3DLAYER
10
51.82294857558076
20
45.26622238662282
30
0.0
 70
     32
  0
VERTEX
  8
MY3DLAYER
10
52.249999999999986
20
45.20999999999966
30
0.0
 70
     32
  0
VERTEX
  8
MY3DLAYER
10
52.67705142441912
20
45.26622238662282
30
0.0
 70
     32
  0
VERTEX
  8
MY3DLAYER
10
53.07499999999989
20
45.43105808375525
30
0.0
 70
     32
  0
VERTEX
  8
MY3DLAYER
10
53.41672618895785
20
45.693273811041955
30
0.0
 70
     32
  0
VERTEX
  8
MY3DLAYER
10
53.67894191624425
20
46.03499999999983
30
0.0
 70
     32
  0
VERTEX
  8
MY3DLAYER
10
53.8437776133769
20
46.4329485755806
30
0.0
 70
     32
  0
VERTEX
  8
MY3DLAYER
10
53.89999999999992
20
46.85999999999974
30
0.0
 70
     32
  0
VERTEX
  8
MY3DLAYER
10
53.8437776133769
20
47.28705142441888
30
0.0
 70
     32
  0
VERTEX
  8
MY3DLAYER
10
53.67894191624425
20
47.68499999999991
30
0.0
 70
     32
  0
VERTEX
  8
MY3DLAYER
10
53.41672618895785
20
48.02672618895752
30
0.0
 70
     32
  0
VERTEX
  8
MY3DLAYER
10
53.07499999999989
20
48.28894191624414
30
0.0
 70
     32
  0
VERTEX
  8
MY3DLAYER
10
52.67705142441912
20
48.45377761337666
30
0.0
 70
     32
  0
VERTEX
  8
MY3DLAYER
10
52.249999999999986
20
48.50999999999972
30
0.0
 70
     32
  0
VERTEX
  8
MY3DLAYER
10
51.82294857558076
20
48.45377761337666
30
0.0
 70
     32
  0
SEQEND
  0
POLYLINE
 8
Layer0
 66
     1
70
    8
 10
0.0
 20
 0.0
 30
0.0
  0
VERTEX
  8
MY3DLAYER
10
74.09377761337883
20
14.43294857558075
30
5.414335646491963e-13
 70
     32
  0
VERTEX
  8
MY3DLAYER
10
74.15000000000191
20
14.860000000000067
30
5.414335646491963e-13
 70
     32
  0
VERTEX
  8
MY3DLAYER
10
74.09377761337883
20
15.287051424419023
30
5.414335646491963e-13
 70
     32
  0
VERTEX
  8
MY3DLAYER
10
73.92894191624615
20
15.68499999999988
30
5.414335646491963e-13
 70
     32
  0
VERTEX
  8
MY3DLAYER
10
73.66672618895961
20
16.02672618895785
30
5.414335646491963e-13
 70
     32
  0
VERTEX
  8
MY3DLAYER
10
73.3250000000019
20
16.28894191624429
30
5.414335646491963e-13
 70
     32
  0
VERTEX
  8
MY3DLAYER
10
72.92705142442105
20
16.453777613376804
30
5.414335646491963e-13
 70
     32
  0
VERTEX
  8
MY3DLAYER
10
72.50000000000179
20
16.509999999999874
30
5.414335646491963e-13
 70
     32
  0
VERTEX
  8
MY3DLAYER
10
72.0729485755827
20
16.453777613376804
30
5.414335646491963e-13
 70
     32
  0
VERTEX
  8
MY3DLAYER
10
71.67500000000183
20
16.28894191624429
30
5.414335646491963e-13
 70
     32
  0
VERTEX
  8
MY3DLAYER
10
71.33327381104395
20
16.02672618895785
30
5.414335646491963e-13
 70
     32
  0
VERTEX
  8
MY3DLAYER
10
71.07105808375748
20
15.68499999999988
30
5.414335646491963e-13
 70
     32
  0
VERTEX
  8
MY3DLAYER
10
70.90622238662492
20
15.287051424419023
30
5.414335646491963e-13
 70
     32
  0
VERTEX
  8
MY3DLAYER
10
70.8500000000018
20
14.860000000000067
30
5.414335646491963e-13
 70
     32
  0
VERTEX
  8
MY3DLAYER
10
70.90622238662492
20
14.43294857558075
30
5.414335646491963e-13
 70
     32
  0
VERTEX
  8
MY3DLAYER
10
71.07105808375748
20
14.034999999999894
30
5.414335646491963e-13
 70
     32
  0
VERTEX
  8
MY3DLAYER
10
71.33327381104395
20
13.693273811042285
30
5.414335646491963e-13
 70
     32
  0
VERTEX
  8
MY3DLAYER
10
71.67500000000183
20
13.431058083755664
30
5.414335646491963e-13
 70
     32
  0
VERTEX
  8
MY3DLAYER
10
72.0729485755827
20
13.26622238662297
30
5.414335646491963e-13
 70
     32
  0
VERTEX
  8
MY3DLAYER
10
72.50000000000179
20
13.209999999999901
30
5.414335646491963e-13
 70
     32
  0
VERTEX
  8
MY3DLAYER
10
72.92705142442105
20
13.26622238662297
30
5.414335646491963e-13
 70
     32
  0
VERTEX
  8
MY3DLAYER
10
73.3250000000019
20
13.431058083755664
30
5.414335646491963e-13
 70
     32
  0
VERTEX
  8
MY3DLAYER
10
73.66672618895961
20
13.693273811042285
30
5.414335646491963e-13
 70
     32
  0
VERTEX
  8
MY3DLAYER
10
73.92894191624615
20
14.034999999999894
30
5.414335646491963e-13
 70
     32
  0
VERTEX
  8
MY3DLAYER
10
74.09377761337883
20
14.43294857558075
30
5.414335646491963e-13
 70
     32
  0
SEQEND
  0
POLYLINE
 8
Layer0
 66
     1
70
    8
 10
0.0
 20
 0.0
 30
0.0
  0
VERTEX
  8
MY3DLAYER
10
40.24999999999996
20
3.8499999999998464
30
0.0
 70
     32
  0
VERTEX
  8
MY3DLAYER
10
40.67705142441914
20
3.9062223866229147
30
0.0
 70
     32
  0
VERTEX
  8
MY3DLAYER
10
41.07499999999991
20
4.071058083755519
30
0.0
 70
     32
  0
VERTEX
  8
MY3DLAYER
10
41.41672618895783
20
4.333273811042141
30
0.0
 70
     32
  0
VERTEX
  8
MY3DLAYER
10
41.67894191624432
20
4.67499999999993
30
0.0
 70
     32
  0
VERTEX
  8
MY3DLAYER
10
41.84377761337692
20
5.072948575580696
30
0.0
 70
     32
  0
VERTEX
  8
MY3DLAYER
10
41.89999999999995
20
5.499999999999922
30
0.0
 70
     32
  0
VERTEX
  8
MY3DLAYER
10
41.84377761337692
20
5.927051424419059
30
0.0
 70
     32
  0
VERTEX
  8
MY3DLAYER
10
41.67894191624432
20
6.324999999999915
30
0.0
 70
     32
  0
VERTEX
  8
MY3DLAYER
10
41.41672618895783
20
6.666726188957703
30
0.0
 70
     32
  0
VERTEX
  8
MY3DLAYER
10
41.07499999999991
20
6.928941916244235
30
0.0
 70
     32
  0
VERTEX
  8
MY3DLAYER
10
40.67705142441914
20
7.09377761337684
30
0.0
 70
     32
  0
VERTEX
  8
MY3DLAYER
10
40.24999999999996
20
7.149999999999908
30
0.0
 70
     32
  0
VERTEX
  8
MY3DLAYER
10
39.82294857558078
20
7.09377761337684
30
0.0
 70
     32
  0
VERTEX
  8
MY3DLAYER
10
39.424999999999876
20
6.928941916244235
30
0.0
 70
     32
  0
VERTEX
  8
MY3DLAYER
10
39.08327381104209
20
6.666726188957703
30
0.0
 70
     32
  0
VERTEX
  8
MY3DLAYER
10
38.8210580837556
20
6.324999999999915
30
0.0
 70
     32
  0
VERTEX
  8
MY3DLAYER
10
38.656222386623
20
5.927051424419059
30
0.0
 70
     32
  0
VERTEX
  8
MY3DLAYER
10
38.59999999999997
20
5.499999999999922
30
0.0
 70
     32
  0
VERTEX
  8
MY3DLAYER
10
38.656222386623
20
5.072948575580696
30
0.0
 70
     32
  0
VERTEX
  8
MY3DLAYER
10
38.8210580837556
20
4.67499999999993
30
0.0
 70
     32
  0
VERTEX
  8
MY3DLAYER
10
39.08327381104209
20
4.333273811042141
30
0.0
 70
     32
  0
VERTEX
  8
MY3DLAYER
10
39.424999999999876
20
4.071058083755519
30
0.0
 70
     32
  0
VERTEX
  8
MY3DLAYER
10
39.82294857558078
20
3.9062223866229147
30
0.0
 70
     32
  0
VERTEX
  8
MY3DLAYER
10
40.24999999999996
20
3.8499999999998464
30
0.0
 70
     32
  0
SEQEND
  0
POLYLINE
 8
Layer0
 66
     1
70
    8
 10
0.0
 20
 0.0
 30
0.0
  0
VERTEX
  8
MY3DLAYER
10
34.07500000000005
20
4.071058083755699
30
1.8047785488306544e-13
 70
     32
  0
VERTEX
  8
MY3DLAYER
10
34.41672618895789
20
4.333273811042231
30
1.8047785488306544e-13
 70
     32
  0
VERTEX
  8
MY3DLAYER
10
34.678941916244376
20
4.675000000000019
30
1.8047785488306544e-13
 70
     32
  0
VERTEX
  8
MY3DLAYER
10
34.84377761337703
20
5.072948575580786
30
1.8047785488306544e-13
 70
     32
  0
VERTEX
  8
MY3DLAYER
10
34.90000000000005
20
5.500000000000012
30
1.8047785488306544e-13
 70
     32
  0
VERTEX
  8
MY3DLAYER
10
34.84377761337703
20
5.927051424419239
30
1.8047785488306544e-13
 70
     32
  0
VERTEX
  8
MY3DLAYER
10
34.678941916244376
20
6.3250000000000055
30
1.8047785488306544e-13
 70
     32
  0
VERTEX
  8
MY3DLAYER
10
34.41672618895789
20
6.666726188957794
30
1.8047785488306544e-13
 70
     32
  0
VERTEX
  8
MY3DLAYER
10
34.07500000000005
20
6.9289419162444155
30
1.8047785488306544e-13
 70
     32
  0
VERTEX
  8
MY3DLAYER
10
33.67705142441925
20
7.0937776133770205
30
1.8047785488306544e-13
 70
     32
  0
VERTEX
  8
MY3DLAYER
10
33.250000000000064
20
7.149999999999999
30
1.8047785488306544e-13
 70
     32
  0
VERTEX
  8
MY3DLAYER
10
32.82294857558088
20
7.0937776133770205
30
1.8047785488306544e-13
 70
     32
  0
VERTEX
  8
MY3DLAYER
10
32.42500000000007
20
6.9289419162444155
30
1.8047785488306544e-13
 70
     32
  0
VERTEX
  8
MY3DLAYER
10
32.08327381104224
20
6.666726188957794
30
1.8047785488306544e-13
 70
     32
  0
VERTEX
  8
MY3DLAYER
10
31.821058083755705
20
6.3250000000000055
30
1.8047785488306544e-13
 70
     32
  0
VERTEX
  8
MY3DLAYER
10
31.6562223866231
20
5.927051424419239
30
1.8047785488306544e-13
 70
     32
  0
VERTEX
  8
MY3DLAYER
10
31.600000000000033
20
5.500000000000012
30
1.8047785488306544e-13
 70
     32
  0
VERTEX
  8
MY3DLAYER
10
31.6562223866231
20
5.072948575580786
30
1.8047785488306544e-13
 70
     32
  0
VERTEX
  8
MY3DLAYER
10
31.821058083755705
20
4.675000000000019
30
1.8047785488306544e-13
 70
     32
  0
VERTEX
  8
MY3DLAYER
10
32.08327381104224
20
4.333273811042231
30
1.8047785488306544e-13
 70
     32
  0
VERTEX
  8
MY3DLAYER
10
32.42500000000007
20
4.071058083755699
30
1.8047785488306544e-13
 70
     32
  0
VERTEX
  8
MY3DLAYER
10
32.82294857558088
20
3.906222386623005
30
1.8047785488306544e-13
 70
     32
  0
VERTEX
  8
MY3DLAYER
10
33.250000000000064
20
3.8500000000000267
30
1.8047785488306544e-13
 70
     32
  0
VERTEX
  8
MY3DLAYER
10
33.67705142441925
20
3.906222386623005
30
1.8047785488306544e-13
 70
     32
  0
VERTEX
  8
MY3DLAYER
10
34.07500000000005
20
4.071058083755699
30
1.8047785488306544e-13
 70
     32
  0
SEQEND
  0
POLYLINE
 8
Layer0
 66
     1
70
    8
 10
0.0
 20
 0.0
 30
0.0
  0
VERTEX
  8
MY3DLAYER
10
18.406222386623046
20
15.287051424419204
30
3.6095570976613087e-13
 70
     32
  0
VERTEX
  8
MY3DLAYER
10
18.349999999999977
20
14.860000000000067
30
3.6095570976613087e-13
 70
     32
  0
VERTEX
  8
MY3DLAYER
10
18.406222386623046
20
14.432948575580932
30
3.6095570976613087e-13
 70
     32
  0
VERTEX
  8
MY3DLAYER
10
18.571058083755606
20
14.034999999999894
30
3.6095570976613087e-13
 70
     32
  0
VERTEX
  8
MY3DLAYER
10
18.833273811042137
20
13.693273811042285
30
3.6095570976613087e-13
 70
     32
  0
VERTEX
  8
MY3DLAYER
10
19.17499999999997
20
13.431058083755845
30
3.6095570976613087e-13
 70
     32
  0
VERTEX
  8
MY3DLAYER
10
19.572948575580828
20
13.26622238662315
30
3.6095570976613087e-13
 70
     32
  0
VERTEX
  8
MY3DLAYER
10
20.000000000000007
20
13.210000000000083
30
3.6095570976613087e-13
 70
     32
  0
VERTEX
  8
MY3DLAYER
10
20.42705142441919
20
13.26622238662315
30
3.6095570976613087e-13
 70
     32
  0
VERTEX
  8
MY3DLAYER
10
20.825000000000045
20
13.431058083755845
30
3.6095570976613087e-13
 70
     32
  0
VERTEX
  8
MY3DLAYER
10
21.166726188957835
20
13.693273811042285
30
3.6095570976613087e-13
 70
     32
  0
VERTEX
  8
MY3DLAYER
10
21.428941916244323
20
14.034999999999894
30
3.6095570976613087e-13
 70
     32
  0
VERTEX
  8
MY3DLAYER
10
21.59377761337697
20
14.432948575580932
30
3.6095570976613087e-13
 70
     32
  0
VERTEX
  8
MY3DLAYER
10
21.650000000000038
20
14.860000000000067
30
3.6095570976613087e-13
 70
     32
  0
VERTEX
  8
MY3DLAYER
10
21.59377761337697
20
15.287051424419204
30
3.6095570976613087e-13
 70
     32
  0
VERTEX
  8
MY3DLAYER
10
21.428941916244323
20
15.68500000000024
30
3.6095570976613087e-13
 70
     32
  0
VERTEX
  8
MY3DLAYER
10
21.166726188957835
20
16.02672618895785
30
3.6095570976613087e-13
 70
     32
  0
VERTEX
  8
MY3DLAYER
10
20.825000000000045
20
16.28894191624447
30
3.6095570976613087e-13
 70
     32
  0
VERTEX
  8
MY3DLAYER
10
20.42705142441919
20
16.453777613376985
30
3.6095570976613087e-13
 70
     32
  0
VERTEX
  8
MY3DLAYER
10
20.000000000000007
20
16.510000000000232
30
3.6095570976613087e-13
 70
     32
  0
VERTEX
  8
MY3DLAYER
10
19.572948575580828
20
16.453777613376985
30
3.6095570976613087e-13
 70
     32
  0
VERTEX
  8
MY3DLAYER
10
19.17499999999997
20
16.28894191624447
30
3.6095570976613087e-13
 70
     32
  0
VERTEX
  8
MY3DLAYER
10
18.833273811042137
20
16.02672618895785
30
3.6095570976613087e-13
 70
     32
  0
VERTEX
  8
MY3DLAYER
10
18.571058083755606
20
15.68500000000024
30
3.6095570976613087e-13
 70
     32
  0
VERTEX
  8
MY3DLAYER
10
18.406222386623046
20
15.287051424419204
30
3.6095570976613087e-13
 70
     32
  0
SEQEND
  0
POLYLINE
 8
Layer0
 66
     1
70
    8
 10
0.0
 20
 0.0
 30
0.0
  0
VERTEX
  8
MY3DLAYER
10
28.249999999999982
20
3.8500000000000267
30
1.8047785488306544e-13
 70
     32
  0
VERTEX
  8
MY3DLAYER
10
28.67705142441916
20
3.906222386623005
30
1.8047785488306544e-13
 70
     32
  0
VERTEX
  8
MY3DLAYER
10
29.074999999999974
20
4.071058083755699
30
1.8047785488306544e-13
 70
     32
  0
VERTEX
  8
MY3DLAYER
10
29.41672618895781
20
4.333273811042231
30
1.8047785488306544e-13
 70
     32
  0
VERTEX
  8
MY3DLAYER
10
29.678941916244295
20
4.675000000000019
30
1.8047785488306544e-13
 70
     32
  0
VERTEX
  8
MY3DLAYER
10
29.843777613376943
20
5.072948575580786
30
1.8047785488306544e-13
 70
     32
  0
VERTEX
  8
MY3DLAYER
10
29.899999999999967
20
5.500000000000012
30
1.8047785488306544e-13
 70
     32
  0
VERTEX
  8
MY3DLAYER
10
29.843777613376943
20
5.927051424419239
30
1.8047785488306544e-13
 70
     32
  0
VERTEX
  8
MY3DLAYER
10
29.678941916244295
20
6.3250000000000055
30
1.8047785488306544e-13
 70
     32
  0
VERTEX
  8
MY3DLAYER
10
29.41672618895781
20
6.666726188957794
30
1.8047785488306544e-13
 70
     32
  0
VERTEX
  8
MY3DLAYER
10
29.074999999999974
20
6.9289419162444155
30
1.8047785488306544e-13
 70
     32
  0
VERTEX
  8
MY3DLAYER
10
28.67705142441916
20
7.0937776133770205
30
1.8047785488306544e-13
 70
     32
  0
VERTEX
  8
MY3DLAYER
10
28.249999999999982
20
7.149999999999999
30
1.8047785488306544e-13
 70
     32
  0
VERTEX
  8
MY3DLAYER
10
27.8229485755808
20
7.0937776133770205
30
1.8047785488306544e-13
 70
     32
  0
VERTEX
  8
MY3DLAYER
10
27.42499999999999
20
6.9289419162444155
30
1.8047785488306544e-13
 70
     32
  0
VERTEX
  8
MY3DLAYER
10
27.083273811042154
20
6.666726188957794
30
1.8047785488306544e-13
 70
     32
  0
VERTEX
  8
MY3DLAYER
10
26.821058083755624
20
6.3250000000000055
30
1.8047785488306544e-13
 70
     32
  0
VERTEX
  8
MY3DLAYER
10
26.656222386623018
20
5.927051424419239
30
1.8047785488306544e-13
 70
     32
  0
VERTEX
  8
MY3DLAYER
10
26.59999999999995
20
5.500000000000012
30
1.8047785488306544e-13
 70
     32
  0
VERTEX
  8
MY3DLAYER
10
26.656222386623018
20
5.072948575580786
30
1.8047785488306544e-13
 70
     32
  0
VERTEX
  8
MY3DLAYER
10
26.821058083755624
20
4.675000000000019
30
1.8047785488306544e-13
 70
     32
  0
VERTEX
  8
MY3DLAYER
10
27.083273811042154
20
4.333273811042231
30
1.8047785488306544e-13
 70
     32
  0
VERTEX
  8
MY3DLAYER
10
27.42499999999999
20
4.071058083755699
30
1.8047785488306544e-13
 70
     32
  0
VERTEX
  8
MY3DLAYER
10
27.8229485755808
20
3.906222386623005
30
1.8047785488306544e-13
 70
     32
  0
VERTEX
  8
MY3DLAYER
10
28.249999999999982
20
3.8500000000000267
30
1.8047785488306544e-13
 70
     32
  0
SEQEND
  0
POLYLINE
 8
Layer0
 66
     1
70
    8
 10
0.0
 20
 0.0
 30
0.0
  0
VERTEX
  8
MY3DLAYER
10
46.425
20
4.071058083755519
30
3.6095570976613087e-13
 70
     32
  0
VERTEX
  8
MY3DLAYER
10
46.82294857558081
20
3.906222386623005
30
3.6095570976613087e-13
 70
     32
  0
VERTEX
  8
MY3DLAYER
10
47.24999999999999
20
3.8499999999999366
30
3.6095570976613087e-13
 70
     32
  0
VERTEX
  8
MY3DLAYER
10
47.677051424419176
20
3.906222386623005
30
3.6095570976613087e-13
 70
     32
  0
VERTEX
  8
MY3DLAYER
10
48.07500000000003
20
4.071058083755519
30
3.6095570976613087e-13
 70
     32
  0
VERTEX
  8
MY3DLAYER
10
48.41672618895782
20
4.333273811042141
30
3.6095570976613087e-13
 70
     32
  0
VERTEX
  8
MY3DLAYER
10
48.67894191624435
20
4.67499999999993
30
3.6095570976613087e-13
 70
     32
  0
VERTEX
  8
MY3DLAYER
10
48.84377761337696
20
5.072948575580786
30
3.6095570976613087e-13
 70
     32
  0
VERTEX
  8
MY3DLAYER
10
48.90000000000002
20
5.499999999999922
30
3.6095570976613087e-13
 70
     32
  0
VERTEX
  8
MY3DLAYER
10
48.84377761337696
20
5.927051424419239
30
3.6095570976613087e-13
 70
     32
  0
VERTEX
  8
MY3DLAYER
10
48.67894191624435
20
6.324999999999915
30
3.6095570976613087e-13
 70
     32
  0
VERTEX
  8
MY3DLAYER
10
48.41672618895782
20
6.666726188957703
30
3.6095570976613087e-13
 70
     32
  0
VERTEX
  8
MY3DLAYER
10
48.07500000000003
20
6.928941916244235
30
3.6095570976613087e-13
 70
     32
  0
VERTEX
  8
MY3DLAYER
10
47.677051424419176
20
7.0937776133770205
30
3.6095570976613087e-13
 70
     32
  0
VERTEX
  8
MY3DLAYER
10
47.24999999999999
20
7.149999999999908
30
3.6095570976613087e-13
 70
     32
  0
VERTEX
  8
MY3DLAYER
10
46.82294857558081
20
7.0937776133770205
30
3.6095570976613087e-13
 70
     32
  0
VERTEX
  8
MY3DLAYER
10
46.425
20
6.928941916244235
30
3.6095570976613087e-13
 70
     32
  0
VERTEX
  8
MY3DLAYER
10
46.08327381104217
20
6.666726188957703
30
3.6095570976613087e-13
 70
     32
  0
VERTEX
  8
MY3DLAYER
10
45.82105808375568
20
6.324999999999915
30
3.6095570976613087e-13
 70
     32
  0
VERTEX
  8
MY3DLAYER
10
45.65622238662303
20
5.927051424419239
30
3.6095570976613087e-13
 70
     32
  0
VERTEX
  8
MY3DLAYER
10
45.599999999999916
20
5.499999999999922
30
3.6095570976613087e-13
 70
     32
  0
VERTEX
  8
MY3DLAYER
10
45.65622238662303
20
5.072948575580786
30
3.6095570976613087e-13
 70
     32
  0
VERTEX
  8
MY3DLAYER
10
45.82105808375568
20
4.67499999999993
30
3.6095570976613087e-13
 70
     32
  0
VERTEX
  8
MY3DLAYER
10
46.08327381104217
20
4.333273811042141
30
3.6095570976613087e-13
 70
     32
  0
VERTEX
  8
MY3DLAYER
10
46.425
20
4.071058083755519
30
3.6095570976613087e-13
 70
     32
  0
SEQEND
  0
POLYLINE
 8
Layer0
 66
     1
70
    8
 10
0.0
 20
 0.0
 30
0.0
  0
VERTEX
  8
MY3DLAYER
10
53.84377761337694
20
5.072948575580786
30
3.6095570976613087e-13
 70
     32
  0
VERTEX
  8
MY3DLAYER
10
53.89999999999997
20
5.500000000000103
30
3.6095570976613087e-13
 70
     32
  0
VERTEX
  8
MY3DLAYER
10
53.84377761337694
20
5.927051424419148
30
3.6095570976613087e-13
 70
     32
  0
VERTEX
  8
MY3DLAYER
10
53.67894191624425
20
6.324999999999915
30
3.6095570976613087e-13
 70
     32
  0
VERTEX
  8
MY3DLAYER
10
53.41672618895781
20
6.666726188957885
30
3.6095570976613087e-13
 70
     32
  0
VERTEX
  8
MY3DLAYER
10
53.074999999999974
20
6.928941916244326
30
3.6095570976613087e-13
 70
     32
  0
VERTEX
  8
MY3DLAYER
10
52.67705142441916
20
7.09377761337693
30
3.6095570976613087e-13
 70
     32
  0
VERTEX
  8
MY3DLAYER
10
52.249999999999986
20
7.149999999999908
30
3.6095570976613087e-13
 70
     32
  0
VERTEX
  8
MY3DLAYER
10
51.8229485755808
20
7.09377761337693
30
3.6095570976613087e-13
 70
     32
  0
VERTEX
  8
MY3DLAYER
10
51.42499999999995
20
6.928941916244326
30
3.6095570976613087e-13
 70
     32
  0
VERTEX
  8
MY3DLAYER
10
51.083273811042154
20
6.666726188957885
30
3.6095570976613087e-13
 70
     32
  0
VERTEX
  8
MY3DLAYER
10
50.821058083755624
20
6.324999999999915
30
3.6095570976613087e-13
 70
     32
  0
VERTEX
  8
MY3DLAYER
10
50.65622238662302
20
5.927051424419148
30
3.6095570976613087e-13
 70
     32
  0
VERTEX
  8
MY3DLAYER
10
50.59999999999995
20
5.500000000000103
30
3.6095570976613087e-13
 70
     32
  0
VERTEX
  8
MY3DLAYER
10
50.65622238662302
20
5.072948575580786
30
3.6095570976613087e-13
 70
     32
  0
VERTEX
  8
MY3DLAYER
10
50.821058083755624
20
4.67499999999993
30
3.6095570976613087e-13
 70
     32
  0
VERTEX
  8
MY3DLAYER
10
51.083273811042154
20
4.3332738110423215
30
3.6095570976613087e-13
 70
     32
  0
VERTEX
  8
MY3DLAYER
10
51.42499999999995
20
4.071058083755699
30
3.6095570976613087e-13
 70
     32
  0
VERTEX
  8
MY3DLAYER
10
51.8229485755808
20
3.906222386623005
30
3.6095570976613087e-13
 70
     32
  0
VERTEX
  8
MY3DLAYER
10
52.249999999999986
20
3.8499999999999366
30
3.6095570976613087e-13
 70
     32
  0
VERTEX
  8
MY3DLAYER
10
52.67705142441916
20
3.906222386623005
30
3.6095570976613087e-13
 70
     32
  0
VERTEX
  8
MY3DLAYER
10
53.074999999999974
20
4.071058083755699
30
3.6095570976613087e-13
 70
     32
  0
VERTEX
  8
MY3DLAYER
10
53.41672618895781
20
4.3332738110423215
30
3.6095570976613087e-13
 70
     32
  0
VERTEX
  8
MY3DLAYER
10
53.67894191624425
20
4.67499999999993
30
3.6095570976613087e-13
 70
     32
  0
VERTEX
  8
MY3DLAYER
10
53.84377761337694
20
5.072948575580786
30
3.6095570976613087e-13
 70
     32
  0
SEQEND
  0
POLYLINE
 8
Layer0
 66
     1
70
    8
 10
0.0
 20
 0.0
 30
0.0
  0
VERTEX
  8
MY3DLAYER
10
17.86862915010154
20
25.02862915010151
30
1.8047785488306544e-13
 70
     32
  0
VERTEX
  8
MY3DLAYER
10
18.200000000000014
20
24.774359353944895
30
1.8047785488306544e-13
 70
     32
  0
VERTEX
  8
MY3DLAYER
10
18.585889527835956
20
24.614518677937546
30
1.8047785488306544e-13
 70
     32
  0
VERTEX
  8
MY3DLAYER
10
19.00000000000001
20
24.560000000000027
30
1.8047785488306544e-13
 70
     32
  0
VERTEX
  8
MY3DLAYER
10
19.414110472164065
20
24.614518677937546
30
1.8047785488306544e-13
 70
     32
  0
VERTEX
  8
MY3DLAYER
10
19.800000000000008
20
24.774359353944895
30
1.8047785488306544e-13
 70
     32
  0
VERTEX
  8
MY3DLAYER
10
20.13137084989848
20
25.02862915010151
30
1.8047785488306544e-13
 70
     32
  0
VERTEX
  8
MY3DLAYER
10
20.385640646055094
20
25.360000000000024
30
1.8047785488306544e-13
 70
     32
  0
VERTEX
  8
MY3DLAYER
10
20.545481322062535
20
25.74588952783597
30
1.8047785488306544e-13
 70
     32
  0
VERTEX
  8
MY3DLAYER
10
20.60000000000001
20
26.160000000000025
30
1.8047785488306544e-13
 70
     32
  0
VERTEX
  8
MY3DLAYER
10
20.545481322062535
20
26.57411047216408
30
1.8047785488306544e-13
 70
     32
  0
VERTEX
  8
MY3DLAYER
10
20.385640646055094
20
26.960000000000022
30
1.8047785488306544e-13
 70
     32
  0
VERTEX
  8
MY3DLAYER
10
20.13137084989848
20
27.291370849898538
30
1.8047785488306544e-13
 70
     32
  0
VERTEX
  8
MY3DLAYER
10
19.800000000000008
20
27.545640646055155
30
1.8047785488306544e-13
 70
     32
  0
VERTEX
  8
MY3DLAYER
10
19.41411047216402
20
27.705481322062504
30
1.8047785488306544e-13
 70
     32
  0
VERTEX
  8
MY3DLAYER
10
19.00000000000001
20
27.760000000000023
30
1.8047785488306544e-13
 70
     32
  0
VERTEX
  8
MY3DLAYER
10
18.585889527835956
20
27.705481322062504
30
1.8047785488306544e-13
 70
     32
  0
VERTEX
  8
MY3DLAYER
10
18.200000000000014
20
27.545640646055155
30
1.8047785488306544e-13
 70
     32
  0
VERTEX
  8
MY3DLAYER
10
17.86862915010154
20
27.291370849898538
30
1.8047785488306544e-13
 70
     32
  0
VERTEX
  8
MY3DLAYER
10
17.614359353944927
20
26.960000000000022
30
1.8047785488306544e-13
 70
     32
  0
VERTEX
  8
MY3DLAYER
10
17.454518677937486
20
26.57411047216408
30
1.8047785488306544e-13
 70
     32
  0
VERTEX
  8
MY3DLAYER
10
17.400000000000013
20
26.160000000000025
30
1.8047785488306544e-13
 70
     32
  0
VERTEX
  8
MY3DLAYER
10
17.454518677937486
20
25.74588952783597
30
1.8047785488306544e-13
 70
     32
  0
VERTEX
  8
MY3DLAYER
10
17.614359353944927
20
25.360000000000024
30
1.8047785488306544e-13
 70
     32
  0
VERTEX
  8
MY3DLAYER
10
17.86862915010154
20
25.02862915010151
30
1.8047785488306544e-13
 70
     32
  0
SEQEND
  0
POLYLINE
 8
Layer0
 66
     1
70
    8
 10
0.0
 20
 0.0
 30
0.0
  0
VERTEX
  8
MY3DLAYER
10
4.971555764792944
20
26.703519994715347
30
1.8047785488306544e-13
 70
     32
  0
VERTEX
  8
MY3DLAYER
10
4.899999999999968
20
26.160000000000025
30
1.8047785488306544e-13
 70
     32
  0
VERTEX
  8
MY3DLAYER
10
4.971555764792944
20
25.616480005284703
30
1.8047785488306544e-13
 70
     32
  0
VERTEX
  8
MY3DLAYER
10
5.181346652052663
20
25.109999999999992
30
1.8047785488306544e-13
 70
     32
  0
VERTEX
  8
MY3DLAYER
10
5.51507575950822
20
24.675075759508303
30
1.8047785488306544e-13
 70
     32
  0
VERTEX
  8
MY3DLAYER
10
5.95
20
24.3413466520527
30
1.8047785488306544e-13
 70
     32
  0
VERTEX
  8
MY3DLAYER
10
6.45648000528471
20
24.13155576479298
30
1.8047785488306544e-13
 70
     32
  0
VERTEX
  8
MY3DLAYER
10
6.999999999999988
20
24.05999999999996
30
1.8047785488306544e-13
 70
     32
  0
VERTEX
  8
MY3DLAYER
10
7.543519994715264
20
24.13155576479298
30
1.8047785488306544e-13
 70
     32
  0
VERTEX
  8
MY3DLAYER
10
8.050000000000018
20
24.3413466520527
30
1.8047785488306544e-13
 70
     32
  0
VERTEX
  8
MY3DLAYER
10
8.484924240491754
20
24.675075759508303
30
1.8047785488306544e-13
 70
     32
  0
VERTEX
  8
MY3DLAYER
10
8.818653347947311
20
25.109999999999992
30
1.8047785488306544e-13
 70
     32
  0
VERTEX
  8
MY3DLAYER
10
9.028444235207031
20
25.616480005284703
30
1.8047785488306544e-13
 70
     32
  0
VERTEX
  8
MY3DLAYER
10
9.100000000000007
20
26.160000000000025
30
1.8047785488306544e-13
 70
     32
  0
VERTEX
  8
MY3DLAYER
10
9.028444235207031
20
26.703519994715347
30
1.8047785488306544e-13
 70
     32
  0
VERTEX
  8
MY3DLAYER
10
8.818653347947311
20
27.210000000000058
30
1.8047785488306544e-13
 70
     32
  0
VERTEX
  8
MY3DLAYER
10
8.484924240491754
20
27.644924240491747
30
1.8047785488306544e-13
 70
     32
  0
VERTEX
  8
MY3DLAYER
10
8.049999999999974
20
27.978653347947347
30
1.8047785488306544e-13
 70
     32
  0
VERTEX
  8
MY3DLAYER
10
7.543519994715264
20
28.18844423520707
30
1.8047785488306544e-13
 70
     32
  0
VERTEX
  8
MY3DLAYER
10
6.999999999999988
20
28.260000000000087
30
1.8047785488306544e-13
 70
     32
  0
VERTEX
  8
MY3DLAYER
10
6.456480005284666
20
28.18844423520707
30
1.8047785488306544e-13
 70
     32
  0
VERTEX
  8
MY3DLAYER
10
5.949999999999955
20
27.978653347947347
30
1.8047785488306544e-13
 70
     32
  0
VERTEX
  8
MY3DLAYER
10
5.51507575950822
20
27.644924240491747
30
1.8047785488306544e-13
 70
     32
  0
VERTEX
  8
MY3DLAYER
10
5.181346652052663
20
27.210000000000058
30
1.8047785488306544e-13
 70
     32
  0
VERTEX
  8
MY3DLAYER
10
4.971555764792944
20
26.703519994715347
30
1.8047785488306544e-13
 70
     32
  0
SEQEND
  0
POLYLINE
 8
Layer0
 66
     1
70
    8
 10
0.0
 20
 0.0
 30
0.0
  0
VERTEX
  8
MY3DLAYER
10
18.406222386623092
20
37.92743574445193
30
3.6095570976613087e-13
 70
     32
  0
VERTEX
  8
MY3DLAYER
10
18.350000000000023
20
37.500384320032886
30
3.6095570976613087e-13
 70
     32
  0
VERTEX
  8
MY3DLAYER
10
18.406222386623092
20
37.07333289561357
30
3.6095570976613087e-13
 70
     32
  0
VERTEX
  8
MY3DLAYER
10
18.571058083755695
20
36.6753843200328
30
3.6095570976613087e-13
 70
     32
  0
VERTEX
  8
MY3DLAYER
10
18.833273811042226
20
36.333658131075104
30
3.6095570976613087e-13
 70
     32
  0
VERTEX
  8
MY3DLAYER
10
19.17500000000006
20
36.07144240378857
30
3.6095570976613087e-13
 70
     32
  0
VERTEX
  8
MY3DLAYER
10
19.572948575580874
20
35.906606706655786
30
3.6095570976613087e-13
 70
     32
  0
VERTEX
  8
MY3DLAYER
10
20.000000000000053
20
35.85038432003272
30
3.6095570976613087e-13
 70
     32
  0
VERTEX
  8
MY3DLAYER
10
20.427051424419236
20
35.906606706655786
30
3.6095570976613087e-13
 70
     32
  0
VERTEX
  8
MY3DLAYER
10
20.82500000000009
20
36.07144240378857
30
3.6095570976613087e-13
 70
     32
  0
VERTEX
  8
MY3DLAYER
10
21.166726188957835
20
36.333658131075104
30
3.6095570976613087e-13
 70
     32
  0
VERTEX
  8
MY3DLAYER
10
21.428941916244323
20
36.6753843200328
30
3.6095570976613087e-13
 70
     32
  0
VERTEX
  8
MY3DLAYER
10
21.593777613377018
20
37.07333289561357
30
3.6095570976613087e-13
 70
     32
  0
VERTEX
  8
MY3DLAYER
10
21.650000000000084
20
37.500384320032886
30
3.6095570976613087e-13
 70
     32
  0
VERTEX
  8
MY3DLAYER
10
21.593777613377018
20
37.92743574445193
30
3.6095570976613087e-13
 70
     32
  0
VERTEX
  8
MY3DLAYER
10
21.428941916244323
20
38.32538432003297
30
3.6095570976613087e-13
 70
     32
  0
VERTEX
  8
MY3DLAYER
10
21.166726188957835
20
38.66711050899067
30
3.6095570976613087e-13
 70
     32
  0
VERTEX
  8
MY3DLAYER
10
20.82500000000009
20
38.9293262362772
30
3.6095570976613087e-13
 70
     32
  0
VERTEX
  8
MY3DLAYER
10
20.427051424419236
20
39.09416193340971
30
3.6095570976613087e-13
 70
     32
  0
VERTEX
  8
MY3DLAYER
10
20.000000000000053
20
39.15038432003278
30
3.6095570976613087e-13
 70
     32
  0
VERTEX
  8
MY3DLAYER
10
19.572948575580874
20
39.09416193340971
30
3.6095570976613087e-13
 70
     32
  0
VERTEX
  8
MY3DLAYER
10
19.17500000000006
20
38.9293262362772
30
3.6095570976613087e-13
 70
     32
  0
VERTEX
  8
MY3DLAYER
10
18.833273811042226
20
38.66711050899067
30
3.6095570976613087e-13
 70
     32
  0
VERTEX
  8
MY3DLAYER
10
18.571058083755695
20
38.32538432003297
30
3.6095570976613087e-13
 70
     32
  0
VERTEX
  8
MY3DLAYER
10
18.406222386623092
20
37.92743574445193
30
3.6095570976613087e-13
 70
     32
  0
SEQEND
  0
POLYLINE
 8
Layer0
 66
     1
70
    8
 10
0.0
 20
 0.0
 30
0.0
  0
VERTEX
  8
MY3DLAYER
10
4.350000000000003
20
37.500384320032886
30
1.8047785488306544e-13
 70
     32
  0
VERTEX
  8
MY3DLAYER
10
4.406222386623072
20
37.07333289561357
30
1.8047785488306544e-13
 70
     32
  0
VERTEX
  8
MY3DLAYER
10
4.571058083755676
20
36.67538432003271
30
1.8047785488306544e-13
 70
     32
  0
VERTEX
  8
MY3DLAYER
10
4.833273811042208
20
36.333658131075104
30
1.8047785488306544e-13
 70
     32
  0
VERTEX
  8
MY3DLAYER
10
5.174999999999951
20
36.07144240378848
30
1.8047785488306544e-13
 70
     32
  0
VERTEX
  8
MY3DLAYER
10
5.5729485755808525
20
35.906606706655786
30
1.8047785488306544e-13
 70
     32
  0
VERTEX
  8
MY3DLAYER
10
6.000000000000034
20
35.85038432003272
30
1.8047785488306544e-13
 70
     32
  0
VERTEX
  8
MY3DLAYER
10
6.427051424419215
20
35.906606706655786
30
1.8047785488306544e-13
 70
     32
  0
VERTEX
  8
MY3DLAYER
10
6.825000000000027
20
36.07144240378848
30
1.8047785488306544e-13
 70
     32
  0
VERTEX
  8
MY3DLAYER
10
7.166726188957861
20
36.333658131075104
30
1.8047785488306544e-13
 70
     32
  0
VERTEX
  8
MY3DLAYER
10
7.428941916244347
20
36.67538432003271
30
1.8047785488306544e-13
 70
     32
  0
VERTEX
  8
MY3DLAYER
10
7.5937776133769965
20
37.07333289561357
30
1.8047785488306544e-13
 70
     32
  0
VERTEX
  8
MY3DLAYER
10
7.65000000000002
20
37.500384320032886
30
1.8047785488306544e-13
 70
     32
  0
VERTEX
  8
MY3DLAYER
10
7.5937776133769965
20
37.92743574445193
30
1.8047785488306544e-13
 70
     32
  0
VERTEX
  8
MY3DLAYER
10
7.428941916244347
20
38.32538432003278
30
1.8047785488306544e-13
 70
     32
  0
VERTEX
  8
MY3DLAYER
10
7.166726188957861
20
38.66711050899067
30
1.8047785488306544e-13
 70
     32
  0
VERTEX
  8
MY3DLAYER
10
6.825000000000027
20
38.929326236277106
30
1.8047785488306544e-13
 70
     32
  0
VERTEX
  8
MY3DLAYER
10
6.427051424419215
20
39.09416193340971
30
1.8047785488306544e-13
 70
     32
  0
VERTEX
  8
MY3DLAYER
10
6.000000000000034
20
39.15038432003278
30
1.8047785488306544e-13
 70
     32
  0
VERTEX
  8
MY3DLAYER
10
5.5729485755808525
20
39.09416193340971
30
1.8047785488306544e-13
 70
     32
  0
VERTEX
  8
MY3DLAYER
10
5.174999999999951
20
38.929326236277106
30
1.8047785488306544e-13
 70
     32
  0
VERTEX
  8
MY3DLAYER
10
4.833273811042208
20
38.66711050899067
30
1.8047785488306544e-13
 70
     32
  0
VERTEX
  8
MY3DLAYER
10
4.571058083755676
20
38.32538432003278
30
1.8047785488306544e-13
 70
     32
  0
VERTEX
  8
MY3DLAYER
10
4.406222386623072
20
37.92743574445193
30
1.8047785488306544e-13
 70
     32
  0
VERTEX
  8
MY3DLAYER
10
4.350000000000003
20
37.500384320032886
30
1.8047785488306544e-13
 70
     32
  0
SEQEND
  0
POLYLINE
 8
Layer0
 66
     1
70
    8
 10
0.0
 20
 0.0
 30
0.0
  0
VERTEX
  8
MY3DLAYER
10
4.833273811042117
20
16.02672618895785
30
1.8047785488306544e-13
 70
     32
  0
VERTEX
  8
MY3DLAYER
10
4.571058083755585
20
15.685000000000061
30
1.8047785488306544e-13
 70
     32
  0
VERTEX
  8
MY3DLAYER
10
4.406222386622981
20
15.287051424419023
30
1.8047785488306544e-13
 70
     32
  0
VERTEX
  8
MY3DLAYER
10
4.349999999999868
20
14.860000000000067
30
1.8047785488306544e-13
 70
     32
  0
VERTEX
  8
MY3DLAYER
10
4.406222386622981
20
14.432948575580932
30
1.8047785488306544e-13
 70
     32
  0
VERTEX
  8
MY3DLAYER
10
4.571058083755585
20
14.035000000000075
30
1.8047785488306544e-13
 70
     32
  0
VERTEX
  8
MY3DLAYER
10
4.833273811042117
20
13.693273811042285
30
1.8047785488306544e-13
 70
     32
  0
VERTEX
  8
MY3DLAYER
10
5.174999999999906
20
13.431058083755664
30
1.8047785488306544e-13
 70
     32
  0
VERTEX
  8
MY3DLAYER
10
5.572948575580763
20
13.26622238662315
30
1.8047785488306544e-13
 70
     32
  0
VERTEX
  8
MY3DLAYER
10
5.999999999999899
20
13.209999999999901
30
1.8047785488306544e-13
 70
     32
  0
VERTEX
  8
MY3DLAYER
10
6.427051424419125
20
13.26622238662315
30
1.8047785488306544e-13
 70
     32
  0
VERTEX
  8
MY3DLAYER
10
6.824999999999937
20
13.431058083755664
30
1.8047785488306544e-13
 70
     32
  0
VERTEX
  8
MY3DLAYER
10
7.166726188957771
20
13.693273811042285
30
1.8047785488306544e-13
 70
     32
  0
VERTEX
  8
MY3DLAYER
10
7.428941916244257
20
14.035000000000075
30
1.8047785488306544e-13
 70
     32
  0
VERTEX
  8
MY3DLAYER
10
7.593777613376907
20
14.432948575580932
30
1.8047785488306544e-13
 70
     32
  0
VERTEX
  8
MY3DLAYER
10
7.650000000000065
20
14.860000000000067
30
1.8047785488306544e-13
 70
     32
  0
VERTEX
  8
MY3DLAYER
10
7.593777613376907
20
15.287051424419023
30
1.8047785488306544e-13
 70
     32
  0
VERTEX
  8
MY3DLAYER
10
7.428941916244257
20
15.685000000000061
30
1.8047785488306544e-13
 70
     32
  0
VERTEX
  8
MY3DLAYER
10
7.166726188957771
20
16.02672618895785
30
1.8047785488306544e-13
 70
     32
  0
VERTEX
  8
MY3DLAYER
10
6.824999999999937
20
16.28894191624447
30
1.8047785488306544e-13
 70
     32
  0
VERTEX
  8
MY3DLAYER
10
6.427051424419125
20
16.453777613376804
30
1.8047785488306544e-13
 70
     32
  0
VERTEX
  8
MY3DLAYER
10
5.999999999999899
20
16.510000000000055
30
1.8047785488306544e-13
 70
     32
  0
VERTEX
  8
MY3DLAYER
10
5.572948575580763
20
16.453777613376804
30
1.8047785488306544e-13
 70
     32
  0
VERTEX
  8
MY3DLAYER
10
5.174999999999906
20
16.28894191624447
30
1.8047785488306544e-13
 70
     32
  0
VERTEX
  8
MY3DLAYER
10
4.833273811042117
20
16.02672618895785
30
1.8047785488306544e-13
 70
     32
  0
SEQEND
  0
POLYLINE
 8
Layer0
 66
     1
70
    8
 10
0.0
 20
 0.0
 30
0.0
  0
VERTEX
  8
MY3DLAYER
10
40.249999999999645
20
48.509999999999366
30
1.8047785488306544e-13
 70
     32
  0
VERTEX
  8
MY3DLAYER
10
39.82294857558037
20
48.45377761337584
30
1.8047785488306544e-13
 70
     32
  0
VERTEX
  8
MY3DLAYER
10
39.424999999999564
20
48.28894191624333
30
1.8047785488306544e-13
 70
     32
  0
VERTEX
  8
MY3DLAYER
10
39.08327381104186
20
48.026726188956886
30
1.8047785488306544e-13
 70
     32
  0
VERTEX
  8
MY3DLAYER
10
38.82105808375524
20
47.68499999999892
30
1.8047785488306544e-13
 70
     32
  0
VERTEX
  8
MY3DLAYER
10
38.65622238662259
20
47.28705142441806
30
1.8047785488306544e-13
 70
     32
  0
VERTEX
  8
MY3DLAYER
10
38.599999999999525
20
46.85999999999929
30
1.8047785488306544e-13
 70
     32
  0
VERTEX
  8
MY3DLAYER
10
38.65622238662259
20
46.43294857558042
30
1.8047785488306544e-13
 70
     32
  0
VERTEX
  8
MY3DLAYER
10
38.82105808375524
20
46.034999999999386
30
1.8047785488306544e-13
 70
     32
  0
VERTEX
  8
MY3DLAYER
10
39.08327381104186
20
45.693273811041415
30
1.8047785488306544e-13
 70
     32
  0
VERTEX
  8
MY3DLAYER
10
39.424999999999564
20
45.431058083754884
30
1.8047785488306544e-13
 70
     32
  0
VERTEX
  8
MY3DLAYER
10
39.82294857558037
20
45.26622238662255
30
1.8047785488306544e-13
 70
     32
  0
VERTEX
  8
MY3DLAYER
10
40.249999999999645
20
45.20999999999903
30
1.8047785488306544e-13
 70
     32
  0
VERTEX
  8
MY3DLAYER
10
40.6770514244186
20
45.26622238662255
30
1.8047785488306544e-13
 70
     32
  0
VERTEX
  8
MY3DLAYER
10
41.07499999999959
20
45.431058083754884
30
1.8047785488306544e-13
 70
     32
  0
VERTEX
  8
MY3DLAYER
10
41.41672618895752
20
45.693273811041415
30
1.8047785488306544e-13
 70
     32
  0
VERTEX
  8
MY3DLAYER
10
41.678941916243915
20
46.034999999999386
30
1.8047785488306544e-13
 70
     32
  0
VERTEX
  8
MY3DLAYER
10
41.84377761337629
20
46.43294857558042
30
1.8047785488306544e-13
 70
     32
  0
VERTEX
  8
MY3DLAYER
10
41.89999999999954
20
46.85999999999929
30
1.8047785488306544e-13
 70
     32
  0
VERTEX
  8
MY3DLAYER
10
41.84377761337629
20
47.28705142441806
30
1.8047785488306544e-13
 70
     32
  0
VERTEX
  8
MY3DLAYER
10
41.678941916243915
20
47.68499999999892
30
1.8047785488306544e-13
 70
     32
  0
VERTEX
  8
MY3DLAYER
10
41.41672618895752
20
48.026726188956886
30
1.8047785488306544e-13
 70
     32
  0
VERTEX
  8
MY3DLAYER
10
41.07499999999959
20
48.28894191624333
30
1.8047785488306544e-13
 70
     32
  0
VERTEX
  8
MY3DLAYER
10
40.6770514244186
20
48.45377761337584
30
1.8047785488306544e-13
 70
     32
  0
VERTEX
  8
MY3DLAYER
10
40.249999999999645
20
48.509999999999366
30
1.8047785488306544e-13
 70
     32
  0
SEQEND
  0
POLYLINE
 8
Layer0
 66
     1
70
    8
 10
0.0
 20
 0.0
 30
0.0
  0
VERTEX
  8
MY3DLAYER
10
33.24999999999988
20
48.50999999999981
30
1.8047785488306544e-13
 70
     32
  0
VERTEX
  8
MY3DLAYER
10
32.822948575580746
20
48.453777613376566
30
1.8047785488306544e-13
 70
     32
  0
VERTEX
  8
MY3DLAYER
10
32.42499999999989
20
48.288941916243964
30
1.8047785488306544e-13
 70
     32
  0
VERTEX
  8
MY3DLAYER
10
32.0832738110421
20
48.02672618895752
30
1.8047785488306544e-13
 70
     32
  0
VERTEX
  8
MY3DLAYER
10
31.821058083755524
20
47.68499999999964
30
1.8047785488306544e-13
 70
     32
  0
VERTEX
  8
MY3DLAYER
10
31.656222386622964
20
47.287051424418785
30
1.8047785488306544e-13
 70
     32
  0
VERTEX
  8
MY3DLAYER
10
31.5999999999999
20
46.85999999999974
30
1.8047785488306544e-13
 70
     32
  0
VERTEX
  8
MY3DLAYER
10
31.656222386622964
20
46.4329485755806
30
1.8047785488306544e-13
 70
     32
  0
VERTEX
  8
MY3DLAYER
10
31.821058083755524
20
46.034999999999926
30
1.8047785488306544e-13
 70
     32
  0
VERTEX
  8
MY3DLAYER
10
32.0832738110421
20
45.693273811041955
30
1.8047785488306544e-13
 70
     32
  0
VERTEX
  8
MY3DLAYER
10
32.42499999999989
20
45.431058083755154
30
1.8047785488306544e-13
 70
     32
  0
VERTEX
  8
MY3DLAYER
10
32.822948575580746
20
45.26622238662282
30
1.8047785488306544e-13
 70
     32
  0
VERTEX
  8
MY3DLAYER
10
33.24999999999988
20
45.209999999999575
30
1.8047785488306544e-13
 70
     32
  0
VERTEX
  8
MY3DLAYER
10
33.67705142441911
20
45.26622238662282
30
1.8047785488306544e-13
 70
     32
  0
VERTEX
  8
MY3DLAYER
10
34.074999999999875
20
45.431058083755154
30
1.8047785488306544e-13
 70
     32
  0
VERTEX
  8
MY3DLAYER
10
34.41672618895775
20
45.693273811041955
30
1.8047785488306544e-13
 70
     32
  0
VERTEX
  8
MY3DLAYER
10
34.6789419162442
20
46.034999999999926
30
1.8047785488306544e-13
 70
     32
  0
VERTEX
  8
MY3DLAYER
10
34.84377761337689
20
46.4329485755806
30
1.8047785488306544e-13
 70
     32
  0
VERTEX
  8
MY3DLAYER
10
34.899999999999956
20
46.85999999999974
30
1.8047785488306544e-13
 70
     32
  0
VERTEX
  8
MY3DLAYER
10
34.84377761337689
20
47.287051424418785
30
1.8047785488306544e-13
 70
     32
  0
VERTEX
  8
MY3DLAYER
10
34.6789419162442
20
47.68499999999964
30
1.8047785488306544e-13
 70
     32
  0
VERTEX
  8
MY3DLAYER
10
34.41672618895775
20
48.02672618895752
30
1.8047785488306544e-13
 70
     32
  0
VERTEX
  8
MY3DLAYER
10
34.074999999999875
20
48.288941916243964
30
1.8047785488306544e-13
 70
     32
  0
VERTEX
  8
MY3DLAYER
10
33.67705142441911
20
48.453777613376566
30
1.8047785488306544e-13
 70
     32
  0
VERTEX
  8
MY3DLAYER
10
33.24999999999988
20
48.50999999999981
30
1.8047785488306544e-13
 70
     32
  0
SEQEND
  0
POLYLINE
 8
Layer0
 66
     1
70
    8
 10
0.0
 20
 0.0
 30
0.0
  0
VERTEX
  8
MY3DLAYER
10
22.500000000000025
20
3.0000000000000395
30
1.8047785488306544e-13
 70
     32
  0
VERTEX
  8
MY3DLAYER
10
22.500000000000025
20
11.860000000000028
30
1.8047785488306544e-13
 70
     32
  0
VERTEX
  8
MY3DLAYER
10
3.0000000000000395
20
11.860000000000028
30
1.8047785488306544e-13
 70
     32
  0
VERTEX
  8
MY3DLAYER
10
3.0000000000000395
20
3.0000000000000395
30
1.8047785488306544e-13
 70
     32
  0
VERTEX
  8
MY3DLAYER
10
22.500000000000025
20
3.0000000000000395
30
1.8047785488306544e-13
 70
     32
  0
SEQEND
  0
POLYLINE
 8
Layer0
 66
     1
70
    8
 10
0.0
 20
 0.0
 30
0.0
  0
VERTEX
  8
MY3DLAYER
10
32.25000000000002
20
40.16
30
1.8047785488306544e-13
 70
     32
  0
VERTEX
  8
MY3DLAYER
10
24.24999999999999
20
33.16000000000005
30
1.8047785488306544e-13
 70
     32
  0
VERTEX
  8
MY3DLAYER
10
24.24999999999999
20
19.159999999999993
30
1.8047785488306544e-13
 70
     32
  0
VERTEX
  8
MY3DLAYER
10
32.25000000000002
20
12.16000000000005
30
1.8047785488306544e-13
 70
     32
  0
VERTEX
  8
MY3DLAYER
10
46.24999999999999
20
12.16000000000005
30
1.8047785488306544e-13
 70
     32
  0
VERTEX
  8
MY3DLAYER
10
54.25000000000002
20
19.159999999999993
30
1.8047785488306544e-13
 70
     32
  0
VERTEX
  8
MY3DLAYER
10
54.25000000000002
20
33.16000000000005
30
1.8047785488306544e-13
 70
     32
  0
VERTEX
  8
MY3DLAYER
10
46.24999999999999
20
40.16
30
1.8047785488306544e-13
 70
     32
  0
VERTEX
  8
MY3DLAYER
10
32.25000000000002
20
40.16
30
1.8047785488306544e-13
 70
     32
  0
SEQEND
  0
POLYLINE
 8
Layer0
 66
     1
70
    8
 10
0.0
 20
 0.0
 30
0.0
  0
VERTEX
  8
MY3DLAYER
10
22.500000000000025
20
49.35803518948802
30
1.8047785488306544e-13
 70
     32
  0
VERTEX
  8
MY3DLAYER
10
3.0000000000000395
20
49.35803518948802
30
1.8047785488306544e-13
 70
     32
  0
VERTEX
  8
MY3DLAYER
10
3.0000000000000395
20
40.50038432003283
30
1.8047785488306544e-13
 70
     32
  0
VERTEX
  8
MY3DLAYER
10
22.500000000000025
20
40.50038432003283
30
1.8047785488306544e-13
 70
     32
  0
VERTEX
  8
MY3DLAYER
10
22.500000000000025
20
49.35803518948802
30
1.8047785488306544e-13
 70
     32
  0
SEQEND
  0
POLYLINE
 8
Layer0
 66
     1
70
    8
 10
0.0
 20
 0.0
 30
0.0
  0
VERTEX
  8
MY3DLAYER
10
71.67500000000175
20
36.07144240378839
30
0.0
 70
     32
  0
VERTEX
  8
MY3DLAYER
10
72.0729485755826
20
35.906606706655964
30
0.0
 70
     32
  0
VERTEX
  8
MY3DLAYER
10
72.50000000000179
20
35.85038432003272
30
0.0
 70
     32
  0
VERTEX
  8
MY3DLAYER
10
72.92705142442101
20
35.906606706655964
30
0.0
 70
     32
  0
VERTEX
  8
MY3DLAYER
10
73.3250000000019
20
36.07144240378839
30
0.0
 70
     32
  0
VERTEX
  8
MY3DLAYER
10
73.66672618895957
20
36.333658131075104
30
0.0
 70
     32
  0
VERTEX
  8
MY3DLAYER
10
73.9289419162461
20
36.6753843200328
30
0.0
 70
     32
  0
VERTEX
  8
MY3DLAYER
10
74.09377761337879
20
37.073332895613746
30
0.0
 70
     32
  0
VERTEX
  8
MY3DLAYER
10
74.15000000000181
20
37.500384320032886
30
0.0
 70
     32
  0
VERTEX
  8
MY3DLAYER
10
74.09377761337879
20
37.92743574445193
30
0.0
 70
     32
  0
VERTEX
  8
MY3DLAYER
10
73.9289419162461
20
38.32538432003278
30
0.0
 70
     32
  0
VERTEX
  8
MY3DLAYER
10
73.66672618895957
20
38.66711050899067
30
0.0
 70
     32
  0
VERTEX
  8
MY3DLAYER
10
73.3250000000019
20
38.9293262362772
30
0.0
 70
     32
  0
VERTEX
  8
MY3DLAYER
10
72.92705142442101
20
39.09416193340971
30
0.0
 70
     32
  0
VERTEX
  8
MY3DLAYER
10
72.50000000000179
20
39.150384320032956
30
0.0
 70
     32
  0
VERTEX
  8
MY3DLAYER
10
72.0729485755826
20
39.09416193340971
30
0.0
 70
     32
  0
VERTEX
  8
MY3DLAYER
10
71.67500000000175
20
38.9293262362772
30
0.0
 70
     32
  0
VERTEX
  8
MY3DLAYER
10
71.33327381104391
20
38.66711050899067
30
0.0
 70
     32
  0
VERTEX
  8
MY3DLAYER
10
71.07105808375748
20
38.32538432003278
30
0.0
 70
     32
  0
VERTEX
  8
MY3DLAYER
10
70.90622238662482
20
37.92743574445193
30
0.0
 70
     32
  0
VERTEX
  8
MY3DLAYER
10
70.8500000000018
20
37.500384320032886
30
0.0
 70
     32
  0
VERTEX
  8
MY3DLAYER
10
70.90622238662482
20
37.073332895613746
30
0.0
 70
     32
  0
VERTEX
  8
MY3DLAYER
10
71.07105808375748
20
36.6753843200328
30
0.0
 70
     32
  0
VERTEX
  8
MY3DLAYER
10
71.33327381104391
20
36.333658131075104
30
0.0
 70
     32
  0
VERTEX
  8
MY3DLAYER
10
71.67500000000175
20
36.07144240378839
30
0.0
 70
     32
  0
SEQEND
  0
POLYLINE
 8
Layer0
 66
     1
70
    8
 10
0.0
 20
 0.0
 30
0.0
  0
VERTEX
  8
MY3DLAYER
10
60.631370849898474
20
27.291370849898538
30
1.8047785488306544e-13
 70
     32
  0
VERTEX
  8
MY3DLAYER
10
60.300000000000004
20
27.545640646055155
30
1.8047785488306544e-13
 70
     32
  0
VERTEX
  8
MY3DLAYER
10
59.91411047216401
20
27.705481322062504
30
1.8047785488306544e-13
 70
     32
  0
VERTEX
  8
MY3DLAYER
10
59.50000000000001
20
27.760000000000023
30
1.8047785488306544e-13
 70
     32
  0
VERTEX
  8
MY3DLAYER
10
59.08588952783595
20
27.705481322062504
30
1.8047785488306544e-13
 70
     32
  0
VERTEX
  8
MY3DLAYER
10
58.7
20
27.545640646055155
30
1.8047785488306544e-13
 70
     32
  0
VERTEX
  8
MY3DLAYER
10
58.36862915010153
20
27.291370849898538
30
1.8047785488306544e-13
 70
     32
  0
VERTEX
  8
MY3DLAYER
10
58.11435935394492
20
26.960000000000022
30
1.8047785488306544e-13
 70
     32
  0
VERTEX
  8
MY3DLAYER
10
57.95451867793748
20
26.57411047216408
30
1.8047785488306544e-13
 70
     32
  0
VERTEX
  8
MY3DLAYER
10
57.900000000000006
20
26.160000000000025
30
1.8047785488306544e-13
 70
     32
  0
VERTEX
  8
MY3DLAYER
10
57.95451867793748
20
25.74588952783597
30
1.8047785488306544e-13
 70
     32
  0
VERTEX
  8
MY3DLAYER
10
58.11435935394492
20
25.360000000000024
30
1.8047785488306544e-13
 70
     32
  0
VERTEX
  8
MY3DLAYER
10
58.36862915010153
20
25.02862915010151
30
1.8047785488306544e-13
 70
     32
  0
VERTEX
  8
MY3DLAYER
10
58.7
20
24.774359353944895
30
1.8047785488306544e-13
 70
     32
  0
VERTEX
  8
MY3DLAYER
10
59.08588952783595
20
24.614518677937546
30
1.8047785488306544e-13
 70
     32
  0
VERTEX
  8
MY3DLAYER
10
59.50000000000001
20
24.560000000000027
30
1.8047785488306544e-13
 70
     32
  0
VERTEX
  8
MY3DLAYER
10
59.91411047216406
20
24.614518677937546
30
1.8047785488306544e-13
 70
     32
  0
VERTEX
  8
MY3DLAYER
10
60.300000000000004
20
24.774359353944895
30
1.8047785488306544e-13
 70
     32
  0
VERTEX
  8
MY3DLAYER
10
60.631370849898474
20
25.02862915010151
30
1.8047785488306544e-13
 70
     32
  0
VERTEX
  8
MY3DLAYER
10
60.88564064605509
20
25.360000000000024
30
1.8047785488306544e-13
 70
     32
  0
VERTEX
  8
MY3DLAYER
10
61.04548132206253
20
25.74588952783597
30
1.8047785488306544e-13
 70
     32
  0
VERTEX
  8
MY3DLAYER
10
61.1
20
26.160000000000025
30
1.8047785488306544e-13
 70
     32
  0
VERTEX
  8
MY3DLAYER
10
61.04548132206253
20
26.57411047216408
30
1.8047785488306544e-13
 70
     32
  0
VERTEX
  8
MY3DLAYER
10
60.88564064605509
20
26.960000000000022
30
1.8047785488306544e-13
 70
     32
  0
VERTEX
  8
MY3DLAYER
10
60.631370849898474
20
27.291370849898538
30
1.8047785488306544e-13
 70
     32
  0
SEQEND
  0
POLYLINE
 8
Layer0
 66
     1
70
    8
 10
0.0
 20
 0.0
 30
0.0
  0
VERTEX
  8
MY3DLAYER
10
55.99999999999908
20
49.35803518948802
30
1.8047785488306544e-13
 70
     32
  0
VERTEX
  8
MY3DLAYER
10
55.99999999999908
20
40.50038432003283
30
1.8047785488306544e-13
 70
     32
  0
VERTEX
  8
MY3DLAYER
10
75.50000000000192
20
40.50038432003283
30
1.8047785488306544e-13
 70
     32
  0
VERTEX
  8
MY3DLAYER
10
75.50000000000192
20
49.35803518948802
30
1.8047785488306544e-13
 70
     32
  0
VERTEX
  8
MY3DLAYER
10
55.99999999999908
20
49.35803518948802
30
1.8047785488306544e-13
 70
     32
  0
SEQEND
  0
POLYLINE
 8
Layer0
 66
     1
70
    8
 10
0.0
 20
 0.0
 30
0.0
  0
VERTEX
  8
MY3DLAYER
10
56.90622238662485
20
15.287051424419294
30
1.8047785488306544e-13
 70
     32
  0
VERTEX
  8
MY3DLAYER
10
56.85000000000178
20
14.860000000000067
30
1.8047785488306544e-13
 70
     32
  0
VERTEX
  8
MY3DLAYER
10
56.90622238662485
20
14.432948575580932
30
1.8047785488306544e-13
 70
     32
  0
VERTEX
  8
MY3DLAYER
10
57.07105808375745
20
14.035000000000075
30
1.8047785488306544e-13
 70
     32
  0
VERTEX
  8
MY3DLAYER
10
57.33327381104394
20
13.693273811042285
30
1.8047785488306544e-13
 70
     32
  0
VERTEX
  8
MY3DLAYER
10
57.675000000001816
20
13.431058083755754
30
1.8047785488306544e-13
 70
     32
  0
VERTEX
  8
MY3DLAYER
10
58.07294857558263
20
13.26622238662315
30
1.8047785488306544e-13
 70
     32
  0
VERTEX
  8
MY3DLAYER
10
58.50000000000181
20
13.210000000000083
30
1.8047785488306544e-13
 70
     32
  0
VERTEX
  8
MY3DLAYER
10
58.927051424420995
20
13.26622238662315
30
1.8047785488306544e-13
 70
     32
  0
VERTEX
  8
MY3DLAYER
10
59.3250000000018
20
13.431058083755754
30
1.8047785488306544e-13
 70
     32
  0
VERTEX
  8
MY3DLAYER
10
59.666726188959636
20
13.693273811042285
30
1.8047785488306544e-13
 70
     32
  0
VERTEX
  8
MY3DLAYER
10
59.928941916246124
20
14.035000000000075
30
1.8047785488306544e-13
 70
     32
  0
VERTEX
  8
MY3DLAYER
10
60.093777613378776
20
14.432948575580932
30
1.8047785488306544e-13
 70
     32
  0
VERTEX
  8
MY3DLAYER
10
60.15000000000184
20
14.860000000000067
30
1.8047785488306544e-13
 70
     32
  0
VERTEX
  8
MY3DLAYER
10
60.093777613378776
20
15.287051424419294
30
1.8047785488306544e-13
 70
     32
  0
VERTEX
  8
MY3DLAYER
10
59.928941916246124
20
15.685000000000151
30
1.8047785488306544e-13
 70
     32
  0
VERTEX
  8
MY3DLAYER
10
59.666726188959636
20
16.02672618895785
30
1.8047785488306544e-13
 70
     32
  0
VERTEX
  8
MY3DLAYER
10
59.3250000000018
20
16.28894191624447
30
1.8047785488306544e-13
 70
     32
  0
VERTEX
  8
MY3DLAYER
10
58.927051424420995
20
16.453777613377074
30
1.8047785488306544e-13
 70
     32
  0
VERTEX
  8
MY3DLAYER
10
58.50000000000181
20
16.510000000000144
30
1.8047785488306544e-13
 70
     32
  0
VERTEX
  8
MY3DLAYER
10
58.07294857558263
20
16.453777613377074
30
1.8047785488306544e-13
 70
     32
  0
VERTEX
  8
MY3DLAYER
10
57.675000000001816
20
16.28894191624447
30
1.8047785488306544e-13
 70
     32
  0
VERTEX
  8
MY3DLAYER
10
57.33327381104394
20
16.02672618895785
30
1.8047785488306544e-13
 70
     32
  0
VERTEX
  8
MY3DLAYER
10
57.07105808375745
20
15.685000000000151
30
1.8047785488306544e-13
 70
     32
  0
VERTEX
  8
MY3DLAYER
10
56.90622238662485
20
15.287051424419294
30
1.8047785488306544e-13
 70
     32
  0
SEQEND
  0
POLYLINE
 8
Layer0
 66
     1
70
    8
 10
0.0
 20
 0.0
 30
0.0
  0
VERTEX
  8
MY3DLAYER
10
75.50000000000192
20
11.860000000000028
30
1.8047785488306544e-13
 70
     32
  0
VERTEX
  8
MY3DLAYER
10
55.99999999999908
20
11.860000000000028
30
1.8047785488306544e-13
 70
     32
  0
VERTEX
  8
MY3DLAYER
10
55.99999999999908
20
3.0000000000000395
30
1.8047785488306544e-13
 70
     32
  0
VERTEX
  8
MY3DLAYER
10
75.50000000000192
20
3.0000000000000395
30
1.8047785488306544e-13
 70
     32
  0
VERTEX
  8
MY3DLAYER
10
75.50000000000192
20
11.860000000000028
30
1.8047785488306544e-13
 70
     32
  0
SEQEND
  0
POLYLINE
 8
Layer0
 66
     1
70
    8
 10
0.0
 20
 0.0
 30
0.0
  0
VERTEX
  8
MY3DLAYER
10
58.92705142442108
20
39.09416193340989
30
1.8047785488306544e-13
 70
     32
  0
VERTEX
  8
MY3DLAYER
10
58.5000000000019
20
39.150384320032956
30
1.8047785488306544e-13
 70
     32
  0
VERTEX
  8
MY3DLAYER
10
58.07294857558267
20
39.09416193340989
30
1.8047785488306544e-13
 70
     32
  0
VERTEX
  8
MY3DLAYER
10
57.675000000001866
20
38.929326236277106
30
1.8047785488306544e-13
 70
     32
  0
VERTEX
  8
MY3DLAYER
10
57.33327381104403
20
38.667110508990575
30
1.8047785488306544e-13
 70
     32
  0
VERTEX
  8
MY3DLAYER
10
57.071058083757585
20
38.32538432003297
30
1.8047785488306544e-13
 70
     32
  0
VERTEX
  8
MY3DLAYER
10
56.90622238662489
20
37.92743574445211
30
1.8047785488306544e-13
 70
     32
  0
VERTEX
  8
MY3DLAYER
10
56.85000000000187
20
37.50038432003279
30
1.8047785488306544e-13
 70
     32
  0
VERTEX
  8
MY3DLAYER
10
56.90622238662489
20
37.073332895613746
30
1.8047785488306544e-13
 70
     32
  0
VERTEX
  8
MY3DLAYER
10
57.071058083757585
20
36.67538432003289
30
1.8047785488306544e-13
 70
     32
  0
VERTEX
  8
MY3DLAYER
10
57.33327381104403
20
36.33365813107501
30
1.8047785488306544e-13
 70
     32
  0
VERTEX
  8
MY3DLAYER
10
57.675000000001866
20
36.07144240378839
30
1.8047785488306544e-13
 70
     32
  0
VERTEX
  8
MY3DLAYER
10
58.07294857558267
20
35.906606706655964
30
1.8047785488306544e-13
 70
     32
  0
VERTEX
  8
MY3DLAYER
10
58.5000000000019
20
35.850384320032894
30
1.8047785488306544e-13
 70
     32
  0
VERTEX
  8
MY3DLAYER
10
58.92705142442108
20
35.906606706655964
30
1.8047785488306544e-13
 70
     32
  0
VERTEX
  8
MY3DLAYER
10
59.32500000000185
20
36.07144240378839
30
1.8047785488306544e-13
 70
     32
  0
VERTEX
  8
MY3DLAYER
10
59.66672618895968
20
36.33365813107501
30
1.8047785488306544e-13
 70
     32
  0
VERTEX
  8
MY3DLAYER
10
59.92894191624617
20
36.67538432003289
30
1.8047785488306544e-13
 70
     32
  0
VERTEX
  8
MY3DLAYER
10
60.09377761337886
20
37.073332895613746
30
1.8047785488306544e-13
 70
     32
  0
VERTEX
  8
MY3DLAYER
10
60.15000000000189
20
37.50038432003279
30
1.8047785488306544e-13
 70
     32
  0
VERTEX
  8
MY3DLAYER
10
60.09377761337886
20
37.92743574445211
30
1.8047785488306544e-13
 70
     32
  0
VERTEX
  8
MY3DLAYER
10
59.92894191624617
20
38.32538432003297
30
1.8047785488306544e-13
 70
     32
  0
VERTEX
  8
MY3DLAYER
10
59.66672618895968
20
38.667110508990575
30
1.8047785488306544e-13
 70
     32
  0
VERTEX
  8
MY3DLAYER
10
59.32500000000185
20
38.929326236277106
30
1.8047785488306544e-13
 70
     32
  0
VERTEX
  8
MY3DLAYER
10
58.92705142442108
20
39.09416193340989
30
1.8047785488306544e-13
 70
     32
  0
SEQEND
  0
POLYLINE
 8
Layer0
 66
     1
70
    8
 10
0.0
 20
 0.0
 30
0.0
  0
VERTEX
  8
MY3DLAYER
10
72.9849242404918
20
27.644924240491747
30
1.8047785488306544e-13
 70
     32
  0
VERTEX
  8
MY3DLAYER
10
72.55000000000001
20
27.978653347947347
30
1.8047785488306544e-13
 70
     32
  0
VERTEX
  8
MY3DLAYER
10
72.0435199947153
20
28.18844423520707
30
1.8047785488306544e-13
 70
     32
  0
VERTEX
  8
MY3DLAYER
10
71.50000000000003
20
28.260000000000087
30
1.8047785488306544e-13
 70
     32
  0
VERTEX
  8
MY3DLAYER
10
70.9564800052847
20
28.18844423520707
30
1.8047785488306544e-13
 70
     32
  0
VERTEX
  8
MY3DLAYER
10
70.44999999999999
20
27.978653347947347
30
1.8047785488306544e-13
 70
     32
  0
VERTEX
  8
MY3DLAYER
10
70.01507575950826
20
27.644924240491747
30
1.8047785488306544e-13
 70
     32
  0
VERTEX
  8
MY3DLAYER
10
69.68134665205271
20
27.210000000000058
30
1.8047785488306544e-13
 70
     32
  0
VERTEX
  8
MY3DLAYER
10
69.47155576479298
20
26.703519994715347
30
1.8047785488306544e-13
 70
     32
  0
VERTEX
  8
MY3DLAYER
10
69.4
20
26.160000000000025
30
1.8047785488306544e-13
 70
     32
  0
VERTEX
  8
MY3DLAYER
10
69.47155576479298
20
25.616480005284703
30
1.8047785488306544e-13
 70
     32
  0
VERTEX
  8
MY3DLAYER
10
69.68134665205271
20
25.109999999999992
30
1.8047785488306544e-13
 70
     32
  0
VERTEX
  8
MY3DLAYER
10
70.01507575950826
20
24.675075759508303
30
1.8047785488306544e-13
 70
     32
  0
VERTEX
  8
MY3DLAYER
10
70.45000000000005
20
24.3413466520527
30
1.8047785488306544e-13
 70
     32
  0
VERTEX
  8
MY3DLAYER
10
70.95648000528475
20
24.13155576479298
30
1.8047785488306544e-13
 70
     32
  0
VERTEX
  8
MY3DLAYER
10
71.50000000000003
20
24.05999999999996
30
1.8047785488306544e-13
 70
     32
  0
VERTEX
  8
MY3DLAYER
10
72.0435199947153
20
24.13155576479298
30
1.8047785488306544e-13
 70
     32
  0
VERTEX
  8
MY3DLAYER
10
72.55000000000005
20
24.3413466520527
30
1.8047785488306544e-13
 70
     32
  0
VERTEX
  8
MY3DLAYER
10
72.9849242404918
20
24.675075759508303
30
1.8047785488306544e-13
 70
     32
  0
VERTEX
  8
MY3DLAYER
10
73.31865334794735
20
25.109999999999992
30
1.8047785488306544e-13
 70
     32
  0
VERTEX
  8
MY3DLAYER
10
73.52844423520708
20
25.616480005284703
30
1.8047785488306544e-13
 70
     32
  0
VERTEX
  8
MY3DLAYER
10
73.60000000000005
20
26.160000000000025
30
1.8047785488306544e-13
 70
     32
  0
VERTEX
  8
MY3DLAYER
10
73.52844423520708
20
26.703519994715347
30
1.8047785488306544e-13
 70
     32
  0
VERTEX
  8
MY3DLAYER
10
73.31865334794735
20
27.210000000000058
30
1.8047785488306544e-13
 70
     32
  0
VERTEX
  8
MY3DLAYER
10
72.9849242404918
20
27.644924240491747
30
1.8047785488306544e-13
 70
     32
  0
SEQEND
 0
ENDSEC
 0
EOF
