 0
SECTION
 2
ENTITIES
  0
POLYLINE
 8
Layer0
 66
     1
70
    8
 10
0.0
 20
 0.0
 30
0.0
  0
VERTEX
  8
MY3DLAYER
10
5.199568551970798
20
0.38638793596204546
30
0.0
 70
     32
  0
VERTEX
  8
MY3DLAYER
10
4.868018990447502
20
0.13198100955253408
30
0.0
 70
     32
  0
VERTEX
  8
MY3DLAYER
10
4.813458307289017
20
0.06087614290084317
30
0.0
 70
     32
  0
VERTEX
  8
MY3DLAYER
10
4.766746399917127
20
0.0
30
0.0
 70
     32
  0
VERTEX
  8
MY3DLAYER
10
0.0
20
0.0
30
0.0
 70
     32
  0
VERTEX
  8
MY3DLAYER
10
0.0
20
52.39999999999999
30
0.0
 70
     32
  0
VERTEX
  8
MY3DLAYER
10
4.766746399917038
20
52.39999999999999
30
0.0
 70
     32
  0
VERTEX
  8
MY3DLAYER
10
4.813458307289017
20
52.33912385709906
30
0.0
 70
     32
  0
VERTEX
  8
MY3DLAYER
10
4.868018990447457
20
52.26801899044746
30
0.0
 70
     32
  0
VERTEX
  8
MY3DLAYER
10
5.199568551970798
20
52.01361206403795
30
0.0
 70
     32
  0
VERTEX
  8
MY3DLAYER
10
5.585666193902381
20
51.85368518434967
30
0.0
 70
     32
  0
VERTEX
  8
MY3DLAYER
10
6.000000000000034
20
51.799137103942016
30
0.0
 70
     32
  0
VERTEX
  8
MY3DLAYER
10
6.414333806097687
20
51.85368518434967
30
0.0
 70
     32
  0
VERTEX
  8
MY3DLAYER
10
6.80043144802927
20
52.01361206403795
30
0.0
 70
     32
  0
VERTEX
  8
MY3DLAYER
10
7.131981009552566
20
52.26801899044746
30
0.0
 70
     32
  0
VERTEX
  8
MY3DLAYER
10
7.186541692711051
20
52.33912385709915
30
0.0
 70
     32
  0
VERTEX
  8
MY3DLAYER
10
7.233253600082941
20
52.39999999999999
30
0.0
 70
     32
  0
VERTEX
  8
MY3DLAYER
10
18.266746399917036
20
52.39999999999999
30
3.6095570976613087e-13
 70
     32
  0
VERTEX
  8
MY3DLAYER
10
18.313458307289014
20
52.33912385709906
30
3.6095570976613087e-13
 70
     32
  0
VERTEX
  8
MY3DLAYER
10
18.368018990447453
20
52.26801899044746
30
3.6095570976613087e-13
 70
     32
  0
VERTEX
  8
MY3DLAYER
10
18.699568551970795
20
52.01361206403795
30
3.6095570976613087e-13
 70
     32
  0
VERTEX
  8
MY3DLAYER
10
19.08566619390238
20
51.85368518434967
30
3.6095570976613087e-13
 70
     32
  0
VERTEX
  8
MY3DLAYER
10
19.500000000000032
20
51.799137103942016
30
3.6095570976613087e-13
 70
     32
  0
VERTEX
  8
MY3DLAYER
10
19.914333806097684
20
51.85368518434967
30
3.6095570976613087e-13
 70
     32
  0
VERTEX
  8
MY3DLAYER
10
20.30043144802927
20
52.01361206403795
30
3.6095570976613087e-13
 70
     32
  0
VERTEX
  8
MY3DLAYER
10
20.63198100955261
20
52.26801899044746
30
3.6095570976613087e-13
 70
     32
  0
VERTEX
  8
MY3DLAYER
10
20.68654169271105
20
52.33912385709906
30
3.6095570976613087e-13
 70
     32
  0
VERTEX
  8
MY3DLAYER
10
20.733253600083028
20
52.39999999999999
30
3.6095570976613087e-13
 70
     32
  0
VERTEX
  8
MY3DLAYER
10
24.24999999999999
20
52.39999999999999
30
1.8047785488306544e-13
 70
     32
  0
VERTEX
  8
MY3DLAYER
10
24.24999999999999
20
33.20000000000003
30
0.0
 70
     32
  0
VERTEX
  8
MY3DLAYER
10
24.24999999999999
20
19.199999999999964
30
0.0
 70
     32
  0
VERTEX
  8
MY3DLAYER
10
24.24999999999999
20
0.0
30
0.0
 70
     32
  0
VERTEX
  8
MY3DLAYER
10
20.73325360008294
20
0.0
30
1.8047785488306544e-13
 70
     32
  0
VERTEX
  8
MY3DLAYER
10
20.68654169271105
20
0.06087614290084317
30
1.8047785488306544e-13
 70
     32
  0
VERTEX
  8
MY3DLAYER
10
20.631981009552565
20
0.13198100955253408
30
1.8047785488306544e-13
 70
     32
  0
VERTEX
  8
MY3DLAYER
10
20.30043144802927
20
0.38638793596204546
30
1.8047785488306544e-13
 70
     32
  0
VERTEX
  8
MY3DLAYER
10
19.914333806097684
20
0.5463148156503222
30
1.8047785488306544e-13
 70
     32
  0
VERTEX
  8
MY3DLAYER
10
19.500000000000032
20
0.6008628960579777
30
1.8047785488306544e-13
 70
     32
  0
VERTEX
  8
MY3DLAYER
10
19.08566619390238
20
0.5463148156503222
30
1.8047785488306544e-13
 70
     32
  0
VERTEX
  8
MY3DLAYER
10
18.699568551970795
20
0.38638793596204546
30
1.8047785488306544e-13
 70
     32
  0
VERTEX
  8
MY3DLAYER
10
18.368018990447453
20
0.13198100955253408
30
1.8047785488306544e-13
 70
     32
  0
VERTEX
  8
MY3DLAYER
10
18.313458307289014
20
0.06087614290093341
30
1.8047785488306544e-13
 70
     32
  0
VERTEX
  8
MY3DLAYER
10
18.266746399917036
20
0.0
30
1.8047785488306544e-13
 70
     32
  0
VERTEX
  8
MY3DLAYER
10
7.233253600082941
20
0.0
30
0.0
 70
     32
  0
VERTEX
  8
MY3DLAYER
10
7.186541692711051
20
0.06087614290084317
30
0.0
 70
     32
  0
VERTEX
  8
MY3DLAYER
10
7.131981009552566
20
0.13198100955253408
30
0.0
 70
     32
  0
VERTEX
  8
MY3DLAYER
10
6.80043144802927
20
0.38638793596204546
30
0.0
 70
     32
  0
VERTEX
  8
MY3DLAYER
10
6.414333806097687
20
0.5463148156503222
30
0.0
 70
     32
  0
VERTEX
  8
MY3DLAYER
10
6.000000000000034
20
0.6008628960579777
30
0.0
 70
     32
  0
VERTEX
  8
MY3DLAYER
10
5.585666193902381
20
0.5463148156503222
30
0.0
 70
     32
  0
VERTEX
  8
MY3DLAYER
10
5.199568551970798
20
0.38638793596204546
30
0.0
 70
     32
  0
SEQEND
  0
POLYLINE
 8
Layer0
 66
     1
70
    8
 10
0.0
 20
 0.0
 30
0.0
  0
VERTEX
  8
MY3DLAYER
10
5.572948575580763
20
13.26622238662279
30
0.0
 70
     32
  0
VERTEX
  8
MY3DLAYER
10
5.9999999999998535
20
13.209999999999901
30
0.0
 70
     32
  0
VERTEX
  8
MY3DLAYER
10
6.427051424419125
20
13.26622238662279
30
0.0
 70
     32
  0
VERTEX
  8
MY3DLAYER
10
6.8249999999998465
20
13.431058083755394
30
0.0
 70
     32
  0
VERTEX
  8
MY3DLAYER
10
7.166726188957635
20
13.693273811042015
30
0.0
 70
     32
  0
VERTEX
  8
MY3DLAYER
10
7.428941916244076
20
14.034999999999624
30
0.0
 70
     32
  0
VERTEX
  8
MY3DLAYER
10
7.593777613376907
20
14.432948575580571
30
0.0
 70
     32
  0
VERTEX
  8
MY3DLAYER
10
7.649999999999885
20
14.859999999999797
30
0.0
 70
     32
  0
VERTEX
  8
MY3DLAYER
10
7.593777613376907
20
15.287051424419023
30
0.0
 70
     32
  0
VERTEX
  8
MY3DLAYER
10
7.428941916244076
20
15.685000000000061
30
0.0
 70
     32
  0
VERTEX
  8
MY3DLAYER
10
7.166726188957635
20
16.02672618895758
30
0.0
 70
     32
  0
VERTEX
  8
MY3DLAYER
10
6.8249999999998465
20
16.28894191624402
30
0.0
 70
     32
  0
VERTEX
  8
MY3DLAYER
10
6.427051424419125
20
16.453777613376804
30
0.0
 70
     32
  0
VERTEX
  8
MY3DLAYER
10
5.9999999999998535
20
16.50999999999978
30
0.0
 70
     32
  0
VERTEX
  8
MY3DLAYER
10
5.572948575580763
20
16.453777613376804
30
0.0
 70
     32
  0
VERTEX
  8
MY3DLAYER
10
5.17499999999986
20
16.28894191624402
30
0.0
 70
     32
  0
VERTEX
  8
MY3DLAYER
10
4.833273811041982
20
16.02672618895758
30
0.0
 70
     32
  0
VERTEX
  8
MY3DLAYER
10
4.571058083755496
20
15.685000000000061
30
0.0
 70
     32
  0
VERTEX
  8
MY3DLAYER
10
4.406222386622981
20
15.287051424419023
30
0.0
 70
     32
  0
VERTEX
  8
MY3DLAYER
10
4.349999999999823
20
14.859999999999797
30
0.0
 70
     32
  0
VERTEX
  8
MY3DLAYER
10
4.406222386622981
20
14.432948575580571
30
0.0
 70
     32
  0
VERTEX
  8
MY3DLAYER
10
4.571058083755496
20
14.034999999999624
30
0.0
 70
     32
  0
VERTEX
  8
MY3DLAYER
10
4.833273811041982
20
13.693273811042015
30
0.0
 70
     32
  0
VERTEX
  8
MY3DLAYER
10
5.17499999999986
20
13.431058083755394
30
0.0
 70
     32
  0
VERTEX
  8
MY3DLAYER
10
5.572948575580763
20
13.26622238662279
30
0.0
 70
     32
  0
SEQEND
  0
POLYLINE
 8
Layer0
 66
     1
70
    8
 10
0.0
 20
 0.0
 30
0.0
  0
VERTEX
  8
MY3DLAYER
10
9.007407282861307
20
31.576476193621932
30
0.0
 70
     32
  0
VERTEX
  8
MY3DLAYER
10
9.049999999999972
20
31.900000000000055
30
0.0
 70
     32
  0
VERTEX
  8
MY3DLAYER
10
9.007407282861307
20
32.223523806378175
30
0.0
 70
     32
  0
VERTEX
  8
MY3DLAYER
10
8.882531754730516
20
32.52500000000009
30
0.0
 70
     32
  0
VERTEX
  8
MY3DLAYER
10
8.683883476483139
20
32.783883476483254
30
0.0
 70
     32
  0
VERTEX
  8
MY3DLAYER
10
8.42499999999998
20
32.98253175473063
30
0.0
 70
     32
  0
VERTEX
  8
MY3DLAYER
10
8.123523806378154
20
33.107407282861374
30
0.0
 70
     32
  0
VERTEX
  8
MY3DLAYER
10
7.799999999999986
20
33.15000000000004
30
0.0
 70
     32
  0
VERTEX
  8
MY3DLAYER
10
7.476476193621818
20
33.107407282861374
30
0.0
 70
     32
  0
VERTEX
  8
MY3DLAYER
10
7.174999999999993
20
32.98253175473063
30
0.0
 70
     32
  0
VERTEX
  8
MY3DLAYER
10
6.916116523516788
20
32.783883476483254
30
0.0
 70
     32
  0
VERTEX
  8
MY3DLAYER
10
6.717468245269455
20
32.525000000000006
30
0.0
 70
     32
  0
VERTEX
  8
MY3DLAYER
10
6.592592717138666
20
32.223523806378175
30
0.0
 70
     32
  0
VERTEX
  8
MY3DLAYER
10
6.549999999999999
20
31.900000000000055
30
0.0
 70
     32
  0
VERTEX
  8
MY3DLAYER
10
6.592592717138666
20
31.576476193621932
30
0.0
 70
     32
  0
VERTEX
  8
MY3DLAYER
10
6.717468245269455
20
31.275000000000016
30
0.0
 70
     32
  0
VERTEX
  8
MY3DLAYER
10
6.916116523516833
20
31.016116523516857
30
0.0
 70
     32
  0
VERTEX
  8
MY3DLAYER
10
7.174999999999993
20
30.817468245269477
30
0.0
 70
     32
  0
VERTEX
  8
MY3DLAYER
10
7.476476193621818
20
30.692592717138734
30
0.0
 70
     32
  0
VERTEX
  8
MY3DLAYER
10
7.799999999999986
20
30.65000000000007
30
0.0
 70
     32
  0
VERTEX
  8
MY3DLAYER
10
8.123523806378154
20
30.692592717138734
30
0.0
 70
     32
  0
VERTEX
  8
MY3DLAYER
10
8.42499999999998
20
30.817468245269477
30
0.0
 70
     32
  0
VERTEX
  8
MY3DLAYER
10
8.683883476483139
20
31.016116523516857
30
0.0
 70
     32
  0
VERTEX
  8
MY3DLAYER
10
8.882531754730516
20
31.275000000000105
30
0.0
 70
     32
  0
VERTEX
  8
MY3DLAYER
10
9.007407282861307
20
31.576476193621932
30
0.0
 70
     32
  0
SEQEND
  0
POLYLINE
 8
Layer0
 66
     1
70
    8
 10
0.0
 20
 0.0
 30
0.0
  0
VERTEX
  8
MY3DLAYER
10
19.572948575580828
20
39.134161933409686
30
1.8047785488306544e-13
 70
     32
  0
VERTEX
  8
MY3DLAYER
10
19.17500000000006
20
38.96932623627708
30
1.8047785488306544e-13
 70
     32
  0
VERTEX
  8
MY3DLAYER
10
18.833273811042137
20
38.707110508990546
30
1.8047785488306544e-13
 70
     32
  0
VERTEX
  8
MY3DLAYER
10
18.571058083755606
20
38.36538432003303
30
1.8047785488306544e-13
 70
     32
  0
VERTEX
  8
MY3DLAYER
10
18.406222386623046
20
37.967435744451905
30
1.8047785488306544e-13
 70
     32
  0
VERTEX
  8
MY3DLAYER
10
18.349999999999934
20
37.540384320032764
30
1.8047785488306544e-13
 70
     32
  0
VERTEX
  8
MY3DLAYER
10
18.406222386623046
20
37.113332895613446
30
1.8047785488306544e-13
 70
     32
  0
VERTEX
  8
MY3DLAYER
10
18.571058083755606
20
36.715384320032776
30
1.8047785488306544e-13
 70
     32
  0
VERTEX
  8
MY3DLAYER
10
18.833273811042137
20
36.37365813107498
30
1.8047785488306544e-13
 70
     32
  0
VERTEX
  8
MY3DLAYER
10
19.17500000000006
20
36.11144240378836
30
1.8047785488306544e-13
 70
     32
  0
VERTEX
  8
MY3DLAYER
10
19.572948575580828
20
35.946606706655665
30
1.8047785488306544e-13
 70
     32
  0
VERTEX
  8
MY3DLAYER
10
20.000000000000007
20
35.89038432003269
30
1.8047785488306544e-13
 70
     32
  0
VERTEX
  8
MY3DLAYER
10
20.427051424419144
20
35.946606706655665
30
1.8047785488306544e-13
 70
     32
  0
VERTEX
  8
MY3DLAYER
10
20.82500000000009
20
36.11144240378836
30
1.8047785488306544e-13
 70
     32
  0
VERTEX
  8
MY3DLAYER
10
21.166726188957835
20
36.37365813107498
30
1.8047785488306544e-13
 70
     32
  0
VERTEX
  8
MY3DLAYER
10
21.428941916244277
20
36.715384320032776
30
1.8047785488306544e-13
 70
     32
  0
VERTEX
  8
MY3DLAYER
10
21.593777613376925
20
37.113332895613446
30
1.8047785488306544e-13
 70
     32
  0
VERTEX
  8
MY3DLAYER
10
21.650000000000038
20
37.540384320032764
30
1.8047785488306544e-13
 70
     32
  0
VERTEX
  8
MY3DLAYER
10
21.593777613376925
20
37.967435744451905
30
1.8047785488306544e-13
 70
     32
  0
VERTEX
  8
MY3DLAYER
10
21.428941916244277
20
38.36538432003303
30
1.8047785488306544e-13
 70
     32
  0
VERTEX
  8
MY3DLAYER
10
21.166726188957835
20
38.707110508990546
30
1.8047785488306544e-13
 70
     32
  0
VERTEX
  8
MY3DLAYER
10
20.82500000000009
20
38.96932623627708
30
1.8047785488306544e-13
 70
     32
  0
VERTEX
  8
MY3DLAYER
10
20.427051424419144
20
39.134161933409686
30
1.8047785488306544e-13
 70
     32
  0
VERTEX
  8
MY3DLAYER
10
20.000000000000007
20
39.19038432003266
30
1.8047785488306544e-13
 70
     32
  0
VERTEX
  8
MY3DLAYER
10
19.572948575580828
20
39.134161933409686
30
1.8047785488306544e-13
 70
     32
  0
SEQEND
  0
POLYLINE
 8
Layer0
 66
     1
70
    8
 10
0.0
 20
 0.0
 30
0.0
  0
VERTEX
  8
MY3DLAYER
10
17.454518677937486
20
26.61411047216405
30
0.0
 70
     32
  0
VERTEX
  8
MY3DLAYER
10
17.400000000000013
20
26.199999999999996
30
0.0
 70
     32
  0
VERTEX
  8
MY3DLAYER
10
17.454518677937486
20
25.78588952783594
30
0.0
 70
     32
  0
VERTEX
  8
MY3DLAYER
10
17.614359353944927
20
25.4
30
0.0
 70
     32
  0
VERTEX
  8
MY3DLAYER
10
17.86862915010154
20
25.068629150101483
30
0.0
 70
     32
  0
VERTEX
  8
MY3DLAYER
10
18.200000000000014
20
24.814359353944866
30
0.0
 70
     32
  0
VERTEX
  8
MY3DLAYER
10
18.585889527835956
20
24.654518677937517
30
0.0
 70
     32
  0
VERTEX
  8
MY3DLAYER
10
19.00000000000001
20
24.6
30
0.0
 70
     32
  0
VERTEX
  8
MY3DLAYER
10
19.414110472164065
20
24.654518677937517
30
0.0
 70
     32
  0
VERTEX
  8
MY3DLAYER
10
19.800000000000008
20
24.814359353944866
30
0.0
 70
     32
  0
VERTEX
  8
MY3DLAYER
10
20.13137084989848
20
25.068629150101483
30
0.0
 70
     32
  0
VERTEX
  8
MY3DLAYER
10
20.385640646055094
20
25.4
30
0.0
 70
     32
  0
VERTEX
  8
MY3DLAYER
10
20.545481322062535
20
25.78588952783594
30
0.0
 70
     32
  0
VERTEX
  8
MY3DLAYER
10
20.60000000000001
20
26.199999999999996
30
0.0
 70
     32
  0
VERTEX
  8
MY3DLAYER
10
20.545481322062535
20
26.61411047216405
30
0.0
 70
     32
  0
VERTEX
  8
MY3DLAYER
10
20.385640646055094
20
26.999999999999996
30
0.0
 70
     32
  0
VERTEX
  8
MY3DLAYER
10
20.13137084989848
20
27.331370849898512
30
0.0
 70
     32
  0
VERTEX
  8
MY3DLAYER
10
19.800000000000008
20
27.585640646055126
30
0.0
 70
     32
  0
VERTEX
  8
MY3DLAYER
10
19.41411047216402
20
27.745481322062478
30
0.0
 70
     32
  0
VERTEX
  8
MY3DLAYER
10
19.00000000000001
20
27.799999999999994
30
0.0
 70
     32
  0
VERTEX
  8
MY3DLAYER
10
18.585889527835956
20
27.745481322062478
30
0.0
 70
     32
  0
VERTEX
  8
MY3DLAYER
10
18.200000000000014
20
27.585640646055126
30
0.0
 70
     32
  0
VERTEX
  8
MY3DLAYER
10
17.86862915010154
20
27.331370849898512
30
0.0
 70
     32
  0
VERTEX
  8
MY3DLAYER
10
17.614359353944927
20
26.999999999999996
30
0.0
 70
     32
  0
VERTEX
  8
MY3DLAYER
10
17.454518677937486
20
26.61411047216405
30
0.0
 70
     32
  0
SEQEND
  0
POLYLINE
 8
Layer0
 66
     1
70
    8
 10
0.0
 20
 0.0
 30
0.0
  0
VERTEX
  8
MY3DLAYER
10
7.5937776133768615
20
37.96743574445181
30
0.0
 70
     32
  0
VERTEX
  8
MY3DLAYER
10
7.428941916244302
20
38.36538432003267
30
0.0
 70
     32
  0
VERTEX
  8
MY3DLAYER
10
7.166726188957726
20
38.70711050899045
30
0.0
 70
     32
  0
VERTEX
  8
MY3DLAYER
10
6.824999999999892
20
38.96932623627699
30
0.0
 70
     32
  0
VERTEX
  8
MY3DLAYER
10
6.42705142441908
20
39.134161933409594
30
0.0
 70
     32
  0
VERTEX
  8
MY3DLAYER
10
5.999999999999899
20
39.19038432003266
30
0.0
 70
     32
  0
VERTEX
  8
MY3DLAYER
10
5.5729485755807175
20
39.134161933409594
30
0.0
 70
     32
  0
VERTEX
  8
MY3DLAYER
10
5.174999999999951
20
38.96932623627699
30
0.0
 70
     32
  0
VERTEX
  8
MY3DLAYER
10
4.833273811042072
20
38.70711050899045
30
0.0
 70
     32
  0
VERTEX
  8
MY3DLAYER
10
4.571058083755585
20
38.36538432003267
30
0.0
 70
     32
  0
VERTEX
  8
MY3DLAYER
10
4.406222386622936
20
37.96743574445181
30
0.0
 70
     32
  0
VERTEX
  8
MY3DLAYER
10
4.349999999999868
20
37.54038432003268
30
0.0
 70
     32
  0
VERTEX
  8
MY3DLAYER
10
4.406222386622936
20
37.113332895613446
30
0.0
 70
     32
  0
VERTEX
  8
MY3DLAYER
10
4.571058083755585
20
36.715384320032506
30
0.0
 70
     32
  0
VERTEX
  8
MY3DLAYER
10
4.833273811042072
20
36.3736581310749
30
0.0
 70
     32
  0
VERTEX
  8
MY3DLAYER
10
5.174999999999951
20
36.11144240378836
30
0.0
 70
     32
  0
VERTEX
  8
MY3DLAYER
10
5.5729485755807175
20
35.946606706655665
30
0.0
 70
     32
  0
VERTEX
  8
MY3DLAYER
10
5.999999999999899
20
35.8903843200326
30
0.0
 70
     32
  0
VERTEX
  8
MY3DLAYER
10
6.42705142441908
20
35.946606706655665
30
0.0
 70
     32
  0
VERTEX
  8
MY3DLAYER
10
6.824999999999892
20
36.11144240378836
30
0.0
 70
     32
  0
VERTEX
  8
MY3DLAYER
10
7.166726188957726
20
36.3736581310749
30
0.0
 70
     32
  0
VERTEX
  8
MY3DLAYER
10
7.428941916244302
20
36.715384320032506
30
0.0
 70
     32
  0
VERTEX
  8
MY3DLAYER
10
7.5937776133768615
20
37.113332895613446
30
0.0
 70
     32
  0
VERTEX
  8
MY3DLAYER
10
7.649999999999929
20
37.54038432003268
30
0.0
 70
     32
  0
VERTEX
  8
MY3DLAYER
10
7.5937776133768615
20
37.96743574445181
30
0.0
 70
     32
  0
SEQEND
  0
POLYLINE
 8
Layer0
 66
     1
70
    8
 10
0.0
 20
 0.0
 30
0.0
  0
VERTEX
  8
MY3DLAYER
10
6.916116523516833
20
19.566116523516843
30
0.0
 70
     32
  0
VERTEX
  8
MY3DLAYER
10
7.174999999999993
20
19.367468245269464
30
0.0
 70
     32
  0
VERTEX
  8
MY3DLAYER
10
7.476476193621818
20
19.24259271713872
30
0.0
 70
     32
  0
VERTEX
  8
MY3DLAYER
10
7.799999999999986
20
19.200000000000056
30
0.0
 70
     32
  0
VERTEX
  8
MY3DLAYER
10
8.123523806378154
20
19.24259271713872
30
0.0
 70
     32
  0
VERTEX
  8
MY3DLAYER
10
8.42499999999998
20
19.367468245269464
30
0.0
 70
     32
  0
VERTEX
  8
MY3DLAYER
10
8.683883476483139
20
19.566116523516843
30
0.0
 70
     32
  0
VERTEX
  8
MY3DLAYER
10
8.882531754730516
20
19.82500000000009
30
0.0
 70
     32
  0
VERTEX
  8
MY3DLAYER
10
9.007407282861307
20
20.12647619362192
30
0.0
 70
     32
  0
VERTEX
  8
MY3DLAYER
10
9.049999999999972
20
20.450000000000042
30
0.0
 70
     32
  0
VERTEX
  8
MY3DLAYER
10
9.007407282861307
20
20.773523806378165
30
0.0
 70
     32
  0
VERTEX
  8
MY3DLAYER
10
8.882531754730516
20
21.07500000000008
30
0.0
 70
     32
  0
VERTEX
  8
MY3DLAYER
10
8.683883476483139
20
21.33388347648324
30
0.0
 70
     32
  0
VERTEX
  8
MY3DLAYER
10
8.42499999999998
20
21.532531754730616
30
0.0
 70
     32
  0
VERTEX
  8
MY3DLAYER
10
8.123523806378154
20
21.65740728286136
30
0.0
 70
     32
  0
VERTEX
  8
MY3DLAYER
10
7.799999999999986
20
21.700000000000028
30
0.0
 70
     32
  0
VERTEX
  8
MY3DLAYER
10
7.476476193621818
20
21.65740728286136
30
0.0
 70
     32
  0
VERTEX
  8
MY3DLAYER
10
7.174999999999993
20
21.532531754730616
30
0.0
 70
     32
  0
VERTEX
  8
MY3DLAYER
10
6.916116523516788
20
21.33388347648324
30
0.0
 70
     32
  0
VERTEX
  8
MY3DLAYER
10
6.717468245269455
20
21.07499999999999
30
0.0
 70
     32
  0
VERTEX
  8
MY3DLAYER
10
6.592592717138666
20
20.773523806378165
30
0.0
 70
     32
  0
VERTEX
  8
MY3DLAYER
10
6.549999999999999
20
20.450000000000042
30
0.0
 70
     32
  0
VERTEX
  8
MY3DLAYER
10
6.592592717138666
20
20.12647619362192
30
0.0
 70
     32
  0
VERTEX
  8
MY3DLAYER
10
6.717468245269455
20
19.825000000000003
30
0.0
 70
     32
  0
VERTEX
  8
MY3DLAYER
10
6.916116523516833
20
19.566116523516843
30
0.0
 70
     32
  0
SEQEND
  0
POLYLINE
 8
Layer0
 66
     1
70
    8
 10
0.0
 20
 0.0
 30
0.0
  0
VERTEX
  8
MY3DLAYER
10
21.649999999999995
20
14.859999999999978
30
1.8047785488306544e-13
 70
     32
  0
VERTEX
  8
MY3DLAYER
10
21.593777613376925
20
15.287051424419204
30
1.8047785488306544e-13
 70
     32
  0
VERTEX
  8
MY3DLAYER
10
21.428941916244366
20
15.685000000000061
30
1.8047785488306544e-13
 70
     32
  0
VERTEX
  8
MY3DLAYER
10
21.166726188957835
20
16.02672618895776
30
1.8047785488306544e-13
 70
     32
  0
VERTEX
  8
MY3DLAYER
10
20.824999999999957
20
16.28894191624429
30
1.8047785488306544e-13
 70
     32
  0
VERTEX
  8
MY3DLAYER
10
20.427051424419144
20
16.453777613376985
30
1.8047785488306544e-13
 70
     32
  0
VERTEX
  8
MY3DLAYER
10
20.000000000000007
20
16.510000000000055
30
1.8047785488306544e-13
 70
     32
  0
VERTEX
  8
MY3DLAYER
10
19.57294857558078
20
16.453777613376985
30
1.8047785488306544e-13
 70
     32
  0
VERTEX
  8
MY3DLAYER
10
19.174999999999926
20
16.28894191624429
30
1.8047785488306544e-13
 70
     32
  0
VERTEX
  8
MY3DLAYER
10
18.833273811042183
20
16.02672618895776
30
1.8047785488306544e-13
 70
     32
  0
VERTEX
  8
MY3DLAYER
10
18.57105808375556
20
15.685000000000061
30
1.8047785488306544e-13
 70
     32
  0
VERTEX
  8
MY3DLAYER
10
18.406222386623
20
15.287051424419204
30
1.8047785488306544e-13
 70
     32
  0
VERTEX
  8
MY3DLAYER
10
18.349999999999934
20
14.859999999999978
30
1.8047785488306544e-13
 70
     32
  0
VERTEX
  8
MY3DLAYER
10
18.406222386623
20
14.432948575580841
30
1.8047785488306544e-13
 70
     32
  0
VERTEX
  8
MY3DLAYER
10
18.57105808375556
20
14.034999999999894
30
1.8047785488306544e-13
 70
     32
  0
VERTEX
  8
MY3DLAYER
10
18.833273811042183
20
13.693273811042197
30
1.8047785488306544e-13
 70
     32
  0
VERTEX
  8
MY3DLAYER
10
19.174999999999926
20
13.431058083755664
30
1.8047785488306544e-13
 70
     32
  0
VERTEX
  8
MY3DLAYER
10
19.57294857558078
20
13.26622238662306
30
1.8047785488306544e-13
 70
     32
  0
VERTEX
  8
MY3DLAYER
10
20.000000000000007
20
13.209999999999992
30
1.8047785488306544e-13
 70
     32
  0
VERTEX
  8
MY3DLAYER
10
20.427051424419144
20
13.26622238662306
30
1.8047785488306544e-13
 70
     32
  0
VERTEX
  8
MY3DLAYER
10
20.824999999999957
20
13.431058083755664
30
1.8047785488306544e-13
 70
     32
  0
VERTEX
  8
MY3DLAYER
10
21.166726188957835
20
13.693273811042197
30
1.8047785488306544e-13
 70
     32
  0
VERTEX
  8
MY3DLAYER
10
21.428941916244366
20
14.034999999999894
30
1.8047785488306544e-13
 70
     32
  0
VERTEX
  8
MY3DLAYER
10
21.593777613376925
20
14.432948575580841
30
1.8047785488306544e-13
 70
     32
  0
VERTEX
  8
MY3DLAYER
10
21.649999999999995
20
14.859999999999978
30
1.8047785488306544e-13
 70
     32
  0
SEQEND
  0
POLYLINE
 8
Layer0
 66
     1
70
    8
 10
0.0
 20
 0.0
 30
0.0
  0
VERTEX
  8
MY3DLAYER
10
9.028444235207031
20
25.656480005284674
30
0.0
 70
     32
  0
VERTEX
  8
MY3DLAYER
10
9.100000000000007
20
26.199999999999996
30
0.0
 70
     32
  0
VERTEX
  8
MY3DLAYER
10
9.028444235207031
20
26.743519994715317
30
0.0
 70
     32
  0
VERTEX
  8
MY3DLAYER
10
8.818653347947311
20
27.25000000000003
30
0.0
 70
     32
  0
VERTEX
  8
MY3DLAYER
10
8.484924240491754
20
27.684924240491718
30
0.0
 70
     32
  0
VERTEX
  8
MY3DLAYER
10
8.049999999999974
20
28.01865334794732
30
0.0
 70
     32
  0
VERTEX
  8
MY3DLAYER
10
7.543519994715264
20
28.22844423520704
30
0.0
 70
     32
  0
VERTEX
  8
MY3DLAYER
10
6.999999999999988
20
28.30000000000006
30
0.0
 70
     32
  0
VERTEX
  8
MY3DLAYER
10
6.456480005284666
20
28.22844423520704
30
0.0
 70
     32
  0
VERTEX
  8
MY3DLAYER
10
5.949999999999955
20
28.01865334794732
30
0.0
 70
     32
  0
VERTEX
  8
MY3DLAYER
10
5.51507575950822
20
27.684924240491718
30
0.0
 70
     32
  0
VERTEX
  8
MY3DLAYER
10
5.181346652052663
20
27.25000000000003
30
0.0
 70
     32
  0
VERTEX
  8
MY3DLAYER
10
4.971555764792944
20
26.743519994715317
30
0.0
 70
     32
  0
VERTEX
  8
MY3DLAYER
10
4.899999999999968
20
26.199999999999996
30
0.0
 70
     32
  0
VERTEX
  8
MY3DLAYER
10
4.971555764792944
20
25.656480005284674
30
0.0
 70
     32
  0
VERTEX
  8
MY3DLAYER
10
5.181346652052663
20
25.149999999999967
30
0.0
 70
     32
  0
VERTEX
  8
MY3DLAYER
10
5.51507575950822
20
24.715075759508274
30
0.0
 70
     32
  0
VERTEX
  8
MY3DLAYER
10
5.95
20
24.381346652052674
30
0.0
 70
     32
  0
VERTEX
  8
MY3DLAYER
10
6.45648000528471
20
24.171555764792952
30
0.0
 70
     32
  0
VERTEX
  8
MY3DLAYER
10
6.999999999999988
20
24.099999999999934
30
0.0
 70
     32
  0
VERTEX
  8
MY3DLAYER
10
7.543519994715264
20
24.171555764792952
30
0.0
 70
     32
  0
VERTEX
  8
MY3DLAYER
10
8.050000000000018
20
24.381346652052674
30
0.0
 70
     32
  0
VERTEX
  8
MY3DLAYER
10
8.484924240491754
20
24.715075759508274
30
0.0
 70
     32
  0
VERTEX
  8
MY3DLAYER
10
8.818653347947311
20
25.149999999999967
30
0.0
 70
     32
  0
VERTEX
  8
MY3DLAYER
10
9.028444235207031
20
25.656480005284674
30
0.0
 70
     32
  0
SEQEND
  0
POLYLINE
 8
Layer0
 66
     1
70
    8
 10
0.0
 20
 0.0
 30
0.0
  0
VERTEX
  8
MY3DLAYER
10
22.500000000000025
20
40.54038432003281
30
0.0
 70
     32
  0
VERTEX
  8
MY3DLAYER
10
22.500000000000025
20
49.39803518948799
30
0.0
 70
     32
  0
VERTEX
  8
MY3DLAYER
10
3.0000000000000395
20
49.39803518948799
30
0.0
 70
     32
  0
VERTEX
  8
MY3DLAYER
10
3.0000000000000395
20
40.54038432003281
30
0.0
 70
     32
  0
VERTEX
  8
MY3DLAYER
10
22.500000000000025
20
40.54038432003281
30
0.0
 70
     32
  0
SEQEND
  0
POLYLINE
 8
Layer0
 66
     1
70
    8
 10
0.0
 20
 0.0
 30
0.0
  0
VERTEX
  8
MY3DLAYER
10
3.0000000000000395
20
11.860000000000028
30
0.0
 70
     32
  0
VERTEX
  8
MY3DLAYER
10
3.0000000000000395
20
3.0000000000000395
30
0.0
 70
     32
  0
VERTEX
  8
MY3DLAYER
10
22.500000000000025
20
3.0000000000000395
30
0.0
 70
     32
  0
VERTEX
  8
MY3DLAYER
10
22.500000000000025
20
11.860000000000028
30
0.0
 70
     32
  0
VERTEX
  8
MY3DLAYER
10
3.0000000000000395
20
11.860000000000028
30
0.0
 70
     32
  0
SEQEND
 0
ENDSEC
 0
EOF
