 0
SECTION
 2
ENTITIES
  0
POLYLINE
 8
Layer0
 66
     1
70
    8
 10
0.0
 20
 0.0
 30
0.0
  0
VERTEX
  8
MY3DLAYER
10
24.24999999999999
20
33.20000000000003
30
0.0
 70
     32
  0
VERTEX
  8
MY3DLAYER
10
24.24999999999999
20
19.199999999999964
30
0.0
 70
     32
  0
VERTEX
  8
MY3DLAYER
10
24.24999999999999
20
0.0
30
0.0
 70
     32
  0
VERTEX
  8
MY3DLAYER
10
20.607206358681907
20
0.0
30
0.0
 70
     32
  0
VERTEX
  8
MY3DLAYER
10
20.56066017177988
20
0.06066017177975808
30
0.0
 70
     32
  0
VERTEX
  8
MY3DLAYER
10
20.250000000000043
20
0.2990381056766296
30
0.0
 70
     32
  0
VERTEX
  8
MY3DLAYER
10
19.888228567653833
20
0.44888873943355917
30
0.0
 70
     32
  0
VERTEX
  8
MY3DLAYER
10
19.500000000000032
20
0.4999999999999765
30
0.0
 70
     32
  0
VERTEX
  8
MY3DLAYER
10
19.11177143234623
20
0.44888873943355917
30
0.0
 70
     32
  0
VERTEX
  8
MY3DLAYER
10
18.75000000000002
20
0.2990381056766296
30
0.0
 70
     32
  0
VERTEX
  8
MY3DLAYER
10
18.439339828220184
20
0.06066017177975808
30
0.0
 70
     32
  0
VERTEX
  8
MY3DLAYER
10
18.39279364131811
20
0.0
30
0.0
 70
     32
  0
VERTEX
  8
MY3DLAYER
10
7.1072063586819105
20
0.0
30
0.0
 70
     32
  0
VERTEX
  8
MY3DLAYER
10
7.0606601717798805
20
0.06066017177975808
30
0.0
 70
     32
  0
VERTEX
  8
MY3DLAYER
10
6.750000000000044
20
0.2990381056766296
30
0.0
 70
     32
  0
VERTEX
  8
MY3DLAYER
10
6.388228567653835
20
0.44888873943355917
30
0.0
 70
     32
  0
VERTEX
  8
MY3DLAYER
10
6.000000000000034
20
0.4999999999999765
30
0.0
 70
     32
  0
VERTEX
  8
MY3DLAYER
10
5.611771432346233
20
0.44888873943355917
30
0.0
 70
     32
  0
VERTEX
  8
MY3DLAYER
10
5.250000000000024
20
0.2990381056766296
30
0.0
 70
     32
  0
VERTEX
  8
MY3DLAYER
10
4.939339828220188
20
0.06066017177975808
30
0.0
 70
     32
  0
VERTEX
  8
MY3DLAYER
10
4.892793641318158
20
0.0
30
0.0
 70
     32
  0
VERTEX
  8
MY3DLAYER
10
0.0
20
0.0
30
0.0
 70
     32
  0
VERTEX
  8
MY3DLAYER
10
0.0
20
52.39999999999999
30
0.0
 70
     32
  0
VERTEX
  8
MY3DLAYER
10
4.892793641318113
20
52.39999999999999
30
0.0
 70
     32
  0
VERTEX
  8
MY3DLAYER
10
4.939339828220188
20
52.33933982822023
30
0.0
 70
     32
  0
VERTEX
  8
MY3DLAYER
10
5.250000000000024
20
52.10096189432336
30
0.0
 70
     32
  0
VERTEX
  8
MY3DLAYER
10
5.611771432346233
20
51.951111260566435
30
0.0
 70
     32
  0
VERTEX
  8
MY3DLAYER
10
6.000000000000034
20
51.90000000000002
30
0.0
 70
     32
  0
VERTEX
  8
MY3DLAYER
10
6.388228567653835
20
51.951111260566435
30
0.0
 70
     32
  0
VERTEX
  8
MY3DLAYER
10
6.750000000000044
20
52.10096189432336
30
0.0
 70
     32
  0
VERTEX
  8
MY3DLAYER
10
7.0606601717798805
20
52.33933982822023
30
0.0
 70
     32
  0
VERTEX
  8
MY3DLAYER
10
7.1072063586819105
20
52.39999999999999
30
0.0
 70
     32
  0
VERTEX
  8
MY3DLAYER
10
18.39279364131811
20
52.39999999999999
30
1.8047785488306544e-13
 70
     32
  0
VERTEX
  8
MY3DLAYER
10
18.439339828220184
20
52.33933982822023
30
1.8047785488306544e-13
 70
     32
  0
VERTEX
  8
MY3DLAYER
10
18.75000000000002
20
52.10096189432336
30
1.8047785488306544e-13
 70
     32
  0
VERTEX
  8
MY3DLAYER
10
19.11177143234623
20
51.951111260566435
30
1.8047785488306544e-13
 70
     32
  0
VERTEX
  8
MY3DLAYER
10
19.500000000000032
20
51.90000000000002
30
1.8047785488306544e-13
 70
     32
  0
VERTEX
  8
MY3DLAYER
10
19.888228567653833
20
51.951111260566435
30
1.8047785488306544e-13
 70
     32
  0
VERTEX
  8
MY3DLAYER
10
20.250000000000043
20
52.10096189432336
30
1.8047785488306544e-13
 70
     32
  0
VERTEX
  8
MY3DLAYER
10
20.56066017177988
20
52.33933982822023
30
1.8047785488306544e-13
 70
     32
  0
VERTEX
  8
MY3DLAYER
10
20.607206358681953
20
52.39999999999999
30
1.8047785488306544e-13
 70
     32
  0
VERTEX
  8
MY3DLAYER
10
24.24999999999999
20
52.39999999999999
30
1.8047785488306544e-13
 70
     32
  0
VERTEX
  8
MY3DLAYER
10
24.24999999999999
20
33.20000000000003
30
0.0
 70
     32
  0
SEQEND
  0
POLYLINE
 8
Layer0
 66
     1
70
    8
 10
0.0
 20
 0.0
 30
0.0
  0
VERTEX
  8
MY3DLAYER
10
7.799999999999986
20
21.700000000000028
30
0.0
 70
     32
  0
VERTEX
  8
MY3DLAYER
10
7.476476193621818
20
21.65740728286136
30
0.0
 70
     32
  0
VERTEX
  8
MY3DLAYER
10
7.174999999999993
20
21.532531754730616
30
0.0
 70
     32
  0
VERTEX
  8
MY3DLAYER
10
6.916116523516788
20
21.33388347648324
30
0.0
 70
     32
  0
VERTEX
  8
MY3DLAYER
10
6.717468245269455
20
21.07499999999999
30
0.0
 70
     32
  0
VERTEX
  8
MY3DLAYER
10
6.592592717138666
20
20.773523806378165
30
0.0
 70
     32
  0
VERTEX
  8
MY3DLAYER
10
6.549999999999999
20
20.450000000000042
30
0.0
 70
     32
  0
VERTEX
  8
MY3DLAYER
10
6.592592717138666
20
20.12647619362192
30
0.0
 70
     32
  0
VERTEX
  8
MY3DLAYER
10
6.717468245269455
20
19.825000000000003
30
0.0
 70
     32
  0
VERTEX
  8
MY3DLAYER
10
6.916116523516833
20
19.566116523516843
30
0.0
 70
     32
  0
VERTEX
  8
MY3DLAYER
10
7.174999999999993
20
19.367468245269464
30
0.0
 70
     32
  0
VERTEX
  8
MY3DLAYER
10
7.476476193621818
20
19.24259271713872
30
0.0
 70
     32
  0
VERTEX
  8
MY3DLAYER
10
7.799999999999986
20
19.200000000000056
30
0.0
 70
     32
  0
VERTEX
  8
MY3DLAYER
10
8.123523806378154
20
19.24259271713872
30
0.0
 70
     32
  0
VERTEX
  8
MY3DLAYER
10
8.42499999999998
20
19.367468245269464
30
0.0
 70
     32
  0
VERTEX
  8
MY3DLAYER
10
8.683883476483139
20
19.566116523516843
30
0.0
 70
     32
  0
VERTEX
  8
MY3DLAYER
10
8.882531754730516
20
19.82500000000009
30
0.0
 70
     32
  0
VERTEX
  8
MY3DLAYER
10
9.007407282861307
20
20.12647619362192
30
0.0
 70
     32
  0
VERTEX
  8
MY3DLAYER
10
9.049999999999972
20
20.450000000000042
30
0.0
 70
     32
  0
VERTEX
  8
MY3DLAYER
10
9.007407282861307
20
20.773523806378165
30
0.0
 70
     32
  0
VERTEX
  8
MY3DLAYER
10
8.882531754730516
20
21.07500000000008
30
0.0
 70
     32
  0
VERTEX
  8
MY3DLAYER
10
8.683883476483139
20
21.33388347648324
30
0.0
 70
     32
  0
VERTEX
  8
MY3DLAYER
10
8.42499999999998
20
21.532531754730616
30
0.0
 70
     32
  0
VERTEX
  8
MY3DLAYER
10
8.123523806378154
20
21.65740728286136
30
0.0
 70
     32
  0
VERTEX
  8
MY3DLAYER
10
7.799999999999986
20
21.700000000000028
30
0.0
 70
     32
  0
SEQEND
  0
POLYLINE
 8
Layer0
 66
     1
70
    8
 10
0.0
 20
 0.0
 30
0.0
  0
VERTEX
  8
MY3DLAYER
10
6.916116523516788
20
32.783883476483254
30
0.0
 70
     32
  0
VERTEX
  8
MY3DLAYER
10
6.717468245269455
20
32.525000000000006
30
0.0
 70
     32
  0
VERTEX
  8
MY3DLAYER
10
6.592592717138666
20
32.223523806378175
30
0.0
 70
     32
  0
VERTEX
  8
MY3DLAYER
10
6.549999999999999
20
31.900000000000055
30
0.0
 70
     32
  0
VERTEX
  8
MY3DLAYER
10
6.592592717138666
20
31.576476193621932
30
0.0
 70
     32
  0
VERTEX
  8
MY3DLAYER
10
6.717468245269455
20
31.275000000000016
30
0.0
 70
     32
  0
VERTEX
  8
MY3DLAYER
10
6.916116523516833
20
31.016116523516857
30
0.0
 70
     32
  0
VERTEX
  8
MY3DLAYER
10
7.174999999999993
20
30.817468245269477
30
0.0
 70
     32
  0
VERTEX
  8
MY3DLAYER
10
7.476476193621818
20
30.692592717138734
30
0.0
 70
     32
  0
VERTEX
  8
MY3DLAYER
10
7.799999999999986
20
30.65000000000007
30
0.0
 70
     32
  0
VERTEX
  8
MY3DLAYER
10
8.123523806378154
20
30.692592717138734
30
0.0
 70
     32
  0
VERTEX
  8
MY3DLAYER
10
8.42499999999998
20
30.817468245269477
30
0.0
 70
     32
  0
VERTEX
  8
MY3DLAYER
10
8.683883476483139
20
31.016116523516857
30
0.0
 70
     32
  0
VERTEX
  8
MY3DLAYER
10
8.882531754730516
20
31.275000000000105
30
0.0
 70
     32
  0
VERTEX
  8
MY3DLAYER
10
9.007407282861307
20
31.576476193621932
30
0.0
 70
     32
  0
VERTEX
  8
MY3DLAYER
10
9.049999999999972
20
31.900000000000055
30
0.0
 70
     32
  0
VERTEX
  8
MY3DLAYER
10
9.007407282861307
20
32.223523806378175
30
0.0
 70
     32
  0
VERTEX
  8
MY3DLAYER
10
8.882531754730516
20
32.52500000000009
30
0.0
 70
     32
  0
VERTEX
  8
MY3DLAYER
10
8.683883476483139
20
32.783883476483254
30
0.0
 70
     32
  0
VERTEX
  8
MY3DLAYER
10
8.42499999999998
20
32.98253175473063
30
0.0
 70
     32
  0
VERTEX
  8
MY3DLAYER
10
8.123523806378154
20
33.107407282861374
30
0.0
 70
     32
  0
VERTEX
  8
MY3DLAYER
10
7.799999999999986
20
33.15000000000004
30
0.0
 70
     32
  0
VERTEX
  8
MY3DLAYER
10
7.476476193621818
20
33.107407282861374
30
0.0
 70
     32
  0
VERTEX
  8
MY3DLAYER
10
7.174999999999993
20
32.98253175473063
30
0.0
 70
     32
  0
VERTEX
  8
MY3DLAYER
10
6.916116523516788
20
32.783883476483254
30
0.0
 70
     32
  0
SEQEND
  0
POLYLINE
 8
Layer0
 66
     1
70
    8
 10
0.0
 20
 0.0
 30
0.0
  0
VERTEX
  8
MY3DLAYER
10
18.200000000000014
20
27.585640646055126
30
0.0
 70
     32
  0
VERTEX
  8
MY3DLAYER
10
17.86862915010154
20
27.331370849898512
30
0.0
 70
     32
  0
VERTEX
  8
MY3DLAYER
10
17.614359353944927
20
26.999999999999996
30
0.0
 70
     32
  0
VERTEX
  8
MY3DLAYER
10
17.454518677937486
20
26.61411047216405
30
0.0
 70
     32
  0
VERTEX
  8
MY3DLAYER
10
17.400000000000013
20
26.199999999999996
30
0.0
 70
     32
  0
VERTEX
  8
MY3DLAYER
10
17.454518677937486
20
25.78588952783594
30
0.0
 70
     32
  0
VERTEX
  8
MY3DLAYER
10
17.614359353944927
20
25.4
30
0.0
 70
     32
  0
VERTEX
  8
MY3DLAYER
10
17.86862915010154
20
25.068629150101483
30
0.0
 70
     32
  0
VERTEX
  8
MY3DLAYER
10
18.200000000000014
20
24.814359353944866
30
0.0
 70
     32
  0
VERTEX
  8
MY3DLAYER
10
18.585889527835956
20
24.654518677937517
30
0.0
 70
     32
  0
VERTEX
  8
MY3DLAYER
10
19.00000000000001
20
24.6
30
0.0
 70
     32
  0
VERTEX
  8
MY3DLAYER
10
19.414110472164065
20
24.654518677937517
30
0.0
 70
     32
  0
VERTEX
  8
MY3DLAYER
10
19.800000000000008
20
24.814359353944866
30
0.0
 70
     32
  0
VERTEX
  8
MY3DLAYER
10
20.13137084989848
20
25.068629150101483
30
0.0
 70
     32
  0
VERTEX
  8
MY3DLAYER
10
20.385640646055094
20
25.4
30
0.0
 70
     32
  0
VERTEX
  8
MY3DLAYER
10
20.545481322062535
20
25.78588952783594
30
0.0
 70
     32
  0
VERTEX
  8
MY3DLAYER
10
20.60000000000001
20
26.199999999999996
30
0.0
 70
     32
  0
VERTEX
  8
MY3DLAYER
10
20.545481322062535
20
26.61411047216405
30
0.0
 70
     32
  0
VERTEX
  8
MY3DLAYER
10
20.385640646055094
20
26.999999999999996
30
0.0
 70
     32
  0
VERTEX
  8
MY3DLAYER
10
20.13137084989848
20
27.331370849898512
30
0.0
 70
     32
  0
VERTEX
  8
MY3DLAYER
10
19.800000000000008
20
27.585640646055126
30
0.0
 70
     32
  0
VERTEX
  8
MY3DLAYER
10
19.41411047216402
20
27.745481322062478
30
0.0
 70
     32
  0
VERTEX
  8
MY3DLAYER
10
19.00000000000001
20
27.799999999999994
30
0.0
 70
     32
  0
VERTEX
  8
MY3DLAYER
10
18.585889527835956
20
27.745481322062478
30
0.0
 70
     32
  0
VERTEX
  8
MY3DLAYER
10
18.200000000000014
20
27.585640646055126
30
0.0
 70
     32
  0
SEQEND
  0
POLYLINE
 8
Layer0
 66
     1
70
    8
 10
0.0
 20
 0.0
 30
0.0
  0
VERTEX
  8
MY3DLAYER
10
5.95
20
24.381346652052674
30
0.0
 70
     32
  0
VERTEX
  8
MY3DLAYER
10
6.45648000528471
20
24.171555764792952
30
0.0
 70
     32
  0
VERTEX
  8
MY3DLAYER
10
6.999999999999988
20
24.099999999999934
30
0.0
 70
     32
  0
VERTEX
  8
MY3DLAYER
10
7.543519994715264
20
24.171555764792952
30
0.0
 70
     32
  0
VERTEX
  8
MY3DLAYER
10
8.050000000000018
20
24.381346652052674
30
0.0
 70
     32
  0
VERTEX
  8
MY3DLAYER
10
8.484924240491754
20
24.715075759508274
30
0.0
 70
     32
  0
VERTEX
  8
MY3DLAYER
10
8.818653347947311
20
25.149999999999967
30
0.0
 70
     32
  0
VERTEX
  8
MY3DLAYER
10
9.028444235207031
20
25.656480005284674
30
0.0
 70
     32
  0
VERTEX
  8
MY3DLAYER
10
9.100000000000007
20
26.199999999999996
30
0.0
 70
     32
  0
VERTEX
  8
MY3DLAYER
10
9.028444235207031
20
26.743519994715317
30
0.0
 70
     32
  0
VERTEX
  8
MY3DLAYER
10
8.818653347947311
20
27.25000000000003
30
0.0
 70
     32
  0
VERTEX
  8
MY3DLAYER
10
8.484924240491754
20
27.684924240491718
30
0.0
 70
     32
  0
VERTEX
  8
MY3DLAYER
10
8.049999999999974
20
28.01865334794732
30
0.0
 70
     32
  0
VERTEX
  8
MY3DLAYER
10
7.543519994715264
20
28.22844423520704
30
0.0
 70
     32
  0
VERTEX
  8
MY3DLAYER
10
6.999999999999988
20
28.30000000000006
30
0.0
 70
     32
  0
VERTEX
  8
MY3DLAYER
10
6.456480005284666
20
28.22844423520704
30
0.0
 70
     32
  0
VERTEX
  8
MY3DLAYER
10
5.949999999999955
20
28.01865334794732
30
0.0
 70
     32
  0
VERTEX
  8
MY3DLAYER
10
5.51507575950822
20
27.684924240491718
30
0.0
 70
     32
  0
VERTEX
  8
MY3DLAYER
10
5.181346652052663
20
27.25000000000003
30
0.0
 70
     32
  0
VERTEX
  8
MY3DLAYER
10
4.971555764792944
20
26.743519994715317
30
0.0
 70
     32
  0
VERTEX
  8
MY3DLAYER
10
4.899999999999968
20
26.199999999999996
30
0.0
 70
     32
  0
VERTEX
  8
MY3DLAYER
10
4.971555764792944
20
25.656480005284674
30
0.0
 70
     32
  0
VERTEX
  8
MY3DLAYER
10
5.181346652052663
20
25.149999999999967
30
0.0
 70
     32
  0
VERTEX
  8
MY3DLAYER
10
5.51507575950822
20
24.715075759508274
30
0.0
 70
     32
  0
VERTEX
  8
MY3DLAYER
10
5.95
20
24.381346652052674
30
0.0
 70
     32
  0
SEQEND
  0
POLYLINE
 8
Layer0
 66
     1
70
    8
 10
0.0
 20
 0.0
 30
0.0
  0
VERTEX
  8
MY3DLAYER
10
18.70096189432338
20
38.29038432003278
30
1.8047785488306544e-13
 70
     32
  0
VERTEX
  8
MY3DLAYER
10
18.55111126056645
20
37.92861288768657
30
1.8047785488306544e-13
 70
     32
  0
VERTEX
  8
MY3DLAYER
10
18.500000000000036
20
37.540384320032764
30
1.8047785488306544e-13
 70
     32
  0
VERTEX
  8
MY3DLAYER
10
18.55111126056645
20
37.15215575237897
30
1.8047785488306544e-13
 70
     32
  0
VERTEX
  8
MY3DLAYER
10
18.70096189432338
20
36.79038432003276
30
1.8047785488306544e-13
 70
     32
  0
VERTEX
  8
MY3DLAYER
10
18.939339828220206
20
36.47972414825296
30
1.8047785488306544e-13
 70
     32
  0
VERTEX
  8
MY3DLAYER
10
19.250000000000043
20
36.24134621435609
30
1.8047785488306544e-13
 70
     32
  0
VERTEX
  8
MY3DLAYER
10
19.611771432346252
20
36.091495580599165
30
1.8047785488306544e-13
 70
     32
  0
VERTEX
  8
MY3DLAYER
10
20.000000000000053
20
36.04038432003274
30
1.8047785488306544e-13
 70
     32
  0
VERTEX
  8
MY3DLAYER
10
20.388228567653854
20
36.091495580599165
30
1.8047785488306544e-13
 70
     32
  0
VERTEX
  8
MY3DLAYER
10
20.750000000000064
20
36.24134621435609
30
1.8047785488306544e-13
 70
     32
  0
VERTEX
  8
MY3DLAYER
10
21.0606601717799
20
36.47972414825296
30
1.8047785488306544e-13
 70
     32
  0
VERTEX
  8
MY3DLAYER
10
21.299038105676726
20
36.79038432003276
30
1.8047785488306544e-13
 70
     32
  0
VERTEX
  8
MY3DLAYER
10
21.448888739433656
20
37.15215575237897
30
1.8047785488306544e-13
 70
     32
  0
VERTEX
  8
MY3DLAYER
10
21.500000000000075
20
37.540384320032764
30
1.8047785488306544e-13
 70
     32
  0
VERTEX
  8
MY3DLAYER
10
21.448888739433656
20
37.92861288768657
30
1.8047785488306544e-13
 70
     32
  0
VERTEX
  8
MY3DLAYER
10
21.299038105676726
20
38.29038432003278
30
1.8047785488306544e-13
 70
     32
  0
VERTEX
  8
MY3DLAYER
10
21.0606601717799
20
38.601044491812566
30
1.8047785488306544e-13
 70
     32
  0
VERTEX
  8
MY3DLAYER
10
20.750000000000064
20
38.83942242570944
30
1.8047785488306544e-13
 70
     32
  0
VERTEX
  8
MY3DLAYER
10
20.388228567653854
20
38.98927305946637
30
1.8047785488306544e-13
 70
     32
  0
VERTEX
  8
MY3DLAYER
10
20.000000000000053
20
39.040384320032786
30
1.8047785488306544e-13
 70
     32
  0
VERTEX
  8
MY3DLAYER
10
19.611771432346252
20
38.98927305946637
30
1.8047785488306544e-13
 70
     32
  0
VERTEX
  8
MY3DLAYER
10
19.250000000000043
20
38.83942242570944
30
1.8047785488306544e-13
 70
     32
  0
VERTEX
  8
MY3DLAYER
10
18.939339828220206
20
38.601044491812566
30
1.8047785488306544e-13
 70
     32
  0
VERTEX
  8
MY3DLAYER
10
18.70096189432338
20
38.29038432003278
30
1.8047785488306544e-13
 70
     32
  0
SEQEND
  0
POLYLINE
 8
Layer0
 66
     1
70
    8
 10
0.0
 20
 0.0
 30
0.0
  0
VERTEX
  8
MY3DLAYER
10
21.448888739433656
20
15.248228567653868
30
1.8047785488306544e-13
 70
     32
  0
VERTEX
  8
MY3DLAYER
10
21.299038105676726
20
15.610000000000078
30
1.8047785488306544e-13
 70
     32
  0
VERTEX
  8
MY3DLAYER
10
21.0606601717799
20
15.920660171779868
30
1.8047785488306544e-13
 70
     32
  0
VERTEX
  8
MY3DLAYER
10
20.750000000000064
20
16.15903810567674
30
1.8047785488306544e-13
 70
     32
  0
VERTEX
  8
MY3DLAYER
10
20.388228567653854
20
16.30888873943367
30
1.8047785488306544e-13
 70
     32
  0
VERTEX
  8
MY3DLAYER
10
20.000000000000053
20
16.36000000000009
30
1.8047785488306544e-13
 70
     32
  0
VERTEX
  8
MY3DLAYER
10
19.611771432346252
20
16.30888873943367
30
1.8047785488306544e-13
 70
     32
  0
VERTEX
  8
MY3DLAYER
10
19.250000000000043
20
16.15903810567674
30
1.8047785488306544e-13
 70
     32
  0
VERTEX
  8
MY3DLAYER
10
18.939339828220206
20
15.920660171779868
30
1.8047785488306544e-13
 70
     32
  0
VERTEX
  8
MY3DLAYER
10
18.70096189432338
20
15.610000000000078
30
1.8047785488306544e-13
 70
     32
  0
VERTEX
  8
MY3DLAYER
10
18.55111126056645
20
15.248228567653868
30
1.8047785488306544e-13
 70
     32
  0
VERTEX
  8
MY3DLAYER
10
18.500000000000036
20
14.860000000000067
30
1.8047785488306544e-13
 70
     32
  0
VERTEX
  8
MY3DLAYER
10
18.55111126056645
20
14.471771432346266
30
1.8047785488306544e-13
 70
     32
  0
VERTEX
  8
MY3DLAYER
10
18.70096189432338
20
14.110000000000058
30
1.8047785488306544e-13
 70
     32
  0
VERTEX
  8
MY3DLAYER
10
18.939339828220206
20
13.799339828220266
30
1.8047785488306544e-13
 70
     32
  0
VERTEX
  8
MY3DLAYER
10
19.250000000000043
20
13.560961894323395
30
1.8047785488306544e-13
 70
     32
  0
VERTEX
  8
MY3DLAYER
10
19.611771432346252
20
13.411111260566464
30
1.8047785488306544e-13
 70
     32
  0
VERTEX
  8
MY3DLAYER
10
20.000000000000053
20
13.360000000000047
30
1.8047785488306544e-13
 70
     32
  0
VERTEX
  8
MY3DLAYER
10
20.388228567653854
20
13.411111260566464
30
1.8047785488306544e-13
 70
     32
  0
VERTEX
  8
MY3DLAYER
10
20.750000000000064
20
13.560961894323395
30
1.8047785488306544e-13
 70
     32
  0
VERTEX
  8
MY3DLAYER
10
21.0606601717799
20
13.799339828220266
30
1.8047785488306544e-13
 70
     32
  0
VERTEX
  8
MY3DLAYER
10
21.299038105676726
20
14.110000000000058
30
1.8047785488306544e-13
 70
     32
  0
VERTEX
  8
MY3DLAYER
10
21.448888739433656
20
14.471771432346266
30
1.8047785488306544e-13
 70
     32
  0
VERTEX
  8
MY3DLAYER
10
21.500000000000075
20
14.860000000000067
30
1.8047785488306544e-13
 70
     32
  0
VERTEX
  8
MY3DLAYER
10
21.448888739433656
20
15.248228567653868
30
1.8047785488306544e-13
 70
     32
  0
SEQEND
  0
POLYLINE
 8
Layer0
 66
     1
70
    8
 10
0.0
 20
 0.0
 30
0.0
  0
VERTEX
  8
MY3DLAYER
10
4.939339828220143
20
15.920660171779868
30
0.0
 70
     32
  0
VERTEX
  8
MY3DLAYER
10
4.700961894323316
20
15.610000000000078
30
0.0
 70
     32
  0
VERTEX
  8
MY3DLAYER
10
4.551111260566387
20
15.248228567653868
30
0.0
 70
     32
  0
VERTEX
  8
MY3DLAYER
10
4.499999999999969
20
14.860000000000067
30
0.0
 70
     32
  0
VERTEX
  8
MY3DLAYER
10
4.551111260566387
20
14.471771432346266
30
0.0
 70
     32
  0
VERTEX
  8
MY3DLAYER
10
4.700961894323316
20
14.110000000000058
30
0.0
 70
     32
  0
VERTEX
  8
MY3DLAYER
10
4.939339828220143
20
13.799339828220266
30
0.0
 70
     32
  0
VERTEX
  8
MY3DLAYER
10
5.249999999999979
20
13.560961894323395
30
0.0
 70
     32
  0
VERTEX
  8
MY3DLAYER
10
5.611771432346188
20
13.411111260566464
30
0.0
 70
     32
  0
VERTEX
  8
MY3DLAYER
10
5.999999999999989
20
13.360000000000047
30
0.0
 70
     32
  0
VERTEX
  8
MY3DLAYER
10
6.38822856765379
20
13.411111260566464
30
0.0
 70
     32
  0
VERTEX
  8
MY3DLAYER
10
6.749999999999999
20
13.560961894323395
30
0.0
 70
     32
  0
VERTEX
  8
MY3DLAYER
10
7.060660171779835
20
13.799339828220266
30
0.0
 70
     32
  0
VERTEX
  8
MY3DLAYER
10
7.299038105676662
20
14.110000000000058
30
0.0
 70
     32
  0
VERTEX
  8
MY3DLAYER
10
7.448888739433592
20
14.471771432346266
30
0.0
 70
     32
  0
VERTEX
  8
MY3DLAYER
10
7.500000000000009
20
14.860000000000067
30
0.0
 70
     32
  0
VERTEX
  8
MY3DLAYER
10
7.448888739433592
20
15.248228567653868
30
0.0
 70
     32
  0
VERTEX
  8
MY3DLAYER
10
7.299038105676662
20
15.610000000000078
30
0.0
 70
     32
  0
VERTEX
  8
MY3DLAYER
10
7.060660171779835
20
15.920660171779868
30
0.0
 70
     32
  0
VERTEX
  8
MY3DLAYER
10
6.749999999999999
20
16.15903810567674
30
0.0
 70
     32
  0
VERTEX
  8
MY3DLAYER
10
6.38822856765379
20
16.30888873943367
30
0.0
 70
     32
  0
VERTEX
  8
MY3DLAYER
10
5.999999999999989
20
16.36000000000009
30
0.0
 70
     32
  0
VERTEX
  8
MY3DLAYER
10
5.611771432346188
20
16.30888873943367
30
0.0
 70
     32
  0
VERTEX
  8
MY3DLAYER
10
5.249999999999979
20
16.15903810567674
30
0.0
 70
     32
  0
VERTEX
  8
MY3DLAYER
10
4.939339828220143
20
15.920660171779868
30
0.0
 70
     32
  0
SEQEND
  0
POLYLINE
 8
Layer0
 66
     1
70
    8
 10
0.0
 20
 0.0
 30
0.0
  0
VERTEX
  8
MY3DLAYER
10
4.939339828220143
20
38.601044491812566
30
0.0
 70
     32
  0
VERTEX
  8
MY3DLAYER
10
4.700961894323316
20
38.29038432003278
30
0.0
 70
     32
  0
VERTEX
  8
MY3DLAYER
10
4.551111260566387
20
37.92861288768657
30
0.0
 70
     32
  0
VERTEX
  8
MY3DLAYER
10
4.499999999999969
20
37.540384320032764
30
0.0
 70
     32
  0
VERTEX
  8
MY3DLAYER
10
4.551111260566387
20
37.15215575237897
30
0.0
 70
     32
  0
VERTEX
  8
MY3DLAYER
10
4.700961894323316
20
36.79038432003276
30
0.0
 70
     32
  0
VERTEX
  8
MY3DLAYER
10
4.939339828220143
20
36.47972414825296
30
0.0
 70
     32
  0
VERTEX
  8
MY3DLAYER
10
5.249999999999979
20
36.24134621435609
30
0.0
 70
     32
  0
VERTEX
  8
MY3DLAYER
10
5.611771432346188
20
36.091495580599165
30
0.0
 70
     32
  0
VERTEX
  8
MY3DLAYER
10
5.999999999999989
20
36.04038432003274
30
0.0
 70
     32
  0
VERTEX
  8
MY3DLAYER
10
6.38822856765379
20
36.091495580599165
30
0.0
 70
     32
  0
VERTEX
  8
MY3DLAYER
10
6.749999999999999
20
36.24134621435609
30
0.0
 70
     32
  0
VERTEX
  8
MY3DLAYER
10
7.060660171779835
20
36.47972414825296
30
0.0
 70
     32
  0
VERTEX
  8
MY3DLAYER
10
7.299038105676662
20
36.79038432003276
30
0.0
 70
     32
  0
VERTEX
  8
MY3DLAYER
10
7.448888739433592
20
37.15215575237897
30
0.0
 70
     32
  0
VERTEX
  8
MY3DLAYER
10
7.500000000000009
20
37.540384320032764
30
0.0
 70
     32
  0
VERTEX
  8
MY3DLAYER
10
7.448888739433592
20
37.92861288768657
30
0.0
 70
     32
  0
VERTEX
  8
MY3DLAYER
10
7.299038105676662
20
38.29038432003278
30
0.0
 70
     32
  0
VERTEX
  8
MY3DLAYER
10
7.060660171779835
20
38.601044491812566
30
0.0
 70
     32
  0
VERTEX
  8
MY3DLAYER
10
6.749999999999999
20
38.83942242570944
30
0.0
 70
     32
  0
VERTEX
  8
MY3DLAYER
10
6.38822856765379
20
38.98927305946637
30
0.0
 70
     32
  0
VERTEX
  8
MY3DLAYER
10
5.999999999999989
20
39.040384320032786
30
0.0
 70
     32
  0
VERTEX
  8
MY3DLAYER
10
5.611771432346188
20
38.98927305946637
30
0.0
 70
     32
  0
VERTEX
  8
MY3DLAYER
10
5.249999999999979
20
38.83942242570944
30
0.0
 70
     32
  0
VERTEX
  8
MY3DLAYER
10
4.939339828220143
20
38.601044491812566
30
0.0
 70
     32
  0
SEQEND
  0
POLYLINE
 8
Layer0
 66
     1
70
    8
 10
0.0
 20
 0.0
 30
0.0
  0
VERTEX
  8
MY3DLAYER
10
3.0000000000000395
20
40.54038432003281
30
0.0
 70
     32
  0
VERTEX
  8
MY3DLAYER
10
22.500000000000025
20
40.54038432003281
30
0.0
 70
     32
  0
VERTEX
  8
MY3DLAYER
10
22.500000000000025
20
49.39803518948799
30
0.0
 70
     32
  0
VERTEX
  8
MY3DLAYER
10
3.0000000000000395
20
49.39803518948799
30
0.0
 70
     32
  0
VERTEX
  8
MY3DLAYER
10
3.0000000000000395
20
40.54038432003281
30
0.0
 70
     32
  0
SEQEND
  0
POLYLINE
 8
Layer0
 66
     1
70
    8
 10
0.0
 20
 0.0
 30
0.0
  0
VERTEX
  8
MY3DLAYER
10
3.0000000000000395
20
11.860000000000028
30
0.0
 70
     32
  0
VERTEX
  8
MY3DLAYER
10
3.0000000000000395
20
3.0000000000000395
30
0.0
 70
     32
  0
VERTEX
  8
MY3DLAYER
10
22.500000000000025
20
3.0000000000000395
30
0.0
 70
     32
  0
VERTEX
  8
MY3DLAYER
10
22.500000000000025
20
11.860000000000028
30
0.0
 70
     32
  0
VERTEX
  8
MY3DLAYER
10
3.0000000000000395
20
11.860000000000028
30
0.0
 70
     32
  0
SEQEND
 0
ENDSEC
 0
EOF
