 0
SECTION
 2
ENTITIES
  0
LINE
 8
Layer0
10
294.4934227802432
20
509.92444829806476
30
882.3193853555395
11
295.1028153575216
21
508.4532444731902
31
882.3193853555395
  0
LINE
 8
Layer0
10
282.13557032060623
20
511.50324447318826
30
882.3193853555395
11
282.06742197318425
21
512.0208825633933
31
882.3193853555395
  0
LINE
 8
Layer0
10
282.0674219731845
20
510.9856063829832
30
882.3193853555395
11
282.13557032060623
21
511.50324447318826
31
882.3193853555395
  0
LINE
 8
Layer0
10
281.86762112817524
20
510.5032444731882
30
882.3193853555395
11
282.0674219731845
21
510.9856063829832
31
882.3193853555395
  0
LINE
 8
Layer0
10
281.54978388297957
20
510.08903091081504
30
882.3193853555395
11
281.86762112817524
21
510.5032444731882
31
882.3193853555395
  0
LINE
 8
Layer0
10
281.1355703206065
20
509.77119366561925
30
882.3193853555395
11
281.54978388297957
21
510.08903091081504
31
882.3193853555395
  0
LINE
 8
Layer0
10
280.6532084108116
20
509.5713928206099
30
882.3193853555395
11
281.1355703206065
21
509.77119366561925
31
882.3193853555395
  0
LINE
 8
Layer0
10
280.1355703206066
20
509.503244473188
30
882.3193853555395
11
280.6532084108116
21
509.5713928206099
31
882.3193853555395
  0
LINE
 8
Layer0
10
279.61793223040155
20
509.57139282060973
30
882.3193853555395
11
280.1355703206066
21
509.503244473188
31
882.3193853555395
  0
LINE
 8
Layer0
10
279.1355703206065
20
509.7711936656189
30
882.3193853555395
11
279.61793223040155
21
509.57139282060973
31
882.3193853555395
  0
LINE
 8
Layer0
10
278.72135675823336
20
510.0890309108146
30
882.3193853555395
11
279.1355703206065
21
509.7711936656189
31
882.3193853555395
  0
LINE
 8
Layer0
10
278.4035195130375
20
510.50324447318775
30
882.3193853555395
11
278.72135675823336
21
510.0890309108146
31
882.3193853555395
  0
LINE
 8
Layer0
10
278.2037186680282
20
510.98560638298255
30
882.3193853555395
11
278.4035195130375
21
510.50324447318775
31
882.3193853555395
  0
LINE
 8
Layer0
10
278.13557032060623
20
511.5032444731876
30
882.3193853555395
11
278.2037186680282
21
510.98560638298255
31
882.3193853555395
  0
LINE
 8
Layer0
10
278.20371866802805
20
512.0208825633927
30
882.3193853555395
11
278.13557032060623
21
511.5032444731876
31
882.3193853555395
  0
LINE
 8
Layer0
10
278.4035195130372
20
512.5032444731877
30
882.3193853555395
11
278.20371866802805
21
512.0208825633927
31
882.3193853555395
  0
LINE
 8
Layer0
10
278.7213567582329
20
512.9174580355608
30
882.3193853555395
11
278.4035195130372
21
512.5032444731877
31
882.3193853555395
  0
LINE
 8
Layer0
10
279.13557032060595
20
513.2352952807566
30
882.3193853555395
11
278.7213567582329
21
512.9174580355608
31
882.3193853555395
  0
LINE
 8
Layer0
10
279.6179322304009
20
513.435096125766
30
882.3193853555395
11
279.13557032060595
21
513.2352952807566
31
882.3193853555395
  0
LINE
 8
Layer0
10
280.13557032060595
20
513.5032444731879
30
882.3193853555395
11
279.6179322304009
21
513.435096125766
31
882.3193853555395
  0
LINE
 8
Layer0
10
280.653208410811
20
513.4350961257662
30
882.3193853555395
11
280.13557032060595
21
513.5032444731879
31
882.3193853555395
  0
LINE
 8
Layer0
10
281.13557032060595
20
513.235295280757
30
882.3193853555395
11
280.653208410811
21
513.4350961257662
31
882.3193853555395
  0
LINE
 8
Layer0
10
281.5497838829791
20
512.9174580355613
30
882.3193853555395
11
281.13557032060595
21
513.235295280757
31
882.3193853555395
  0
LINE
 8
Layer0
10
281.86762112817496
20
512.5032444731881
30
882.3193853555395
11
281.5497838829791
21
512.9174580355613
31
882.3193853555395
  0
LINE
 8
Layer0
10
282.06742197318425
20
512.0208825633933
30
882.3193853555395
11
281.86762112817496
21
512.5032444731881
31
882.3193853555395
  0
LINE
 8
Layer0
10
319.63557032060595
20
513.2352952807629
30
882.3193853555395
11
319.2213567582329
21
512.9174580355672
31
882.3193853555395
  0
LINE
 8
Layer0
10
320.1179322304009
20
513.4350961257722
30
882.3193853555395
11
319.63557032060595
21
513.2352952807629
31
882.3193853555395
  0
LINE
 8
Layer0
10
320.63557032060595
20
513.5032444731942
30
882.3193853555395
11
320.1179322304009
21
513.4350961257722
31
882.3193853555395
  0
LINE
 8
Layer0
10
321.153208410811
20
513.4350961257725
30
882.3193853555395
11
320.63557032060595
21
513.5032444731942
31
882.3193853555395
  0
LINE
 8
Layer0
10
321.63557032060595
20
513.2352952807632
30
882.3193853555395
11
321.153208410811
21
513.4350961257725
31
882.3193853555395
  0
LINE
 8
Layer0
10
322.0497838829791
20
512.9174580355675
30
882.3193853555395
11
321.63557032060595
21
513.2352952807632
31
882.3193853555395
  0
LINE
 8
Layer0
10
322.36762112817496
20
512.5032444731944
30
882.3193853555395
11
322.0497838829791
21
512.9174580355675
31
882.3193853555395
  0
LINE
 8
Layer0
10
322.56742197318425
20
512.0208825633995
30
882.3193853555395
11
322.36762112817496
21
512.5032444731944
31
882.3193853555395
  0
LINE
 8
Layer0
10
322.63557032060623
20
511.50324447319446
30
882.3193853555395
11
322.56742197318425
21
512.0208825633995
31
882.3193853555395
  0
LINE
 8
Layer0
10
322.5674219731845
20
510.9856063829894
30
882.3193853555395
11
322.63557032060623
21
511.50324447319446
31
882.3193853555395
  0
LINE
 8
Layer0
10
322.3676211281753
20
510.5032444731944
30
882.3193853555395
11
322.5674219731845
21
510.9856063829894
31
882.3193853555395
  0
LINE
 8
Layer0
10
322.04978388297957
20
510.0890309108213
30
882.3193853555395
11
322.3676211281753
21
510.5032444731944
31
882.3193853555395
  0
LINE
 8
Layer0
10
321.6355703206065
20
509.7711936656255
30
882.3193853555395
11
322.04978388297957
21
510.0890309108213
31
882.3193853555395
  0
LINE
 8
Layer0
10
321.1532084108116
20
509.5713928206161
30
882.3193853555395
11
321.6355703206065
21
509.7711936656255
31
882.3193853555395
  0
LINE
 8
Layer0
10
320.6355703206066
20
509.5032444731942
30
882.3193853555395
11
321.1532084108116
21
509.5713928206161
31
882.3193853555395
  0
LINE
 8
Layer0
10
320.11793223040155
20
509.5713928206159
30
882.3193853555395
11
320.6355703206066
21
509.5032444731942
31
882.3193853555395
  0
LINE
 8
Layer0
10
319.6355703206065
20
509.77119366562516
30
882.3193853555395
11
320.11793223040155
21
509.5713928206159
31
882.3193853555395
  0
LINE
 8
Layer0
10
319.22135675823336
20
510.0890309108209
30
882.3193853555395
11
319.6355703206065
21
509.77119366562516
31
882.3193853555395
  0
LINE
 8
Layer0
10
318.90351951303757
20
510.50324447319394
30
882.3193853555395
11
319.22135675823336
21
510.0890309108209
31
882.3193853555395
  0
LINE
 8
Layer0
10
318.7037186680282
20
510.98560638298886
30
882.3193853555395
11
318.90351951303757
21
510.50324447319394
31
882.3193853555395
  0
LINE
 8
Layer0
10
318.63557032060623
20
511.50324447319394
30
882.3193853555395
11
318.7037186680282
21
510.98560638298886
31
882.3193853555395
  0
LINE
 8
Layer0
10
318.70371866802805
20
512.020882563399
30
882.3193853555395
11
318.63557032060623
21
511.50324447319394
31
882.3193853555395
  0
LINE
 8
Layer0
10
318.9035195130372
20
512.503244473194
30
882.3193853555395
11
318.70371866802805
21
512.020882563399
31
882.3193853555395
  0
LINE
 8
Layer0
10
319.2213567582329
20
512.9174580355672
30
882.3193853555395
11
318.9035195130372
21
512.503244473194
31
882.3193853555395
  0
LINE
 8
Layer0
10
282.5473798695795
20
521.162502736079
30
882.3193853555395
11
285.1355703206047
21
521.5032444731887
31
882.3193853555395
  0
LINE
 8
Layer0
10
280.1355703206049
20
520.1634985110323
30
882.3193853555395
11
282.5473798695795
21
521.162502736079
31
882.3193853555395
  0
LINE
 8
Layer0
10
278.0645025087397
20
518.5743122850531
30
882.3193853555395
11
280.1355703206049
21
520.1634985110323
31
882.3193853555395
  0
LINE
 8
Layer0
10
294.2855703206047
20
521.5032444731901
30
882.3193853555395
11
285.1355703206047
21
521.5032444731887
31
882.3193853555395
  0
LINE
 8
Layer0
10
294.2855703206062
20
511.50324447319014
30
882.3193853555395
11
294.2855703206047
21
521.5032444731901
31
882.3193853555395
  0
LINE
 8
Layer0
10
294.2855703206062
20
511.50324447319014
30
882.3193853555395
11
294.4934227802432
21
509.92444829806476
31
882.3193853555395
  0
LINE
 8
Layer0
10
295.1028153575216
20
508.4532444731902
30
882.3193853555395
11
296.07221895536895
21
507.18989310795246
31
882.3193853555395
  0
LINE
 8
Layer0
10
296.07221895536895
20
507.18989310795246
30
882.3193853555395
11
297.335570320607
21
506.22048951010555
31
882.3193853555395
  0
LINE
 8
Layer0
10
297.335570320607
20
506.22048951010555
30
882.3193853555395
11
298.80677414548177
21
505.6110969328276
31
882.3193853555395
  0
LINE
 8
Layer0
10
298.80677414548177
20
505.6110969328276
30
882.3193853555395
11
300.3855703206072
21
505.40324447319097
31
882.3193853555395
  0
LINE
 8
Layer0
10
300.3855703206072
20
505.40324447319097
30
882.3193853555395
11
301.9643664957325
21
505.611096932828
31
882.3193853555395
  0
LINE
 8
Layer0
10
301.9643664957325
20
505.611096932828
30
882.3193853555395
11
303.43557032060704
21
506.2204895101065
31
882.3193853555395
  0
LINE
 8
Layer0
10
303.43557032060704
20
506.2204895101065
30
882.3193853555395
11
304.6989216858449
21
507.1898931079538
31
882.3193853555395
  0
LINE
 8
Layer0
10
304.6989216858449
20
507.1898931079538
30
882.3193853555395
11
305.66832528369184
21
508.45324447319183
31
882.3193853555395
  0
LINE
 8
Layer0
10
305.66832528369184
20
508.45324447319183
30
882.3193853555395
11
306.27771786096986
21
509.9244482980666
31
882.3193853555395
  0
LINE
 8
Layer0
10
306.27771786096986
20
509.9244482980666
30
882.3193853555395
11
306.48557032060626
21
511.503244473192
31
882.3193853555395
  0
LINE
 8
Layer0
10
306.48557032060626
20
511.503244473192
30
882.3193853555395
11
306.4855703206047
21
521.503244473192
31
882.3193853555395
  0
LINE
 8
Layer0
10
315.6355703206047
20
521.5032444731934
30
882.3193853555395
11
306.4855703206047
21
521.503244473192
31
882.3193853555395
  0
LINE
 8
Layer0
10
315.6355703206047
20
521.5032444731934
30
882.3193853555395
11
318.22376077162994
21
521.1625027360844
31
882.3193853555395
  0
LINE
 8
Layer0
10
318.22376077162994
20
521.1625027360844
30
882.3193853555395
11
320.6355703206049
21
520.1634985110385
31
882.3193853555395
  0
LINE
 8
Layer0
10
320.6355703206049
20
520.1634985110385
30
882.3193853555395
11
322.70663813247063
21
518.5743122850599
31
882.3193853555395
  0
LINE
 8
Layer0
10
322.70663813247063
20
518.5743122850599
30
882.3193853555395
11
324.29582435844986
21
516.5032444731947
31
882.3193853555395
  0
LINE
 8
Layer0
10
324.29582435844986
20
516.5032444731947
30
882.3193853555395
11
325.2948285834965
21
514.0914349242202
31
882.3193853555395
  0
LINE
 8
Layer0
10
325.2948285834965
20
514.0914349242202
30
882.3193853555395
11
325.63557032060623
21
511.5032444731949
31
882.3193853555395
  0
LINE
 8
Layer0
10
325.63557032060623
20
511.5032444731949
30
882.3193853555395
11
325.2948285834973
21
508.9150540221697
31
882.3193853555395
  0
LINE
 8
Layer0
10
325.2948285834973
20
508.9150540221697
30
882.3193853555395
11
324.2958243584514
21
506.5032444731948
31
882.3193853555395
  0
LINE
 8
Layer0
10
324.2958243584514
20
506.5032444731948
30
882.3193853555395
11
322.7066381324728
21
504.432176661329
31
882.3193853555395
  0
LINE
 8
Layer0
10
322.7066381324728
20
504.432176661329
30
882.3193853555395
11
320.6355703206076
21
502.84299043534986
31
882.3193853555395
  0
LINE
 8
Layer0
10
320.6355703206076
20
502.84299043534986
30
882.3193853555395
11
318.22376077163295
21
501.84398621030317
31
882.3193853555395
  0
LINE
 8
Layer0
10
318.22376077163295
20
501.84398621030317
30
882.3193853555395
11
315.63557032060777
21
501.5032444731934
31
882.3193853555395
  0
LINE
 8
Layer0
10
315.63557032060777
20
501.5032444731934
30
882.3193853555395
11
285.13557032060777
21
501.5032444731887
31
882.3193853555395
  0
LINE
 8
Layer0
10
285.13557032060777
20
501.5032444731887
30
882.3193853555395
11
282.5473798695825
21
501.84398621029766
31
882.3193853555395
  0
LINE
 8
Layer0
10
282.5473798695825
20
501.84398621029766
30
882.3193853555395
11
280.1355703206076
21
502.8429904353436
31
882.3193853555395
  0
LINE
 8
Layer0
10
280.1355703206076
20
502.8429904353436
30
882.3193853555395
11
278.0645025087419
21
504.4321766613221
31
882.3193853555395
  0
LINE
 8
Layer0
10
278.0645025087419
20
504.4321766613221
30
882.3193853555395
11
276.4753162827626
21
506.5032444731874
31
882.3193853555395
  0
LINE
 8
Layer0
10
276.4753162827626
20
506.5032444731874
30
882.3193853555395
11
275.476312057716
21
508.915054022162
31
882.3193853555395
  0
LINE
 8
Layer0
10
275.476312057716
20
508.915054022162
30
882.3193853555395
11
275.13557032060623
21
511.5032444731871
31
882.3193853555395
  0
LINE
 8
Layer0
10
275.13557032060623
20
511.5032444731871
30
882.3193853555395
11
275.4763120577152
21
514.0914349242124
31
882.3193853555395
  0
LINE
 8
Layer0
10
275.4763120577152
20
514.0914349242124
30
882.3193853555395
11
276.47531628276107
21
516.5032444731874
31
882.3193853555395
  0
LINE
 8
Layer0
10
276.47531628276107
20
516.5032444731874
30
882.3193853555395
11
278.0645025087397
21
518.5743122850531
31
882.3193853555395
 0
ENDSEC
 0
EOF
