 0
SECTION
 2
ENTITIES
  0
POLYLINE
 8
Layer0
 66
     1
70
    8
 10
0.0
 20
 0.0
 30
0.0
  0
VERTEX
  8
MY3DLAYER
10
47.500000000019334
20
10.740000000000066
30
-3.6698367011922526e-09
 70
     32
  0
VERTEX
  8
MY3DLAYER
10
47.500000000019334
20
13.760000000000048
30
-3.762421840747265e-09
 70
     32
  0
VERTEX
  8
MY3DLAYER
10
44.08082781651479
20
13.760000000000048
30
-1.770487756402872e-09
 70
     32
  0
VERTEX
  8
MY3DLAYER
10
44.08082781651479
20
10.740000000000066
30
-1.724104947697924e-09
 70
     32
  0
VERTEX
  8
MY3DLAYER
10
47.500000000019334
20
10.740000000000066
30
-3.6698367011922526e-09
 70
     32
  0
SEQEND
  0
POLYLINE
 8
Layer0
 66
     1
70
    8
 10
0.0
 20
 0.0
 30
0.0
  0
VERTEX
  8
MY3DLAYER
10
32.88366504109035
20
10.740000000000066
30
-1.29113857383345e-09
 70
     32
  0
VERTEX
  8
MY3DLAYER
10
32.88366504109035
20
13.760000000000048
30
-1.337340904683515e-09
 70
     32
  0
VERTEX
  8
MY3DLAYER
10
1.9311130472488e-11
20
13.760000000000048
30
-8.77122374731698e-11
 70
     32
  0
VERTEX
  8
MY3DLAYER
10
1.9311130472488e-11
20
10.740000000000066
30
4.872902081842767e-12
 70
     32
  0
VERTEX
  8
MY3DLAYER
10
32.88366504109035
20
10.740000000000066
30
-1.29113857383345e-09
 70
     32
  0
SEQEND
  0
POLYLINE
 8
Layer0
 66
     1
70
    8
 10
0.0
 20
 0.0
 30
0.0
  0
VERTEX
  8
MY3DLAYER
10
32.88366504109035
20
48.2399999991136
30
-1.3235523965704487e-08
 70
     32
  0
VERTEX
  8
MY3DLAYER
10
32.88366504109035
20
51.259999999113674
30
-1.1033333180421322e-08
 70
     32
  0
VERTEX
  8
MY3DLAYER
10
1.9311130472488e-11
20
51.259999999113674
30
-1.439852326257096e-09
 70
     32
  0
VERTEX
  8
MY3DLAYER
10
1.9311130472488e-11
20
48.2399999991136
30
-1.3564715573011199e-09
 70
     32
  0
VERTEX
  8
MY3DLAYER
10
32.88366504109035
20
48.2399999991136
30
-1.3235523965704487e-08
 70
     32
  0
SEQEND
  0
POLYLINE
 8
Layer0
 66
     1
70
    8
 10
0.0
 20
 0.0
 30
0.0
  0
VERTEX
  8
MY3DLAYER
10
47.50000000001898
20
61.99999999911365
30
-1.585028712725034e-08
 70
     32
  0
VERTEX
  8
MY3DLAYER
10
25.00000000001931
20
61.99999999911365
30
-5.341422593119204e-09
 70
     32
  0
VERTEX
  8
MY3DLAYER
10
25.00000000001931
20
58.99999999911361
30
-7.218031328193319e-09
 70
     32
  0
VERTEX
  8
MY3DLAYER
10
1.9311130472488e-11
20
58.99999999911361
30
-4.382363272270595e-09
 70
     32
  0
VERTEX
  8
MY3DLAYER
10
1.9311130472488e-11
20
51.259999999113674
30
-1.439852326257096e-09
 70
     32
  0
VERTEX
  8
MY3DLAYER
10
32.88366504109035
20
51.259999999113674
30
-1.1033333180421322e-08
 70
     32
  0
VERTEX
  8
MY3DLAYER
10
32.88366504109035
20
58.99999999924202
30
-1.5849926171540572e-08
 70
     32
  0
VERTEX
  8
MY3DLAYER
10
44.08082781651479
20
58.99999999924202
30
-1.5849926171540572e-08
 70
     32
  0
VERTEX
  8
MY3DLAYER
10
44.08082781651479
20
51.259999999113674
30
-1.1846566394524416e-08
 70
     32
  0
VERTEX
  8
MY3DLAYER
10
47.50000000001898
20
51.259999999113674
30
-8.33970119629157e-09
 70
     32
  0
VERTEX
  8
MY3DLAYER
10
47.50000000001898
20
52.899999999242056
30
-1.4714900942180975e-08
 70
     32
  0
VERTEX
  8
MY3DLAYER
10
47.085889527854924
20
52.95451867717957
30
-1.4674112946977401e-08
 70
     32
  0
VERTEX
  8
MY3DLAYER
10
46.700000000018974
20
53.11435935318692
30
-1.4665450009943014e-08
 70
     32
  0
VERTEX
  8
MY3DLAYER
10
46.36862915012046
20
53.36862914934353
30
-1.4689453564642462e-08
 70
     32
  0
VERTEX
  8
MY3DLAYER
10
46.11435935396385
20
53.69999999924205
30
-1.4744318832526914e-08
 70
     32
  0
VERTEX
  8
MY3DLAYER
10
45.9545186779565
20
54.085889527077995
30
-1.4826616734353591e-08
 70
     32
  0
VERTEX
  8
MY3DLAYER
10
45.90000000001898
20
54.49999999924205
30
-1.4930391500911354e-08
 70
     32
  0
VERTEX
  8
MY3DLAYER
10
45.9545186779565
20
54.914110471406104
30
-1.504896545156953e-08
 70
     32
  0
VERTEX
  8
MY3DLAYER
10
46.11435935396385
20
55.29999999924205
30
-1.517385612714861e-08
 70
     32
  0
VERTEX
  8
MY3DLAYER
10
46.36862915012046
20
55.631370849140566
30
-1.5296761546323977e-08
 70
     32
  0
VERTEX
  8
MY3DLAYER
10
46.700000000018974
20
55.88564064529718
30
-1.540937972777101e-08
 70
     32
  0
VERTEX
  8
MY3DLAYER
10
47.085889527854924
20
56.04548132130453
30
-1.5503950123729737e-08
 70
     32
  0
VERTEX
  8
MY3DLAYER
10
47.50000000001898
20
56.09999999924205
30
-1.5573975531424365e-08
 70
     32
  0
VERTEX
  8
MY3DLAYER
10
47.50000000001898
20
61.99999999911365
30
-1.585028712725034e-08
 70
     32
  0
SEQEND
  0
POLYLINE
 8
Layer0
 66
     1
70
    8
 10
0.0
 20
 0.0
 30
0.0
  0
VERTEX
  8
MY3DLAYER
10
28.752294191191798
20
55.631370849140566
30
-1.584144371236107e-08
 70
     32
  0
VERTEX
  8
MY3DLAYER
10
29.083665041090313
20
55.88564064529718
30
-1.5927351171285408e-08
 70
     32
  0
VERTEX
  8
MY3DLAYER
10
29.46955456892626
20
56.04548132130453
30
-1.6008205250273023e-08
 70
     32
  0
VERTEX
  8
MY3DLAYER
10
29.883665041090314
20
56.09999999924205
30
-1.6078050180112768e-08
 70
     32
  0
VERTEX
  8
MY3DLAYER
10
30.29777551325437
20
56.04548132130453
30
-1.6132554492287452e-08
 70
     32
  0
VERTEX
  8
MY3DLAYER
10
30.68366504109031
20
55.88564064529718
30
-1.6167567196134768e-08
 70
     32
  0
VERTEX
  8
MY3DLAYER
10
31.015035890988827
20
55.631370849140566
30
-1.6181103035250997e-08
 70
     32
  0
VERTEX
  8
MY3DLAYER
10
31.269305687145444
20
55.29999999924205
30
-1.6172079142506844e-08
 70
     32
  0
VERTEX
  8
MY3DLAYER
10
31.429146363152793
20
54.914110471406104
30
-1.6141036951466958e-08
 70
     32
  0
VERTEX
  8
MY3DLAYER
10
31.48366504109031
20
54.49999999924205
30
-1.6090142196389932e-08
 70
     32
  0
VERTEX
  8
MY3DLAYER
10
31.429146363152793
20
54.085889527077995
30
-1.602282395651855e-08
 70
     32
  0
VERTEX
  8
MY3DLAYER
10
31.269305687145444
20
53.69999999924205
30
-1.5943774656079766e-08
 70
     32
  0
VERTEX
  8
MY3DLAYER
10
31.015035890988827
20
53.36862914934353
30
-1.585840863072008e-08
 70
     32
  0
VERTEX
  8
MY3DLAYER
10
30.68366504109031
20
53.11435935318692
30
-1.5772501171795737e-08
 70
     32
  0
VERTEX
  8
MY3DLAYER
10
30.29777551325437
20
52.95451867717957
30
-1.5691647092808125e-08
 70
     32
  0
VERTEX
  8
MY3DLAYER
10
29.883665041090314
20
52.899999999242056
30
-1.5621802162968377e-08
 70
     32
  0
VERTEX
  8
MY3DLAYER
10
29.46955456892626
20
52.95451867717957
30
-1.5567297850793693e-08
 70
     32
  0
VERTEX
  8
MY3DLAYER
10
29.083665041090313
20
53.11435935318692
30
-1.5532285146946377e-08
 70
     32
  0
VERTEX
  8
MY3DLAYER
10
28.752294191191798
20
53.36862914934353
30
-1.5518749307830147e-08
 70
     32
  0
VERTEX
  8
MY3DLAYER
10
28.498024395035184
20
53.69999999924205
30
-1.55277732005743e-08
 70
     32
  0
VERTEX
  8
MY3DLAYER
10
28.338183719027832
20
54.085889527077995
30
-1.555881539161419e-08
 70
     32
  0
VERTEX
  8
MY3DLAYER
10
28.283665041090316
20
54.49999999924205
30
-1.5609710146691213e-08
 70
     32
  0
VERTEX
  8
MY3DLAYER
10
28.338183719027832
20
54.914110471406104
30
-1.5677028386562598e-08
 70
     32
  0
VERTEX
  8
MY3DLAYER
10
28.498024395035184
20
55.29999999924205
30
-1.575607768700138e-08
 70
     32
  0
VERTEX
  8
MY3DLAYER
10
28.752294191191798
20
55.631370849140566
30
-1.584144371236107e-08
 70
     32
  0
SEQEND
  0
POLYLINE
 8
Layer0
 66
     1
70
    8
 10
0.0
 20
 0.0
 30
0.0
  0
VERTEX
  8
MY3DLAYER
10
11.484924240511015
20
53.5150757586219
30
-2.9582125193883255e-09
 70
     32
  0
VERTEX
  8
MY3DLAYER
10
11.050000000019324
20
53.181346651166294
30
-2.7248546530245218e-09
 70
     32
  0
VERTEX
  8
MY3DLAYER
10
10.543519994734615
20
52.97155576390657
30
-2.512612695682037e-09
 70
     32
  0
VERTEX
  8
MY3DLAYER
10
10.000000000019293
20
52.899999999113646
30
-2.3359248757515158e-09
 70
     32
  0
VERTEX
  8
MY3DLAYER
10
9.456480005303971
20
52.97155576390657
30
-2.206702731655241e-09
 70
     32
  0
VERTEX
  8
MY3DLAYER
10
8.950000000019351
20
53.181346651166294
30
-2.134150633992249e-09
 70
     32
  0
VERTEX
  8
MY3DLAYER
10
8.515075759527571
20
53.5150757586219
30
-2.1227805291346157e-09
 70
     32
  0
VERTEX
  8
MY3DLAYER
10
8.18134665207197
20
53.94999999911359
30
-2.17367528421164e-09
 70
     32
  0
VERTEX
  8
MY3DLAYER
10
7.9715557648122495
20
54.456480004398294
30
-2.2832253421256607e-09
 70
     32
  0
VERTEX
  8
MY3DLAYER
10
7.900000000019319
20
54.99999999911362
30
-2.444031110826472e-09
 70
     32
  0
VERTEX
  8
MY3DLAYER
10
7.9715557648122495
20
55.54351999382894
30
-2.645083441166207e-09
 70
     32
  0
VERTEX
  8
MY3DLAYER
10
8.18134665207197
20
56.04999999911356
30
-2.8726660161737526e-09
 70
     32
  0
VERTEX
  8
MY3DLAYER
10
8.515075759527571
20
56.48492423960534
30
-3.111257740329165e-09
 70
     32
  0
VERTEX
  8
MY3DLAYER
10
8.95000000001926
20
56.818653347060945
30
-3.3446156066929688e-09
 70
     32
  0
VERTEX
  8
MY3DLAYER
10
9.456480005303971
20
57.02844423432066
30
-3.5568575640354535e-09
 70
     32
  0
VERTEX
  8
MY3DLAYER
10
10.000000000019293
20
57.09999999911359
30
-3.733545383965974e-09
 70
     32
  0
VERTEX
  8
MY3DLAYER
10
10.543519994734615
20
57.02844423432066
30
-3.8627675280622494e-09
 70
     32
  0
VERTEX
  8
MY3DLAYER
10
11.050000000019235
20
56.818653347060945
30
-3.935319625725242e-09
 70
     32
  0
VERTEX
  8
MY3DLAYER
10
11.484924240511015
20
56.48492423960534
30
-3.946689730582875e-09
 70
     32
  0
VERTEX
  8
MY3DLAYER
10
11.818653347966617
20
56.04999999911365
30
-3.895794975505851e-09
 70
     32
  0
VERTEX
  8
MY3DLAYER
10
12.028444235226337
20
55.54351999382894
30
-3.78624491759183e-09
 70
     32
  0
VERTEX
  8
MY3DLAYER
10
12.100000000019266
20
54.99999999911362
30
-3.6254391488910184e-09
 70
     32
  0
VERTEX
  8
MY3DLAYER
10
12.028444235226337
20
54.456480004398294
30
-3.4243868185512836e-09
 70
     32
  0
VERTEX
  8
MY3DLAYER
10
11.818653347966617
20
53.94999999911368
30
-3.196804243543738e-09
 70
     32
  0
VERTEX
  8
MY3DLAYER
10
11.484924240511015
20
53.5150757586219
30
-2.9582125193883255e-09
 70
     32
  0
SEQEND
  0
POLYLINE
 8
Layer0
 66
     1
70
    8
 10
0.0
 20
 0.0
 30
0.0
  0
VERTEX
  8
MY3DLAYER
10
47.50000000001898
20
48.2399999991136
30
-1.4739084974735305e-08
 70
     32
  0
VERTEX
  8
MY3DLAYER
10
47.50000000001898
20
51.259999999113674
30
-8.33970119629157e-09
 70
     32
  0
VERTEX
  8
MY3DLAYER
10
44.08082781651479
20
51.259999999113674
30
-1.1846566394524416e-08
 70
     32
  0
VERTEX
  8
MY3DLAYER
10
44.08082781651479
20
48.2399999991136
30
-1.4812900417382479e-08
 70
     32
  0
VERTEX
  8
MY3DLAYER
10
47.50000000001898
20
48.2399999991136
30
-1.4739084974735305e-08
 70
     32
  0
SEQEND
  0
POLYLINE
 8
Layer0
 66
     1
70
    8
 10
0.0
 20
 0.0
 30
0.0
  0
VERTEX
  8
MY3DLAYER
10
44.08082781651479
20
27.999999999241943
30
-4.2953729462169575e-11
 70
     32
  0
VERTEX
  8
MY3DLAYER
10
44.08082781651479
20
13.760000000000048
30
-1.770487756402872e-09
 70
     32
  0
VERTEX
  8
MY3DLAYER
10
47.500000000019334
20
13.760000000000048
30
-3.762421840747265e-09
 70
     32
  0
VERTEX
  8
MY3DLAYER
10
47.50000000001898
20
21.899999999241974
30
-2.437714385905565e-09
 70
     32
  0
VERTEX
  8
MY3DLAYER
10
47.085889527854924
20
21.954518677179493
30
-2.4070331505754438e-09
 70
     32
  0
VERTEX
  8
MY3DLAYER
10
46.700000000018974
20
22.114359353186842
30
-2.3976483021215245e-09
 70
     32
  0
VERTEX
  8
MY3DLAYER
10
46.36862915012046
20
22.36862914934346
30
-2.410101274108456e-09
 70
     32
  0
VERTEX
  8
MY3DLAYER
10
46.11435935396385
20
22.699999999241975
30
-2.443489677261823e-09
 70
     32
  0
VERTEX
  8
MY3DLAYER
10
45.9545186779565
20
23.085889527077917
30
-2.495828255177912e-09
 70
     32
  0
VERTEX
  8
MY3DLAYER
10
45.90000000001898
20
23.49999999924197
30
-2.5631464950492954e-09
 70
     32
  0
VERTEX
  8
MY3DLAYER
10
45.9545186779565
20
23.914110471406026
30
-2.641293406213663e-09
 70
     32
  0
VERTEX
  8
MY3DLAYER
10
46.11435935396385
20
24.299999999241972
30
-2.7244936973147557e-09
 70
     32
  0
VERTEX
  8
MY3DLAYER
10
46.36862915012046
20
24.631370849140488
30
-2.807513510560966e-09
 70
     32
  0
VERTEX
  8
MY3DLAYER
10
46.700000000018974
20
24.8856406452971
30
-2.884397076741152e-09
 70
     32
  0
VERTEX
  8
MY3DLAYER
10
47.085889527854924
20
25.04548132130445
30
-2.9499105380637047e-09
 70
     32
  0
VERTEX
  8
MY3DLAYER
10
47.50000000001898
20
25.09999999924197
30
-2.9997224260114305e-09
 70
     32
  0
VERTEX
  8
MY3DLAYER
10
47.50000000001898
20
36.89999999924199
30
-1.1244131314924742e-08
 70
     32
  0
VERTEX
  8
MY3DLAYER
10
47.085889527854924
20
36.954518677179514
30
-1.1220849671644828e-08
 70
     32
  0
VERTEX
  8
MY3DLAYER
10
46.700000000018974
20
37.11435935318686
30
-1.1215615813853218e-08
 70
     32
  0
VERTEX
  8
MY3DLAYER
10
46.36862915012046
20
37.36862914934348
30
-1.1228790697259682e-08
 70
     32
  0
VERTEX
  8
MY3DLAYER
10
46.11435935396385
20
37.69999999924199
30
-1.1259652410444687e-08
 70
     32
  0
VERTEX
  8
MY3DLAYER
10
45.9545186779565
20
38.08588952707794
30
-1.1306035219149635e-08
 70
     32
  0
VERTEX
  8
MY3DLAYER
10
45.90000000001898
20
38.49999999924199
30
-1.1364510044131747e-08
 70
     32
  0
VERTEX
  8
MY3DLAYER
10
45.9545186779565
20
38.91411047140605
30
-1.1431467328293365e-08
 70
     32
  0
VERTEX
  8
MY3DLAYER
10
46.11435935396385
20
39.29999999924199
30
-1.1502214647407526e-08
 70
     32
  0
VERTEX
  8
MY3DLAYER
10
46.36862915012046
20
39.6313708491405
30
-1.157187909939239e-08
 70
     32
  0
VERTEX
  8
MY3DLAYER
10
46.700000000018974
20
39.88564064529712
30
-1.1635768260020994e-08
 70
     32
  0
VERTEX
  8
MY3DLAYER
10
47.085889527854924
20
40.04548132130447
30
-1.1689370182921265e-08
 70
     32
  0
VERTEX
  8
MY3DLAYER
10
47.50000000001898
20
40.09999999924199
30
-1.1729255788850423e-08
 70
     32
  0
VERTEX
  8
MY3DLAYER
10
47.50000000001898
20
48.2399999991136
30
-1.4739084974735305e-08
 70
     32
  0
VERTEX
  8
MY3DLAYER
10
44.08082781651479
20
48.2399999991136
30
-1.4812900417382479e-08
 70
     32
  0
VERTEX
  8
MY3DLAYER
10
44.08082781651479
20
33.99999999924202
30
-1.5849926171540572e-08
 70
     32
  0
VERTEX
  8
MY3DLAYER
10
32.88366504109035
20
33.99999999924202
30
-1.5849926171540572e-08
 70
     32
  0
VERTEX
  8
MY3DLAYER
10
32.88366504109035
20
48.2399999991136
30
-1.3235523965704487e-08
 70
     32
  0
VERTEX
  8
MY3DLAYER
10
1.9311130472488e-11
20
48.2399999991136
30
-1.3564715573011199e-09
 70
     32
  0
VERTEX
  8
MY3DLAYER
10
1.9311130472488e-11
20
13.760000000000048
30
-8.77122374731698e-11
 70
     32
  0
VERTEX
  8
MY3DLAYER
10
32.88366504109035
20
13.760000000000048
30
-1.337340904683515e-09
 70
     32
  0
VERTEX
  8
MY3DLAYER
10
32.88366504109035
20
27.999999999241943
30
-4.2953729462169575e-11
 70
     32
  0
VERTEX
  8
MY3DLAYER
10
44.08082781651479
20
27.999999999241943
30
-4.2953729462169575e-11
 70
     32
  0
SEQEND
  0
POLYLINE
 8
Layer0
 66
     1
70
    8
 10
0.0
 20
 0.0
 30
0.0
  0
VERTEX
  8
MY3DLAYER
10
31.015035890988827
20
37.36862914934348
30
-1.585840863072008e-08
 70
     32
  0
VERTEX
  8
MY3DLAYER
10
30.68366504109031
20
37.11435935318686
30
-1.5772501171795737e-08
 70
     32
  0
VERTEX
  8
MY3DLAYER
10
30.29777551325437
20
36.954518677179514
30
-1.5691647092808125e-08
 70
     32
  0
VERTEX
  8
MY3DLAYER
10
29.883665041090314
20
36.89999999924199
30
-1.5621802162968377e-08
 70
     32
  0
VERTEX
  8
MY3DLAYER
10
29.46955456892626
20
36.954518677179514
30
-1.5567297850793693e-08
 70
     32
  0
VERTEX
  8
MY3DLAYER
10
29.083665041090313
20
37.11435935318686
30
-1.5532285146946377e-08
 70
     32
  0
VERTEX
  8
MY3DLAYER
10
28.752294191191798
20
37.36862914934348
30
-1.5518749307830147e-08
 70
     32
  0
VERTEX
  8
MY3DLAYER
10
28.498024395035184
20
37.69999999924199
30
-1.55277732005743e-08
 70
     32
  0
VERTEX
  8
MY3DLAYER
10
28.338183719027832
20
38.08588952707794
30
-1.555881539161419e-08
 70
     32
  0
VERTEX
  8
MY3DLAYER
10
28.283665041090316
20
38.49999999924199
30
-1.5609710146691213e-08
 70
     32
  0
VERTEX
  8
MY3DLAYER
10
28.338183719027832
20
38.91411047140605
30
-1.5677028386562598e-08
 70
     32
  0
VERTEX
  8
MY3DLAYER
10
28.498024395035184
20
39.29999999924199
30
-1.575607768700138e-08
 70
     32
  0
VERTEX
  8
MY3DLAYER
10
28.752294191191798
20
39.6313708491405
30
-1.584144371236107e-08
 70
     32
  0
VERTEX
  8
MY3DLAYER
10
29.083665041090313
20
39.88564064529712
30
-1.5927351171285408e-08
 70
     32
  0
VERTEX
  8
MY3DLAYER
10
29.46955456892626
20
40.04548132130447
30
-1.6008205250273023e-08
 70
     32
  0
VERTEX
  8
MY3DLAYER
10
29.883665041090314
20
40.09999999924199
30
-1.6078050180112768e-08
 70
     32
  0
VERTEX
  8
MY3DLAYER
10
30.29777551325437
20
40.04548132130447
30
-1.6132554492287452e-08
 70
     32
  0
VERTEX
  8
MY3DLAYER
10
30.68366504109031
20
39.88564064529712
30
-1.6167567196134768e-08
 70
     32
  0
VERTEX
  8
MY3DLAYER
10
31.015035890988827
20
39.6313708491405
30
-1.6181103035250997e-08
 70
     32
  0
VERTEX
  8
MY3DLAYER
10
31.269305687145444
20
39.29999999924199
30
-1.6172079142506844e-08
 70
     32
  0
VERTEX
  8
MY3DLAYER
10
31.429146363152793
20
38.91411047140605
30
-1.6141036951466958e-08
 70
     32
  0
VERTEX
  8
MY3DLAYER
10
31.48366504109031
20
38.49999999924199
30
-1.6090142196389932e-08
 70
     32
  0
VERTEX
  8
MY3DLAYER
10
31.429146363152793
20
38.08588952707794
30
-1.602282395651855e-08
 70
     32
  0
VERTEX
  8
MY3DLAYER
10
31.269305687145444
20
37.69999999924199
30
-1.5943774656079766e-08
 70
     32
  0
VERTEX
  8
MY3DLAYER
10
31.015035890988827
20
37.36862914934348
30
-1.585840863072008e-08
 70
     32
  0
SEQEND
  0
POLYLINE
 8
Layer0
 66
     1
70
    8
 10
0.0
 20
 0.0
 30
0.0
  0
VERTEX
  8
MY3DLAYER
10
29.883665041090314
20
21.899999999241974
30
-7.587469497138954e-09
 70
     32
  0
VERTEX
  8
MY3DLAYER
10
29.46955456892626
20
21.954518677179493
30
-7.532965184964268e-09
 70
     32
  0
VERTEX
  8
MY3DLAYER
10
29.083665041090313
20
22.114359353186842
30
-7.497952481116954e-09
 70
     32
  0
VERTEX
  8
MY3DLAYER
10
28.752294191191798
20
22.36862914934346
30
-7.484416642000724e-09
 70
     32
  0
VERTEX
  8
MY3DLAYER
10
28.498024395035184
20
22.699999999241975
30
-7.493440534744877e-09
 70
     32
  0
VERTEX
  8
MY3DLAYER
10
28.338183719027832
20
23.085889527077917
30
-7.524482725784765e-09
 70
     32
  0
VERTEX
  8
MY3DLAYER
10
28.283665041090316
20
23.49999999924197
30
-7.575377480861788e-09
 70
     32
  0
VERTEX
  8
MY3DLAYER
10
28.338183719027832
20
23.914110471406026
30
-7.642695720733173e-09
 70
     32
  0
VERTEX
  8
MY3DLAYER
10
28.498024395035184
20
24.299999999241972
30
-7.721745021171955e-09
 70
     32
  0
VERTEX
  8
MY3DLAYER
10
28.752294191191798
20
24.631370849140488
30
-7.807111046531645e-09
 70
     32
  0
VERTEX
  8
MY3DLAYER
10
29.083665041090313
20
24.8856406452971
30
-7.893018505455983e-09
 70
     32
  0
VERTEX
  8
MY3DLAYER
10
29.46955456892626
20
25.04548132130445
30
-7.973872584443598e-09
 70
     32
  0
VERTEX
  8
MY3DLAYER
10
29.883665041090314
20
25.09999999924197
30
-8.043717514283343e-09
 70
     32
  0
VERTEX
  8
MY3DLAYER
10
30.29777551325437
20
25.04548132130445
30
-8.098221826458029e-09
 70
     32
  0
VERTEX
  8
MY3DLAYER
10
30.68366504109031
20
24.8856406452971
30
-8.133234530305344e-09
 70
     32
  0
VERTEX
  8
MY3DLAYER
10
31.015035890988827
20
24.631370849140488
30
-8.146770369421574e-09
 70
     32
  0
VERTEX
  8
MY3DLAYER
10
31.269305687145444
20
24.299999999241972
30
-8.137746476677421e-09
 70
     32
  0
VERTEX
  8
MY3DLAYER
10
31.429146363152793
20
23.914110471406026
30
-8.106704285637533e-09
 70
     32
  0
VERTEX
  8
MY3DLAYER
10
31.48366504109031
20
23.49999999924197
30
-8.055809530560509e-09
 70
     32
  0
VERTEX
  8
MY3DLAYER
10
31.429146363152793
20
23.085889527077917
30
-7.988491290689126e-09
 70
     32
  0
VERTEX
  8
MY3DLAYER
10
31.269305687145444
20
22.699999999241975
30
-7.909441990250343e-09
 70
     32
  0
VERTEX
  8
MY3DLAYER
10
31.015035890988827
20
22.36862914934346
30
-7.824075964890654e-09
 70
     32
  0
VERTEX
  8
MY3DLAYER
10
30.68366504109031
20
22.114359353186842
30
-7.738168505966313e-09
 70
     32
  0
VERTEX
  8
MY3DLAYER
10
30.29777551325437
20
21.954518677179493
30
-7.6573144269787e-09
 70
     32
  0
VERTEX
  8
MY3DLAYER
10
29.883665041090314
20
21.899999999241974
30
-7.587469497138954e-09
 70
     32
  0
SEQEND
  0
POLYLINE
 8
Layer0
 66
     1
70
    8
 10
0.0
 20
 0.0
 30
0.0
  0
VERTEX
  8
MY3DLAYER
10
8.028444235226344
20
21.456480004841474
30
-8.782413374319731e-09
 70
     32
  0
VERTEX
  8
MY3DLAYER
10
7.818653347966624
20
20.949999999556855
30
-8.550138375085226e-09
 70
     32
  0
VERTEX
  8
MY3DLAYER
10
7.484924240511022
20
20.515075759065073
30
-8.331940648531599e-09
 70
     32
  0
VERTEX
  8
MY3DLAYER
10
7.050000000019332
20
20.181346651609473
30
-8.142799856614147e-09
 70
     32
  0
VERTEX
  8
MY3DLAYER
10
6.543519994734622
20
19.971555764349752
30
-7.99589088273933e-09
 70
     32
  0
VERTEX
  8
MY3DLAYER
10
6.0000000000193
20
19.899999999556822
30
-7.900779053215956e-09
 70
     32
  0
VERTEX
  8
MY3DLAYER
10
5.456480005303979
20
19.971555764349752
30
-7.864142048674693e-09
 70
     32
  0
VERTEX
  8
MY3DLAYER
10
4.950000000019358
20
20.181346651609473
30
-7.88868703693879e-09
 70
     32
  0
VERTEX
  8
MY3DLAYER
10
4.515075759527578
20
20.515075759065073
30
-7.97224828374965e-09
 70
     32
  0
VERTEX
  8
MY3DLAYER
10
4.181346652071976
20
20.949999999556763
30
-8.109591931315662e-09
 70
     32
  0
VERTEX
  8
MY3DLAYER
10
3.9715557648122566
20
21.456480004841474
30
-8.291152653328027e-09
 70
     32
  0
VERTEX
  8
MY3DLAYER
10
3.9000000000193267
20
21.999999999556795
30
-8.504657955654693e-09
 70
     32
  0
VERTEX
  8
MY3DLAYER
10
3.9715557648122566
20
22.543519994272117
30
-8.735489132050134e-09
 70
     32
  0
VERTEX
  8
MY3DLAYER
10
4.181346652071976
20
23.04999999955674
30
-8.967764131284638e-09
 70
     32
  0
VERTEX
  8
MY3DLAYER
10
4.515075759527578
20
23.484924240048517
30
-9.185961857838265e-09
 70
     32
  0
VERTEX
  8
MY3DLAYER
10
4.950000000019268
20
23.81865334750412
30
-9.375102649755717e-09
 70
     32
  0
VERTEX
  8
MY3DLAYER
10
5.456480005303979
20
24.02844423476384
30
-9.522011623630533e-09
 70
     32
  0
VERTEX
  8
MY3DLAYER
10
6.0000000000193
20
24.09999999955677
30
-9.617123453153907e-09
 70
     32
  0
VERTEX
  8
MY3DLAYER
10
6.543519994734622
20
24.02844423476384
30
-9.65376045769517e-09
 70
     32
  0
VERTEX
  8
MY3DLAYER
10
7.050000000019242
20
23.81865334750412
30
-9.629215469431073e-09
 70
     32
  0
VERTEX
  8
MY3DLAYER
10
7.484924240511022
20
23.484924240048517
30
-9.545654222620214e-09
 70
     32
  0
VERTEX
  8
MY3DLAYER
10
7.818653347966624
20
23.04999999955674
30
-9.408310575054202e-09
 70
     32
  0
VERTEX
  8
MY3DLAYER
10
8.028444235226344
20
22.543519994272117
30
-9.226749853041837e-09
 70
     32
  0
VERTEX
  8
MY3DLAYER
10
8.100000000019273
20
21.999999999556795
30
-9.013244550715171e-09
 70
     32
  0
VERTEX
  8
MY3DLAYER
10
8.028444235226344
20
21.456480004841474
30
-8.782413374319731e-09
 70
     32
  0
SEQEND
  0
POLYLINE
 8
Layer0
 66
     1
70
    8
 10
0.0
 20
 0.0
 30
0.0
  0
VERTEX
  8
MY3DLAYER
10
6.543519994734622
20
37.97155576434981
30
-7.996071360594215e-09
 70
     32
  0
VERTEX
  8
MY3DLAYER
10
6.0000000000193
20
37.89999999955688
30
-7.900959531070839e-09
 70
     32
  0
VERTEX
  8
MY3DLAYER
10
5.456480005303979
20
37.97155576434981
30
-7.864322526529577e-09
 70
     32
  0
VERTEX
  8
MY3DLAYER
10
4.950000000019358
20
38.18134665160953
30
-7.88868703693879e-09
 70
     32
  0
VERTEX
  8
MY3DLAYER
10
4.515075759527578
20
38.515075759065134
30
-7.972428761604532e-09
 70
     32
  0
VERTEX
  8
MY3DLAYER
10
4.181346652071976
20
38.94999999955682
30
-8.109772409170546e-09
 70
     32
  0
VERTEX
  8
MY3DLAYER
10
3.9715557648122566
20
39.45648000484153
30
-8.291333131182909e-09
 70
     32
  0
VERTEX
  8
MY3DLAYER
10
3.9000000000193267
20
39.999999999556856
30
-8.504657955654693e-09
 70
     32
  0
VERTEX
  8
MY3DLAYER
10
3.9715557648122566
20
40.543519994272174
30
-8.735489132050134e-09
 70
     32
  0
VERTEX
  8
MY3DLAYER
10
4.181346652071976
20
41.049999999556796
30
-8.967764131284638e-09
 70
     32
  0
VERTEX
  8
MY3DLAYER
10
4.515075759527578
20
41.48492424004858
30
-9.18578137998338e-09
 70
     32
  0
VERTEX
  8
MY3DLAYER
10
4.950000000019268
20
41.818653347504174
30
-9.374922171900835e-09
 70
     32
  0
VERTEX
  8
MY3DLAYER
10
5.456480005303979
20
42.028444234763896
30
-9.521831145775649e-09
 70
     32
  0
VERTEX
  8
MY3DLAYER
10
6.0000000000193
20
42.09999999955683
30
-9.616942975299025e-09
 70
     32
  0
VERTEX
  8
MY3DLAYER
10
6.543519994734622
20
42.028444234763896
30
-9.653579979840287e-09
 70
     32
  0
VERTEX
  8
MY3DLAYER
10
7.050000000019242
20
41.818653347504174
30
-9.629215469431073e-09
 70
     32
  0
VERTEX
  8
MY3DLAYER
10
7.484924240511022
20
41.48492424004858
30
-9.545473744765332e-09
 70
     32
  0
VERTEX
  8
MY3DLAYER
10
7.818653347966624
20
41.049999999556796
30
-9.408130097199318e-09
 70
     32
  0
VERTEX
  8
MY3DLAYER
10
8.028444235226344
20
40.543519994272174
30
-9.226569375186955e-09
 70
     32
  0
VERTEX
  8
MY3DLAYER
10
8.100000000019273
20
39.999999999556856
30
-9.013244550715171e-09
 70
     32
  0
VERTEX
  8
MY3DLAYER
10
8.028444235226344
20
39.45648000484153
30
-8.782413374319731e-09
 70
     32
  0
VERTEX
  8
MY3DLAYER
10
7.818653347966624
20
38.94999999955691
30
-8.550138375085226e-09
 70
     32
  0
VERTEX
  8
MY3DLAYER
10
7.484924240511022
20
38.515075759065134
30
-8.332121126386483e-09
 70
     32
  0
VERTEX
  8
MY3DLAYER
10
7.050000000019332
20
38.18134665160953
30
-8.142980334469029e-09
 70
     32
  0
VERTEX
  8
MY3DLAYER
10
6.543519994734622
20
37.97155576434981
30
-7.996071360594215e-09
 70
     32
  0
SEQEND
  0
POLYLINE
 8
Layer0
 66
     1
70
    8
 10
0.0
 20
 0.0
 30
0.0
  0
VERTEX
  8
MY3DLAYER
10
21.984924240511063
20
29.515075759065102
30
-3.37295062990961e-09
 70
     32
  0
VERTEX
  8
MY3DLAYER
10
21.550000000019374
20
29.181346651609502
30
-3.1838098379921573e-09
 70
     32
  0
VERTEX
  8
MY3DLAYER
10
21.043519994734663
20
28.97155576434978
30
-3.036900864117342e-09
 70
     32
  0
VERTEX
  8
MY3DLAYER
10
20.50000000001934
20
28.89999999955685
30
-2.9417890345939668e-09
 70
     32
  0
VERTEX
  8
MY3DLAYER
10
19.95648000530402
20
28.97155576434978
30
-2.9051520300527044e-09
 70
     32
  0
VERTEX
  8
MY3DLAYER
10
19.4500000000194
20
29.181346651609502
30
-2.9295165404619183e-09
 70
     32
  0
VERTEX
  8
MY3DLAYER
10
19.01507575952762
20
29.515075759065102
30
-3.0132582651276605e-09
 70
     32
  0
VERTEX
  8
MY3DLAYER
10
18.68134665207202
20
29.949999999556795
30
-3.1506019126936734e-09
 70
     32
  0
VERTEX
  8
MY3DLAYER
10
18.471555764812297
20
30.456480004841502
30
-3.332162634706037e-09
 70
     32
  0
VERTEX
  8
MY3DLAYER
10
18.400000000019368
20
30.999999999556824
30
-3.5454874591778207e-09
 70
     32
  0
VERTEX
  8
MY3DLAYER
10
18.471555764812297
20
31.543519994272145
30
-3.776318635573261e-09
 70
     32
  0
VERTEX
  8
MY3DLAYER
10
18.68134665207202
20
32.04999999955677
30
-4.008593634807767e-09
 70
     32
  0
VERTEX
  8
MY3DLAYER
10
19.01507575952762
20
32.48492424004855
30
-4.2266108835065095e-09
 70
     32
  0
VERTEX
  8
MY3DLAYER
10
19.45000000001931
20
32.818653347504146
30
-4.415751675423962e-09
 70
     32
  0
VERTEX
  8
MY3DLAYER
10
19.95648000530402
20
33.02844423476387
30
-4.562660649298777e-09
 70
     32
  0
VERTEX
  8
MY3DLAYER
10
20.50000000001934
20
33.0999999995568
30
-4.657772478822153e-09
 70
     32
  0
VERTEX
  8
MY3DLAYER
10
21.043519994734663
20
33.02844423476387
30
-4.694409483363415e-09
 70
     32
  0
VERTEX
  8
MY3DLAYER
10
21.55000000001928
20
32.818653347504146
30
-4.670044972954201e-09
 70
     32
  0
VERTEX
  8
MY3DLAYER
10
21.984924240511063
20
32.48492424004855
30
-4.586303248288459e-09
 70
     32
  0
VERTEX
  8
MY3DLAYER
10
22.318653347966666
20
32.04999999955686
30
-4.448959600722446e-09
 70
     32
  0
VERTEX
  8
MY3DLAYER
10
22.528444235226385
20
31.543519994272145
30
-4.2673988787100825e-09
 70
     32
  0
VERTEX
  8
MY3DLAYER
10
22.600000000019314
20
30.999999999556824
30
-4.054074054238299e-09
 70
     32
  0
VERTEX
  8
MY3DLAYER
10
22.528444235226385
20
30.456480004841502
30
-3.823242877842858e-09
 70
     32
  0
VERTEX
  8
MY3DLAYER
10
22.318653347966666
20
29.949999999556884
30
-3.590967878608353e-09
 70
     32
  0
VERTEX
  8
MY3DLAYER
10
21.984924240511063
20
29.515075759065102
30
-3.37295062990961e-09
 70
     32
  0
SEQEND
  0
POLYLINE
 8
Layer0
 66
     1
70
    8
 10
0.0
 20
 0.0
 30
0.0
  0
VERTEX
  8
MY3DLAYER
10
14.000000000019286
20
28.89999999955685
30
1.3589982472694829e-10
 70
     32
  0
VERTEX
  8
MY3DLAYER
10
13.456480005303964
20
28.97155576434978
30
1.7253682926821055e-10
 70
     32
  0
VERTEX
  8
MY3DLAYER
10
12.950000000019344
20
29.181346651609502
30
1.4817231885899672e-10
 70
     32
  0
VERTEX
  8
MY3DLAYER
10
12.515075759527564
20
29.515075759065102
30
6.443059419325436e-11
 70
     32
  0
VERTEX
  8
MY3DLAYER
10
12.181346652071962
20
29.949999999556795
30
-7.291305337275843e-11
 70
     32
  0
VERTEX
  8
MY3DLAYER
10
11.971555764812242
20
30.456480004841502
30
-2.544737753851223e-10
 70
     32
  0
VERTEX
  8
MY3DLAYER
10
11.900000000019311
20
30.999999999556824
30
-4.677985998569057e-10
 70
     32
  0
VERTEX
  8
MY3DLAYER
10
11.971555764812242
20
31.543519994272145
30
-6.986297762523463e-10
 70
     32
  0
VERTEX
  8
MY3DLAYER
10
12.181346652071962
20
32.04999999955677
30
-9.309047754868516e-10
 70
     32
  0
VERTEX
  8
MY3DLAYER
10
12.515075759527564
20
32.48492424004855
30
-1.1489220241855946e-09
 70
     32
  0
VERTEX
  8
MY3DLAYER
10
12.950000000019253
20
32.818653347504146
30
-1.338062816103047e-09
 70
     32
  0
VERTEX
  8
MY3DLAYER
10
13.456480005303964
20
33.02844423476387
30
-1.4849717899778624e-09
 70
     32
  0
VERTEX
  8
MY3DLAYER
10
14.000000000019286
20
33.0999999995568
30
-1.580083619501238e-09
 70
     32
  0
VERTEX
  8
MY3DLAYER
10
14.543519994734607
20
33.02844423476387
30
-1.6167206240425002e-09
 70
     32
  0
VERTEX
  8
MY3DLAYER
10
15.050000000019228
20
32.818653347504146
30
-1.5923561136332863e-09
 70
     32
  0
VERTEX
  8
MY3DLAYER
10
15.484924240511008
20
32.48492424004855
30
-1.508614388967544e-09
 70
     32
  0
VERTEX
  8
MY3DLAYER
10
15.81865334796661
20
32.04999999955686
30
-1.3712707414015311e-09
 70
     32
  0
VERTEX
  8
MY3DLAYER
10
16.028444235226328
20
31.543519994272145
30
-1.1897100193891673e-09
 70
     32
  0
VERTEX
  8
MY3DLAYER
10
16.10000000001926
20
30.999999999556824
30
-9.76385194917384e-10
 70
     32
  0
VERTEX
  8
MY3DLAYER
10
16.028444235226328
20
30.456480004841502
30
-7.455540185219433e-10
 70
     32
  0
VERTEX
  8
MY3DLAYER
10
15.81865334796661
20
29.949999999556884
30
-5.132790192874381e-10
 70
     32
  0
VERTEX
  8
MY3DLAYER
10
15.484924240511008
20
29.515075759065102
30
-2.9526177058869503e-10
 70
     32
  0
VERTEX
  8
MY3DLAYER
10
15.050000000019317
20
29.181346651609502
30
-1.0612097867124248e-10
 70
     32
  0
VERTEX
  8
MY3DLAYER
10
14.543519994734607
20
28.97155576434978
30
4.078799520357279e-11
 70
     32
  0
VERTEX
  8
MY3DLAYER
10
14.000000000019286
20
28.89999999955685
30
1.3589982472694829e-10
 70
     32
  0
SEQEND
  0
POLYLINE
 8
Layer0
 66
     1
70
    8
 10
0.0
 20
 0.0
 30
0.0
  0
VERTEX
  8
MY3DLAYER
10
1.9311130472488e-11
20
10.740000000000066
30
4.872902081842767e-12
 70
     32
  0
VERTEX
  8
MY3DLAYER
10
1.9311130472488e-11
20
3.0000000000000395
30
0.0
 70
     32
  0
VERTEX
  8
MY3DLAYER
10
25.00000000001931
20
3.0000000000000395
30
-9.041940529641579e-11
 70
     32
  0
VERTEX
  8
MY3DLAYER
10
25.00000000001931
20
0.0
30
-3.042856633328483e-10
 70
     32
  0
VERTEX
  8
MY3DLAYER
10
47.50000000001898
20
0.0
30
1.2344685274001676e-10
 70
     32
  0
VERTEX
  8
MY3DLAYER
10
47.50000000001898
20
5.899999999241914
30
-8.027654985198751e-10
 70
     32
  0
VERTEX
  8
MY3DLAYER
10
47.085889527854924
20
5.954518677179433
30
-7.484416642000723e-10
 70
     32
  0
VERTEX
  8
MY3DLAYER
10
46.700000000018974
20
6.1143593531867815
30
-7.132484824978746e-10
 70
     32
  0
VERTEX
  8
MY3DLAYER
10
46.36862915012046
20
6.368629149343397
30
-6.997126433816447e-10
 70
     32
  0
VERTEX
  8
MY3DLAYER
10
46.11435935396385
20
6.699999999241913
30
-7.089170139806811e-10
 70
     32
  0
VERTEX
  8
MY3DLAYER
10
45.9545186779565
20
7.085889527077857
30
-7.399592050205683e-10
 70
     32
  0
VERTEX
  8
MY3DLAYER
10
45.90000000001898
20
7.499999999241911
30
-7.908539600975927e-10
 70
     32
  0
VERTEX
  8
MY3DLAYER
10
45.9545186779565
20
7.914110471405966
30
-8.581721999689762e-10
 70
     32
  0
VERTEX
  8
MY3DLAYER
10
46.11435935396385
20
8.29999999924191
30
-9.372215004077587e-10
 70
     32
  0
VERTEX
  8
MY3DLAYER
10
46.36862915012046
20
8.631370849140426
30
-1.0225875257674488e-09
 70
     32
  0
VERTEX
  8
MY3DLAYER
10
46.700000000018974
20
8.885640645297041
30
-1.108675462546671e-09
 70
     32
  0
VERTEX
  8
MY3DLAYER
10
47.085889527854924
20
9.045481321304392
30
-1.1893490636794013e-09
 70
     32
  0
VERTEX
  8
MY3DLAYER
10
47.50000000001898
20
9.09999999924191
30
-1.2593744713740306e-09
 70
     32
  0
VERTEX
  8
MY3DLAYER
10
47.500000000019334
20
10.740000000000066
30
-3.6698367011922526e-09
 70
     32
  0
VERTEX
  8
MY3DLAYER
10
44.08082781651479
20
10.740000000000066
30
-1.724104947697924e-09
 70
     32
  0
VERTEX
  8
MY3DLAYER
10
44.08082781651479
20
2.9999999992419424
30
-4.2953729462169575e-11
 70
     32
  0
VERTEX
  8
MY3DLAYER
10
32.88366504109035
20
2.9999999992418522
30
-4.2953729462169575e-11
 70
     32
  0
VERTEX
  8
MY3DLAYER
10
32.88366504109035
20
10.740000000000066
30
-1.29113857383345e-09
 70
     32
  0
VERTEX
  8
MY3DLAYER
10
1.9311130472488e-11
20
10.740000000000066
30
4.872902081842767e-12
 70
     32
  0
SEQEND
  0
POLYLINE
 8
Layer0
 66
     1
70
    8
 10
0.0
 20
 0.0
 30
0.0
  0
VERTEX
  8
MY3DLAYER
10
10.543519994734615
20
9.028444235207076
30
-7.808554869370709e-09
 70
     32
  0
VERTEX
  8
MY3DLAYER
10
11.050000000019235
20
8.818653347947356
30
-7.78437083681638e-09
 70
     32
  0
VERTEX
  8
MY3DLAYER
10
11.484924240511015
20
8.484924240491754
30
-7.739612328805378e-09
 70
     32
  0
VERTEX
  8
MY3DLAYER
10
11.818653347966617
20
8.050000000000065
30
-7.677166991015838e-09
 70
     32
  0
VERTEX
  8
MY3DLAYER
10
12.028444235226337
20
7.5435199947153535
30
-7.601185814110068e-09
 70
     32
  0
VERTEX
  8
MY3DLAYER
10
12.100000000019266
20
7.000000000000032
30
-7.517083133734558e-09
 70
     32
  0
VERTEX
  8
MY3DLAYER
10
12.028444235226337
20
6.45648000528471
30
-7.430453763390687e-09
 70
     32
  0
VERTEX
  8
MY3DLAYER
10
11.818653347966617
20
5.950000000000091
30
-7.347072994434711e-09
 70
     32
  0
VERTEX
  8
MY3DLAYER
10
11.484924240511015
20
5.51507575950831
30
-7.272896596077771e-09
 70
     32
  0
VERTEX
  8
MY3DLAYER
10
11.050000000019324
20
5.181346652052708
30
-7.212797470401711e-09
 70
     32
  0
VERTEX
  8
MY3DLAYER
10
10.543519994734615
20
4.971555764792988
30
-7.170926608068839e-09
 70
     32
  0
VERTEX
  8
MY3DLAYER
10
10.000000000019293
20
4.900000000000059
30
-7.149991176902403e-09
 70
     32
  0
VERTEX
  8
MY3DLAYER
10
9.456480005303971
20
4.971555764792988
30
-7.151615477596351e-09
 70
     32
  0
VERTEX
  8
MY3DLAYER
10
8.950000000019351
20
5.181346652052708
30
-7.175799510150682e-09
 70
     32
  0
VERTEX
  8
MY3DLAYER
10
8.515075759527571
20
5.51507575950831
30
-7.220558018161682e-09
 70
     32
  0
VERTEX
  8
MY3DLAYER
10
8.18134665207197
20
5.95
30
-7.283003355951223e-09
 70
     32
  0
VERTEX
  8
MY3DLAYER
10
7.9715557648122495
20
6.45648000528471
30
-7.358984532856994e-09
 70
     32
  0
VERTEX
  8
MY3DLAYER
10
7.900000000019319
20
7.000000000000032
30
-7.4430872132325014e-09
 70
     32
  0
VERTEX
  8
MY3DLAYER
10
7.9715557648122495
20
7.5435199947153535
30
-7.529716583576373e-09
 70
     32
  0
VERTEX
  8
MY3DLAYER
10
8.18134665207197
20
8.049999999999974
30
-7.61309735253235e-09
 70
     32
  0
VERTEX
  8
MY3DLAYER
10
8.515075759527571
20
8.484924240491754
30
-7.687273750889289e-09
 70
     32
  0
VERTEX
  8
MY3DLAYER
10
8.95000000001926
20
8.818653347947356
30
-7.74737287656535e-09
 70
     32
  0
VERTEX
  8
MY3DLAYER
10
9.456480005303971
20
9.028444235207076
30
-7.78924373889822e-09
 70
     32
  0
VERTEX
  8
MY3DLAYER
10
10.000000000019293
20
9.100000000000007
30
-7.810179170064657e-09
 70
     32
  0
VERTEX
  8
MY3DLAYER
10
10.543519994734615
20
9.028444235207076
30
-7.808554869370709e-09
 70
     32
  0
SEQEND
  0
POLYLINE
 8
Layer0
 66
     1
70
    8
 10
0.0
 20
 0.0
 30
0.0
  0
VERTEX
  8
MY3DLAYER
10
28.338183719027832
20
7.9141104714057855
30
1.2994405551580712e-10
 70
     32
  0
VERTEX
  8
MY3DLAYER
10
28.498024395035184
20
8.299999999241729
30
5.089475507702445e-11
 70
     32
  0
VERTEX
  8
MY3DLAYER
10
28.752294191191798
20
8.631370849140247
30
-3.44712702826655e-11
 70
     32
  0
VERTEX
  8
MY3DLAYER
10
29.083665041090313
20
8.885640645296862
30
-1.2037872920700465e-10
 70
     32
  0
VERTEX
  8
MY3DLAYER
10
29.46955456892626
20
9.04548132130421
30
-2.0123280819461797e-10
 70
     32
  0
VERTEX
  8
MY3DLAYER
10
29.883665041090314
20
9.099999999241728
30
-2.7107773803436427e-10
 70
     32
  0
VERTEX
  8
MY3DLAYER
10
30.29777551325437
20
9.04548132130421
30
-3.2558205020905006e-10
 70
     32
  0
VERTEX
  8
MY3DLAYER
10
30.68366504109031
20
8.885640645296862
30
-3.6059475405636474e-10
 70
     32
  0
VERTEX
  8
MY3DLAYER
10
31.015035890988827
20
8.631370849140247
30
-3.7413059317259465e-10
 70
     32
  0
VERTEX
  8
MY3DLAYER
10
31.269305687145444
20
8.299999999241729
30
-3.651067004284414e-10
 70
     32
  0
VERTEX
  8
MY3DLAYER
10
31.429146363152793
20
7.9141104714057855
30
-3.340645093885541e-10
 70
     32
  0
VERTEX
  8
MY3DLAYER
10
31.48366504109031
20
7.499999999241731
30
-2.831697543115297e-10
 70
     32
  0
VERTEX
  8
MY3DLAYER
10
31.429146363152793
20
7.0858895270776765
30
-2.1585151444014626e-10
 70
     32
  0
VERTEX
  8
MY3DLAYER
10
31.269305687145444
20
6.699999999241733
30
-1.3680221400136361e-10
 70
     32
  0
VERTEX
  8
MY3DLAYER
10
31.015035890988827
20
6.368629149343216
30
-5.143618864167365e-11
 70
     32
  0
VERTEX
  8
MY3DLAYER
10
30.68366504109031
20
6.114359353186601
30
3.44712702826655e-11
 70
     32
  0
VERTEX
  8
MY3DLAYER
10
30.29777551325437
20
5.9545186771792515
30
1.1532534927027881e-10
 70
     32
  0
VERTEX
  8
MY3DLAYER
10
29.883665041090314
20
5.899999999241734
30
1.8517027911002513e-10
 70
     32
  0
VERTEX
  8
MY3DLAYER
10
29.46955456892626
20
5.9545186771792515
30
2.396745912847109e-10
 70
     32
  0
VERTEX
  8
MY3DLAYER
10
29.083665041090313
20
6.114359353186601
30
2.746872951320256e-10
 70
     32
  0
VERTEX
  8
MY3DLAYER
10
28.752294191191798
20
6.368629149343216
30
2.882231342482555e-10
 70
     32
  0
VERTEX
  8
MY3DLAYER
10
28.498024395035184
20
6.699999999241733
30
2.791992415041022e-10
 70
     32
  0
VERTEX
  8
MY3DLAYER
10
28.338183719027832
20
7.0858895270776765
30
2.48157050464215e-10
 70
     32
  0
VERTEX
  8
MY3DLAYER
10
28.283665041090316
20
7.499999999241731
30
1.9726229538719051e-10
 70
     32
  0
VERTEX
  8
MY3DLAYER
10
28.338183719027832
20
7.9141104714057855
30
1.2994405551580712e-10
 70
     32
  0
SEQEND
 0
ENDSEC
 0
EOF
