 0
SECTION
 2
ENTITIES
  0
POLYLINE
 8
Layer0
 66
     1
70
    8
 10
0.0
 20
 0.0
 30
0.0
  0
VERTEX
  8
MY3DLAYER
10
1.3397459621556465
20
31.199999999999942
30
9.44796120584369e-13
 70
     32
  0
VERTEX
  8
MY3DLAYER
10
2.87439993811357
20
33.20000000000003
30
5.668776723506013e-13
 70
     32
  0
VERTEX
  8
MY3DLAYER
10
2.928932188134489
20
33.2710678118654
30
5.534487537608362e-13
 70
     32
  0
VERTEX
  8
MY3DLAYER
10
5.0000000000000355
20
34.86025403784442
30
2.531573575226146e-13
 70
     32
  0
VERTEX
  8
MY3DLAYER
10
7.411809548974822
20
35.85925826289074
30
6.438629426838153e-14
 70
     32
  0
VERTEX
  8
MY3DLAYER
10
9.999999999999982
20
36.19999999999989
30
0.0
 70
     32
  0
VERTEX
  8
MY3DLAYER
10
12.588190451025232
20
35.85925826289074
30
6.438629426838153e-14
 70
     32
  0
VERTEX
  8
MY3DLAYER
10
15.000000000000018
20
34.86025403784442
30
2.531573575226146e-13
 70
     32
  0
VERTEX
  8
MY3DLAYER
10
17.071067811865476
20
33.2710678118654
30
5.534487537608362e-13
 70
     32
  0
VERTEX
  8
MY3DLAYER
10
17.125600061886395
20
33.20000000000003
30
5.668776723506013e-13
 70
     32
  0
VERTEX
  8
MY3DLAYER
10
18.660254037844318
20
31.199999999999942
30
9.44796120584369e-13
 70
     32
  0
VERTEX
  8
MY3DLAYER
10
19.659258262890635
20
28.78819045102516
30
1.4005297816763169e-12
 70
     32
  0
VERTEX
  8
MY3DLAYER
10
19.999999999999964
20
26.199999999999996
30
1.889592241168738e-12
 70
     32
  0
VERTEX
  8
MY3DLAYER
10
19.999999999999964
20
0.0
30
6.840323913030885e-12
 70
     32
  0
VERTEX
  8
MY3DLAYER
10
0.0
20
0.0
30
6.840323913030885e-12
 70
     32
  0
VERTEX
  8
MY3DLAYER
10
0.0
20
26.199999999999996
30
1.889592241168738e-12
 70
     32
  0
VERTEX
  8
MY3DLAYER
10
0.3407417371093288
20
28.78819045102516
30
1.4005297816763169e-12
 70
     32
  0
VERTEX
  8
MY3DLAYER
10
1.3397459621556465
20
31.199999999999942
30
9.44796120584369e-13
 70
     32
  0
SEQEND
  0
POLYLINE
 8
Layer0
 66
     1
70
    8
 10
0.0
 20
 0.0
 30
0.0
  0
VERTEX
  8
MY3DLAYER
10
8.649999999999928
20
23.86173140978193
30
2.3314296597532047e-12
 70
     32
  0
VERTEX
  8
MY3DLAYER
10
9.30118857822314
20
23.592000269019422
30
2.3823978468318486e-12
 70
     32
  0
VERTEX
  8
MY3DLAYER
10
9.999999999999982
20
23.49999999999989
30
2.399782146284323e-12
 70
     32
  0
VERTEX
  8
MY3DLAYER
10
10.698811421776824
20
23.592000269019422
30
2.3823978468318486e-12
 70
     32
  0
VERTEX
  8
MY3DLAYER
10
11.349999999999945
20
23.86173140978193
30
2.3314296597532047e-12
 70
     32
  0
VERTEX
  8
MY3DLAYER
10
11.909188309203714
20
24.290811690796353
30
2.2503509827688684e-12
 70
     32
  0
VERTEX
  8
MY3DLAYER
10
12.338268590217957
20
24.849999999999945
30
2.1446871937265308e-12
 70
     32
  0
VERTEX
  8
MY3DLAYER
10
12.607999730980467
20
25.501188578223246
30
2.021639105231684e-12
 70
     32
  0
VERTEX
  8
MY3DLAYER
10
12.7
20
26.199999999999996
30
1.889592241168738e-12
 70
     32
  0
VERTEX
  8
MY3DLAYER
10
12.607999730980467
20
26.89881142177675
30
1.7575453771057925e-12
 70
     32
  0
VERTEX
  8
MY3DLAYER
10
12.338268590217957
20
27.55000000000005
30
1.634497288610946e-12
 70
     32
  0
VERTEX
  8
MY3DLAYER
10
11.909188309203714
20
28.10918830920364
30
1.5288334995686082e-12
 70
     32
  0
VERTEX
  8
MY3DLAYER
10
11.350000000000035
20
28.538268590218063
30
1.4477548225842712e-12
 70
     32
  0
VERTEX
  8
MY3DLAYER
10
10.698811421776824
20
28.807999730980573
30
1.3967866355056278e-12
 70
     32
  0
VERTEX
  8
MY3DLAYER
10
9.999999999999982
20
28.900000000000105
30
1.379402336053153e-12
 70
     32
  0
VERTEX
  8
MY3DLAYER
10
9.30118857822314
20
28.807999730980573
30
1.3967866355056278e-12
 70
     32
  0
VERTEX
  8
MY3DLAYER
10
8.650000000000018
20
28.538268590218063
30
1.4477548225842712e-12
 70
     32
  0
VERTEX
  8
MY3DLAYER
10
8.090811690796249
20
28.10918830920364
30
1.5288334995686082e-12
 70
     32
  0
VERTEX
  8
MY3DLAYER
10
7.661731409782007
20
27.55000000000005
30
1.634497288610946e-12
 70
     32
  0
VERTEX
  8
MY3DLAYER
10
7.392000269019498
20
26.89881142177675
30
1.7575453771057925e-12
 70
     32
  0
VERTEX
  8
MY3DLAYER
10
7.299999999999964
20
26.199999999999996
30
1.889592241168738e-12
 70
     32
  0
VERTEX
  8
MY3DLAYER
10
7.392000269019498
20
25.501188578223246
30
2.021639105231684e-12
 70
     32
  0
VERTEX
  8
MY3DLAYER
10
7.661731409782007
20
24.849999999999945
30
2.1446871937265308e-12
 70
     32
  0
VERTEX
  8
MY3DLAYER
10
8.090811690796249
20
24.290811690796353
30
2.2503509827688684e-12
 70
     32
  0
VERTEX
  8
MY3DLAYER
10
8.649999999999928
20
23.86173140978193
30
2.3314296597532047e-12
 70
     32
  0
SEQEND
  0
POLYLINE
 8
Layer0
 66
     1
70
    8
 10
0.0
 20
 0.0
 30
0.0
  0
VERTEX
  8
MY3DLAYER
10
7.164501807441949
20
13.264501807441825
30
4.243635015758247e-12
 70
     32
  0
VERTEX
  8
MY3DLAYER
10
7.995000000000022
20
12.627238130824251
30
4.364051865649772e-12
 70
     32
  0
VERTEX
  8
MY3DLAYER
10
8.962135629138865
20
12.22663743658071
30
4.439749062014713e-12
 70
     32
  0
VERTEX
  8
MY3DLAYER
10
9.999999999999982
20
12.089999999999849
30
4.465567966016352e-12
 70
     32
  0
VERTEX
  8
MY3DLAYER
10
11.037864370861097
20
12.22663743658071
30
4.439749062014713e-12
 70
     32
  0
VERTEX
  8
MY3DLAYER
10
12.005000000000031
20
12.62723813082443
30
4.364051865649737e-12
 70
     32
  0
VERTEX
  8
MY3DLAYER
10
12.835498192558013
20
13.264501807441825
30
4.243635015758247e-12
 70
     32
  0
VERTEX
  8
MY3DLAYER
10
13.472761869175589
20
14.0949999999999
30
4.086704721662006e-12
 70
     32
  0
VERTEX
  8
MY3DLAYER
10
13.87336256341913
20
15.062135629138831
30
3.9039555235641264e-12
 70
     32
  0
VERTEX
  8
MY3DLAYER
10
14.009999999999991
20
16.099999999999948
30
3.70784147730766e-12
 70
     32
  0
VERTEX
  8
MY3DLAYER
10
13.87336256341913
20
17.137864370861063
30
3.5117274310511943e-12
 70
     32
  0
VERTEX
  8
MY3DLAYER
10
13.472761869175589
20
18.104999999999997
30
3.328978232953315e-12
 70
     32
  0
VERTEX
  8
MY3DLAYER
10
12.835498192558013
20
18.93549819255807
30
3.172047938857074e-12
 70
     32
  0
VERTEX
  8
MY3DLAYER
10
12.00499999999994
20
19.572761869175466
30
3.0516310889655837e-12
 70
     32
  0
VERTEX
  8
MY3DLAYER
10
11.037864370861097
20
19.973362563419187
30
2.9759338926006077e-12
 70
     32
  0
VERTEX
  8
MY3DLAYER
10
9.999999999999982
20
20.110000000000046
30
2.95011498859897e-12
 70
     32
  0
VERTEX
  8
MY3DLAYER
10
8.962135629138865
20
19.973362563419187
30
2.9759338926006077e-12
 70
     32
  0
VERTEX
  8
MY3DLAYER
10
7.994999999999933
20
19.572761869175466
30
3.0516310889655837e-12
 70
     32
  0
VERTEX
  8
MY3DLAYER
10
7.164501807441949
20
18.93549819255807
30
3.172047938857074e-12
 70
     32
  0
VERTEX
  8
MY3DLAYER
10
6.527238130824375
20
18.104999999999997
30
3.328978232953315e-12
 70
     32
  0
VERTEX
  8
MY3DLAYER
10
6.1266374365808325
20
17.137864370861063
30
3.5117274310511943e-12
 70
     32
  0
VERTEX
  8
MY3DLAYER
10
5.989999999999974
20
16.099999999999948
30
3.70784147730766e-12
 70
     32
  0
VERTEX
  8
MY3DLAYER
10
6.1266374365808325
20
15.062135629138831
30
3.9039555235641264e-12
 70
     32
  0
VERTEX
  8
MY3DLAYER
10
6.527238130824375
20
14.0949999999999
30
4.086704721662006e-12
 70
     32
  0
VERTEX
  8
MY3DLAYER
10
7.164501807441949
20
13.264501807441825
30
4.243635015758247e-12
 70
     32
  0
SEQEND
  0
POLYLINE
 8
Layer0
 66
     1
70
    8
 10
0.0
 20
 0.0
 30
0.0
  0
VERTEX
  8
MY3DLAYER
10
10.698811421776824
20
3.392000269019505
30
6.1542547102719586e-12
 70
     32
  0
VERTEX
  8
MY3DLAYER
10
11.350000000000035
20
3.661731409782014
30
6.103286523193315e-12
 70
     32
  0
VERTEX
  8
MY3DLAYER
10
11.909188309203714
20
4.0908116907964365
30
6.022207846208978e-12
 70
     32
  0
VERTEX
  8
MY3DLAYER
10
12.338268590217957
20
4.650000000000025
30
5.91654405716664e-12
 70
     32
  0
VERTEX
  8
MY3DLAYER
10
12.607999730980467
20
5.301188578223328
30
5.793495968671794e-12
 70
     32
  0
VERTEX
  8
MY3DLAYER
10
12.7
20
6.000000000000079
30
5.661449104608848e-12
 70
     32
  0
VERTEX
  8
MY3DLAYER
10
12.607999730980467
20
6.698811421776831
30
5.529402240545902e-12
 70
     32
  0
VERTEX
  8
MY3DLAYER
10
12.338268590217957
20
7.350000000000133
30
5.406354152051056e-12
 70
     32
  0
VERTEX
  8
MY3DLAYER
10
11.909188309203714
20
7.909188309203722
30
5.300690363008718e-12
 70
     32
  0
VERTEX
  8
MY3DLAYER
10
11.349999999999945
20
8.338268590218144
30
5.219611686024382e-12
 70
     32
  0
VERTEX
  8
MY3DLAYER
10
10.698811421776824
20
8.607999730980653
30
5.168643498945738e-12
 70
     32
  0
VERTEX
  8
MY3DLAYER
10
9.999999999999982
20
8.700000000000188
30
5.1512591994932626e-12
 70
     32
  0
VERTEX
  8
MY3DLAYER
10
9.30118857822314
20
8.607999730980653
30
5.168643498945738e-12
 70
     32
  0
VERTEX
  8
MY3DLAYER
10
8.649999999999928
20
8.338268590218144
30
5.219611686024382e-12
 70
     32
  0
VERTEX
  8
MY3DLAYER
10
8.090811690796249
20
7.909188309203722
30
5.300690363008718e-12
 70
     32
  0
VERTEX
  8
MY3DLAYER
10
7.661731409782007
20
7.350000000000133
30
5.406354152051056e-12
 70
     32
  0
VERTEX
  8
MY3DLAYER
10
7.392000269019498
20
6.698811421776831
30
5.529402240545902e-12
 70
     32
  0
VERTEX
  8
MY3DLAYER
10
7.299999999999964
20
6.000000000000079
30
5.661449104608848e-12
 70
     32
  0
VERTEX
  8
MY3DLAYER
10
7.392000269019498
20
5.301188578223328
30
5.793495968671794e-12
 70
     32
  0
VERTEX
  8
MY3DLAYER
10
7.661731409782007
20
4.650000000000025
30
5.91654405716664e-12
 70
     32
  0
VERTEX
  8
MY3DLAYER
10
8.090811690796249
20
4.0908116907964365
30
6.022207846208978e-12
 70
     32
  0
VERTEX
  8
MY3DLAYER
10
8.650000000000018
20
3.661731409782014
30
6.103286523193315e-12
 70
     32
  0
VERTEX
  8
MY3DLAYER
10
9.30118857822314
20
3.392000269019505
30
6.1542547102719586e-12
 70
     32
  0
VERTEX
  8
MY3DLAYER
10
9.999999999999982
20
3.2999999999999714
30
6.171639009724433e-12
 70
     32
  0
VERTEX
  8
MY3DLAYER
10
10.698811421776824
20
3.392000269019505
30
6.1542547102719586e-12
 70
     32
  0
SEQEND
 0
ENDSEC
 0
EOF
