 0
SECTION
 2
ENTITIES
  0
POLYLINE
 8
Layer0
 66
     1
70
    8
 10
0.0
 20
 0.0
 30
0.0
  0
VERTEX
  8
MY3DLAYER
10
380.0
20
359.99999999999994
30
3.204961247007532e-05
 70
     32
  0
VERTEX
  8
MY3DLAYER
10
380.0
20
0.0
30
3.204961247007532e-05
 70
     32
  0
VERTEX
  8
MY3DLAYER
10
0.0
20
0.0
30
3.204961247007532e-05
 70
     32
  0
VERTEX
  8
MY3DLAYER
10
0.0
20
359.99999999999994
30
3.204961247007532e-05
 70
     32
  0
VERTEX
  8
MY3DLAYER
10
380.0
20
359.99999999999994
30
3.204961247007532e-05
 70
     32
  0
SEQEND
  0
POLYLINE
 8
Layer0
 66
     1
70
    8
 10
0.0
 20
 0.0
 30
0.0
  0
VERTEX
  8
MY3DLAYER
10
349.3499992552481
20
8.565056282459837
30
4.052944407249015e-05
 70
     32
  0
VERTEX
  8
MY3DLAYER
10
349.8564792605328
20
8.355265395200117
30
4.052944407249015e-05
 70
     32
  0
VERTEX
  8
MY3DLAYER
10
350.3999992552481
20
8.283709630407142
30
4.052944407249015e-05
 70
     32
  0
VERTEX
  8
MY3DLAYER
10
350.9435192499634
20
8.355265395200117
30
4.052944407249015e-05
 70
     32
  0
VERTEX
  8
MY3DLAYER
10
351.4499992552481
20
8.565056282459837
30
4.052944407249015e-05
 70
     32
  0
VERTEX
  8
MY3DLAYER
10
351.8849234957399
20
8.898785389915439
30
4.052944407249015e-05
 70
     32
  0
VERTEX
  8
MY3DLAYER
10
352.2186526031954
20
9.333709630407174
30
4.052944407249015e-05
 70
     32
  0
VERTEX
  8
MY3DLAYER
10
352.4284434904551
20
9.840189635691884
30
4.052944407249015e-05
 70
     32
  0
VERTEX
  8
MY3DLAYER
10
352.49999925524804
20
10.383709630407205
30
4.052944407249015e-05
 70
     32
  0
VERTEX
  8
MY3DLAYER
10
352.4284434904551
20
10.927229625122482
30
4.052944407249015e-05
 70
     32
  0
VERTEX
  8
MY3DLAYER
10
352.2186526031954
20
11.433709630407192
30
4.052944407249015e-05
 70
     32
  0
VERTEX
  8
MY3DLAYER
10
351.88492349573977
20
11.868633870898927
30
4.052944407249015e-05
 70
     32
  0
VERTEX
  8
MY3DLAYER
10
351.449999255248
20
12.202362978354484
30
4.052944407249015e-05
 70
     32
  0
VERTEX
  8
MY3DLAYER
10
350.9435192499633
20
12.412153865614204
30
4.052944407249015e-05
 70
     32
  0
VERTEX
  8
MY3DLAYER
10
350.3999992552481
20
12.48370963040718
30
4.052944407249015e-05
 70
     32
  0
VERTEX
  8
MY3DLAYER
10
349.85647926053275
20
12.412153865614204
30
4.052944407249015e-05
 70
     32
  0
VERTEX
  8
MY3DLAYER
10
349.349999255248
20
12.202362978354484
30
4.052944407249015e-05
 70
     32
  0
VERTEX
  8
MY3DLAYER
10
348.91507501475627
20
11.868633870898883
30
4.052944407249015e-05
 70
     32
  0
VERTEX
  8
MY3DLAYER
10
348.5813459073007
20
11.433709630407147
30
4.052944407249015e-05
 70
     32
  0
VERTEX
  8
MY3DLAYER
10
348.371555020041
20
10.927229625122436
30
4.052944407249015e-05
 70
     32
  0
VERTEX
  8
MY3DLAYER
10
348.2999992552481
20
10.383709630407115
30
4.052944407249015e-05
 70
     32
  0
VERTEX
  8
MY3DLAYER
10
348.371555020041
20
9.84018963569184
30
4.052944407249015e-05
 70
     32
  0
VERTEX
  8
MY3DLAYER
10
348.5813459073007
20
9.333709630407128
30
4.052944407249015e-05
 70
     32
  0
VERTEX
  8
MY3DLAYER
10
348.9150750147563
20
8.898785389915394
30
4.052944407249015e-05
 70
     32
  0
VERTEX
  8
MY3DLAYER
10
349.3499992552481
20
8.565056282459837
30
4.052944407249015e-05
 70
     32
  0
SEQEND
  0
POLYLINE
 8
Layer0
 66
     1
70
    8
 10
0.0
 20
 0.0
 30
0.0
  0
VERTEX
  8
MY3DLAYER
10
367.4885928516484
20
350.67292951726654
30
3.204961265055317e-05
 70
     32
  0
VERTEX
  8
MY3DLAYER
10
367.4
20
349.99999999999994
30
3.204961265055317e-05
 70
     32
  0
VERTEX
  8
MY3DLAYER
10
367.4885928516484
20
349.32707048273335
30
3.204961265055317e-05
 70
     32
  0
VERTEX
  8
MY3DLAYER
10
367.7483339501604
20
348.6999999999999
30
3.204961265055317e-05
 70
     32
  0
VERTEX
  8
MY3DLAYER
10
368.161522368915
20
348.1615223689149
30
3.204961265055317e-05
 70
     32
  0
VERTEX
  8
MY3DLAYER
10
368.70000000000005
20
347.7483339501603
30
3.204961265055317e-05
 70
     32
  0
VERTEX
  8
MY3DLAYER
10
369.3270704827334
20
347.4885928516483
30
3.204961265055317e-05
 70
     32
  0
VERTEX
  8
MY3DLAYER
10
370.0
20
347.3999999999999
30
3.204961265055317e-05
 70
     32
  0
VERTEX
  8
MY3DLAYER
10
370.6729295172666
20
347.4885928516483
30
3.204961265055317e-05
 70
     32
  0
VERTEX
  8
MY3DLAYER
10
371.30000000000007
20
347.7483339501603
30
3.204961265055317e-05
 70
     32
  0
VERTEX
  8
MY3DLAYER
10
371.838477631085
20
348.1615223689149
30
3.204961265055317e-05
 70
     32
  0
VERTEX
  8
MY3DLAYER
10
372.2516660498396
20
348.7
30
3.204961265055317e-05
 70
     32
  0
VERTEX
  8
MY3DLAYER
10
372.5114071483516
20
349.32707048273335
30
3.204961265055317e-05
 70
     32
  0
VERTEX
  8
MY3DLAYER
10
372.6
20
349.99999999999994
30
3.204961265055317e-05
 70
     32
  0
VERTEX
  8
MY3DLAYER
10
372.5114071483516
20
350.67292951726654
30
3.204961265055317e-05
 70
     32
  0
VERTEX
  8
MY3DLAYER
10
372.2516660498396
20
351.3
30
3.204961265055317e-05
 70
     32
  0
VERTEX
  8
MY3DLAYER
10
371.838477631085
20
351.83847763108497
30
3.204961265055317e-05
 70
     32
  0
VERTEX
  8
MY3DLAYER
10
371.29999999999995
20
352.25166604983957
30
3.204961265055317e-05
 70
     32
  0
VERTEX
  8
MY3DLAYER
10
370.6729295172666
20
352.51140714835157
30
3.204961265055317e-05
 70
     32
  0
VERTEX
  8
MY3DLAYER
10
370.0
20
352.59999999999997
30
3.204961265055317e-05
 70
     32
  0
VERTEX
  8
MY3DLAYER
10
369.3270704827334
20
352.51140714835157
30
3.204961265055317e-05
 70
     32
  0
VERTEX
  8
MY3DLAYER
10
368.69999999999993
20
352.25166604983957
30
3.204961265055317e-05
 70
     32
  0
VERTEX
  8
MY3DLAYER
10
368.161522368915
20
351.83847763108497
30
3.204961265055317e-05
 70
     32
  0
VERTEX
  8
MY3DLAYER
10
367.7483339501604
20
351.2999999999999
30
3.204961265055317e-05
 70
     32
  0
VERTEX
  8
MY3DLAYER
10
367.4885928516484
20
350.67292951726654
30
3.204961265055317e-05
 70
     32
  0
SEQEND
  0
POLYLINE
 8
Layer0
 66
     1
70
    8
 10
0.0
 20
 0.0
 30
0.0
  0
VERTEX
  8
MY3DLAYER
10
7.488592851648374
20
350.67292951726654
30
3.204961283103102e-05
 70
     32
  0
VERTEX
  8
MY3DLAYER
10
7.399999999999942
20
349.99999999999994
30
3.204961283103102e-05
 70
     32
  0
VERTEX
  8
MY3DLAYER
10
7.488592851648374
20
349.32707048273335
30
3.204961283103102e-05
 70
     32
  0
VERTEX
  8
MY3DLAYER
10
7.7483339501604185
20
348.6999999999999
30
3.204961283103102e-05
 70
     32
  0
VERTEX
  8
MY3DLAYER
10
8.161522368914918
20
348.1615223689149
30
3.204961283103102e-05
 70
     32
  0
VERTEX
  8
MY3DLAYER
10
8.699999999999962
20
347.7483339501603
30
3.204961283103102e-05
 70
     32
  0
VERTEX
  8
MY3DLAYER
10
9.327070482733438
20
347.4885928516483
30
3.204961283103102e-05
 70
     32
  0
VERTEX
  8
MY3DLAYER
10
9.999999999999982
20
347.3999999999999
30
3.204961283103102e-05
 70
     32
  0
VERTEX
  8
MY3DLAYER
10
10.67292951726657
20
347.4885928516483
30
3.204961283103102e-05
 70
     32
  0
VERTEX
  8
MY3DLAYER
10
11.300000000000002
20
347.7483339501603
30
3.204961283103102e-05
 70
     32
  0
VERTEX
  8
MY3DLAYER
10
11.838477631085047
20
348.1615223689149
30
3.204961283103102e-05
 70
     32
  0
VERTEX
  8
MY3DLAYER
10
12.251666049839544
20
348.7
30
3.204961283103102e-05
 70
     32
  0
VERTEX
  8
MY3DLAYER
10
12.511407148351589
20
349.32707048273335
30
3.204961283103102e-05
 70
     32
  0
VERTEX
  8
MY3DLAYER
10
12.600000000000023
20
349.99999999999994
30
3.204961283103102e-05
 70
     32
  0
VERTEX
  8
MY3DLAYER
10
12.511407148351589
20
350.67292951726654
30
3.204961283103102e-05
 70
     32
  0
VERTEX
  8
MY3DLAYER
10
12.251666049839544
20
351.3
30
3.204961283103102e-05
 70
     32
  0
VERTEX
  8
MY3DLAYER
10
11.838477631085047
20
351.83847763108497
30
3.204961283103102e-05
 70
     32
  0
VERTEX
  8
MY3DLAYER
10
11.300000000000002
20
352.25166604983957
30
3.204961283103102e-05
 70
     32
  0
VERTEX
  8
MY3DLAYER
10
10.672929517266525
20
352.51140714835157
30
3.204961283103102e-05
 70
     32
  0
VERTEX
  8
MY3DLAYER
10
9.999999999999982
20
352.59999999999997
30
3.204961283103102e-05
 70
     32
  0
VERTEX
  8
MY3DLAYER
10
9.327070482733438
20
352.51140714835157
30
3.204961283103102e-05
 70
     32
  0
VERTEX
  8
MY3DLAYER
10
8.699999999999962
20
352.25166604983957
30
3.204961283103102e-05
 70
     32
  0
VERTEX
  8
MY3DLAYER
10
8.161522368914918
20
351.83847763108497
30
3.204961283103102e-05
 70
     32
  0
VERTEX
  8
MY3DLAYER
10
7.7483339501604185
20
351.2999999999999
30
3.204961283103102e-05
 70
     32
  0
VERTEX
  8
MY3DLAYER
10
7.488592851648374
20
350.67292951726654
30
3.204961283103102e-05
 70
     32
  0
SEQEND
  0
POLYLINE
 8
Layer0
 66
     1
70
    8
 10
0.0
 20
 0.0
 30
0.0
  0
VERTEX
  8
MY3DLAYER
10
36.94999999999575
20
34.418247317094675
30
4.187212621928893e-05
 70
     32
  0
VERTEX
  8
MY3DLAYER
10
37.45648000528046
20
34.20845642983495
30
4.187212621928893e-05
 70
     32
  0
VERTEX
  8
MY3DLAYER
10
37.99999999999574
20
34.13690066504198
30
4.187212621928893e-05
 70
     32
  0
VERTEX
  8
MY3DLAYER
10
38.54351999471101
20
34.20845642983495
30
4.187212621928893e-05
 70
     32
  0
VERTEX
  8
MY3DLAYER
10
39.04999999999577
20
34.418247317094675
30
4.187212621928893e-05
 70
     32
  0
VERTEX
  8
MY3DLAYER
10
39.4849242404875
20
34.75197642455023
30
4.187212621928893e-05
 70
     32
  0
VERTEX
  8
MY3DLAYER
10
39.818653347943055
20
35.18690066504201
30
4.187212621928893e-05
 70
     32
  0
VERTEX
  8
MY3DLAYER
10
40.02844423520278
20
35.69338067032672
30
4.187212621928893e-05
 70
     32
  0
VERTEX
  8
MY3DLAYER
10
40.09999999999575
20
36.23690066504199
30
4.187212621928893e-05
 70
     32
  0
VERTEX
  8
MY3DLAYER
10
40.02844423520278
20
36.78042065975732
30
4.187212621928893e-05
 70
     32
  0
VERTEX
  8
MY3DLAYER
10
39.818653347943055
20
37.286900665042026
30
4.187212621928893e-05
 70
     32
  0
VERTEX
  8
MY3DLAYER
10
39.4849242404875
20
37.721824905533765
30
4.187212621928893e-05
 70
     32
  0
VERTEX
  8
MY3DLAYER
10
39.04999999999572
20
38.05555401298932
30
4.187212621928893e-05
 70
     32
  0
VERTEX
  8
MY3DLAYER
10
38.54351999471101
20
38.26534490024904
30
4.187212621928893e-05
 70
     32
  0
VERTEX
  8
MY3DLAYER
10
37.99999999999574
20
38.336900665042016
30
4.187212621928893e-05
 70
     32
  0
VERTEX
  8
MY3DLAYER
10
37.45648000528041
20
38.26534490024904
30
4.187212621928893e-05
 70
     32
  0
VERTEX
  8
MY3DLAYER
10
36.949999999995704
20
38.05555401298932
30
4.187212621928893e-05
 70
     32
  0
VERTEX
  8
MY3DLAYER
10
36.515075759503965
20
37.721824905533765
30
4.187212621928893e-05
 70
     32
  0
VERTEX
  8
MY3DLAYER
10
36.18134665204841
20
37.28690066504198
30
4.187212621928893e-05
 70
     32
  0
VERTEX
  8
MY3DLAYER
10
35.97155576478869
20
36.78042065975727
30
4.187212621928893e-05
 70
     32
  0
VERTEX
  8
MY3DLAYER
10
35.899999999995714
20
36.23690066504199
30
4.187212621928893e-05
 70
     32
  0
VERTEX
  8
MY3DLAYER
10
35.97155576478869
20
35.693380670326675
30
4.187212621928893e-05
 70
     32
  0
VERTEX
  8
MY3DLAYER
10
36.18134665204841
20
35.18690066504196
30
4.187212621928893e-05
 70
     32
  0
VERTEX
  8
MY3DLAYER
10
36.515075759503965
20
34.75197642455023
30
4.187212621928893e-05
 70
     32
  0
VERTEX
  8
MY3DLAYER
10
36.94999999999575
20
34.418247317094675
30
4.187212621928893e-05
 70
     32
  0
SEQEND
  0
POLYLINE
 8
Layer0
 66
     1
70
    8
 10
0.0
 20
 0.0
 30
0.0
  0
VERTEX
  8
MY3DLAYER
10
348.91507501471375
20
338.2975150744995
30
3.9573046439045354e-05
 70
     32
  0
VERTEX
  8
MY3DLAYER
10
349.34999925520555
20
337.96378596704386
30
3.9573046439045354e-05
 70
     32
  0
VERTEX
  8
MY3DLAYER
10
349.8564792604901
20
337.75399507978415
30
3.9573046439045354e-05
 70
     32
  0
VERTEX
  8
MY3DLAYER
10
350.39999925520544
20
337.6824393149912
30
3.9573046439045354e-05
 70
     32
  0
VERTEX
  8
MY3DLAYER
10
350.94351924992077
20
337.75399507978415
30
3.9573046439045354e-05
 70
     32
  0
VERTEX
  8
MY3DLAYER
10
351.4499992552055
20
337.96378596704386
30
3.9573046439045354e-05
 70
     32
  0
VERTEX
  8
MY3DLAYER
10
351.8849234956972
20
338.2975150744995
30
3.9573046439045354e-05
 70
     32
  0
VERTEX
  8
MY3DLAYER
10
352.2186526031528
20
338.73243931499127
30
3.9573046439045354e-05
 70
     32
  0
VERTEX
  8
MY3DLAYER
10
352.4284434904125
20
339.23891932027584
30
3.9573046439045354e-05
 70
     32
  0
VERTEX
  8
MY3DLAYER
10
352.49999925520547
20
339.78243931499117
30
3.9573046439045354e-05
 70
     32
  0
VERTEX
  8
MY3DLAYER
10
352.4284434904125
20
340.3259593097065
30
3.9573046439045354e-05
 70
     32
  0
VERTEX
  8
MY3DLAYER
10
352.2186526031528
20
340.83243931499123
30
3.9573046439045354e-05
 70
     32
  0
VERTEX
  8
MY3DLAYER
10
351.8849234956972
20
341.2673635554829
30
3.9573046439045354e-05
 70
     32
  0
VERTEX
  8
MY3DLAYER
10
351.4499992552054
20
341.6010926629385
30
3.9573046439045354e-05
 70
     32
  0
VERTEX
  8
MY3DLAYER
10
350.94351924992077
20
341.81088355019824
30
3.9573046439045354e-05
 70
     32
  0
VERTEX
  8
MY3DLAYER
10
350.39999925520544
20
341.8824393149912
30
3.9573046439045354e-05
 70
     32
  0
VERTEX
  8
MY3DLAYER
10
349.8564792604901
20
341.81088355019824
30
3.9573046439045354e-05
 70
     32
  0
VERTEX
  8
MY3DLAYER
10
349.34999925520543
20
341.6010926629385
30
3.9573046439045354e-05
 70
     32
  0
VERTEX
  8
MY3DLAYER
10
348.91507501471375
20
341.2673635554829
30
3.9573046439045354e-05
 70
     32
  0
VERTEX
  8
MY3DLAYER
10
348.58134590725814
20
340.8324393149911
30
3.9573046439045354e-05
 70
     32
  0
VERTEX
  8
MY3DLAYER
10
348.3715550199984
20
340.3259593097065
30
3.9573046439045354e-05
 70
     32
  0
VERTEX
  8
MY3DLAYER
10
348.2999992552055
20
339.78243931499117
30
3.9573046439045354e-05
 70
     32
  0
VERTEX
  8
MY3DLAYER
10
348.3715550199984
20
339.23891932027584
30
3.9573046439045354e-05
 70
     32
  0
VERTEX
  8
MY3DLAYER
10
348.58134590725814
20
338.73243931499115
30
3.9573046439045354e-05
 70
     32
  0
VERTEX
  8
MY3DLAYER
10
348.91507501471375
20
338.2975150744995
30
3.9573046439045354e-05
 70
     32
  0
SEQEND
  0
POLYLINE
 8
Layer0
 66
     1
70
    8
 10
0.0
 20
 0.0
 30
0.0
  0
VERTEX
  8
MY3DLAYER
10
335.9150750147138
20
342.8975150744996
30
3.9573046439045354e-05
 70
     32
  0
VERTEX
  8
MY3DLAYER
10
336.3499992552056
20
342.563785967044
30
3.9573046439045354e-05
 70
     32
  0
VERTEX
  8
MY3DLAYER
10
336.85647926049023
20
342.3539950797843
30
3.9573046439045354e-05
 70
     32
  0
VERTEX
  8
MY3DLAYER
10
337.39999925520556
20
342.28243931499134
30
3.9573046439045354e-05
 70
     32
  0
VERTEX
  8
MY3DLAYER
10
337.9435192499209
20
342.3539950797843
30
3.9573046439045354e-05
 70
     32
  0
VERTEX
  8
MY3DLAYER
10
338.44999925520557
20
342.563785967044
30
3.9573046439045354e-05
 70
     32
  0
VERTEX
  8
MY3DLAYER
10
338.88492349569725
20
342.8975150744996
30
3.9573046439045354e-05
 70
     32
  0
VERTEX
  8
MY3DLAYER
10
339.21865260315286
20
343.33243931499135
30
3.9573046439045354e-05
 70
     32
  0
VERTEX
  8
MY3DLAYER
10
339.4284434904126
20
343.838919320276
30
3.9573046439045354e-05
 70
     32
  0
VERTEX
  8
MY3DLAYER
10
339.4999992552055
20
344.3824393149913
30
3.9573046439045354e-05
 70
     32
  0
VERTEX
  8
MY3DLAYER
10
339.4284434904126
20
344.9259593097066
30
3.9573046439045354e-05
 70
     32
  0
VERTEX
  8
MY3DLAYER
10
339.21865260315286
20
345.43243931499126
30
3.9573046439045354e-05
 70
     32
  0
VERTEX
  8
MY3DLAYER
10
338.88492349569725
20
345.86736355548305
30
3.9573046439045354e-05
 70
     32
  0
VERTEX
  8
MY3DLAYER
10
338.44999925520546
20
346.20109266293866
30
3.9573046439045354e-05
 70
     32
  0
VERTEX
  8
MY3DLAYER
10
337.9435192499209
20
346.4108835501984
30
3.9573046439045354e-05
 70
     32
  0
VERTEX
  8
MY3DLAYER
10
337.39999925520556
20
346.48243931499127
30
3.9573046439045354e-05
 70
     32
  0
VERTEX
  8
MY3DLAYER
10
336.85647926049023
20
346.4108835501984
30
3.9573046439045354e-05
 70
     32
  0
VERTEX
  8
MY3DLAYER
10
336.3499992552055
20
346.20109266293866
30
3.9573046439045354e-05
 70
     32
  0
VERTEX
  8
MY3DLAYER
10
335.9150750147138
20
345.86736355548305
30
3.9573046439045354e-05
 70
     32
  0
VERTEX
  8
MY3DLAYER
10
335.5813459072582
20
345.43243931499126
30
3.9573046439045354e-05
 70
     32
  0
VERTEX
  8
MY3DLAYER
10
335.3715550199985
20
344.9259593097066
30
3.9573046439045354e-05
 70
     32
  0
VERTEX
  8
MY3DLAYER
10
335.29999925520553
20
344.3824393149913
30
3.9573046439045354e-05
 70
     32
  0
VERTEX
  8
MY3DLAYER
10
335.3715550199985
20
343.838919320276
30
3.9573046439045354e-05
 70
     32
  0
VERTEX
  8
MY3DLAYER
10
335.5813459072582
20
343.3324393149913
30
3.9573046439045354e-05
 70
     32
  0
VERTEX
  8
MY3DLAYER
10
335.9150750147138
20
342.8975150744996
30
3.9573046439045354e-05
 70
     32
  0
SEQEND
  0
POLYLINE
 8
Layer0
 66
     1
70
    8
 10
0.0
 20
 0.0
 30
0.0
  0
VERTEX
  8
MY3DLAYER
10
67.07358533548474
20
326.7213287377109
30
0.0
 70
     32
  0
VERTEX
  8
MY3DLAYER
10
70.05000435416373
20
326.32947574003526
30
0.0
 70
     32
  0
VERTEX
  8
MY3DLAYER
10
73.02642337284274
20
326.7213287377109
30
0.0
 70
     32
  0
VERTEX
  8
MY3DLAYER
10
75.80000435416373
20
327.87018359651415
30
0.0
 70
     32
  0
VERTEX
  8
MY3DLAYER
10
78.18173233780904
20
329.69774775638996
30
0.0
 70
     32
  0
VERTEX
  8
MY3DLAYER
10
80.00929649768479
20
332.0794757400352
30
0.0
 70
     32
  0
VERTEX
  8
MY3DLAYER
10
81.15815135648803
20
334.8530567213563
30
0.0
 70
     32
  0
VERTEX
  8
MY3DLAYER
10
81.55000435416375
20
337.82947574003526
30
0.0
 70
     32
  0
VERTEX
  8
MY3DLAYER
10
81.15815135648803
20
340.8058947587142
30
0.0
 70
     32
  0
VERTEX
  8
MY3DLAYER
10
80.00929649768479
20
343.5794757400353
30
0.0
 70
     32
  0
VERTEX
  8
MY3DLAYER
10
78.18173233780904
20
345.96120372368057
30
0.0
 70
     32
  0
VERTEX
  8
MY3DLAYER
10
75.80000435416373
20
347.7887678835564
30
0.0
 70
     32
  0
VERTEX
  8
MY3DLAYER
10
73.02642337284274
20
348.9376227423596
30
0.0
 70
     32
  0
VERTEX
  8
MY3DLAYER
10
70.05000435416373
20
349.32947574003526
30
0.0
 70
     32
  0
VERTEX
  8
MY3DLAYER
10
67.07358533548474
20
348.9376227423596
30
0.0
 70
     32
  0
VERTEX
  8
MY3DLAYER
10
64.30000435416373
20
347.7887678835564
30
0.0
 70
     32
  0
VERTEX
  8
MY3DLAYER
10
61.91827637051844
20
345.96120372368057
30
0.0
 70
     32
  0
VERTEX
  8
MY3DLAYER
10
60.090712210642685
20
343.5794757400353
30
0.0
 70
     32
  0
VERTEX
  8
MY3DLAYER
10
58.94185735183944
20
340.8058947587142
30
0.0
 70
     32
  0
VERTEX
  8
MY3DLAYER
10
58.55000435416374
20
337.82947574003526
30
0.0
 70
     32
  0
VERTEX
  8
MY3DLAYER
10
58.94185735183944
20
334.8530567213563
30
0.0
 70
     32
  0
VERTEX
  8
MY3DLAYER
10
60.090712210642685
20
332.0794757400352
30
0.0
 70
     32
  0
VERTEX
  8
MY3DLAYER
10
61.91827637051844
20
329.69774775638996
30
0.0
 70
     32
  0
VERTEX
  8
MY3DLAYER
10
64.30000435416373
20
327.87018359651415
30
0.0
 70
     32
  0
VERTEX
  8
MY3DLAYER
10
67.07358533548474
20
326.7213287377109
30
0.0
 70
     32
  0
SEQEND
  0
POLYLINE
 8
Layer0
 66
     1
70
    8
 10
0.0
 20
 0.0
 30
0.0
  0
VERTEX
  8
MY3DLAYER
10
42.30758128723737
20
342.3634762984722
30
2.6803779250883507e-05
 70
     32
  0
VERTEX
  8
MY3DLAYER
10
42.84921180233287
20
342.278796919458
30
2.6651309754299744e-05
 70
     32
  0
VERTEX
  8
MY3DLAYER
10
43.39430334118617
20
342.3371872130293
30
2.649932953318057e-05
 70
     32
  0
VERTEX
  8
MY3DLAYER
10
43.905708816230856
20
342.5346679771741
30
2.635819621161772e-05
 70
     32
  0
VERTEX
  8
MY3DLAYER
10
44.34857678948009
20
342.8577812241681
30
2.6237527274020066e-05
 70
     32
  0
VERTEX
  8
MY3DLAYER
10
44.692726540430854
20
343.28450732019854
30
2.6145546554801056e-05
 70
     32
  0
VERTEX
  8
MY3DLAYER
10
44.914704832290234
20
343.78576558701917
30
2.6088522049860784e-05
 70
     32
  0
VERTEX
  8
MY3DLAYER
10
44.99938421130446
20
344.3273961021147
30
2.6070339988848445e-05
 70
     32
  0
VERTEX
  8
MY3DLAYER
10
44.94099391773305
20
344.8724876409681
30
2.6092239532715664e-05
 70
     32
  0
VERTEX
  8
MY3DLAYER
10
44.74351315358832
20
345.38389311601276
30
2.615272831008042e-05
 70
     32
  0
VERTEX
  8
MY3DLAYER
10
44.42039990659435
20
345.826761089262
30
2.624768402625932e-05
 70
     32
  0
VERTEX
  8
MY3DLAYER
10
43.993673810563934
20
346.17091084021274
30
2.6370635467287684e-05
 70
     32
  0
VERTEX
  8
MY3DLAYER
10
43.49241554374329
20
346.3928891320721
30
2.6513203768274706e-05
 70
     32
  0
VERTEX
  8
MY3DLAYER
10
42.95078502864779
20
346.4775685110863
30
2.666567326485847e-05
 70
     32
  0
VERTEX
  8
MY3DLAYER
10
42.40569348979449
20
346.41917821751497
30
2.6817653485977643e-05
 70
     32
  0
VERTEX
  8
MY3DLAYER
10
41.894288014749804
20
346.2216974533702
30
2.695878680754049e-05
 70
     32
  0
VERTEX
  8
MY3DLAYER
10
41.45142004150057
20
345.8985842063762
30
2.7079455745138147e-05
 70
     32
  0
VERTEX
  8
MY3DLAYER
10
41.107270290549806
20
345.47185811034575
30
2.7171436464357157e-05
 70
     32
  0
VERTEX
  8
MY3DLAYER
10
40.88529199869043
20
344.9705998435251
30
2.722846096929743e-05
 70
     32
  0
VERTEX
  8
MY3DLAYER
10
40.8006126196762
20
344.4289693284297
30
2.7246643030309768e-05
 70
     32
  0
VERTEX
  8
MY3DLAYER
10
40.85900291324761
20
343.8838777895763
30
2.7224743486442546e-05
 70
     32
  0
VERTEX
  8
MY3DLAYER
10
41.05648367739234
20
343.3724723145316
30
2.7164254709077793e-05
 70
     32
  0
VERTEX
  8
MY3DLAYER
10
41.37959692438631
20
342.9296043412823
30
2.706929899289889e-05
 70
     32
  0
VERTEX
  8
MY3DLAYER
10
41.80632302041673
20
342.5854545903316
30
2.694634755187053e-05
 70
     32
  0
VERTEX
  8
MY3DLAYER
10
42.30758128723737
20
342.3634762984722
30
2.6803779250883507e-05
 70
     32
  0
SEQEND
  0
POLYLINE
 8
Layer0
 66
     1
70
    8
 10
0.0
 20
 0.0
 30
0.0
  0
VERTEX
  8
MY3DLAYER
10
29.35647842076727
20
337.75399499523985
30
3.152231104337488e-05
 70
     32
  0
VERTEX
  8
MY3DLAYER
10
29.89999841548255
20
337.6824392304469
30
3.1369446480766784e-05
 70
     32
  0
VERTEX
  8
MY3DLAYER
10
30.44351841019778
20
337.75399499523985
30
3.121804035970399e-05
 70
     32
  0
VERTEX
  8
MY3DLAYER
10
30.949998415482444
20
337.96378588249956
30
3.107841114058374e-05
 70
     32
  0
VERTEX
  8
MY3DLAYER
10
31.38492265597418
20
338.29751498995506
30
3.096007397687117e-05
 70
     32
  0
VERTEX
  8
MY3DLAYER
10
31.718651763429737
20
338.73243923044686
30
3.087109352151174e-05
 70
     32
  0
VERTEX
  8
MY3DLAYER
10
31.928442650689412
20
339.23891923573154
30
3.0817533649951655e-05
 70
     32
  0
VERTEX
  8
MY3DLAYER
10
31.999998415482388
20
339.7824392304468
30
3.080304434632808e-05
 70
     32
  0
VERTEX
  8
MY3DLAYER
10
31.92844265068946
20
340.325959225162
30
3.0828613004985074e-05
 70
     32
  0
VERTEX
  8
MY3DLAYER
10
31.718651763429737
20
340.8324392304467
30
3.0892497292711596e-05
 70
     32
  0
VERTEX
  8
MY3DLAYER
10
31.38492265597418
20
341.2673634709385
30
3.099034336173645e-05
 70
     32
  0
VERTEX
  8
MY3DLAYER
10
30.94999841548249
20
341.601092578394
30
3.111548327723312e-05
 70
     32
  0
VERTEX
  8
MY3DLAYER
10
30.443518410197825
20
341.8108834656537
30
3.125938909960268e-05
 70
     32
  0
VERTEX
  8
MY3DLAYER
10
29.89999841548255
20
341.88243923044666
30
3.141225366221079e-05
 70
     32
  0
VERTEX
  8
MY3DLAYER
10
29.356478420767317
20
341.8108834656537
30
3.156365978327358e-05
 70
     32
  0
VERTEX
  8
MY3DLAYER
10
28.849998415482652
20
341.601092578394
30
3.170328900239383e-05
 70
     32
  0
VERTEX
  8
MY3DLAYER
10
28.415074174990917
20
341.2673634709385
30
3.18216261661064e-05
 70
     32
  0
VERTEX
  8
MY3DLAYER
10
28.08134506753536
20
340.8324392304467
30
3.191060662146583e-05
 70
     32
  0
VERTEX
  8
MY3DLAYER
10
27.871554180275687
20
340.325959225162
30
3.196416649302591e-05
 70
     32
  0
VERTEX
  8
MY3DLAYER
10
27.799998415482712
20
339.7824392304468
30
3.197865579664949e-05
 70
     32
  0
VERTEX
  8
MY3DLAYER
10
27.87155418027564
20
339.23891923573154
30
3.19530871379925e-05
 70
     32
  0
VERTEX
  8
MY3DLAYER
10
28.08134506753536
20
338.73243923044686
30
3.1889202850265975e-05
 70
     32
  0
VERTEX
  8
MY3DLAYER
10
28.415074174990917
20
338.29751498995506
30
3.179135678124112e-05
 70
     32
  0
VERTEX
  8
MY3DLAYER
10
28.849998415482606
20
337.96378588249956
30
3.166621686574444e-05
 70
     32
  0
VERTEX
  8
MY3DLAYER
10
29.35647842076727
20
337.75399499523985
30
3.152231104337488e-05
 70
     32
  0
SEQEND
  0
POLYLINE
 8
Layer0
 66
     1
70
    8
 10
0.0
 20
 0.0
 30
0.0
  0
VERTEX
  8
MY3DLAYER
10
21.999999331016152
20
52.62679370922862
30
4.18721271216782e-05
 70
     32
  0
VERTEX
  8
MY3DLAYER
10
358.03161539715853
20
52.626790988733504
30
3.9573046439045354e-05
 70
     32
  0
VERTEX
  8
MY3DLAYER
10
358.03161539715853
20
311.62678491977925
30
3.9573046439045354e-05
 70
     32
  0
VERTEX
  8
MY3DLAYER
10
22.00001297252415
20
311.6268019916723
30
2.9907212373814217e-05
 70
     32
  0
VERTEX
  8
MY3DLAYER
10
21.999999331016152
20
52.62679370922862
30
4.18721271216782e-05
 70
     32
  0
SEQEND
  0
POLYLINE
 8
Layer0
 66
     1
70
    8
 10
0.0
 20
 0.0
 30
0.0
  0
VERTEX
  8
MY3DLAYER
10
368.161522368915
20
8.161522368914918
30
3.205066934839351e-05
 70
     32
  0
VERTEX
  8
MY3DLAYER
10
368.70000000000005
20
7.7483339501604185
30
3.205066934839351e-05
 70
     32
  0
VERTEX
  8
MY3DLAYER
10
369.3270704827334
20
7.488592851648374
30
3.205066934839351e-05
 70
     32
  0
VERTEX
  8
MY3DLAYER
10
370.0
20
7.399999999999942
30
3.205066934839351e-05
 70
     32
  0
VERTEX
  8
MY3DLAYER
10
370.6729295172666
20
7.488592851648374
30
3.205066934839351e-05
 70
     32
  0
VERTEX
  8
MY3DLAYER
10
371.30000000000007
20
7.7483339501604185
30
3.205066934839351e-05
 70
     32
  0
VERTEX
  8
MY3DLAYER
10
371.838477631085
20
8.161522368914918
30
3.205066934839351e-05
 70
     32
  0
VERTEX
  8
MY3DLAYER
10
372.2516660498396
20
8.699999999999962
30
3.205066934839351e-05
 70
     32
  0
VERTEX
  8
MY3DLAYER
10
372.5114071483516
20
9.327070482733438
30
3.205066934839351e-05
 70
     32
  0
VERTEX
  8
MY3DLAYER
10
372.6
20
9.999999999999982
30
3.205066934839351e-05
 70
     32
  0
VERTEX
  8
MY3DLAYER
10
372.5114071483516
20
10.672929517266525
30
3.205066934839351e-05
 70
     32
  0
VERTEX
  8
MY3DLAYER
10
372.2516660498396
20
11.300000000000002
30
3.205066934839351e-05
 70
     32
  0
VERTEX
  8
MY3DLAYER
10
371.838477631085
20
11.838477631085047
30
3.205066934839351e-05
 70
     32
  0
VERTEX
  8
MY3DLAYER
10
371.29999999999995
20
12.251666049839544
30
3.205066934839351e-05
 70
     32
  0
VERTEX
  8
MY3DLAYER
10
370.6729295172666
20
12.511407148351589
30
3.205066934839351e-05
 70
     32
  0
VERTEX
  8
MY3DLAYER
10
370.0
20
12.600000000000023
30
3.205066934839351e-05
 70
     32
  0
VERTEX
  8
MY3DLAYER
10
369.3270704827334
20
12.511407148351589
30
3.205066934839351e-05
 70
     32
  0
VERTEX
  8
MY3DLAYER
10
368.69999999999993
20
12.251666049839544
30
3.205066934839351e-05
 70
     32
  0
VERTEX
  8
MY3DLAYER
10
368.161522368915
20
11.838477631085047
30
3.205066934839351e-05
 70
     32
  0
VERTEX
  8
MY3DLAYER
10
367.7483339501604
20
11.300000000000002
30
3.205066934839351e-05
 70
     32
  0
VERTEX
  8
MY3DLAYER
10
367.4885928516484
20
10.672929517266525
30
3.205066934839351e-05
 70
     32
  0
VERTEX
  8
MY3DLAYER
10
367.4
20
9.999999999999982
30
3.205066934839351e-05
 70
     32
  0
VERTEX
  8
MY3DLAYER
10
367.4885928516484
20
9.327070482733394
30
3.205066934839351e-05
 70
     32
  0
VERTEX
  8
MY3DLAYER
10
367.7483339501604
20
8.699999999999962
30
3.205066934839351e-05
 70
     32
  0
VERTEX
  8
MY3DLAYER
10
368.161522368915
20
8.161522368914918
30
3.205066934839351e-05
 70
     32
  0
SEQEND
  0
POLYLINE
 8
Layer0
 66
     1
70
    8
 10
0.0
 20
 0.0
 30
0.0
  0
VERTEX
  8
MY3DLAYER
10
343.04999926235786
20
34.41824497520618
30
3.95730462585675e-05
 70
     32
  0
VERTEX
  8
MY3DLAYER
10
343.48492350284965
20
34.75197408266173
30
3.95730462585675e-05
 70
     32
  0
VERTEX
  8
MY3DLAYER
10
343.8186526103052
20
35.18689832315347
30
3.95730462585675e-05
 70
     32
  0
VERTEX
  8
MY3DLAYER
10
344.028443497565
20
35.69337832843818
30
3.95730462585675e-05
 70
     32
  0
VERTEX
  8
MY3DLAYER
10
344.09999926235787
20
36.236898323153454
30
3.95730462585675e-05
 70
     32
  0
VERTEX
  8
MY3DLAYER
10
344.028443497565
20
36.78041831786873
30
3.95730462585675e-05
 70
     32
  0
VERTEX
  8
MY3DLAYER
10
343.8186526103052
20
37.286898323153444
30
3.95730462585675e-05
 70
     32
  0
VERTEX
  8
MY3DLAYER
10
343.48492350284965
20
37.721822563645176
30
3.95730462585675e-05
 70
     32
  0
VERTEX
  8
MY3DLAYER
10
343.04999926235786
20
38.05555167110074
30
3.95730462585675e-05
 70
     32
  0
VERTEX
  8
MY3DLAYER
10
342.5435192570732
20
38.26534255836045
30
3.95730462585675e-05
 70
     32
  0
VERTEX
  8
MY3DLAYER
10
341.9999992623579
20
38.33689832315343
30
3.95730462585675e-05
 70
     32
  0
VERTEX
  8
MY3DLAYER
10
341.4564792676426
20
38.26534255836045
30
3.95730462585675e-05
 70
     32
  0
VERTEX
  8
MY3DLAYER
10
340.9499992623579
20
38.05555167110074
30
3.95730462585675e-05
 70
     32
  0
VERTEX
  8
MY3DLAYER
10
340.5150750218662
20
37.721822563645176
30
3.95730462585675e-05
 70
     32
  0
VERTEX
  8
MY3DLAYER
10
340.1813459144106
20
37.286898323153444
30
3.95730462585675e-05
 70
     32
  0
VERTEX
  8
MY3DLAYER
10
339.9715550271509
20
36.78041831786873
30
3.95730462585675e-05
 70
     32
  0
VERTEX
  8
MY3DLAYER
10
339.89999926235794
20
36.236898323153454
30
3.95730462585675e-05
 70
     32
  0
VERTEX
  8
MY3DLAYER
10
339.9715550271509
20
35.69337832843818
30
3.95730462585675e-05
 70
     32
  0
VERTEX
  8
MY3DLAYER
10
340.1813459144106
20
35.18689832315347
30
3.95730462585675e-05
 70
     32
  0
VERTEX
  8
MY3DLAYER
10
340.5150750218662
20
34.75197408266173
30
3.95730462585675e-05
 70
     32
  0
VERTEX
  8
MY3DLAYER
10
340.94999926235795
20
34.41824497520618
30
3.95730462585675e-05
 70
     32
  0
VERTEX
  8
MY3DLAYER
10
341.4564792676426
20
34.20845408794646
30
3.95730462585675e-05
 70
     32
  0
VERTEX
  8
MY3DLAYER
10
341.9999992623579
20
34.13689832315348
30
3.95730462585675e-05
 70
     32
  0
VERTEX
  8
MY3DLAYER
10
342.5435192570732
20
34.20845408794646
30
3.95730462585675e-05
 70
     32
  0
VERTEX
  8
MY3DLAYER
10
343.04999926235786
20
34.41824497520618
30
3.95730462585675e-05
 70
     32
  0
SEQEND
  0
POLYLINE
 8
Layer0
 66
     1
70
    8
 10
0.0
 20
 0.0
 30
0.0
  0
VERTEX
  8
MY3DLAYER
10
339.3813459525739
20
20.333709656577977
30
4.023791566680756e-05
 70
     32
  0
VERTEX
  8
MY3DLAYER
10
339.7150750600295
20
19.89878541608624
30
4.023915789588272e-05
 70
     32
  0
VERTEX
  8
MY3DLAYER
10
340.1499993005212
20
19.565056308630684
30
4.024281004575414e-05
 70
     32
  0
VERTEX
  8
MY3DLAYER
10
340.6564793058059
20
19.355265421370966
30
4.0248623417937775e-05
 70
     32
  0
VERTEX
  8
MY3DLAYER
10
341.1999993005212
20
19.28370965657799
30
4.025620150258646e-05
 70
     32
  0
VERTEX
  8
MY3DLAYER
10
341.7435192952365
20
19.355265421370966
30
4.026502813303523e-05
 70
     32
  0
VERTEX
  8
MY3DLAYER
10
342.24999930052127
20
19.565056308630684
30
4.0274501776593746e-05
 70
     32
  0
VERTEX
  8
MY3DLAYER
10
342.68492354101295
20
19.89878541608624
30
4.02839765030194e-05
 70
     32
  0
VERTEX
  8
MY3DLAYER
10
343.01865264846856
20
20.333709656578023
30
4.029280710398097e-05
 70
     32
  0
VERTEX
  8
MY3DLAYER
10
343.2284435357283
20
20.84018966186273
30
4.030039150535458e-05
 70
     32
  0
VERTEX
  8
MY3DLAYER
10
343.2999993005213
20
21.38370965657801
30
4.0306212818563834e-05
 70
     32
  0
VERTEX
  8
MY3DLAYER
10
343.2284435357283
20
21.927229651293285
30
4.030987453376155e-05
 70
     32
  0
VERTEX
  8
MY3DLAYER
10
343.01865264846856
20
22.433709656577996
30
4.031112686959659e-05
 70
     32
  0
VERTEX
  8
MY3DLAYER
10
342.68492354101295
20
22.868633897069774
30
4.030988464052143e-05
 70
     32
  0
VERTEX
  8
MY3DLAYER
10
342.24999930052127
20
23.20236300452533
30
4.030623249065001e-05
 70
     32
  0
VERTEX
  8
MY3DLAYER
10
341.7435192952365
20
23.412153891785053
30
4.030041911846638e-05
 70
     32
  0
VERTEX
  8
MY3DLAYER
10
341.1999993005212
20
23.48370965657803
30
4.029284103381769e-05
 70
     32
  0
VERTEX
  8
MY3DLAYER
10
340.6564793058059
20
23.412153891785053
30
4.028401440336893e-05
 70
     32
  0
VERTEX
  8
MY3DLAYER
10
340.1499993005212
20
23.20236300452533
30
4.0274540759810405e-05
 70
     32
  0
VERTEX
  8
MY3DLAYER
10
339.7150750600295
20
22.868633897069774
30
4.0265066033384755e-05
 70
     32
  0
VERTEX
  8
MY3DLAYER
10
339.3813459525739
20
22.433709656577996
30
4.025623543242318e-05
 70
     32
  0
VERTEX
  8
MY3DLAYER
10
339.1715550653142
20
21.927229651293285
30
4.024865103104957e-05
 70
     32
  0
VERTEX
  8
MY3DLAYER
10
339.0999993005212
20
21.38370965657801
30
4.024282971784032e-05
 70
     32
  0
VERTEX
  8
MY3DLAYER
10
339.1715550653142
20
20.840189661862688
30
4.02391680026426e-05
 70
     32
  0
VERTEX
  8
MY3DLAYER
10
339.3813459525739
20
20.333709656577977
30
4.023791566680756e-05
 70
     32
  0
SEQEND
  0
POLYLINE
 8
Layer0
 66
     1
70
    8
 10
0.0
 20
 0.0
 30
0.0
  0
VERTEX
  8
MY3DLAYER
10
40.899998604929955
20
17.483710785359186
30
4.6728037935395145e-05
 70
     32
  0
VERTEX
  8
MY3DLAYER
10
41.44351859964523
20
17.555266550152115
30
4.659320202762273e-05
 70
     32
  0
VERTEX
  8
MY3DLAYER
10
41.949998604929895
20
17.765057437411834
30
4.644789750187783e-05
 70
     32
  0
VERTEX
  8
MY3DLAYER
10
42.38492284542163
20
18.09878654486739
30
4.63020266366243e-05
 70
     32
  0
VERTEX
  8
MY3DLAYER
10
42.71865195287719
20
18.533710785359172
30
4.616553051306482e-05
 70
     32
  0
VERTEX
  8
MY3DLAYER
10
42.9284428401369
20
19.040190790643837
30
4.60477107793622e-05
 70
     32
  0
VERTEX
  8
MY3DLAYER
10
42.999998604929836
20
19.58371078535916
30
4.5956596714802345e-05
 70
     32
  0
VERTEX
  8
MY3DLAYER
10
42.92844284013686
20
20.127230780074434
30
4.5898397840460344e-05
 70
     32
  0
VERTEX
  8
MY3DLAYER
10
42.71865195287714
20
20.633710785359145
30
4.587708015719727e-05
 70
     32
  0
VERTEX
  8
MY3DLAYER
10
42.384922845421585
20
21.06863502585088
30
4.5894096331267065e-05
 70
     32
  0
VERTEX
  8
MY3DLAYER
10
41.949998604929846
20
21.40236413330644
30
4.5948286792452106e-05
 70
     32
  0
VERTEX
  8
MY3DLAYER
10
41.44351859964514
20
21.612155020566156
30
4.603595878336364e-05
 70
     32
  0
VERTEX
  8
MY3DLAYER
10
40.89999860492986
20
21.683710785359132
30
4.615113722366004e-05
 70
     32
  0
VERTEX
  8
MY3DLAYER
10
40.35647861021459
20
21.612155020566203
30
4.628597313143245e-05
 70
     32
  0
VERTEX
  8
MY3DLAYER
10
39.84999860492992
20
21.40236413330648
30
4.643127765717736e-05
 70
     32
  0
VERTEX
  8
MY3DLAYER
10
39.41507436443818
20
21.068635025850927
30
4.6577148522430884e-05
 70
     32
  0
VERTEX
  8
MY3DLAYER
10
39.08134525698263
20
20.633710785359145
30
4.671364464599037e-05
 70
     32
  0
VERTEX
  8
MY3DLAYER
10
38.87155436972291
20
20.12723078007448
30
4.683146437969298e-05
 70
     32
  0
VERTEX
  8
MY3DLAYER
10
38.79999860492998
20
19.58371078535916
30
4.6922578444252847e-05
 70
     32
  0
VERTEX
  8
MY3DLAYER
10
38.87155436972295
20
19.040190790643884
30
4.698077731859484e-05
 70
     32
  0
VERTEX
  8
MY3DLAYER
10
39.08134525698267
20
18.533710785359172
30
4.7002095001857924e-05
 70
     32
  0
VERTEX
  8
MY3DLAYER
10
39.41507436443823
20
18.098786544867437
30
4.6985078827788127e-05
 70
     32
  0
VERTEX
  8
MY3DLAYER
10
39.849998604929965
20
17.76505743741188
30
4.6930888366603085e-05
 70
     32
  0
VERTEX
  8
MY3DLAYER
10
40.35647861021467
20
17.55526655015216
30
4.684321637569155e-05
 70
     32
  0
VERTEX
  8
MY3DLAYER
10
40.899998604929955
20
17.483710785359186
30
4.6728037935395145e-05
 70
     32
  0
SEQEND
  0
POLYLINE
 8
Layer0
 66
     1
70
    8
 10
0.0
 20
 0.0
 30
0.0
  0
VERTEX
  8
MY3DLAYER
10
67.07358533548378
20
14.526857359936228
30
3.2049619147755944e-05
 70
     32
  0
VERTEX
  8
MY3DLAYER
10
70.0500043541628
20
14.135004362260528
30
3.2049619147755944e-05
 70
     32
  0
VERTEX
  8
MY3DLAYER
10
73.02642337284179
20
14.526857359936228
30
3.2049619147755944e-05
 70
     32
  0
VERTEX
  8
MY3DLAYER
10
75.8000043541628
20
15.675712218739475
30
3.2049619147755944e-05
 70
     32
  0
VERTEX
  8
MY3DLAYER
10
78.18173233780809
20
17.503276378615237
30
3.2049619147755944e-05
 70
     32
  0
VERTEX
  8
MY3DLAYER
10
80.00929649768385
20
19.885004362260528
30
3.2049619147755944e-05
 70
     32
  0
VERTEX
  8
MY3DLAYER
10
81.1581513564871
20
22.658585343581525
30
3.2049619147755944e-05
 70
     32
  0
VERTEX
  8
MY3DLAYER
10
81.5500043541628
20
25.635004362260528
30
3.2049619147755944e-05
 70
     32
  0
VERTEX
  8
MY3DLAYER
10
81.1581513564871
20
28.611423380939534
30
3.2049619147755944e-05
 70
     32
  0
VERTEX
  8
MY3DLAYER
10
80.00929649768385
20
31.38500436226053
30
3.2049619147755944e-05
 70
     32
  0
VERTEX
  8
MY3DLAYER
10
78.18173233780809
20
33.76673234590582
30
3.2049619147755944e-05
 70
     32
  0
VERTEX
  8
MY3DLAYER
10
75.8000043541628
20
35.594296505781585
30
3.2049619147755944e-05
 70
     32
  0
VERTEX
  8
MY3DLAYER
10
73.02642337284179
20
36.74315136458483
30
3.2049619147755944e-05
 70
     32
  0
VERTEX
  8
MY3DLAYER
10
70.0500043541628
20
37.13500436226053
30
3.2049619147755944e-05
 70
     32
  0
VERTEX
  8
MY3DLAYER
10
67.07358533548378
20
36.74315136458483
30
3.2049619147755944e-05
 70
     32
  0
VERTEX
  8
MY3DLAYER
10
64.3000043541628
20
35.594296505781585
30
3.2049619147755944e-05
 70
     32
  0
VERTEX
  8
MY3DLAYER
10
61.918276370517496
20
33.76673234590582
30
3.2049619147755944e-05
 70
     32
  0
VERTEX
  8
MY3DLAYER
10
60.09071221064174
20
31.38500436226053
30
3.2049619147755944e-05
 70
     32
  0
VERTEX
  8
MY3DLAYER
10
58.94185735183849
20
28.611423380939534
30
3.2049619147755944e-05
 70
     32
  0
VERTEX
  8
MY3DLAYER
10
58.55000435416279
20
25.635004362260528
30
3.2049619147755944e-05
 70
     32
  0
VERTEX
  8
MY3DLAYER
10
58.94185735183849
20
22.658585343581525
30
3.2049619147755944e-05
 70
     32
  0
VERTEX
  8
MY3DLAYER
10
60.09071221064174
20
19.885004362260528
30
3.2049619147755944e-05
 70
     32
  0
VERTEX
  8
MY3DLAYER
10
61.918276370517496
20
17.503276378615237
30
3.2049619147755944e-05
 70
     32
  0
VERTEX
  8
MY3DLAYER
10
64.3000043541628
20
15.675712218739475
30
3.2049619147755944e-05
 70
     32
  0
VERTEX
  8
MY3DLAYER
10
67.07358533548378
20
14.526857359936228
30
3.2049619147755944e-05
 70
     32
  0
SEQEND
  0
POLYLINE
 8
Layer0
 66
     1
70
    8
 10
0.0
 20
 0.0
 30
0.0
  0
VERTEX
  8
MY3DLAYER
10
335.1073817590084
20
320.6188938699101
30
3.9006637626926016e-05
 70
     32
  0
VERTEX
  8
MY3DLAYER
10
334.8059055653865
20
320.4940183417794
30
3.900896885937754e-05
 70
     32
  0
VERTEX
  8
MY3DLAYER
10
334.5470220889033
20
320.295370063532
30
3.901201965703649e-05
 70
     32
  0
VERTEX
  8
MY3DLAYER
10
334.3483738106559
20
320.03648658704884
30
3.901558192893617e-05
 70
     32
  0
VERTEX
  8
MY3DLAYER
10
334.22349828252516
20
319.73501039342693
30
3.901941293236177e-05
 70
     32
  0
VERTEX
  8
MY3DLAYER
10
334.1809055653865
20
319.4114865870488
30
3.9023251696335136e-05
 70
     32
  0
VERTEX
  8
MY3DLAYER
10
334.22349828252516
20
319.0879627806707
30
3.902683670844453e-05
 70
     32
  0
VERTEX
  8
MY3DLAYER
10
334.3483738106559
20
318.78648658704884
30
3.90299234211966e-05
 70
     32
  0
VERTEX
  8
MY3DLAYER
10
334.5470220889033
20
318.5276031105656
30
3.903230157789039e-05
 70
     32
  0
VERTEX
  8
MY3DLAYER
10
334.80590556538647
20
318.32895483231823
30
3.903380910941223e-05
 70
     32
  0
VERTEX
  8
MY3DLAYER
10
335.1073817590084
20
318.2040793041875
30
3.9034343323862686e-05
 70
     32
  0
VERTEX
  8
MY3DLAYER
10
335.43090556538647
20
318.1614865870488
30
3.903386776471507e-05
 70
     32
  0
VERTEX
  8
MY3DLAYER
10
335.7544293717646
20
318.2040793041875
30
3.903241491798326e-05
 70
     32
  0
VERTEX
  8
MY3DLAYER
10
336.0559055653865
20
318.32895483231823
30
3.9030083685531734e-05
 70
     32
  0
VERTEX
  8
MY3DLAYER
10
336.3147890418697
20
318.5276031105656
30
3.902703288787279e-05
 70
     32
  0
VERTEX
  8
MY3DLAYER
10
336.5134373201171
20
318.7864865870487
30
3.902347061597311e-05
 70
     32
  0
VERTEX
  8
MY3DLAYER
10
336.6383128482478
20
319.0879627806707
30
3.9019639612547504e-05
 70
     32
  0
VERTEX
  8
MY3DLAYER
10
336.68090556538647
20
319.4114865870488
30
3.901580084857414e-05
 70
     32
  0
VERTEX
  8
MY3DLAYER
10
336.6383128482478
20
319.73501039342693
30
3.901221583646475e-05
 70
     32
  0
VERTEX
  8
MY3DLAYER
10
336.5134373201171
20
320.0364865870487
30
3.900912912371268e-05
 70
     32
  0
VERTEX
  8
MY3DLAYER
10
336.3147890418697
20
320.295370063532
30
3.900675096701889e-05
 70
     32
  0
VERTEX
  8
MY3DLAYER
10
336.0559055653865
20
320.4940183417794
30
3.9005243435497045e-05
 70
     32
  0
VERTEX
  8
MY3DLAYER
10
335.7544293717646
20
320.6188938699101
30
3.900470922104659e-05
 70
     32
  0
VERTEX
  8
MY3DLAYER
10
335.43090556538647
20
320.6614865870488
30
3.900518478019421e-05
 70
     32
  0
VERTEX
  8
MY3DLAYER
10
335.1073817590084
20
320.6188938699101
30
3.9006637626926016e-05
 70
     32
  0
SEQEND
  0
POLYLINE
 8
Layer0
 66
     1
70
    8
 10
0.0
 20
 0.0
 30
0.0
  0
VERTEX
  8
MY3DLAYER
10
347.19185281222803
20
320.6188938699101
30
3.900470525053379e-05
 70
     32
  0
VERTEX
  8
MY3DLAYER
10
346.8683290058499
20
320.6614865870488
30
3.9005180809681406e-05
 70
     32
  0
VERTEX
  8
MY3DLAYER
10
346.5448051994718
20
320.6188938699101
30
3.9006633656413214e-05
 70
     32
  0
VERTEX
  8
MY3DLAYER
10
346.24332900584994
20
320.4940183417794
30
3.9008964888864733e-05
 70
     32
  0
VERTEX
  8
MY3DLAYER
10
345.9844455293667
20
320.295370063532
30
3.901201568652368e-05
 70
     32
  0
VERTEX
  8
MY3DLAYER
10
345.78579725111933
20
320.03648658704884
30
3.901557795842336e-05
 70
     32
  0
VERTEX
  8
MY3DLAYER
10
345.6609217229886
20
319.73501039342693
30
3.9019408961848964e-05
 70
     32
  0
VERTEX
  8
MY3DLAYER
10
345.6183290058499
20
319.4114865870488
30
3.902324772582233e-05
 70
     32
  0
VERTEX
  8
MY3DLAYER
10
345.6609217229886
20
319.0879627806707
30
3.902683273793173e-05
 70
     32
  0
VERTEX
  8
MY3DLAYER
10
345.78579725111933
20
318.78648658704884
30
3.902991945068379e-05
 70
     32
  0
VERTEX
  8
MY3DLAYER
10
345.9844455293667
20
318.5276031105656
30
3.9032297607377586e-05
 70
     32
  0
VERTEX
  8
MY3DLAYER
10
346.2433290058499
20
318.32895483231823
30
3.903380513889942e-05
 70
     32
  0
VERTEX
  8
MY3DLAYER
10
346.5448051994718
20
318.2040793041875
30
3.903433935334988e-05
 70
     32
  0
VERTEX
  8
MY3DLAYER
10
346.8683290058499
20
318.1614865870488
30
3.903386379420226e-05
 70
     32
  0
VERTEX
  8
MY3DLAYER
10
347.19185281222803
20
318.2040793041875
30
3.903241094747045e-05
 70
     32
  0
VERTEX
  8
MY3DLAYER
10
347.49332900584983
20
318.32895483231823
30
3.9030079715018926e-05
 70
     32
  0
VERTEX
  8
MY3DLAYER
10
347.7522124823331
20
318.5276031105656
30
3.902702891735998e-05
 70
     32
  0
VERTEX
  8
MY3DLAYER
10
347.9508607605805
20
318.7864865870487
30
3.90234666454603e-05
 70
     32
  0
VERTEX
  8
MY3DLAYER
10
348.0757362887112
20
319.0879627806707
30
3.9019635642034695e-05
 70
     32
  0
VERTEX
  8
MY3DLAYER
10
348.1183290058499
20
319.4114865870488
30
3.901579687806133e-05
 70
     32
  0
VERTEX
  8
MY3DLAYER
10
348.0757362887112
20
319.73501039342693
30
3.901221186595194e-05
 70
     32
  0
VERTEX
  8
MY3DLAYER
10
347.9508607605805
20
320.0364865870487
30
3.9009125153199875e-05
 70
     32
  0
VERTEX
  8
MY3DLAYER
10
347.7522124823331
20
320.295370063532
30
3.900674699650608e-05
 70
     32
  0
VERTEX
  8
MY3DLAYER
10
347.49332900584994
20
320.4940183417794
30
3.900523946498424e-05
 70
     32
  0
VERTEX
  8
MY3DLAYER
10
347.19185281222803
20
320.6188938699101
30
3.900470525053379e-05
 70
     32
  0
SEQEND
  0
POLYLINE
 8
Layer0
 66
     1
70
    8
 10
0.0
 20
 0.0
 30
0.0
  0
VERTEX
  8
MY3DLAYER
10
335.60817445140043
20
46.04949783558523
30
3.974188726232341e-05
 70
     32
  0
VERTEX
  8
MY3DLAYER
10
335.3066982577786
20
45.92462230745444
30
3.974421849477494e-05
 70
     32
  0
VERTEX
  8
MY3DLAYER
10
335.04781478129536
20
45.725974029207066
30
3.974726929243388e-05
 70
     32
  0
VERTEX
  8
MY3DLAYER
10
334.84916650304797
20
45.4670905527239
30
3.9750831564333564e-05
 70
     32
  0
VERTEX
  8
MY3DLAYER
10
334.7242909749172
20
45.16561435910208
30
3.975466274823702e-05
 70
     32
  0
VERTEX
  8
MY3DLAYER
10
334.6816982577786
20
44.84209055272391
30
3.975850151221038e-05
 70
     32
  0
VERTEX
  8
MY3DLAYER
10
334.7242909749172
20
44.51856674634574
30
3.976208652431978e-05
 70
     32
  0
VERTEX
  8
MY3DLAYER
10
334.84916650304797
20
44.21709055272392
30
3.9765173237071846e-05
 70
     32
  0
VERTEX
  8
MY3DLAYER
10
335.04781478129536
20
43.95820707624076
30
3.976755139376564e-05
 70
     32
  0
VERTEX
  8
MY3DLAYER
10
335.3066982577785
20
43.75955879799338
30
3.976905892528748e-05
 70
     32
  0
VERTEX
  8
MY3DLAYER
10
335.60817445140043
20
43.63468326986259
30
3.976959313973793e-05
 70
     32
  0
VERTEX
  8
MY3DLAYER
10
335.9316982577785
20
43.592090552723924
30
3.9769117580590316e-05
 70
     32
  0
VERTEX
  8
MY3DLAYER
10
336.25522206415667
20
43.63468326986259
30
3.9767664553380655e-05
 70
     32
  0
VERTEX
  8
MY3DLAYER
10
336.55669825777846
20
43.75955879799338
30
3.976533332092913e-05
 70
     32
  0
VERTEX
  8
MY3DLAYER
10
336.81558173426174
20
43.95820707624076
30
3.976228252327018e-05
 70
     32
  0
VERTEX
  8
MY3DLAYER
10
337.01423001250913
20
44.21709055272392
30
3.97587202513705e-05
 70
     32
  0
VERTEX
  8
MY3DLAYER
10
337.1391055406399
20
44.51856674634574
30
3.9754889067467046e-05
 70
     32
  0
VERTEX
  8
MY3DLAYER
10
337.1816982577785
20
44.84209055272391
30
3.975105030349368e-05
 70
     32
  0
VERTEX
  8
MY3DLAYER
10
337.1391055406399
20
45.16561435910208
30
3.974746529138428e-05
 70
     32
  0
VERTEX
  8
MY3DLAYER
10
337.01423001250913
20
45.4670905527239
30
3.974437857863222e-05
 70
     32
  0
VERTEX
  8
MY3DLAYER
10
336.81558173426174
20
45.725974029207066
30
3.9742000421938424e-05
 70
     32
  0
VERTEX
  8
MY3DLAYER
10
336.5566982577786
20
45.92462230745444
30
3.974049289041659e-05
 70
     32
  0
VERTEX
  8
MY3DLAYER
10
336.25522206415667
20
46.04949783558523
30
3.973995867596613e-05
 70
     32
  0
VERTEX
  8
MY3DLAYER
10
335.9316982577785
20
46.092090552723896
30
3.974043423511375e-05
 70
     32
  0
VERTEX
  8
MY3DLAYER
10
335.60817445140043
20
46.04949783558523
30
3.974188726232341e-05
 70
     32
  0
SEQEND
  0
POLYLINE
 8
Layer0
 66
     1
70
    8
 10
0.0
 20
 0.0
 30
0.0
  0
VERTEX
  8
MY3DLAYER
10
346.2865899435115
20
45.46709055272273
30
3.9750827774298614e-05
 70
     32
  0
VERTEX
  8
MY3DLAYER
10
346.16171441538074
20
45.16561435910091
30
3.975465895820207e-05
 70
     32
  0
VERTEX
  8
MY3DLAYER
10
346.11912169824205
20
44.84209055272274
30
3.975849772217543e-05
 70
     32
  0
VERTEX
  8
MY3DLAYER
10
346.16171441538074
20
44.51856674634457
30
3.9762082734284826e-05
 70
     32
  0
VERTEX
  8
MY3DLAYER
10
346.2865899435115
20
44.217090552722745
30
3.9765169447036897e-05
 70
     32
  0
VERTEX
  8
MY3DLAYER
10
346.48523822175883
20
43.95820707623959
30
3.9767547603730685e-05
 70
     32
  0
VERTEX
  8
MY3DLAYER
10
346.744121698242
20
43.759558797992206
30
3.976905513525253e-05
 70
     32
  0
VERTEX
  8
MY3DLAYER
10
347.0455978918639
20
43.63468326986142
30
3.976958934970298e-05
 70
     32
  0
VERTEX
  8
MY3DLAYER
10
347.36912169824205
20
43.59209055272275
30
3.976911397103322e-05
 70
     32
  0
VERTEX
  8
MY3DLAYER
10
347.69264550462015
20
43.63468326986142
30
3.976766094382356e-05
 70
     32
  0
VERTEX
  8
MY3DLAYER
10
347.994121698242
20
43.759558797992206
30
3.976532971137203e-05
 70
     32
  0
VERTEX
  8
MY3DLAYER
10
348.2530051747253
20
43.95820707623959
30
3.9762279094190944e-05
 70
     32
  0
VERTEX
  8
MY3DLAYER
10
348.4516534529726
20
44.217090552722745
30
3.975871682229126e-05
 70
     32
  0
VERTEX
  8
MY3DLAYER
10
348.57652898110337
20
44.51856674634457
30
3.97548856383878e-05
 70
     32
  0
VERTEX
  8
MY3DLAYER
10
348.61912169824205
20
44.84209055272274
30
3.975104687441444e-05
 70
     32
  0
VERTEX
  8
MY3DLAYER
10
348.57652898110337
20
45.16561435910091
30
3.9747461862305045e-05
 70
     32
  0
VERTEX
  8
MY3DLAYER
10
348.4516534529726
20
45.46709055272273
30
3.9744375149552974e-05
 70
     32
  0
VERTEX
  8
MY3DLAYER
10
348.2530051747253
20
45.725974029205894
30
3.9741996992859185e-05
 70
     32
  0
VERTEX
  8
MY3DLAYER
10
347.9941216982421
20
45.92462230745327
30
3.974048946133734e-05
 70
     32
  0
VERTEX
  8
MY3DLAYER
10
347.69264550462015
20
46.049497835584056
30
3.973995524688689e-05
 70
     32
  0
VERTEX
  8
MY3DLAYER
10
347.36912169824205
20
46.09209055272272
30
3.974043062555665e-05
 70
     32
  0
VERTEX
  8
MY3DLAYER
10
347.0455978918639
20
46.049497835584056
30
3.9741883652766313e-05
 70
     32
  0
VERTEX
  8
MY3DLAYER
10
346.7441216982421
20
45.92462230745327
30
3.974421488521784e-05
 70
     32
  0
VERTEX
  8
MY3DLAYER
10
346.48523822175883
20
45.725974029205894
30
3.9747265502398926e-05
 70
     32
  0
VERTEX
  8
MY3DLAYER
10
346.2865899435115
20
45.46709055272273
30
3.9750827774298614e-05
 70
     32
  0
SEQEND
  0
POLYLINE
 8
Layer0
 66
     1
70
    8
 10
0.0
 20
 0.0
 30
0.0
  0
VERTEX
  8
MY3DLAYER
10
266.3946896128833
20
45.37196451405254
30
3.99922201538061e-05
 70
     32
  0
VERTEX
  8
MY3DLAYER
10
266.07116580650523
20
45.41455723119121
30
3.9991056071642105e-05
 70
     32
  0
VERTEX
  8
MY3DLAYER
10
265.7476420001271
20
45.37196451405254
30
3.998749939455592e-05
 70
     32
  0
VERTEX
  8
MY3DLAYER
10
265.4461658065052
20
45.247088985921756
30
3.998179268478452e-05
 70
     32
  0
VERTEX
  8
MY3DLAYER
10
265.187282330022
20
45.048440707674374
30
3.997432469162731e-05
 70
     32
  0
VERTEX
  8
MY3DLAYER
10
264.9886340517746
20
44.78955723119122
30
3.996560436263507e-05
 70
     32
  0
VERTEX
  8
MY3DLAYER
10
264.8637585236439
20
44.488081037569394
30
3.9956226191861785e-05
 70
     32
  0
VERTEX
  8
MY3DLAYER
10
264.82116580650523
20
44.164557231191225
30
3.9946828890435876e-05
 70
     32
  0
VERTEX
  8
MY3DLAYER
10
264.8637585236439
20
43.841033424813055
30
3.993805315474219e-05
 70
     32
  0
VERTEX
  8
MY3DLAYER
10
264.9886340517746
20
43.53955723119123
30
3.9930496907913944e-05
 70
     32
  0
VERTEX
  8
MY3DLAYER
10
265.187282330022
20
43.28067375470807
30
3.992467523374898e-05
 70
     32
  0
VERTEX
  8
MY3DLAYER
10
265.4461658065053
20
43.08202547646069
30
3.992098482257233e-05
 70
     32
  0
VERTEX
  8
MY3DLAYER
10
265.7476420001271
20
42.957149948329906
30
3.991967708003585e-05
 70
     32
  0
VERTEX
  8
MY3DLAYER
10
266.07116580650523
20
42.91455723119124
30
3.992084116219985e-05
 70
     32
  0
VERTEX
  8
MY3DLAYER
10
266.3946896128833
20
42.957149948329906
30
3.992439783928603e-05
 70
     32
  0
VERTEX
  8
MY3DLAYER
10
266.69616580650523
20
43.08202547646069
30
3.993010454905743e-05
 70
     32
  0
VERTEX
  8
MY3DLAYER
10
266.9550492829884
20
43.28067375470807
30
3.9937572542214635e-05
 70
     32
  0
VERTEX
  8
MY3DLAYER
10
267.1536975612358
20
43.53955723119123
30
3.994629287120687e-05
 70
     32
  0
VERTEX
  8
MY3DLAYER
10
267.27857308936655
20
43.841033424813055
30
3.995567104198017e-05
 70
     32
  0
VERTEX
  8
MY3DLAYER
10
267.3211658065052
20
44.164557231191225
30
3.996506834340607e-05
 70
     32
  0
VERTEX
  8
MY3DLAYER
10
267.27857308936655
20
44.488081037569394
30
3.997384407909976e-05
 70
     32
  0
VERTEX
  8
MY3DLAYER
10
267.1536975612358
20
44.78955723119122
30
3.9981400325928e-05
 70
     32
  0
VERTEX
  8
MY3DLAYER
10
266.9550492829884
20
45.048440707674374
30
3.9987222000092966e-05
 70
     32
  0
VERTEX
  8
MY3DLAYER
10
266.6961658065052
20
45.247088985921756
30
3.9990912411269614e-05
 70
     32
  0
VERTEX
  8
MY3DLAYER
10
266.3946896128833
20
45.37196451405254
30
3.99922201538061e-05
 70
     32
  0
SEQEND
  0
POLYLINE
 8
Layer0
 66
     1
70
    8
 10
0.0
 20
 0.0
 30
0.0
  0
VERTEX
  8
MY3DLAYER
10
242.9872823300219
20
45.04844070767424
30
4.013194177758805e-05
 70
     32
  0
VERTEX
  8
MY3DLAYER
10
242.78863405177455
20
44.78955723119108
30
4.012322144859581e-05
 70
     32
  0
VERTEX
  8
MY3DLAYER
10
242.6637585236438
20
44.48808103756926
30
4.0113843277822524e-05
 70
     32
  0
VERTEX
  8
MY3DLAYER
10
242.62116580650513
20
44.16455723119109
30
4.0104445976396615e-05
 70
     32
  0
VERTEX
  8
MY3DLAYER
10
242.6637585236438
20
43.84103342481292
30
4.0095670240702926e-05
 70
     32
  0
VERTEX
  8
MY3DLAYER
10
242.78863405177455
20
43.5395572311911
30
4.008811399387468e-05
 70
     32
  0
VERTEX
  8
MY3DLAYER
10
242.9872823300219
20
43.280673754707934
30
4.008229231970972e-05
 70
     32
  0
VERTEX
  8
MY3DLAYER
10
243.2461658065052
20
43.08202547646056
30
4.007860190853307e-05
 70
     32
  0
VERTEX
  8
MY3DLAYER
10
243.547642000127
20
42.95714994832977
30
4.007729416599659e-05
 70
     32
  0
VERTEX
  8
MY3DLAYER
10
243.87116580650513
20
42.914557231191104
30
4.007845824816059e-05
 70
     32
  0
VERTEX
  8
MY3DLAYER
10
244.19468961288325
20
42.95714994832977
30
4.008201492524676e-05
 70
     32
  0
VERTEX
  8
MY3DLAYER
10
244.49616580650516
20
43.08202547646056
30
4.0087721635018164e-05
 70
     32
  0
VERTEX
  8
MY3DLAYER
10
244.75504928298832
20
43.280673754707934
30
4.0095189628175373e-05
 70
     32
  0
VERTEX
  8
MY3DLAYER
10
244.95369756123569
20
43.5395572311911
30
4.010390995716761e-05
 70
     32
  0
VERTEX
  8
MY3DLAYER
10
245.07857308936644
20
43.84103342481292
30
4.01132881279409e-05
 70
     32
  0
VERTEX
  8
MY3DLAYER
10
245.1211658065051
20
44.16455723119109
30
4.012268542936681e-05
 70
     32
  0
VERTEX
  8
MY3DLAYER
10
245.07857308936644
20
44.48808103756926
30
4.01314611650605e-05
 70
     32
  0
VERTEX
  8
MY3DLAYER
10
244.95369756123569
20
44.78955723119108
30
4.013901741188874e-05
 70
     32
  0
VERTEX
  8
MY3DLAYER
10
244.75504928298832
20
45.04844070767424
30
4.0144839086053705e-05
 70
     32
  0
VERTEX
  8
MY3DLAYER
10
244.49616580650508
20
45.24708898592162
30
4.014852949723035e-05
 70
     32
  0
VERTEX
  8
MY3DLAYER
10
244.19468961288325
20
45.37196451405241
30
4.014983723976684e-05
 70
     32
  0
VERTEX
  8
MY3DLAYER
10
243.87116580650513
20
45.414557231191075
30
4.014867315760284e-05
 70
     32
  0
VERTEX
  8
MY3DLAYER
10
243.547642000127
20
45.37196451405241
30
4.014511648051666e-05
 70
     32
  0
VERTEX
  8
MY3DLAYER
10
243.24616580650508
20
45.24708898592162
30
4.013940977074526e-05
 70
     32
  0
VERTEX
  8
MY3DLAYER
10
242.9872823300219
20
45.04844070767424
30
4.013194177758805e-05
 70
     32
  0
SEQEND
  0
POLYLINE
 8
Layer0
 66
     1
70
    8
 10
0.0
 20
 0.0
 30
0.0
  0
VERTEX
  8
MY3DLAYER
10
136.95504843808766
20
43.280673754708026
30
4.083756398784999e-05
 70
     32
  0
VERTEX
  8
MY3DLAYER
10
137.15369671633505
20
43.53955723119118
30
4.084628431684223e-05
 70
     32
  0
VERTEX
  8
MY3DLAYER
10
137.27857224446583
20
43.84103342481301
30
4.085566266809337e-05
 70
     32
  0
VERTEX
  8
MY3DLAYER
10
137.3211649616045
20
44.16455723119118
30
4.086505978904142e-05
 70
     32
  0
VERTEX
  8
MY3DLAYER
10
137.27857224446583
20
44.488081037569344
30
4.0873835705212965e-05
 70
     32
  0
VERTEX
  8
MY3DLAYER
10
137.15369671633505
20
44.789557231191175
30
4.088139195204121e-05
 70
     32
  0
VERTEX
  8
MY3DLAYER
10
136.95504843808766
20
45.04844070767433
30
4.088721344572832e-05
 70
     32
  0
VERTEX
  8
MY3DLAYER
10
136.6961649616045
20
45.24708898592171
30
4.089090385690497e-05
 70
     32
  0
VERTEX
  8
MY3DLAYER
10
136.39468876798267
20
45.3719645140525
30
4.089221159944145e-05
 70
     32
  0
VERTEX
  8
MY3DLAYER
10
136.07116496160452
20
45.41455723119117
30
4.089104751727745e-05
 70
     32
  0
VERTEX
  8
MY3DLAYER
10
135.74764115522635
20
45.3719645140525
30
4.088749102066913e-05
 70
     32
  0
VERTEX
  8
MY3DLAYER
10
135.44616496160452
20
45.24708898592171
30
4.0881784310897726e-05
 70
     32
  0
VERTEX
  8
MY3DLAYER
10
135.1872814851213
20
45.04844070767433
30
4.0874316137262665e-05
 70
     32
  0
VERTEX
  8
MY3DLAYER
10
134.98863320687397
20
44.789557231191175
30
4.0865595808270426e-05
 70
     32
  0
VERTEX
  8
MY3DLAYER
10
134.86375767874318
20
44.488081037569344
30
4.085621781797499e-05
 70
     32
  0
VERTEX
  8
MY3DLAYER
10
134.82116496160452
20
44.16455723119118
30
4.084682033607123e-05
 70
     32
  0
VERTEX
  8
MY3DLAYER
10
134.86375767874318
20
43.84103342481301
30
4.083804478085539e-05
 70
     32
  0
VERTEX
  8
MY3DLAYER
10
134.98863320687397
20
43.53955723119118
30
4.083048853402715e-05
 70
     32
  0
VERTEX
  8
MY3DLAYER
10
135.18728148512136
20
43.280673754708026
30
4.082466667938433e-05
 70
     32
  0
VERTEX
  8
MY3DLAYER
10
135.44616496160452
20
43.08202547646065
30
4.0820976268207686e-05
 70
     32
  0
VERTEX
  8
MY3DLAYER
10
135.74764115522635
20
42.95714994832986
30
4.08196685256712e-05
 70
     32
  0
VERTEX
  8
MY3DLAYER
10
136.07116496160452
20
42.91455723119119
30
4.0820832607835195e-05
 70
     32
  0
VERTEX
  8
MY3DLAYER
10
136.39468876798267
20
42.95714994832986
30
4.0824389465399236e-05
 70
     32
  0
VERTEX
  8
MY3DLAYER
10
136.6961649616045
20
43.08202547646065
30
4.083009617517064e-05
 70
     32
  0
VERTEX
  8
MY3DLAYER
10
136.95504843808766
20
43.280673754708026
30
4.083756398784999e-05
 70
     32
  0
SEQEND
  0
POLYLINE
 8
Layer0
 66
     1
70
    8
 10
0.0
 20
 0.0
 30
0.0
  0
VERTEX
  8
MY3DLAYER
10
114.75504843808771
20
43.28067375470798
30
4.0984925419707e-05
 70
     32
  0
VERTEX
  8
MY3DLAYER
10
114.95369671633509
20
43.53955723119114
30
4.0993645748699235e-05
 70
     32
  0
VERTEX
  8
MY3DLAYER
10
115.07857224446587
20
43.84103342481296
30
4.100302391947252e-05
 70
     32
  0
VERTEX
  8
MY3DLAYER
10
115.12116496160453
20
44.16455723119113
30
4.101242122089843e-05
 70
     32
  0
VERTEX
  8
MY3DLAYER
10
115.07857224446587
20
44.4880810375693
30
4.102119695659212e-05
 70
     32
  0
VERTEX
  8
MY3DLAYER
10
114.95369671633509
20
44.789557231191125
30
4.1028753203420364e-05
 70
     32
  0
VERTEX
  8
MY3DLAYER
10
114.75504843808771
20
45.04844070767429
30
4.103457487758533e-05
 70
     32
  0
VERTEX
  8
MY3DLAYER
10
114.49616496160455
20
45.247088985921664
30
4.1038265288761976e-05
 70
     32
  0
VERTEX
  8
MY3DLAYER
10
114.19468876798273
20
45.37196451405245
30
4.1039573031298456e-05
 70
     32
  0
VERTEX
  8
MY3DLAYER
10
113.87116496160455
20
45.41455723119112
30
4.103840894913446e-05
 70
     32
  0
VERTEX
  8
MY3DLAYER
10
113.54764115522639
20
45.37196451405245
30
4.103485227204828e-05
 70
     32
  0
VERTEX
  8
MY3DLAYER
10
113.24616496160456
20
45.247088985921664
30
4.1029145562276875e-05
 70
     32
  0
VERTEX
  8
MY3DLAYER
10
112.98728148512136
20
45.04844070767429
30
4.102167756911967e-05
 70
     32
  0
VERTEX
  8
MY3DLAYER
10
112.78863320687402
20
44.789557231191125
30
4.1012957240127434e-05
 70
     32
  0
VERTEX
  8
MY3DLAYER
10
112.66375767874324
20
44.4880810375693
30
4.100357906935414e-05
 70
     32
  0
VERTEX
  8
MY3DLAYER
10
112.62116496160456
20
44.16455723119113
30
4.099418176792824e-05
 70
     32
  0
VERTEX
  8
MY3DLAYER
10
112.66375767874324
20
43.84103342481296
30
4.098540603223455e-05
 70
     32
  0
VERTEX
  8
MY3DLAYER
10
112.78863320687402
20
43.53955723119114
30
4.0977849785406306e-05
 70
     32
  0
VERTEX
  8
MY3DLAYER
10
112.9872814851214
20
43.28067375470798
30
4.097202811124134e-05
 70
     32
  0
VERTEX
  8
MY3DLAYER
10
113.24616496160456
20
43.0820254764606
30
4.0968337700064694e-05
 70
     32
  0
VERTEX
  8
MY3DLAYER
10
113.54764115522639
20
42.957149948329814
30
4.096702995752821e-05
 70
     32
  0
VERTEX
  8
MY3DLAYER
10
113.87116496160455
20
42.91455723119115
30
4.09681940396922e-05
 70
     32
  0
VERTEX
  8
MY3DLAYER
10
114.19468876798273
20
42.957149948329814
30
4.0971750716778385e-05
 70
     32
  0
VERTEX
  8
MY3DLAYER
10
114.49616496160455
20
43.0820254764606
30
4.097745742654979e-05
 70
     32
  0
VERTEX
  8
MY3DLAYER
10
114.75504843808771
20
43.28067375470798
30
4.0984925419707e-05
 70
     32
  0
SEQEND
  0
POLYLINE
 8
Layer0
 66
     1
70
    8
 10
0.0
 20
 0.0
 30
0.0
  0
VERTEX
  8
MY3DLAYER
10
124.97116496160442
20
39.114557231191064
30
4.079283796585287e-05
 70
     32
  0
VERTEX
  8
MY3DLAYER
10
126.27820113937213
20
39.28663180843128
30
4.080720652979152e-05
 70
     32
  0
VERTEX
  8
MY3DLAYER
10
127.49616496160444
20
39.791128942079645
30
4.083026185384142e-05
 70
     32
  0
VERTEX
  8
MY3DLAYER
10
128.54205420659648
20
40.59366798619899
30
4.086043233684222e-05
 70
     32
  0
VERTEX
  8
MY3DLAYER
10
129.34459325071583
20
41.63955723119108
30
4.089566233602681e-05
 70
     32
  0
VERTEX
  8
MY3DLAYER
10
129.8490903843642
20
42.85752105342333
30
4.0933550774013836e-05
 70
     32
  0
VERTEX
  8
MY3DLAYER
10
130.0211649616044
20
44.16455723119104
30
4.0971515373655615e-05
 70
     32
  0
VERTEX
  8
MY3DLAYER
10
129.8490903843642
20
45.471593408958746
30
4.100696952633598e-05
 70
     32
  0
VERTEX
  8
MY3DLAYER
10
129.34459325071583
20
46.68955723119105
30
4.1037496272622315e-05
 70
     32
  0
VERTEX
  8
MY3DLAYER
10
128.54205420659648
20
47.7354464761831
30
4.1061016146670676e-05
 70
     32
  0
VERTEX
  8
MY3DLAYER
10
127.49616496160439
20
48.53798552030244
30
4.1075925422262566e-05
 70
     32
  0
VERTEX
  8
MY3DLAYER
10
126.27820113937213
20
49.042482653950806
30
4.1081208730986416e-05
 70
     32
  0
VERTEX
  8
MY3DLAYER
10
124.97116496160442
20
49.21455723119102
30
4.1076505839043874e-05
 70
     32
  0
VERTEX
  8
MY3DLAYER
10
123.66412878383672
20
49.042482653950806
30
4.10621369141495e-05
 70
     32
  0
VERTEX
  8
MY3DLAYER
10
122.44616496160441
20
48.53798552030244
30
4.103908195105532e-05
 70
     32
  0
VERTEX
  8
MY3DLAYER
10
121.40027571661237
20
47.7354464761831
30
4.100891110709881e-05
 70
     32
  0
VERTEX
  8
MY3DLAYER
10
120.59773667249303
20
46.68955723119101
30
4.097368110791421e-05
 70
     32
  0
VERTEX
  8
MY3DLAYER
10
120.09323953884466
20
45.471593408958746
30
4.0935793030882905e-05
 70
     32
  0
VERTEX
  8
MY3DLAYER
10
119.92116496160445
20
44.16455723119104
30
4.089782807028541e-05
 70
     32
  0
VERTEX
  8
MY3DLAYER
10
120.09323953884466
20
42.85752105342333
30
4.086237427856076e-05
 70
     32
  0
VERTEX
  8
MY3DLAYER
10
120.59773667249303
20
41.639557231191034
30
4.083184717131871e-05
 70
     32
  0
VERTEX
  8
MY3DLAYER
10
121.40027571661237
20
40.59366798619899
30
4.080832765822606e-05
 70
     32
  0
VERTEX
  8
MY3DLAYER
10
122.44616496160445
20
39.791128942079645
30
4.079341802167846e-05
 70
     32
  0
VERTEX
  8
MY3DLAYER
10
123.66412878383672
20
39.28663180843128
30
4.0788134712954614e-05
 70
     32
  0
VERTEX
  8
MY3DLAYER
10
124.97116496160442
20
39.114557231191064
30
4.079283796585287e-05
 70
     32
  0
SEQEND
  0
POLYLINE
 8
Layer0
 66
     1
70
    8
 10
0.0
 20
 0.0
 30
0.0
  0
VERTEX
  8
MY3DLAYER
10
258.5420550514972
20
40.59366798619894
30
3.9960233702629464e-05
 70
     32
  0
VERTEX
  8
MY3DLAYER
10
259.3445940956165
20
41.639557231191034
30
3.999546370181406e-05
 70
     32
  0
VERTEX
  8
MY3DLAYER
10
259.84909122926496
20
42.85752105342329
30
4.0033351959323225e-05
 70
     32
  0
VERTEX
  8
MY3DLAYER
10
260.02116580650517
20
44.16455723119104
30
4.0071316739442864e-05
 70
     32
  0
VERTEX
  8
MY3DLAYER
10
259.84909122926496
20
45.471593408958796
30
4.010677071164537e-05
 70
     32
  0
VERTEX
  8
MY3DLAYER
10
259.3445940956165
20
46.68955723119105
30
4.0137297638409564e-05
 70
     32
  0
VERTEX
  8
MY3DLAYER
10
258.5420550514972
20
47.73544647618315
30
4.0160817331980066e-05
 70
     32
  0
VERTEX
  8
MY3DLAYER
10
257.4961658065051
20
48.537985520302485
30
4.0175726788049815e-05
 70
     32
  0
VERTEX
  8
MY3DLAYER
10
256.27820198427287
20
49.042482653950856
30
4.018101009677366e-05
 70
     32
  0
VERTEX
  8
MY3DLAYER
10
254.97116580650513
20
49.214557231191066
30
4.0176307024353264e-05
 70
     32
  0
VERTEX
  8
MY3DLAYER
10
253.66412962873738
20
49.042482653950856
30
4.016193827993675e-05
 70
     32
  0
VERTEX
  8
MY3DLAYER
10
252.44616580650506
20
48.537985520302485
30
4.013888313636471e-05
 70
     32
  0
VERTEX
  8
MY3DLAYER
10
251.40027656151307
20
47.7354464761831
30
4.010871247288605e-05
 70
     32
  0
VERTEX
  8
MY3DLAYER
10
250.59773751739374
20
46.68955723119105
30
4.007348247370146e-05
 70
     32
  0
VERTEX
  8
MY3DLAYER
10
250.09324038374533
20
45.471593408958796
30
4.003559421619229e-05
 70
     32
  0
VERTEX
  8
MY3DLAYER
10
249.9211658065051
20
44.16455723119104
30
3.999762943607266e-05
 70
     32
  0
VERTEX
  8
MY3DLAYER
10
250.09324038374533
20
42.85752105342329
30
3.996217546387015e-05
 70
     32
  0
VERTEX
  8
MY3DLAYER
10
250.59773751739374
20
41.639557231191034
30
3.993164853710596e-05
 70
     32
  0
VERTEX
  8
MY3DLAYER
10
251.40027656151307
20
40.59366798619894
30
3.990812884353545e-05
 70
     32
  0
VERTEX
  8
MY3DLAYER
10
252.44616580650515
20
39.7911289420796
30
3.9893219387465706e-05
 70
     32
  0
VERTEX
  8
MY3DLAYER
10
253.66412962873738
20
39.28663180843123
30
3.9887936078741856e-05
 70
     32
  0
VERTEX
  8
MY3DLAYER
10
254.97116580650513
20
39.11455723119102
30
3.989263915116226e-05
 70
     32
  0
VERTEX
  8
MY3DLAYER
10
256.27820198427287
20
39.28663180843123
30
3.990700789557877e-05
 70
     32
  0
VERTEX
  8
MY3DLAYER
10
257.4961658065052
20
39.7911289420796
30
3.993006303915081e-05
 70
     32
  0
VERTEX
  8
MY3DLAYER
10
258.5420550514972
20
40.59366798619894
30
3.9960233702629464e-05
 70
     32
  0
SEQEND
  0
POLYLINE
 8
Layer0
 66
     1
70
    8
 10
0.0
 20
 0.0
 30
0.0
  0
VERTEX
  8
MY3DLAYER
10
84.7497325646833
20
354.7149594328185
30
1.6024823290194944e-05
 70
     32
  0
VERTEX
  8
MY3DLAYER
10
84.41841159828329
20
354.4606246404213
30
1.6024823290194944e-05
 70
     32
  0
VERTEX
  8
MY3DLAYER
10
84.16420680815104
20
354.12920391977485
30
1.6024823290194944e-05
 70
     32
  0
VERTEX
  8
MY3DLAYER
10
84.00444183064084
20
353.7432830452927
30
1.6024823290194944e-05
 70
     32
  0
VERTEX
  8
MY3DLAYER
10
83.95000438494586
20
353.32916188680616
30
1.6024823290194944e-05
 70
     32
  0
VERTEX
  8
MY3DLAYER
10
84.00460429302808
20
352.91506211689875
30
1.6024823290194944e-05
 70
     32
  0
VERTEX
  8
MY3DLAYER
10
84.1645206613823
20
352.52920395055725
30
1.6024823290194944e-05
 70
     32
  0
VERTEX
  8
MY3DLAYER
10
84.41885545377954
20
352.1978829841572
30
1.6024823290194944e-05
 70
     32
  0
VERTEX
  8
MY3DLAYER
10
84.75027617442596
20
351.943678194025
30
1.6024823290194944e-05
 70
     32
  0
VERTEX
  8
MY3DLAYER
10
85.13619704890822
20
351.78391321651486
30
1.6024823290194944e-05
 70
     32
  0
VERTEX
  8
MY3DLAYER
10
85.55031820739468
20
351.7294757708198
30
1.6024823290194944e-05
 70
     32
  0
VERTEX
  8
MY3DLAYER
10
85.96441797730212
20
351.78407567890207
30
1.6024823290194944e-05
 70
     32
  0
VERTEX
  8
MY3DLAYER
10
86.35027614364353
20
351.94399204725636
30
1.6024823290194944e-05
 70
     32
  0
VERTEX
  8
MY3DLAYER
10
86.68159711004355
20
352.19832683965353
30
1.6024823290194944e-05
 70
     32
  0
VERTEX
  8
MY3DLAYER
10
86.93580190017579
20
352.5297475603
30
1.6024823290194944e-05
 70
     32
  0
VERTEX
  8
MY3DLAYER
10
87.095566877686
20
352.91566843478216
30
1.6024823290194944e-05
 70
     32
  0
VERTEX
  8
MY3DLAYER
10
87.15000432338097
20
353.3297895932687
30
1.6024823290194944e-05
 70
     32
  0
VERTEX
  8
MY3DLAYER
10
87.09540441529874
20
353.7438893631761
30
1.6024823290194944e-05
 70
     32
  0
VERTEX
  8
MY3DLAYER
10
86.93548804694453
20
354.1297475295176
30
1.6024823290194944e-05
 70
     32
  0
VERTEX
  8
MY3DLAYER
10
86.6811532545473
20
354.4610684959176
30
1.6024823290194944e-05
 70
     32
  0
VERTEX
  8
MY3DLAYER
10
86.34973253390086
20
354.71527328604986
30
1.6024823290194944e-05
 70
     32
  0
VERTEX
  8
MY3DLAYER
10
85.96381165941861
20
354.87503826355993
30
1.6024823290194944e-05
 70
     32
  0
VERTEX
  8
MY3DLAYER
10
85.54969050093214
20
354.92947570925503
30
1.6024823290194944e-05
 70
     32
  0
VERTEX
  8
MY3DLAYER
10
85.1355907310247
20
354.8748758011728
30
1.6024823290194944e-05
 70
     32
  0
VERTEX
  8
MY3DLAYER
10
84.7497325646833
20
354.7149594328185
30
1.6024823290194944e-05
 70
     32
  0
SEQEND
  0
POLYLINE
 8
Layer0
 66
     1
70
    8
 10
0.0
 20
 0.0
 30
0.0
  0
VERTEX
  8
MY3DLAYER
10
84.7497325646833
20
11.5204880550421
30
3.204963087881651e-05
 70
     32
  0
VERTEX
  8
MY3DLAYER
10
84.41841159828329
20
11.266153262644861
30
3.204963087881651e-05
 70
     32
  0
VERTEX
  8
MY3DLAYER
10
84.16420680815104
20
10.934732541998432
30
3.204963087881651e-05
 70
     32
  0
VERTEX
  8
MY3DLAYER
10
84.00444183064084
20
10.548811667516182
30
3.204963087881651e-05
 70
     32
  0
VERTEX
  8
MY3DLAYER
10
83.95000438494586
20
10.134690509029719
30
3.204963087881651e-05
 70
     32
  0
VERTEX
  8
MY3DLAYER
10
84.00460429302808
20
9.720590739122281
30
3.204963087881651e-05
 70
     32
  0
VERTEX
  8
MY3DLAYER
10
84.1645206613823
20
9.334732572780874
30
3.204963087881651e-05
 70
     32
  0
VERTEX
  8
MY3DLAYER
10
84.41885545377954
20
9.003411606380851
30
3.204963087881651e-05
 70
     32
  0
VERTEX
  8
MY3DLAYER
10
84.75027617442596
20
8.749206816248607
30
3.204963087881651e-05
 70
     32
  0
VERTEX
  8
MY3DLAYER
10
85.13619704890822
20
8.589441838738406
30
3.204963087881651e-05
 70
     32
  0
VERTEX
  8
MY3DLAYER
10
85.55031820739468
20
8.535004393043428
30
3.204963087881651e-05
 70
     32
  0
VERTEX
  8
MY3DLAYER
10
85.96441797730212
20
8.589604301125656
30
3.204963087881651e-05
 70
     32
  0
VERTEX
  8
MY3DLAYER
10
86.35027614364353
20
8.749520669479875
30
3.204963087881651e-05
 70
     32
  0
VERTEX
  8
MY3DLAYER
10
86.68159711004355
20
9.00385546187711
30
3.204963087881651e-05
 70
     32
  0
VERTEX
  8
MY3DLAYER
10
86.93580190017579
20
9.33527618252354
30
3.204963087881651e-05
 70
     32
  0
VERTEX
  8
MY3DLAYER
10
87.095566877686
20
9.72119705700579
30
3.204963087881651e-05
 70
     32
  0
VERTEX
  8
MY3DLAYER
10
87.15000432338097
20
10.135318215492253
30
3.204963087881651e-05
 70
     32
  0
VERTEX
  8
MY3DLAYER
10
87.09540441529874
20
10.54941798539969
30
3.204963087881651e-05
 70
     32
  0
VERTEX
  8
MY3DLAYER
10
86.93548804694453
20
10.935276151741098
30
3.204963087881651e-05
 70
     32
  0
VERTEX
  8
MY3DLAYER
10
86.6811532545473
20
11.266597118141123
30
3.204963087881651e-05
 70
     32
  0
VERTEX
  8
MY3DLAYER
10
86.34973253390086
20
11.520801908273365
30
3.204963087881651e-05
 70
     32
  0
VERTEX
  8
MY3DLAYER
10
85.96381165941861
20
11.680566885783566
30
3.204963087881651e-05
 70
     32
  0
VERTEX
  8
MY3DLAYER
10
85.54969050093214
20
11.735004331478544
30
3.204963087881651e-05
 70
     32
  0
VERTEX
  8
MY3DLAYER
10
85.1355907310247
20
11.680404423396318
30
3.204963087881651e-05
 70
     32
  0
VERTEX
  8
MY3DLAYER
10
84.7497325646833
20
11.5204880550421
30
3.204963087881651e-05
 70
     32
  0
SEQEND
  0
POLYLINE
 8
Layer0
 66
     1
70
    8
 10
0.0
 20
 0.0
 30
0.0
  0
VERTEX
  8
MY3DLAYER
10
86.34973253390086
20
42.520801908273356
30
3.2049633585984334e-05
 70
     32
  0
VERTEX
  8
MY3DLAYER
10
85.96381165941861
20
42.680566885783556
30
3.2049633585984334e-05
 70
     32
  0
VERTEX
  8
MY3DLAYER
10
85.54969050093214
20
42.735004331478535
30
3.2049633585984334e-05
 70
     32
  0
VERTEX
  8
MY3DLAYER
10
85.1355907310247
20
42.680404423396304
30
3.2049633585984334e-05
 70
     32
  0
VERTEX
  8
MY3DLAYER
10
84.7497325646833
20
42.52048805504209
30
3.2049633585984334e-05
 70
     32
  0
VERTEX
  8
MY3DLAYER
10
84.41841159828329
20
42.26615326264485
30
3.2049633585984334e-05
 70
     32
  0
VERTEX
  8
MY3DLAYER
10
84.16420680815104
20
41.93473254199842
30
3.2049633585984334e-05
 70
     32
  0
VERTEX
  8
MY3DLAYER
10
84.00444183064084
20
41.54881166751617
30
3.2049633585984334e-05
 70
     32
  0
VERTEX
  8
MY3DLAYER
10
83.95000438494586
20
41.13469050902971
30
3.2049633585984334e-05
 70
     32
  0
VERTEX
  8
MY3DLAYER
10
84.00460429302808
20
40.72059073912227
30
3.2049633585984334e-05
 70
     32
  0
VERTEX
  8
MY3DLAYER
10
84.1645206613823
20
40.334732572780865
30
3.2049633585984334e-05
 70
     32
  0
VERTEX
  8
MY3DLAYER
10
84.41885545377954
20
40.00341160638084
30
3.2049633585984334e-05
 70
     32
  0
VERTEX
  8
MY3DLAYER
10
84.75027617442596
20
39.749206816248595
30
3.2049633585984334e-05
 70
     32
  0
VERTEX
  8
MY3DLAYER
10
85.13619704890822
20
39.589441838738395
30
3.2049633585984334e-05
 70
     32
  0
VERTEX
  8
MY3DLAYER
10
85.55031820739468
20
39.535004393043415
30
3.2049633585984334e-05
 70
     32
  0
VERTEX
  8
MY3DLAYER
10
85.96441797730212
20
39.58960430112564
30
3.2049633585984334e-05
 70
     32
  0
VERTEX
  8
MY3DLAYER
10
86.35027614364353
20
39.749520669479864
30
3.2049633585984334e-05
 70
     32
  0
VERTEX
  8
MY3DLAYER
10
86.68159711004355
20
40.0038554618771
30
3.2049633585984334e-05
 70
     32
  0
VERTEX
  8
MY3DLAYER
10
86.93580190017579
20
40.33527618252353
30
3.2049633585984334e-05
 70
     32
  0
VERTEX
  8
MY3DLAYER
10
87.095566877686
20
40.72119705700578
30
3.2049633585984334e-05
 70
     32
  0
VERTEX
  8
MY3DLAYER
10
87.15000432338097
20
41.13531821549224
30
3.2049633585984334e-05
 70
     32
  0
VERTEX
  8
MY3DLAYER
10
87.09540441529874
20
41.54941798539968
30
3.2049633585984334e-05
 70
     32
  0
VERTEX
  8
MY3DLAYER
10
86.93548804694453
20
41.935276151741085
30
3.2049633585984334e-05
 70
     32
  0
VERTEX
  8
MY3DLAYER
10
86.6811532545473
20
42.266597118141114
30
3.2049633585984334e-05
 70
     32
  0
VERTEX
  8
MY3DLAYER
10
86.34973253390086
20
42.520801908273356
30
3.2049633585984334e-05
 70
     32
  0
SEQEND
  0
POLYLINE
 8
Layer0
 66
     1
70
    8
 10
0.0
 20
 0.0
 30
0.0
  0
VERTEX
  8
MY3DLAYER
10
53.41885545377955
20
40.00341160638084
30
3.204962961547153e-05
 70
     32
  0
VERTEX
  8
MY3DLAYER
10
53.750276174425984
20
39.749206816248595
30
3.204962961547153e-05
 70
     32
  0
VERTEX
  8
MY3DLAYER
10
54.13619704890823
20
39.589441838738395
30
3.204962961547153e-05
 70
     32
  0
VERTEX
  8
MY3DLAYER
10
54.550318207394696
20
39.535004393043415
30
3.204962961547153e-05
 70
     32
  0
VERTEX
  8
MY3DLAYER
10
54.96441797730213
20
39.58960430112564
30
3.204962961547153e-05
 70
     32
  0
VERTEX
  8
MY3DLAYER
10
55.35027614364354
20
39.749520669479864
30
3.204962961547153e-05
 70
     32
  0
VERTEX
  8
MY3DLAYER
10
55.68159711004356
20
40.0038554618771
30
3.204962961547153e-05
 70
     32
  0
VERTEX
  8
MY3DLAYER
10
55.93580190017581
20
40.33527618252353
30
3.204962961547153e-05
 70
     32
  0
VERTEX
  8
MY3DLAYER
10
56.09556687768601
20
40.72119705700578
30
3.204962961547153e-05
 70
     32
  0
VERTEX
  8
MY3DLAYER
10
56.15000432338099
20
41.13531821549224
30
3.204962961547153e-05
 70
     32
  0
VERTEX
  8
MY3DLAYER
10
56.09540441529876
20
41.54941798539968
30
3.204962961547153e-05
 70
     32
  0
VERTEX
  8
MY3DLAYER
10
55.93548804694454
20
41.935276151741085
30
3.204962961547153e-05
 70
     32
  0
VERTEX
  8
MY3DLAYER
10
55.681153254547304
20
42.266597118141114
30
3.204962961547153e-05
 70
     32
  0
VERTEX
  8
MY3DLAYER
10
55.34973253390088
20
42.520801908273356
30
3.204962961547153e-05
 70
     32
  0
VERTEX
  8
MY3DLAYER
10
54.963811659418624
20
42.680566885783556
30
3.204962961547153e-05
 70
     32
  0
VERTEX
  8
MY3DLAYER
10
54.549690500932165
20
42.735004331478535
30
3.204962961547153e-05
 70
     32
  0
VERTEX
  8
MY3DLAYER
10
54.13559073102473
20
42.680404423396304
30
3.204962961547153e-05
 70
     32
  0
VERTEX
  8
MY3DLAYER
10
53.74973256468331
20
42.52048805504209
30
3.204962961547153e-05
 70
     32
  0
VERTEX
  8
MY3DLAYER
10
53.41841159828329
20
42.26615326264485
30
3.204962961547153e-05
 70
     32
  0
VERTEX
  8
MY3DLAYER
10
53.16420680815105
20
41.93473254199842
30
3.204962961547153e-05
 70
     32
  0
VERTEX
  8
MY3DLAYER
10
53.00444183064085
20
41.54881166751617
30
3.204962961547153e-05
 70
     32
  0
VERTEX
  8
MY3DLAYER
10
52.95000438494587
20
41.13469050902971
30
3.204962961547153e-05
 70
     32
  0
VERTEX
  8
MY3DLAYER
10
53.004604293028095
20
40.72059073912227
30
3.204962961547153e-05
 70
     32
  0
VERTEX
  8
MY3DLAYER
10
53.16452066138232
20
40.334732572780865
30
3.204962961547153e-05
 70
     32
  0
VERTEX
  8
MY3DLAYER
10
53.41885545377955
20
40.00341160638084
30
3.204962961547153e-05
 70
     32
  0
SEQEND
  0
POLYLINE
 8
Layer0
 66
     1
70
    8
 10
0.0
 20
 0.0
 30
0.0
  0
VERTEX
  8
MY3DLAYER
10
55.93548804694454
20
10.935276151741098
30
3.204962690830371e-05
 70
     32
  0
VERTEX
  8
MY3DLAYER
10
55.681153254547304
20
11.266597118141123
30
3.204962690830371e-05
 70
     32
  0
VERTEX
  8
MY3DLAYER
10
55.34973253390088
20
11.520801908273365
30
3.204962690830371e-05
 70
     32
  0
VERTEX
  8
MY3DLAYER
10
54.963811659418624
20
11.680566885783566
30
3.204962690830371e-05
 70
     32
  0
VERTEX
  8
MY3DLAYER
10
54.549690500932165
20
11.735004331478544
30
3.204962690830371e-05
 70
     32
  0
VERTEX
  8
MY3DLAYER
10
54.13559073102473
20
11.680404423396318
30
3.204962690830371e-05
 70
     32
  0
VERTEX
  8
MY3DLAYER
10
53.74973256468331
20
11.5204880550421
30
3.204962690830371e-05
 70
     32
  0
VERTEX
  8
MY3DLAYER
10
53.41841159828329
20
11.266153262644861
30
3.204962690830371e-05
 70
     32
  0
VERTEX
  8
MY3DLAYER
10
53.16420680815105
20
10.934732541998432
30
3.204962690830371e-05
 70
     32
  0
VERTEX
  8
MY3DLAYER
10
53.00444183064085
20
10.548811667516182
30
3.204962690830371e-05
 70
     32
  0
VERTEX
  8
MY3DLAYER
10
52.95000438494587
20
10.134690509029719
30
3.204962690830371e-05
 70
     32
  0
VERTEX
  8
MY3DLAYER
10
53.004604293028095
20
9.720590739122281
30
3.204962690830371e-05
 70
     32
  0
VERTEX
  8
MY3DLAYER
10
53.16452066138232
20
9.334732572780874
30
3.204962690830371e-05
 70
     32
  0
VERTEX
  8
MY3DLAYER
10
53.41885545377955
20
9.003411606380851
30
3.204962690830371e-05
 70
     32
  0
VERTEX
  8
MY3DLAYER
10
53.750276174425984
20
8.749206816248607
30
3.204962690830371e-05
 70
     32
  0
VERTEX
  8
MY3DLAYER
10
54.13619704890823
20
8.589441838738406
30
3.204962690830371e-05
 70
     32
  0
VERTEX
  8
MY3DLAYER
10
54.550318207394696
20
8.535004393043428
30
3.204962690830371e-05
 70
     32
  0
VERTEX
  8
MY3DLAYER
10
54.96441797730213
20
8.589604301125656
30
3.204962690830371e-05
 70
     32
  0
VERTEX
  8
MY3DLAYER
10
55.35027614364354
20
8.749520669479875
30
3.204962690830371e-05
 70
     32
  0
VERTEX
  8
MY3DLAYER
10
55.68159711004356
20
9.00385546187711
30
3.204962690830371e-05
 70
     32
  0
VERTEX
  8
MY3DLAYER
10
55.93580190017581
20
9.33527618252354
30
3.204962690830371e-05
 70
     32
  0
VERTEX
  8
MY3DLAYER
10
56.09556687768601
20
9.72119705700579
30
3.204962690830371e-05
 70
     32
  0
VERTEX
  8
MY3DLAYER
10
56.15000432338099
20
10.135318215492253
30
3.204962690830371e-05
 70
     32
  0
VERTEX
  8
MY3DLAYER
10
56.09540441529876
20
10.54941798539969
30
3.204962690830371e-05
 70
     32
  0
VERTEX
  8
MY3DLAYER
10
55.93548804694454
20
10.935276151741098
30
3.204962690830371e-05
 70
     32
  0
SEQEND
  0
POLYLINE
 8
Layer0
 66
     1
70
    8
 10
0.0
 20
 0.0
 30
0.0
  0
VERTEX
  8
MY3DLAYER
10
87.095566877686
20
321.9156684347822
30
1.6024823290194944e-05
 70
     32
  0
VERTEX
  8
MY3DLAYER
10
87.15000432338097
20
322.3297895932687
30
1.6024823290194944e-05
 70
     32
  0
VERTEX
  8
MY3DLAYER
10
87.09540441529874
20
322.7438893631761
30
1.6024823290194944e-05
 70
     32
  0
VERTEX
  8
MY3DLAYER
10
86.93548804694453
20
323.1297475295176
30
1.6024823290194944e-05
 70
     32
  0
VERTEX
  8
MY3DLAYER
10
86.6811532545473
20
323.46106849591763
30
1.6024823290194944e-05
 70
     32
  0
VERTEX
  8
MY3DLAYER
10
86.34973253390086
20
323.71527328604986
30
1.6024823290194944e-05
 70
     32
  0
VERTEX
  8
MY3DLAYER
10
85.96381165941861
20
323.87503826356
30
1.6024823290194944e-05
 70
     32
  0
VERTEX
  8
MY3DLAYER
10
85.54969050093214
20
323.92947570925503
30
1.6024823290194944e-05
 70
     32
  0
VERTEX
  8
MY3DLAYER
10
85.1355907310247
20
323.8748758011728
30
1.6024823290194944e-05
 70
     32
  0
VERTEX
  8
MY3DLAYER
10
84.7497325646833
20
323.7149594328185
30
1.6024823290194944e-05
 70
     32
  0
VERTEX
  8
MY3DLAYER
10
84.41841159828329
20
323.4606246404213
30
1.6024823290194944e-05
 70
     32
  0
VERTEX
  8
MY3DLAYER
10
84.16420680815104
20
323.12920391977485
30
1.6024823290194944e-05
 70
     32
  0
VERTEX
  8
MY3DLAYER
10
84.00444183064084
20
322.7432830452927
30
1.6024823290194944e-05
 70
     32
  0
VERTEX
  8
MY3DLAYER
10
83.95000438494586
20
322.32916188680616
30
1.6024823290194944e-05
 70
     32
  0
VERTEX
  8
MY3DLAYER
10
84.00460429302808
20
321.91506211689875
30
1.6024823290194944e-05
 70
     32
  0
VERTEX
  8
MY3DLAYER
10
84.1645206613823
20
321.5292039505573
30
1.6024823290194944e-05
 70
     32
  0
VERTEX
  8
MY3DLAYER
10
84.41885545377954
20
321.1978829841573
30
1.6024823290194944e-05
 70
     32
  0
VERTEX
  8
MY3DLAYER
10
84.75027617442596
20
320.943678194025
30
1.6024823290194944e-05
 70
     32
  0
VERTEX
  8
MY3DLAYER
10
85.13619704890822
20
320.7839132165149
30
1.6024823290194944e-05
 70
     32
  0
VERTEX
  8
MY3DLAYER
10
85.55031820739468
20
320.7294757708198
30
1.6024823290194944e-05
 70
     32
  0
VERTEX
  8
MY3DLAYER
10
85.96441797730212
20
320.7840756789021
30
1.6024823290194944e-05
 70
     32
  0
VERTEX
  8
MY3DLAYER
10
86.35027614364353
20
320.94399204725636
30
1.6024823290194944e-05
 70
     32
  0
VERTEX
  8
MY3DLAYER
10
86.68159711004355
20
321.19832683965353
30
1.6024823290194944e-05
 70
     32
  0
VERTEX
  8
MY3DLAYER
10
86.93580190017579
20
321.5297475603
30
1.6024823290194944e-05
 70
     32
  0
VERTEX
  8
MY3DLAYER
10
87.095566877686
20
321.9156684347822
30
1.6024823290194944e-05
 70
     32
  0
SEQEND
  0
POLYLINE
 8
Layer0
 66
     1
70
    8
 10
0.0
 20
 0.0
 30
0.0
  0
VERTEX
  8
MY3DLAYER
10
52.95000438494587
20
322.32916188680275
30
1.602482238780567e-05
 70
     32
  0
VERTEX
  8
MY3DLAYER
10
53.004604293028095
20
321.91506211689534
30
1.602482238780567e-05
 70
     32
  0
VERTEX
  8
MY3DLAYER
10
53.16452066138232
20
321.52920395055384
30
1.602482238780567e-05
 70
     32
  0
VERTEX
  8
MY3DLAYER
10
53.41885545377955
20
321.1978829841538
30
1.602482238780567e-05
 70
     32
  0
VERTEX
  8
MY3DLAYER
10
53.750276174425984
20
320.9436781940216
30
1.602482238780567e-05
 70
     32
  0
VERTEX
  8
MY3DLAYER
10
54.13619704890823
20
320.78391321651145
30
1.602482238780567e-05
 70
     32
  0
VERTEX
  8
MY3DLAYER
10
54.550318207394696
20
320.7294757708164
30
1.602482238780567e-05
 70
     32
  0
VERTEX
  8
MY3DLAYER
10
54.96441797730213
20
320.78407567889866
30
1.602482238780567e-05
 70
     32
  0
VERTEX
  8
MY3DLAYER
10
55.35027614364354
20
320.94399204725295
30
1.602482238780567e-05
 70
     32
  0
VERTEX
  8
MY3DLAYER
10
55.68159711004356
20
321.1983268396501
30
1.602482238780567e-05
 70
     32
  0
VERTEX
  8
MY3DLAYER
10
55.93580190017581
20
321.5297475602965
30
1.602482238780567e-05
 70
     32
  0
VERTEX
  8
MY3DLAYER
10
56.09556687768601
20
321.91566843477875
30
1.602482238780567e-05
 70
     32
  0
VERTEX
  8
MY3DLAYER
10
56.15000432338099
20
322.3297895932653
30
1.602482238780567e-05
 70
     32
  0
VERTEX
  8
MY3DLAYER
10
56.09540441529876
20
322.7438893631727
30
1.602482238780567e-05
 70
     32
  0
VERTEX
  8
MY3DLAYER
10
55.93548804694454
20
323.12974752951413
30
1.602482238780567e-05
 70
     32
  0
VERTEX
  8
MY3DLAYER
10
55.681153254547304
20
323.46106849591416
30
1.602482238780567e-05
 70
     32
  0
VERTEX
  8
MY3DLAYER
10
55.34973253390088
20
323.71527328604645
30
1.602482238780567e-05
 70
     32
  0
VERTEX
  8
MY3DLAYER
10
54.963811659418624
20
323.8750382635565
30
1.602482238780567e-05
 70
     32
  0
VERTEX
  8
MY3DLAYER
10
54.549690500932165
20
323.9294757092516
30
1.602482238780567e-05
 70
     32
  0
VERTEX
  8
MY3DLAYER
10
54.13559073102473
20
323.8748758011693
30
1.602482238780567e-05
 70
     32
  0
VERTEX
  8
MY3DLAYER
10
53.74973256468331
20
323.7149594328151
30
1.602482238780567e-05
 70
     32
  0
VERTEX
  8
MY3DLAYER
10
53.41841159828329
20
323.4606246404179
30
1.602482238780567e-05
 70
     32
  0
VERTEX
  8
MY3DLAYER
10
53.16420680815105
20
323.12920391977144
30
1.602482238780567e-05
 70
     32
  0
VERTEX
  8
MY3DLAYER
10
53.00444183064085
20
322.7432830452892
30
1.602482238780567e-05
 70
     32
  0
VERTEX
  8
MY3DLAYER
10
52.95000438494587
20
322.32916188680275
30
1.602482238780567e-05
 70
     32
  0
SEQEND
  0
POLYLINE
 8
Layer0
 66
     1
70
    8
 10
0.0
 20
 0.0
 30
0.0
  0
VERTEX
  8
MY3DLAYER
10
55.34973253390088
20
354.7152732860464
30
2.7071678232459817e-12
 70
     32
  0
VERTEX
  8
MY3DLAYER
10
54.963811659418624
20
354.8750382635565
30
2.7071678232459817e-12
 70
     32
  0
VERTEX
  8
MY3DLAYER
10
54.549690500932165
20
354.9294757092516
30
2.7071678232459817e-12
 70
     32
  0
VERTEX
  8
MY3DLAYER
10
54.13559073102473
20
354.8748758011693
30
2.7071678232459817e-12
 70
     32
  0
VERTEX
  8
MY3DLAYER
10
53.74973256468331
20
354.7149594328151
30
2.7071678232459817e-12
 70
     32
  0
VERTEX
  8
MY3DLAYER
10
53.41841159828329
20
354.46062464041785
30
2.7071678232459817e-12
 70
     32
  0
VERTEX
  8
MY3DLAYER
10
53.16420680815105
20
354.12920391977144
30
2.7071678232459817e-12
 70
     32
  0
VERTEX
  8
MY3DLAYER
10
53.00444183064085
20
353.7432830452892
30
2.7071678232459817e-12
 70
     32
  0
VERTEX
  8
MY3DLAYER
10
52.95000438494587
20
353.32916188680275
30
2.7071678232459817e-12
 70
     32
  0
VERTEX
  8
MY3DLAYER
10
53.004604293028095
20
352.91506211689534
30
2.7071678232459817e-12
 70
     32
  0
VERTEX
  8
MY3DLAYER
10
53.16452066138232
20
352.52920395055384
30
2.7071678232459817e-12
 70
     32
  0
VERTEX
  8
MY3DLAYER
10
53.41885545377955
20
352.1978829841538
30
2.7071678232459817e-12
 70
     32
  0
VERTEX
  8
MY3DLAYER
10
53.750276174425984
20
351.9436781940216
30
2.7071678232459817e-12
 70
     32
  0
VERTEX
  8
MY3DLAYER
10
54.13619704890823
20
351.78391321651145
30
2.7071678232459817e-12
 70
     32
  0
VERTEX
  8
MY3DLAYER
10
54.550318207394696
20
351.7294757708164
30
2.7071678232459817e-12
 70
     32
  0
VERTEX
  8
MY3DLAYER
10
54.96441797730213
20
351.78407567889866
30
2.7071678232459817e-12
 70
     32
  0
VERTEX
  8
MY3DLAYER
10
55.35027614364354
20
351.94399204725295
30
2.7071678232459817e-12
 70
     32
  0
VERTEX
  8
MY3DLAYER
10
55.68159711004356
20
352.1983268396501
30
2.7071678232459817e-12
 70
     32
  0
VERTEX
  8
MY3DLAYER
10
55.93580190017581
20
352.5297475602965
30
2.7071678232459817e-12
 70
     32
  0
VERTEX
  8
MY3DLAYER
10
56.09556687768601
20
352.91566843477875
30
2.7071678232459817e-12
 70
     32
  0
VERTEX
  8
MY3DLAYER
10
56.15000432338099
20
353.3297895932653
30
2.7071678232459817e-12
 70
     32
  0
VERTEX
  8
MY3DLAYER
10
56.09540441529876
20
353.7438893631726
30
2.7071678232459817e-12
 70
     32
  0
VERTEX
  8
MY3DLAYER
10
55.93548804694454
20
354.12974752951413
30
2.7071678232459817e-12
 70
     32
  0
VERTEX
  8
MY3DLAYER
10
55.681153254547304
20
354.46106849591416
30
2.7071678232459817e-12
 70
     32
  0
VERTEX
  8
MY3DLAYER
10
55.34973253390088
20
354.7152732860464
30
2.7071678232459817e-12
 70
     32
  0
SEQEND
  0
POLYLINE
 8
Layer0
 66
     1
70
    8
 10
0.0
 20
 0.0
 30
0.0
  0
VERTEX
  8
MY3DLAYER
10
29.356479300198096
20
8.355267007495154
30
4.1872127302156055e-05
 70
     32
  0
VERTEX
  8
MY3DLAYER
10
29.89999929491337
20
8.283711242702179
30
4.1872127302156055e-05
 70
     32
  0
VERTEX
  8
MY3DLAYER
10
30.443519289628693
20
8.355267007495154
30
4.1872127302156055e-05
 70
     32
  0
VERTEX
  8
MY3DLAYER
10
30.949999294913404
20
8.565057894754872
30
4.1872127302156055e-05
 70
     32
  0
VERTEX
  8
MY3DLAYER
10
31.38492353540514
20
8.89878700221043
30
4.1872127302156055e-05
 70
     32
  0
VERTEX
  8
MY3DLAYER
10
31.718652642860693
20
9.33371124270221
30
4.1872127302156055e-05
 70
     32
  0
VERTEX
  8
MY3DLAYER
10
31.928443530120415
20
9.84019124798692
30
4.1872127302156055e-05
 70
     32
  0
VERTEX
  8
MY3DLAYER
10
31.99999929491339
20
10.383711242702196
30
4.1872127302156055e-05
 70
     32
  0
VERTEX
  8
MY3DLAYER
10
31.928443530120415
20
10.927231237417473
30
4.1872127302156055e-05
 70
     32
  0
VERTEX
  8
MY3DLAYER
10
31.718652642860693
20
11.433711242702229
30
4.1872127302156055e-05
 70
     32
  0
VERTEX
  8
MY3DLAYER
10
31.38492353540514
20
11.868635483193964
30
4.1872127302156055e-05
 70
     32
  0
VERTEX
  8
MY3DLAYER
10
30.949999294913358
20
12.202364590649522
30
4.1872127302156055e-05
 70
     32
  0
VERTEX
  8
MY3DLAYER
10
30.443519289628647
20
12.41215547790924
30
4.1872127302156055e-05
 70
     32
  0
VERTEX
  8
MY3DLAYER
10
29.89999929491337
20
12.483711242702215
30
4.1872127302156055e-05
 70
     32
  0
VERTEX
  8
MY3DLAYER
10
29.35647930019805
20
12.41215547790924
30
4.1872127302156055e-05
 70
     32
  0
VERTEX
  8
MY3DLAYER
10
28.84999929491334
20
12.202364590649522
30
4.1872127302156055e-05
 70
     32
  0
VERTEX
  8
MY3DLAYER
10
28.415075054421603
20
11.868635483193964
30
4.1872127302156055e-05
 70
     32
  0
VERTEX
  8
MY3DLAYER
10
28.081345946966046
20
11.433711242702184
30
4.1872127302156055e-05
 70
     32
  0
VERTEX
  8
MY3DLAYER
10
27.871555059706328
20
10.927231237417473
30
4.1872127302156055e-05
 70
     32
  0
VERTEX
  8
MY3DLAYER
10
27.799999294913352
20
10.383711242702196
30
4.1872127302156055e-05
 70
     32
  0
VERTEX
  8
MY3DLAYER
10
27.871555059706328
20
9.840191247986875
30
4.1872127302156055e-05
 70
     32
  0
VERTEX
  8
MY3DLAYER
10
28.081345946966046
20
9.333711242702165
30
4.1872127302156055e-05
 70
     32
  0
VERTEX
  8
MY3DLAYER
10
28.415075054421603
20
8.89878700221043
30
4.1872127302156055e-05
 70
     32
  0
VERTEX
  8
MY3DLAYER
10
28.849999294913385
20
8.565057894754872
30
4.1872127302156055e-05
 70
     32
  0
VERTEX
  8
MY3DLAYER
10
29.356479300198096
20
8.355267007495154
30
4.1872127302156055e-05
 70
     32
  0
SEQEND
  0
POLYLINE
 8
Layer0
 66
     1
70
    8
 10
0.0
 20
 0.0
 30
0.0
  0
VERTEX
  8
MY3DLAYER
10
11.838477631085
20
8.161522368914962
30
3.204961265055317e-05
 70
     32
  0
VERTEX
  8
MY3DLAYER
10
12.2516660498395
20
8.700000000000006
30
3.204961265055317e-05
 70
     32
  0
VERTEX
  8
MY3DLAYER
10
12.511407148351545
20
9.327070482733438
30
3.204961265055317e-05
 70
     32
  0
VERTEX
  8
MY3DLAYER
10
12.599999999999977
20
9.999999999999982
30
3.204961265055317e-05
 70
     32
  0
VERTEX
  8
MY3DLAYER
10
12.511407148351545
20
10.672929517266525
30
3.204961265055317e-05
 70
     32
  0
VERTEX
  8
MY3DLAYER
10
12.2516660498395
20
11.300000000000002
30
3.204961265055317e-05
 70
     32
  0
VERTEX
  8
MY3DLAYER
10
11.838477631085
20
11.838477631085
30
3.204961265055317e-05
 70
     32
  0
VERTEX
  8
MY3DLAYER
10
11.299999999999956
20
12.2516660498395
30
3.204961265055317e-05
 70
     32
  0
VERTEX
  8
MY3DLAYER
10
10.672929517266525
20
12.511407148351545
30
3.204961265055317e-05
 70
     32
  0
VERTEX
  8
MY3DLAYER
10
9.999999999999982
20
12.599999999999977
30
3.204961265055317e-05
 70
     32
  0
VERTEX
  8
MY3DLAYER
10
9.327070482733438
20
12.511407148351545
30
3.204961265055317e-05
 70
     32
  0
VERTEX
  8
MY3DLAYER
10
8.699999999999962
20
12.2516660498395
30
3.204961265055317e-05
 70
     32
  0
VERTEX
  8
MY3DLAYER
10
8.161522368914962
20
11.838477631085
30
3.204961265055317e-05
 70
     32
  0
VERTEX
  8
MY3DLAYER
10
7.748333950160464
20
11.299999999999956
30
3.204961265055317e-05
 70
     32
  0
VERTEX
  8
MY3DLAYER
10
7.488592851648419
20
10.672929517266525
30
3.204961265055317e-05
 70
     32
  0
VERTEX
  8
MY3DLAYER
10
7.399999999999986
20
9.999999999999982
30
3.204961265055317e-05
 70
     32
  0
VERTEX
  8
MY3DLAYER
10
7.488592851648419
20
9.327070482733438
30
3.204961265055317e-05
 70
     32
  0
VERTEX
  8
MY3DLAYER
10
7.748333950160464
20
8.699999999999962
30
3.204961265055317e-05
 70
     32
  0
VERTEX
  8
MY3DLAYER
10
8.161522368914962
20
8.161522368914962
30
3.204961265055317e-05
 70
     32
  0
VERTEX
  8
MY3DLAYER
10
8.700000000000006
20
7.748333950160464
30
3.204961265055317e-05
 70
     32
  0
VERTEX
  8
MY3DLAYER
10
9.327070482733438
20
7.488592851648419
30
3.204961265055317e-05
 70
     32
  0
VERTEX
  8
MY3DLAYER
10
9.999999999999982
20
7.399999999999986
30
3.204961265055317e-05
 70
     32
  0
VERTEX
  8
MY3DLAYER
10
10.672929517266525
20
7.488592851648419
30
3.204961265055317e-05
 70
     32
  0
VERTEX
  8
MY3DLAYER
10
11.300000000000002
20
7.748333950160464
30
3.204961265055317e-05
 70
     32
  0
VERTEX
  8
MY3DLAYER
10
11.838477631085
20
8.161522368914962
30
3.204961265055317e-05
 70
     32
  0
SEQEND
  0
POLYLINE
 8
Layer0
 66
     1
70
    8
 10
0.0
 20
 0.0
 30
0.0
  0
VERTEX
  8
MY3DLAYER
10
53.750276174425984
20
39.749206816248595
30
3.204962961547153e-05
 70
     32
  0
VERTEX
  8
MY3DLAYER
10
53.41885545377955
20
40.00341160638084
30
3.204962961547153e-05
 70
     32
  0
VERTEX
  8
MY3DLAYER
10
53.16452066138232
20
40.334732572780865
30
3.204962961547153e-05
 70
     32
  0
VERTEX
  8
MY3DLAYER
10
53.004604293028095
20
40.72059073912227
30
3.204962961547153e-05
 70
     32
  0
VERTEX
  8
MY3DLAYER
10
52.95000438494587
20
41.13469050902971
30
3.204962961547153e-05
 70
     32
  0
VERTEX
  8
MY3DLAYER
10
53.00444183064085
20
41.54881166751617
30
3.204962961547153e-05
 70
     32
  0
VERTEX
  8
MY3DLAYER
10
53.16420680815105
20
41.93473254199842
30
3.204962961547153e-05
 70
     32
  0
VERTEX
  8
MY3DLAYER
10
53.41841159828329
20
42.26615326264485
30
3.204962961547153e-05
 70
     32
  0
VERTEX
  8
MY3DLAYER
10
53.74973256468331
20
42.52048805504209
30
3.204962961547153e-05
 70
     32
  0
VERTEX
  8
MY3DLAYER
10
54.13559073102473
20
42.680404423396304
30
3.204962961547153e-05
 70
     32
  0
VERTEX
  8
MY3DLAYER
10
54.549690500932165
20
42.735004331478535
30
3.204962961547153e-05
 70
     32
  0
VERTEX
  8
MY3DLAYER
10
54.963811659418624
20
42.680566885783556
30
3.204962961547153e-05
 70
     32
  0
VERTEX
  8
MY3DLAYER
10
55.34973253390088
20
42.520801908273356
30
3.204962961547153e-05
 70
     32
  0
VERTEX
  8
MY3DLAYER
10
55.681153254547304
20
42.266597118141114
30
3.204962961547153e-05
 70
     32
  0
VERTEX
  8
MY3DLAYER
10
55.93548804694454
20
41.935276151741085
30
3.204962961547153e-05
 70
     32
  0
VERTEX
  8
MY3DLAYER
10
56.09540441529876
20
41.54941798539968
30
3.204962961547153e-05
 70
     32
  0
VERTEX
  8
MY3DLAYER
10
56.15000432338099
20
41.13531821549224
30
3.204962961547153e-05
 70
     32
  0
VERTEX
  8
MY3DLAYER
10
56.09556687768601
20
40.72119705700578
30
3.204962961547153e-05
 70
     32
  0
VERTEX
  8
MY3DLAYER
10
55.93580190017581
20
40.33527618252353
30
3.204962961547153e-05
 70
     32
  0
VERTEX
  8
MY3DLAYER
10
55.68159711004356
20
40.0038554618771
30
3.204962961547153e-05
 70
     32
  0
VERTEX
  8
MY3DLAYER
10
55.35027614364354
20
39.749520669479864
30
3.204962961547153e-05
 70
     32
  0
VERTEX
  8
MY3DLAYER
10
54.96441797730213
20
39.58960430112564
30
3.204962961547153e-05
 70
     32
  0
VERTEX
  8
MY3DLAYER
10
54.550318207394696
20
39.535004393043415
30
3.204962961547153e-05
 70
     32
  0
VERTEX
  8
MY3DLAYER
10
54.13619704890823
20
39.589441838738395
30
3.204962961547153e-05
 70
     32
  0
VERTEX
  8
MY3DLAYER
10
53.750276174425984
20
39.749206816248595
30
3.204962961547153e-05
 70
     32
  0
SEQEND
  0
POLYLINE
 8
Layer0
 66
     1
70
    8
 10
0.0
 20
 0.0
 30
0.0
  0
VERTEX
  8
MY3DLAYER
10
84.41841159828329
20
11.266153262644861
30
3.204963087881651e-05
 70
     32
  0
VERTEX
  8
MY3DLAYER
10
84.7497325646833
20
11.5204880550421
30
3.204963087881651e-05
 70
     32
  0
VERTEX
  8
MY3DLAYER
10
85.1355907310247
20
11.680404423396318
30
3.204963087881651e-05
 70
     32
  0
VERTEX
  8
MY3DLAYER
10
85.54969050093214
20
11.735004331478544
30
3.204963087881651e-05
 70
     32
  0
VERTEX
  8
MY3DLAYER
10
85.96381165941861
20
11.680566885783566
30
3.204963087881651e-05
 70
     32
  0
VERTEX
  8
MY3DLAYER
10
86.34973253390086
20
11.520801908273365
30
3.204963087881651e-05
 70
     32
  0
VERTEX
  8
MY3DLAYER
10
86.6811532545473
20
11.266597118141123
30
3.204963087881651e-05
 70
     32
  0
VERTEX
  8
MY3DLAYER
10
86.93548804694453
20
10.935276151741098
30
3.204963087881651e-05
 70
     32
  0
VERTEX
  8
MY3DLAYER
10
87.09540441529874
20
10.54941798539969
30
3.204963087881651e-05
 70
     32
  0
VERTEX
  8
MY3DLAYER
10
87.15000432338097
20
10.135318215492253
30
3.204963087881651e-05
 70
     32
  0
VERTEX
  8
MY3DLAYER
10
87.095566877686
20
9.72119705700579
30
3.204963087881651e-05
 70
     32
  0
VERTEX
  8
MY3DLAYER
10
86.93580190017579
20
9.33527618252354
30
3.204963087881651e-05
 70
     32
  0
VERTEX
  8
MY3DLAYER
10
86.68159711004355
20
9.00385546187711
30
3.204963087881651e-05
 70
     32
  0
VERTEX
  8
MY3DLAYER
10
86.35027614364353
20
8.749520669479875
30
3.204963087881651e-05
 70
     32
  0
VERTEX
  8
MY3DLAYER
10
85.96441797730212
20
8.589604301125656
30
3.204963087881651e-05
 70
     32
  0
VERTEX
  8
MY3DLAYER
10
85.55031820739468
20
8.535004393043428
30
3.204963087881651e-05
 70
     32
  0
VERTEX
  8
MY3DLAYER
10
85.13619704890822
20
8.589441838738406
30
3.204963087881651e-05
 70
     32
  0
VERTEX
  8
MY3DLAYER
10
84.75027617442596
20
8.749206816248607
30
3.204963087881651e-05
 70
     32
  0
VERTEX
  8
MY3DLAYER
10
84.41885545377954
20
9.003411606380851
30
3.204963087881651e-05
 70
     32
  0
VERTEX
  8
MY3DLAYER
10
84.1645206613823
20
9.334732572780874
30
3.204963087881651e-05
 70
     32
  0
VERTEX
  8
MY3DLAYER
10
84.00460429302808
20
9.720590739122281
30
3.204963087881651e-05
 70
     32
  0
VERTEX
  8
MY3DLAYER
10
83.95000438494586
20
10.134690509029719
30
3.204963087881651e-05
 70
     32
  0
VERTEX
  8
MY3DLAYER
10
84.00444183064084
20
10.548811667516182
30
3.204963087881651e-05
 70
     32
  0
VERTEX
  8
MY3DLAYER
10
84.16420680815104
20
10.934732541998432
30
3.204963087881651e-05
 70
     32
  0
VERTEX
  8
MY3DLAYER
10
84.41841159828329
20
11.266153262644861
30
3.204963087881651e-05
 70
     32
  0
SEQEND
  0
POLYLINE
 8
Layer0
 66
     1
70
    8
 10
0.0
 20
 0.0
 30
0.0
  0
VERTEX
  8
MY3DLAYER
10
55.681153254547304
20
11.266597118141123
30
3.204962690830371e-05
 70
     32
  0
VERTEX
  8
MY3DLAYER
10
55.93548804694454
20
10.935276151741098
30
3.204962690830371e-05
 70
     32
  0
VERTEX
  8
MY3DLAYER
10
56.09540441529876
20
10.54941798539969
30
3.204962690830371e-05
 70
     32
  0
VERTEX
  8
MY3DLAYER
10
56.15000432338099
20
10.135318215492253
30
3.204962690830371e-05
 70
     32
  0
VERTEX
  8
MY3DLAYER
10
56.09556687768601
20
9.72119705700579
30
3.204962690830371e-05
 70
     32
  0
VERTEX
  8
MY3DLAYER
10
55.93580190017581
20
9.33527618252354
30
3.204962690830371e-05
 70
     32
  0
VERTEX
  8
MY3DLAYER
10
55.68159711004356
20
9.00385546187711
30
3.204962690830371e-05
 70
     32
  0
VERTEX
  8
MY3DLAYER
10
55.35027614364354
20
8.749520669479875
30
3.204962690830371e-05
 70
     32
  0
VERTEX
  8
MY3DLAYER
10
54.96441797730213
20
8.589604301125656
30
3.204962690830371e-05
 70
     32
  0
VERTEX
  8
MY3DLAYER
10
54.550318207394696
20
8.535004393043428
30
3.204962690830371e-05
 70
     32
  0
VERTEX
  8
MY3DLAYER
10
54.13619704890823
20
8.589441838738406
30
3.204962690830371e-05
 70
     32
  0
VERTEX
  8
MY3DLAYER
10
53.750276174425984
20
8.749206816248607
30
3.204962690830371e-05
 70
     32
  0
VERTEX
  8
MY3DLAYER
10
53.41885545377955
20
9.003411606380851
30
3.204962690830371e-05
 70
     32
  0
VERTEX
  8
MY3DLAYER
10
53.16452066138232
20
9.334732572780874
30
3.204962690830371e-05
 70
     32
  0
VERTEX
  8
MY3DLAYER
10
53.004604293028095
20
9.720590739122281
30
3.204962690830371e-05
 70
     32
  0
VERTEX
  8
MY3DLAYER
10
52.95000438494587
20
10.134690509029719
30
3.204962690830371e-05
 70
     32
  0
VERTEX
  8
MY3DLAYER
10
53.00444183064085
20
10.548811667516182
30
3.204962690830371e-05
 70
     32
  0
VERTEX
  8
MY3DLAYER
10
53.16420680815105
20
10.934732541998432
30
3.204962690830371e-05
 70
     32
  0
VERTEX
  8
MY3DLAYER
10
53.41841159828329
20
11.266153262644861
30
3.204962690830371e-05
 70
     32
  0
VERTEX
  8
MY3DLAYER
10
53.74973256468331
20
11.5204880550421
30
3.204962690830371e-05
 70
     32
  0
VERTEX
  8
MY3DLAYER
10
54.13559073102473
20
11.680404423396318
30
3.204962690830371e-05
 70
     32
  0
VERTEX
  8
MY3DLAYER
10
54.549690500932165
20
11.735004331478544
30
3.204962690830371e-05
 70
     32
  0
VERTEX
  8
MY3DLAYER
10
54.963811659418624
20
11.680566885783566
30
3.204962690830371e-05
 70
     32
  0
VERTEX
  8
MY3DLAYER
10
55.34973253390088
20
11.520801908273365
30
3.204962690830371e-05
 70
     32
  0
VERTEX
  8
MY3DLAYER
10
55.681153254547304
20
11.266597118141123
30
3.204962690830371e-05
 70
     32
  0
SEQEND
  0
POLYLINE
 8
Layer0
 66
     1
70
    8
 10
0.0
 20
 0.0
 30
0.0
  0
VERTEX
  8
MY3DLAYER
10
85.96381165941861
20
42.680566885783556
30
3.2049633585984334e-05
 70
     32
  0
VERTEX
  8
MY3DLAYER
10
86.34973253390086
20
42.520801908273356
30
3.2049633585984334e-05
 70
     32
  0
VERTEX
  8
MY3DLAYER
10
86.6811532545473
20
42.266597118141114
30
3.2049633585984334e-05
 70
     32
  0
VERTEX
  8
MY3DLAYER
10
86.93548804694453
20
41.935276151741085
30
3.2049633585984334e-05
 70
     32
  0
VERTEX
  8
MY3DLAYER
10
87.09540441529874
20
41.54941798539968
30
3.2049633585984334e-05
 70
     32
  0
VERTEX
  8
MY3DLAYER
10
87.15000432338097
20
41.13531821549224
30
3.2049633585984334e-05
 70
     32
  0
VERTEX
  8
MY3DLAYER
10
87.095566877686
20
40.72119705700578
30
3.2049633585984334e-05
 70
     32
  0
VERTEX
  8
MY3DLAYER
10
86.93580190017579
20
40.33527618252353
30
3.2049633585984334e-05
 70
     32
  0
VERTEX
  8
MY3DLAYER
10
86.68159711004355
20
40.0038554618771
30
3.2049633585984334e-05
 70
     32
  0
VERTEX
  8
MY3DLAYER
10
86.35027614364353
20
39.749520669479864
30
3.2049633585984334e-05
 70
     32
  0
VERTEX
  8
MY3DLAYER
10
85.96441797730212
20
39.58960430112564
30
3.2049633585984334e-05
 70
     32
  0
VERTEX
  8
MY3DLAYER
10
85.55031820739468
20
39.535004393043415
30
3.2049633585984334e-05
 70
     32
  0
VERTEX
  8
MY3DLAYER
10
85.13619704890822
20
39.589441838738395
30
3.2049633585984334e-05
 70
     32
  0
VERTEX
  8
MY3DLAYER
10
84.75027617442596
20
39.749206816248595
30
3.2049633585984334e-05
 70
     32
  0
VERTEX
  8
MY3DLAYER
10
84.41885545377954
20
40.00341160638084
30
3.2049633585984334e-05
 70
     32
  0
VERTEX
  8
MY3DLAYER
10
84.1645206613823
20
40.334732572780865
30
3.2049633585984334e-05
 70
     32
  0
VERTEX
  8
MY3DLAYER
10
84.00460429302808
20
40.72059073912227
30
3.2049633585984334e-05
 70
     32
  0
VERTEX
  8
MY3DLAYER
10
83.95000438494586
20
41.13469050902971
30
3.2049633585984334e-05
 70
     32
  0
VERTEX
  8
MY3DLAYER
10
84.00444183064084
20
41.54881166751617
30
3.2049633585984334e-05
 70
     32
  0
VERTEX
  8
MY3DLAYER
10
84.16420680815104
20
41.93473254199842
30
3.2049633585984334e-05
 70
     32
  0
VERTEX
  8
MY3DLAYER
10
84.41841159828329
20
42.26615326264485
30
3.2049633585984334e-05
 70
     32
  0
VERTEX
  8
MY3DLAYER
10
84.7497325646833
20
42.52048805504209
30
3.2049633585984334e-05
 70
     32
  0
VERTEX
  8
MY3DLAYER
10
85.1355907310247
20
42.680404423396304
30
3.2049633585984334e-05
 70
     32
  0
VERTEX
  8
MY3DLAYER
10
85.54969050093214
20
42.735004331478535
30
3.2049633585984334e-05
 70
     32
  0
VERTEX
  8
MY3DLAYER
10
85.96381165941861
20
42.680566885783556
30
3.2049633585984334e-05
 70
     32
  0
SEQEND
  0
POLYLINE
 8
Layer0
 66
     1
70
    8
 10
0.0
 20
 0.0
 30
0.0
  0
VERTEX
  8
MY3DLAYER
10
84.41841159828329
20
354.4606246404213
30
1.6024823290194944e-05
 70
     32
  0
VERTEX
  8
MY3DLAYER
10
84.7497325646833
20
354.7149594328185
30
1.6024823290194944e-05
 70
     32
  0
VERTEX
  8
MY3DLAYER
10
85.1355907310247
20
354.8748758011728
30
1.6024823290194944e-05
 70
     32
  0
VERTEX
  8
MY3DLAYER
10
85.54969050093214
20
354.92947570925503
30
1.6024823290194944e-05
 70
     32
  0
VERTEX
  8
MY3DLAYER
10
85.96381165941861
20
354.87503826355993
30
1.6024823290194944e-05
 70
     32
  0
VERTEX
  8
MY3DLAYER
10
86.34973253390086
20
354.71527328604986
30
1.6024823290194944e-05
 70
     32
  0
VERTEX
  8
MY3DLAYER
10
86.6811532545473
20
354.4610684959176
30
1.6024823290194944e-05
 70
     32
  0
VERTEX
  8
MY3DLAYER
10
86.93548804694453
20
354.1297475295176
30
1.6024823290194944e-05
 70
     32
  0
VERTEX
  8
MY3DLAYER
10
87.09540441529874
20
353.7438893631761
30
1.6024823290194944e-05
 70
     32
  0
VERTEX
  8
MY3DLAYER
10
87.15000432338097
20
353.3297895932687
30
1.6024823290194944e-05
 70
     32
  0
VERTEX
  8
MY3DLAYER
10
87.095566877686
20
352.91566843478216
30
1.6024823290194944e-05
 70
     32
  0
VERTEX
  8
MY3DLAYER
10
86.93580190017579
20
352.5297475603
30
1.6024823290194944e-05
 70
     32
  0
VERTEX
  8
MY3DLAYER
10
86.68159711004355
20
352.19832683965353
30
1.6024823290194944e-05
 70
     32
  0
VERTEX
  8
MY3DLAYER
10
86.35027614364353
20
351.94399204725636
30
1.6024823290194944e-05
 70
     32
  0
VERTEX
  8
MY3DLAYER
10
85.96441797730212
20
351.78407567890207
30
1.6024823290194944e-05
 70
     32
  0
VERTEX
  8
MY3DLAYER
10
85.55031820739468
20
351.7294757708198
30
1.6024823290194944e-05
 70
     32
  0
VERTEX
  8
MY3DLAYER
10
85.13619704890822
20
351.78391321651486
30
1.6024823290194944e-05
 70
     32
  0
VERTEX
  8
MY3DLAYER
10
84.75027617442596
20
351.943678194025
30
1.6024823290194944e-05
 70
     32
  0
VERTEX
  8
MY3DLAYER
10
84.41885545377954
20
352.1978829841572
30
1.6024823290194944e-05
 70
     32
  0
VERTEX
  8
MY3DLAYER
10
84.1645206613823
20
352.52920395055725
30
1.6024823290194944e-05
 70
     32
  0
VERTEX
  8
MY3DLAYER
10
84.00460429302808
20
352.91506211689875
30
1.6024823290194944e-05
 70
     32
  0
VERTEX
  8
MY3DLAYER
10
83.95000438494586
20
353.32916188680616
30
1.6024823290194944e-05
 70
     32
  0
VERTEX
  8
MY3DLAYER
10
84.00444183064084
20
353.7432830452927
30
1.6024823290194944e-05
 70
     32
  0
VERTEX
  8
MY3DLAYER
10
84.16420680815104
20
354.12920391977485
30
1.6024823290194944e-05
 70
     32
  0
VERTEX
  8
MY3DLAYER
10
84.41841159828329
20
354.4606246404213
30
1.6024823290194944e-05
 70
     32
  0
SEQEND
  0
POLYLINE
 8
Layer0
 66
     1
70
    8
 10
0.0
 20
 0.0
 30
0.0
  0
VERTEX
  8
MY3DLAYER
10
87.15000432338097
20
322.3297895932687
30
1.6024823290194944e-05
 70
     32
  0
VERTEX
  8
MY3DLAYER
10
87.095566877686
20
321.9156684347822
30
1.6024823290194944e-05
 70
     32
  0
VERTEX
  8
MY3DLAYER
10
86.93580190017579
20
321.5297475603
30
1.6024823290194944e-05
 70
     32
  0
VERTEX
  8
MY3DLAYER
10
86.68159711004355
20
321.19832683965353
30
1.6024823290194944e-05
 70
     32
  0
VERTEX
  8
MY3DLAYER
10
86.35027614364353
20
320.94399204725636
30
1.6024823290194944e-05
 70
     32
  0
VERTEX
  8
MY3DLAYER
10
85.96441797730212
20
320.7840756789021
30
1.6024823290194944e-05
 70
     32
  0
VERTEX
  8
MY3DLAYER
10
85.55031820739468
20
320.7294757708198
30
1.6024823290194944e-05
 70
     32
  0
VERTEX
  8
MY3DLAYER
10
85.13619704890822
20
320.7839132165149
30
1.6024823290194944e-05
 70
     32
  0
VERTEX
  8
MY3DLAYER
10
84.75027617442596
20
320.943678194025
30
1.6024823290194944e-05
 70
     32
  0
VERTEX
  8
MY3DLAYER
10
84.41885545377954
20
321.1978829841573
30
1.6024823290194944e-05
 70
     32
  0
VERTEX
  8
MY3DLAYER
10
84.1645206613823
20
321.5292039505573
30
1.6024823290194944e-05
 70
     32
  0
VERTEX
  8
MY3DLAYER
10
84.00460429302808
20
321.91506211689875
30
1.6024823290194944e-05
 70
     32
  0
VERTEX
  8
MY3DLAYER
10
83.95000438494586
20
322.32916188680616
30
1.6024823290194944e-05
 70
     32
  0
VERTEX
  8
MY3DLAYER
10
84.00444183064084
20
322.7432830452927
30
1.6024823290194944e-05
 70
     32
  0
VERTEX
  8
MY3DLAYER
10
84.16420680815104
20
323.12920391977485
30
1.6024823290194944e-05
 70
     32
  0
VERTEX
  8
MY3DLAYER
10
84.41841159828329
20
323.4606246404213
30
1.6024823290194944e-05
 70
     32
  0
VERTEX
  8
MY3DLAYER
10
84.7497325646833
20
323.7149594328185
30
1.6024823290194944e-05
 70
     32
  0
VERTEX
  8
MY3DLAYER
10
85.1355907310247
20
323.8748758011728
30
1.6024823290194944e-05
 70
     32
  0
VERTEX
  8
MY3DLAYER
10
85.54969050093214
20
323.92947570925503
30
1.6024823290194944e-05
 70
     32
  0
VERTEX
  8
MY3DLAYER
10
85.96381165941861
20
323.87503826356
30
1.6024823290194944e-05
 70
     32
  0
VERTEX
  8
MY3DLAYER
10
86.34973253390086
20
323.71527328604986
30
1.6024823290194944e-05
 70
     32
  0
VERTEX
  8
MY3DLAYER
10
86.6811532545473
20
323.46106849591763
30
1.6024823290194944e-05
 70
     32
  0
VERTEX
  8
MY3DLAYER
10
86.93548804694453
20
323.1297475295176
30
1.6024823290194944e-05
 70
     32
  0
VERTEX
  8
MY3DLAYER
10
87.09540441529874
20
322.7438893631761
30
1.6024823290194944e-05
 70
     32
  0
VERTEX
  8
MY3DLAYER
10
87.15000432338097
20
322.3297895932687
30
1.6024823290194944e-05
 70
     32
  0
SEQEND
 0
ENDSEC
 0
EOF
