 0
SECTION
 2
ENTITIES
  0
POLYLINE
 8
Layer0
 66
     1
70
    8
 10
0.0
 20
 0.0
 30
0.0
  0
VERTEX
  8
MY3DLAYER
10
5.999999999999989
20
12.000000000000023
30
0.0
 70
     32
  0
VERTEX
  8
MY3DLAYER
10
21.99999999999996
20
12.000000000000023
30
0.0
 70
     32
  0
VERTEX
  8
MY3DLAYER
10
23.552914270615073
20
11.795554957734444
30
0.0
 70
     32
  0
VERTEX
  8
MY3DLAYER
10
24.999999999999908
20
11.196152422706636
30
0.0
 70
     32
  0
VERTEX
  8
MY3DLAYER
10
26.242640687119255
20
10.24264068711933
30
0.0
 70
     32
  0
VERTEX
  8
MY3DLAYER
10
27.19615242270656
20
9.000000000000028
30
0.0
 70
     32
  0
VERTEX
  8
MY3DLAYER
10
27.79555495773437
20
7.552914270615148
30
0.0
 70
     32
  0
VERTEX
  8
MY3DLAYER
10
27.99999999999995
20
6.000000000000034
30
0.0
 70
     32
  0
VERTEX
  8
MY3DLAYER
10
27.79555495773437
20
4.44708572938492
30
0.0
 70
     32
  0
VERTEX
  8
MY3DLAYER
10
27.19615242270656
20
3.0000000000000395
30
0.0
 70
     32
  0
VERTEX
  8
MY3DLAYER
10
26.242640687119255
20
1.7573593128807383
30
0.0
 70
     32
  0
VERTEX
  8
MY3DLAYER
10
25.0
20
0.8038475772934329
30
0.0
 70
     32
  0
VERTEX
  8
MY3DLAYER
10
23.552914270615073
20
0.20444504226562435
30
0.0
 70
     32
  0
VERTEX
  8
MY3DLAYER
10
21.99999999999996
20
0.0
30
0.0
 70
     32
  0
VERTEX
  8
MY3DLAYER
10
5.999999999999989
20
0.0
30
0.0
 70
     32
  0
VERTEX
  8
MY3DLAYER
10
4.447085729384875
20
0.20444504226562435
30
0.0
 70
     32
  0
VERTEX
  8
MY3DLAYER
10
3.0000000000000395
20
0.8038475772934329
30
0.0
 70
     32
  0
VERTEX
  8
MY3DLAYER
10
1.7573593128806932
20
1.7573593128807383
30
0.0
 70
     32
  0
VERTEX
  8
MY3DLAYER
10
0.8038475772933878
20
3.0000000000000395
30
0.0
 70
     32
  0
VERTEX
  8
MY3DLAYER
10
0.20444504226557925
20
4.44708572938492
30
0.0
 70
     32
  0
VERTEX
  8
MY3DLAYER
10
0.0
20
6.000000000000034
30
0.0
 70
     32
  0
VERTEX
  8
MY3DLAYER
10
0.20444504226557925
20
7.552914270615148
30
0.0
 70
     32
  0
VERTEX
  8
MY3DLAYER
10
0.8038475772933878
20
9.000000000000028
30
0.0
 70
     32
  0
VERTEX
  8
MY3DLAYER
10
1.7573593128806932
20
10.24264068711933
30
0.0
 70
     32
  0
VERTEX
  8
MY3DLAYER
10
2.9999999999999494
20
11.196152422706636
30
0.0
 70
     32
  0
VERTEX
  8
MY3DLAYER
10
4.447085729384875
20
11.795554957734444
30
0.0
 70
     32
  0
VERTEX
  8
MY3DLAYER
10
5.999999999999989
20
12.000000000000023
30
0.0
 70
     32
  0
SEQEND
  0
POLYLINE
 8
Layer0
 66
     1
70
    8
 10
0.0
 20
 0.0
 30
0.0
  0
VERTEX
  8
MY3DLAYER
10
22.414110472164015
20
7.5454813220625585
30
0.0
 70
     32
  0
VERTEX
  8
MY3DLAYER
10
21.99999999999996
20
7.600000000000032
30
0.0
 70
     32
  0
VERTEX
  8
MY3DLAYER
10
21.585889527835906
20
7.5454813220625585
30
0.0
 70
     32
  0
VERTEX
  8
MY3DLAYER
10
21.19999999999996
20
7.385640646055119
30
0.0
 70
     32
  0
VERTEX
  8
MY3DLAYER
10
20.868629150101444
20
7.131370849898504
30
0.0
 70
     32
  0
VERTEX
  8
MY3DLAYER
10
20.61435935394483
20
6.800000000000033
30
0.0
 70
     32
  0
VERTEX
  8
MY3DLAYER
10
20.45451867793748
20
6.414110472164044
30
0.0
 70
     32
  0
VERTEX
  8
MY3DLAYER
10
20.399999999999963
20
6.000000000000034
30
0.0
 70
     32
  0
VERTEX
  8
MY3DLAYER
10
20.45451867793748
20
5.585889527835979
30
0.0
 70
     32
  0
VERTEX
  8
MY3DLAYER
10
20.61435935394483
20
5.200000000000036
30
0.0
 70
     32
  0
VERTEX
  8
MY3DLAYER
10
20.868629150101444
20
4.868629150101564
30
0.0
 70
     32
  0
VERTEX
  8
MY3DLAYER
10
21.19999999999996
20
4.614359353944949
30
0.0
 70
     32
  0
VERTEX
  8
MY3DLAYER
10
21.585889527835906
20
4.45451867793751
30
0.0
 70
     32
  0
VERTEX
  8
MY3DLAYER
10
21.99999999999996
20
4.400000000000037
30
0.0
 70
     32
  0
VERTEX
  8
MY3DLAYER
10
22.414110472164015
20
4.45451867793751
30
0.0
 70
     32
  0
VERTEX
  8
MY3DLAYER
10
22.799999999999958
20
4.614359353944949
30
0.0
 70
     32
  0
VERTEX
  8
MY3DLAYER
10
23.131370849898474
20
4.868629150101564
30
0.0
 70
     32
  0
VERTEX
  8
MY3DLAYER
10
23.38564064605509
20
5.200000000000036
30
0.0
 70
     32
  0
VERTEX
  8
MY3DLAYER
10
23.54548132206244
20
5.585889527835979
30
0.0
 70
     32
  0
VERTEX
  8
MY3DLAYER
10
23.599999999999955
20
6.000000000000034
30
0.0
 70
     32
  0
VERTEX
  8
MY3DLAYER
10
23.54548132206244
20
6.414110472164088
30
0.0
 70
     32
  0
VERTEX
  8
MY3DLAYER
10
23.38564064605509
20
6.800000000000033
30
0.0
 70
     32
  0
VERTEX
  8
MY3DLAYER
10
23.131370849898474
20
7.131370849898504
30
0.0
 70
     32
  0
VERTEX
  8
MY3DLAYER
10
22.799999999999958
20
7.385640646055119
30
0.0
 70
     32
  0
VERTEX
  8
MY3DLAYER
10
22.414110472164015
20
7.5454813220625585
30
0.0
 70
     32
  0
SEQEND
  0
POLYLINE
 8
Layer0
 66
     1
70
    8
 10
0.0
 20
 0.0
 30
0.0
  0
VERTEX
  8
MY3DLAYER
10
5.999999999999989
20
7.600000000000032
30
0.0
 70
     32
  0
VERTEX
  8
MY3DLAYER
10
5.585889527835935
20
7.5454813220625585
30
0.0
 70
     32
  0
VERTEX
  8
MY3DLAYER
10
5.19999999999999
20
7.385640646055119
30
0.0
 70
     32
  0
VERTEX
  8
MY3DLAYER
10
4.868629150101474
20
7.131370849898504
30
0.0
 70
     32
  0
VERTEX
  8
MY3DLAYER
10
4.6143593539448595
20
6.800000000000033
30
0.0
 70
     32
  0
VERTEX
  8
MY3DLAYER
10
4.45451867793751
20
6.414110472164044
30
0.0
 70
     32
  0
VERTEX
  8
MY3DLAYER
10
4.399999999999992
20
6.000000000000034
30
0.0
 70
     32
  0
VERTEX
  8
MY3DLAYER
10
4.45451867793751
20
5.585889527835979
30
0.0
 70
     32
  0
VERTEX
  8
MY3DLAYER
10
4.6143593539448595
20
5.200000000000036
30
0.0
 70
     32
  0
VERTEX
  8
MY3DLAYER
10
4.868629150101474
20
4.868629150101564
30
0.0
 70
     32
  0
VERTEX
  8
MY3DLAYER
10
5.19999999999999
20
4.614359353944949
30
0.0
 70
     32
  0
VERTEX
  8
MY3DLAYER
10
5.585889527835935
20
4.45451867793751
30
0.0
 70
     32
  0
VERTEX
  8
MY3DLAYER
10
5.999999999999989
20
4.400000000000037
30
0.0
 70
     32
  0
VERTEX
  8
MY3DLAYER
10
6.414110472164044
20
4.45451867793751
30
0.0
 70
     32
  0
VERTEX
  8
MY3DLAYER
10
6.799999999999987
20
4.614359353944949
30
0.0
 70
     32
  0
VERTEX
  8
MY3DLAYER
10
7.131370849898504
20
4.868629150101564
30
0.0
 70
     32
  0
VERTEX
  8
MY3DLAYER
10
7.385640646055119
20
5.200000000000036
30
0.0
 70
     32
  0
VERTEX
  8
MY3DLAYER
10
7.545481322062468
20
5.585889527835979
30
0.0
 70
     32
  0
VERTEX
  8
MY3DLAYER
10
7.599999999999986
20
6.000000000000034
30
0.0
 70
     32
  0
VERTEX
  8
MY3DLAYER
10
7.545481322062468
20
6.414110472164088
30
0.0
 70
     32
  0
VERTEX
  8
MY3DLAYER
10
7.385640646055119
20
6.800000000000033
30
0.0
 70
     32
  0
VERTEX
  8
MY3DLAYER
10
7.131370849898504
20
7.131370849898504
30
0.0
 70
     32
  0
VERTEX
  8
MY3DLAYER
10
6.799999999999987
20
7.385640646055119
30
0.0
 70
     32
  0
VERTEX
  8
MY3DLAYER
10
6.414110472164044
20
7.5454813220625585
30
0.0
 70
     32
  0
VERTEX
  8
MY3DLAYER
10
5.999999999999989
20
7.600000000000032
30
0.0
 70
     32
  0
SEQEND
 0
ENDSEC
 0
EOF
