  0
SECTION
  2
HEADER
  9
$ACADVER
  1
AC1024
  9
$ACADMAINTVER
 70
     6
  9
$DWGCODEPAGE
  3
ANSI_1252
  9
$LASTSAVEDBY
  1
_assetcache
  9
$INSBASE
 10
0.0
 20
0.0
 30
0.0
  9
$EXTMIN
 10
1.000000000000000E+20
 20
1.000000000000000E+20
 30
1.000000000000000E+20
  9
$EXTMAX
 10
-1.000000000000000E+20
 20
-1.000000000000000E+20
 30
-1.000000000000000E+20
  9
$LIMMIN
 10
0.0
 20
0.0
  9
$LIMMAX
 10
12.0
 20
9.0
  9
$ORTHOMODE
 70
     0
  9
$REGENMODE
 70
     1
  9
$FILLMODE
 70
     1
  9
$QTEXTMODE
 70
     0
  9
$MIRRTEXT
 70
     1
  9
$LTSCALE
 40
1.0
  9
$ATTMODE
 70
     1
  9
$TEXTSIZE
 40
0.2
  9
$TRACEWID
 40
0.05
  9
$TEXTSTYLE
  7
Standard
  9
$CLAYER
  8
0
  9
$CELTYPE
  6
ByBlock
  9
$CECOLOR
 62
   256
  9
$CELTSCALE
 40
1.0
  9
$DISPSILH
 70
     0
  9
$DIMSCALE
 40
1.0
  9
$DIMASZ
 40
0.18
  9
$DIMEXO
 40
0.0625
  9
$DIMDLI
 40
0.38
  9
$DIMRND
 40
0.0
  9
$DIMDLE
 40
0.0
  9
$DIMEXE
 40
0.18
  9
$DIMTP
 40
0.0
  9
$DIMTM
 40
0.0
  9
$DIMTXT
 40
0.18
  9
$DIMCEN
 40
0.09
  9
$DIMTSZ
 40
0.0
  9
$DIMTOL
 70
     0
  9
$DIMLIM
 70
     0
  9
$DIMTIH
 70
     1
  9
$DIMTOH
 70
     1
  9
$DIMSE1
 70
     0
  9
$DIMSE2
 70
     0
  9
$DIMTAD
 70
     0
  9
$DIMZIN
 70
     0
  9
$DIMBLK
  1

  9
$DIMASO
 70
     1
  9
$DIMSHO
 70
     1
  9
$DIMPOST
  1

  9
$DIMAPOST
  1

  9
$DIMALT
 70
     0
  9
$DIMALTD
 70
     2
  9
$DIMALTF
 40
25.4
  9
$DIMLFAC
 40
1.0
  9
$DIMTOFL
 70
     0
  9
$DIMTVP
 40
0.0
  9
$DIMTIX
 70
     0
  9
$DIMSOXD
 70
     0
  9
$DIMSAH
 70
     0
  9
$DIMBLK1
  1

  9
$DIMBLK2
  1

  9
$DIMSTYLE
  2
Standard
  9
$DIMCLRD
 70
     0
  9
$DIMCLRE
 70
     0
  9
$DIMCLRT
 70
     0
  9
$DIMTFAC
 40
1.0
  9
$DIMGAP
 40
0.09
  9
$DIMJUST
 70
     0
  9
$DIMSD1
 70
     0
  9
$DIMSD2
 70
     0
  9
$DIMTOLJ
 70
     1
  9
$DIMTZIN
 70
     0
  9
$DIMALTZ
 70
     0
  9
$DIMALTTZ
 70
     0
  9
$DIMUPT
 70
     0
  9
$DIMDEC
 70
     4
  9
$DIMTDEC
 70
     4
  9
$DIMALTU
 70
     2
  9
$DIMALTTD
 70
     2
  9
$DIMTXSTY
  7
Standard
  9
$DIMAUNIT
 70
     0
  9
$DIMADEC
 70
     0
  9
$DIMALTRND
 40
0.0
  9
$DIMAZIN
 70
     0
  9
$DIMDSEP
 70
    46
  9
$DIMATFIT
 70
     3
  9
$DIMFRAC
 70
     0
  9
$DIMLDRBLK
  1

  9
$DIMLUNIT
 70
     2
  9
$DIMLWD
 70
    -2
  9
$DIMLWE
 70
    -2
  9
$DIMTMOVE
 70
     2
  9
$DIMFXL
 40
1.0
  9
$DIMFXLON
 70
     0
  9
$DIMJOGANG
 40
0.7853981633974483
  9
$DIMTFILL
 70
     0
  9
$DIMTFILLCLR
 70
     0
  9
$DIMARCSYM
 70
     0
  9
$DIMLTYPE
  6

  9
$DIMLTEX1
  6

  9
$DIMLTEX2
  6

  9
$DIMTXTDIRECTION
 70
     0
  9
$LUNITS
 70
     2
  9
$LUPREC
 70
     4
  9
$SKETCHINC
 40
0.1
  9
$FILLETRAD
 40
0.5
  9
$AUNITS
 70
     0
  9
$AUPREC
 70
     0
  9
$MENU
  1
.
  9
$ELEVATION
 40
0.0
  9
$PELEVATION
 40
0.0
  9
$THICKNESS
 40
0.0
  9
$LIMCHECK
 70
     0
  9
$CHAMFERA
 40
0.0
  9
$CHAMFERB
 40
0.0
  9
$CHAMFERC
 40
0.0
  9
$CHAMFERD
 40
0.0
  9
$SKPOLY
 70
     0
  9
$TDCREATE
 40
2457057.735173611
  9
$TDUCREATE
 40
2457057.651840278
  9
$TDUPDATE
 40
2457058.810289352
  9
$TDUUPDATE
 40
2457058.726956019
  9
$TDINDWG
 40
0.0000000116
  9
$TDUSRTIMER
 40
2457058.289259259
  9
$USRTIMER
 70
     1
  9
$ANGBASE
 50
0.0
  9
$ANGDIR
 70
     0
  9
$PDMODE
 70
     0
  9
$PDSIZE
 40
0.0
  9
$PLINEWID
 40
0.0
  9
$SPLFRAME
 70
     0
  9
$SPLINETYPE
 70
     6
  9
$SPLINESEGS
 70
     8
  9
$HANDSEED
  5
91D
  9
$SURFTAB1
 70
     6
  9
$SURFTAB2
 70
     6
  9
$SURFTYPE
 70
     6
  9
$SURFU
 70
     6
  9
$SURFV
 70
     6
  9
$UCSBASE
  2

  9
$UCSNAME
  2

  9
$UCSORG
 10
0.0
 20
0.0
 30
0.0
  9
$UCSXDIR
 10
-1.0
 20
0.0
 30
0.0
  9
$UCSYDIR
 10
0.0
 20
0.0
 30
1.0
  9
$UCSORTHOREF
  2

  9
$UCSORTHOVIEW
 70
     4
  9
$UCSORGTOP
 10
0.0
 20
0.0
 30
0.0
  9
$UCSORGBOTTOM
 10
0.0
 20
0.0
 30
0.0
  9
$UCSORGLEFT
 10
0.0
 20
0.0
 30
0.0
  9
$UCSORGRIGHT
 10
0.0
 20
0.0
 30
0.0
  9
$UCSORGFRONT
 10
0.0
 20
0.0
 30
0.0
  9
$UCSORGBACK
 10
0.0
 20
0.0
 30
0.0
  9
$PUCSBASE
  2

  9
$PUCSNAME
  2

  9
$PUCSORG
 10
0.0
 20
0.0
 30
0.0
  9
$PUCSXDIR
 10
1.0
 20
0.0
 30
0.0
  9
$PUCSYDIR
 10
0.0
 20
1.0
 30
0.0
  9
$PUCSORTHOREF
  2

  9
$PUCSORTHOVIEW
 70
     0
  9
$PUCSORGTOP
 10
0.0
 20
0.0
 30
0.0
  9
$PUCSORGBOTTOM
 10
0.0
 20
0.0
 30
0.0
  9
$PUCSORGLEFT
 10
0.0
 20
0.0
 30
0.0
  9
$PUCSORGRIGHT
 10
0.0
 20
0.0
 30
0.0
  9
$PUCSORGFRONT
 10
0.0
 20
0.0
 30
0.0
  9
$PUCSORGBACK
 10
0.0
 20
0.0
 30
0.0
  9
$USERI1
 70
     0
  9
$USERI2
 70
     0
  9
$USERI3
 70
     0
  9
$USERI4
 70
     0
  9
$USERI5
 70
     0
  9
$USERR1
 40
0.0
  9
$USERR2
 40
0.0
  9
$USERR3
 40
0.0
  9
$USERR4
 40
0.0
  9
$USERR5
 40
0.0
  9
$WORLDVIEW
 70
     1
  9
$SHADEDGE
 70
     3
  9
$SHADEDIF
 70
    70
  9
$TILEMODE
 70
     1
  9
$MAXACTVP
 70
    64
  9
$PINSBASE
 10
0.0
 20
0.0
 30
0.0
  9
$PLIMCHECK
 70
     0
  9
$PEXTMIN
 10
1.066666666666666
 20
0.8166666666666664
 30
0.0
  9
$PEXTMAX
 10
9.600000000000001
 20
7.350000000000001
 30
0.0
  9
$PLIMMIN
 10
-0.1666666666666667
 20
-0.1666666666666667
  9
$PLIMMAX
 10
10.83333333333333
 20
8.333333333333334
  9
$UNITMODE
 70
     0
  9
$VISRETAIN
 70
     1
  9
$PLINEGEN
 70
     0
  9
$PSLTSCALE
 70
     1
  9
$TREEDEPTH
 70
  3020
  9
$CMLSTYLE
  2
Standard
  9
$CMLJUST
 70
     0
  9
$CMLSCALE
 40
1.0
  9
$PROXYGRAPHICS
 70
     1
  9
$MEASUREMENT
 70
     0
  9
$CELWEIGHT
370
    -1
  9
$ENDCAPS
280
     0
  9
$JOINSTYLE
280
     0
  9
$LWDISPLAY
290
     0
  9
$INSUNITS
 70
     0
  9
$HYPERLINKBASE
  1

  9
$STYLESHEET
  1

  9
$XEDIT
290
     1
  9
$CEPSNTYPE
380
     0
  9
$PSTYLEMODE
290
     1
  9
$FINGERPRINTGUID
  2
{5C409D39-716E-0C42-EEA4-C5DC53362B4D}
  9
$VERSIONGUID
  2
{FAEB1C32-E019-11D5-929B-00C0DF256EC4}
  9
$EXTNAMES
290
     1
  9
$PSVPSCALE
 40
0.0
  9
$OLESTARTUP
290
     0
  9
$SORTENTS
280
   127
  9
$INDEXCTL
280
     0
  9
$HIDETEXT
280
     1
  9
$XCLIPFRAME
280
     2
  9
$HALOGAP
280
     0
  9
$OBSCOLOR
 70
   257
  9
$OBSLTYPE
280
     0
  9
$INTERSECTIONDISPLAY
280
     0
  9
$INTERSECTIONCOLOR
 70
   257
  9
$DIMASSOC
280
     2
  9
$PROJECTNAME
  1

  9
$CAMERADISPLAY
290
     0
  9
$LENSLENGTH
 40
50.0
  9
$CAMERAHEIGHT
 40
0.0
  9
$STEPSPERSEC
 40
2.0
  9
$STEPSIZE
 40
6.0
  9
$3DDWFPREC
 40
2.0
  9
$PSOLWIDTH
 40
0.25
  9
$PSOLHEIGHT
 40
4.0
  9
$LOFTANG1
 40
1.570796326794897
  9
$LOFTANG2
 40
1.570796326794897
  9
$LOFTMAG1
 40
0.0
  9
$LOFTMAG2
 40
0.0
  9
$LOFTPARAM
 70
     7
  9
$LOFTNORMALS
280
     1
  9
$LATITUDE
 40
37.795
  9
$LONGITUDE
 40
-122.394
  9
$NORTHDIRECTION
 40
0.0
  9
$TIMEZONE
 70
 -8000
  9
$LIGHTGLYPHDISPLAY
280
     1
  9
$TILEMODELIGHTSYNCH
280
     1
  9
$SOLIDHIST
280
     0
  9
$SHOWHIST
280
     1
  9
$DWFFRAME
280
     2
  9
$DGNFRAME
280
     2
  9
$REALWORLDSCALE
290
     1
  9
$INTERFERECOLOR
 62
   256
  9
$CSHADOW
280
     0
  9
$SHADOWPLANELOCATION
 40
0.0
  0
ENDSEC
  0
SECTION
  2
CLASSES
  0
CLASS
  1
ACDBDICTIONARYWDFLT
  2
AcDbDictionaryWithDefault
  3
ObjectDBX Classes
 90
        0
 91
        6
280
     0
281
     0
  0
CLASS
  1
SCALE
  2
AcDbScale
  3
ObjectDBX Classes
 90
     1153
 91
        6
280
     0
281
     0
  0
CLASS
  1
VISUALSTYLE
  2
AcDbVisualStyle
  3
ObjectDBX Classes
 90
     4095
 91
        6
280
     0
281
     0
  0
CLASS
  1
MATERIAL
  2
AcDbMaterial
  3
ObjectDBX Classes
 90
     1153
 91
        6
280
     0
281
     0
  0
CLASS
  1
TABLESTYLE
  2
AcDbTableStyle
  3
ObjectDBX Classes
 90
     4095
 91
        6
280
     0
281
     0
  0
CLASS
  1
MLEADERSTYLE
  2
AcDbMLeaderStyle
  3
ACDB_MLEADERSTYLE_CLASS
 90
     4095
 91
        6
280
     0
281
     0
  0
CLASS
  1
SUN
  2
AcDbSun
  3
SCENEOE
 90
     1153
 91
        6
280
     0
281
     0
  0
CLASS
  1
RASTERVARIABLES
  2
AcDbRasterVariables
  3
ISM
 90
        0
 91
        6
280
     0
281
     0
  0
CLASS
  1
DICTIONARYVAR
  2
AcDbDictionaryVar
  3
ObjectDBX Classes
 90
        0
 91
        5
280
     0
281
     0
  0
CLASS
  1
CELLSTYLEMAP
  2
AcDbCellStyleMap
  3
ObjectDBX Classes
 90
     1152
 91
        5
280
     0
281
     0
  0
ENDSEC
  0
SECTION
  2
TABLES
  0
TABLE
  2
VPORT
  5
8
330
0
100
AcDbSymbolTable
 70
     1
  0
VPORT
  5
37F
330
8
100
AcDbSymbolTableRecord
100
AcDbViewportTableRecord
  2
*Active
 70
     0
 10
0.0
 20
0.0
 11
1.0
 21
1.0
 12
-492.3073767414246
 22
264.3283009703207
 13
0.0
 23
0.0
 14
0.5
 24
0.5
 15
0.5
 25
0.5
 16
0.0
 26
1.0
 36
0.0
 17
-44.67607347701289
 27
-285.3572202382284
 37
549.4773230470128
 40
717.1875000000001
 41
1.515933232169955
 42
50.0
 43
0.0
 44
0.0
 50
0.0
 51
0.0
 71
    16
 72
   100
 73
     1
 74
     3
 75
     0
 76
     0
 77
     0
 78
     0
281
     0
 65
     1
110
0.0
120
0.0
130
0.0
111
-1.0
121
0.0
131
0.0
112
0.0
122
0.0
132
1.0
 79
     4
146
0.0
348
3AD
 60
     3
 61
     5
292
     1
282
     1
141
0.0
142
0.0
 63
   250
361
3CA
  0
ENDTAB
  0
TABLE
  2
LTYPE
  5
5
330
0
100
AcDbSymbolTable
 70
     1
  0
LTYPE
  5
14
330
5
100
AcDbSymbolTableRecord
100
AcDbLinetypeTableRecord
  2
ByBlock
 70
     0
  3

 72
    65
 73
     0
 40
0.0
  0
LTYPE
  5
15
330
5
100
AcDbSymbolTableRecord
100
AcDbLinetypeTableRecord
  2
ByLayer
 70
     0
  3

 72
    65
 73
     0
 40
0.0
  0
LTYPE
  5
16
330
5
100
AcDbSymbolTableRecord
100
AcDbLinetypeTableRecord
  2
Continuous
 70
     0
  3
Solid line
 72
    65
 73
     0
 40
0.0
  0
ENDTAB
  0
TABLE
  2
LAYER
  5
2
330
0
100
AcDbSymbolTable
 70
     3
  0
LAYER
  5
10
330
2
100
AcDbSymbolTableRecord
100
AcDbLayerTableRecord
  2
0
 70
     0
 62
     7
  6
Continuous
370
    -3
390
F
347
3C4
  0
LAYER
  5
380
330
2
100
AcDbSymbolTableRecord
100
AcDbLayerTableRecord
  2
Layer0
 70
     0
 62
     7
  6
Continuous
370
    -3
390
F
347
3C4
  0
LAYER
  5
381
330
2
100
AcDbSymbolTableRecord
100
AcDbLayerTableRecord
  2
Unknown
 70
     0
 62
     7
  6
Continuous
370
    -3
390
F
347
3C4
  0
ENDTAB
  0
TABLE
  2
STYLE
  5
3
330
0
100
AcDbSymbolTable
 70
     1
  0
STYLE
  5
11
330
3
100
AcDbSymbolTableRecord
100
AcDbTextStyleTableRecord
  2
Standard
 70
     0
 40
0.0
 41
1.0
 50
0.0
 71
     0
 42
0.2
  3
txt
  4

  0
ENDTAB
  0
TABLE
  2
VIEW
  5
6
330
0
100
AcDbSymbolTable
 70
     0
  0
ENDTAB
  0
TABLE
  2
UCS
  5
7
330
0
100
AcDbSymbolTable
 70
     0
  0
ENDTAB
  0
TABLE
  2
APPID
  5
9
330
0
100
AcDbSymbolTable
 70
     1
  0
APPID
  5
12
330
9
100
AcDbSymbolTableRecord
100
AcDbRegAppTableRecord
  2
ACAD
 70
     0
  0
ENDTAB
  0
TABLE
  2
DIMSTYLE
  5
A
330
0
100
AcDbSymbolTable
 70
     1
100
AcDbDimStyleTable
  0
DIMSTYLE
105
20
330
A
100
AcDbSymbolTableRecord
100
AcDbDimStyleTableRecord
  2
Standard
 70
     0
178
     0
340
11
  0
ENDTAB
  0
TABLE
  2
BLOCK_RECORD
  5
1
330
0
100
AcDbSymbolTable
 70
     2
  0
BLOCK_RECORD
  5
1D
330
1
100
AcDbSymbolTableRecord
100
AcDbBlockTableRecord
  2
*Model_Space
340
1E
 70
     0
280
     1
281
     0
  0
BLOCK_RECORD
  5
1B
330
1
100
AcDbSymbolTableRecord
100
AcDbBlockTableRecord
  2
*Paper_Space
340
1C
 70
     0
280
     1
281
     0
  0
ENDTAB
  0
ENDSEC
  0
SECTION
  2
BLOCKS
  0
BLOCK
  5
3A4
330
1D
100
AcDbEntity
  8
0
100
AcDbBlockBegin
  2
*Model_Space
 70
     0
 10
0.0
 20
0.0
 30
0.0
  3
*Model_Space
  1
*Model_Space
  0
ENDBLK
  5
3A5
330
1D
100
AcDbEntity
  8
0
100
AcDbBlockEnd
  0
BLOCK
  5
3A6
330
1B
100
AcDbEntity
 67
     1
  8
0
100
AcDbBlockBegin
  2
*Paper_Space
 70
     0
 10
0.0
 20
0.0
 30
0.0
  3
*Paper_Space
  1
*Paper_Space
  0
ENDBLK
  5
3A7
330
1B
100
AcDbEntity
 67
     1
  8
0
100
AcDbBlockEnd
  0
ENDSEC
  0
SECTION
  2
ENTITIES
  0
LINE
  5
21
330
1D
100
AcDbEntity
  8
Unknown
100
AcDbLine
 10
472.2665582051873
 20
0.0
 30
898.7996831642815
 11
468.4313752992044
 21
0.0
 31
898.7996831642815
  0
LINE
  5
22
330
1D
100
AcDbEntity
  8
Unknown
100
AcDbLine
 10
468.4313752992044
 20
0.0
 30
898.7996831642815
 11
468.4313752992044
 21
0.0
 31
874.991664605063
  0
LINE
  5
23
330
1D
100
AcDbEntity
  8
Unknown
100
AcDbLine
 10
468.4313752992044
 20
0.0
 30
874.991664605063
 11
468.5940269257671
 21
0.0
 31
872.0319972400911
  0
LINE
  5
24
330
1D
100
AcDbEntity
  8
Unknown
100
AcDbLine
 10
468.5940269257671
 20
0.0
 30
872.0319972400911
 11
469.0819834319838
 21
0.0
 31
869.6280063316783
  0
LINE
  5
25
330
1D
100
AcDbEntity
  8
Unknown
100
AcDbLine
 10
469.0819834319838
 20
0.0
 30
869.6280063316783
 11
469.8952472576472
 21
0.0
 31
867.7796839067223
  0
LINE
  5
26
330
1D
100
AcDbEntity
  8
Unknown
100
AcDbLine
 10
469.8952472576472
 20
0.0
 30
867.7796839067223
 11
471.0338208425499
 21
0.0
 31
866.4870219921204
  0
LINE
  5
27
330
1D
100
AcDbEntity
  8
Unknown
100
AcDbLine
 10
471.0338208425499
 20
0.0
 30
866.4870219921204
 11
472.6922570424953
 21
0.0
 31
865.5990435503063
  0
LINE
  5
28
330
1D
100
AcDbEntity
  8
Unknown
100
AcDbLine
 10
472.6922570424953
 20
0.0
 30
865.5990435503063
 11
475.0651139119517
 21
0.0
 31
864.9647755905784
  0
LINE
  5
29
330
1D
100
AcDbEntity
  8
Unknown
100
AcDbLine
 10
475.0651139119517
 20
0.0
 30
864.9647755905784
 11
481.9541306105596
 21
0.0
 31
864.457363506162
  0
LINE
  5
2A
330
1D
100
AcDbEntity
  8
Unknown
100
AcDbLine
 10
481.9541306105596
 20
0.0
 30
864.457363506162
 11
488.5007193612283
 21
0.0
 31
864.9460978451398
  0
LINE
  5
2B
330
1D
100
AcDbEntity
  8
Unknown
100
AcDbLine
 10
488.5007193612283
 20
0.0
 30
864.9460978451398
 11
490.837777417046
 21
0.0
 31
865.5570185180065
  0
LINE
  5
2C
330
1D
100
AcDbEntity
  8
Unknown
100
AcDbLine
 10
490.837777417046
 20
0.0
 30
865.5570185180065
 11
492.5506911722202
 21
0.0
 31
866.412310636809
  0
LINE
  5
2D
330
1D
100
AcDbEntity
  8
Unknown
100
AcDbLine
 10
492.5506911722202
 20
0.0
 30
866.412310636809
 11
493.7764282851538
 21
0.0
 31
867.6100272325858
  0
LINE
  5
2E
330
1D
100
AcDbEntity
  8
Unknown
100
AcDbLine
 10
493.7764282851538
 20
0.0
 30
867.6100272325858
 11
494.6519515424469
 21
0.0
 31
869.2482247606457
  0
LINE
  5
2F
330
1D
100
AcDbEntity
  8
Unknown
100
AcDbLine
 10
494.6519515424469
 20
0.0
 30
869.2482247606457
 11
495.1772635706706
 21
0.0
 31
871.3269101901572
  0
LINE
  5
30
330
1D
100
AcDbEntity
  8
Unknown
100
AcDbLine
 10
495.1772635706706
 20
0.0
 30
871.3269101901572
 11
495.352366996396
 21
0.0
 31
873.846090490289
  0
LINE
  5
31
330
1D
100
AcDbEntity
  8
Unknown
100
AcDbLine
 10
495.352366996396
 20
0.0
 30
873.846090490289
 11
495.352366996396
 21
0.0
 31
874.991664605063
  0
LINE
  5
32
330
1D
100
AcDbEntity
  8
Unknown
100
AcDbLine
 10
495.352366996396
 20
0.0
 30
874.991664605063
 11
495.352366996396
 21
0.0
 31
898.7996831642815
  0
LINE
  5
33
330
1D
100
AcDbEntity
  8
Unknown
100
AcDbLine
 10
495.352366996396
 20
0.0
 30
898.7996831642815
 11
491.5171840904131
 21
0.0
 31
898.7996831642815
  0
LINE
  5
34
330
1D
100
AcDbEntity
  8
Unknown
100
AcDbLine
 10
491.5171840904131
 20
0.0
 30
898.7996831642815
 11
491.5171840904131
 21
0.0
 31
874.991664605063
  0
LINE
  5
35
330
1D
100
AcDbEntity
  8
Unknown
100
AcDbLine
 10
491.5171840904131
 20
0.0
 30
874.991664605063
 11
491.1249514362016
 21
0.0
 31
871.0599750335567
  0
LINE
  5
36
330
1D
100
AcDbEntity
  8
Unknown
100
AcDbLine
 10
491.1249514362016
 20
0.0
 30
871.0599750335567
 11
490.6346584121175
 21
0.0
 31
869.7688733916776
  0
LINE
  5
37
330
1D
100
AcDbEntity
  8
Unknown
100
AcDbLine
 10
490.6346584121175
 20
0.0
 30
869.7688733916776
 11
489.9482456288746
 21
0.0
 31
868.9275929322913
  0
LINE
  5
38
330
1D
100
AcDbEntity
  8
Unknown
100
AcDbLine
 10
489.9482456288746
 20
0.0
 30
868.9275929322913
 11
488.8773835464835
 21
0.0
 31
868.3882686026005
  0
LINE
  5
39
330
1D
100
AcDbEntity
  8
Unknown
100
AcDbLine
 10
488.8773835464835
 20
0.0
 30
868.3882686026005
 11
487.2337387804327
 21
0.0
 31
868.0030383693917
  0
LINE
  5
3A
330
1D
100
AcDbEntity
  8
Unknown
100
AcDbLine
 10
487.2337387804327
 20
0.0
 30
868.0030383693917
 11
482.2280722467013
 21
0.0
 31
867.6948555696541
  0
LINE
  5
3B
330
1D
100
AcDbEntity
  8
Unknown
100
AcDbLine
 10
482.2280722467013
 20
0.0
 30
867.6948555696541
 11
476.8114926984223
 21
0.0
 31
867.9968124542454
  0
LINE
  5
3C
330
1D
100
AcDbEntity
  8
Unknown
100
AcDbLine
 10
476.8114926984223
 20
0.0
 30
867.9968124542454
 11
475.0464424002418
 21
0.0
 31
868.3742602585007
  0
LINE
  5
3D
330
1D
100
AcDbEntity
  8
Unknown
100
AcDbLine
 10
475.0464424002418
 20
0.0
 30
868.3742602585007
 11
473.910208022037
 21
0.0
 31
868.9026891471876
  0
LINE
  5
3E
330
1D
100
AcDbEntity
  8
Unknown
100
AcDbLine
 10
473.910208022037
 20
0.0
 30
868.9026891471876
 11
473.1911089157827
 21
0.0
 31
869.7361871153606
  0
LINE
  5
3F
330
1D
100
AcDbEntity
  8
Unknown
100
AcDbLine
 10
473.1911089157827
 20
0.0
 30
869.7361871153606
 11
472.6774686048374
 21
0.0
 31
871.0288452087879
  0
LINE
  5
40
330
1D
100
AcDbEntity
  8
Unknown
100
AcDbLine
 10
472.6774686048374
 20
0.0
 30
871.0288452087879
 11
472.2665582051873
 21
0.0
 31
874.991664605063
  0
LINE
  5
41
330
1D
100
AcDbEntity
  8
Unknown
100
AcDbLine
 10
472.2665582051873
 20
0.0
 30
874.991664605063
 11
472.2665582051873
 21
0.0
 31
898.7996831642815
  0
LINE
  5
42
330
1D
100
AcDbEntity
  8
Unknown
100
AcDbLine
 10
462.1556214530505
 20
0.0
 30
888.6140350568336
 11
458.7936104640395
 21
0.0
 31
888.6140350568336
  0
LINE
  5
43
330
1D
100
AcDbEntity
  8
Unknown
100
AcDbLine
 10
458.7936104640395
 20
0.0
 30
888.6140350568336
 11
458.8932256044547
 21
0.0
 31
885.3765429933414
  0
LINE
  5
44
330
1D
100
AcDbEntity
  8
Unknown
100
AcDbLine
 10
458.8932256044547
 20
0.0
 30
885.3765429933414
 11
458.7936104640395
 21
0.0
 31
885.3018316380301
  0
LINE
  5
45
330
1D
100
AcDbEntity
  8
Unknown
100
AcDbLine
 10
458.7936104640395
 20
0.0
 30
885.3018316380301
 11
457.7009576163771
 21
0.0
 31
886.9034614655967
  0
LINE
  5
46
330
1D
100
AcDbEntity
  8
Unknown
100
AcDbLine
 10
457.7009576163771
 20
0.0
 30
886.9034614655967
 11
456.0168443396165
 21
0.0
 31
888.047478521793
  0
LINE
  5
47
330
1D
100
AcDbEntity
  8
Unknown
100
AcDbLine
 10
456.0168443396165
 20
0.0
 30
888.047478521793
 11
453.7412632093163
 21
0.0
 31
888.733886238672
  0
LINE
  5
48
330
1D
100
AcDbEntity
  8
Unknown
100
AcDbLine
 10
453.7412632093163
 20
0.0
 30
888.733886238672
 11
450.8742068010359
 21
0.0
 31
888.9626880482865
  0
LINE
  5
49
330
1D
100
AcDbEntity
  8
Unknown
100
AcDbLine
 10
450.8742068010359
 20
0.0
 30
888.9626880482865
 11
446.5938646116334
 21
0.0
 31
888.5144221577591
  0
LINE
  5
4A
330
1D
100
AcDbEntity
  8
Unknown
100
AcDbLine
 10
446.5938646116334
 20
0.0
 30
888.5144221577591
 11
445.072403261059
 21
0.0
 31
887.9540872730913
  0
LINE
  5
4B
330
1D
100
AcDbEntity
  8
Unknown
100
AcDbLine
 10
445.072403261059
 20
0.0
 30
887.9540872730913
 11
443.9634064347354
 21
0.0
 31
887.1696155208139
  0
LINE
  5
4C
330
1D
100
AcDbEntity
  8
Unknown
100
AcDbLine
 10
443.9634064347354
 20
0.0
 30
887.1696155208139
 11
443.173486961956
 21
0.0
 31
886.0676228898876
  0
LINE
  5
4D
330
1D
100
AcDbEntity
  8
Unknown
100
AcDbLine
 10
443.173486961956
 20
0.0
 30
886.0676228898876
 11
442.6092608628117
 21
0.0
 31
884.554722194041
  0
LINE
  5
4E
330
1D
100
AcDbEntity
  8
Unknown
100
AcDbLine
 10
442.6092608628117
 20
0.0
 30
884.554722194041
 11
442.157882014711
 21
0.0
 31
880.2961708321693
  0
LINE
  5
4F
330
1D
100
AcDbEntity
  8
Unknown
100
AcDbLine
 10
442.157882014711
 20
0.0
 30
880.2961708321693
 11
442.157882014711
 21
0.0
 31
864.8060164976149
  0
LINE
  5
50
330
1D
100
AcDbEntity
  8
Unknown
100
AcDbLine
 10
442.157882014711
 20
0.0
 30
864.8060164976149
 11
445.644411929241
 21
0.0
 31
864.8060164976149
  0
LINE
  5
51
330
1D
100
AcDbEntity
  8
Unknown
100
AcDbLine
 10
445.644411929241
 20
0.0
 30
864.8060164976149
 11
445.644411929241
 21
0.0
 31
879.9973254109237
  0
LINE
  5
52
330
1D
100
AcDbEntity
  8
Unknown
100
AcDbLine
 10
445.644411929241
 20
0.0
 30
879.9973254109237
 11
445.644411929241
 21
0.0
 31
880.8938616746602
  0
LINE
  5
53
330
1D
100
AcDbEntity
  8
Unknown
100
AcDbLine
 10
445.644411929241
 20
0.0
 30
880.8938616746602
 11
445.9370299411131
 21
0.0
 31
883.4558410731554
  0
LINE
  5
54
330
1D
100
AcDbEntity
  8
Unknown
100
AcDbLine
 10
445.9370299411131
 20
0.0
 30
883.4558410731554
 11
446.8148898291189
 21
0.0
 31
885.0154381093365
  0
LINE
  5
55
330
1D
100
AcDbEntity
  8
Unknown
100
AcDbLine
 10
446.8148898291189
 20
0.0
 30
885.0154381093365
 11
448.5270223467175
 21
0.0
 31
885.8092475825332
  0
LINE
  5
56
330
1D
100
AcDbEntity
  8
Unknown
100
AcDbLine
 10
448.5270223467175
 20
0.0
 30
885.8092475825332
 11
451.322474932904
 21
0.0
 31
886.0738489762474
  0
LINE
  5
57
330
1D
100
AcDbEntity
  8
Unknown
100
AcDbLine
 10
451.322474932904
 20
0.0
 30
886.0738489762474
 11
454.5366300290408
 21
0.0
 31
885.6395924804482
  0
LINE
  5
58
330
1D
100
AcDbEntity
  8
Unknown
100
AcDbLine
 10
454.5366300290408
 20
0.0
 30
885.6395924804482
 11
456.8324465703872
 21
0.0
 31
884.3368186504534
  0
LINE
  5
59
330
1D
100
AcDbEntity
  8
Unknown
100
AcDbLine
 10
456.8324465703872
 20
0.0
 30
884.3368186504534
 11
457.635980035343
 21
0.0
 31
883.3597356995401
  0
LINE
  5
5A
330
1D
100
AcDbEntity
  8
Unknown
100
AcDbLine
 10
457.635980035343
 20
0.0
 30
883.3597356995401
 11
458.209931444396
 21
0.0
 31
882.1655209723666
  0
LINE
  5
5B
330
1D
100
AcDbEntity
  8
Unknown
100
AcDbLine
 10
458.209931444396
 20
0.0
 30
882.1655209723666
 11
458.6690915385206
 21
0.0
 31
879.1256929322915
  0
LINE
  5
5C
330
1D
100
AcDbEntity
  8
Unknown
100
AcDbLine
 10
458.6690915385206
 20
0.0
 30
879.1256929322915
 11
458.6690915385206
 21
0.0
 31
864.8060164976149
  0
LINE
  5
5D
330
1D
100
AcDbEntity
  8
Unknown
100
AcDbLine
 10
458.6690915385206
 20
0.0
 30
864.8060164976149
 11
462.1556214530505
 21
0.0
 31
864.8060164976149
  0
LINE
  5
5E
330
1D
100
AcDbEntity
  8
Unknown
100
AcDbLine
 10
462.1556214530505
 20
0.0
 30
864.8060164976149
 11
462.1556214530505
 21
0.0
 31
888.6140350568336
  0
LINE
  5
5F
330
1D
100
AcDbEntity
  8
Unknown
100
AcDbLine
 10
432.3706944689235
 20
0.0
 30
898.7996831642815
 11
432.3706944689235
 21
0.0
 31
879.0509815769799
  0
LINE
  5
60
330
1D
100
AcDbEntity
  8
Unknown
100
AcDbLine
 10
432.3706944689235
 20
0.0
 30
879.0509815769799
 11
430.7768522222813
 21
0.0
 31
879.0509815769799
  0
LINE
  5
61
330
1D
100
AcDbEntity
  8
Unknown
100
AcDbLine
 10
430.7768522222813
 20
0.0
 30
879.0509815769799
 11
422.3593728572019
 21
0.0
 31
888.6140350568336
  0
LINE
  5
62
330
1D
100
AcDbEntity
  8
Unknown
100
AcDbLine
 10
422.3593728572019
 20
0.0
 30
888.6140350568336
 11
417.9763066789358
 21
0.0
 31
888.6140350568336
  0
LINE
  5
63
330
1D
100
AcDbEntity
  8
Unknown
100
AcDbLine
 10
417.9763066789358
 20
0.0
 30
888.6140350568336
 11
428.1619547863839
 21
0.0
 31
877.6812733962718
  0
LINE
  5
64
330
1D
100
AcDbEntity
  8
Unknown
100
AcDbLine
 10
428.1619547863839
 20
0.0
 30
877.6812733962718
 11
416.1334265812556
 21
0.0
 31
864.8060164976149
  0
LINE
  5
65
330
1D
100
AcDbEntity
  8
Unknown
100
AcDbLine
 10
416.1334265812556
 20
0.0
 30
864.8060164976149
 11
420.840241965871
 21
0.0
 31
864.8060164976149
  0
LINE
  5
66
330
1D
100
AcDbEntity
  8
Unknown
100
AcDbLine
 10
420.840241965871
 20
0.0
 30
864.8060164976149
 11
430.9511787180078
 21
0.0
 31
876.3364690006674
  0
LINE
  5
67
330
1D
100
AcDbEntity
  8
Unknown
100
AcDbLine
 10
430.9511787180078
 20
0.0
 30
876.3364690006674
 11
432.3706944689235
 21
0.0
 31
876.3364690006674
  0
LINE
  5
68
330
1D
100
AcDbEntity
  8
Unknown
100
AcDbLine
 10
432.3706944689235
 20
0.0
 30
876.3364690006674
 11
432.3706944689235
 21
0.0
 31
864.8060164976149
  0
LINE
  5
69
330
1D
100
AcDbEntity
  8
Unknown
100
AcDbLine
 10
432.3706944689235
 20
0.0
 30
864.8060164976149
 11
435.8572243834535
 21
0.0
 31
864.8060164976149
  0
LINE
  5
6A
330
1D
100
AcDbEntity
  8
Unknown
100
AcDbLine
 10
435.8572243834535
 20
0.0
 30
864.8060164976149
 11
435.8572243834535
 21
0.0
 31
898.7996831642815
  0
LINE
  5
6B
330
1D
100
AcDbEntity
  8
Unknown
100
AcDbLine
 10
435.8572243834535
 20
0.0
 30
898.7996831642815
 11
432.3706944689235
 21
0.0
 31
898.7996831642815
  0
LINE
  5
6C
330
1D
100
AcDbEntity
  8
Unknown
100
AcDbLine
 10
413.9169897070188
 20
0.0
 30
888.6140350568336
 11
410.5549787180078
 21
0.0
 31
888.6140350568336
  0
LINE
  5
6D
330
1D
100
AcDbEntity
  8
Unknown
100
AcDbLine
 10
410.5549787180078
 20
0.0
 30
888.6140350568336
 11
410.6545938584229
 21
0.0
 31
885.3765429933414
  0
LINE
  5
6E
330
1D
100
AcDbEntity
  8
Unknown
100
AcDbLine
 10
410.6545938584229
 20
0.0
 30
885.3765429933414
 11
410.5549787180078
 21
0.0
 31
885.3018316380301
  0
LINE
  5
6F
330
1D
100
AcDbEntity
  8
Unknown
100
AcDbLine
 10
410.5549787180078
 20
0.0
 30
885.3018316380301
 11
409.4623258703455
 21
0.0
 31
886.9034614655967
  0
LINE
  5
70
330
1D
100
AcDbEntity
  8
Unknown
100
AcDbLine
 10
409.4623258703455
 20
0.0
 30
886.9034614655967
 11
407.7782125935847
 21
0.0
 31
888.047478521793
  0
LINE
  5
71
330
1D
100
AcDbEntity
  8
Unknown
100
AcDbLine
 10
407.7782125935847
 20
0.0
 30
888.047478521793
 11
405.5026314632846
 21
0.0
 31
888.733886238672
  0
LINE
  5
72
330
1D
100
AcDbEntity
  8
Unknown
100
AcDbLine
 10
405.5026314632846
 20
0.0
 30
888.733886238672
 11
402.6355750550041
 21
0.0
 31
888.9626880482865
  0
LINE
  5
73
330
1D
100
AcDbEntity
  8
Unknown
100
AcDbLine
 10
402.6355750550041
 20
0.0
 30
888.9626880482865
 11
398.3552328656016
 21
0.0
 31
888.5144221577591
  0
LINE
  5
74
330
1D
100
AcDbEntity
  8
Unknown
100
AcDbLine
 10
398.3552328656016
 20
0.0
 30
888.5144221577591
 11
396.8337715150273
 21
0.0
 31
887.9540872730913
  0
LINE
  5
75
330
1D
100
AcDbEntity
  8
Unknown
100
AcDbLine
 10
396.8337715150273
 20
0.0
 30
887.9540872730913
 11
395.7247746887037
 21
0.0
 31
887.1696155208139
  0
LINE
  5
76
330
1D
100
AcDbEntity
  8
Unknown
100
AcDbLine
 10
395.7247746887037
 20
0.0
 30
887.1696155208139
 11
394.9348552159244
 21
0.0
 31
886.0676228898876
  0
LINE
  5
77
330
1D
100
AcDbEntity
  8
Unknown
100
AcDbLine
 10
394.9348552159244
 20
0.0
 30
886.0676228898876
 11
394.3706291167799
 21
0.0
 31
884.554722194041
  0
LINE
  5
78
330
1D
100
AcDbEntity
  8
Unknown
100
AcDbLine
 10
394.3706291167799
 20
0.0
 30
884.554722194041
 11
393.9192502686794
 21
0.0
 31
880.2961708321693
  0
LINE
  5
79
330
1D
100
AcDbEntity
  8
Unknown
100
AcDbLine
 10
393.9192502686794
 20
0.0
 30
880.2961708321693
 11
393.9192502686794
 21
0.0
 31
864.8060164976149
  0
LINE
  5
7A
330
1D
100
AcDbEntity
  8
Unknown
100
AcDbLine
 10
393.9192502686794
 20
0.0
 30
864.8060164976149
 11
397.4057801832093
 21
0.0
 31
864.8060164976149
  0
LINE
  5
7B
330
1D
100
AcDbEntity
  8
Unknown
100
AcDbLine
 10
397.4057801832093
 20
0.0
 30
864.8060164976149
 11
397.4057801832093
 21
0.0
 31
879.9973254109237
  0
LINE
  5
7C
330
1D
100
AcDbEntity
  8
Unknown
100
AcDbLine
 10
397.4057801832093
 20
0.0
 30
879.9973254109237
 11
397.4057801832093
 21
0.0
 31
880.8938616746602
  0
LINE
  5
7D
330
1D
100
AcDbEntity
  8
Unknown
100
AcDbLine
 10
397.4057801832093
 20
0.0
 30
880.8938616746602
 11
397.6983981950814
 21
0.0
 31
883.4558410731554
  0
LINE
  5
7E
330
1D
100
AcDbEntity
  8
Unknown
100
AcDbLine
 10
397.6983981950814
 20
0.0
 30
883.4558410731554
 11
398.5762580830872
 21
0.0
 31
885.0154381093365
  0
LINE
  5
7F
330
1D
100
AcDbEntity
  8
Unknown
100
AcDbLine
 10
398.5762580830872
 20
0.0
 30
885.0154381093365
 11
400.2883906006857
 21
0.0
 31
885.8092475825332
  0
LINE
  5
80
330
1D
100
AcDbEntity
  8
Unknown
100
AcDbLine
 10
400.2883906006857
 20
0.0
 30
885.8092475825332
 11
403.0838431868722
 21
0.0
 31
886.0738489762474
  0
LINE
  5
81
330
1D
100
AcDbEntity
  8
Unknown
100
AcDbLine
 10
403.0838431868722
 20
0.0
 30
886.0738489762474
 11
406.2979982830091
 21
0.0
 31
885.6395924804482
  0
LINE
  5
82
330
1D
100
AcDbEntity
  8
Unknown
100
AcDbLine
 10
406.2979982830091
 20
0.0
 30
885.6395924804482
 11
408.5938148243555
 21
0.0
 31
884.3368186504534
  0
LINE
  5
83
330
1D
100
AcDbEntity
  8
Unknown
100
AcDbLine
 10
408.5938148243555
 20
0.0
 30
884.3368186504534
 11
409.3973482893113
 21
0.0
 31
883.3597356995401
  0
LINE
  5
84
330
1D
100
AcDbEntity
  8
Unknown
100
AcDbLine
 10
409.3973482893113
 20
0.0
 30
883.3597356995401
 11
409.9712996983644
 21
0.0
 31
882.1655209723666
  0
LINE
  5
85
330
1D
100
AcDbEntity
  8
Unknown
100
AcDbLine
 10
409.9712996983644
 20
0.0
 30
882.1655209723666
 11
410.4304597924889
 21
0.0
 31
879.1256929322915
  0
LINE
  5
86
330
1D
100
AcDbEntity
  8
Unknown
100
AcDbLine
 10
410.4304597924889
 20
0.0
 30
879.1256929322915
 11
410.4304597924889
 21
0.0
 31
864.8060164976149
  0
LINE
  5
87
330
1D
100
AcDbEntity
  8
Unknown
100
AcDbLine
 10
410.4304597924889
 20
0.0
 30
864.8060164976149
 11
413.9169897070188
 21
0.0
 31
864.8060164976149
  0
LINE
  5
88
330
1D
100
AcDbEntity
  8
Unknown
100
AcDbLine
 10
413.9169897070188
 20
0.0
 30
864.8060164976149
 11
413.9169897070188
 21
0.0
 31
888.6140350568336
  0
LINE
  5
89
330
1D
100
AcDbEntity
  8
Unknown
100
AcDbLine
 10
377.7815975214266
 20
0.0
 30
888.9626880482865
 11
374.7713441386737
 21
0.0
 31
888.8194923579155
  0
LINE
  5
8A
330
1D
100
AcDbEntity
  8
Unknown
100
AcDbLine
 10
374.7713441386737
 20
0.0
 30
888.8194923579155
 11
372.3401146861195
 21
0.0
 31
888.3899038548348
  0
LINE
  5
8B
330
1D
100
AcDbEntity
  8
Unknown
100
AcDbLine
 10
372.3401146861195
 20
0.0
 30
888.3899038548348
 11
370.4879011322934
 21
0.0
 31
887.6739203910929
  0
LINE
  5
8C
330
1D
100
AcDbEntity
  8
Unknown
100
AcDbLine
 10
370.4879011322934
 20
0.0
 30
887.6739203910929
 11
369.2146954457245
 21
0.0
 31
886.6715398187382
  0
LINE
  5
8D
330
1D
100
AcDbEntity
  8
Unknown
100
AcDbLine
 10
369.2146954457245
 20
0.0
 30
886.6715398187382
 11
368.3539556064201
 21
0.0
 31
885.1897649786198
  0
LINE
  5
8E
330
1D
100
AcDbEntity
  8
Unknown
100
AcDbLine
 10
368.3539556064201
 20
0.0
 30
885.1897649786198
 11
367.7391437190765
 21
0.0
 31
883.0355939176077
  0
LINE
  5
8F
330
1D
100
AcDbEntity
  8
Unknown
100
AcDbLine
 10
367.7391437190765
 20
0.0
 30
883.0355939176077
 11
367.2472964225256
 21
0.0
 31
876.7100257772242
  0
LINE
  5
90
330
1D
100
AcDbEntity
  8
Unknown
100
AcDbLine
 10
367.2472964225256
 20
0.0
 30
876.7100257772242
 11
367.7391437190765
 21
0.0
 31
870.3844576368408
  0
LINE
  5
91
330
1D
100
AcDbEntity
  8
Unknown
100
AcDbLine
 10
367.7391437190765
 20
0.0
 30
870.3844576368408
 11
368.3539556064201
 21
0.0
 31
868.2302865758287
  0
LINE
  5
92
330
1D
100
AcDbEntity
  8
Unknown
100
AcDbLine
 10
368.3539556064201
 20
0.0
 30
868.2302865758287
 11
369.2146954457245
 21
0.0
 31
866.7485117357103
  0
LINE
  5
93
330
1D
100
AcDbEntity
  8
Unknown
100
AcDbLine
 10
369.2146954457245
 20
0.0
 30
866.7485117357103
 11
370.4879011322934
 21
0.0
 31
865.7461311633556
  0
LINE
  5
94
330
1D
100
AcDbEntity
  8
Unknown
100
AcDbLine
 10
370.4879011322934
 20
0.0
 30
865.7461311633556
 11
372.3401146861195
 21
0.0
 31
865.0301476996137
  0
LINE
  5
95
330
1D
100
AcDbEntity
  8
Unknown
100
AcDbLine
 10
372.3401146861195
 20
0.0
 30
865.0301476996137
 11
374.7713441386737
 21
0.0
 31
864.600559196533
  0
LINE
  5
96
330
1D
100
AcDbEntity
  8
Unknown
100
AcDbLine
 10
374.7713441386737
 20
0.0
 30
864.600559196533
 11
377.7815975214266
 21
0.0
 31
864.457363506162
  0
LINE
  5
97
330
1D
100
AcDbEntity
  8
Unknown
100
AcDbLine
 10
377.7815975214266
 20
0.0
 30
864.457363506162
 11
380.7809554631756
 21
0.0
 31
864.600559196533
  0
LINE
  5
98
330
1D
100
AcDbEntity
  8
Unknown
100
AcDbLine
 10
380.7809554631756
 20
0.0
 30
864.600559196533
 11
383.2044024867761
 21
0.0
 31
865.0301476996137
  0
LINE
  5
99
330
1D
100
AcDbEntity
  8
Unknown
100
AcDbLine
 10
383.2044024867761
 20
0.0
 30
865.0301476996137
 11
385.0519466003514
 21
0.0
 31
865.7461311633556
  0
LINE
  5
9A
330
1D
100
AcDbEntity
  8
Unknown
100
AcDbLine
 10
385.0519466003514
 20
0.0
 30
865.7461311633556
 11
386.3235958120248
 21
0.0
 31
866.7485117357103
  0
LINE
  5
9B
330
1D
100
AcDbEntity
  8
Unknown
100
AcDbLine
 10
386.3235958120248
 20
0.0
 30
866.7485117357103
 11
387.1843356513293
 21
0.0
 31
868.2302865758287
  0
LINE
  5
9C
330
1D
100
AcDbEntity
  8
Unknown
100
AcDbLine
 10
387.1843356513293
 20
0.0
 30
868.2302865758287
 11
387.799147538673
 21
0.0
 31
870.3844576368408
  0
LINE
  5
9D
330
1D
100
AcDbEntity
  8
Unknown
100
AcDbLine
 10
387.799147538673
 20
0.0
 30
870.3844576368408
 11
388.2909948352239
 21
0.0
 31
876.7100257772242
  0
LINE
  5
9E
330
1D
100
AcDbEntity
  8
Unknown
100
AcDbLine
 10
388.2909948352239
 20
0.0
 30
876.7100257772242
 11
387.799147538673
 21
0.0
 31
883.0355939176077
  0
LINE
  5
9F
330
1D
100
AcDbEntity
  8
Unknown
100
AcDbLine
 10
387.799147538673
 20
0.0
 30
883.0355939176077
 11
387.1843356513293
 21
0.0
 31
885.1897649786198
  0
LINE
  5
A0
330
1D
100
AcDbEntity
  8
Unknown
100
AcDbLine
 10
387.1843356513293
 20
0.0
 30
885.1897649786198
 11
386.3235958120248
 21
0.0
 31
886.6715398187382
  0
LINE
  5
A1
330
1D
100
AcDbEntity
  8
Unknown
100
AcDbLine
 10
386.3235958120248
 20
0.0
 30
886.6715398187382
 11
385.0519466003514
 21
0.0
 31
887.6739203910929
  0
LINE
  5
A2
330
1D
100
AcDbEntity
  8
Unknown
100
AcDbLine
 10
385.0519466003514
 20
0.0
 30
887.6739203910929
 11
383.2044024867761
 21
0.0
 31
888.3899038548348
  0
LINE
  5
A3
330
1D
100
AcDbEntity
  8
Unknown
100
AcDbLine
 10
383.2044024867761
 20
0.0
 30
888.3899038548348
 11
380.7809554631756
 21
0.0
 31
888.8194923579155
  0
LINE
  5
A4
330
1D
100
AcDbEntity
  8
Unknown
100
AcDbLine
 10
380.7809554631756
 20
0.0
 30
888.8194923579155
 11
377.7815975214266
 21
0.0
 31
888.9626880482865
  0
LINE
  5
A5
330
1D
100
AcDbEntity
  8
Unknown
100
AcDbLine
 10
377.7815975214266
 20
0.0
 30
886.0738489762474
 11
381.5327345575412
 21
0.0
 31
885.6971811099014
  0
LINE
  5
A6
330
1D
100
AcDbEntity
  8
Unknown
100
AcDbLine
 10
381.5327345575412
 20
0.0
 30
885.6971811099014
 11
382.7475685326448
 21
0.0
 31
885.2263441582016
  0
LINE
  5
A7
330
1D
100
AcDbEntity
  8
Unknown
100
AcDbLine
 10
382.7475685326448
 20
0.0
 30
885.2263441582016
 11
383.5219199878491
 21
0.0
 31
884.5671699774683
  0
LINE
  5
A8
330
1D
100
AcDbEntity
  8
Unknown
100
AcDbLine
 10
383.5219199878491
 20
0.0
 30
884.5671699774683
 11
384.0067671125205
 21
0.0
 31
883.5110946984242
  0
LINE
  5
A9
330
1D
100
AcDbEntity
  8
Unknown
100
AcDbLine
 10
384.0067671125205
 20
0.0
 30
883.5110946984242
 11
384.3530852009609
 21
0.0
 31
881.8495504827506
  0
LINE
  5
AA
330
1D
100
AcDbEntity
  8
Unknown
100
AcDbLine
 10
384.3530852009609
 20
0.0
 30
881.8495504827506
 11
384.6301384249675
 21
0.0
 31
876.7100257772242
  0
LINE
  5
AB
330
1D
100
AcDbEntity
  8
Unknown
100
AcDbLine
 10
384.6301384249675
 20
0.0
 30
876.7100257772242
 11
384.3530852009609
 21
0.0
 31
871.5705010716979
  0
LINE
  5
AC
330
1D
100
AcDbEntity
  8
Unknown
100
AcDbLine
 10
384.3530852009609
 20
0.0
 30
871.5705010716979
 11
384.0067671125205
 21
0.0
 31
869.9089568560242
  0
LINE
  5
AD
330
1D
100
AcDbEntity
  8
Unknown
100
AcDbLine
 10
384.0067671125205
 20
0.0
 30
869.9089568560242
 11
383.5219199878491
 21
0.0
 31
868.8528815769799
  0
LINE
  5
AE
330
1D
100
AcDbEntity
  8
Unknown
100
AcDbLine
 10
383.5219199878491
 20
0.0
 30
868.8528815769799
 11
382.7475685326448
 21
0.0
 31
868.1937073962469
  0
LINE
  5
AF
330
1D
100
AcDbEntity
  8
Unknown
100
AcDbLine
 10
382.7475685326448
 20
0.0
 30
868.1937073962469
 11
381.5327345575412
 21
0.0
 31
867.7228704445471
  0
LINE
  5
B0
330
1D
100
AcDbEntity
  8
Unknown
100
AcDbLine
 10
381.5327345575412
 20
0.0
 30
867.7228704445471
 11
377.7815975214266
 21
0.0
 31
867.3462025782011
  0
LINE
  5
B1
330
1D
100
AcDbEntity
  8
Unknown
100
AcDbLine
 10
377.7815975214266
 20
0.0
 30
867.3462025782011
 11
374.0117826153544
 21
0.0
 31
867.7228704445471
  0
LINE
  5
B2
330
1D
100
AcDbEntity
  8
Unknown
100
AcDbLine
 10
374.0117826153544
 20
0.0
 30
867.7228704445471
 11
372.7922791999999
 21
0.0
 31
868.1937073962469
  0
LINE
  5
B3
330
1D
100
AcDbEntity
  8
Unknown
100
AcDbLine
 10
372.7922791999999
 20
0.0
 30
868.1937073962469
 11
372.0163712699003
 21
0.0
 31
868.8528815769799
  0
LINE
  5
B4
330
1D
100
AcDbEntity
  8
Unknown
100
AcDbLine
 10
372.0163712699003
 20
0.0
 30
868.8528815769799
 11
371.5315241452288
 21
0.0
 31
869.9089568560242
  0
LINE
  5
B5
330
1D
100
AcDbEntity
  8
Unknown
100
AcDbLine
 10
371.5315241452288
 20
0.0
 30
869.9089568560242
 11
371.1852060567885
 21
0.0
 31
871.5705010716979
  0
LINE
  5
B6
330
1D
100
AcDbEntity
  8
Unknown
100
AcDbLine
 10
371.1852060567885
 20
0.0
 30
871.5705010716979
 11
370.9081528327819
 21
0.0
 31
876.7100257772242
  0
LINE
  5
B7
330
1D
100
AcDbEntity
  8
Unknown
100
AcDbLine
 10
370.9081528327819
 20
0.0
 30
876.7100257772242
 11
371.1852060567885
 21
0.0
 31
881.8495504827506
  0
LINE
  5
B8
330
1D
100
AcDbEntity
  8
Unknown
100
AcDbLine
 10
371.1852060567885
 20
0.0
 30
881.8495504827506
 11
371.5315241452288
 21
0.0
 31
883.5110946984242
  0
LINE
  5
B9
330
1D
100
AcDbEntity
  8
Unknown
100
AcDbLine
 10
371.5315241452288
 20
0.0
 30
883.5110946984242
 11
372.0163712699003
 21
0.0
 31
884.5671699774683
  0
LINE
  5
BA
330
1D
100
AcDbEntity
  8
Unknown
100
AcDbLine
 10
372.0163712699003
 20
0.0
 30
884.5671699774683
 11
372.7922791999999
 21
0.0
 31
885.2263441582016
  0
LINE
  5
BB
330
1D
100
AcDbEntity
  8
Unknown
100
AcDbLine
 10
372.7922791999999
 20
0.0
 30
885.2263441582016
 11
374.0117826153544
 21
0.0
 31
885.6971811099014
  0
LINE
  5
BC
330
1D
100
AcDbEntity
  8
Unknown
100
AcDbLine
 10
374.0117826153544
 20
0.0
 30
885.6971811099014
 11
377.7815975214266
 21
0.0
 31
886.0738489762474
  0
LINE
  5
BD
330
1D
100
AcDbEntity
  8
Unknown
100
AcDbLine
 10
330.8379626007917
 20
0.0
 30
888.6140350568336
 11
337.5121770086061
 21
0.0
 31
864.8060164976149
  0
LINE
  5
BE
330
1D
100
AcDbEntity
  8
Unknown
100
AcDbLine
 10
337.5121770086061
 20
0.0
 30
864.8060164976149
 11
342.6921643101934
 21
0.0
 31
864.8060164976149
  0
LINE
  5
BF
330
1D
100
AcDbEntity
  8
Unknown
100
AcDbLine
 10
342.6921643101934
 20
0.0
 30
864.8060164976149
 11
345.8798488034779
 21
0.0
 31
878.0299263877248
  0
LINE
  5
C0
330
1D
100
AcDbEntity
  8
Unknown
100
AcDbLine
 10
345.8798488034779
 20
0.0
 30
878.0299263877248
 11
346.8510964225255
 21
0.0
 31
882.064339574538
  0
LINE
  5
C1
330
1D
100
AcDbEntity
  8
Unknown
100
AcDbLine
 10
346.8510964225255
 20
0.0
 30
882.064339574538
 11
347.2993645543936
 21
0.0
 31
884.0815461679447
  0
LINE
  5
C2
330
1D
100
AcDbEntity
  8
Unknown
100
AcDbLine
 10
347.2993645543936
 20
0.0
 30
884.0815461679447
 11
347.7725364713655
 21
0.0
 31
886.0987527613513
  0
LINE
  5
C3
330
1D
100
AcDbEntity
  8
Unknown
100
AcDbLine
 10
347.7725364713655
 20
0.0
 30
886.0987527613513
 11
347.8472478266769
 21
0.0
 31
886.0987527613513
  0
LINE
  5
C4
330
1D
100
AcDbEntity
  8
Unknown
100
AcDbLine
 10
347.8472478266769
 20
0.0
 30
886.0987527613513
 11
348.3204197436489
 21
0.0
 31
884.0815461679447
  0
LINE
  5
C5
330
1D
100
AcDbEntity
  8
Unknown
100
AcDbLine
 10
348.3204197436489
 20
0.0
 30
884.0815461679447
 11
348.7935916606208
 21
0.0
 31
882.064339574538
  0
LINE
  5
C6
330
1D
100
AcDbEntity
  8
Unknown
100
AcDbLine
 10
348.7935916606208
 20
0.0
 30
882.064339574538
 11
349.7648392796684
 21
0.0
 31
878.0299263877248
  0
LINE
  5
C7
330
1D
100
AcDbEntity
  8
Unknown
100
AcDbLine
 10
349.7648392796684
 20
0.0
 30
878.0299263877248
 11
352.9774275580567
 21
0.0
 31
864.8060164976149
  0
LINE
  5
C8
330
1D
100
AcDbEntity
  8
Unknown
100
AcDbLine
 10
352.9774275580567
 20
0.0
 30
864.8060164976149
 11
358.2570300000591
 21
0.0
 31
864.8060164976149
  0
LINE
  5
C9
330
1D
100
AcDbEntity
  8
Unknown
100
AcDbLine
 10
358.2570300000591
 20
0.0
 30
864.8060164976149
 11
364.7071103419394
 21
0.0
 31
888.6140350568336
  0
LINE
  5
CA
330
1D
100
AcDbEntity
  8
Unknown
100
AcDbLine
 10
364.7071103419394
 20
0.0
 30
888.6140350568336
 11
361.0462539316831
 21
0.0
 31
888.6140350568336
  0
LINE
  5
CB
330
1D
100
AcDbEntity
  8
Unknown
100
AcDbLine
 10
361.0462539316831
 20
0.0
 30
888.6140350568336
 11
357.684242942672
 21
0.0
 31
875.4399327369312
  0
LINE
  5
CC
330
1D
100
AcDbEntity
  8
Unknown
100
AcDbLine
 10
357.684242942672
 20
0.0
 30
875.4399327369312
 11
356.638283968313
 21
0.0
 31
871.3059044097029
  0
LINE
  5
CD
330
1D
100
AcDbEntity
  8
Unknown
100
AcDbLine
 10
356.638283968313
 20
0.0
 30
871.3059044097029
 11
356.1402082662374
 21
0.0
 31
869.2388902460887
  0
LINE
  5
CE
330
1D
100
AcDbEntity
  8
Unknown
100
AcDbLine
 10
356.1402082662374
 20
0.0
 30
869.2388902460887
 11
355.6421325641617
 21
0.0
 31
867.1718760824746
  0
LINE
  5
CF
330
1D
100
AcDbEntity
  8
Unknown
100
AcDbLine
 10
355.6421325641617
 20
0.0
 30
867.1718760824746
 11
355.5425174237465
 21
0.0
 31
867.1718760824746
  0
LINE
  5
D0
330
1D
100
AcDbEntity
  8
Unknown
100
AcDbLine
 10
355.5425174237465
 20
0.0
 30
867.1718760824746
 11
355.0693455067746
 21
0.0
 31
869.2388902460887
  0
LINE
  5
D1
330
1D
100
AcDbEntity
  8
Unknown
100
AcDbLine
 10
355.0693455067746
 20
0.0
 30
869.2388902460887
 11
354.5712698046989
 21
0.0
 31
871.3059044097029
  0
LINE
  5
D2
330
1D
100
AcDbEntity
  8
Unknown
100
AcDbLine
 10
354.5712698046989
 20
0.0
 30
871.3059044097029
 11
353.5751184005475
 21
0.0
 31
875.4150289518275
  0
LINE
  5
D3
330
1D
100
AcDbEntity
  8
Unknown
100
AcDbLine
 10
353.5751184005475
 20
0.0
 30
875.4150289518275
 11
350.3127225519517
 21
0.0
 31
888.6140350568336
  0
LINE
  5
D4
330
1D
100
AcDbEntity
  8
Unknown
100
AcDbLine
 10
350.3127225519517
 20
0.0
 30
888.6140350568336
 11
345.2323503907795
 21
0.0
 31
888.6140350568336
  0
LINE
  5
D5
330
1D
100
AcDbEntity
  8
Unknown
100
AcDbLine
 10
345.2323503907795
 20
0.0
 30
888.6140350568336
 11
341.9948583272874
 21
0.0
 31
875.3901251667236
  0
LINE
  5
D6
330
1D
100
AcDbEntity
  8
Unknown
100
AcDbLine
 10
341.9948583272874
 20
0.0
 30
875.3901251667236
 11
340.998706923136
 21
0.0
 31
871.2810006245992
  0
LINE
  5
D7
330
1D
100
AcDbEntity
  8
Unknown
100
AcDbLine
 10
340.998706923136
 20
0.0
 30
871.2810006245992
 11
340.5255350061641
 21
0.0
 31
869.2388902460887
  0
LINE
  5
D8
330
1D
100
AcDbEntity
  8
Unknown
100
AcDbLine
 10
340.5255350061641
 20
0.0
 30
869.2388902460887
 11
340.0523630891922
 21
0.0
 31
867.1718760824746
  0
LINE
  5
D9
330
1D
100
AcDbEntity
  8
Unknown
100
AcDbLine
 10
340.0523630891922
 20
0.0
 30
867.1718760824746
 11
339.9776517338809
 21
0.0
 31
867.1718760824746
  0
LINE
  5
DA
330
1D
100
AcDbEntity
  8
Unknown
100
AcDbLine
 10
339.9776517338809
 20
0.0
 30
867.1718760824746
 11
339.4546722467014
 21
0.0
 31
869.2388902460887
  0
LINE
  5
DB
330
1D
100
AcDbEntity
  8
Unknown
100
AcDbLine
 10
339.4546722467014
 20
0.0
 30
869.2388902460887
 11
338.9565965446257
 21
0.0
 31
871.3059044097029
  0
LINE
  5
DC
330
1D
100
AcDbEntity
  8
Unknown
100
AcDbLine
 10
338.9565965446257
 20
0.0
 30
871.3059044097029
 11
337.9106375702667
 21
0.0
 31
875.4399327369312
  0
LINE
  5
DD
330
1D
100
AcDbEntity
  8
Unknown
100
AcDbLine
 10
337.9106375702667
 20
0.0
 30
875.4399327369312
 11
334.5735303663595
 21
0.0
 31
888.6140350568336
  0
LINE
  5
DE
330
1D
100
AcDbEntity
  8
Unknown
100
AcDbLine
 10
334.5735303663595
 20
0.0
 30
888.6140350568336
 11
330.8379626007917
 21
0.0
 31
888.6140350568336
  0
LINE
  5
DF
330
1D
100
AcDbEntity
  8
Unknown
100
AcDbLine
 10
327.6253743224034
 20
0.0
 30
888.6140350568336
 11
324.2633633333924
 21
0.0
 31
888.6140350568336
  0
LINE
  5
E0
330
1D
100
AcDbEntity
  8
Unknown
100
AcDbLine
 10
324.2633633333924
 20
0.0
 30
888.6140350568336
 11
324.3629784738076
 21
0.0
 31
885.3765429933414
  0
LINE
  5
E1
330
1D
100
AcDbEntity
  8
Unknown
100
AcDbLine
 10
324.3629784738076
 20
0.0
 30
885.3765429933414
 11
324.2633633333924
 21
0.0
 31
885.3018316380301
  0
LINE
  5
E2
330
1D
100
AcDbEntity
  8
Unknown
100
AcDbLine
 10
324.2633633333924
 20
0.0
 30
885.3018316380301
 11
323.1707104857301
 21
0.0
 31
886.9034614655967
  0
LINE
  5
E3
330
1D
100
AcDbEntity
  8
Unknown
100
AcDbLine
 10
323.1707104857301
 20
0.0
 30
886.9034614655967
 11
321.4865972089694
 21
0.0
 31
888.047478521793
  0
LINE
  5
E4
330
1D
100
AcDbEntity
  8
Unknown
100
AcDbLine
 10
321.4865972089694
 20
0.0
 30
888.047478521793
 11
319.2110160786692
 21
0.0
 31
888.733886238672
  0
LINE
  5
E5
330
1D
100
AcDbEntity
  8
Unknown
100
AcDbLine
 10
319.2110160786692
 20
0.0
 30
888.733886238672
 11
316.3439596703888
 21
0.0
 31
888.9626880482865
  0
LINE
  5
E6
330
1D
100
AcDbEntity
  8
Unknown
100
AcDbLine
 10
316.3439596703888
 20
0.0
 30
888.9626880482865
 11
312.0636174809863
 21
0.0
 31
888.5144221577591
  0
LINE
  5
E7
330
1D
100
AcDbEntity
  8
Unknown
100
AcDbLine
 10
312.0636174809863
 20
0.0
 30
888.5144221577591
 11
310.5421561304119
 21
0.0
 31
887.9540872730913
  0
LINE
  5
E8
330
1D
100
AcDbEntity
  8
Unknown
100
AcDbLine
 10
310.5421561304119
 20
0.0
 30
887.9540872730913
 11
309.4331593040884
 21
0.0
 31
887.1696155208139
  0
LINE
  5
E9
330
1D
100
AcDbEntity
  8
Unknown
100
AcDbLine
 10
309.4331593040884
 20
0.0
 30
887.1696155208139
 11
308.643239831309
 21
0.0
 31
886.0676228898876
  0
LINE
  5
EA
330
1D
100
AcDbEntity
  8
Unknown
100
AcDbLine
 10
308.643239831309
 20
0.0
 30
886.0676228898876
 11
308.0790137321646
 21
0.0
 31
884.554722194041
  0
LINE
  5
EB
330
1D
100
AcDbEntity
  8
Unknown
100
AcDbLine
 10
308.0790137321646
 20
0.0
 30
884.554722194041
 11
307.627634884064
 21
0.0
 31
880.2961708321693
  0
LINE
  5
EC
330
1D
100
AcDbEntity
  8
Unknown
100
AcDbLine
 10
307.627634884064
 20
0.0
 30
880.2961708321693
 11
307.627634884064
 21
0.0
 31
864.8060164976149
  0
LINE
  5
ED
330
1D
100
AcDbEntity
  8
Unknown
100
AcDbLine
 10
307.627634884064
 20
0.0
 30
864.8060164976149
 11
311.1141647985939
 21
0.0
 31
864.8060164976149
  0
LINE
  5
EE
330
1D
100
AcDbEntity
  8
Unknown
100
AcDbLine
 10
311.1141647985939
 20
0.0
 30
864.8060164976149
 11
311.1141647985939
 21
0.0
 31
879.9973254109237
  0
LINE
  5
EF
330
1D
100
AcDbEntity
  8
Unknown
100
AcDbLine
 10
311.1141647985939
 20
0.0
 30
879.9973254109237
 11
311.1141647985939
 21
0.0
 31
880.8938616746602
  0
LINE
  5
F0
330
1D
100
AcDbEntity
  8
Unknown
100
AcDbLine
 10
311.1141647985939
 20
0.0
 30
880.8938616746602
 11
311.406782810466
 21
0.0
 31
883.4558410731554
  0
LINE
  5
F1
330
1D
100
AcDbEntity
  8
Unknown
100
AcDbLine
 10
311.406782810466
 20
0.0
 30
883.4558410731554
 11
312.2846426984718
 21
0.0
 31
885.0154381093365
  0
LINE
  5
F2
330
1D
100
AcDbEntity
  8
Unknown
100
AcDbLine
 10
312.2846426984718
 20
0.0
 30
885.0154381093365
 11
313.9967752160704
 21
0.0
 31
885.8092475825332
  0
LINE
  5
F3
330
1D
100
AcDbEntity
  8
Unknown
100
AcDbLine
 10
313.9967752160704
 20
0.0
 30
885.8092475825332
 11
316.7922278022569
 21
0.0
 31
886.0738489762474
  0
LINE
  5
F4
330
1D
100
AcDbEntity
  8
Unknown
100
AcDbLine
 10
316.7922278022569
 20
0.0
 30
886.0738489762474
 11
320.0063828983938
 21
0.0
 31
885.6395924804482
  0
LINE
  5
F5
330
1D
100
AcDbEntity
  8
Unknown
100
AcDbLine
 10
320.0063828983938
 20
0.0
 30
885.6395924804482
 11
322.3021994397401
 21
0.0
 31
884.3368186504534
  0
LINE
  5
F6
330
1D
100
AcDbEntity
  8
Unknown
100
AcDbLine
 10
322.3021994397401
 20
0.0
 30
884.3368186504534
 11
323.1057329046959
 21
0.0
 31
883.3597356995401
  0
LINE
  5
F7
330
1D
100
AcDbEntity
  8
Unknown
100
AcDbLine
 10
323.1057329046959
 20
0.0
 30
883.3597356995401
 11
323.679684313749
 21
0.0
 31
882.1655209723666
  0
LINE
  5
F8
330
1D
100
AcDbEntity
  8
Unknown
100
AcDbLine
 10
323.679684313749
 20
0.0
 30
882.1655209723666
 11
324.1388444078735
 21
0.0
 31
879.1256929322915
  0
LINE
  5
F9
330
1D
100
AcDbEntity
  8
Unknown
100
AcDbLine
 10
324.1388444078735
 20
0.0
 30
879.1256929322915
 11
324.1388444078735
 21
0.0
 31
864.8060164976149
  0
LINE
  5
FA
330
1D
100
AcDbEntity
  8
Unknown
100
AcDbLine
 10
324.1388444078735
 20
0.0
 30
864.8060164976149
 11
327.6253743224034
 21
0.0
 31
864.8060164976149
  0
LINE
  5
FB
330
1D
100
AcDbEntity
  8
Unknown
100
AcDbLine
 10
327.6253743224034
 20
0.0
 30
864.8060164976149
 11
327.6253743224034
 21
0.0
 31
888.6140350568336
  0
LINE
  5
2B2
330
1D
100
AcDbEntity
  8
Layer0
100
AcDbLine
 10
554.6355750550043
 20
0.0
 30
465.7000200567872
 11
594.6355750550043
 21
0.0
 31
465.7000200567872
  0
LINE
  5
2B3
330
1D
100
AcDbEntity
  8
Layer0
100
AcDbLine
 10
554.6355750550043
 20
0.0
 30
465.7000200567872
 11
544.6355750550043
 21
0.0
 31
475.7000200567872
  0
LINE
  5
2B4
330
1D
100
AcDbEntity
  8
Layer0
100
AcDbLine
 10
544.6355750550043
 20
0.0
 30
475.7000200567872
 11
260.6355750550029
 21
0.0
 31
475.7000200567872
  0
LINE
  5
2B5
330
1D
100
AcDbEntity
  8
Layer0
100
AcDbLine
 10
260.6355750550029
 20
0.0
 30
475.7000200567872
 11
250.6355750550029
 21
0.0
 31
465.7000200567872
  0
LINE
  5
2B6
330
1D
100
AcDbEntity
  8
Layer0
100
AcDbLine
 10
210.6355750550029
 20
0.0
 30
465.7000200567872
 11
250.6355750550029
 21
0.0
 31
465.7000200567872
  0
LINE
  5
2B7
330
1D
100
AcDbEntity
  8
Layer0
100
AcDbLine
 10
210.6355750550027
 20
0.0
 30
915.7000200567873
 11
210.6355750550029
 21
0.0
 31
465.7000200567872
  0
LINE
  5
2B8
330
1D
100
AcDbEntity
  8
Layer0
100
AcDbLine
 10
594.6355750550042
 20
0.0
 30
915.7000200567873
 11
210.6355750550027
 21
0.0
 31
915.7000200567873
  0
LINE
  5
2B9
330
1D
100
AcDbEntity
  8
Layer0
100
AcDbLine
 10
594.6355750550043
 20
0.0
 30
465.7000200567872
 11
594.6355750550042
 21
0.0
 31
915.7000200567873
  0
LINE
  5
2BA
330
1D
100
AcDbEntity
  8
Layer0
100
AcDbLine
 10
255.6355750550028
 20
0.0
 30
848.7000200567871
 11
549.635575055004
 21
0.0
 31
848.7000200567871
  0
LINE
  5
2BB
330
1D
100
AcDbEntity
  8
Layer0
100
AcDbLine
 10
254.9829440939025
 20
0.0
 30
848.6572443636562
 11
255.6355750550028
 21
0.0
 31
848.7000200567871
  0
LINE
  5
2BC
330
1D
100
AcDbEntity
  8
Layer0
100
AcDbLine
 10
254.3414798294902
 20
0.0
 30
848.5296491882324
 11
254.9829440939025
 21
0.0
 31
848.6572443636562
  0
LINE
  5
2BD
330
1D
100
AcDbEntity
  8
Layer0
100
AcDbLine
 10
253.7221578931773
 20
0.0
 30
848.3194177193436
 11
254.3414798294902
 21
0.0
 31
848.5296491882324
  0
LINE
  5
2BE
330
1D
100
AcDbEntity
  8
Layer0
100
AcDbLine
 10
253.1355750550028
 20
0.0
 30
848.0301470757092
 11
253.7221578931773
 21
0.0
 31
848.3194177193436
  0
LINE
  5
2BF
330
1D
100
AcDbEntity
  8
Layer0
100
AcDbLine
 10
252.5917679099592
 20
0.0
 30
847.6667867582433
 11
253.1355750550028
 21
0.0
 31
848.0301470757092
  0
LINE
  5
2C0
330
1D
100
AcDbEntity
  8
Layer0
100
AcDbLine
 10
252.1000411490701
 20
0.0
 30
847.2355539627199
 11
252.5917679099592
 21
0.0
 31
847.6667867582433
  0
LINE
  5
2C1
330
1D
100
AcDbEntity
  8
Layer0
100
AcDbLine
 10
251.6688083535466
 20
0.0
 30
846.7438272018308
 11
252.1000411490701
 21
0.0
 31
847.2355539627199
  0
LINE
  5
2C2
330
1D
100
AcDbEntity
  8
Layer0
100
AcDbLine
 10
251.3054480360806
 20
0.0
 30
846.2000200567871
 11
251.6688083535466
 21
0.0
 31
846.7438272018308
  0
LINE
  5
2C3
330
1D
100
AcDbEntity
  8
Layer0
100
AcDbLine
 10
251.0161773924464
 20
0.0
 30
845.6134372186126
 11
251.3054480360806
 21
0.0
 31
846.2000200567871
  0
LINE
  5
2C4
330
1D
100
AcDbEntity
  8
Layer0
100
AcDbLine
 10
250.8059459235575
 20
0.0
 30
844.9941152822998
 11
251.0161773924464
 21
0.0
 31
845.6134372186126
  0
LINE
  5
2C5
330
1D
100
AcDbEntity
  8
Layer0
100
AcDbLine
 10
250.6783507481337
 20
0.0
 30
844.3526510178874
 11
250.8059459235575
 21
0.0
 31
844.9941152822998
  0
LINE
  5
2C6
330
1D
100
AcDbEntity
  8
Layer0
100
AcDbLine
 10
250.6355750550028
 20
0.0
 30
843.7000200567871
 11
250.6783507481337
 21
0.0
 31
844.3526510178874
  0
LINE
  5
2C7
330
1D
100
AcDbEntity
  8
Layer0
100
AcDbLine
 10
250.6355750550028
 20
0.0
 30
584.3791083266855
 11
250.6355750550028
 21
0.0
 31
843.7000200567871
  0
LINE
  5
2C8
330
1D
100
AcDbEntity
  8
Layer0
100
AcDbLine
 10
250.6355750550028
 20
0.0
 30
584.3791083266855
 11
259.4427324265395
 21
0.0
 31
582.1730302487628
  0
LINE
  5
2C9
330
1D
100
AcDbEntity
  8
Layer0
100
AcDbLine
 10
259.4427324265395
 20
0.0
 30
582.1730302487628
 11
279.6128627490364
 21
0.0
 31
577.8166996366069
  0
LINE
  5
2CA
330
1D
100
AcDbEntity
  8
Layer0
100
AcDbLine
 10
279.6128627490364
 20
0.0
 30
577.8166996366069
 11
291.2457711554408
 21
0.0
 31
575.7000200567871
  0
LINE
  5
2CB
330
1D
100
AcDbEntity
  8
Layer0
100
AcDbLine
 10
291.2457711554408
 20
0.0
 30
575.7000200567871
 11
299.9147288732531
 21
0.0
 31
574.1226496229658
  0
LINE
  5
2CC
330
1D
100
AcDbEntity
  8
Layer0
100
AcDbLine
 10
299.9147288732531
 20
0.0
 30
574.1226496229658
 11
320.3265910524379
 21
0.0
 31
571.0948358891196
  0
LINE
  5
2CD
330
1D
100
AcDbEntity
  8
Layer0
100
AcDbLine
 10
320.3265910524379
 20
0.0
 30
571.0948358891196
 11
340.8265917533082
 21
0.0
 31
568.7365006938535
  0
LINE
  5
2CE
330
1D
100
AcDbEntity
  8
Layer0
100
AcDbLine
 10
340.8265917533082
 20
0.0
 30
568.7365006938535
 11
361.3927790616439
 21
0.0
 31
567.0501694015638
  0
LINE
  5
2CF
330
1D
100
AcDbEntity
  8
Layer0
100
AcDbLine
 10
361.3927790616439
 20
0.0
 30
567.0501694015638
 11
382.0031301889487
 21
0.0
 31
566.0376477780369
  0
LINE
  5
2D0
330
1D
100
AcDbEntity
  8
Layer0
100
AcDbLine
 10
382.0031301889487
 20
0.0
 30
566.0376477780369
 11
402.6355750550035
 21
0.0
 31
565.7000200567875
  0
LINE
  5
2D1
330
1D
100
AcDbEntity
  8
Layer0
100
AcDbLine
 10
402.6355750550035
 20
0.0
 30
565.7000200567875
 11
423.2680199210571
 21
0.0
 31
566.0376477780367
  0
LINE
  5
2D2
330
1D
100
AcDbEntity
  8
Layer0
100
AcDbLine
 10
423.2680199210571
 20
0.0
 30
566.0376477780367
 11
443.8783710483622
 21
0.0
 31
567.0501694015638
  0
LINE
  5
2D3
330
1D
100
AcDbEntity
  8
Layer0
100
AcDbLine
 10
443.8783710483622
 20
0.0
 30
567.0501694015638
 11
464.4445583566979
 21
0.0
 31
568.7365006938533
  0
LINE
  5
2D4
330
1D
100
AcDbEntity
  8
Layer0
100
AcDbLine
 10
464.4445583566979
 20
0.0
 30
568.7365006938533
 11
484.9445590575678
 21
0.0
 31
571.0948358891196
  0
LINE
  5
2D5
330
1D
100
AcDbEntity
  8
Layer0
100
AcDbLine
 10
484.9445590575678
 20
0.0
 30
571.0948358891196
 11
505.3564212367529
 21
0.0
 31
574.1226496229655
  0
LINE
  5
2D6
330
1D
100
AcDbEntity
  8
Layer0
100
AcDbLine
 10
505.3564212367529
 20
0.0
 30
574.1226496229655
 11
514.0253789545673
 21
0.0
 31
575.7000200567871
  0
LINE
  5
2D7
330
1D
100
AcDbEntity
  8
Layer0
100
AcDbLine
 10
514.0253789545673
 20
0.0
 30
575.7000200567871
 11
525.6582873609697
 21
0.0
 31
577.8166996366066
  0
LINE
  5
2D8
330
1D
100
AcDbEntity
  8
Layer0
100
AcDbLine
 10
525.6582873609697
 20
0.0
 30
577.8166996366066
 11
545.8284176834662
 21
0.0
 31
582.1730302487624
  0
LINE
  5
2D9
330
1D
100
AcDbEntity
  8
Layer0
100
AcDbLine
 10
545.8284176834662
 20
0.0
 30
582.1730302487624
 11
554.635575055004
 21
0.0
 31
584.3791083266852
  0
LINE
  5
2DA
330
1D
100
AcDbEntity
  8
Layer0
100
AcDbLine
 10
554.635575055004
 20
0.0
 30
843.7000200567871
 11
554.635575055004
 21
0.0
 31
584.3791083266852
  0
LINE
  5
2DB
330
1D
100
AcDbEntity
  8
Layer0
100
AcDbLine
 10
554.635575055004
 20
0.0
 30
843.7000200567871
 11
554.5927993618731
 21
0.0
 31
844.3526510178874
  0
LINE
  5
2DC
330
1D
100
AcDbEntity
  8
Layer0
100
AcDbLine
 10
554.5927993618731
 20
0.0
 30
844.3526510178874
 11
554.4652041864493
 21
0.0
 31
844.9941152822998
  0
LINE
  5
2DD
330
1D
100
AcDbEntity
  8
Layer0
100
AcDbLine
 10
554.4652041864493
 20
0.0
 30
844.9941152822998
 11
554.2549727175605
 21
0.0
 31
845.6134372186126
  0
LINE
  5
2DE
330
1D
100
AcDbEntity
  8
Layer0
100
AcDbLine
 10
554.2549727175605
 20
0.0
 30
845.6134372186126
 11
553.9657020739262
 21
0.0
 31
846.2000200567871
  0
LINE
  5
2DF
330
1D
100
AcDbEntity
  8
Layer0
100
AcDbLine
 10
553.9657020739262
 20
0.0
 30
846.2000200567871
 11
553.6023417564602
 21
0.0
 31
846.7438272018308
  0
LINE
  5
2E0
330
1D
100
AcDbEntity
  8
Layer0
100
AcDbLine
 10
553.6023417564602
 20
0.0
 30
846.7438272018308
 11
553.1711089609367
 21
0.0
 31
847.2355539627199
  0
LINE
  5
2E1
330
1D
100
AcDbEntity
  8
Layer0
100
AcDbLine
 10
553.1711089609367
 20
0.0
 30
847.2355539627199
 11
552.6793822000476
 21
0.0
 31
847.6667867582433
  0
LINE
  5
2E2
330
1D
100
AcDbEntity
  8
Layer0
100
AcDbLine
 10
552.6793822000476
 20
0.0
 30
847.6667867582433
 11
552.135575055004
 21
0.0
 31
848.0301470757095
  0
LINE
  5
2E3
330
1D
100
AcDbEntity
  8
Layer0
100
AcDbLine
 10
552.135575055004
 20
0.0
 30
848.0301470757095
 11
551.5489922168294
 21
0.0
 31
848.3194177193436
  0
LINE
  5
2E4
330
1D
100
AcDbEntity
  8
Layer0
100
AcDbLine
 10
551.5489922168294
 20
0.0
 30
848.3194177193436
 11
550.9296702805166
 21
0.0
 31
848.5296491882326
  0
LINE
  5
2E5
330
1D
100
AcDbEntity
  8
Layer0
100
AcDbLine
 10
550.9296702805166
 20
0.0
 30
848.5296491882326
 11
550.2882060161041
 21
0.0
 31
848.6572443636562
  0
LINE
  5
2E6
330
1D
100
AcDbEntity
  8
Layer0
100
AcDbLine
 10
550.2882060161041
 20
0.0
 30
848.6572443636562
 11
549.635575055004
 21
0.0
 31
848.7000200567871
  0
LINE
  5
2E7
330
1D
100
AcDbEntity
  8
Layer0
100
AcDbLine
 10
580.1241679066527
 20
0.0
 30
855.0270905395205
 11
580.3839090051647
 21
0.0
 31
854.4000200567871
  0
LINE
  5
2E8
330
1D
100
AcDbEntity
  8
Layer0
100
AcDbLine
 10
580.3839090051647
 20
0.0
 30
854.4000200567871
 11
580.7970974239192
 21
0.0
 31
853.861542425702
  0
LINE
  5
2E9
330
1D
100
AcDbEntity
  8
Layer0
100
AcDbLine
 10
580.7970974239192
 20
0.0
 30
853.861542425702
 11
581.3355750550043
 21
0.0
 31
853.4483540069476
  0
LINE
  5
2EA
330
1D
100
AcDbEntity
  8
Layer0
100
AcDbLine
 10
581.3355750550043
 20
0.0
 30
853.4483540069476
 11
581.9626455377377
 21
0.0
 31
853.1886129084354
  0
LINE
  5
2EB
330
1D
100
AcDbEntity
  8
Layer0
100
AcDbLine
 10
581.9626455377377
 20
0.0
 30
853.1886129084354
 11
582.6355750550043
 21
0.0
 31
853.1000200567872
  0
LINE
  5
2EC
330
1D
100
AcDbEntity
  8
Layer0
100
AcDbLine
 10
582.6355750550043
 20
0.0
 30
853.1000200567872
 11
583.3085045722709
 21
0.0
 31
853.1886129084354
  0
LINE
  5
2ED
330
1D
100
AcDbEntity
  8
Layer0
100
AcDbLine
 10
583.3085045722709
 20
0.0
 30
853.1886129084354
 11
583.9355750550043
 21
0.0
 31
853.4483540069476
  0
LINE
  5
2EE
330
1D
100
AcDbEntity
  8
Layer0
100
AcDbLine
 10
583.9355750550043
 20
0.0
 30
853.4483540069476
 11
584.4740526860893
 21
0.0
 31
853.861542425702
  0
LINE
  5
2EF
330
1D
100
AcDbEntity
  8
Layer0
100
AcDbLine
 10
584.4740526860893
 20
0.0
 30
853.861542425702
 11
584.887241104844
 21
0.0
 31
854.4000200567871
  0
LINE
  5
2F0
330
1D
100
AcDbEntity
  8
Layer0
100
AcDbLine
 10
584.887241104844
 20
0.0
 30
854.4000200567871
 11
585.146982203356
 21
0.0
 31
855.0270905395205
  0
LINE
  5
2F1
330
1D
100
AcDbEntity
  8
Layer0
100
AcDbLine
 10
585.146982203356
 20
0.0
 30
855.0270905395205
 11
585.2355750550043
 21
0.0
 31
855.7000200567871
  0
LINE
  5
2F2
330
1D
100
AcDbEntity
  8
Layer0
100
AcDbLine
 10
585.2355750550043
 20
0.0
 30
855.7000200567871
 11
585.146982203356
 21
0.0
 31
856.3729495740537
  0
LINE
  5
2F3
330
1D
100
AcDbEntity
  8
Layer0
100
AcDbLine
 10
585.146982203356
 20
0.0
 30
856.3729495740537
 11
584.887241104844
 21
0.0
 31
857.0000200567872
  0
LINE
  5
2F4
330
1D
100
AcDbEntity
  8
Layer0
100
AcDbLine
 10
584.887241104844
 20
0.0
 30
857.0000200567872
 11
584.4740526860893
 21
0.0
 31
857.5384976878722
  0
LINE
  5
2F5
330
1D
100
AcDbEntity
  8
Layer0
100
AcDbLine
 10
584.4740526860893
 20
0.0
 30
857.5384976878722
 11
583.9355750550044
 21
0.0
 31
857.9516861066267
  0
LINE
  5
2F6
330
1D
100
AcDbEntity
  8
Layer0
100
AcDbLine
 10
583.9355750550044
 20
0.0
 30
857.9516861066267
 11
583.3085045722709
 21
0.0
 31
858.2114272051389
  0
LINE
  5
2F7
330
1D
100
AcDbEntity
  8
Layer0
100
AcDbLine
 10
583.3085045722709
 20
0.0
 30
858.2114272051389
 11
582.6355750550043
 21
0.0
 31
858.300020056787
  0
LINE
  5
2F8
330
1D
100
AcDbEntity
  8
Layer0
100
AcDbLine
 10
582.6355750550043
 20
0.0
 30
858.300020056787
 11
581.9626455377377
 21
0.0
 31
858.2114272051389
  0
LINE
  5
2F9
330
1D
100
AcDbEntity
  8
Layer0
100
AcDbLine
 10
581.9626455377377
 20
0.0
 30
858.2114272051389
 11
581.3355750550044
 21
0.0
 31
857.9516861066267
  0
LINE
  5
2FA
330
1D
100
AcDbEntity
  8
Layer0
100
AcDbLine
 10
581.3355750550044
 20
0.0
 30
857.9516861066267
 11
580.7970974239192
 21
0.0
 31
857.5384976878722
  0
LINE
  5
2FB
330
1D
100
AcDbEntity
  8
Layer0
100
AcDbLine
 10
580.7970974239192
 20
0.0
 30
857.5384976878722
 11
580.3839090051647
 21
0.0
 31
857.0000200567872
  0
LINE
  5
2FC
330
1D
100
AcDbEntity
  8
Layer0
100
AcDbLine
 10
580.3839090051647
 20
0.0
 30
857.0000200567872
 11
580.1241679066527
 21
0.0
 31
856.3729495740537
  0
LINE
  5
2FD
330
1D
100
AcDbEntity
  8
Layer0
100
AcDbLine
 10
580.1241679066527
 20
0.0
 30
856.3729495740537
 11
580.0355750550043
 21
0.0
 31
855.7000200567871
  0
LINE
  5
2FE
330
1D
100
AcDbEntity
  8
Layer0
100
AcDbLine
 10
580.0355750550043
 20
0.0
 30
855.7000200567871
 11
580.1241679066527
 21
0.0
 31
855.0270905395205
  0
LINE
  5
2FF
330
1D
100
AcDbEntity
  8
Layer0
100
AcDbLine
 10
581.3355750550043
 20
0.0
 30
508.4483540069476
 11
581.9626455377377
 21
0.0
 31
508.1886129084356
  0
LINE
  5
300
330
1D
100
AcDbEntity
  8
Layer0
100
AcDbLine
 10
581.9626455377377
 20
0.0
 30
508.1886129084356
 11
582.6355750550043
 21
0.0
 31
508.1000200567871
  0
LINE
  5
301
330
1D
100
AcDbEntity
  8
Layer0
100
AcDbLine
 10
582.6355750550043
 20
0.0
 30
508.1000200567871
 11
583.3085045722709
 21
0.0
 31
508.1886129084356
  0
LINE
  5
302
330
1D
100
AcDbEntity
  8
Layer0
100
AcDbLine
 10
583.3085045722709
 20
0.0
 30
508.1886129084356
 11
583.9355750550043
 21
0.0
 31
508.4483540069476
  0
LINE
  5
303
330
1D
100
AcDbEntity
  8
Layer0
100
AcDbLine
 10
583.9355750550043
 20
0.0
 30
508.4483540069476
 11
584.4740526860893
 21
0.0
 31
508.8615424257022
  0
LINE
  5
304
330
1D
100
AcDbEntity
  8
Layer0
100
AcDbLine
 10
584.4740526860893
 20
0.0
 30
508.8615424257022
 11
584.887241104844
 21
0.0
 31
509.4000200567871
  0
LINE
  5
305
330
1D
100
AcDbEntity
  8
Layer0
100
AcDbLine
 10
584.887241104844
 20
0.0
 30
509.4000200567871
 11
585.146982203356
 21
0.0
 31
510.0270905395206
  0
LINE
  5
306
330
1D
100
AcDbEntity
  8
Layer0
100
AcDbLine
 10
585.146982203356
 20
0.0
 30
510.0270905395206
 11
585.2355750550043
 21
0.0
 31
510.7000200567872
  0
LINE
  5
307
330
1D
100
AcDbEntity
  8
Layer0
100
AcDbLine
 10
585.2355750550043
 20
0.0
 30
510.7000200567872
 11
585.146982203356
 21
0.0
 31
511.3729495740537
  0
LINE
  5
308
330
1D
100
AcDbEntity
  8
Layer0
100
AcDbLine
 10
585.146982203356
 20
0.0
 30
511.3729495740537
 11
584.887241104844
 21
0.0
 31
512.0000200567871
  0
LINE
  5
309
330
1D
100
AcDbEntity
  8
Layer0
100
AcDbLine
 10
584.887241104844
 20
0.0
 30
512.0000200567871
 11
584.4740526860893
 21
0.0
 31
512.5384976878722
  0
LINE
  5
30A
330
1D
100
AcDbEntity
  8
Layer0
100
AcDbLine
 10
584.4740526860893
 20
0.0
 30
512.5384976878722
 11
583.9355750550044
 21
0.0
 31
512.9516861066268
  0
LINE
  5
30B
330
1D
100
AcDbEntity
  8
Layer0
100
AcDbLine
 10
583.9355750550044
 20
0.0
 30
512.9516861066268
 11
583.3085045722709
 21
0.0
 31
513.2114272051388
  0
LINE
  5
30C
330
1D
100
AcDbEntity
  8
Layer0
100
AcDbLine
 10
583.3085045722709
 20
0.0
 30
513.2114272051388
 11
582.6355750550043
 21
0.0
 31
513.3000200567872
  0
LINE
  5
30D
330
1D
100
AcDbEntity
  8
Layer0
100
AcDbLine
 10
582.6355750550043
 20
0.0
 30
513.3000200567872
 11
581.9626455377377
 21
0.0
 31
513.2114272051388
  0
LINE
  5
30E
330
1D
100
AcDbEntity
  8
Layer0
100
AcDbLine
 10
581.9626455377377
 20
0.0
 30
513.2114272051388
 11
581.3355750550044
 21
0.0
 31
512.9516861066268
  0
LINE
  5
30F
330
1D
100
AcDbEntity
  8
Layer0
100
AcDbLine
 10
581.3355750550044
 20
0.0
 30
512.9516861066268
 11
580.7970974239192
 21
0.0
 31
512.5384976878722
  0
LINE
  5
310
330
1D
100
AcDbEntity
  8
Layer0
100
AcDbLine
 10
580.7970974239192
 20
0.0
 30
512.5384976878722
 11
580.3839090051647
 21
0.0
 31
512.0000200567872
  0
LINE
  5
311
330
1D
100
AcDbEntity
  8
Layer0
100
AcDbLine
 10
580.3839090051647
 20
0.0
 30
512.0000200567872
 11
580.1241679066527
 21
0.0
 31
511.3729495740537
  0
LINE
  5
312
330
1D
100
AcDbEntity
  8
Layer0
100
AcDbLine
 10
580.1241679066527
 20
0.0
 30
511.3729495740537
 11
580.0355750550043
 21
0.0
 31
510.7000200567872
  0
LINE
  5
313
330
1D
100
AcDbEntity
  8
Layer0
100
AcDbLine
 10
580.0355750550043
 20
0.0
 30
510.7000200567872
 11
580.1241679066527
 21
0.0
 31
510.0270905395206
  0
LINE
  5
314
330
1D
100
AcDbEntity
  8
Layer0
100
AcDbLine
 10
580.1241679066527
 20
0.0
 30
510.0270905395206
 11
580.3839090051647
 21
0.0
 31
509.4000200567872
  0
LINE
  5
315
330
1D
100
AcDbEntity
  8
Layer0
100
AcDbLine
 10
580.3839090051647
 20
0.0
 30
509.4000200567872
 11
580.7970974239192
 21
0.0
 31
508.8615424257022
  0
LINE
  5
316
330
1D
100
AcDbEntity
  8
Layer0
100
AcDbLine
 10
580.7970974239192
 20
0.0
 30
508.8615424257022
 11
581.3355750550043
 21
0.0
 31
508.4483540069476
  0
LINE
  5
317
330
1D
100
AcDbEntity
  8
Layer0
100
AcDbLine
 10
225.2355750550028
 20
0.0
 30
510.7000200567872
 11
225.1469822033544
 21
0.0
 31
511.3729495740537
  0
LINE
  5
318
330
1D
100
AcDbEntity
  8
Layer0
100
AcDbLine
 10
225.1469822033544
 20
0.0
 30
511.3729495740537
 11
224.8872411048424
 21
0.0
 31
512.0000200567871
  0
LINE
  5
319
330
1D
100
AcDbEntity
  8
Layer0
100
AcDbLine
 10
224.8872411048424
 20
0.0
 30
512.0000200567871
 11
224.4740526860879
 21
0.0
 31
512.5384976878722
  0
LINE
  5
31A
330
1D
100
AcDbEntity
  8
Layer0
100
AcDbLine
 10
224.4740526860879
 20
0.0
 30
512.5384976878722
 11
223.9355750550029
 21
0.0
 31
512.9516861066267
  0
LINE
  5
31B
330
1D
100
AcDbEntity
  8
Layer0
100
AcDbLine
 10
223.9355750550029
 20
0.0
 30
512.9516861066267
 11
223.3085045722694
 21
0.0
 31
513.2114272051388
  0
LINE
  5
31C
330
1D
100
AcDbEntity
  8
Layer0
100
AcDbLine
 10
223.3085045722694
 20
0.0
 30
513.2114272051388
 11
222.6355750550028
 21
0.0
 31
513.3000200567872
  0
LINE
  5
31D
330
1D
100
AcDbEntity
  8
Layer0
100
AcDbLine
 10
222.6355750550028
 20
0.0
 30
513.3000200567872
 11
221.9626455377363
 21
0.0
 31
513.2114272051388
  0
LINE
  5
31E
330
1D
100
AcDbEntity
  8
Layer0
100
AcDbLine
 10
221.9626455377363
 20
0.0
 30
513.2114272051388
 11
221.3355750550029
 21
0.0
 31
512.9516861066267
  0
LINE
  5
31F
330
1D
100
AcDbEntity
  8
Layer0
100
AcDbLine
 10
221.3355750550029
 20
0.0
 30
512.9516861066267
 11
220.7970974239178
 21
0.0
 31
512.5384976878722
  0
LINE
  5
320
330
1D
100
AcDbEntity
  8
Layer0
100
AcDbLine
 10
220.7970974239178
 20
0.0
 30
512.5384976878722
 11
220.3839090051633
 21
0.0
 31
512.0000200567871
  0
LINE
  5
321
330
1D
100
AcDbEntity
  8
Layer0
100
AcDbLine
 10
220.3839090051633
 20
0.0
 30
512.0000200567871
 11
220.1241679066513
 21
0.0
 31
511.3729495740537
  0
LINE
  5
322
330
1D
100
AcDbEntity
  8
Layer0
100
AcDbLine
 10
220.1241679066513
 20
0.0
 30
511.3729495740537
 11
220.0355750550029
 21
0.0
 31
510.7000200567872
  0
LINE
  5
323
330
1D
100
AcDbEntity
  8
Layer0
100
AcDbLine
 10
220.0355750550029
 20
0.0
 30
510.7000200567872
 11
220.1241679066513
 21
0.0
 31
510.0270905395206
  0
LINE
  5
324
330
1D
100
AcDbEntity
  8
Layer0
100
AcDbLine
 10
220.1241679066513
 20
0.0
 30
510.0270905395206
 11
220.3839090051633
 21
0.0
 31
509.4000200567872
  0
LINE
  5
325
330
1D
100
AcDbEntity
  8
Layer0
100
AcDbLine
 10
220.3839090051633
 20
0.0
 30
509.4000200567872
 11
220.7970974239178
 21
0.0
 31
508.8615424257022
  0
LINE
  5
326
330
1D
100
AcDbEntity
  8
Layer0
100
AcDbLine
 10
220.7970974239178
 20
0.0
 30
508.8615424257022
 11
221.3355750550028
 21
0.0
 31
508.4483540069477
  0
LINE
  5
327
330
1D
100
AcDbEntity
  8
Layer0
100
AcDbLine
 10
221.3355750550028
 20
0.0
 30
508.4483540069477
 11
221.9626455377363
 21
0.0
 31
508.1886129084356
  0
LINE
  5
328
330
1D
100
AcDbEntity
  8
Layer0
100
AcDbLine
 10
221.9626455377363
 20
0.0
 30
508.1886129084356
 11
222.6355750550028
 21
0.0
 31
508.1000200567871
  0
LINE
  5
329
330
1D
100
AcDbEntity
  8
Layer0
100
AcDbLine
 10
222.6355750550028
 20
0.0
 30
508.1000200567871
 11
223.3085045722694
 21
0.0
 31
508.1886129084356
  0
LINE
  5
32A
330
1D
100
AcDbEntity
  8
Layer0
100
AcDbLine
 10
223.3085045722694
 20
0.0
 30
508.1886129084356
 11
223.9355750550028
 21
0.0
 31
508.4483540069477
  0
LINE
  5
32B
330
1D
100
AcDbEntity
  8
Layer0
100
AcDbLine
 10
223.9355750550028
 20
0.0
 30
508.4483540069477
 11
224.4740526860879
 21
0.0
 31
508.8615424257022
  0
LINE
  5
32C
330
1D
100
AcDbEntity
  8
Layer0
100
AcDbLine
 10
224.4740526860879
 20
0.0
 30
508.8615424257022
 11
224.8872411048424
 21
0.0
 31
509.4000200567872
  0
LINE
  5
32D
330
1D
100
AcDbEntity
  8
Layer0
100
AcDbLine
 10
224.8872411048424
 20
0.0
 30
509.4000200567872
 11
225.1469822033544
 21
0.0
 31
510.0270905395206
  0
LINE
  5
32E
330
1D
100
AcDbEntity
  8
Layer0
100
AcDbLine
 10
225.1469822033544
 20
0.0
 30
510.0270905395206
 11
225.2355750550028
 21
0.0
 31
510.7000200567872
  0
LINE
  5
32F
330
1D
100
AcDbEntity
  8
Layer0
100
AcDbLine
 10
225.2355750550027
 20
0.0
 30
855.7000200567871
 11
225.1469822033542
 21
0.0
 31
856.3729495740537
  0
LINE
  5
330
330
1D
100
AcDbEntity
  8
Layer0
100
AcDbLine
 10
225.1469822033542
 20
0.0
 30
856.3729495740537
 11
224.8872411048422
 21
0.0
 31
857.0000200567872
  0
LINE
  5
331
330
1D
100
AcDbEntity
  8
Layer0
100
AcDbLine
 10
224.8872411048422
 20
0.0
 30
857.0000200567872
 11
224.4740526860877
 21
0.0
 31
857.5384976878722
  0
LINE
  5
332
330
1D
100
AcDbEntity
  8
Layer0
100
AcDbLine
 10
224.4740526860877
 20
0.0
 30
857.5384976878722
 11
223.9355750550027
 21
0.0
 31
857.9516861066267
  0
LINE
  5
333
330
1D
100
AcDbEntity
  8
Layer0
100
AcDbLine
 10
223.9355750550027
 20
0.0
 30
857.9516861066267
 11
223.3085045722692
 21
0.0
 31
858.2114272051386
  0
LINE
  5
334
330
1D
100
AcDbEntity
  8
Layer0
100
AcDbLine
 10
223.3085045722692
 20
0.0
 30
858.2114272051386
 11
222.6355750550027
 21
0.0
 31
858.300020056787
  0
LINE
  5
335
330
1D
100
AcDbEntity
  8
Layer0
100
AcDbLine
 10
222.6355750550027
 20
0.0
 30
858.300020056787
 11
221.9626455377361
 21
0.0
 31
858.2114272051386
  0
LINE
  5
336
330
1D
100
AcDbEntity
  8
Layer0
100
AcDbLine
 10
221.9626455377361
 20
0.0
 30
858.2114272051386
 11
221.3355750550027
 21
0.0
 31
857.9516861066267
  0
LINE
  5
337
330
1D
100
AcDbEntity
  8
Layer0
100
AcDbLine
 10
221.3355750550027
 20
0.0
 30
857.9516861066267
 11
220.7970974239176
 21
0.0
 31
857.5384976878722
  0
LINE
  5
338
330
1D
100
AcDbEntity
  8
Layer0
100
AcDbLine
 10
220.7970974239176
 20
0.0
 30
857.5384976878722
 11
220.3839090051632
 21
0.0
 31
857.0000200567872
  0
LINE
  5
339
330
1D
100
AcDbEntity
  8
Layer0
100
AcDbLine
 10
220.3839090051632
 20
0.0
 30
857.0000200567872
 11
220.1241679066511
 21
0.0
 31
856.3729495740537
  0
LINE
  5
33A
330
1D
100
AcDbEntity
  8
Layer0
100
AcDbLine
 10
220.1241679066511
 20
0.0
 30
856.3729495740537
 11
220.0355750550027
 21
0.0
 31
855.7000200567871
  0
LINE
  5
33B
330
1D
100
AcDbEntity
  8
Layer0
100
AcDbLine
 10
220.0355750550027
 20
0.0
 30
855.7000200567871
 11
220.1241679066511
 21
0.0
 31
855.0270905395205
  0
LINE
  5
33C
330
1D
100
AcDbEntity
  8
Layer0
100
AcDbLine
 10
220.1241679066511
 20
0.0
 30
855.0270905395205
 11
220.3839090051632
 21
0.0
 31
854.4000200567871
  0
LINE
  5
33D
330
1D
100
AcDbEntity
  8
Layer0
100
AcDbLine
 10
220.3839090051632
 20
0.0
 30
854.4000200567871
 11
220.7970974239176
 21
0.0
 31
853.8615424257022
  0
LINE
  5
33E
330
1D
100
AcDbEntity
  8
Layer0
100
AcDbLine
 10
220.7970974239176
 20
0.0
 30
853.8615424257022
 11
221.3355750550026
 21
0.0
 31
853.4483540069476
  0
LINE
  5
33F
330
1D
100
AcDbEntity
  8
Layer0
100
AcDbLine
 10
221.3355750550026
 20
0.0
 30
853.4483540069476
 11
221.9626455377361
 21
0.0
 31
853.1886129084356
  0
LINE
  5
340
330
1D
100
AcDbEntity
  8
Layer0
100
AcDbLine
 10
221.9626455377361
 20
0.0
 30
853.1886129084356
 11
222.6355750550027
 21
0.0
 31
853.1000200567872
  0
LINE
  5
341
330
1D
100
AcDbEntity
  8
Layer0
100
AcDbLine
 10
222.6355750550027
 20
0.0
 30
853.1000200567872
 11
223.3085045722692
 21
0.0
 31
853.1886129084356
  0
LINE
  5
342
330
1D
100
AcDbEntity
  8
Layer0
100
AcDbLine
 10
223.3085045722692
 20
0.0
 30
853.1886129084356
 11
223.9355750550026
 21
0.0
 31
853.4483540069476
  0
LINE
  5
343
330
1D
100
AcDbEntity
  8
Layer0
100
AcDbLine
 10
223.9355750550026
 20
0.0
 30
853.4483540069476
 11
224.4740526860877
 21
0.0
 31
853.861542425702
  0
LINE
  5
344
330
1D
100
AcDbEntity
  8
Layer0
100
AcDbLine
 10
224.4740526860877
 20
0.0
 30
853.861542425702
 11
224.8872411048422
 21
0.0
 31
854.4000200567871
  0
LINE
  5
345
330
1D
100
AcDbEntity
  8
Layer0
100
AcDbLine
 10
224.8872411048422
 20
0.0
 30
854.4000200567871
 11
225.1469822033542
 21
0.0
 31
855.0270905395205
  0
LINE
  5
346
330
1D
100
AcDbEntity
  8
Layer0
100
AcDbLine
 10
225.1469822033542
 20
0.0
 30
855.0270905395205
 11
225.2355750550027
 21
0.0
 31
855.7000200567871
  0
LINE
  5
347
330
1D
100
AcDbEntity
  8
Layer0
100
AcDbLine
 10
363.1355750550035
 20
0.0
 30
546.7000200567871
 11
442.1355750550042
 21
0.0
 31
546.7000200567871
  0
LINE
  5
348
330
1D
100
AcDbEntity
  8
Layer0
100
AcDbLine
 10
363.1355750550035
 20
0.0
 30
494.7000200567872
 11
363.1355750550035
 21
0.0
 31
546.7000200567871
  0
LINE
  5
349
330
1D
100
AcDbEntity
  8
Layer0
100
AcDbLine
 10
442.1355750550042
 20
0.0
 30
494.7000200567872
 11
363.1355750550035
 21
0.0
 31
494.7000200567872
  0
LINE
  5
34A
330
1D
100
AcDbEntity
  8
Layer0
100
AcDbLine
 10
442.1355750550042
 20
0.0
 30
546.7000200567871
 11
442.1355750550042
 21
0.0
 31
494.7000200567872
  0
LINE
  5
34B
330
1D
100
AcDbEntity
  8
Layer0
100
AcDbLine
 10
273.6355750550035
 20
0.0
 30
520.7000200567871
 11
273.8580086592845
 21
0.0
 31
517.3063390590659
  0
LINE
  5
34C
330
1D
100
AcDbEntity
  8
Layer0
100
AcDbLine
 10
273.8580086592845
 20
0.0
 30
517.3063390590659
 11
274.5215035714878
 21
0.0
 31
513.9707248841216
  0
LINE
  5
34D
330
1D
100
AcDbEntity
  8
Layer0
100
AcDbLine
 10
274.5215035714878
 20
0.0
 30
513.9707248841216
 11
275.61470720971
 21
0.0
 31
510.7502508152948
  0
LINE
  5
34E
330
1D
100
AcDbEntity
  8
Layer0
100
AcDbLine
 10
275.61470720971
 20
0.0
 30
510.7502508152948
 11
277.1189145566081
 21
0.0
 31
507.7000200567871
  0
LINE
  5
34F
330
1D
100
AcDbEntity
  8
Layer0
100
AcDbLine
 10
277.1189145566081
 20
0.0
 30
507.7000200567871
 11
279.0083882074314
 21
0.0
 31
504.8722229025605
  0
LINE
  5
350
330
1D
100
AcDbEntity
  8
Layer0
100
AcDbLine
 10
279.0083882074314
 20
0.0
 30
504.8722229025605
 11
281.2507987441533
 21
0.0
 31
502.315243745937
  0
LINE
  5
351
330
1D
100
AcDbEntity
  8
Layer0
100
AcDbLine
 10
281.2507987441533
 20
0.0
 30
502.315243745937
 11
283.8077779007768
 21
0.0
 31
500.072833209215
  0
LINE
  5
352
330
1D
100
AcDbEntity
  8
Layer0
100
AcDbLine
 10
283.8077779007768
 20
0.0
 30
500.072833209215
 11
286.6355750550035
 21
0.0
 31
498.1833595583918
  0
LINE
  5
353
330
1D
100
AcDbEntity
  8
Layer0
100
AcDbLine
 10
286.6355750550035
 20
0.0
 30
498.1833595583918
 11
289.6858058135112
 21
0.0
 31
496.6791522114937
  0
LINE
  5
354
330
1D
100
AcDbEntity
  8
Layer0
100
AcDbLine
 10
289.6858058135112
 20
0.0
 30
496.6791522114937
 11
292.906279882338
 21
0.0
 31
495.5859485732714
  0
LINE
  5
355
330
1D
100
AcDbEntity
  8
Layer0
100
AcDbLine
 10
292.906279882338
 20
0.0
 30
495.5859485732714
 11
296.2418940572822
 21
0.0
 31
494.9224536610681
  0
LINE
  5
356
330
1D
100
AcDbEntity
  8
Layer0
100
AcDbLine
 10
296.2418940572822
 20
0.0
 30
494.9224536610681
 11
299.6355750550035
 21
0.0
 31
494.7000200567871
  0
LINE
  5
357
330
1D
100
AcDbEntity
  8
Layer0
100
AcDbLine
 10
299.6355750550035
 20
0.0
 30
494.7000200567871
 11
303.0292560527249
 21
0.0
 31
494.9224536610681
  0
LINE
  5
358
330
1D
100
AcDbEntity
  8
Layer0
100
AcDbLine
 10
303.0292560527249
 20
0.0
 30
494.9224536610681
 11
306.3648702276691
 21
0.0
 31
495.5859485732714
  0
LINE
  5
359
330
1D
100
AcDbEntity
  8
Layer0
100
AcDbLine
 10
306.3648702276691
 20
0.0
 30
495.5859485732714
 11
309.5853442964959
 21
0.0
 31
496.6791522114937
  0
LINE
  5
35A
330
1D
100
AcDbEntity
  8
Layer0
100
AcDbLine
 10
309.5853442964959
 20
0.0
 30
496.6791522114937
 11
312.6355750550035
 21
0.0
 31
498.1833595583918
  0
LINE
  5
35B
330
1D
100
AcDbEntity
  8
Layer0
100
AcDbLine
 10
312.6355750550035
 20
0.0
 30
498.1833595583918
 11
315.4633722092302
 21
0.0
 31
500.072833209215
  0
LINE
  5
35C
330
1D
100
AcDbEntity
  8
Layer0
100
AcDbLine
 10
315.4633722092302
 20
0.0
 30
500.072833209215
 11
318.0203513658537
 21
0.0
 31
502.315243745937
  0
LINE
  5
35D
330
1D
100
AcDbEntity
  8
Layer0
100
AcDbLine
 10
318.0203513658537
 20
0.0
 30
502.315243745937
 11
320.2627619025756
 21
0.0
 31
504.8722229025605
  0
LINE
  5
35E
330
1D
100
AcDbEntity
  8
Layer0
100
AcDbLine
 10
320.2627619025756
 20
0.0
 30
504.8722229025605
 11
322.152235553399
 21
0.0
 31
507.7000200567871
  0
LINE
  5
35F
330
1D
100
AcDbEntity
  8
Layer0
100
AcDbLine
 10
322.152235553399
 20
0.0
 30
507.7000200567871
 11
323.656442900297
 21
0.0
 31
510.7502508152948
  0
LINE
  5
360
330
1D
100
AcDbEntity
  8
Layer0
100
AcDbLine
 10
323.656442900297
 20
0.0
 30
510.7502508152948
 11
324.7496465385193
 21
0.0
 31
513.9707248841216
  0
LINE
  5
361
330
1D
100
AcDbEntity
  8
Layer0
100
AcDbLine
 10
324.7496465385193
 20
0.0
 30
513.9707248841216
 11
325.4131414507225
 21
0.0
 31
517.3063390590657
  0
LINE
  5
362
330
1D
100
AcDbEntity
  8
Layer0
100
AcDbLine
 10
325.4131414507225
 20
0.0
 30
517.3063390590657
 11
325.6355750550035
 21
0.0
 31
520.7000200567871
  0
LINE
  5
363
330
1D
100
AcDbEntity
  8
Layer0
100
AcDbLine
 10
325.6355750550035
 20
0.0
 30
520.7000200567871
 11
325.4131414507226
 21
0.0
 31
524.0937010545084
  0
LINE
  5
364
330
1D
100
AcDbEntity
  8
Layer0
100
AcDbLine
 10
325.4131414507226
 20
0.0
 30
524.0937010545084
 11
324.7496465385193
 21
0.0
 31
527.4293152294526
  0
LINE
  5
365
330
1D
100
AcDbEntity
  8
Layer0
100
AcDbLine
 10
324.7496465385193
 20
0.0
 30
527.4293152294526
 11
323.656442900297
 21
0.0
 31
530.6497892982794
  0
LINE
  5
366
330
1D
100
AcDbEntity
  8
Layer0
100
AcDbLine
 10
323.656442900297
 20
0.0
 30
530.6497892982794
 11
322.152235553399
 21
0.0
 31
533.7000200567871
  0
LINE
  5
367
330
1D
100
AcDbEntity
  8
Layer0
100
AcDbLine
 10
322.152235553399
 20
0.0
 30
533.7000200567871
 11
320.2627619025756
 21
0.0
 31
536.5278172110138
  0
LINE
  5
368
330
1D
100
AcDbEntity
  8
Layer0
100
AcDbLine
 10
320.2627619025756
 20
0.0
 30
536.5278172110138
 11
318.0203513658538
 21
0.0
 31
539.0847963676373
  0
LINE
  5
369
330
1D
100
AcDbEntity
  8
Layer0
100
AcDbLine
 10
318.0203513658538
 20
0.0
 30
539.0847963676373
 11
315.4633722092303
 21
0.0
 31
541.3272069043593
  0
LINE
  5
36A
330
1D
100
AcDbEntity
  8
Layer0
100
AcDbLine
 10
315.4633722092303
 20
0.0
 30
541.3272069043593
 11
312.6355750550036
 21
0.0
 31
543.2166805551825
  0
LINE
  5
36B
330
1D
100
AcDbEntity
  8
Layer0
100
AcDbLine
 10
312.6355750550036
 20
0.0
 30
543.2166805551825
 11
309.5853442964959
 21
0.0
 31
544.7208879020807
  0
LINE
  5
36C
330
1D
100
AcDbEntity
  8
Layer0
100
AcDbLine
 10
309.5853442964959
 20
0.0
 30
544.7208879020807
 11
306.3648702276691
 21
0.0
 31
545.8140915403029
  0
LINE
  5
36D
330
1D
100
AcDbEntity
  8
Layer0
100
AcDbLine
 10
306.3648702276691
 20
0.0
 30
545.8140915403029
 11
303.0292560527249
 21
0.0
 31
546.4775864525062
  0
LINE
  5
36E
330
1D
100
AcDbEntity
  8
Layer0
100
AcDbLine
 10
303.0292560527249
 20
0.0
 30
546.4775864525062
 11
299.6355750550036
 21
0.0
 31
546.7000200567873
  0
LINE
  5
36F
330
1D
100
AcDbEntity
  8
Layer0
100
AcDbLine
 10
299.6355750550036
 20
0.0
 30
546.7000200567873
 11
296.2418940572823
 21
0.0
 31
546.4775864525062
  0
LINE
  5
370
330
1D
100
AcDbEntity
  8
Layer0
100
AcDbLine
 10
296.2418940572823
 20
0.0
 30
546.4775864525062
 11
292.906279882338
 21
0.0
 31
545.8140915403029
  0
LINE
  5
371
330
1D
100
AcDbEntity
  8
Layer0
100
AcDbLine
 10
292.906279882338
 20
0.0
 30
545.8140915403029
 11
289.6858058135113
 21
0.0
 31
544.7208879020807
  0
LINE
  5
372
330
1D
100
AcDbEntity
  8
Layer0
100
AcDbLine
 10
289.6858058135113
 20
0.0
 30
544.7208879020807
 11
286.6355750550036
 21
0.0
 31
543.2166805551826
  0
LINE
  5
373
330
1D
100
AcDbEntity
  8
Layer0
100
AcDbLine
 10
286.6355750550036
 20
0.0
 30
543.2166805551826
 11
283.8077779007768
 21
0.0
 31
541.3272069043593
  0
LINE
  5
374
330
1D
100
AcDbEntity
  8
Layer0
100
AcDbLine
 10
283.8077779007768
 20
0.0
 30
541.3272069043593
 11
281.2507987441534
 21
0.0
 31
539.0847963676374
  0
LINE
  5
375
330
1D
100
AcDbEntity
  8
Layer0
100
AcDbLine
 10
281.2507987441534
 20
0.0
 30
539.0847963676374
 11
279.0083882074315
 21
0.0
 31
536.5278172110139
  0
LINE
  5
376
330
1D
100
AcDbEntity
  8
Layer0
100
AcDbLine
 10
279.0083882074315
 20
0.0
 30
536.5278172110139
 11
277.1189145566082
 21
0.0
 31
533.7000200567873
  0
LINE
  5
377
330
1D
100
AcDbEntity
  8
Layer0
100
AcDbLine
 10
277.1189145566082
 20
0.0
 30
533.7000200567873
 11
275.6147072097101
 21
0.0
 31
530.6497892982796
  0
LINE
  5
378
330
1D
100
AcDbEntity
  8
Layer0
100
AcDbLine
 10
275.6147072097101
 20
0.0
 30
530.6497892982796
 11
274.5215035714878
 21
0.0
 31
527.4293152294528
  0
LINE
  5
379
330
1D
100
AcDbEntity
  8
Layer0
100
AcDbLine
 10
274.5215035714878
 20
0.0
 30
527.4293152294528
 11
273.8580086592845
 21
0.0
 31
524.0937010545086
  0
LINE
  5
37A
330
1D
100
AcDbEntity
  8
Layer0
100
AcDbLine
 10
273.8580086592845
 20
0.0
 30
524.0937010545086
 11
273.6355750550035
 21
0.0
 31
520.7000200567871
  0
LINE
  5
37B
330
1D
100
AcDbEntity
  8
Layer0
100
AcDbLine
 10
491.6055750550043
 20
0.0
 30
516.5500200567872
 11
519.6055750550042
 21
0.0
 31
516.5500200567872
  0
LINE
  5
37C
330
1D
100
AcDbEntity
  8
Layer0
100
AcDbLine
 10
491.6055750550043
 20
0.0
 30
512.5500200567872
 11
491.6055750550043
 21
0.0
 31
516.5500200567872
  0
LINE
  5
37D
330
1D
100
AcDbEntity
  8
Layer0
100
AcDbLine
 10
519.6055750550042
 20
0.0
 30
512.5500200567872
 11
491.6055750550043
 21
0.0
 31
512.5500200567872
  0
LINE
  5
37E
330
1D
100
AcDbEntity
  8
Layer0
100
AcDbLine
 10
519.6055750550042
 20
0.0
 30
516.5500200567872
 11
519.6055750550042
 21
0.0
 31
512.5500200567872
  0
LINE
  5
8C1
330
1D
100
AcDbEntity
  8
Layer0
100
AcDbLine
 10
408.0038227471117
 20
882.3193853555395
 30
510.0187959605706
 11
407.3944301698332
 21
882.3193853555395
 31
508.547592135696
210
0.0
220
1.0
230
0.0
  0
LINE
  5
8C2
330
1D
100
AcDbEntity
  8
Layer0
100
AcDbLine
 10
420.3616752067486
 20
882.3193853555395
 30
511.5975921356941
 11
420.4298235541706
 21
882.3193853555395
 31
512.1152302258992
210
0.0
220
1.0
230
0.0
  0
LINE
  5
8C3
330
1D
100
AcDbEntity
  8
Layer0
100
AcDbLine
 10
420.4298235541704
 20
882.3193853555395
 30
511.079954045489
 11
420.3616752067486
 21
882.3193853555395
 31
511.5975921356941
210
0.0
220
1.0
230
0.0
  0
LINE
  5
8C4
330
1D
100
AcDbEntity
  8
Layer0
100
AcDbLine
 10
420.6296243991796
 20
882.3193853555395
 30
510.597592135694
 11
420.4298235541704
 21
882.3193853555395
 31
511.079954045489
210
0.0
220
1.0
230
0.0
  0
LINE
  5
8C5
330
1D
100
AcDbEntity
  8
Layer0
100
AcDbLine
 10
420.9474616443753
 20
882.3193853555395
 30
510.1833785733209
 11
420.6296243991796
 21
882.3193853555395
 31
510.597592135694
210
0.0
220
1.0
230
0.0
  0
LINE
  5
8C6
330
1D
100
AcDbEntity
  8
Layer0
100
AcDbLine
 10
421.3616752067483
 20
882.3193853555395
 30
509.8655413281251
 11
420.9474616443753
 21
882.3193853555395
 31
510.1833785733209
210
0.0
220
1.0
230
0.0
  0
LINE
  5
8C7
330
1D
100
AcDbEntity
  8
Layer0
100
AcDbLine
 10
421.8440371165432
 20
882.3193853555395
 30
509.6657404831157
 11
421.3616752067483
 21
882.3193853555395
 31
509.8655413281251
210
0.0
220
1.0
230
0.0
  0
LINE
  5
8C8
330
1D
100
AcDbEntity
  8
Layer0
100
AcDbLine
 10
422.3616752067483
 20
882.3193853555395
 30
509.5975921356938
 11
421.8440371165432
 21
882.3193853555395
 31
509.6657404831157
210
0.0
220
1.0
230
0.0
  0
LINE
  5
8C9
330
1D
100
AcDbEntity
  8
Layer0
100
AcDbLine
 10
422.8793132969533
 20
882.3193853555395
 30
509.6657404831155
 11
422.3616752067483
 21
882.3193853555395
 31
509.5975921356938
210
0.0
220
1.0
230
0.0
  0
LINE
  5
8CA
330
1D
100
AcDbEntity
  8
Layer0
100
AcDbLine
 10
423.3616752067483
 20
882.3193853555395
 30
509.8655413281247
 11
422.8793132969533
 21
882.3193853555395
 31
509.6657404831155
210
0.0
220
1.0
230
0.0
  0
LINE
  5
8CB
330
1D
100
AcDbEntity
  8
Layer0
100
AcDbLine
 10
423.7758887691215
 20
882.3193853555395
 30
510.1833785733204
 11
423.3616752067483
 21
882.3193853555395
 31
509.8655413281247
210
0.0
220
1.0
230
0.0
  0
LINE
  5
8CC
330
1D
100
AcDbEntity
  8
Layer0
100
AcDbLine
 10
424.0937260143173
 20
882.3193853555395
 30
510.5975921356936
 11
423.7758887691215
 21
882.3193853555395
 31
510.1833785733204
210
0.0
220
1.0
230
0.0
  0
LINE
  5
8CD
330
1D
100
AcDbEntity
  8
Layer0
100
AcDbLine
 10
424.2935268593266
 20
882.3193853555395
 30
511.0799540454884
 11
424.0937260143173
 21
882.3193853555395
 31
510.5975921356936
210
0.0
220
1.0
230
0.0
  0
LINE
  5
8CE
330
1D
100
AcDbEntity
  8
Layer0
100
AcDbLine
 10
424.3616752067486
 20
882.3193853555395
 30
511.5975921356934
 11
424.2935268593266
 21
882.3193853555395
 31
511.0799540454884
210
0.0
220
1.0
230
0.0
  0
LINE
  5
8CF
330
1D
100
AcDbEntity
  8
Layer0
100
AcDbLine
 10
424.2935268593268
 20
882.3193853555395
 30
512.1152302258985
 11
424.3616752067486
 21
882.3193853555395
 31
511.5975921356934
210
0.0
220
1.0
230
0.0
  0
LINE
  5
8D0
330
1D
100
AcDbEntity
  8
Layer0
100
AcDbLine
 10
424.0937260143176
 20
882.3193853555395
 30
512.5975921356935
 11
424.2935268593268
 21
882.3193853555395
 31
512.1152302258985
210
0.0
220
1.0
230
0.0
  0
LINE
  5
8D1
330
1D
100
AcDbEntity
  8
Layer0
100
AcDbLine
 10
423.7758887691219
 20
882.3193853555395
 30
513.0118056980666
 11
424.0937260143176
 21
882.3193853555395
 31
512.5975921356935
210
0.0
220
1.0
230
0.0
  0
LINE
  5
8D2
330
1D
100
AcDbEntity
  8
Layer0
100
AcDbLine
 10
423.3616752067489
 20
882.3193853555395
 30
513.3296429432625
 11
423.7758887691219
 21
882.3193853555395
 31
513.0118056980666
210
0.0
220
1.0
230
0.0
  0
LINE
  5
8D3
330
1D
100
AcDbEntity
  8
Layer0
100
AcDbLine
 10
422.8793132969539
 20
882.3193853555395
 30
513.5294437882718
 11
423.3616752067489
 21
882.3193853555395
 31
513.3296429432625
210
0.0
220
1.0
230
0.0
  0
LINE
  5
8D4
330
1D
100
AcDbEntity
  8
Layer0
100
AcDbLine
 10
422.3616752067489
 20
882.3193853555395
 30
513.5975921356937
 11
422.8793132969539
 21
882.3193853555395
 31
513.5294437882718
210
0.0
220
1.0
230
0.0
  0
LINE
  5
8D5
330
1D
100
AcDbEntity
  8
Layer0
100
AcDbLine
 10
421.8440371165439
 20
882.3193853555395
 30
513.529443788272
 11
422.3616752067489
 21
882.3193853555395
 31
513.5975921356937
210
0.0
220
1.0
230
0.0
  0
LINE
  5
8D6
330
1D
100
AcDbEntity
  8
Layer0
100
AcDbLine
 10
421.3616752067489
 20
882.3193853555395
 30
513.3296429432628
 11
421.8440371165439
 21
882.3193853555395
 31
513.529443788272
210
0.0
220
1.0
230
0.0
  0
LINE
  5
8D7
330
1D
100
AcDbEntity
  8
Layer0
100
AcDbLine
 10
420.9474616443757
 20
882.3193853555395
 30
513.0118056980671
 11
421.3616752067489
 21
882.3193853555395
 31
513.3296429432628
210
0.0
220
1.0
230
0.0
  0
LINE
  5
8D8
330
1D
100
AcDbEntity
  8
Layer0
100
AcDbLine
 10
420.6296243991799
 20
882.3193853555395
 30
512.597592135694
 11
420.9474616443757
 21
882.3193853555395
 31
513.0118056980671
210
0.0
220
1.0
230
0.0
  0
LINE
  5
8D9
330
1D
100
AcDbEntity
  8
Layer0
100
AcDbLine
 10
420.4298235541706
 20
882.3193853555395
 30
512.1152302258992
 11
420.6296243991799
 21
882.3193853555395
 31
512.597592135694
210
0.0
220
1.0
230
0.0
  0
LINE
  5
8DA
330
1D
100
AcDbEntity
  8
Layer0
100
AcDbLine
 10
382.8616752067489
 20
882.3193853555395
 30
513.3296429432687
 11
383.2758887691219
 21
882.3193853555395
 31
513.011805698073
210
0.0
220
1.0
230
0.0
  0
LINE
  5
8DB
330
1D
100
AcDbEntity
  8
Layer0
100
AcDbLine
 10
382.3793132969539
 20
882.3193853555395
 30
513.5294437882781
 11
382.8616752067489
 21
882.3193853555395
 31
513.3296429432687
210
0.0
220
1.0
230
0.0
  0
LINE
  5
8DC
330
1D
100
AcDbEntity
  8
Layer0
100
AcDbLine
 10
381.8616752067489
 20
882.3193853555395
 30
513.5975921357
 11
382.3793132969539
 21
882.3193853555395
 31
513.5294437882781
210
0.0
220
1.0
230
0.0
  0
LINE
  5
8DD
330
1D
100
AcDbEntity
  8
Layer0
100
AcDbLine
 10
381.3440371165439
 20
882.3193853555395
 30
513.5294437882783
 11
381.8616752067489
 21
882.3193853555395
 31
513.5975921357
210
0.0
220
1.0
230
0.0
  0
LINE
  5
8DE
330
1D
100
AcDbEntity
  8
Layer0
100
AcDbLine
 10
380.8616752067489
 20
882.3193853555395
 30
513.329642943269
 11
381.3440371165439
 21
882.3193853555395
 31
513.5294437882783
210
0.0
220
1.0
230
0.0
  0
LINE
  5
8DF
330
1D
100
AcDbEntity
  8
Layer0
100
AcDbLine
 10
380.4474616443757
 20
882.3193853555395
 30
513.0118056980733
 11
380.8616752067489
 21
882.3193853555395
 31
513.329642943269
210
0.0
220
1.0
230
0.0
  0
LINE
  5
8E0
330
1D
100
AcDbEntity
  8
Layer0
100
AcDbLine
 10
380.1296243991799
 20
882.3193853555395
 30
512.5975921357002
 11
380.4474616443757
 21
882.3193853555395
 31
513.0118056980733
210
0.0
220
1.0
230
0.0
  0
LINE
  5
8E1
330
1D
100
AcDbEntity
  8
Layer0
100
AcDbLine
 10
379.9298235541706
 20
882.3193853555395
 30
512.1152302259053
 11
380.1296243991799
 21
882.3193853555395
 31
512.5975921357002
210
0.0
220
1.0
230
0.0
  0
LINE
  5
8E2
330
1D
100
AcDbEntity
  8
Layer0
100
AcDbLine
 10
379.8616752067486
 20
882.3193853555395
 30
511.5975921357003
 11
379.9298235541706
 21
882.3193853555395
 31
512.1152302259053
210
0.0
220
1.0
230
0.0
  0
LINE
  5
8E3
330
1D
100
AcDbEntity
  8
Layer0
100
AcDbLine
 10
379.9298235541704
 20
882.3193853555395
 30
511.0799540454952
 11
379.8616752067486
 21
882.3193853555395
 31
511.5975921357003
210
0.0
220
1.0
230
0.0
  0
LINE
  5
8E4
330
1D
100
AcDbEntity
  8
Layer0
100
AcDbLine
 10
380.1296243991795
 20
882.3193853555395
 30
510.5975921357002
 11
379.9298235541704
 21
882.3193853555395
 31
511.0799540454952
210
0.0
220
1.0
230
0.0
  0
LINE
  5
8E5
330
1D
100
AcDbEntity
  8
Layer0
100
AcDbLine
 10
380.4474616443753
 20
882.3193853555395
 30
510.1833785733271
 11
380.1296243991795
 21
882.3193853555395
 31
510.5975921357002
210
0.0
220
1.0
230
0.0
  0
LINE
  5
8E6
330
1D
100
AcDbEntity
  8
Layer0
100
AcDbLine
 10
380.8616752067483
 20
882.3193853555395
 30
509.8655413281313
 11
380.4474616443753
 21
882.3193853555395
 31
510.1833785733271
210
0.0
220
1.0
230
0.0
  0
LINE
  5
8E7
330
1D
100
AcDbEntity
  8
Layer0
100
AcDbLine
 10
381.3440371165432
 20
882.3193853555395
 30
509.6657404831219
 11
380.8616752067483
 21
882.3193853555395
 31
509.8655413281313
210
0.0
220
1.0
230
0.0
  0
LINE
  5
8E8
330
1D
100
AcDbEntity
  8
Layer0
100
AcDbLine
 10
381.8616752067483
 20
882.3193853555395
 30
509.5975921357
 11
381.3440371165432
 21
882.3193853555395
 31
509.6657404831219
210
0.0
220
1.0
230
0.0
  0
LINE
  5
8E9
330
1D
100
AcDbEntity
  8
Layer0
100
AcDbLine
 10
382.3793132969533
 20
882.3193853555395
 30
509.6657404831217
 11
381.8616752067483
 21
882.3193853555395
 31
509.5975921357
210
0.0
220
1.0
230
0.0
  0
LINE
  5
8EA
330
1D
100
AcDbEntity
  8
Layer0
100
AcDbLine
 10
382.8616752067483
 20
882.3193853555395
 30
509.865541328131
 11
382.3793132969533
 21
882.3193853555395
 31
509.6657404831217
210
0.0
220
1.0
230
0.0
  0
LINE
  5
8EB
330
1D
100
AcDbEntity
  8
Layer0
100
AcDbLine
 10
383.2758887691215
 20
882.3193853555395
 30
510.1833785733267
 11
382.8616752067483
 21
882.3193853555395
 31
509.865541328131
210
0.0
220
1.0
230
0.0
  0
LINE
  5
8EC
330
1D
100
AcDbEntity
  8
Layer0
100
AcDbLine
 10
383.5937260143173
 20
882.3193853555395
 30
510.5975921356998
 11
383.2758887691215
 21
882.3193853555395
 31
510.1833785733267
210
0.0
220
1.0
230
0.0
  0
LINE
  5
8ED
330
1D
100
AcDbEntity
  8
Layer0
100
AcDbLine
 10
383.7935268593266
 20
882.3193853555395
 30
511.0799540454947
 11
383.5937260143173
 21
882.3193853555395
 31
510.5975921356998
210
0.0
220
1.0
230
0.0
  0
LINE
  5
8EE
330
1D
100
AcDbEntity
  8
Layer0
100
AcDbLine
 10
383.8616752067486
 20
882.3193853555395
 30
511.5975921356998
 11
383.7935268593266
 21
882.3193853555395
 31
511.0799540454947
210
0.0
220
1.0
230
0.0
  0
LINE
  5
8EF
330
1D
100
AcDbEntity
  8
Layer0
100
AcDbLine
 10
383.7935268593268
 20
882.3193853555395
 30
512.1152302259048
 11
383.8616752067486
 21
882.3193853555395
 31
511.5975921356998
210
0.0
220
1.0
230
0.0
  0
LINE
  5
8F0
330
1D
100
AcDbEntity
  8
Layer0
100
AcDbLine
 10
383.5937260143176
 20
882.3193853555395
 30
512.5975921356998
 11
383.7935268593268
 21
882.3193853555395
 31
512.1152302259048
210
0.0
220
1.0
230
0.0
  0
LINE
  5
8F1
330
1D
100
AcDbEntity
  8
Layer0
100
AcDbLine
 10
383.2758887691219
 20
882.3193853555395
 30
513.011805698073
 11
383.5937260143176
 21
882.3193853555395
 31
512.5975921356998
210
0.0
220
1.0
230
0.0
  0
LINE
  5
8F2
330
1D
100
AcDbEntity
  8
Layer0
100
AcDbLine
 10
419.9498656577753
 20
882.3193853555395
 30
521.2568503985848
 11
417.3616752067501
 21
882.3193853555395
 31
521.5975921356945
210
0.0
220
1.0
230
0.0
  0
LINE
  5
8F3
330
1D
100
AcDbEntity
  8
Layer0
100
AcDbLine
 10
422.3616752067499
 20
882.3193853555395
 30
520.2578461735382
 11
419.9498656577753
 21
882.3193853555395
 31
521.2568503985848
210
0.0
220
1.0
230
0.0
  0
LINE
  5
8F4
330
1D
100
AcDbEntity
  8
Layer0
100
AcDbLine
 10
424.4327430186152
 20
882.3193853555395
 30
518.6686599475589
 11
422.3616752067499
 21
882.3193853555395
 31
520.2578461735382
210
0.0
220
1.0
230
0.0
  0
LINE
  5
8F5
330
1D
100
AcDbEntity
  8
Layer0
100
AcDbLine
 10
408.2116752067502
 20
882.3193853555395
 30
521.5975921356959
 11
417.3616752067501
 21
882.3193853555395
 31
521.5975921356945
210
0.0
220
1.0
230
0.0
  0
LINE
  5
8F6
330
1D
100
AcDbEntity
  8
Layer0
100
AcDbLine
 10
408.2116752067486
 20
882.3193853555395
 30
511.5975921356959
 11
408.2116752067502
 21
882.3193853555395
 31
521.5975921356959
210
0.0
220
1.0
230
0.0
  0
LINE
  5
8F7
330
1D
100
AcDbEntity
  8
Layer0
100
AcDbLine
 10
408.2116752067486
 20
882.3193853555395
 30
511.5975921356959
 11
408.0038227471117
 21
882.3193853555395
 31
510.0187959605706
210
0.0
220
1.0
230
0.0
  0
LINE
  5
8F8
330
1D
100
AcDbEntity
  8
Layer0
100
AcDbLine
 10
407.3944301698332
 20
882.3193853555395
 30
508.547592135696
 11
406.4250265719859
 21
882.3193853555395
 31
507.2842407704583
210
0.0
220
1.0
230
0.0
  0
LINE
  5
8F9
330
1D
100
AcDbEntity
  8
Layer0
100
AcDbLine
 10
406.4250265719859
 20
882.3193853555395
 30
507.2842407704583
 11
405.1616752067478
 21
882.3193853555395
 31
506.3148371726114
210
0.0
220
1.0
230
0.0
  0
LINE
  5
8FA
330
1D
100
AcDbEntity
  8
Layer0
100
AcDbLine
 10
405.1616752067478
 20
882.3193853555395
 30
506.3148371726114
 11
403.6904713818731
 21
882.3193853555395
 31
505.7054445953334
210
0.0
220
1.0
230
0.0
  0
LINE
  5
8FB
330
1D
100
AcDbEntity
  8
Layer0
100
AcDbLine
 10
403.6904713818731
 20
882.3193853555395
 30
505.7054445953334
 11
402.1116752067476
 21
882.3193853555395
 31
505.4975921356968
210
0.0
220
1.0
230
0.0
  0
LINE
  5
8FC
330
1D
100
AcDbEntity
  8
Layer0
100
AcDbLine
 10
402.1116752067476
 20
882.3193853555395
 30
505.4975921356968
 11
400.5328790316223
 21
882.3193853555395
 31
505.7054445953338
210
0.0
220
1.0
230
0.0
  0
LINE
  5
8FD
330
1D
100
AcDbEntity
  8
Layer0
100
AcDbLine
 10
400.5328790316223
 20
882.3193853555395
 30
505.7054445953338
 11
399.0616752067478
 21
882.3193853555395
 31
506.3148371726123
210
0.0
220
1.0
230
0.0
  0
LINE
  5
8FE
330
1D
100
AcDbEntity
  8
Layer0
100
AcDbLine
 10
399.0616752067478
 20
882.3193853555395
 30
506.3148371726123
 11
397.79832384151
 21
882.3193853555395
 31
507.2842407704596
210
0.0
220
1.0
230
0.0
  0
LINE
  5
8FF
330
1D
100
AcDbEntity
  8
Layer0
100
AcDbLine
 10
397.79832384151
 20
882.3193853555395
 30
507.2842407704596
 11
396.828920243663
 21
882.3193853555395
 31
508.5475921356976
210
0.0
220
1.0
230
0.0
  0
LINE
  5
900
330
1D
100
AcDbEntity
  8
Layer0
100
AcDbLine
 10
396.828920243663
 20
882.3193853555395
 30
508.5475921356976
 11
396.219527666385
 21
882.3193853555395
 31
510.0187959605724
210
0.0
220
1.0
230
0.0
  0
LINE
  5
901
330
1D
100
AcDbEntity
  8
Layer0
100
AcDbLine
 10
396.219527666385
 20
882.3193853555395
 30
510.0187959605724
 11
396.0116752067486
 21
882.3193853555395
 31
511.5975921356978
210
0.0
220
1.0
230
0.0
  0
LINE
  5
902
330
1D
100
AcDbEntity
  8
Layer0
100
AcDbLine
 10
396.0116752067486
 20
882.3193853555395
 30
511.5975921356978
 11
396.0116752067501
 21
882.3193853555395
 31
521.5975921356978
210
0.0
220
1.0
230
0.0
  0
LINE
  5
903
330
1D
100
AcDbEntity
  8
Layer0
100
AcDbLine
 10
386.8616752067501
 20
882.3193853555395
 30
521.5975921356992
 11
396.0116752067501
 21
882.3193853555395
 31
521.5975921356978
210
0.0
220
1.0
230
0.0
  0
LINE
  5
904
330
1D
100
AcDbEntity
  8
Layer0
100
AcDbLine
 10
386.8616752067501
 20
882.3193853555395
 30
521.5975921356992
 11
384.2734847557249
 21
882.3193853555395
 31
521.2568503985902
210
0.0
220
1.0
230
0.0
  0
LINE
  5
905
330
1D
100
AcDbEntity
  8
Layer0
100
AcDbLine
 10
384.2734847557249
 20
882.3193853555395
 30
521.2568503985902
 11
381.8616752067499
 21
882.3193853555395
 31
520.2578461735443
210
0.0
220
1.0
230
0.0
  0
LINE
  5
906
330
1D
100
AcDbEntity
  8
Layer0
100
AcDbLine
 10
381.8616752067499
 20
882.3193853555395
 30
520.2578461735443
 11
379.7906073948842
 21
882.3193853555395
 31
518.6686599475657
210
0.0
220
1.0
230
0.0
  0
LINE
  5
907
330
1D
100
AcDbEntity
  8
Layer0
100
AcDbLine
 10
379.7906073948842
 20
882.3193853555395
 30
518.6686599475657
 11
378.201421168905
 21
882.3193853555395
 31
516.5975921357006
210
0.0
220
1.0
230
0.0
  0
LINE
  5
908
330
1D
100
AcDbEntity
  8
Layer0
100
AcDbLine
 10
378.201421168905
 20
882.3193853555395
 30
516.5975921357006
 11
377.2024169438583
 21
882.3193853555395
 31
514.185782586726
210
0.0
220
1.0
230
0.0
  0
LINE
  5
909
330
1D
100
AcDbEntity
  8
Layer0
100
AcDbLine
 10
377.2024169438583
 20
882.3193853555395
 30
514.185782586726
 11
376.8616752067486
 21
882.3193853555395
 31
511.5975921357007
210
0.0
220
1.0
230
0.0
  0
LINE
  5
90A
330
1D
100
AcDbEntity
  8
Layer0
100
AcDbLine
 10
376.8616752067486
 20
882.3193853555395
 30
511.5975921357007
 11
377.2024169438575
 21
882.3193853555395
 31
509.0094016846755
210
0.0
220
1.0
230
0.0
  0
LINE
  5
90B
330
1D
100
AcDbEntity
  8
Layer0
100
AcDbLine
 10
377.2024169438575
 20
882.3193853555395
 30
509.0094016846755
 11
378.2014211689034
 21
882.3193853555395
 31
506.5975921357006
210
0.0
220
1.0
230
0.0
  0
LINE
  5
90C
330
1D
100
AcDbEntity
  8
Layer0
100
AcDbLine
 10
378.2014211689034
 20
882.3193853555395
 30
506.5975921357006
 11
379.790607394882
 21
882.3193853555395
 31
504.5265243238348
210
0.0
220
1.0
230
0.0
  0
LINE
  5
90D
330
1D
100
AcDbEntity
  8
Layer0
100
AcDbLine
 10
379.790607394882
 20
882.3193853555395
 30
504.5265243238348
 11
381.8616752067472
 21
882.3193853555395
 31
502.9373380978557
210
0.0
220
1.0
230
0.0
  0
LINE
  5
90E
330
1D
100
AcDbEntity
  8
Layer0
100
AcDbLine
 10
381.8616752067472
 20
882.3193853555395
 30
502.9373380978557
 11
384.2734847557219
 21
882.3193853555395
 31
501.938333872809
210
0.0
220
1.0
230
0.0
  0
LINE
  5
90F
330
1D
100
AcDbEntity
  8
Layer0
100
AcDbLine
 10
384.2734847557219
 20
882.3193853555395
 30
501.938333872809
 11
386.8616752067471
 21
882.3193853555395
 31
501.5975921356992
210
0.0
220
1.0
230
0.0
  0
LINE
  5
910
330
1D
100
AcDbEntity
  8
Layer0
100
AcDbLine
 10
386.8616752067471
 20
882.3193853555395
 30
501.5975921356992
 11
417.3616752067471
 21
882.3193853555395
 31
501.5975921356945
210
0.0
220
1.0
230
0.0
  0
LINE
  5
911
330
1D
100
AcDbEntity
  8
Layer0
100
AcDbLine
 10
417.3616752067471
 20
882.3193853555395
 30
501.5975921356945
 11
419.9498656577723
 21
882.3193853555395
 31
501.9383338728035
210
0.0
220
1.0
230
0.0
  0
LINE
  5
912
330
1D
100
AcDbEntity
  8
Layer0
100
AcDbLine
 10
419.9498656577723
 20
882.3193853555395
 30
501.9383338728035
 11
422.3616752067472
 21
882.3193853555395
 31
502.9373380978494
210
0.0
220
1.0
230
0.0
  0
LINE
  5
913
330
1D
100
AcDbEntity
  8
Layer0
100
AcDbLine
 10
422.3616752067472
 20
882.3193853555395
 30
502.9373380978494
 11
424.4327430186129
 21
882.3193853555395
 31
504.5265243238279
210
0.0
220
1.0
230
0.0
  0
LINE
  5
914
330
1D
100
AcDbEntity
  8
Layer0
100
AcDbLine
 10
424.4327430186129
 20
882.3193853555395
 30
504.5265243238279
 11
426.0219292445922
 21
882.3193853555395
 31
506.5975921356932
210
0.0
220
1.0
230
0.0
  0
LINE
  5
915
330
1D
100
AcDbEntity
  8
Layer0
100
AcDbLine
 10
426.0219292445922
 20
882.3193853555395
 30
506.5975921356932
 11
427.0209334696389
 21
882.3193853555395
 31
509.0094016846678
210
0.0
220
1.0
230
0.0
  0
LINE
  5
916
330
1D
100
AcDbEntity
  8
Layer0
100
AcDbLine
 10
427.0209334696389
 20
882.3193853555395
 30
509.0094016846678
 11
427.3616752067486
 21
882.3193853555395
 31
511.5975921356929
210
0.0
220
1.0
230
0.0
  0
LINE
  5
917
330
1D
100
AcDbEntity
  8
Layer0
100
AcDbLine
 10
427.3616752067486
 20
882.3193853555395
 30
511.5975921356929
 11
427.0209334696397
 21
882.3193853555395
 31
514.1857825867182
210
0.0
220
1.0
230
0.0
  0
LINE
  5
918
330
1D
100
AcDbEntity
  8
Layer0
100
AcDbLine
 10
427.0209334696397
 20
882.3193853555395
 30
514.1857825867182
 11
426.0219292445938
 21
882.3193853555395
 31
516.5975921356932
210
0.0
220
1.0
230
0.0
  0
LINE
  5
919
330
1D
100
AcDbEntity
  8
Layer0
100
AcDbLine
 10
426.0219292445938
 20
882.3193853555395
 30
516.5975921356932
 11
424.4327430186152
 21
882.3193853555395
 31
518.6686599475589
210
0.0
220
1.0
230
0.0
  0
VIEWPORT
  5
3D6
330
1B
100
AcDbEntity
 67
     1
  8
0
100
AcDbViewport
 10
5.333333333333334
 20
4.083333333333334
 30
0.0
 40
12.8
 41
9.8
 68
     1
 69
     1
 12
5.333333333333334
 22
4.083333333333334
 13
0.0
 23
0.0
 14
0.5
 24
0.5
 15
0.0
 25
0.0
 16
0.0
 26
0.0
 36
1.0
 17
0.0
 27
0.0
 37
0.0
 42
50.0
 43
0.0
 44
0.0
 45
9.8
 50
0.0
 51
0.0
 72
   100
 90
   557152
  1

281
     0
 71
     1
 74
     0
110
0.0
120
0.0
130
0.0
111
1.0
121
0.0
131
0.0
112
0.0
122
1.0
132
0.0
 79
     0
146
0.0
170
     0
 61
     5
348
3AD
292
     1
282
     1
141
0.0
142
0.0
 63
   256
361
3D8
  0
VIEWPORT
  5
3D7
330
1B
100
AcDbEntity
 67
     1
  8
0
100
AcDbViewport
 10
5.333333333333334
 20
4.083333333333334
 30
0.0
 40
8.533333333333335
 41
6.533333333333335
 68
     2
 69
     2
 12
402.6355750550035
 22
591.7523648414076
 13
0.0
 23
0.0
 14
0.5
 24
0.5
 15
0.0
 25
0.0
 16
0.0
 26
0.0
 36
1.0
 17
0.0
 27
0.0
 37
0.0
 42
50.0
 43
0.0
 44
0.0
 45
299.8800000000013
 50
0.0
 51
0.0
 72
   100
 90
   557152
  1

281
     0
 71
     1
 74
     0
110
0.0
120
0.0
130
0.0
111
-1.0
121
0.0
131
0.0
112
0.0
122
0.0
132
1.0
 79
     0
146
0.0
170
     0
 61
     5
348
3AD
292
     1
282
     1
141
0.0
142
0.0
 63
   256
  0
ENDSEC
  0
SECTION
  2
OBJECTS
  0
DICTIONARY
  5
C
330
0
100
AcDbDictionary
281
     1
  3
ACAD_DETAILVIEWSTYLE
350
3D4
  3
ACAD_GROUP
350
D
  3
ACAD_IMAGE_VARS
350
3CB
  3
ACAD_LAYOUT
350
1A
  3
ACAD_MATERIAL
350
3C1
  3
ACAD_MLEADERSTYLE
350
3C7
  3
ACAD_MLINESTYLE
350
17
  3
ACAD_PLOTSETTINGS
350
19
  3
ACAD_PLOTSTYLENAME
350
E
  3
ACAD_SCALELIST
350
382
  3
ACAD_SECTIONVIEWSTYLE
350
3D5
  3
ACAD_TABLESTYLE
350
3C5
  3
ACAD_VISUALSTYLE
350
3A8
  3
AcDbVariableDictionary
350
3CC
  3
ACDB_RECOMPOSE_DATA
350
91C
  3
APPDATA
350
3C9
  0
SUN
  5
3CA
330
37F
100
AcDbSun
 90
        1
290
     0
 63
     7
421
 16777215
 40
1.0
291
     1
 91
  2455826
 92
 54000000
292
     0
 70
     2
 71
   256
280
     1
  0
SUN
  5
3D8
330
3D6
100
AcDbSun
 90
        1
290
     0
 63
     7
421
 16777215
 40
1.0
291
     1
 91
  2455826
 92
 54000000
292
     0
 70
     2
 71
   256
280
     1
  0
DICTIONARY
  5
3D4
102
{ACAD_REACTORS
330
C
102
}
330
C
100
AcDbDictionary
281
     1
  0
DICTIONARY
  5
D
102
{ACAD_REACTORS
330
C
102
}
330
C
100
AcDbDictionary
281
     1
  0
RASTERVARIABLES
  5
3CB
102
{ACAD_REACTORS
330
C
102
}
330
C
100
AcDbRasterVariables
 90
        0
 70
     1
 71
     1
 72
     0
  0
DICTIONARY
  5
1A
102
{ACAD_REACTORS
330
C
102
}
330
C
100
AcDbDictionary
281
     1
  3
Model
350
1E
  3
Sheet 1
350
1C
  0
DICTIONARY
  5
3C1
102
{ACAD_REACTORS
330
C
102
}
330
C
100
AcDbDictionary
281
     1
  3
ByBlock
350
3C3
  3
ByLayer
350
3C2
  3
Global
350
3C4
  0
DICTIONARY
  5
3C7
102
{ACAD_REACTORS
330
C
102
}
330
C
100
AcDbDictionary
281
     1
  3
Standard
350
3C8
  0
DICTIONARY
  5
17
102
{ACAD_REACTORS
330
C
102
}
330
C
100
AcDbDictionary
281
     1
  3
Standard
350
18
  0
DICTIONARY
  5
19
102
{ACAD_REACTORS
330
C
102
}
330
C
100
AcDbDictionary
281
     1
  0
ACDBDICTIONARYWDFLT
  5
E
102
{ACAD_REACTORS
330
C
102
}
330
C
100
AcDbDictionary
281
     1
  3
Normal
350
F
100
AcDbDictionaryWithDefault
340
F
  0
DICTIONARY
  5
382
102
{ACAD_REACTORS
330
C
102
}
330
C
100
AcDbDictionary
281
     1
  3
A0
350
383
  3
A1
350
384
  3
A2
350
385
  3
A3
350
386
  3
A4
350
387
  3
A5
350
388
  3
A6
350
389
  3
A7
350
38A
  3
A8
350
38B
  3
A9
350
38C
  3
B0
350
38D
  3
B1
350
38E
  3
B2
350
38F
  3
B3
350
390
  3
B4
350
391
  3
B5
350
392
  3
B6
350
393
  3
B7
350
394
  3
B8
350
395
  3
B9
350
396
  3
C0
350
397
  3
C1
350
398
  3
C2
350
399
  3
C3
350
39A
  3
C4
350
39B
  3
C5
350
39C
  3
C6
350
39D
  3
C7
350
39E
  3
C8
350
39F
  3
C9
350
3A0
  3
D0
350
3A1
  3
D1
350
3A2
  3
D2
350
3A3
  0
DICTIONARY
  5
3D5
102
{ACAD_REACTORS
330
C
102
}
330
C
100
AcDbDictionary
281
     1
  0
DICTIONARY
  5
3C5
102
{ACAD_REACTORS
330
C
102
}
330
C
100
AcDbDictionary
281
     1
  3
Standard
350
3C6
  0
DICTIONARY
  5
3A8
102
{ACAD_REACTORS
330
C
102
}
330
C
100
AcDbDictionary
281
     1
  3
2dWireframe
350
3AD
  3
Basic
350
3B0
  3
Brighten
350
3B4
  3
ColorChange
350
3B8
  3
Conceptual
350
3B2
  3
Dim
350
3B3
  3
EdgeColorOff
350
3BB
  3
Facepattern
350
3B7
  3
Flat
350
3A9
  3
FlatWithEdges
350
3AA
  3
Gouraud
350
3AB
  3
GouraudWithEdges
350
3AC
  3
Hidden
350
3AF
  3
JitterOff
350
3B9
  3
Linepattern
350
3B6
  3
OverhangOff
350
3BA
  3
Realistic
350
3B1
  3
Shaded
350
3C0
  3
Shaded with edges
350
3BF
  3
Shades of Gray
350
3BC
  3
Sketchy
350
3BD
  3
Thicken
350
3B5
  3
Wireframe
350
3AE
  3
X-Ray
350
3BE
  0
DICTIONARY
  5
3CC
102
{ACAD_REACTORS
330
C
102
}
330
C
100
AcDbDictionary
281
     1
  3
CANNOSCALE
350
3CD
  3
CMLEADERSTYLE
350
3D2
  3
CTABLESTYLE
350
3D1
  3
MSLTSCALE
350
3D3
  0
XRECORD
  5
91C
102
{ACAD_REACTORS
330
C
102
}
330
C
100
AcDbXrecord
280
     1
 90
        1
330
3C6
  0
DICTIONARY
  5
3C9
102
{ACAD_REACTORS
330
C
102
}
330
C
100
AcDbDictionary
281
     1
  0
LAYOUT
  5
1E
102
{ACAD_REACTORS
330
1A
102
}
330
1A
100
AcDbPlotSettings
  1

  2
none_device
  4
na-letter
  6

 40
6.35
 41
6.35
 42
6.35
 43
14.11111111111111
 44
215.9
 45
279.4
 46
0.0
 47
0.0
 48
0.0
 49
0.0
140
0.0
141
0.0
142
1.0
143
1.0
 70
  1712
 72
     0
 73
     0
 74
     0
  7

 75
     0
 76
     0
 77
     2
 78
   300
147
1.0
148
0.0
149
0.0
100
AcDbLayout
  1
Model
 70
     1
 71
     0
 10
0.0
 20
0.0
 11
12.0
 21
9.0
 12
0.0
 22
0.0
 32
0.0
 14
1.000000000000000E+20
 24
1.000000000000000E+20
 34
1.000000000000000E+20
 15
-1.000000000000000E+20
 25
-1.000000000000000E+20
 35
-1.000000000000000E+20
146
0.0
 13
0.0
 23
0.0
 33
0.0
 16
1.0
 26
0.0
 36
0.0
 17
0.0
 27
1.0
 37
0.0
 76
     0
330
1D
331
37F
  0
LAYOUT
  5
1C
102
{ACAD_REACTORS
330
1A
102
}
330
1A
100
AcDbPlotSettings
  1

  2
Xerox Phaser 6128MFP-N (c2:0e:8d)
  4
na-letter
  6

 40
4.233333333333333
 41
4.233333333333333
 42
4.233333333333333
 43
4.233333333333333
 44
215.9
 45
279.4
 46
0.0
 47
0.0
 48
0.0
 49
0.0
140
0.0
141
0.0
142
1.0
143
1.0
 70
   688
 72
     0
 73
     1
 74
     5
  7

 75
    16
 76
     0
 77
     2
 78
   300
147
1.0
148
0.0
149
0.0
100
AcDbLayout
  1
Sheet 1
 70
     1
 71
     1
 10
0.0
 20
0.0
 11
10.83333333333333
 21
8.333333333333334
 12
0.0
 22
0.0
 32
0.0
 14
1.066666666666666
 24
0.8166666666666664
 34
0.0
 15
9.600000000000001
 25
7.350000000000001
 35
0.0
146
0.0
 13
0.0
 23
0.0
 33
0.0
 16
1.0
 26
0.0
 36
0.0
 17
0.0
 27
1.0
 37
0.0
 76
     0
330
1B
331
3D6
  0
MATERIAL
  5
3C3
102
{ACAD_REACTORS
330
3C1
102
}
330
3C1
100
AcDbMaterial
  1
ByBlock
 72
     1
 94
      127
  0
MATERIAL
  5
3C2
102
{ACAD_REACTORS
330
3C1
102
}
330
3C1
100
AcDbMaterial
  1
ByLayer
 72
     1
 94
      127
  0
MATERIAL
  5
3C4
102
{ACAD_REACTORS
330
3C1
102
}
330
3C1
100
AcDbMaterial
  1
Global
 72
     1
 94
      127
  0
MLEADERSTYLE
  5
3C8
102
{ACAD_REACTORS
330
3C7
102
}
330
3C7
100
AcDbMLeaderStyle
179
     2
170
     2
171
     1
172
     0
 90
        2
 40
0.0
 41
0.0
173
     1
 91
-1056964608
340
14
 92
       -2
290
     1
 42
0.09
291
     1
 43
0.36
  3
Standard
341
0
 44
0.18
300

342
11
174
     1
178
     6
175
     1
176
     0
 93
-1056964608
 45
0.18
292
     0
297
     0
 46
0.18
343
0
 94
-1056964608
 47
1.0
 49
1.0
140
1.0
293
     1
141
0.0
294
     1
177
     0
142
1.0
295
     0
296
     0
143
0.125
271
     0
272
     9
273
     9
  0
MLINESTYLE
  5
18
102
{ACAD_REACTORS
330
17
102
}
330
17
100
AcDbMlineStyle
  2
Standard
 70
     0
  3

 62
   256
 51
90.0
 52
90.0
 71
     2
 49
0.5
 62
   256
  6
BYLAYER
 49
-0.5
 62
   256
  6
BYLAYER
  0
ACDBPLACEHOLDER
  5
F
102
{ACAD_REACTORS
330
E
102
}
330
E
  0
SCALE
  5
383
102
{ACAD_REACTORS
330
382
102
}
330
382
100
AcDbScale
 70
     0
300
1:1
140
1.0
141
1.0
290
     1
  0
SCALE
  5
384
102
{ACAD_REACTORS
330
382
102
}
330
382
100
AcDbScale
 70
     0
300
1:2
140
1.0
141
2.0
290
     0
  0
SCALE
  5
385
102
{ACAD_REACTORS
330
382
102
}
330
382
100
AcDbScale
 70
     0
300
1:4
140
1.0
141
4.0
290
     0
  0
SCALE
  5
386
102
{ACAD_REACTORS
330
382
102
}
330
382
100
AcDbScale
 70
     0
300
1:5
140
1.0
141
5.0
290
     0
  0
SCALE
  5
387
102
{ACAD_REACTORS
330
382
102
}
330
382
100
AcDbScale
 70
     0
300
1:8
140
1.0
141
8.0
290
     0
  0
SCALE
  5
388
102
{ACAD_REACTORS
330
382
102
}
330
382
100
AcDbScale
 70
     0
300
1:10
140
1.0
141
10.0
290
     0
  0
SCALE
  5
389
102
{ACAD_REACTORS
330
382
102
}
330
382
100
AcDbScale
 70
     0
300
1:16
140
1.0
141
16.0
290
     0
  0
SCALE
  5
38A
102
{ACAD_REACTORS
330
382
102
}
330
382
100
AcDbScale
 70
     0
300
1:20
140
1.0
141
20.0
290
     0
  0
SCALE
  5
38B
102
{ACAD_REACTORS
330
382
102
}
330
382
100
AcDbScale
 70
     0
300
1:30
140
1.0
141
30.0
290
     0
  0
SCALE
  5
38C
102
{ACAD_REACTORS
330
382
102
}
330
382
100
AcDbScale
 70
     0
300
1:40
140
1.0
141
40.0
290
     0
  0
SCALE
  5
38D
102
{ACAD_REACTORS
330
382
102
}
330
382
100
AcDbScale
 70
     0
300
1:50
140
1.0
141
50.0
290
     0
  0
SCALE
  5
38E
102
{ACAD_REACTORS
330
382
102
}
330
382
100
AcDbScale
 70
     0
300
1:100
140
1.0
141
100.0
290
     0
  0
SCALE
  5
38F
102
{ACAD_REACTORS
330
382
102
}
330
382
100
AcDbScale
 70
     0
300
2:1
140
2.0
141
1.0
290
     0
  0
SCALE
  5
390
102
{ACAD_REACTORS
330
382
102
}
330
382
100
AcDbScale
 70
     0
300
4:1
140
4.0
141
1.0
290
     0
  0
SCALE
  5
391
102
{ACAD_REACTORS
330
382
102
}
330
382
100
AcDbScale
 70
     0
300
8:1
140
8.0
141
1.0
290
     0
  0
SCALE
  5
392
102
{ACAD_REACTORS
330
382
102
}
330
382
100
AcDbScale
 70
     0
300
10:1
140
10.0
141
1.0
290
     0
  0
SCALE
  5
393
102
{ACAD_REACTORS
330
382
102
}
330
382
100
AcDbScale
 70
     0
300
100:1
140
100.0
141
1.0
290
     0
  0
SCALE
  5
394
102
{ACAD_REACTORS
330
382
102
}
330
382
100
AcDbScale
 70
     0
300
1/128" = 1'-0"
140
0.0078125
141
12.0
290
     0
  0
SCALE
  5
395
102
{ACAD_REACTORS
330
382
102
}
330
382
100
AcDbScale
 70
     0
300
1/64" = 1'-0"
140
0.015625
141
12.0
290
     0
  0
SCALE
  5
396
102
{ACAD_REACTORS
330
382
102
}
330
382
100
AcDbScale
 70
     0
300
1/32" = 1'-0"
140
0.03125
141
12.0
290
     0
  0
SCALE
  5
397
102
{ACAD_REACTORS
330
382
102
}
330
382
100
AcDbScale
 70
     0
300
1/16" = 1'-0"
140
0.0625
141
12.0
290
     0
  0
SCALE
  5
398
102
{ACAD_REACTORS
330
382
102
}
330
382
100
AcDbScale
 70
     0
300
3/32" = 1'-0"
140
0.09375
141
12.0
290
     0
  0
SCALE
  5
399
102
{ACAD_REACTORS
330
382
102
}
330
382
100
AcDbScale
 70
     0
300
1/8" = 1'-0"
140
0.125
141
12.0
290
     0
  0
SCALE
  5
39A
102
{ACAD_REACTORS
330
382
102
}
330
382
100
AcDbScale
 70
     0
300
3/16" = 1'-0"
140
0.1875
141
12.0
290
     0
  0
SCALE
  5
39B
102
{ACAD_REACTORS
330
382
102
}
330
382
100
AcDbScale
 70
     0
300
1/4" = 1'-0"
140
0.25
141
12.0
290
     0
  0
SCALE
  5
39C
102
{ACAD_REACTORS
330
382
102
}
330
382
100
AcDbScale
 70
     0
300
3/8" = 1'-0"
140
0.375
141
12.0
290
     0
  0
SCALE
  5
39D
102
{ACAD_REACTORS
330
382
102
}
330
382
100
AcDbScale
 70
     0
300
1/2" = 1'-0"
140
0.5
141
12.0
290
     0
  0
SCALE
  5
39E
102
{ACAD_REACTORS
330
382
102
}
330
382
100
AcDbScale
 70
     0
300
3/4" = 1'-0"
140
0.75
141
12.0
290
     0
  0
SCALE
  5
39F
102
{ACAD_REACTORS
330
382
102
}
330
382
100
AcDbScale
 70
     0
300
1" = 1'-0"
140
1.0
141
12.0
290
     0
  0
SCALE
  5
3A0
102
{ACAD_REACTORS
330
382
102
}
330
382
100
AcDbScale
 70
     0
300
1-1/2" = 1'-0"
140
1.5
141
12.0
290
     0
  0
SCALE
  5
3A1
102
{ACAD_REACTORS
330
382
102
}
330
382
100
AcDbScale
 70
     0
300
3" = 1'-0"
140
3.0
141
12.0
290
     0
  0
SCALE
  5
3A2
102
{ACAD_REACTORS
330
382
102
}
330
382
100
AcDbScale
 70
     0
300
6" = 1'-0"
140
6.0
141
12.0
290
     0
  0
SCALE
  5
3A3
102
{ACAD_REACTORS
330
382
102
}
330
382
100
AcDbScale
 70
     0
300
1'-0" = 1'-0"
140
12.0
141
12.0
290
     0
  0
TABLESTYLE
  5
3C6
102
{ACAD_REACTORS
330
3C5
102
}
102
{ACAD_XDICTIONARY
360
91A
102
}
330
3C5
100
AcDbTableStyle
  3
Standard
 70
     0
 71
     0
 40
0.06
 41
0.06
280
     0
281
     0
  7
Standard
140
0.18
170
     2
 62
     0
 63
   257
283
     0
 90
        4
 91
        0
  1

274
    -2
284
     1
 64
     0
275
    -2
285
     1
 65
     0
276
    -2
286
     1
 66
     0
277
    -2
287
     1
 67
     0
278
    -2
288
     1
 68
     0
279
    -2
289
     1
 69
     0
  7
Standard
140
0.25
170
     5
 62
     0
 63
   257
283
     0
 90
        4
 91
        0
  1

274
    -2
284
     1
 64
     0
275
    -2
285
     1
 65
     0
276
    -2
286
     1
 66
     0
277
    -2
287
     1
 67
     0
278
    -2
288
     1
 68
     0
279
    -2
289
     1
 69
     0
  7
Standard
140
0.18
170
     5
 62
     0
 63
   257
283
     0
 90
        4
 91
        0
  1

274
    -2
284
     1
 64
     0
275
    -2
285
     1
 65
     0
276
    -2
286
     1
 66
     0
277
    -2
287
     1
 67
     0
278
    -2
288
     1
 68
     0
279
    -2
289
     1
 69
     0
  0
VISUALSTYLE
  5
3AD
102
{ACAD_REACTORS
330
3A8
102
}
330
3A8
100
AcDbVisualStyle
  2
2dWireframe
 70
     4
177
     2
291
     0
 71
     0
176
     1
 72
     2
176
     1
 73
     0
176
     1
 90
        0
176
     1
 40
0.6
176
     1
 41
30.0
176
     1
 62
     5
 63
     7
421
 16777215
176
     1
 74
     1
176
     1
 91
        4
176
     1
 64
     7
176
     1
 65
   257
176
     1
 75
     1
176
     1
175
     1
176
     1
 42
1.0
176
     1
 92
        0
176
     1
 66
   257
176
     1
 43
1.0
176
     1
 76
     1
176
     1
 77
     6
176
     1
 78
     2
176
     1
 67
     7
176
     1
 79
     5
176
     1
170
     0
176
     1
171
     0
176
     1
290
     0
176
     1
 93
        1
176
     1
 44
0.0
176
     1
173
     0
176
     1
  0
VISUALSTYLE
  5
3B0
102
{ACAD_REACTORS
330
3A8
102
}
330
3A8
100
AcDbVisualStyle
  2
Basic
 70
     7
177
     2
291
     1
 71
     1
176
     1
 72
     0
176
     1
 73
     1
176
     1
 90
        0
176
     1
 40
0.6
176
     1
 41
30.0
176
     1
 62
     5
 63
     7
421
 16777215
176
     1
 74
     0
176
     1
 91
        4
176
     1
 64
     7
176
     1
 65
   257
176
     1
 75
     1
176
     1
175
     1
176
     1
 42
1.0
176
     1
 92
        8
176
     1
 66
     7
176
     1
 43
1.0
176
     1
 76
     1
176
     1
 77
     6
176
     1
 78
     2
176
     1
 67
     7
176
     1
 79
     5
176
     1
170
     0
176
     1
171
     0
176
     1
290
     0
176
     1
 93
        1
176
     1
 44
0.0
176
     1
173
     0
176
     1
  0
VISUALSTYLE
  5
3B4
102
{ACAD_REACTORS
330
3A8
102
}
330
3A8
100
AcDbVisualStyle
  2
Brighten
 70
    12
177
     2
291
     1
 71
     2
176
     1
 72
     2
176
     1
 73
     0
176
     1
 90
        0
176
     1
 40
0.6
176
     1
 41
30.0
176
     1
 62
     5
 63
     7
421
 16777215
176
     1
 74
     1
176
     1
 91
        4
176
     1
 64
     7
176
     1
 65
   257
176
     1
 75
     1
176
     1
175
     1
176
     1
 42
1.0
176
     1
 92
        8
176
     1
 66
     7
176
     1
 43
1.0
176
     1
 76
     1
176
     1
 77
     6
176
     1
 78
     2
176
     1
 67
     7
176
     1
 79
     5
176
     1
170
     0
176
     1
171
     0
176
     1
290
     0
176
     1
 93
        1
176
     1
 44
50.0
176
     1
173
     0
176
     1
  0
VISUALSTYLE
  5
3B8
102
{ACAD_REACTORS
330
3A8
102
}
330
3A8
100
AcDbVisualStyle
  2
ColorChange
 70
    16
177
     2
291
     1
 71
     2
176
     1
 72
     2
176
     1
 73
     3
176
     1
 90
        0
176
     1
 40
0.6
176
     1
 41
30.0
176
     1
 62
     5
 63
     8
421
  8421504
176
     1
 74
     1
176
     1
 91
        4
176
     1
 64
     7
176
     1
 65
   257
176
     1
 75
     1
176
     1
175
     1
176
     1
 42
1.0
176
     1
 92
        8
176
     1
 66
     8
424
  8421504
176
     1
 43
1.0
176
     1
 76
     1
176
     1
 77
     6
176
     1
 78
     2
176
     1
 67
     7
176
     1
 79
     5
176
     1
170
     0
176
     1
171
     0
176
     1
290
     0
176
     1
 93
        1
176
     1
 44
0.0
176
     1
173
     0
176
     1
  0
VISUALSTYLE
  5
3B2
102
{ACAD_REACTORS
330
3A8
102
}
330
3A8
100
AcDbVisualStyle
  2
Conceptual
 70
     9
177
     2
291
     0
 71
     3
176
     1
 72
     2
176
     1
 73
     0
176
     1
 90
        0
176
     1
 40
0.6
176
     1
 41
30.0
176
     1
 62
     5
 63
     7
421
 16777215
176
     1
 74
     2
176
     1
 91
        2
176
     1
 64
     7
176
     1
 65
   257
176
     1
 75
     1
176
     1
175
     1
176
     1
 42
179.0
176
     1
 92
        8
176
     1
 66
     7
176
     1
 43
1.0
176
     1
 76
     1
176
     1
 77
     6
176
     1
 78
     2
176
     1
 67
     7
176
     1
 79
     3
176
     1
170
     0
176
     1
171
     0
176
     1
290
     0
176
     1
 93
        1
176
     1
 44
0.0
176
     1
173
     0
176
     1
  0
VISUALSTYLE
  5
3B3
102
{ACAD_REACTORS
330
3A8
102
}
330
3A8
100
AcDbVisualStyle
  2
Dim
 70
    11
177
     2
291
     1
 71
     2
176
     1
 72
     2
176
     1
 73
     0
176
     1
 90
        0
176
     1
 40
0.6
176
     1
 41
30.0
176
     1
 62
     5
 63
     7
421
 16777215
176
     1
 74
     1
176
     1
 91
        4
176
     1
 64
     7
176
     1
 65
   257
176
     1
 75
     1
176
     1
175
     1
176
     1
 42
1.0
176
     1
 92
        8
176
     1
 66
     7
176
     1
 43
1.0
176
     1
 76
     1
176
     1
 77
     6
176
     1
 78
     2
176
     1
 67
     7
176
     1
 79
     5
176
     1
170
     0
176
     1
171
     0
176
     1
290
     0
176
     1
 93
        1
176
     1
 44
-50.0
176
     1
173
     0
176
     1
  0
VISUALSTYLE
  5
3BB
102
{ACAD_REACTORS
330
3A8
102
}
330
3A8
100
AcDbVisualStyle
  2
EdgeColorOff
 70
    22
177
     2
291
     1
 71
     2
176
     0
 72
     2
176
     0
 73
     0
176
     0
 90
        0
176
     0
 40
0.6
176
     0
 41
30.0
176
     0
 62
     5
 63
     7
421
 16777215
176
     0
 74
     1
176
     0
 91
        4
176
     0
 64
     7
176
     0
 65
   257
176
     0
 75
     1
176
     0
175
     1
176
     0
 42
1.0
176
     0
 92
        8
176
     2
 66
     7
176
     0
 43
1.0
176
     0
 76
     1
176
     0
 77
     6
176
     0
 78
     2
176
     0
 67
     7
176
     0
 79
     5
176
     0
170
     0
176
     0
171
     0
176
     0
290
     0
176
     0
 93
        1
176
     0
 44
0.0
176
     0
173
     0
176
     0
  0
VISUALSTYLE
  5
3B7
102
{ACAD_REACTORS
330
3A8
102
}
330
3A8
100
AcDbVisualStyle
  2
Facepattern
 70
    15
177
     2
291
     1
 71
     2
176
     1
 72
     2
176
     1
 73
     0
176
     1
 90
        0
176
     1
 40
0.6
176
     1
 41
30.0
176
     1
 62
     5
 63
     7
421
 16777215
176
     1
 74
     1
176
     1
 91
        4
176
     1
 64
     7
176
     1
 65
   257
176
     1
 75
     1
176
     1
175
     1
176
     1
 42
1.0
176
     1
 92
        8
176
     1
 66
     7
176
     1
 43
1.0
176
     1
 76
     1
176
     1
 77
     6
176
     1
 78
     2
176
     1
 67
     7
176
     1
 79
     5
176
     1
170
     0
176
     1
171
     0
176
     1
290
     0
176
     1
 93
        1
176
     1
 44
0.0
176
     1
173
     0
176
     1
  0
VISUALSTYLE
  5
3A9
102
{ACAD_REACTORS
330
3A8
102
}
330
3A8
100
AcDbVisualStyle
  2
Flat
 70
     0
177
     2
291
     1
 71
     2
176
     1
 72
     1
176
     1
 73
     1
176
     1
 90
        2
176
     1
 40
0.6
176
     1
 41
30.0
176
     1
 62
     5
 63
     7
421
 16777215
176
     1
 74
     0
176
     1
 91
        0
176
     1
 64
     7
176
     1
 65
   257
176
     1
 75
     1
176
     1
175
     1
176
     1
 42
1.0
176
     1
 92
        8
176
     1
 66
     7
176
     1
 43
1.0
176
     1
 76
     1
176
     1
 77
     6
176
     1
 78
     2
176
     1
 67
     7
176
     1
 79
     5
176
     1
170
     0
176
     1
171
     0
176
     1
290
     0
176
     1
 93
       13
176
     1
 44
0.0
176
     1
173
     0
176
     1
  0
VISUALSTYLE
  5
3AA
102
{ACAD_REACTORS
330
3A8
102
}
330
3A8
100
AcDbVisualStyle
  2
FlatWithEdges
 70
     1
177
     2
291
     1
 71
     2
176
     1
 72
     1
176
     1
 73
     1
176
     1
 90
        2
176
     1
 40
0.6
176
     1
 41
30.0
176
     1
 62
     5
 63
     7
421
 16777215
176
     1
 74
     1
176
     1
 91
        0
176
     1
 64
     7
176
     1
 65
   257
176
     1
 75
     1
176
     1
175
     1
176
     1
 42
1.0
176
     1
 92
        0
176
     1
 66
   257
176
     1
 43
1.0
176
     1
 76
     1
176
     1
 77
     6
176
     1
 78
     2
176
     1
 67
     7
176
     1
 79
     5
176
     1
170
     0
176
     1
171
     0
176
     1
290
     0
176
     1
 93
       13
176
     1
 44
0.0
176
     1
173
     0
176
     1
  0
VISUALSTYLE
  5
3AB
102
{ACAD_REACTORS
330
3A8
102
}
330
3A8
100
AcDbVisualStyle
  2
Gouraud
 70
     2
177
     2
291
     1
 71
     2
176
     1
 72
     2
176
     1
 73
     1
176
     1
 90
        2
176
     1
 40
0.6
176
     1
 41
30.0
176
     1
 62
     5
 63
     7
421
 16777215
176
     1
 74
     0
176
     1
 91
        0
176
     1
 64
     7
176
     1
 65
   257
176
     1
 75
     1
176
     1
175
     1
176
     1
 42
1.0
176
     1
 92
        0
176
     1
 66
     7
176
     1
 43
1.0
176
     1
 76
     1
176
     1
 77
     6
176
     1
 78
     2
176
     1
 67
     7
176
     1
 79
     5
176
     1
170
     0
176
     1
171
     0
176
     1
290
     0
176
     1
 93
       13
176
     1
 44
0.0
176
     1
173
     0
176
     1
  0
VISUALSTYLE
  5
3AC
102
{ACAD_REACTORS
330
3A8
102
}
330
3A8
100
AcDbVisualStyle
  2
GouraudWithEdges
 70
     3
177
     2
291
     1
 71
     2
176
     1
 72
     2
176
     1
 73
     1
176
     1
 90
        2
176
     1
 40
0.6
176
     1
 41
30.0
176
     1
 62
     5
 63
     7
421
 16777215
176
     1
 74
     1
176
     1
 91
        0
176
     1
 64
     7
176
     1
 65
   257
176
     1
 75
     1
176
     1
175
     1
176
     1
 42
1.0
176
     1
 92
        0
176
     1
 66
   257
176
     1
 43
1.0
176
     1
 76
     1
176
     1
 77
     6
176
     1
 78
     2
176
     1
 67
     7
176
     1
 79
     5
176
     1
170
     0
176
     1
171
     0
176
     1
290
     0
176
     1
 93
       13
176
     1
 44
0.0
176
     1
173
     0
176
     1
  0
VISUALSTYLE
  5
3AF
102
{ACAD_REACTORS
330
3A8
102
}
330
3A8
100
AcDbVisualStyle
  2
Hidden
 70
     6
177
     2
291
     0
 71
     1
176
     1
 72
     2
176
     1
 73
     2
176
     1
 90
        0
176
     1
 40
0.6
176
     1
 41
30.0
176
     1
 62
     5
 63
     7
421
 16777215
176
     1
 74
     2
176
     1
 91
        2
176
     1
 64
     7
176
     1
 65
   257
176
     1
 75
     2
176
     1
175
     1
176
     1
 42
40.0
176
     1
 92
        0
176
     1
 66
   257
176
     1
 43
1.0
176
     1
 76
     1
176
     1
 77
     6
176
     1
 78
     2
176
     1
 67
     7
176
     1
 79
     3
176
     1
170
     0
176
     1
171
     0
176
     1
290
     0
176
     1
 93
        1
176
     1
 44
0.0
176
     1
173
     0
176
     1
  0
VISUALSTYLE
  5
3B9
102
{ACAD_REACTORS
330
3A8
102
}
330
3A8
100
AcDbVisualStyle
  2
JitterOff
 70
    20
177
     2
291
     1
 71
     2
176
     0
 72
     2
176
     0
 73
     0
176
     0
 90
        0
176
     0
 40
0.6
176
     0
 41
30.0
176
     0
 62
     5
 63
     7
421
 16777215
176
     0
 74
     1
176
     0
 91
        4
176
     0
 64
     7
176
     0
 65
   257
176
     0
 75
     1
176
     0
175
     1
176
     0
 42
1.0
176
     0
 92
       10
176
     2
 66
     7
176
     0
 43
1.0
176
     0
 76
     1
176
     0
 77
     6
176
     0
 78
     2
176
     0
 67
     7
176
     0
 79
     5
176
     0
170
     0
176
     0
171
     0
176
     0
290
     0
176
     0
 93
        1
176
     0
 44
0.0
176
     0
173
     0
176
     0
  0
VISUALSTYLE
  5
3B6
102
{ACAD_REACTORS
330
3A8
102
}
330
3A8
100
AcDbVisualStyle
  2
Linepattern
 70
    14
177
     2
291
     1
 71
     2
176
     1
 72
     2
176
     1
 73
     0
176
     1
 90
        0
176
     1
 40
0.6
176
     1
 41
30.0
176
     1
 62
     5
 63
     7
421
 16777215
176
     1
 74
     1
176
     1
 91
        4
176
     1
 64
     7
176
     1
 65
   257
176
     1
 75
     7
176
     1
175
     7
176
     1
 42
1.0
176
     1
 92
        8
176
     1
 66
     7
176
     1
 43
1.0
176
     1
 76
     1
176
     1
 77
     6
176
     1
 78
     2
176
     1
 67
     7
176
     1
 79
     5
176
     1
170
     0
176
     1
171
     0
176
     1
290
     0
176
     1
 93
        1
176
     1
 44
0.0
176
     1
173
     0
176
     1
  0
VISUALSTYLE
  5
3BA
102
{ACAD_REACTORS
330
3A8
102
}
330
3A8
100
AcDbVisualStyle
  2
OverhangOff
 70
    21
177
     2
291
     1
 71
     2
176
     0
 72
     2
176
     0
 73
     0
176
     0
 90
        0
176
     0
 40
0.6
176
     0
 41
30.0
176
     0
 62
     5
 63
     7
421
 16777215
176
     0
 74
     1
176
     0
 91
        4
176
     0
 64
     7
176
     0
 65
   257
176
     0
 75
     1
176
     0
175
     1
176
     0
 42
1.0
176
     0
 92
        9
176
     2
 66
     7
176
     0
 43
1.0
176
     0
 76
     1
176
     0
 77
     6
176
     0
 78
     2
176
     0
 67
     7
176
     0
 79
     5
176
     0
170
     0
176
     0
171
     0
176
     0
290
     0
176
     0
 93
        1
176
     0
 44
0.0
176
     0
173
     0
176
     0
  0
VISUALSTYLE
  5
3B1
102
{ACAD_REACTORS
330
3A8
102
}
330
3A8
100
AcDbVisualStyle
  2
Realistic
 70
     8
177
     2
291
     0
 71
     2
176
     1
 72
     3
176
     1
 73
     0
176
     1
 90
        2
176
     1
 40
0.6
176
     1
 41
30.0
176
     1
 62
     5
 63
     7
421
 16777215
176
     1
 74
     0
176
     1
 91
        0
176
     1
 64
     7
176
     1
 65
   257
176
     1
 75
     1
176
     1
175
     1
176
     1
 42
1.0
176
     1
 92
        8
176
     1
 66
   257
176
     1
 43
1.0
176
     1
 76
     1
176
     1
 77
     6
176
     1
 78
     2
176
     1
 67
     7
176
     1
 79
     3
176
     1
170
     0
176
     1
171
     0
176
     1
290
     0
176
     1
 93
       13
176
     1
 44
0.0
176
     1
173
     0
176
     1
  0
VISUALSTYLE
  5
3C0
102
{ACAD_REACTORS
330
3A8
102
}
330
3A8
100
AcDbVisualStyle
  2
Shaded
 70
    27
177
     2
291
     0
 71
     2
176
     1
 72
     2
176
     1
 73
     1
176
     1
 90
        2
176
     1
 40
0.6
176
     1
 41
30.0
176
     1
 62
     5
 63
     7
421
 16777215
176
     1
 74
     0
176
     1
 91
        4
176
     1
 64
     7
176
     1
 65
   257
176
     1
 75
     1
176
     1
175
     1
176
     1
 42
1.0
176
     1
 92
        8
176
     1
 66
   257
176
     1
 43
1.0
176
     1
 76
     1
176
     1
 77
     6
176
     1
 78
     2
176
     1
 67
     8
425
  7895160
176
     1
 79
     3
176
     1
170
     0
176
     1
171
     0
176
     1
290
     0
176
     1
 93
        5
176
     1
 44
0.0
176
     1
173
     0
176
     1
  0
VISUALSTYLE
  5
3BF
102
{ACAD_REACTORS
330
3A8
102
}
330
3A8
100
AcDbVisualStyle
  2
Shaded with edges
 70
    26
177
     2
291
     0
 71
     2
176
     1
 72
     2
176
     1
 73
     1
176
     1
 90
        2
176
     1
 40
0.6
176
     1
 41
30.0
176
     1
 62
     5
 63
     7
421
 16777215
176
     1
 74
     1
176
     1
 91
       10
176
     1
 64
     7
176
     1
 65
   257
176
     1
 75
     2
176
     1
175
     1
176
     1
 42
1.0
176
     1
 92
        8
176
     1
 66
   257
176
     1
 43
1.0
176
     1
 76
     1
176
     1
 77
     6
176
     1
 78
     2
176
     1
 67
     7
176
     1
 79
     3
176
     1
170
     0
176
     1
171
     0
176
     1
290
     0
176
     1
 93
        5
176
     1
 44
0.0
176
     1
173
     0
176
     1
  0
VISUALSTYLE
  5
3BC
102
{ACAD_REACTORS
330
3A8
102
}
330
3A8
100
AcDbVisualStyle
  2
Shades of Gray
 70
    23
177
     2
291
     0
 71
     2
176
     1
 72
     2
176
     1
 73
     3
176
     1
 90
        0
176
     1
 40
0.6
176
     1
 41
30.0
176
     1
 62
     5
 63
     7
421
 16777215
176
     1
 74
     2
176
     1
 91
        2
176
     1
 64
     7
176
     1
 65
     7
176
     1
 75
     1
176
     1
175
     1
176
     1
 42
40.0
176
     1
 92
        8
176
     1
 66
     7
176
     1
 43
1.0
176
     1
 76
     1
176
     1
 77
     6
176
     1
 78
     2
176
     1
 67
     7
176
     1
 79
     3
176
     1
170
     0
176
     1
171
     0
176
     1
290
     0
176
     1
 93
        1
176
     1
 44
0.0
176
     1
173
     0
176
     1
  0
VISUALSTYLE
  5
3BD
102
{ACAD_REACTORS
330
3A8
102
}
330
3A8
100
AcDbVisualStyle
  2
Sketchy
 70
    24
177
     2
291
     0
 71
     1
176
     1
 72
     2
176
     1
 73
     2
176
     1
 90
        0
176
     1
 40
0.6
176
     1
 41
30.0
176
     1
 62
     5
 63
     7
421
 16777215
176
     1
 74
     2
176
     1
 91
        2
176
     1
 64
     7
176
     1
 65
     7
176
     1
 75
     1
176
     1
175
     1
176
     1
 42
40.0
176
     1
 92
       11
176
     1
 66
     7
176
     1
 43
1.0
176
     1
 76
     1
176
     1
 77
     6
176
     1
 78
     2
176
     1
 67
     7
176
     1
 79
     6
176
     1
170
     0
176
     1
171
     0
176
     1
290
     0
176
     1
 93
        1
176
     1
 44
0.0
176
     1
173
     0
176
     1
  0
VISUALSTYLE
  5
3B5
102
{ACAD_REACTORS
330
3A8
102
}
330
3A8
100
AcDbVisualStyle
  2
Thicken
 70
    13
177
     2
291
     1
 71
     2
176
     1
 72
     2
176
     1
 73
     0
176
     1
 90
        0
176
     1
 40
0.6
176
     1
 41
30.0
176
     1
 62
     5
 63
     7
421
 16777215
176
     1
 74
     1
176
     1
 91
        4
176
     1
 64
     7
176
     1
 65
   257
176
     1
 75
     1
176
     1
175
     1
176
     1
 42
1.0
176
     1
 92
       12
176
     1
 66
     7
176
     1
 43
1.0
176
     1
 76
     1
176
     1
 77
     6
176
     1
 78
     2
176
     1
 67
     7
176
     1
 79
     5
176
     1
170
     0
176
     1
171
     0
176
     1
290
     0
176
     1
 93
        1
176
     1
 44
0.0
176
     1
173
     0
176
     1
  0
VISUALSTYLE
  5
3AE
102
{ACAD_REACTORS
330
3A8
102
}
330
3A8
100
AcDbVisualStyle
  2
Wireframe
 70
     5
177
     2
291
     0
 71
     0
176
     1
 72
     2
176
     1
 73
     0
176
     1
 90
        0
176
     1
 40
0.6
176
     1
 41
30.0
176
     1
 62
     5
 63
     7
421
 16777215
176
     1
 74
     1
176
     1
 91
        4
176
     1
 64
     7
176
     1
 65
   257
176
     1
 75
     1
176
     1
175
     1
176
     1
 42
1.0
176
     1
 92
        0
176
     1
 66
   257
176
     1
 43
1.0
176
     1
 76
     1
176
     1
 77
     6
176
     1
 78
     2
176
     1
 67
     7
176
     1
 79
     3
176
     1
170
     0
176
     1
171
     0
176
     1
290
     0
176
     1
 93
        1
176
     1
 44
0.0
176
     1
173
     0
176
     1
  0
VISUALSTYLE
  5
3BE
102
{ACAD_REACTORS
330
3A8
102
}
330
3A8
100
AcDbVisualStyle
  2
X-Ray
 70
    25
177
     2
291
     0
 71
     2
176
     1
 72
     2
176
     1
 73
     1
176
     1
 90
        1
176
     1
 40
0.5
176
     1
 41
30.0
176
     1
 62
     5
 63
     7
421
 16777215
176
     1
 74
     1
176
     1
 91
        0
176
     1
 64
     7
176
     1
 65
   257
176
     1
 75
     1
176
     1
175
     1
176
     1
 42
1.0
176
     1
 92
        8
176
     1
 66
     7
176
     1
 43
1.0
176
     1
 76
     1
176
     1
 77
     6
176
     1
 78
     2
176
     1
 67
     7
176
     1
 79
     3
176
     1
170
     0
176
     1
171
     0
176
     1
290
     0
176
     1
 93
       13
176
     1
 44
0.0
176
     1
173
     0
176
     1
  0
DICTIONARYVAR
  5
3CD
102
{ACAD_REACTORS
330
3CC
102
}
330
3CC
100
DictionaryVariables
280
     0
  1
1:1
  0
DICTIONARYVAR
  5
3D2
102
{ACAD_REACTORS
330
3CC
102
}
330
3CC
100
DictionaryVariables
280
     0
  1
Standard
  0
DICTIONARYVAR
  5
3D1
102
{ACAD_REACTORS
330
3CC
102
}
330
3CC
100
DictionaryVariables
280
     0
  1
Standard
  0
DICTIONARYVAR
  5
3D3
102
{ACAD_REACTORS
330
3CC
102
}
330
3CC
100
DictionaryVariables
280
     0
  1
0
  0
DICTIONARY
  5
91A
330
3C6
100
AcDbDictionary
280
     1
281
     1
  3
ACAD_ROUNDTRIP_2008_TABLESTYLE_CELLSTYLEMAP
360
91B
  0
CELLSTYLEMAP
  5
91B
102
{ACAD_REACTORS
330
91A
102
}
330
91A
100
AcDbCellStyleMap
 90
        3
300
CELLSTYLE
  1
TABLEFORMAT_BEGIN
 90
        5
170
     1
 91
        0
 92
    32768
 62
   257
 93
        1
300
CONTENTFORMAT
  1
CONTENTFORMAT_BEGIN
 90
        0
 91
        0
 92
        4
 93
        0
300

 40
0.0
140
1.0
 94
        5
 62
     0
340
11
144
0.25
309
CONTENTFORMAT_END
171
     1
301
MARGIN
  1
CELLMARGIN_BEGIN
 40
0.06
 40
0.06
 40
0.06
 40
0.06
 40
0.06
 40
0.06
309
CELLMARGIN_END
 94
        6
 95
        1
302
GRIDFORMAT
  1
GRIDFORMAT_BEGIN
 90
        0
 91
        1
 62
     0
 92
       -2
340
14
 93
        0
 40
0.045
309
GRIDFORMAT_END
 95
        2
302
GRIDFORMAT
  1
GRIDFORMAT_BEGIN
 90
        0
 91
        1
 62
     0
 92
       -2
340
14
 93
        0
 40
0.045
309
GRIDFORMAT_END
 95
        4
302
GRIDFORMAT
  1
GRIDFORMAT_BEGIN
 90
        0
 91
        1
 62
     0
 92
       -2
340
14
 93
        0
 40
0.045
309
GRIDFORMAT_END
 95
        8
302
GRIDFORMAT
  1
GRIDFORMAT_BEGIN
 90
        0
 91
        1
 62
     0
 92
       -2
340
14
 93
        0
 40
0.045
309
GRIDFORMAT_END
 95
       16
302
GRIDFORMAT
  1
GRIDFORMAT_BEGIN
 90
        0
 91
        1
 62
     0
 92
       -2
340
14
 93
        0
 40
0.045
309
GRIDFORMAT_END
 95
       32
302
GRIDFORMAT
  1
GRIDFORMAT_BEGIN
 90
        0
 91
        1
 62
     0
 92
       -2
340
14
 93
        0
 40
0.045
309
GRIDFORMAT_END
309
TABLEFORMAT_END
  1
CELLSTYLE_BEGIN
 90
        1
 91
        1
300
_TITLE
309
CELLSTYLE_END
300
CELLSTYLE
  1
TABLEFORMAT_BEGIN
 90
        5
170
     1
 91
        0
 92
        0
 62
   257
 93
        1
300
CONTENTFORMAT
  1
CONTENTFORMAT_BEGIN
 90
        0
 91
        0
 92
        4
 93
        0
300

 40
0.0
140
1.0
 94
        5
 62
     0
340
11
144
0.18
309
CONTENTFORMAT_END
171
     1
301
MARGIN
  1
CELLMARGIN_BEGIN
 40
0.06
 40
0.06
 40
0.06
 40
0.06
 40
0.06
 40
0.06
309
CELLMARGIN_END
 94
        6
 95
        1
302
GRIDFORMAT
  1
GRIDFORMAT_BEGIN
 90
        0
 91
        1
 62
     0
 92
       -2
340
14
 93
        0
 40
0.045
309
GRIDFORMAT_END
 95
        2
302
GRIDFORMAT
  1
GRIDFORMAT_BEGIN
 90
        0
 91
        1
 62
     0
 92
       -2
340
14
 93
        0
 40
0.045
309
GRIDFORMAT_END
 95
        4
302
GRIDFORMAT
  1
GRIDFORMAT_BEGIN
 90
        0
 91
        1
 62
     0
 92
       -2
340
14
 93
        0
 40
0.045
309
GRIDFORMAT_END
 95
        8
302
GRIDFORMAT
  1
GRIDFORMAT_BEGIN
 90
        0
 91
        1
 62
     0
 92
       -2
340
14
 93
        0
 40
0.045
309
GRIDFORMAT_END
 95
       16
302
GRIDFORMAT
  1
GRIDFORMAT_BEGIN
 90
        0
 91
        1
 62
     0
 92
       -2
340
14
 93
        0
 40
0.045
309
GRIDFORMAT_END
 95
       32
302
GRIDFORMAT
  1
GRIDFORMAT_BEGIN
 90
        0
 91
        1
 62
     0
 92
       -2
340
14
 93
        0
 40
0.045
309
GRIDFORMAT_END
309
TABLEFORMAT_END
  1
CELLSTYLE_BEGIN
 90
        2
 91
        1
300
_HEADER
309
CELLSTYLE_END
300
CELLSTYLE
  1
TABLEFORMAT_BEGIN
 90
        5
170
     1
 91
        0
 92
        0
 62
   257
 93
        1
300
CONTENTFORMAT
  1
CONTENTFORMAT_BEGIN
 90
        0
 91
        0
 92
        4
 93
        0
300

 40
0.0
140
1.0
 94
        2
 62
     0
340
11
144
0.18
309
CONTENTFORMAT_END
171
     1
301
MARGIN
  1
CELLMARGIN_BEGIN
 40
0.06
 40
0.06
 40
0.06
 40
0.06
 40
0.06
 40
0.06
309
CELLMARGIN_END
 94
        6
 95
        1
302
GRIDFORMAT
  1
GRIDFORMAT_BEGIN
 90
        0
 91
        1
 62
     0
 92
       -2
340
14
 93
        0
 40
0.045
309
GRIDFORMAT_END
 95
        2
302
GRIDFORMAT
  1
GRIDFORMAT_BEGIN
 90
        0
 91
        1
 62
     0
 92
       -2
340
14
 93
        0
 40
0.045
309
GRIDFORMAT_END
 95
        4
302
GRIDFORMAT
  1
GRIDFORMAT_BEGIN
 90
        0
 91
        1
 62
     0
 92
       -2
340
14
 93
        0
 40
0.045
309
GRIDFORMAT_END
 95
        8
302
GRIDFORMAT
  1
GRIDFORMAT_BEGIN
 90
        0
 91
        1
 62
     0
 92
       -2
340
14
 93
        0
 40
0.045
309
GRIDFORMAT_END
 95
       16
302
GRIDFORMAT
  1
GRIDFORMAT_BEGIN
 90
        0
 91
        1
 62
     0
 92
       -2
340
14
 93
        0
 40
0.045
309
GRIDFORMAT_END
 95
       32
302
GRIDFORMAT
  1
GRIDFORMAT_BEGIN
 90
        0
 91
        1
 62
     0
 92
       -2
340
14
 93
        0
 40
0.045
309
GRIDFORMAT_END
309
TABLEFORMAT_END
  1
CELLSTYLE_BEGIN
 90
        3
 91
        2
300
_DATA
309
CELLSTYLE_END
  0
ENDSEC
  0
EOF
