solid Sli3DR_Ultimaker2_rework
facet normal -4.018836057542126e-09 -1.0 -1.256315922931342e-08
  outer loop
    vertex 229.5637783175172 555.3755722006389 862.6024626651975
    vertex 222.63557508724173 555.3755722006388 862.5524626651979
    vertex 228.2924293367342 555.3755722006393 860.9456084157051
  endloop
endfacet
facet normal -4.018836057542126e-09 -1.0 -1.256315922931342e-08
  outer loop
    vertex 222.63557508724173 555.3755722006388 862.5524626651979
    vertex 229.5637783175172 555.3755722006389 862.6024626651975
    vertex 223.68379221990742 555.3755722006392 862.6904630687305
  endloop
endfacet
facet normal -4.018836057542126e-09 -1.0 -1.256315922931342e-08
  outer loop
    vertex 223.68379221990742 555.3755722006392 862.6904630687305
    vertex 229.5637783175172 555.3755722006389 862.6024626651975
    vertex 230.36298169755415 555.3755722006389 864.5319103043817
  endloop
endfacet
facet normal -4.018836057542126e-09 -1.0 -1.256315922931342e-08
  outer loop
    vertex 223.68379221990742 555.3755722006392 862.6904630687305
    vertex 230.36298169755415 555.3755722006389 864.5319103043817
    vertex 224.66057508724214 555.3755722006393 863.0950597798721
  endloop
endfacet
facet normal -4.018836057542126e-09 -1.0 -1.256315922931342e-08
  outer loop
    vertex 224.66057508724214 555.3755722006393 863.0950597798721
    vertex 230.36298169755415 555.3755722006389 864.5319103043817
    vertex 225.49935755104715 555.3755722006395 863.7386802013938
  endloop
endfacet
facet normal -4.018836057542126e-09 -1.0 -1.256315922931342e-08
  outer loop
    vertex 225.49935755104715 555.3755722006395 863.7386802013938
    vertex 230.36298169755415 555.3755722006389 864.5319103043817
    vertex 226.14297797256856 555.3755722006389 864.5774626651992
  endloop
endfacet
facet normal -4.018836057542126e-09 -1.0 -1.256315922931342e-08
  outer loop
    vertex 226.14297797256856 555.3755722006389 864.5774626651992
    vertex 230.36298169755415 555.3755722006389 864.5319103043817
    vertex 230.6355750872415 555.3755722006388 866.6024626651999
  endloop
endfacet
facet normal -4.018836057542126e-09 -1.0 -1.256315922931342e-08
  outer loop
    vertex 226.14297797256856 555.3755722006389 864.5774626651992
    vertex 230.6355750872415 555.3755722006388 866.6024626651999
    vertex 226.54757468371287 555.3755722006389 865.554245532534
  endloop
endfacet
facet normal -4.018836057542126e-09 -1.0 -1.256315922931342e-08
  outer loop
    vertex 226.54757468371287 555.3755722006389 865.554245532534
    vertex 230.6355750872415 555.3755722006388 866.6024626651999
    vertex 226.68557508724157 555.3755722006389 866.6024626651983
  endloop
endfacet
facet normal -4.018836057542126e-09 -1.0 -1.256315922931342e-08
  outer loop
    vertex 226.68557508724157 555.3755722006389 866.6024626651983
    vertex 230.6355750872415 555.3755722006388 866.6024626651999
    vertex 226.54757468371233 555.3755722006389 867.6506797978644
  endloop
endfacet
facet normal -4.018836057542126e-09 -1.0 -1.256315922931342e-08
  outer loop
    vertex 226.54757468371233 555.3755722006389 867.6506797978644
    vertex 230.6355750872415 555.3755722006388 866.6024626651999
    vertex 230.63557508724128 555.3755722006388 873.6024626651997
  endloop
endfacet
facet normal -4.018836057542126e-09 -1.0 -1.256315922931342e-08
  outer loop
    vertex 226.54757468371233 555.3755722006389 867.6506797978644
    vertex 230.63557508724128 555.3755722006388 873.6024626651997
    vertex 226.14297797256887 555.3755722006389 868.6274626651991
  endloop
endfacet
facet normal -4.018836057542126e-09 -1.0 -1.256315922931342e-08
  outer loop
    vertex 226.14297797256887 555.3755722006389 868.6274626651991
    vertex 230.63557508724128 555.3755722006388 873.6024626651997
    vertex 225.49935755104715 555.3755722006395 869.4662451290046
  endloop
endfacet
facet normal -4.018836057542126e-09 -1.0 -1.256315922931342e-08
  outer loop
    vertex 225.49935755104715 555.3755722006395 869.4662451290046
    vertex 230.63557508724128 555.3755722006388 873.6024626651997
    vertex 224.66057508724154 555.3755722006393 870.1098655505263
  endloop
endfacet
facet normal -4.018836057542126e-09 -1.0 -1.256315922931342e-08
  outer loop
    vertex 224.66057508724154 555.3755722006393 870.1098655505263
    vertex 230.63557508724128 555.3755722006388 873.6024626651997
    vertex 223.6837922199068 555.3755722006392 870.5144622616718
  endloop
endfacet
facet normal -4.018836057542126e-09 -1.0 -1.256315922931342e-08
  outer loop
    vertex 223.6837922199068 555.3755722006392 870.5144622616718
    vertex 230.63557508724128 555.3755722006388 873.6024626651997
    vertex 222.63557508724148 555.3755722006388 870.652462665198
  endloop
endfacet
facet normal -4.018836057542126e-09 -1.0 -1.256315922931342e-08
  outer loop
    vertex 222.63557508724148 555.3755722006388 870.652462665198
    vertex 230.63557508724128 555.3755722006388 873.6024626651997
    vertex 214.63557508724122 555.3755722006383 873.602462665199
  endloop
endfacet
facet normal -4.018836057542126e-09 -1.0 -1.256315922931342e-08
  outer loop
    vertex 232.6355890369867 555.3755716742826 882.6999781732168
    vertex 226.7355800499847 555.375566588383 876.4999740078413
    vertex 232.63550670340265 555.3755721038161 873.6024668305747
  endloop
endfacet
facet normal -4.018836057542126e-09 -1.0 -1.256315922931342e-08
  outer loop
    vertex 226.7355800499847 555.375566588383 876.4999740078413
    vertex 232.6355890369867 555.3755716742826 882.6999781732168
    vertex 226.7355800499848 555.3755695700826 880.6999740078403
  endloop
endfacet
facet normal -4.018836057542126e-09 -1.0 -1.256315922931342e-08
  outer loop
    vertex 226.7355800499848 555.3755695700826 880.6999740078403
    vertex 232.6355890369867 555.3755716742826 882.6999781732168
    vertex 218.53558010766227 555.3755695700678 880.6999740078403
  endloop
endfacet
facet normal -4.018836057542126e-09 -1.0 -1.256315922931342e-08
  outer loop
    vertex 218.53558010766227 555.3755695700678 880.6999740078403
    vertex 232.6355890369867 555.3755716742826 882.6999781732168
    vertex 212.63558899835832 555.3755718704018 882.6999736415643
  endloop
endfacet
facet normal -4.018836057542126e-09 -1.0 -1.256315922931342e-08
  outer loop
    vertex 214.63557508724122 555.3755722006383 873.602462665199
    vertex 212.63558899835832 555.3755718704018 882.6999736415643
    vertex 212.63557537528433 555.3755722999354 873.6024622989239
  endloop
endfacet
facet normal -4.018836057542126e-09 -1.0 -1.256315922931342e-08
  outer loop
    vertex 212.63558899835832 555.3755718704018 882.6999736415643
    vertex 214.63557508724122 555.3755722006383 873.602462665199
    vertex 218.5355801076622 555.3755665883682 876.4999740078415
  endloop
endfacet
facet normal -4.018836057542126e-09 -1.0 -1.256315922931342e-08
  outer loop
    vertex 218.5355801076622 555.3755665883682 876.4999740078415
    vertex 214.63557508724122 555.3755722006383 873.602462665199
    vertex 230.63557508724128 555.3755722006388 873.6024626651997
  endloop
endfacet
facet normal -4.018836057542126e-09 -1.0 -1.256315922931342e-08
  outer loop
    vertex 218.5355801076622 555.3755665883682 876.4999740078415
    vertex 230.63557508724128 555.3755722006388 873.6024626651997
    vertex 232.63550670340265 555.3755721038161 873.6024668305747
  endloop
endfacet
facet normal -4.018836057542126e-09 -1.0 -1.256315922931342e-08
  outer loop
    vertex 218.5355801076622 555.3755665883682 876.4999740078415
    vertex 232.63550670340265 555.3755721038161 873.6024668305747
    vertex 226.7355800499847 555.375566588383 876.4999740078413
  endloop
endfacet
facet normal -4.018836057542126e-09 -1.0 -1.256315922931342e-08
  outer loop
    vertex 212.63558899835832 555.3755718704018 882.6999736415643
    vertex 218.5355801076622 555.3755665883682 876.4999740078415
    vertex 218.53558010766227 555.3755695700678 880.6999740078403
  endloop
endfacet
facet normal -4.018836057542126e-09 -1.0 -1.256315922931342e-08
  outer loop
    vertex 224.706127448062 555.3755722006393 858.875056054889
    vertex 220.56502272642166 555.3755722006392 858.8750560548858
    vertex 222.63557508724182 555.3755722006388 858.6024626651972
  endloop
endfacet
facet normal -4.018836057542126e-09 -1.0 -1.256315922931342e-08
  outer loop
    vertex 220.56502272642166 555.3755722006392 858.8750560548858
    vertex 224.706127448062 555.3755722006393 858.875056054889
    vertex 218.63557508724185 555.3755722006387 859.674259434926
  endloop
endfacet
facet normal -4.018836057542126e-09 -1.0 -1.256315922931342e-08
  outer loop
    vertex 218.63557508724185 555.3755722006387 859.674259434926
    vertex 224.706127448062 555.3755722006393 858.875056054889
    vertex 226.63557508724182 555.3755722006389 859.674259434923
  endloop
endfacet
facet normal -4.018836057542126e-09 -1.0 -1.256315922931342e-08
  outer loop
    vertex 218.63557508724185 555.3755722006387 859.674259434926
    vertex 226.63557508724182 555.3755722006389 859.674259434923
    vertex 228.2924293367342 555.3755722006393 860.9456084157051
  endloop
endfacet
facet normal -4.018836057542126e-09 -1.0 -1.256315922931342e-08
  outer loop
    vertex 218.63557508724185 555.3755722006387 859.674259434926
    vertex 228.2924293367342 555.3755722006393 860.9456084157051
    vertex 216.9787208377494 555.3755722006391 860.9456084157048
  endloop
endfacet
facet normal -4.018836057542126e-09 -1.0 -1.256315922931342e-08
  outer loop
    vertex 216.9787208377494 555.3755722006391 860.9456084157048
    vertex 228.2924293367342 555.3755722006393 860.9456084157051
    vertex 215.70737185696618 555.3755722006387 862.6024626651972
  endloop
endfacet
facet normal -4.018836057542126e-09 -1.0 -1.256315922931342e-08
  outer loop
    vertex 215.70737185696618 555.3755722006387 862.6024626651972
    vertex 228.2924293367342 555.3755722006393 860.9456084157051
    vertex 222.63557508724173 555.3755722006388 862.5524626651979
  endloop
endfacet
facet normal -4.018836057542126e-09 -1.0 -1.256315922931342e-08
  outer loop
    vertex 215.70737185696618 555.3755722006387 862.6024626651972
    vertex 222.63557508724173 555.3755722006388 862.5524626651979
    vertex 221.587357954577 555.3755722006393 862.6904630687275
  endloop
endfacet
facet normal -4.018836057542126e-09 -1.0 -1.256315922931342e-08
  outer loop
    vertex 215.70737185696618 555.3755722006387 862.6024626651972
    vertex 221.587357954577 555.3755722006393 862.6904630687275
    vertex 214.90816847692898 555.3755722006385 864.531910304378
  endloop
endfacet
facet normal -4.018836057542126e-09 -1.0 -1.256315922931342e-08
  outer loop
    vertex 214.90816847692898 555.3755722006385 864.531910304378
    vertex 221.587357954577 555.3755722006393 862.6904630687275
    vertex 220.61057508724215 555.3755722006391 863.0950597798743
  endloop
endfacet
facet normal -4.018836057542126e-09 -1.0 -1.256315922931342e-08
  outer loop
    vertex 214.90816847692898 555.3755722006385 864.531910304378
    vertex 220.61057508724215 555.3755722006391 863.0950597798743
    vertex 219.77179262343614 555.3755722006391 863.7386802013966
  endloop
endfacet
facet normal -4.018836057542126e-09 -1.0 -1.256315922931342e-08
  outer loop
    vertex 214.90816847692898 555.3755722006385 864.531910304378
    vertex 219.77179262343614 555.3755722006391 863.7386802013966
    vertex 219.12817220191465 555.3755722006387 864.577462665203
  endloop
endfacet
facet normal -4.018836057542126e-09 -1.0 -1.256315922931342e-08
  outer loop
    vertex 214.90816847692898 555.3755722006385 864.531910304378
    vertex 219.12817220191465 555.3755722006387 864.577462665203
    vertex 214.63557508724162 555.3755722006385 866.6024626651979
  endloop
endfacet
facet normal -4.018836057542126e-09 -1.0 -1.256315922931342e-08
  outer loop
    vertex 214.63557508724162 555.3755722006385 866.6024626651979
    vertex 219.12817220191465 555.3755722006387 864.577462665203
    vertex 218.72357549077142 555.3755722006387 865.5542455325361
  endloop
endfacet
facet normal -4.018836057542126e-09 -1.0 -1.256315922931342e-08
  outer loop
    vertex 214.63557508724162 555.3755722006385 866.6024626651979
    vertex 218.72357549077142 555.3755722006387 865.5542455325361
    vertex 218.58557508724164 555.3755722006387 866.6024626652021
  endloop
endfacet
facet normal -4.018836057542126e-09 -1.0 -1.256315922931342e-08
  outer loop
    vertex 214.63557508724162 555.3755722006385 866.6024626651979
    vertex 218.58557508724164 555.3755722006387 866.6024626652021
    vertex 214.63557508724122 555.3755722006383 873.602462665199
  endloop
endfacet
facet normal -4.018836057542126e-09 -1.0 -1.256315922931342e-08
  outer loop
    vertex 214.63557508724122 555.3755722006383 873.602462665199
    vertex 218.58557508724164 555.3755722006387 866.6024626652021
    vertex 218.72357549077088 555.3755722006387 867.6506797978666
  endloop
endfacet
facet normal -4.018836057542126e-09 -1.0 -1.256315922931342e-08
  outer loop
    vertex 214.63557508724122 555.3755722006383 873.602462665199
    vertex 218.72357549077088 555.3755722006387 867.6506797978666
    vertex 219.12817220191496 555.3755722006387 868.6274626652031
  endloop
endfacet
facet normal -4.018836057542126e-09 -1.0 -1.256315922931342e-08
  outer loop
    vertex 214.63557508724122 555.3755722006383 873.602462665199
    vertex 219.12817220191496 555.3755722006387 868.6274626652031
    vertex 219.77179262343614 555.3755722006391 869.4662451290085
  endloop
endfacet
facet normal -4.018836057542126e-09 -1.0 -1.256315922931342e-08
  outer loop
    vertex 214.63557508724122 555.3755722006383 873.602462665199
    vertex 219.77179262343614 555.3755722006391 869.4662451290085
    vertex 220.61057508724156 555.3755722006391 870.1098655505284
  endloop
endfacet
facet normal -4.018836057542126e-09 -1.0 -1.256315922931342e-08
  outer loop
    vertex 214.63557508724122 555.3755722006383 873.602462665199
    vertex 220.61057508724156 555.3755722006391 870.1098655505284
    vertex 221.58735795457633 555.3755722006393 870.5144622616688
  endloop
endfacet
facet normal -4.018836057542126e-09 -1.0 -1.256315922931342e-08
  outer loop
    vertex 214.63557508724122 555.3755722006383 873.602462665199
    vertex 221.58735795457633 555.3755722006393 870.5144622616688
    vertex 222.63557508724148 555.3755722006388 870.652462665198
  endloop
endfacet
facet normal 0.9978589232386015 2.2912417409616168e-14 -0.06540312923017544
  outer loop
    vertex 230.6355750872416 569.7523646730947 866.6024626652
    vertex 230.63557508724128 555.3755722006388 873.6024626651997
    vertex 230.6355750872415 555.3755722006388 866.6024626651999
  endloop
endfacet
facet normal 1.0 2.2550418225338887e-14 2.924168913628537e-14
  outer loop
    vertex 230.63557508724128 555.3755722006388 873.6024626651997
    vertex 230.6355750872416 569.7523646730947 866.6024626652
    vertex 230.635575087241 569.7523646730946 873.6024626651996
  endloop
endfacet
facet normal -0.9978589232386034 -2.522303237107618e-14 -0.06540312923014344
  outer loop
    vertex 214.63557508724162 569.7523646730945 866.6024626651981
    vertex 214.90816847692898 555.3755722006385 864.531910304378
    vertex 214.63557508724162 555.3755722006385 866.6024626651979
  endloop
endfacet
facet normal -0.9659258262890629 -2.3188175345250267e-14 -0.25881904510254083
  outer loop
    vertex 214.90816847692898 555.3755722006385 864.531910304378
    vertex 214.63557508724162 569.7523646730945 866.6024626651981
    vertex 214.90816847692867 569.7523646730943 864.531910304378
  endloop
endfacet
facet normal -0.9659258262890622 -2.3188175345250236e-14 -0.2588190451025435
  outer loop
    vertex 214.90816847692867 569.7523646730943 864.531910304378
    vertex 215.70737185696618 555.3755722006387 862.6024626651972
    vertex 214.90816847692898 555.3755722006385 864.531910304378
  endloop
endfacet
facet normal -0.8660254037844177 -1.9735116384828998e-14 -0.5000000000000364
  outer loop
    vertex 215.70737185696618 555.3755722006387 862.6024626651972
    vertex 214.90816847692867 569.7523646730943 864.531910304378
    vertex 215.70737185696572 569.7523646730946 862.6024626651974
  endloop
endfacet
facet normal 0.9659258262891371 2.4868862704282917e-14 -0.25881904510226345
  outer loop
    vertex 230.36298169755415 555.3755722006389 864.5319103043817
    vertex 230.6355750872416 569.7523646730947 866.6024626652
    vertex 230.6355750872415 555.3755722006388 866.6024626651999
  endloop
endfacet
facet normal 0.9978589232386015 2.2912417409616168e-14 -0.06540312923017544
  outer loop
    vertex 230.6355750872416 569.7523646730947 866.6024626652
    vertex 230.36298169755415 555.3755722006389 864.5319103043817
    vertex 230.36298169755383 569.7523646730948 864.5319103043817
  endloop
endfacet
facet normal 0.866025403784611 2.6014913658341313e-14 -0.4999999999997015
  outer loop
    vertex 229.56377831751675 569.7523646730948 862.6024626651978
    vertex 230.36298169755415 555.3755722006389 864.5319103043817
    vertex 229.5637783175172 555.3755722006389 862.6024626651975
  endloop
endfacet
facet normal 0.9659258262891371 2.4868862704282917e-14 -0.25881904510226345
  outer loop
    vertex 230.36298169755415 555.3755722006389 864.5319103043817
    vertex 229.56377831751675 569.7523646730948 862.6024626651978
    vertex 230.36298169755383 569.7523646730948 864.5319103043817
  endloop
endfacet
facet normal 0.7071067811865841 2.1204137915817012e-14 -0.7071067811865109
  outer loop
    vertex 228.2924293367342 555.3755722006393 860.9456084157051
    vertex 229.56377831751675 569.7523646730948 862.6024626651978
    vertex 229.5637783175172 555.3755722006389 862.6024626651975
  endloop
endfacet
facet normal 0.866025403784611 2.6014913658341313e-14 -0.4999999999997015
  outer loop
    vertex 229.56377831751675 569.7523646730948 862.6024626651978
    vertex 228.2924293367342 555.3755722006393 860.9456084157051
    vertex 228.2924293367342 569.7523646730951 860.9456084157051
  endloop
endfacet
facet normal 0.7071067811865842 2.1204137915817012e-14 -0.7071067811865108
  outer loop
    vertex 228.2924293367342 569.7523646730951 860.9456084157051
    vertex 226.63557508724182 555.3755722006389 859.674259434923
    vertex 226.63557508724136 569.7523646730948 859.674259434923
  endloop
endfacet
facet normal 0.49999999999939687 1.6857491125506953e-14 -0.8660254037847867
  outer loop
    vertex 226.63557508724182 555.3755722006389 859.674259434923
    vertex 228.2924293367342 569.7523646730951 860.9456084157051
    vertex 228.2924293367342 555.3755722006393 860.9456084157051
  endloop
endfacet
facet normal 0.499999999999393 1.685749112550696e-14 -0.8660254037847891
  outer loop
    vertex 226.63557508724136 569.7523646730948 859.674259434923
    vertex 224.706127448062 555.3755722006393 858.875056054889
    vertex 224.70612744806155 569.7523646730951 858.8750560548892
  endloop
endfacet
facet normal 0.25881904510261683 1.6661986645615753e-14 -0.9659258262890426
  outer loop
    vertex 224.706127448062 555.3755722006393 858.875056054889
    vertex 226.63557508724136 569.7523646730948 859.674259434923
    vertex 226.63557508724182 555.3755722006389 859.674259434923
  endloop
endfacet
facet normal 0.2588190451026142 1.6661986645615744e-14 -0.9659258262890432
  outer loop
    vertex 224.70612744806155 569.7523646730951 858.8750560548892
    vertex 222.63557508724182 555.3755722006388 858.6024626651972
    vertex 222.6355750872415 569.7523646730948 858.6024626651974
  endloop
endfacet
facet normal 7.794904270120216e-13 1.2760192307809355e-14 -1.0
  outer loop
    vertex 222.63557508724182 555.3755722006388 858.6024626651972
    vertex 224.70612744806155 569.7523646730951 858.8750560548892
    vertex 224.706127448062 555.3755722006393 858.875056054889
  endloop
endfacet
facet normal 7.776547383733132e-13 1.2760192307809307e-14 -1.0
  outer loop
    vertex 222.6355750872415 569.7523646730948 858.6024626651974
    vertex 220.56502272642166 555.3755722006392 858.8750560548858
    vertex 220.5650227264213 569.7523646730951 858.8750560548859
  endloop
endfacet
facet normal -0.25881904510318543 2.5533315783379917e-15 -0.9659258262888902
  outer loop
    vertex 220.56502272642166 555.3755722006392 858.8750560548858
    vertex 222.6355750872415 569.7523646730948 858.6024626651974
    vertex 222.63557508724182 555.3755722006388 858.6024626651972
  endloop
endfacet
facet normal -0.2588190451031846 2.553331578338035e-15 -0.9659258262888903
  outer loop
    vertex 220.5650227264213 569.7523646730951 858.8750560548859
    vertex 218.63557508724185 555.3755722006387 859.674259434926
    vertex 218.6355750872414 569.7523646730946 859.674259434926
  endloop
endfacet
facet normal -0.5000000000000362 -1.0399812621423655e-14 -0.8660254037844177
  outer loop
    vertex 218.63557508724185 555.3755722006387 859.674259434926
    vertex 220.5650227264213 569.7523646730951 858.8750560548859
    vertex 220.56502272642166 555.3755722006392 858.8750560548858
  endloop
endfacet
facet normal -0.5000000000000339 -1.0399812621423524e-14 -0.8660254037844192
  outer loop
    vertex 218.6355750872414 569.7523646730946 859.674259434926
    vertex 216.9787208377494 555.3755722006391 860.9456084157048
    vertex 216.9787208377494 569.752364673095 860.9456084157048
  endloop
endfacet
facet normal -0.7071067811861065 -1.734532138327516e-14 -0.7071067811869886
  outer loop
    vertex 216.9787208377494 555.3755722006391 860.9456084157048
    vertex 218.6355750872414 569.7523646730946 859.674259434926
    vertex 218.63557508724185 555.3755722006387 859.674259434926
  endloop
endfacet
facet normal -0.8660254037844081 -1.9735116384828736e-14 -0.500000000000053
  outer loop
    vertex 215.70737185696572 569.7523646730946 862.6024626651974
    vertex 216.9787208377494 555.3755722006391 860.9456084157048
    vertex 215.70737185696618 555.3755722006387 862.6024626651972
  endloop
endfacet
facet normal -0.7071067811861065 -1.734532138327516e-14 -0.7071067811869886
  outer loop
    vertex 216.9787208377494 555.3755722006391 860.9456084157048
    vertex 215.70737185696572 569.7523646730946 862.6024626651974
    vertex 216.9787208377494 569.752364673095 860.9456084157048
  endloop
endfacet
facet normal 2.0903578601966814e-14 -1.0 -1.4999187769967737e-14
  outer loop
    vertex 223.6837922199071 567.752364673095 862.69046306873
    vertex 221.58735795457665 567.752364673095 862.6904630687269
    vertex 222.63557508724142 567.7523646730946 862.5524626651974
  endloop
endfacet
facet normal 2.0903578601966814e-14 -1.0 -1.4999187769967737e-14
  outer loop
    vertex 221.58735795457665 567.752364673095 862.6904630687269
    vertex 223.6837922199071 567.752364673095 862.69046306873
    vertex 220.6105750872419 567.7523646730949 863.0950597798738
  endloop
endfacet
facet normal 2.0903578601966814e-14 -1.0 -1.4999187769967737e-14
  outer loop
    vertex 220.6105750872419 567.7523646730949 863.0950597798738
    vertex 223.6837922199071 567.752364673095 862.69046306873
    vertex 224.66057508724188 567.752364673095 863.0950597798717
  endloop
endfacet
facet normal 2.0903578601966814e-14 -1.0 -1.4999187769967737e-14
  outer loop
    vertex 220.6105750872419 567.7523646730949 863.0950597798738
    vertex 224.66057508724188 567.752364673095 863.0950597798717
    vertex 225.4993575510472 567.752364673095 863.7386802013932
  endloop
endfacet
facet normal 2.0903578601966814e-14 -1.0 -1.4999187769967737e-14
  outer loop
    vertex 220.6105750872419 567.7523646730949 863.0950597798738
    vertex 225.4993575510472 567.752364673095 863.7386802013932
    vertex 219.7717926234362 567.7523646730949 863.738680201396
  endloop
endfacet
facet normal 2.0903578601966814e-14 -1.0 -1.4999187769967737e-14
  outer loop
    vertex 219.7717926234362 567.7523646730949 863.738680201396
    vertex 225.4993575510472 567.752364673095 863.7386802013932
    vertex 226.14297797256876 567.7523646730946 864.5774626651986
  endloop
endfacet
facet normal 2.0903578601966814e-14 -1.0 -1.4999187769967737e-14
  outer loop
    vertex 219.7717926234362 567.7523646730949 863.738680201396
    vertex 226.14297797256876 567.7523646730946 864.5774626651986
    vertex 219.12817220191482 567.7523646730945 864.5774626652026
  endloop
endfacet
facet normal 2.0903578601966814e-14 -1.0 -1.4999187769967737e-14
  outer loop
    vertex 219.12817220191482 567.7523646730945 864.5774626652026
    vertex 226.14297797256876 567.7523646730946 864.5774626651986
    vertex 226.54757468371255 567.7523646730946 865.5542455325334
  endloop
endfacet
facet normal 2.0903578601966814e-14 -1.0 -1.4999187769967737e-14
  outer loop
    vertex 219.12817220191482 567.7523646730945 864.5774626652026
    vertex 226.54757468371255 567.7523646730946 865.5542455325334
    vertex 218.7235754907711 567.7523646730943 865.5542455325356
  endloop
endfacet
facet normal 2.0903578601966814e-14 -1.0 -1.4999187769967737e-14
  outer loop
    vertex 218.7235754907711 567.7523646730943 865.5542455325356
    vertex 226.54757468371255 567.7523646730946 865.5542455325334
    vertex 226.68557508724172 567.7523646730946 866.6024626651978
  endloop
endfacet
facet normal 2.0903578601966814e-14 -1.0 -1.4999187769967737e-14
  outer loop
    vertex 218.7235754907711 567.7523646730943 865.5542455325356
    vertex 226.68557508724172 567.7523646730946 866.6024626651978
    vertex 218.58557508724175 567.7523646730943 866.6024626652015
  endloop
endfacet
facet normal 2.0903578601966814e-14 -1.0 -1.4999187769967737e-14
  outer loop
    vertex 218.58557508724175 567.7523646730943 866.6024626652015
    vertex 226.68557508724172 567.7523646730946 866.6024626651978
    vertex 226.54757468371247 567.7523646730946 867.6506797978639
  endloop
endfacet
facet normal 2.0903578601966814e-14 -1.0 -1.4999187769967737e-14
  outer loop
    vertex 218.58557508724175 567.7523646730943 866.6024626652015
    vertex 226.54757468371247 567.7523646730946 867.6506797978639
    vertex 218.72357549077105 567.7523646730943 867.650679797866
  endloop
endfacet
facet normal 2.0903578601966814e-14 -1.0 -1.4999187769967737e-14
  outer loop
    vertex 218.72357549077105 567.7523646730943 867.650679797866
    vertex 226.54757468371247 567.7523646730946 867.6506797978639
    vertex 226.14297797256862 567.7523646730945 868.6274626651985
  endloop
endfacet
facet normal 2.0903578601966814e-14 -1.0 -1.4999187769967737e-14
  outer loop
    vertex 218.72357549077105 567.7523646730943 867.650679797866
    vertex 226.14297797256862 567.7523646730945 868.6274626651985
    vertex 219.1281722019146 567.7523646730943 868.6274626652025
  endloop
endfacet
facet normal 2.0903578601966814e-14 -1.0 -1.4999187769967737e-14
  outer loop
    vertex 219.1281722019146 567.7523646730943 868.6274626652025
    vertex 226.14297797256862 567.7523646730945 868.6274626651985
    vertex 225.4993575510472 567.752364673095 869.4662451290042
  endloop
endfacet
facet normal 2.0903578601966814e-14 -1.0 -1.4999187769967737e-14
  outer loop
    vertex 219.1281722019146 567.7523646730943 868.6274626652025
    vertex 225.4993575510472 567.752364673095 869.4662451290042
    vertex 219.7717926234362 567.7523646730948 869.4662451290079
  endloop
endfacet
facet normal 2.0903578601966814e-14 -1.0 -1.4999187769967737e-14
  outer loop
    vertex 219.7717926234362 567.7523646730948 869.4662451290079
    vertex 225.4993575510472 567.752364673095 869.4662451290042
    vertex 224.66057508724165 567.7523646730949 870.1098655505257
  endloop
endfacet
facet normal 2.0903578601966814e-14 -1.0 -1.4999187769967737e-14
  outer loop
    vertex 219.7717926234362 567.7523646730948 869.4662451290079
    vertex 224.66057508724165 567.7523646730949 870.1098655505257
    vertex 220.61057508724167 567.7523646730948 870.1098655505278
  endloop
endfacet
facet normal 2.0903578601966814e-14 -1.0 -1.4999187769967737e-14
  outer loop
    vertex 220.61057508724167 567.7523646730948 870.1098655505278
    vertex 224.66057508724165 567.7523646730949 870.1098655505257
    vertex 223.68379221990688 567.7523646730949 870.5144622616713
  endloop
endfacet
facet normal 2.0903578601966814e-14 -1.0 -1.4999187769967737e-14
  outer loop
    vertex 220.61057508724167 567.7523646730948 870.1098655505278
    vertex 223.68379221990688 567.7523646730949 870.5144622616713
    vertex 221.58735795457645 567.7523646730949 870.5144622616682
  endloop
endfacet
facet normal 2.0903578601966814e-14 -1.0 -1.4999187769967737e-14
  outer loop
    vertex 221.58735795457645 567.7523646730949 870.5144622616682
    vertex 223.68379221990688 567.7523646730949 870.5144622616713
    vertex 222.6355750872415 567.7523646730943 870.6524626651974
  endloop
endfacet
facet normal -0.8660254037844113 -4.5069552573998617e-14 -0.5000000000000474
  outer loop
    vertex 226.14297797256862 567.7523646730945 868.6274626651985
    vertex 226.54757468371233 555.3755722006389 867.6506797978644
    vertex 226.14297797256887 555.3755722006389 868.6274626651991
  endloop
endfacet
facet normal -0.9659258262890551 -3.638062375533782e-14 -0.2588190451025703
  outer loop
    vertex 226.54757468371233 555.3755722006389 867.6506797978644
    vertex 226.14297797256862 567.7523646730945 868.6274626651985
    vertex 226.54757468371247 567.7523646730946 867.6506797978639
  endloop
endfacet
facet normal -0.7071067811866008 -5.0566651450442514e-14 -0.7071067811864944
  outer loop
    vertex 225.49935755104715 555.3755722006395 869.4662451290046
    vertex 226.14297797256862 567.7523646730945 868.6274626651985
    vertex 226.14297797256887 555.3755722006389 868.6274626651991
  endloop
endfacet
facet normal -0.8660254037844113 -4.5069552573998617e-14 -0.5000000000000474
  outer loop
    vertex 226.14297797256862 567.7523646730945 868.6274626651985
    vertex 225.49935755104715 555.3755722006395 869.4662451290046
    vertex 225.4993575510472 567.752364673095 869.4662451290042
  endloop
endfacet
facet normal -0.5000000000011702 -5.1416214262341055e-14 -0.866025403783763
  outer loop
    vertex 224.66057508724165 567.7523646730949 870.1098655505257
    vertex 225.49935755104715 555.3755722006395 869.4662451290046
    vertex 224.66057508724154 555.3755722006393 870.1098655505263
  endloop
endfacet
facet normal -0.7071067811866008 -5.0566651450442514e-14 -0.7071067811864944
  outer loop
    vertex 225.49935755104715 555.3755722006395 869.4662451290046
    vertex 224.66057508724165 567.7523646730949 870.1098655505257
    vertex 225.4993575510472 567.752364673095 869.4662451290042
  endloop
endfacet
facet normal -0.2588190451023219 -4.884974455582918e-14 -0.9659258262891215
  outer loop
    vertex 223.68379221990688 567.7523646730949 870.5144622616713
    vertex 224.66057508724154 555.3755722006393 870.1098655505263
    vertex 223.6837922199068 555.3755722006392 870.5144622616718
  endloop
endfacet
facet normal -0.5000000000011569 -5.1416214262340986e-14 -0.8660254037837707
  outer loop
    vertex 224.66057508724154 555.3755722006393 870.1098655505263
    vertex 223.68379221990688 567.7523646730949 870.5144622616713
    vertex 224.66057508724165 567.7523646730949 870.1098655505257
  endloop
endfacet
facet normal 1.517187748612234e-12 -4.3745651645414656e-14 -0.9999999999999999
  outer loop
    vertex 222.6355750872415 567.7523646730943 870.6524626651974
    vertex 223.6837922199068 555.3755722006392 870.5144622616718
    vertex 222.63557508724148 555.3755722006388 870.652462665198
  endloop
endfacet
facet normal -0.2588190451022775 -4.884974455582851e-14 -0.9659258262891336
  outer loop
    vertex 223.6837922199068 555.3755722006392 870.5144622616718
    vertex 222.6355750872415 567.7523646730943 870.6524626651974
    vertex 223.68379221990688 567.7523646730949 870.5144622616713
  endloop
endfacet
facet normal 0.25881904510147596 -3.566090053884505e-14 -0.9659258262893484
  outer loop
    vertex 221.58735795457645 567.7523646730949 870.5144622616682
    vertex 222.63557508724148 555.3755722006388 870.652462665198
    vertex 221.58735795457633 555.3755722006393 870.5144622616688
  endloop
endfacet
facet normal 1.5142114379080465e-12 -4.374565164541472e-14 -0.9999999999999999
  outer loop
    vertex 222.63557508724148 555.3755722006388 870.652462665198
    vertex 221.58735795457645 567.7523646730949 870.5144622616682
    vertex 222.6355750872415 567.7523646730943 870.6524626651974
  endloop
endfacet
facet normal 0.49999999999858113 -2.4354107240398602e-14 -0.8660254037852578
  outer loop
    vertex 220.61057508724167 567.7523646730948 870.1098655505278
    vertex 221.58735795457633 555.3755722006393 870.5144622616688
    vertex 220.61057508724156 555.3755722006391 870.1098655505284
  endloop
endfacet
facet normal 0.25881904510144416 -3.566090053884627e-14 -0.9659258262893569
  outer loop
    vertex 221.58735795457633 555.3755722006393 870.5144622616688
    vertex 220.61057508724167 567.7523646730948 870.1098655505278
    vertex 221.58735795457645 567.7523646730949 870.5144622616682
  endloop
endfacet
facet normal 0.7071067811860746 -1.0571047432406375e-14 -0.7071067811870205
  outer loop
    vertex 219.7717926234362 567.7523646730948 869.4662451290079
    vertex 220.61057508724156 555.3755722006391 870.1098655505284
    vertex 219.77179262343614 555.3755722006391 869.4662451290085
  endloop
endfacet
facet normal 0.4999999999985882 -2.4354107240398208e-14 -0.8660254037852538
  outer loop
    vertex 220.61057508724156 555.3755722006391 870.1098655505284
    vertex 219.7717926234362 567.7523646730948 869.4662451290079
    vertex 220.61057508724167 567.7523646730948 870.1098655505278
  endloop
endfacet
facet normal 0.8660254037845803 2.9005280277587276e-15 -0.49999999999975464
  outer loop
    vertex 219.1281722019146 567.7523646730943 868.6274626652025
    vertex 219.77179262343614 555.3755722006391 869.4662451290085
    vertex 219.12817220191496 555.3755722006387 868.6274626652031
  endloop
endfacet
facet normal 0.7071067811860966 -1.0571047432404633e-14 -0.7071067811869987
  outer loop
    vertex 219.77179262343614 555.3755722006391 869.4662451290085
    vertex 219.1281722019146 567.7523646730943 868.6274626652025
    vertex 219.7717926234362 567.7523646730948 869.4662451290079
  endloop
endfacet
facet normal 0.9659258262891537 1.4584622096424457e-14 -0.25881904510220244
  outer loop
    vertex 218.72357549077105 567.7523646730943 867.650679797866
    vertex 219.12817220191496 555.3755722006387 868.6274626652031
    vertex 218.72357549077088 555.3755722006387 867.6506797978666
  endloop
endfacet
facet normal 0.8660254037845938 2.9005280277599788e-15 -0.4999999999997312
  outer loop
    vertex 219.12817220191496 555.3755722006387 868.6274626652031
    vertex 218.72357549077105 567.7523646730943 867.650679797866
    vertex 219.1281722019146 567.7523646730943 868.6274626652025
  endloop
endfacet
facet normal 0.9999999999999999 2.6853168470906003e-14 -7.054034593394114e-14
  outer loop
    vertex 218.58557508724175 567.7523646730943 866.6024626652015
    vertex 218.72357549077088 555.3755722006387 867.6506797978666
    vertex 218.58557508724164 555.3755722006387 866.6024626652021
  endloop
endfacet
facet normal 0.965925826289152 1.4584622096424185e-14 -0.25881904510220866
  outer loop
    vertex 218.72357549077088 555.3755722006387 867.6506797978666
    vertex 218.58557508724175 567.7523646730943 866.6024626652015
    vertex 218.72357549077105 567.7523646730943 867.650679797866
  endloop
endfacet
facet normal 0.9659258262889863 3.729205103787302e-14 0.25881904510282683
  outer loop
    vertex 218.7235754907711 567.7523646730943 865.5542455325356
    vertex 218.58557508724164 555.3755722006387 866.6024626652021
    vertex 218.72357549077142 555.3755722006387 865.5542455325361
  endloop
endfacet
facet normal 0.9999999999999999 2.6853168470905624e-14 -7.782072271868482e-14
  outer loop
    vertex 218.58557508724164 555.3755722006387 866.6024626652021
    vertex 218.7235754907711 567.7523646730943 865.5542455325356
    vertex 218.58557508724175 567.7523646730943 866.6024626652015
  endloop
endfacet
facet normal 0.8660254037844048 4.434075025062224e-14 0.5000000000000584
  outer loop
    vertex 219.12817220191482 567.7523646730945 864.5774626652026
    vertex 218.72357549077142 555.3755722006387 865.5542455325361
    vertex 219.12817220191465 555.3755722006387 864.577462665203
  endloop
endfacet
facet normal 0.9659258262889888 3.7292051037872746e-14 0.2588190451028177
  outer loop
    vertex 218.72357549077142 555.3755722006387 865.5542455325361
    vertex 219.12817220191482 567.7523646730945 864.5774626652026
    vertex 218.7235754907711 567.7523646730943 865.5542455325356
  endloop
endfacet
facet normal 0.7071067811869601 4.927821965407581e-14 0.7071067811861348
  outer loop
    vertex 219.77179262343614 555.3755722006391 863.7386802013966
    vertex 219.12817220191482 567.7523646730945 864.5774626652026
    vertex 219.12817220191465 555.3755722006387 864.577462665203
  endloop
endfacet
facet normal 0.8660254037844048 4.434075025062224e-14 0.5000000000000584
  outer loop
    vertex 219.12817220191482 567.7523646730945 864.5774626652026
    vertex 219.77179262343614 555.3755722006391 863.7386802013966
    vertex 219.7717926234362 567.7523646730949 863.738680201396
  endloop
endfacet
facet normal 0.500000000001109 5.085615928082696e-14 0.8660254037837986
  outer loop
    vertex 220.61057508724215 555.3755722006391 863.0950597798743
    vertex 219.7717926234362 567.7523646730949 863.738680201396
    vertex 219.77179262343614 555.3755722006391 863.7386802013966
  endloop
endfacet
facet normal 0.7071067811869309 4.927821965407633e-14 0.7071067811861641
  outer loop
    vertex 219.7717926234362 567.7523646730949 863.738680201396
    vertex 220.61057508724215 555.3755722006391 863.0950597798743
    vertex 220.6105750872419 567.7523646730949 863.0950597798738
  endloop
endfacet
facet normal 0.500000000001109 5.085615928082696e-14 0.8660254037837986
  outer loop
    vertex 220.61057508724215 555.3755722006391 863.0950597798743
    vertex 221.58735795457665 567.752364673095 862.6904630687269
    vertex 220.6105750872419 567.7523646730949 863.0950597798738
  endloop
endfacet
facet normal 0.2588190451035604 4.908906057838493e-14 0.9659258262887898
  outer loop
    vertex 221.58735795457665 567.752364673095 862.6904630687269
    vertex 220.61057508724215 555.3755722006391 863.0950597798743
    vertex 221.587357954577 555.3755722006393 862.6904630687275
  endloop
endfacet
facet normal 0.2588190451035306 4.9089060578384524e-14 0.9659258262887976
  outer loop
    vertex 221.587357954577 555.3755722006393 862.6904630687275
    vertex 222.63557508724142 567.7523646730946 862.5524626651974
    vertex 221.58735795457665 567.752364673095 862.6904630687269
  endloop
endfacet
facet normal -1.5042399059345956e-12 4.374564893208394e-14 1.0
  outer loop
    vertex 222.63557508724142 567.7523646730946 862.5524626651974
    vertex 221.587357954577 555.3755722006393 862.6904630687275
    vertex 222.63557508724173 555.3755722006388 862.5524626651979
  endloop
endfacet
facet normal -1.5120638604238247e-12 4.3745648932083706e-14 1.0
  outer loop
    vertex 222.63557508724173 555.3755722006388 862.5524626651979
    vertex 223.6837922199071 567.752364673095 862.69046306873
    vertex 222.63557508724142 567.7523646730946 862.5524626651974
  endloop
endfacet
facet normal -0.2588190451027236 3.542073078587313e-14 0.9659258262890139
  outer loop
    vertex 223.6837922199071 567.752364673095 862.69046306873
    vertex 222.63557508724173 555.3755722006388 862.5524626651979
    vertex 223.68379221990742 555.3755722006392 862.6904630687305
  endloop
endfacet
facet normal -0.2588190451026914 3.542073078587431e-14 0.9659258262890226
  outer loop
    vertex 223.68379221990742 555.3755722006392 862.6904630687305
    vertex 224.66057508724188 567.752364673095 863.0950597798717
    vertex 223.6837922199071 567.752364673095 862.69046306873
  endloop
endfacet
facet normal -0.49999999999886185 2.4913311226574788e-14 0.8660254037850958
  outer loop
    vertex 224.66057508724188 567.752364673095 863.0950597798717
    vertex 223.68379221990742 555.3755722006392 862.6904630687305
    vertex 224.66057508724214 555.3755722006393 863.0950597798721
  endloop
endfacet
facet normal -0.49999999999885847 2.4913311226574958e-14 0.8660254037850977
  outer loop
    vertex 224.66057508724214 555.3755722006393 863.0950597798721
    vertex 225.4993575510472 567.752364673095 863.7386802013932
    vertex 224.66057508724188 567.752364673095 863.0950597798717
  endloop
endfacet
facet normal -0.7071067811865399 1.2589844630882848e-14 0.7071067811865551
  outer loop
    vertex 225.4993575510472 567.752364673095 863.7386802013932
    vertex 224.66057508724214 555.3755722006393 863.0950597798721
    vertex 225.49935755104715 555.3755722006395 863.7386802013938
  endloop
endfacet
facet normal -0.8660254037844105 -5.934553087874142e-16 0.5000000000000487
  outer loop
    vertex 226.14297797256876 567.7523646730946 864.5774626651986
    vertex 225.49935755104715 555.3755722006395 863.7386802013938
    vertex 226.14297797256856 555.3755722006389 864.5774626651992
  endloop
endfacet
facet normal -0.7071067811865686 1.2589844630880854e-14 0.7071067811865265
  outer loop
    vertex 225.49935755104715 555.3755722006395 863.7386802013938
    vertex 226.14297797256876 567.7523646730946 864.5774626651986
    vertex 225.4993575510472 567.752364673095 863.7386802013932
  endloop
endfacet
facet normal -0.9659258262890831 -1.4648372680800185e-14 0.25881904510246595
  outer loop
    vertex 226.54757468371255 567.7523646730946 865.5542455325334
    vertex 226.14297797256856 555.3755722006389 864.5774626651992
    vertex 226.54757468371287 555.3755722006389 865.554245532534
  endloop
endfacet
facet normal -0.8660254037844345 -5.934553087898569e-16 0.5000000000000072
  outer loop
    vertex 226.14297797256856 555.3755722006389 864.5774626651992
    vertex 226.54757468371255 567.7523646730946 865.5542455325334
    vertex 226.14297797256876 567.7523646730946 864.5774626651986
  endloop
endfacet
facet normal -1.0 -2.685339678793372e-14 -1.1254731798201944e-14
  outer loop
    vertex 226.68557508724172 567.7523646730946 866.6024626651978
    vertex 226.54757468371287 555.3755722006389 865.554245532534
    vertex 226.68557508724157 555.3755722006389 866.6024626651983
  endloop
endfacet
facet normal -0.9659258262890852 -1.464837268080064e-14 0.2588190451024581
  outer loop
    vertex 226.54757468371287 555.3755722006389 865.554245532534
    vertex 226.68557508724172 567.7523646730946 866.6024626651978
    vertex 226.54757468371255 567.7523646730946 865.5542455325334
  endloop
endfacet
facet normal -0.965925826289058 -3.638062375533742e-14 -0.25881904510255954
  outer loop
    vertex 226.54757468371247 567.7523646730946 867.6506797978639
    vertex 226.68557508724157 555.3755722006389 866.6024626651983
    vertex 226.54757468371233 555.3755722006389 867.6506797978644
  endloop
endfacet
facet normal -1.0 -2.6853396787933985e-14 -1.8526197473049723e-14
  outer loop
    vertex 226.68557508724157 555.3755722006389 866.6024626651983
    vertex 226.54757468371247 567.7523646730946 867.6506797978639
    vertex 226.68557508724172 567.7523646730946 866.6024626651978
  endloop
endfacet
facet normal 0.9999999999996152 4.849119791496743e-07 -7.311449342233804e-07
  outer loop
    vertex 212.63557537528433 555.3755722999354 873.6024622989239
    vertex 212.63557505539347 569.7523648416098 882.6999634350726
    vertex 212.63558899835832 555.3755718704018 882.6999736415643
  endloop
endfacet
facet normal 0.9999999999996152 4.849119791496743e-07 -7.311449342233804e-07
  outer loop
    vertex 212.63557505539347 569.7523648416098 882.6999634350726
    vertex 212.63557537528433 555.3755722999354 873.6024622989239
    vertex 212.63557537528396 569.7523647723913 873.6024622989239
  endloop
endfacet
facet normal -8.691771460386493e-15 7.099283679919132e-07 0.999999999999748
  outer loop
    vertex 218.5355801076622 555.3755665883682 876.4999740078415
    vertex 218.77426236620974 565.1921255792188 876.4999670387871
    vertex 218.53557508607855 564.851912163668 876.4999672803162
  endloop
endfacet
facet normal -8.691771460386493e-15 7.099283679919132e-07 0.999999999999748
  outer loop
    vertex 218.77426236620974 565.1921255792188 876.4999670387871
    vertex 218.5355801076622 555.3755665883682 876.4999740078415
    vertex 226.7355800499847 555.375566588383 876.4999740078413
  endloop
endfacet
facet normal -8.691771460386493e-15 7.099283679919132e-07 0.999999999999748
  outer loop
    vertex 218.77426236620974 565.1921255792188 876.4999670387871
    vertex 226.7355800499847 555.375566588383 876.4999740078413
    vertex 222.4968878059459 567.3413843789422 876.4999655129665
  endloop
endfacet
facet normal -8.691771460386493e-15 7.099283679919132e-07 0.999999999999748
  outer loop
    vertex 222.4968878059459 567.3413843789422 876.4999655129665
    vertex 226.7355800499847 555.375566588383 876.4999740078413
    vertex 222.77426236621105 567.3413843789422 876.4999655129686
  endloop
endfacet
facet normal -8.691771460386493e-15 7.099283679919132e-07 0.999999999999748
  outer loop
    vertex 222.77426236621105 567.3413843789422 876.4999655129686
    vertex 226.7355800499847 555.375566588383 876.4999740078413
    vertex 226.49688780594568 565.192125579219 876.4999670387876
  endloop
endfacet
facet normal -8.691771460386493e-15 7.099283679919132e-07 0.999999999999748
  outer loop
    vertex 226.49688780594568 565.192125579219 876.4999670387876
    vertex 226.7355800499847 555.375566588383 876.4999740078413
    vertex 226.73557508607922 564.8519121636822 876.499967280314
  endloop
endfacet
facet normal 2.0827591162279147e-06 -1.2553365654215187e-14 -0.9999999999978311
  outer loop
    vertex 232.6355067034023 569.7523645762719 873.6024668305745
    vertex 230.63557508724128 555.3755722006388 873.6024626651997
    vertex 230.635575087241 569.7523646730946 873.6024626651996
  endloop
endfacet
facet normal 2.0827591162279147e-06 -1.2553365654215187e-14 -0.9999999999978311
  outer loop
    vertex 230.63557508724128 555.3755722006388 873.6024626651997
    vertex 232.6355067034023 569.7523645762719 873.6024668305745
    vertex 232.63550670340265 555.3755721038161 873.6024668305747
  endloop
endfacet
facet normal -1.0 -2.5688772101031782e-14 -4.8578599279748e-14
  outer loop
    vertex 214.63557508724094 569.7523646730942 873.602462665199
    vertex 214.63557508724162 555.3755722006385 866.6024626651979
    vertex 214.63557508724122 555.3755722006383 873.602462665199
  endloop
endfacet
facet normal -0.9978589232386034 -2.5223032371076177e-14 -0.06540312923014431
  outer loop
    vertex 214.63557508724162 555.3755722006385 866.6024626651979
    vertex 214.63557508724094 569.7523646730942 873.602462665199
    vertex 214.63557508724162 569.7523646730945 866.6024626651981
  endloop
endfacet
facet normal 1.8313769536430687e-07 4.417536131465599e-21 -0.9999999999999832
  outer loop
    vertex 214.63557508724094 569.7523646730942 873.602462665199
    vertex 212.63557537528433 555.3755722999354 873.6024622989239
    vertex 212.63557537528396 569.7523647723913 873.6024622989239
  endloop
endfacet
facet normal 1.8313769536430687e-07 4.417536131465599e-21 -0.9999999999999832
  outer loop
    vertex 212.63557537528433 555.3755722999354 873.6024622989239
    vertex 214.63557508724094 569.7523646730942 873.602462665199
    vertex 214.63557508724122 555.3755722006383 873.602462665199
  endloop
endfacet
facet normal 0.9999999999998597 5.299071875369448e-07 -2.9646365172037913e-13
  outer loop
    vertex 218.53557508607855 564.851912163668 876.4999672803162
    vertex 218.53558010766227 555.3755695700678 880.6999740078403
    vertex 218.5355801076622 555.3755665883682 876.4999740078415
  endloop
endfacet
facet normal 0.9999999999998597 5.299071875369448e-07 -2.9646365172037913e-13
  outer loop
    vertex 218.53558010766227 555.3755695700678 880.6999740078403
    vertex 218.53557508607855 564.851912163668 876.4999672803162
    vertex 218.5355750860787 564.8519151453675 880.6999672803151
  endloop
endfacet
facet normal -0.9999999999998628 -5.238206481476297e-07 2.9214264412566553e-13
  outer loop
    vertex 226.7355800499848 555.3755695700826 880.6999740078403
    vertex 226.73557508607922 564.8519121636822 876.499967280314
    vertex 226.7355800499847 555.375566588383 876.4999740078413
  endloop
endfacet
facet normal -0.9999999999998628 -5.238206481476297e-07 2.9214264412566553e-13
  outer loop
    vertex 226.73557508607922 564.8519121636822 876.499967280314
    vertex 226.7355800499848 555.3755695700826 880.6999740078403
    vertex 226.73557508607942 564.8519151453817 880.6999672803128
  endloop
endfacet
facet normal -0.8186234126995433 -0.5743306610133113 4.077336210365174e-07
  outer loop
    vertex 226.73557508607942 564.8519151453817 880.6999672803128
    vertex 226.49688780594568 565.192125579219 876.4999670387876
    vertex 226.73557508607922 564.8519121636822 876.499967280314
  endloop
endfacet
facet normal -0.8186234126995433 -0.5743306610133113 4.077336210365174e-07
  outer loop
    vertex 226.49688780594568 565.192125579219 876.4999670387876
    vertex 226.73557508607942 564.8519151453817 880.6999672803128
    vertex 226.4968878059457 565.1921285609185 880.6999670387866
  endloop
endfacet
facet normal -0.5000000000001052 -0.8660254037841597 6.148160404156135e-07
  outer loop
    vertex 226.49688780594568 565.192125579219 876.4999670387876
    vertex 222.77426236621082 567.3413873606418 880.6999655129675
    vertex 222.77426236621105 567.3413843789422 876.4999655129686
  endloop
endfacet
facet normal -0.5000000000001052 -0.8660254037841597 6.148160404156135e-07
  outer loop
    vertex 222.77426236621082 567.3413873606418 880.6999655129675
    vertex 226.49688780594568 565.192125579219 876.4999670387876
    vertex 226.4968878059457 565.1921285609185 880.6999670387866
  endloop
endfacet
facet normal 2.411380217768042e-14 -0.999999999999748 7.099284527018307e-07
  outer loop
    vertex 222.77426236621105 567.3413843789422 876.4999655129686
    vertex 222.49688780594568 567.3413873606418 880.6999655129654
    vertex 222.4968878059459 567.3413843789422 876.4999655129665
  endloop
endfacet
facet normal 2.411380217768042e-14 -0.999999999999748 7.099284527018307e-07
  outer loop
    vertex 222.49688780594568 567.3413873606418 880.6999655129654
    vertex 222.77426236621105 567.3413843789422 876.4999655129686
    vertex 222.77426236621082 567.3413873606418 880.6999655129675
  endloop
endfacet
facet normal 0.500000000000081 -0.8660254037841736 6.148161094139021e-07
  outer loop
    vertex 222.49688780594568 567.3413873606418 880.6999655129654
    vertex 218.77426236620974 565.1921255792188 876.4999670387871
    vertex 222.4968878059459 567.3413843789422 876.4999655129665
  endloop
endfacet
facet normal 0.500000000000081 -0.8660254037841736 6.148161094139021e-07
  outer loop
    vertex 218.77426236620974 565.1921255792188 876.4999670387871
    vertex 222.49688780594568 567.3413873606418 880.6999655129654
    vertex 218.77426236620988 565.1921285609183 880.699967038786
  endloop
endfacet
facet normal 0.8186234127133859 -0.5743306609935807 4.077337339766007e-07
  outer loop
    vertex 218.77426236620974 565.1921255792188 876.4999670387871
    vertex 218.5355750860787 564.8519151453675 880.6999672803151
    vertex 218.53557508607855 564.851912163668 876.4999672803162
  endloop
endfacet
facet normal 0.8186234127133859 -0.5743306609935807 4.077337339766007e-07
  outer loop
    vertex 218.5355750860787 564.8519151453675 880.6999672803151
    vertex 218.77426236620974 565.1921255792188 876.4999670387871
    vertex 218.77426236620988 565.1921285609183 880.699967038786
  endloop
endfacet
facet normal -8.691771423990546e-15 7.099283679919137e-07 0.999999999999748
  outer loop
    vertex 218.53558010766227 555.3755695700678 880.6999740078403
    vertex 218.77426236620988 565.1921285609183 880.699967038786
    vertex 218.5355750860787 564.8519151453675 880.6999672803151
  endloop
endfacet
facet normal -8.691771423990546e-15 7.099283679919137e-07 0.999999999999748
  outer loop
    vertex 218.77426236620988 565.1921285609183 880.699967038786
    vertex 218.53558010766227 555.3755695700678 880.6999740078403
    vertex 220.38390896860506 561.4026549949685 880.6999697290418
  endloop
endfacet
facet normal -8.691771423990546e-15 7.099283679919137e-07 0.999999999999748
  outer loop
    vertex 220.38390896860506 561.4026549949685 880.6999697290418
    vertex 218.53558010766227 555.3755695700678 880.6999740078403
    vertex 220.79709738735957 560.8641773638836 880.6999701113224
  endloop
endfacet
facet normal -8.691771423990546e-15 7.099283679919137e-07 0.999999999999748
  outer loop
    vertex 220.79709738735957 560.8641773638836 880.6999701113224
    vertex 218.53558010766227 555.3755695700678 880.6999740078403
    vertex 226.7355800499848 555.3755695700826 880.6999740078403
  endloop
endfacet
facet normal -8.691771423990546e-15 7.099283679919137e-07 0.999999999999748
  outer loop
    vertex 218.77426236620988 565.1921285609183 880.699967038786
    vertex 220.38390896860506 561.4026549949685 880.6999697290418
    vertex 220.12416787009315 562.0297254777018 880.6999692838654
  endloop
endfacet
facet normal -8.691771423990546e-15 7.099283679919137e-07 0.999999999999748
  outer loop
    vertex 218.77426236620988 565.1921285609183 880.699967038786
    vertex 220.12416787009315 562.0297254777018 880.6999692838654
    vertex 220.0355750184445 562.7026549949682 880.6999688061336
  endloop
endfacet
facet normal -8.691771423990546e-15 7.099283679919137e-07 0.999999999999748
  outer loop
    vertex 220.79709738735957 560.8641773638836 880.6999701113224
    vertex 226.7355800499848 555.3755695700826 880.6999740078403
    vertex 221.33557501844462 560.4509889451292 880.6999704046543
  endloop
endfacet
facet normal -8.691771423990546e-15 7.099283679919137e-07 0.999999999999748
  outer loop
    vertex 221.33557501844462 560.4509889451292 880.6999704046543
    vertex 226.7355800499848 555.3755695700826 880.6999740078403
    vertex 221.9626455011781 560.1912478466169 880.6999705890521
  endloop
endfacet
facet normal -8.691771423990546e-15 7.099283679919137e-07 0.999999999999748
  outer loop
    vertex 221.9626455011781 560.1912478466169 880.6999705890521
    vertex 226.7355800499848 555.3755695700826 880.6999740078403
    vertex 222.63557501844463 560.1026549949685 880.6999706519467
  endloop
endfacet
facet normal -8.691771423990546e-15 7.099283679919137e-07 0.999999999999748
  outer loop
    vertex 222.63557501844463 560.1026549949685 880.6999706519467
    vertex 226.7355800499848 555.3755695700826 880.6999740078403
    vertex 223.30850453571117 560.1912478466172 880.6999705890532
  endloop
endfacet
facet normal -8.691771423990546e-15 7.099283679919137e-07 0.999999999999748
  outer loop
    vertex 223.30850453571117 560.1912478466172 880.6999705890532
    vertex 226.7355800499848 555.3755695700826 880.6999740078403
    vertex 223.93557501844464 560.4509889451293 880.6999704046543
  endloop
endfacet
facet normal -8.691771423990546e-15 7.099283679919137e-07 0.999999999999748
  outer loop
    vertex 223.93557501844464 560.4509889451293 880.6999704046543
    vertex 226.7355800499848 555.3755695700826 880.6999740078403
    vertex 224.4740526495296 560.8641773638838 880.6999701113212
  endloop
endfacet
facet normal -8.691771423990546e-15 7.099283679919137e-07 0.999999999999748
  outer loop
    vertex 224.4740526495296 560.8641773638838 880.6999701113212
    vertex 226.7355800499848 555.3755695700826 880.6999740078403
    vertex 224.88724106828428 561.4026549949685 880.6999697290408
  endloop
endfacet
facet normal -8.691771423990546e-15 7.099283679919137e-07 0.999999999999748
  outer loop
    vertex 224.88724106828428 561.4026549949685 880.6999697290408
    vertex 226.7355800499848 555.3755695700826 880.6999740078403
    vertex 225.14698216679628 562.0297254777018 880.6999692838664
  endloop
endfacet
facet normal -8.691771423990546e-15 7.099283679919137e-07 0.999999999999748
  outer loop
    vertex 225.14698216679628 562.0297254777018 880.6999692838664
    vertex 226.7355800499848 555.3755695700826 880.6999740078403
    vertex 225.23557501844448 562.7026549949683 880.6999688061338
  endloop
endfacet
facet normal -8.691771423990546e-15 7.099283679919137e-07 0.999999999999748
  outer loop
    vertex 225.23557501844448 562.7026549949683 880.6999688061338
    vertex 226.7355800499848 555.3755695700826 880.6999740078403
    vertex 226.4968878059457 565.1921285609185 880.6999670387866
  endloop
endfacet
facet normal -8.691771423990546e-15 7.099283679919137e-07 0.999999999999748
  outer loop
    vertex 226.4968878059457 565.1921285609185 880.6999670387866
    vertex 226.7355800499848 555.3755695700826 880.6999740078403
    vertex 226.73557508607942 564.8519151453817 880.6999672803128
  endloop
endfacet
facet normal -8.691771423990546e-15 7.099283679919137e-07 0.999999999999748
  outer loop
    vertex 218.77426236620988 565.1921285609183 880.699967038786
    vertex 220.38390896860497 564.0026549949678 880.6999678832278
    vertex 222.49688780594568 567.3413873606418 880.6999655129654
  endloop
endfacet
facet normal -8.691771423990546e-15 7.099283679919137e-07 0.999999999999748
  outer loop
    vertex 220.38390896860497 564.0026549949678 880.6999678832278
    vertex 218.77426236620988 565.1921285609183 880.699967038786
    vertex 220.124167870093 563.3755845122345 880.6999683284018
  endloop
endfacet
facet normal -8.691771423990546e-15 7.099283679919137e-07 0.999999999999748
  outer loop
    vertex 220.124167870093 563.3755845122345 880.6999683284018
    vertex 218.77426236620988 565.1921285609183 880.699967038786
    vertex 220.0355750184445 562.7026549949682 880.6999688061336
  endloop
endfacet
facet normal -8.691771423990546e-15 7.099283679919137e-07 0.999999999999748
  outer loop
    vertex 222.49688780594568 567.3413873606418 880.6999655129654
    vertex 220.38390896860497 564.0026549949678 880.6999678832278
    vertex 220.79709738735946 564.5411326260528 880.6999675009473
  endloop
endfacet
facet normal -8.691771423990546e-15 7.099283679919137e-07 0.999999999999748
  outer loop
    vertex 222.49688780594568 567.3413873606418 880.6999655129654
    vertex 220.79709738735946 564.5411326260528 880.6999675009473
    vertex 221.3355750184445 564.9543210448072 880.6999672076109
  endloop
endfacet
facet normal -8.691771423990546e-15 7.099283679919137e-07 0.999999999999748
  outer loop
    vertex 222.49688780594568 567.3413873606418 880.6999655129654
    vertex 221.3355750184445 564.9543210448072 880.6999672076109
    vertex 221.9626455011779 565.2140621433188 880.6999670232134
  endloop
endfacet
facet normal -8.691771423990546e-15 7.099283679919137e-07 0.999999999999748
  outer loop
    vertex 222.49688780594568 567.3413873606418 880.6999655129654
    vertex 221.9626455011779 565.2140621433188 880.6999670232134
    vertex 222.63557501844448 565.302654994967 880.6999669603188
  endloop
endfacet
facet normal -8.691771423990546e-15 7.099283679919137e-07 0.999999999999748
  outer loop
    vertex 222.49688780594568 567.3413873606418 880.6999655129654
    vertex 222.63557501844448 565.302654994967 880.6999669603188
    vertex 222.77426236621082 567.3413873606418 880.6999655129675
  endloop
endfacet
facet normal -8.691771423990546e-15 7.099283679919137e-07 0.999999999999748
  outer loop
    vertex 222.77426236621082 567.3413873606418 880.6999655129675
    vertex 222.63557501844448 565.302654994967 880.6999669603188
    vertex 223.308504535711 565.2140621433192 880.6999670232145
  endloop
endfacet
facet normal -8.691771423990546e-15 7.099283679919137e-07 0.999999999999748
  outer loop
    vertex 222.77426236621082 567.3413873606418 880.6999655129675
    vertex 223.308504535711 565.2140621433192 880.6999670232145
    vertex 226.4968878059457 565.1921285609185 880.6999670387866
  endloop
endfacet
facet normal -8.691771423990546e-15 7.099283679919137e-07 0.999999999999748
  outer loop
    vertex 226.4968878059457 565.1921285609185 880.6999670387866
    vertex 223.308504535711 565.2140621433192 880.6999670232145
    vertex 223.93557501844447 564.9543210448072 880.6999672076109
  endloop
endfacet
facet normal -8.691771423990546e-15 7.099283679919137e-07 0.999999999999748
  outer loop
    vertex 226.4968878059457 565.1921285609185 880.6999670387866
    vertex 223.93557501844447 564.9543210448072 880.6999672076109
    vertex 224.4740526495295 564.5411326260529 880.6999675009463
  endloop
endfacet
facet normal -8.691771423990546e-15 7.099283679919137e-07 0.999999999999748
  outer loop
    vertex 226.4968878059457 565.1921285609185 880.6999670387866
    vertex 224.4740526495295 564.5411326260529 880.6999675009463
    vertex 224.88724106828408 564.0026549949679 880.6999678832269
  endloop
endfacet
facet normal -8.691771423990546e-15 7.099283679919137e-07 0.999999999999748
  outer loop
    vertex 226.4968878059457 565.1921285609185 880.6999670387866
    vertex 224.88724106828408 564.0026549949679 880.6999678832269
    vertex 225.14698216679614 563.3755845122347 880.699968328403
  endloop
endfacet
facet normal -8.691771423990546e-15 7.099283679919137e-07 0.999999999999748
  outer loop
    vertex 226.4968878059457 565.1921285609185 880.6999670387866
    vertex 225.14698216679614 563.3755845122347 880.699968328403
    vertex 225.23557501844448 562.7026549949683 880.6999688061338
  endloop
endfacet
facet normal -0.5000000000000225 0.8660254037842073 -6.148160459265424e-07
  outer loop
    vertex 223.93557501844464 560.4509889451293 880.6999704046543
    vertex 224.47405264952937 560.864178783743 882.6999734672154
    vertex 224.4740526495296 560.8641773638838 880.6999701113212
  endloop
endfacet
facet normal -0.7071067811865928 0.707106781186324 -5.01995209137437e-07
  outer loop
    vertex 224.47405264952937 560.864178783743 882.6999734672154
    vertex 223.93557501844464 560.4509889451293 880.6999704046543
    vertex 223.93557501844433 560.4509903649886 882.6999737605486
  endloop
endfacet
facet normal -0.2588190451025313 0.9659258262888222 -6.857382168039188e-07
  outer loop
    vertex 223.30850453571117 560.1912478466172 880.6999705890532
    vertex 223.93557501844433 560.4509903649886 882.6999737605486
    vertex 223.93557501844464 560.4509889451293 880.6999704046543
  endloop
endfacet
facet normal -0.4999999999999902 0.866025403784226 -6.148160459265558e-07
  outer loop
    vertex 223.93557501844433 560.4509903649886 882.6999737605486
    vertex 223.30850453571117 560.1912478466172 880.6999705890532
    vertex 223.3085045357113 560.1912492664766 882.6999739449474
  endloop
endfacet
facet normal 5.06061930974063e-14 0.999999999999748 -7.099284614424669e-07
  outer loop
    vertex 222.63557501844463 560.1026549949685 880.6999706519467
    vertex 223.3085045357113 560.1912492664766 882.6999739449474
    vertex 223.30850453571117 560.1912478466172 880.6999705890532
  endloop
endfacet
facet normal -0.2588190451025301 0.9659258262888225 -6.857382168039191e-07
  outer loop
    vertex 223.3085045357113 560.1912492664766 882.6999739449474
    vertex 222.63557501844463 560.1026549949685 880.6999706519467
    vertex 222.6355750184447 560.1026564148278 882.6999740078408
  endloop
endfacet
facet normal 0.2588190451024672 0.9659258262888392 -6.85738254648731e-07
  outer loop
    vertex 221.96264550117812 560.1912492664761 882.6999739449462
    vertex 222.63557501844463 560.1026549949685 880.6999706519467
    vertex 221.9626455011781 560.1912478466169 880.6999705890521
  endloop
endfacet
facet normal 5.06061930974063e-14 0.999999999999748 -7.099284614424669e-07
  outer loop
    vertex 222.63557501844463 560.1026549949685 880.6999706519467
    vertex 221.96264550117812 560.1912492664761 882.6999739449462
    vertex 222.6355750184447 560.1026564148278 882.6999740078408
  endloop
endfacet
facet normal 0.5000000000000968 0.8660254037841645 -6.148161190331345e-07
  outer loop
    vertex 221.33557501844427 560.4509903649885 882.6999737605485
    vertex 221.9626455011781 560.1912478466169 880.6999705890521
    vertex 221.33557501844462 560.4509889451292 880.6999704046543
  endloop
endfacet
facet normal 0.2588190451024951 0.9659258262888318 -6.857382546487259e-07
  outer loop
    vertex 221.9626455011781 560.1912478466169 880.6999705890521
    vertex 221.33557501844427 560.4509903649885 882.6999737605485
    vertex 221.96264550117812 560.1912492664761 882.6999739449462
  endloop
endfacet
facet normal 0.7071067811866317 0.7071067811862852 -5.019952628850437e-07
  outer loop
    vertex 220.79709738735934 560.8641787837429 882.6999734672165
    vertex 221.33557501844462 560.4509889451292 880.6999704046543
    vertex 220.79709738735957 560.8641773638836 880.6999701113224
  endloop
endfacet
facet normal 0.4999999999998583 0.8660254037843022 -6.148161190332324e-07
  outer loop
    vertex 221.33557501844462 560.4509889451292 880.6999704046543
    vertex 220.79709738735934 560.8641787837429 882.6999734672165
    vertex 221.33557501844427 560.4509903649885 882.6999737605485
  endloop
endfacet
facet normal 0.866025403784482 0.4999999999997988 -3.5496423393600756e-07
  outer loop
    vertex 220.38390896860506 561.4026549949685 880.6999697290418
    vertex 220.79709738735934 560.8641787837429 882.6999734672165
    vertex 220.79709738735957 560.8641773638836 880.6999701113224
  endloop
endfacet
facet normal 0.7071067811866317 0.7071067811862852 -5.019952628850437e-07
  outer loop
    vertex 220.79709738735934 560.8641787837429 882.6999734672165
    vertex 220.38390896860506 561.4026549949685 880.6999697290418
    vertex 220.3839089686046 561.4026564148279 882.6999730849359
  endloop
endfacet
facet normal 0.9659258262890722 0.2588190451024414 -1.8374300121261221e-07
  outer loop
    vertex 220.12416787009315 562.0297254777018 880.6999692838654
    vertex 220.3839089686046 561.4026564148279 882.6999730849359
    vertex 220.38390896860506 561.4026549949685 880.6999697290418
  endloop
endfacet
facet normal 0.8660254037844155 0.49999999999991407 -3.5496423393608936e-07
  outer loop
    vertex 220.3839089686046 561.4026564148279 882.6999730849359
    vertex 220.12416787009315 562.0297254777018 880.6999692838654
    vertex 220.1241678700927 562.0297268975611 882.6999726397595
  endloop
endfacet
facet normal 1.0 1.0802938526492721e-13 -1.6705901850237084e-14
  outer loop
    vertex 220.0355750184445 562.7026549949682 880.6999688061336
    vertex 220.1241678700927 562.0297268975611 882.6999726397595
    vertex 220.12416787009315 562.0297254777018 880.6999692838654
  endloop
endfacet
facet normal 0.9659258262890384 0.2588190451025672 -1.837430012127015e-07
  outer loop
    vertex 220.1241678700927 562.0297268975611 882.6999726397595
    vertex 220.0355750184445 562.7026549949682 880.6999688061336
    vertex 220.03557501844418 562.7026564148275 882.6999721620277
  endloop
endfacet
facet normal 0.9659258262890852 -0.258819045102392 1.8374296893609523e-07
  outer loop
    vertex 220.124167870093 563.3755845122345 880.6999683284018
    vertex 220.03557501844418 562.7026564148275 882.6999721620277
    vertex 220.0355750184445 562.7026549949682 880.6999688061336
  endloop
endfacet
facet normal 1.0 9.280920956316477e-14 -1.67058910404042e-14
  outer loop
    vertex 220.03557501844418 562.7026564148275 882.6999721620277
    vertex 220.124167870093 563.3755845122345 880.6999683284018
    vertex 220.124167870093 563.3755859320938 882.699971684296
  endloop
endfacet
facet normal 0.8660254037844893 -0.4999999999997862 3.549641779139817e-07
  outer loop
    vertex 220.38390896860497 564.0026549949678 880.6999678832278
    vertex 220.124167870093 563.3755859320938 882.699971684296
    vertex 220.124167870093 563.3755845122345 880.6999683284018
  endloop
endfacet
facet normal 0.9659258262890466 -0.2588190451025366 1.8374296893619793e-07
  outer loop
    vertex 220.124167870093 563.3755859320938 882.699971684296
    vertex 220.38390896860497 564.0026549949678 880.6999678832278
    vertex 220.3839089686051 564.0026564148271 882.6999712391219
  endloop
endfacet
facet normal 0.7071067811864771 -0.7071067811864397 5.019951775463544e-07
  outer loop
    vertex 220.79709738735946 564.5411326260528 880.6999675009473
    vertex 220.3839089686051 564.0026564148271 882.6999712391219
    vertex 220.38390896860497 564.0026549949678 880.6999678832278
  endloop
endfacet
facet normal 0.8660254037844064 -0.49999999999992983 3.5496417791408366e-07
  outer loop
    vertex 220.3839089686051 564.0026564148271 882.6999712391219
    vertex 220.79709738735946 564.5411326260528 880.6999675009473
    vertex 220.79709738735914 564.541134045912 882.6999708568414
  endloop
endfacet
facet normal 0.5000000000001398 -0.8660254037841397 6.14816050278745e-07
  outer loop
    vertex 221.3355750184442 564.9543224646665 882.6999705635051
    vertex 220.79709738735946 564.5411326260528 880.6999675009473
    vertex 221.3355750184445 564.9543210448072 880.6999672076109
  endloop
endfacet
facet normal 0.7071067811864771 -0.7071067811864397 5.019951775463544e-07
  outer loop
    vertex 220.79709738735946 564.5411326260528 880.6999675009473
    vertex 221.3355750184442 564.9543224646665 882.6999705635051
    vertex 220.79709738735914 564.541134045912 882.6999708568414
  endloop
endfacet
facet normal 0.2588190451025529 -0.9659258262888163 6.857382241263576e-07
  outer loop
    vertex 221.96264550117755 565.214063563178 882.6999703791075
    vertex 221.3355750184445 564.9543210448072 880.6999672076109
    vertex 221.9626455011779 565.2140621433188 880.6999670232134
  endloop
endfacet
facet normal 0.4999999999998951 -0.866025403784281 6.148160502788453e-07
  outer loop
    vertex 221.3355750184445 564.9543210448072 880.6999672076109
    vertex 221.96264550117755 565.214063563178 882.6999703791075
    vertex 221.3355750184442 564.9543224646665 882.6999705635051
  endloop
endfacet
facet normal -2.753532957753128e-14 -0.9999999999997481 7.099284629270348e-07
  outer loop
    vertex 222.63557501844411 565.3026564148264 882.6999703162128
    vertex 221.9626455011779 565.2140621433188 880.6999670232134
    vertex 222.63557501844448 565.302654994967 880.6999669603188
  endloop
endfacet
facet normal 0.2588190451025222 -0.9659258262888244 6.857382241263636e-07
  outer loop
    vertex 221.9626455011779 565.2140621433188 880.6999670232134
    vertex 222.63557501844411 565.3026564148264 882.6999703162128
    vertex 221.96264550117755 565.214063563178 882.6999703791075
  endloop
endfacet
facet normal -0.25881904510248704 -0.9659258262888339 6.857382531602365e-07
  outer loop
    vertex 223.308504535711 565.2140621433192 880.6999670232145
    vertex 222.63557501844411 565.3026564148264 882.6999703162128
    vertex 222.63557501844448 565.302654994967 880.6999669603188
  endloop
endfacet
facet normal -2.753532957753128e-14 -0.9999999999997481 7.099284629270348e-07
  outer loop
    vertex 222.63557501844411 565.3026564148264 882.6999703162128
    vertex 223.308504535711 565.2140621433192 880.6999670232145
    vertex 223.3085045357107 565.2140635631786 882.6999703791087
  endloop
endfacet
facet normal -0.49999999999998784 -0.8660254037842275 6.148161190303826e-07
  outer loop
    vertex 223.93557501844447 564.9543210448072 880.6999672076109
    vertex 223.3085045357107 565.2140635631786 882.6999703791087
    vertex 223.308504535711 565.2140621433192 880.6999670232145
  endloop
endfacet
facet normal -0.2588190451024778 -0.9659258262888364 6.857382531602383e-07
  outer loop
    vertex 223.3085045357107 565.2140635631786 882.6999703791087
    vertex 223.93557501844447 564.9543210448072 880.6999672076109
    vertex 223.93557501844424 564.9543224646666 882.6999705635052
  endloop
endfacet
facet normal -0.7071067811864931 -0.7071067811864238 5.019952764252638e-07
  outer loop
    vertex 224.4740526495295 564.5411326260529 880.6999675009463
    vertex 223.93557501844424 564.9543224646666 882.6999705635052
    vertex 223.93557501844447 564.9543210448072 880.6999672076109
  endloop
endfacet
facet normal -0.4999999999999672 -0.8660254037842392 6.148161190303912e-07
  outer loop
    vertex 223.93557501844424 564.9543224646666 882.6999705635052
    vertex 224.4740526495295 564.5411326260529 880.6999675009463
    vertex 224.4740526495292 564.5411340459121 882.6999708568404
  endloop
endfacet
facet normal -0.866025403784475 -0.49999999999981093 3.5496427375559493e-07
  outer loop
    vertex 224.88724106828414 564.0026564148272 882.6999712391209
    vertex 224.4740526495295 564.5411326260529 880.6999675009463
    vertex 224.88724106828408 564.0026549949679 880.6999678832269
  endloop
endfacet
facet normal -0.7071067811864931 -0.7071067811864238 5.019952764252638e-07
  outer loop
    vertex 224.4740526495295 564.5411326260529 880.6999675009463
    vertex 224.88724106828414 564.0026564148272 882.6999712391209
    vertex 224.4740526495292 564.5411340459121 882.6999708568404
  endloop
endfacet
facet normal -0.9659258262890671 -0.2588190451024597 1.8374303877055052e-07
  outer loop
    vertex 225.14698216679614 563.3755859320939 882.6999716842971
    vertex 224.88724106828408 564.0026549949679 880.6999678832269
    vertex 225.14698216679614 563.3755845122347 880.699968328403
  endloop
endfacet
facet normal -0.8660254037844204 -0.4999999999999054 3.5496427375566195e-07
  outer loop
    vertex 224.88724106828408 564.0026549949679 880.6999678832269
    vertex 225.14698216679614 563.3755859320939 882.6999716842971
    vertex 224.88724106828414 564.0026564148272 882.6999712391209
  endloop
endfacet
facet normal -1.0 -1.1177205142100233e-13 1.6708096220892477e-14
  outer loop
    vertex 225.23557501844417 562.7026564148276 882.6999721620278
    vertex 225.14698216679614 563.3755845122347 880.699968328403
    vertex 225.23557501844448 562.7026549949683 880.6999688061338
  endloop
endfacet
facet normal -0.9659258262890694 -0.25881904510245124 1.837430387705445e-07
  outer loop
    vertex 225.14698216679614 563.3755845122347 880.699968328403
    vertex 225.23557501844417 562.7026564148276 882.6999721620278
    vertex 225.14698216679614 563.3755859320939 882.6999716842971
  endloop
endfacet
facet normal -0.9659258262890927 0.2588190451023639 -1.8374302751618034e-07
  outer loop
    vertex 225.14698216679582 562.0297268975612 882.6999726397605
    vertex 225.23557501844448 562.7026549949683 880.6999688061338
    vertex 225.14698216679628 562.0297254777018 880.6999692838664
  endloop
endfacet
facet normal -1.0 -8.903981007737986e-14 1.670808009115418e-14
  outer loop
    vertex 225.23557501844448 562.7026549949683 880.6999688061338
    vertex 225.14698216679582 562.0297268975612 882.6999726397605
    vertex 225.23557501844417 562.7026564148276 882.6999721620278
  endloop
endfacet
facet normal -0.8660254037844742 0.49999999999981204 -3.549642568090627e-07
  outer loop
    vertex 224.88724106828374 561.4026564148279 882.699973084935
    vertex 225.14698216679628 562.0297254777018 880.6999692838664
    vertex 224.88724106828428 561.4026549949685 880.6999697290408
  endloop
endfacet
facet normal -0.9659258262890971 0.2588190451023485 -1.8374302751616944e-07
  outer loop
    vertex 225.14698216679628 562.0297254777018 880.6999692838664
    vertex 224.88724106828374 561.4026564148279 882.699973084935
    vertex 225.14698216679582 562.0297268975612 882.6999726397605
  endloop
endfacet
facet normal -0.7071067811865928 0.707106781186324 -5.01995209137437e-07
  outer loop
    vertex 224.47405264952937 560.864178783743 882.6999734672154
    vertex 224.88724106828428 561.4026549949685 880.6999697290408
    vertex 224.4740526495296 560.8641773638838 880.6999701113212
  endloop
endfacet
facet normal -0.8660254037844277 0.49999999999989275 -3.5496425680912005e-07
  outer loop
    vertex 224.88724106828428 561.4026549949685 880.6999697290408
    vertex 224.47405264952937 560.864178783743 882.6999734672154
    vertex 224.88724106828374 561.4026564148279 882.699973084935
  endloop
endfacet
facet normal 4.018822243514869e-09 1.0 -2.0850749103344426e-09
  outer loop
    vertex 212.63557505539347 569.7523648416098 882.6999634350726
    vertex 214.63557508724094 569.7523646730942 873.602462665199
    vertex 212.63557537528396 569.7523647723913 873.6024622989239
  endloop
endfacet
facet normal 4.018822243514869e-09 1.0 -2.0850749103344426e-09
  outer loop
    vertex 220.5650227264213 569.7523646730951 858.8750560548859
    vertex 224.70612744806155 569.7523646730951 858.8750560548892
    vertex 222.6355750872415 569.7523646730948 858.6024626651974
  endloop
endfacet
facet normal 4.018822243514869e-09 1.0 -2.0850749103344426e-09
  outer loop
    vertex 224.70612744806155 569.7523646730951 858.8750560548892
    vertex 220.5650227264213 569.7523646730951 858.8750560548859
    vertex 218.6355750872414 569.7523646730946 859.674259434926
  endloop
endfacet
facet normal 4.018822243514869e-09 1.0 -2.0850749103344426e-09
  outer loop
    vertex 224.70612744806155 569.7523646730951 858.8750560548892
    vertex 218.6355750872414 569.7523646730946 859.674259434926
    vertex 219.63557642109657 569.7523660772738 859.6742588684676
  endloop
endfacet
facet normal 4.018822243514869e-09 1.0 -2.0850749103344426e-09
  outer loop
    vertex 219.63557642109657 569.7523660772738 859.6742588684676
    vertex 218.6355750872414 569.7523646730946 859.674259434926
    vertex 219.63557511679062 569.7523647729682 882.699965700897
  endloop
endfacet
facet normal 4.018822243514869e-09 1.0 -2.0850749103344426e-09
  outer loop
    vertex 219.63557511679062 569.7523647729682 882.699965700897
    vertex 218.6355750872414 569.7523646730946 859.674259434926
    vertex 216.9787208377494 569.752364673095 860.9456084157048
  endloop
endfacet
facet normal 4.018822243514869e-09 1.0 -2.0850749103344426e-09
  outer loop
    vertex 219.63557511679062 569.7523647729682 882.699965700897
    vertex 216.9787208377494 569.752364673095 860.9456084157048
    vertex 215.70737185696572 569.7523646730946 862.6024626651974
  endloop
endfacet
facet normal 4.018822243514869e-09 1.0 -2.0850749103344426e-09
  outer loop
    vertex 219.63557511679062 569.7523647729682 882.699965700897
    vertex 215.70737185696572 569.7523646730946 862.6024626651974
    vertex 214.90816847692867 569.7523646730943 864.531910304378
  endloop
endfacet
facet normal 4.018822243514869e-09 1.0 -2.0850749103344426e-09
  outer loop
    vertex 219.63557511679062 569.7523647729682 882.699965700897
    vertex 214.90816847692867 569.7523646730943 864.531910304378
    vertex 214.63557508724162 569.7523646730945 866.6024626651981
  endloop
endfacet
facet normal 4.018822243514869e-09 1.0 -2.0850749103344426e-09
  outer loop
    vertex 219.63557511679062 569.7523647729682 882.699965700897
    vertex 214.63557508724162 569.7523646730945 866.6024626651981
    vertex 214.63557508724094 569.7523646730942 873.602462665199
  endloop
endfacet
facet normal 4.018822243514869e-09 1.0 -2.0850749103344426e-09
  outer loop
    vertex 219.63557511679062 569.7523647729682 882.699965700897
    vertex 214.63557508724094 569.7523646730942 873.602462665199
    vertex 212.63557505539347 569.7523648416098 882.6999634350726
  endloop
endfacet
facet normal 4.018822243514869e-09 1.0 -2.0850749103344426e-09
  outer loop
    vertex 219.63557642109657 569.7523660772738 859.6742588684676
    vertex 226.63557508724136 569.7523646730948 859.674259434923
    vertex 224.70612744806155 569.7523646730951 858.8750560548892
  endloop
endfacet
facet normal 4.018822243514869e-09 1.0 -2.0850749103344426e-09
  outer loop
    vertex 226.63557508724136 569.7523646730948 859.674259434923
    vertex 219.63557642109657 569.7523660772738 859.6742588684676
    vertex 225.6355764210964 569.7523660184378 859.6742595482151
  endloop
endfacet
facet normal 4.018822243514869e-09 1.0 -2.0850749103344426e-09
  outer loop
    vertex 226.63557508724136 569.7523646730948 859.674259434923
    vertex 225.6355764210964 569.7523660184378 859.6742595482151
    vertex 228.2924293367342 569.7523646730951 860.9456084157051
  endloop
endfacet
facet normal 4.018822243514869e-09 1.0 -2.0850749103344426e-09
  outer loop
    vertex 228.2924293367342 569.7523646730951 860.9456084157051
    vertex 225.6355764210964 569.7523660184378 859.6742595482151
    vertex 225.63557511679042 569.7523647141322 882.6999663806445
  endloop
endfacet
facet normal 4.018822243514869e-09 1.0 -2.0850749103344426e-09
  outer loop
    vertex 228.2924293367342 569.7523646730951 860.9456084157051
    vertex 225.63557511679042 569.7523647141322 882.6999663806445
    vertex 229.56377831751675 569.7523646730948 862.6024626651978
  endloop
endfacet
facet normal 4.018822243514869e-09 1.0 -2.0850749103344426e-09
  outer loop
    vertex 229.56377831751675 569.7523646730948 862.6024626651978
    vertex 225.63557511679042 569.7523647141322 882.6999663806445
    vertex 230.36298169755383 569.7523646730948 864.5319103043817
  endloop
endfacet
facet normal 4.018822243514869e-09 1.0 -2.0850749103344426e-09
  outer loop
    vertex 230.36298169755383 569.7523646730948 864.5319103043817
    vertex 225.63557511679042 569.7523647141322 882.6999663806445
    vertex 230.6355750872416 569.7523646730947 866.6024626652
  endloop
endfacet
facet normal 4.018822243514869e-09 1.0 -2.0850749103344426e-09
  outer loop
    vertex 230.6355750872416 569.7523646730947 866.6024626652
    vertex 225.63557511679042 569.7523647141322 882.6999663806445
    vertex 230.635575087241 569.7523646730946 873.6024626651996
  endloop
endfacet
facet normal 4.018822243514869e-09 1.0 -2.0850749103344426e-09
  outer loop
    vertex 230.635575087241 569.7523646730946 873.6024626651996
    vertex 225.63557511679042 569.7523647141322 882.6999663806445
    vertex 232.6355067034023 569.7523645762719 873.6024668305745
  endloop
endfacet
facet normal 4.018822243514869e-09 1.0 -2.0850749103344426e-09
  outer loop
    vertex 232.6355067034023 569.7523645762719 873.6024668305745
    vertex 225.63557511679042 569.7523647141322 882.6999663806445
    vertex 232.63557511679028 569.7523646454906 882.699967966721
  endloop
endfacet
facet normal -2.1255109748618473e-07 5.322632861190256e-07 0.9999999999998359
  outer loop
    vertex 212.63558899835832 555.3755718704018 882.6999736415643
    vertex 219.63557511679062 569.7523647729682 882.699965700897
    vertex 212.63557505539347 569.7523648416098 882.6999634350726
  endloop
endfacet
facet normal -2.1255109748618473e-07 5.322632861190256e-07 0.9999999999998359
  outer loop
    vertex 219.63557511679062 569.7523647729682 882.699965700897
    vertex 212.63558899835832 555.3755718704018 882.6999736415643
    vertex 220.03557501844418 562.7026564148275 882.6999721620277
  endloop
endfacet
facet normal -2.1255109748618473e-07 5.322632861190256e-07 0.9999999999998359
  outer loop
    vertex 220.03557501844418 562.7026564148275 882.6999721620277
    vertex 212.63558899835832 555.3755718704018 882.6999736415643
    vertex 220.1241678700927 562.0297268975611 882.6999726397595
  endloop
endfacet
facet normal -2.1255109748618473e-07 5.322632861190256e-07 0.9999999999998359
  outer loop
    vertex 220.1241678700927 562.0297268975611 882.6999726397595
    vertex 212.63558899835832 555.3755718704018 882.6999736415643
    vertex 220.3839089686046 561.4026564148279 882.6999730849359
  endloop
endfacet
facet normal -2.1255109748618473e-07 5.322632861190256e-07 0.9999999999998359
  outer loop
    vertex 220.3839089686046 561.4026564148279 882.6999730849359
    vertex 212.63558899835832 555.3755718704018 882.6999736415643
    vertex 220.79709738735934 560.8641787837429 882.6999734672165
  endloop
endfacet
facet normal -2.1255109748618473e-07 5.322632861190256e-07 0.9999999999998359
  outer loop
    vertex 220.79709738735934 560.8641787837429 882.6999734672165
    vertex 212.63558899835832 555.3755718704018 882.6999736415643
    vertex 221.33557501844427 560.4509903649885 882.6999737605485
  endloop
endfacet
facet normal -2.1255109748618473e-07 5.322632861190256e-07 0.9999999999998359
  outer loop
    vertex 221.33557501844427 560.4509903649885 882.6999737605485
    vertex 212.63558899835832 555.3755718704018 882.6999736415643
    vertex 232.6355890369867 555.3755716742826 882.6999781732168
  endloop
endfacet
facet normal -2.1255109748618473e-07 5.322632861190256e-07 0.9999999999998359
  outer loop
    vertex 221.33557501844427 560.4509903649885 882.6999737605485
    vertex 232.6355890369867 555.3755716742826 882.6999781732168
    vertex 221.96264550117812 560.1912492664761 882.6999739449462
  endloop
endfacet
facet normal -2.1255109748618473e-07 5.322632861190256e-07 0.9999999999998359
  outer loop
    vertex 221.96264550117812 560.1912492664761 882.6999739449462
    vertex 232.6355890369867 555.3755716742826 882.6999781732168
    vertex 222.6355750184447 560.1026564148278 882.6999740078408
  endloop
endfacet
facet normal -2.1255109748618473e-07 5.322632861190256e-07 0.9999999999998359
  outer loop
    vertex 222.6355750184447 560.1026564148278 882.6999740078408
    vertex 232.6355890369867 555.3755716742826 882.6999781732168
    vertex 223.3085045357113 560.1912492664766 882.6999739449474
  endloop
endfacet
facet normal -2.1255109748618473e-07 5.322632861190256e-07 0.9999999999998359
  outer loop
    vertex 223.3085045357113 560.1912492664766 882.6999739449474
    vertex 232.6355890369867 555.3755716742826 882.6999781732168
    vertex 223.93557501844433 560.4509903649886 882.6999737605486
  endloop
endfacet
facet normal -2.1255109748618473e-07 5.322632861190256e-07 0.9999999999998359
  outer loop
    vertex 223.93557501844433 560.4509903649886 882.6999737605486
    vertex 232.6355890369867 555.3755716742826 882.6999781732168
    vertex 224.47405264952937 560.864178783743 882.6999734672154
  endloop
endfacet
facet normal -2.1255109748618473e-07 5.322632861190256e-07 0.9999999999998359
  outer loop
    vertex 224.47405264952937 560.864178783743 882.6999734672154
    vertex 232.6355890369867 555.3755716742826 882.6999781732168
    vertex 224.88724106828374 561.4026564148279 882.699973084935
  endloop
endfacet
facet normal -2.1255109748618473e-07 5.322632861190256e-07 0.9999999999998359
  outer loop
    vertex 224.88724106828374 561.4026564148279 882.699973084935
    vertex 232.6355890369867 555.3755716742826 882.6999781732168
    vertex 225.14698216679582 562.0297268975612 882.6999726397605
  endloop
endfacet
facet normal -2.1255109748618473e-07 5.322632861190256e-07 0.9999999999998359
  outer loop
    vertex 225.14698216679582 562.0297268975612 882.6999726397605
    vertex 232.6355890369867 555.3755716742826 882.6999781732168
    vertex 225.23557501844417 562.7026564148276 882.6999721620278
  endloop
endfacet
facet normal -2.1255109748618473e-07 5.322632861190256e-07 0.9999999999998359
  outer loop
    vertex 225.23557501844417 562.7026564148276 882.6999721620278
    vertex 232.6355890369867 555.3755716742826 882.6999781732168
    vertex 225.63557511679042 569.7523647141322 882.6999663806445
  endloop
endfacet
facet normal -2.1255109748618473e-07 5.322632861190256e-07 0.9999999999998359
  outer loop
    vertex 225.23557501844417 562.7026564148276 882.6999721620278
    vertex 225.63557511679042 569.7523647141322 882.6999663806445
    vertex 225.6355751167903 575.6523647141322 882.69996637498
  endloop
endfacet
facet normal -2.1255109748618473e-07 5.322632861190256e-07 0.9999999999998359
  outer loop
    vertex 225.63557511679042 569.7523647141322 882.6999663806445
    vertex 232.6355890369867 555.3755716742826 882.6999781732168
    vertex 232.63557511679028 569.7523646454906 882.699967966721
  endloop
endfacet
facet normal -2.1255109748618473e-07 5.322632861190256e-07 0.9999999999998359
  outer loop
    vertex 219.63557511679062 569.7523647729682 882.699965700897
    vertex 225.6355751167903 575.6523647141322 882.69996637498
    vertex 219.6355751167903 575.6523647141322 882.6999663749798
  endloop
endfacet
facet normal -2.1255109748618473e-07 5.322632861190256e-07 0.9999999999998359
  outer loop
    vertex 225.6355751167903 575.6523647141322 882.69996637498
    vertex 219.63557511679062 569.7523647729682 882.699965700897
    vertex 220.3839089686051 564.0026564148271 882.6999712391219
  endloop
endfacet
facet normal -2.1255109748618473e-07 5.322632861190256e-07 0.9999999999998359
  outer loop
    vertex 220.3839089686051 564.0026564148271 882.6999712391219
    vertex 219.63557511679062 569.7523647729682 882.699965700897
    vertex 220.124167870093 563.3755859320938 882.699971684296
  endloop
endfacet
facet normal -2.1255109748618473e-07 5.322632861190256e-07 0.9999999999998359
  outer loop
    vertex 220.124167870093 563.3755859320938 882.699971684296
    vertex 219.63557511679062 569.7523647729682 882.699965700897
    vertex 220.03557501844418 562.7026564148275 882.6999721620277
  endloop
endfacet
facet normal -2.1255109748618473e-07 5.322632861190256e-07 0.9999999999998359
  outer loop
    vertex 225.6355751167903 575.6523647141322 882.69996637498
    vertex 220.3839089686051 564.0026564148271 882.6999712391219
    vertex 220.79709738735914 564.541134045912 882.6999708568414
  endloop
endfacet
facet normal -2.1255109748618473e-07 5.322632861190256e-07 0.9999999999998359
  outer loop
    vertex 225.6355751167903 575.6523647141322 882.69996637498
    vertex 220.79709738735914 564.541134045912 882.6999708568414
    vertex 221.3355750184442 564.9543224646665 882.6999705635051
  endloop
endfacet
facet normal -2.1255109748618473e-07 5.322632861190256e-07 0.9999999999998359
  outer loop
    vertex 225.6355751167903 575.6523647141322 882.69996637498
    vertex 221.3355750184442 564.9543224646665 882.6999705635051
    vertex 221.96264550117755 565.214063563178 882.6999703791075
  endloop
endfacet
facet normal -2.1255109748618473e-07 5.322632861190256e-07 0.9999999999998359
  outer loop
    vertex 225.6355751167903 575.6523647141322 882.69996637498
    vertex 221.96264550117755 565.214063563178 882.6999703791075
    vertex 222.63557501844411 565.3026564148264 882.6999703162128
  endloop
endfacet
facet normal -2.1255109748618473e-07 5.322632861190256e-07 0.9999999999998359
  outer loop
    vertex 225.6355751167903 575.6523647141322 882.69996637498
    vertex 222.63557501844411 565.3026564148264 882.6999703162128
    vertex 223.3085045357107 565.2140635631786 882.6999703791087
  endloop
endfacet
facet normal -2.1255109748618473e-07 5.322632861190256e-07 0.9999999999998359
  outer loop
    vertex 225.6355751167903 575.6523647141322 882.69996637498
    vertex 223.3085045357107 565.2140635631786 882.6999703791087
    vertex 223.93557501844424 564.9543224646666 882.6999705635052
  endloop
endfacet
facet normal -2.1255109748618473e-07 5.322632861190256e-07 0.9999999999998359
  outer loop
    vertex 225.6355751167903 575.6523647141322 882.69996637498
    vertex 223.93557501844424 564.9543224646666 882.6999705635052
    vertex 224.4740526495292 564.5411340459121 882.6999708568404
  endloop
endfacet
facet normal -2.1255109748618473e-07 5.322632861190256e-07 0.9999999999998359
  outer loop
    vertex 225.6355751167903 575.6523647141322 882.69996637498
    vertex 224.4740526495292 564.5411340459121 882.6999708568404
    vertex 224.88724106828414 564.0026564148272 882.6999712391209
  endloop
endfacet
facet normal -2.1255109748618473e-07 5.322632861190256e-07 0.9999999999998359
  outer loop
    vertex 225.6355751167903 575.6523647141322 882.69996637498
    vertex 224.88724106828414 564.0026564148272 882.6999712391209
    vertex 225.14698216679614 563.3755859320939 882.6999716842971
  endloop
endfacet
facet normal -2.1255109748618473e-07 5.322632861190256e-07 0.9999999999998359
  outer loop
    vertex 225.6355751167903 575.6523647141322 882.69996637498
    vertex 225.14698216679614 563.3755859320939 882.6999716842971
    vertex 225.23557501844417 562.7026564148276 882.6999721620278
  endloop
endfacet
facet normal 0.9999999999655618 4.841174471155028e-07 -8.285071519528961e-06
  outer loop
    vertex 232.63550670340265 555.3755721038161 873.6024668305747
    vertex 232.63557511679028 569.7523646454906 882.699967966721
    vertex 232.6355890369867 555.3755716742826 882.6999781732168
  endloop
endfacet
facet normal 0.9999999999655618 4.841174471155028e-07 -8.285071519528961e-06
  outer loop
    vertex 232.63557511679028 569.7523646454906 882.699967966721
    vertex 232.63550670340265 555.3755721038161 873.6024668305747
    vertex 232.6355067034023 569.7523645762719 873.6024668305745
  endloop
endfacet
facet normal 5.6645637081141055e-08 5.6645606723769606e-08 -0.9999999999999969
  outer loop
    vertex 225.63557642109626 575.6523660184379 859.6742595425507
    vertex 219.63557642109657 569.7523660772738 859.6742588684676
    vertex 219.63557642109626 575.6523660184379 859.6742595425504
  endloop
endfacet
facet normal 5.6645637081141055e-08 5.6645606723769606e-08 -0.9999999999999969
  outer loop
    vertex 219.63557642109657 569.7523660772738 859.6742588684676
    vertex 225.63557642109626 575.6523660184379 859.6742595425507
    vertex 225.6355764210964 569.7523660184378 859.6742595482151
  endloop
endfacet
facet normal -0.9999999999999986 -5.374183252658241e-14 -5.66456370811442e-08
  outer loop
    vertex 219.6355751167903 575.6523647141322 882.6999663749798
    vertex 219.63557642109657 569.7523660772738 859.6742588684676
    vertex 219.63557511679062 569.7523647729682 882.699965700897
  endloop
endfacet
facet normal -0.9999999999999986 -5.374183252658241e-14 -5.66456370811442e-08
  outer loop
    vertex 219.63557642109657 569.7523660772738 859.6742588684676
    vertex 219.6355751167903 575.6523647141322 882.6999663749798
    vertex 219.63557642109626 575.6523660184379 859.6742595425504
  endloop
endfacet
facet normal 0.9999999999999986 3.0079642480510915e-14 5.664563708114285e-08
  outer loop
    vertex 225.6355764210964 569.7523660184378 859.6742595482151
    vertex 225.6355751167903 575.6523647141322 882.69996637498
    vertex 225.63557511679042 569.7523647141322 882.6999663806445
  endloop
endfacet
facet normal 0.9999999999999986 3.0079642480510915e-14 5.664563708114285e-08
  outer loop
    vertex 225.6355751167903 575.6523647141322 882.69996637498
    vertex 225.6355764210964 569.7523660184378 859.6742595482151
    vertex 225.63557642109626 575.6523660184379 859.6742595425507
  endloop
endfacet
facet normal -3.0079644184390516e-14 0.9999999999999986 5.664560672376799e-08
  outer loop
    vertex 219.6355751167903 575.6523647141322 882.6999663749798
    vertex 225.63557642109626 575.6523660184379 859.6742595425507
    vertex 219.63557642109626 575.6523660184379 859.6742595425504
  endloop
endfacet
facet normal -3.0079644184390516e-14 0.9999999999999986 5.664560672376799e-08
  outer loop
    vertex 225.63557642109626 575.6523660184379 859.6742595425507
    vertex 219.6355751167903 575.6523647141322 882.6999663749798
    vertex 225.6355751167903 575.6523647141322 882.69996637498
  endloop
endfacet
endsolid Sli3DR_Ultimaker2_rework
